<svg width="304" height="304" viewBox="0 0 304 304" fill="none" xmlns="http://www.w3.org/2000/svg">
  <path fill-rule="evenodd" clip-rule="evenodd"
    d="M56 0C69.2175 0 81.3655 4.57917 90.944 12.2376C98.0041 17.8824 109.996 17.8824 117.056 12.2376C126.635 4.57917 138.782 0 152 0C165.218 0 177.365 4.57917 186.944 12.2376C194.004 17.8824 205.996 17.8824 213.056 12.2376C222.635 4.57917 234.782 0 248 0C278.928 0 304 25.0721 304 56C304 69.2175 299.421 81.3655 291.762 90.9441C286.118 98.0041 286.118 109.996 291.762 117.056C299.421 126.635 304 138.782 304 152C304 165.218 299.421 177.365 291.762 186.944C286.118 194.004 286.118 205.996 291.762 213.056C299.421 222.635 304 234.783 304 248C304 278.928 278.928 304 248 304C234.782 304 222.635 299.421 213.056 291.762C205.996 286.118 194.004 286.118 186.944 291.762C177.365 299.421 165.218 304 152 304C138.783 304 126.635 299.421 117.056 291.762C109.996 286.118 98.0041 286.118 90.9441 291.762C81.3655 299.421 69.2175 304 56 304C25.0721 304 0 278.928 0 248C0 234.782 4.57917 222.635 12.2376 213.056C17.8824 205.996 17.8824 194.004 12.2376 186.944C4.57917 177.365 0 165.218 0 152C0 138.782 4.57917 126.635 12.2376 117.056C17.8824 109.996 17.8824 98.0041 12.2376 90.9441C4.57917 81.3655 0 69.2175 0 56C0 25.0721 25.0721 0 56 0Z"
    fill="url(#paint0_linear_2272_41695)" />
  <defs>
    <linearGradient id="paint0_linear_2272_41695" x1="152" y1="0" x2="152" y2="304"
      gradientUnits="userSpaceOnUse">
      <stop stop-color="#FFF2E2" />
      <stop offset="1" stop-color="#C4B7BA" />
    </linearGradient>
  </defs>
</svg>
