<svg width="835" height="341" viewBox="0 0 835 341" fill="none" xmlns="http://www.w3.org/2000/svg">
  <g filter="url(#filter0_d_234_56216)">
    <path
      d="M229.595 14.8121C222.444 20.3626 211.113 20.3626 203.963 14.8121C193.617 6.78124 180.623 2 166.512 2C152.401 2 139.406 6.78124 129.06 14.8121C121.91 20.3626 110.579 20.3626 103.428 14.8121C93.0825 6.78124 80.0882 2 65.9772 2C32.2163 2 4.84766 29.3686 4.84766 63.1295C4.84766 77.6449 9.90684 90.9786 18.3581 101.464C24.506 109.091 24.506 122.109 18.3581 129.736C9.90684 140.221 4.84766 153.555 4.84766 168.07C4.84766 182.586 9.90697 195.919 18.3584 206.404C24.5067 214.032 24.5067 227.051 18.3584 234.679C9.90697 245.164 4.84766 258.498 4.84766 273.013C4.84766 306.774 32.2163 334.143 65.9772 334.143C80.0888 334.143 93.0836 329.361 103.43 321.33C110.58 315.779 121.911 315.779 129.062 321.329C139.407 329.359 152.401 334.14 166.512 334.14C180.623 334.14 193.617 329.359 203.963 321.328C211.113 315.777 222.444 315.777 229.595 321.328C239.941 329.359 252.935 334.14 267.046 334.14C281.156 334.14 294.15 329.359 304.495 321.329C311.646 315.779 322.977 315.779 330.127 321.33C340.474 329.362 353.469 334.144 367.58 334.144C381.692 334.144 394.687 329.362 405.033 321.33C412.184 315.779 423.515 315.779 430.665 321.329C441.011 329.359 454.005 334.14 468.115 334.14C482.226 334.14 495.22 329.359 505.566 321.328C512.717 315.777 524.047 315.777 531.198 321.328C541.544 329.359 554.538 334.14 568.649 334.14C582.759 334.14 595.753 329.359 606.099 321.329C613.25 315.779 624.58 315.779 631.731 321.33C642.077 329.362 655.072 334.144 669.184 334.144C683.295 334.144 696.289 329.362 706.635 321.331C713.786 315.781 725.117 315.78 732.267 321.331C742.613 329.362 755.607 334.143 769.718 334.143C803.479 334.143 830.848 306.774 830.848 273.013C830.848 258.498 825.788 245.164 817.337 234.679C811.189 227.051 811.189 214.032 817.337 206.404C825.788 195.919 830.848 182.586 830.848 168.07C830.848 153.555 825.788 140.221 817.337 129.736C811.189 122.109 811.189 109.091 817.337 101.464C825.788 90.9786 830.848 77.6449 830.848 63.1295C830.848 29.3686 803.479 2 769.718 2C755.607 2 742.613 6.78125 732.267 14.8121C725.116 20.3626 713.786 20.3626 706.635 14.8121C696.289 6.78125 683.295 2 669.184 2C655.073 2 642.078 6.78125 631.732 14.8121C624.582 20.3626 613.251 20.3626 606.1 14.8121C595.755 6.78125 582.76 2 568.649 2C554.538 2 541.544 6.78125 531.198 14.8121C524.047 20.3626 512.717 20.3626 505.566 14.8121C495.22 6.78125 482.226 2 468.115 2C454.004 2 441.01 6.78124 430.664 14.8121C423.513 20.3626 412.182 20.3626 405.032 14.8121C394.686 6.78124 381.691 2 367.58 2C353.469 2 340.475 6.78124 330.129 14.8121C322.979 20.3626 311.648 20.3626 304.497 14.8121C294.151 6.78124 281.157 2 267.046 2C252.935 2 239.941 6.78125 229.595 14.8121Z"
      fill="url(#paint0_linear_234_56216)" />
  </g>
  <defs>
    <filter id="filter0_d_234_56216" x="0.847656" y="0" width="834" height="340.144"
      filterUnits="userSpaceOnUse" color-interpolation-filters="sRGB">
      <feFlood flood-opacity="0" result="BackgroundImageFix" />
      <feColorMatrix in="SourceAlpha" type="matrix"
        values="0 0 0 0 0 0 0 0 0 0 0 0 0 0 0 0 0 0 127 0" result="hardAlpha" />
      <feOffset dy="2" />
      <feGaussianBlur stdDeviation="2" />
      <feComposite in2="hardAlpha" operator="out" />
      <feColorMatrix type="matrix"
        values="0 0 0 0 0.0980392 0 0 0 0 0.0980392 0 0 0 0 0.0980392 0 0 0 0.12 0" />
      <feBlend mode="normal" in2="BackgroundImageFix" result="effect1_dropShadow_234_56216" />
      <feBlend mode="normal" in="SourceGraphic" in2="effect1_dropShadow_234_56216" result="shape" />
    </filter>
    <linearGradient id="paint0_linear_234_56216" x1="417.848" y1="2" x2="417.848" y2="334.144"
      gradientUnits="userSpaceOnUse">
      <stop stop-color="#FFF2E2" />
      <stop offset="1" stop-color="#C4B7BA" />
    </linearGradient>
  </defs>
</svg>
