<svg width="835" height="304" viewBox="0 0 835 304" fill="none" xmlns="http://www.w3.org/2000/svg">
  <g filter="url(#filter0_d_234_56595)">
    <path
      d="M809.968 78.6002C822.152 71.4676 830.336 58.2409 830.336 43.1029C830.336 20.4024 811.933 2 789.233 2C775.219 2 762.844 9.01304 755.424 19.7209C748.005 9.01317 735.629 2.00023 721.615 2.00023C707.602 2.00023 695.226 9.01322 687.807 19.7211C680.387 9.01322 668.012 2.00023 653.998 2.00023C639.984 2.00023 627.609 9.01322 620.189 19.7211C612.77 9.01322 600.394 2.00023 586.381 2.00023C572.367 2.00023 559.991 9.01322 552.572 19.7211C545.152 9.01322 532.777 2.00023 518.763 2.00023C504.75 2.00023 492.374 9.01321 484.954 19.721C477.535 9.01321 465.159 2.00023 451.146 2.00023C437.132 2.00023 424.756 9.01321 417.337 19.721C409.917 9.01321 397.542 2.00023 383.528 2.00023C369.515 2.00023 357.139 9.01321 349.719 19.721C342.3 9.01321 329.924 2.00023 315.911 2.00023C301.897 2.00023 289.521 9.01321 282.102 19.721C274.682 9.01321 262.307 2.00023 248.293 2.00023C234.28 2.00023 221.904 9.01321 214.484 19.721C207.065 9.01321 194.689 2.00023 180.676 2.00023C166.662 2.00023 154.286 9.01321 146.867 19.721C139.447 9.01321 127.072 2.00023 113.058 2.00023C99.0446 2.00023 86.669 9.01321 79.2495 19.721C71.83 9.01321 59.4543 2.00023 45.4408 2.00023C22.7403 2.00023 4.33789 20.4026 4.33789 43.1031C4.33789 58.2415 12.5219 71.4685 24.7069 78.601C12.5219 85.7335 4.33789 98.9604 4.33789 114.099C4.33789 129.237 12.5219 142.464 24.7069 149.597C12.5219 156.729 4.33789 169.956 4.33789 185.095C4.33789 200.267 12.559 213.52 24.7898 220.641C12.559 227.762 4.33789 241.014 4.33789 256.187C4.33789 278.888 22.7403 297.29 45.4408 297.29C59.4543 297.29 71.83 290.277 79.2495 279.569C86.669 290.277 99.0446 297.29 113.058 297.29C127.072 297.29 139.447 290.277 146.867 279.569C154.286 290.277 166.662 297.29 180.676 297.29C194.689 297.29 207.065 290.277 214.484 279.569C221.904 290.277 234.28 297.29 248.293 297.29C262.307 297.29 274.682 290.277 282.102 279.569C289.521 290.277 301.897 297.29 315.911 297.29C329.924 297.29 342.3 290.277 349.719 279.569C357.139 290.277 369.515 297.29 383.528 297.29C397.542 297.29 409.917 290.277 417.337 279.569C424.756 290.277 437.132 297.29 451.146 297.29C465.159 297.29 477.535 290.277 484.954 279.569C492.374 290.277 504.75 297.29 518.763 297.29C532.777 297.29 545.152 290.277 552.572 279.569C559.991 290.277 572.367 297.29 586.381 297.29C600.394 297.29 612.77 290.277 620.189 279.569C627.609 290.277 639.984 297.29 653.998 297.29C668.012 297.29 680.387 290.277 687.807 279.569C695.226 290.277 707.602 297.29 721.615 297.29C735.629 297.29 748.005 290.277 755.424 279.569C762.844 290.277 775.219 297.29 789.233 297.29C811.933 297.29 830.336 278.887 830.336 256.187C830.336 241.015 822.115 227.762 809.885 220.641C822.116 213.52 830.338 200.268 830.338 185.094C830.338 169.956 822.154 156.729 809.969 149.597C822.154 142.464 830.338 129.237 830.338 114.099C830.338 98.9598 822.153 85.7326 809.968 78.6002Z"
      fill="url(#paint0_linear_234_56595)" />
  </g>
  <defs>
    <filter id="filter0_d_234_56595" x="0.337891" y="0" width="834" height="303.29"
      filterUnits="userSpaceOnUse" color-interpolation-filters="sRGB">
      <feFlood flood-opacity="0" result="BackgroundImageFix" />
      <feColorMatrix in="SourceAlpha" type="matrix"
        values="0 0 0 0 0 0 0 0 0 0 0 0 0 0 0 0 0 0 127 0" result="hardAlpha" />
      <feOffset dy="2" />
      <feGaussianBlur stdDeviation="2" />
      <feComposite in2="hardAlpha" operator="out" />
      <feColorMatrix type="matrix"
        values="0 0 0 0 0.0980392 0 0 0 0 0.0980392 0 0 0 0 0.0980392 0 0 0 0.12 0" />
      <feBlend mode="normal" in2="BackgroundImageFix" result="effect1_dropShadow_234_56595" />
      <feBlend mode="normal" in="SourceGraphic" in2="effect1_dropShadow_234_56595" result="shape" />
    </filter>
    <linearGradient id="paint0_linear_234_56595" x1="417.338" y1="2" x2="417.338" y2="297.29"
      gradientUnits="userSpaceOnUse">
      <stop stop-color="#FFF2E2" />
      <stop offset="1" stop-color="#C4B7BA" />
    </linearGradient>
  </defs>
</svg>
