<svg width="730" height="730" viewBox="0 0 730 730" fill="none" xmlns="http://www.w3.org/2000/svg">
  <g filter="url(#filter0_d_368_41294)">
    <path
      d="M704.074 168.078C696.982 160.477 696.982 146.889 704.073 139.287C717.675 124.706 725.998 105.136 725.998 83.6227C725.998 38.5438 689.455 2 644.376 2C623.562 2 604.568 9.79045 590.15 22.6145C582.892 29.0706 570.762 29.0707 563.503 22.6146C549.085 9.79077 530.091 2.00047 509.278 2.00047C487.629 2.00047 467.949 10.4285 453.34 24.1824C445.653 31.4185 431.684 31.4185 423.998 24.1824C409.388 10.4285 389.708 2.00047 368.06 2.00047C346.411 2.00047 326.731 10.4285 312.121 24.1824C304.435 31.4185 290.466 31.4185 282.779 24.1824C268.17 10.4285 248.49 2.00047 226.841 2.00047C205.193 2.00047 185.512 10.4285 170.903 24.1824C163.217 31.4185 149.247 31.4185 141.561 24.1824C126.951 10.4285 107.271 2.00047 85.6227 2.00047C40.5438 2.00047 4 38.5442 4 83.6232C4 105.137 12.3234 124.707 25.9257 139.288C33.0169 146.89 33.0169 160.478 25.9257 168.079C12.3234 182.66 4 202.23 4 223.744C4 245.258 12.3237 264.829 25.9265 279.41C33.0181 287.012 33.0181 300.601 25.9265 308.202C12.3237 322.784 4 342.354 4 363.868C4 385.382 12.3234 404.952 25.9257 419.533C33.0169 427.135 33.0169 440.723 25.9257 448.324C12.3234 462.906 4 482.475 4 503.989C4 525.224 12.109 544.565 25.3993 559.085C32.2189 566.535 32.2189 579.462 25.3993 586.912C12.109 601.432 4 620.773 4 642.008C4 687.087 40.5438 723.63 85.6227 723.63C107.138 723.63 126.708 715.306 141.29 701.703C148.891 694.611 162.479 694.611 170.081 701.702C184.662 715.303 204.231 723.626 225.744 723.626C247.258 723.626 266.827 715.302 281.409 701.7C289.01 694.609 302.598 694.609 310.2 701.7C324.781 715.302 344.351 723.626 365.865 723.626C387.378 723.626 406.947 715.303 421.528 701.702C429.13 694.611 442.718 694.611 450.319 701.703C464.9 715.306 484.471 723.63 505.986 723.63C527.272 723.63 546.655 715.482 561.186 702.135C568.662 695.268 581.701 695.268 589.177 702.135C603.708 715.482 623.091 723.631 644.377 723.631C689.456 723.631 726 687.087 726 642.008C726 620.773 717.891 601.432 704.6 586.912C697.781 579.462 697.781 566.534 704.6 559.084C717.891 544.564 726 525.223 726 503.988C726 482.474 717.677 462.904 704.074 448.323C696.983 440.722 696.983 427.134 704.074 419.532C717.677 404.951 726 385.381 726 363.867C726 342.353 717.676 322.783 704.074 308.202C696.982 300.6 696.982 287.011 704.074 279.409C717.676 264.828 726 245.258 726 223.744C726 202.229 717.676 182.659 704.074 168.078Z"
      fill="url(#paint0_linear_368_41294)" />
  </g>
  <defs>
    <filter id="filter0_d_368_41294" x="0" y="0" width="730" height="729.63"
      filterUnits="userSpaceOnUse" color-interpolation-filters="sRGB">
      <feFlood flood-opacity="0" result="BackgroundImageFix" />
      <feColorMatrix in="SourceAlpha" type="matrix"
        values="0 0 0 0 0 0 0 0 0 0 0 0 0 0 0 0 0 0 127 0" result="hardAlpha" />
      <feOffset dy="2" />
      <feGaussianBlur stdDeviation="2" />
      <feComposite in2="hardAlpha" operator="out" />
      <feColorMatrix type="matrix"
        values="0 0 0 0 0.0980392 0 0 0 0 0.0980392 0 0 0 0 0.0980392 0 0 0 0.12 0" />
      <feBlend mode="normal" in2="BackgroundImageFix" result="effect1_dropShadow_368_41294" />
      <feBlend mode="normal" in="SourceGraphic" in2="effect1_dropShadow_368_41294" result="shape" />
    </filter>
    <linearGradient id="paint0_linear_368_41294" x1="365" y1="2" x2="365" y2="723.631"
      gradientUnits="userSpaceOnUse">
      <stop stop-color="#FFF2E2" />
      <stop offset="1" stop-color="#C4B7BA" />
    </linearGradient>
  </defs>
</svg>
