<svg width="308" height="308" viewBox="0 0 308 308" fill="none" xmlns="http://www.w3.org/2000/svg">
  <g filter="url(#filter0_d_368_39831)">
    <path
      d="M129.049 302.007C136.666 302.007 143.579 298.987 148.654 294.079C151.07 291.743 155.447 291.743 157.863 294.08C162.938 298.988 169.851 302.008 177.469 302.008C185.277 302.008 192.343 298.836 197.451 293.71C199.977 291.174 204.898 291.174 207.425 293.71C212.532 298.836 219.599 302.008 227.407 302.008C235.02 302.008 241.928 298.992 247.003 294.089C249.417 291.757 253.783 291.757 256.197 294.09C261.272 298.992 268.181 302.009 275.794 302.009C291.372 302.009 304 289.381 304 273.803C304 266.144 300.947 259.197 295.992 254.115C293.617 251.679 293.617 247.208 295.992 244.772C300.947 239.689 304 232.743 304 225.084C304 217.424 300.947 210.478 295.992 205.396C293.617 202.959 293.617 198.488 295.992 196.052C300.947 190.97 304 184.023 304 176.364C304 168.705 300.947 161.759 295.992 156.676C293.617 154.24 293.617 149.769 295.992 147.333C300.947 142.25 304 135.304 304 127.645C304 119.986 300.947 113.039 295.992 107.957C293.617 105.52 293.617 101.05 295.992 98.6134C300.947 93.5307 304 86.5845 304 78.9253C304 71.2661 300.947 64.3199 295.992 59.2372C293.617 56.8011 293.617 52.3302 295.992 49.8941C300.947 44.8114 304 37.8652 304 30.206C304 14.6283 291.372 2 275.794 2C268.181 2 261.272 5.01623 256.198 9.91888C253.783 12.2513 249.417 12.2513 247.003 9.91888C241.928 5.01623 235.02 2 227.407 2C219.737 2 212.782 5.06147 207.697 10.0291C205.255 12.4145 200.758 12.4145 198.317 10.0291C193.232 5.06147 186.277 2 178.607 2C170.937 2 163.982 5.06153 158.897 10.0292C156.455 12.4147 151.958 12.4147 149.516 10.0292C144.432 5.06153 137.477 2 129.807 2C122.137 2 115.182 5.06146 110.097 10.0291C107.655 12.4145 103.158 12.4145 100.717 10.0291C95.632 5.06146 88.677 2 81.0069 2C73.3367 2 66.3816 5.0616 61.2969 10.0294C58.8553 12.4149 54.3577 12.4149 51.916 10.0294C46.8314 5.0616 39.8762 2 32.206 2C16.6283 2 4 14.6283 4 30.206C4 37.8652 7.05281 44.8114 12.008 49.8941C14.383 52.3302 14.383 56.8011 12.008 59.2372C7.05281 64.3199 4 71.2661 4 78.9253C4 86.5845 7.05284 93.5307 12.0081 98.6135C14.3831 101.05 14.3831 105.521 12.0081 107.957C7.05284 113.039 4 119.986 4 127.645C4 135.304 7.05284 142.25 12.0081 147.333C14.3831 149.769 14.3831 154.24 12.0081 156.676C7.05284 161.759 4 168.705 4 176.364C4 184.024 7.05283 190.97 12.0081 196.052C14.3831 198.489 14.3831 202.96 12.0081 205.396C7.05284 210.478 4 217.425 4 225.084C4 232.743 7.05279 239.689 12.008 244.772C14.3829 247.208 14.3829 251.679 12.008 254.115C7.05279 259.198 4 266.144 4 273.803C4 289.381 16.6283 302.009 32.206 302.009C39.8244 302.009 46.7373 298.989 51.8127 294.08C54.2289 291.743 58.6056 291.743 61.022 294.08C66.0972 298.987 73.0094 302.007 80.6268 302.007C88.2449 302.007 95.1576 298.987 100.233 294.078C102.649 291.741 107.026 291.741 109.443 294.078C114.518 298.987 121.431 302.007 129.049 302.007Z"
      fill="url(#paint0_linear_368_39831)" />
  </g>
  <defs>
    <filter id="filter0_d_368_39831" x="0" y="0" width="308" height="308.009"
      filterUnits="userSpaceOnUse" color-interpolation-filters="sRGB">
      <feFlood flood-opacity="0" result="BackgroundImageFix" />
      <feColorMatrix in="SourceAlpha" type="matrix"
        values="0 0 0 0 0 0 0 0 0 0 0 0 0 0 0 0 0 0 127 0" result="hardAlpha" />
      <feOffset dy="2" />
      <feGaussianBlur stdDeviation="2" />
      <feComposite in2="hardAlpha" operator="out" />
      <feColorMatrix type="matrix"
        values="0 0 0 0 0.0980392 0 0 0 0 0.0980392 0 0 0 0 0.0980392 0 0 0 0.12 0" />
      <feBlend mode="normal" in2="BackgroundImageFix" result="effect1_dropShadow_368_39831" />
      <feBlend mode="normal" in="SourceGraphic" in2="effect1_dropShadow_368_39831" result="shape" />
    </filter>
    <linearGradient id="paint0_linear_368_39831" x1="154" y1="2" x2="154" y2="302.009"
      gradientUnits="userSpaceOnUse">
      <stop stop-color="#FFF2E2" />
      <stop offset="1" stop-color="#C4B7BA" />
    </linearGradient>
  </defs>
</svg>
