<svg width="624" height="624" viewBox="0 0 624 624" fill="none" xmlns="http://www.w3.org/2000/svg">
  <g filter="url(#filter0_d_181_47390)">
    <path
      d="M600.959 182.025C592.294 171.275 592.294 152.929 600.959 142.179C612.87 127.402 620 108.61 620 88.1531C620 40.572 581.428 2 533.847 2C513.39 2 494.598 9.13017 479.821 21.0409C469.071 29.7056 450.725 29.7056 439.975 21.0409C425.198 9.13018 406.406 2 385.949 2C365.492 2 346.7 9.13017 331.923 21.0409C321.173 29.7055 302.827 29.7056 292.077 21.0409C277.3 9.13017 258.508 2 238.051 2C217.594 2 198.802 9.13017 184.025 21.0409C173.275 29.7055 154.929 29.7055 144.179 21.0409C129.402 9.13017 110.61 2 90.1531 2C42.572 2 4 40.572 4 88.1531C4 108.61 11.1302 127.402 23.0409 142.179C31.7055 152.929 31.7055 171.275 23.0409 182.025C11.1302 196.802 4 215.594 4 236.051C4 256.509 11.1304 275.301 23.0414 290.078C31.7066 300.828 31.7066 319.176 23.0414 329.926C11.1304 344.703 4 363.495 4 383.953C4 404.41 11.1302 423.202 23.041 437.979C31.7056 448.729 31.7056 467.075 23.0409 477.825C11.1302 492.602 4 511.394 4 531.851C4 579.432 42.572 618.004 90.1531 618.004C110.611 618.004 129.404 610.873 144.181 598.962C154.93 590.297 173.277 590.296 184.027 598.961C198.803 610.87 217.595 618 238.051 618C258.508 618 277.3 610.87 292.077 598.959C302.827 590.294 321.173 590.294 331.923 598.959C346.7 610.87 365.492 618 385.949 618C406.405 618 425.197 610.87 439.973 598.961C450.723 590.296 469.07 590.297 479.819 598.962C494.596 610.873 513.389 618.004 533.847 618.004C581.428 618.004 620 579.432 620 531.851C620 511.394 612.87 492.602 600.959 477.825C592.294 467.075 592.294 448.729 600.959 437.979C612.87 423.202 620 404.41 620 383.953C620 363.495 612.87 344.703 600.959 329.926C592.293 319.176 592.293 300.828 600.959 290.078C612.87 275.301 620 256.509 620 236.051C620 215.594 612.87 196.802 600.959 182.025Z"
      fill="url(#paint0_linear_181_47390)" />
  </g>
  <defs>
    <filter id="filter0_d_181_47390" x="0" y="0" width="624" height="624.004"
      filterUnits="userSpaceOnUse" color-interpolation-filters="sRGB">
      <feFlood flood-opacity="0" result="BackgroundImageFix" />
      <feColorMatrix in="SourceAlpha" type="matrix"
        values="0 0 0 0 0 0 0 0 0 0 0 0 0 0 0 0 0 0 127 0" result="hardAlpha" />
      <feOffset dy="2" />
      <feGaussianBlur stdDeviation="2" />
      <feComposite in2="hardAlpha" operator="out" />
      <feColorMatrix type="matrix"
        values="0 0 0 0 0.0980392 0 0 0 0 0.0980392 0 0 0 0 0.0980392 0 0 0 0.12 0" />
      <feBlend mode="normal" in2="BackgroundImageFix" result="effect1_dropShadow_181_47390" />
      <feBlend mode="normal" in="SourceGraphic" in2="effect1_dropShadow_181_47390" result="shape" />
    </filter>
    <linearGradient id="paint0_linear_181_47390" x1="312" y1="2" x2="312" y2="618.004"
      gradientUnits="userSpaceOnUse">
      <stop stop-color="#FFF2E2" />
      <stop offset="1" stop-color="#C4B7BA" />
    </linearGradient>
  </defs>
</svg>
