<svg width="32" height="32" viewBox="0 0 32 32" fill="none" xmlns="http://www.w3.org/2000/svg">
<g clip-path="url(#clip0_3204_141)">
<circle cx="16" cy="16" r="15.25" fill="#FFF3E1" stroke="#F3E5BF" stroke-width="1.5"/>
<path d="M14.9027 20.492C13.6358 20.4292 12.3591 19.8503 11.4159 18.9467C10.9204 19.4499 10.5448 20.0837 10.349 20.8144C9.74597 23.0652 11.0785 25.3787 13.3265 25.9811C15.5746 26.5835 17.8845 25.2459 18.4875 22.9951C18.798 21.8364 18.5954 20.6605 18.0185 19.7098C17.1117 20.2908 15.9956 20.5699 14.9027 20.492Z" fill="#DD375B"/>
<path d="M16.5934 14.1782C15.2972 14.1136 13.9905 13.5096 13.0414 12.5687C12.6033 13.0504 12.2699 13.6418 12.0896 14.3149C11.7408 15.6167 12.0393 16.9387 12.7877 17.9393C12.8004 17.9587 12.8145 17.9764 12.8286 17.9941C12.8295 17.9944 12.8302 17.9955 12.8312 17.9958C12.8312 17.9958 12.8302 17.9955 12.83 17.9965C12.8332 17.9993 12.8352 18.0028 12.8375 18.0054C12.8938 18.0772 12.9527 18.1468 13.0139 18.2149C13.0468 18.2516 13.0808 18.2876 13.1147 18.3245C13.6333 18.8586 14.2959 19.256 15.0591 19.4446C15.9272 19.6832 16.8823 19.6227 17.7329 19.2963C18.0085 19.191 18.2736 19.058 18.5204 18.8972C18.5301 18.8909 18.5395 18.8854 18.5482 18.8788C19.3451 18.33 19.9579 17.504 20.2281 16.4956C20.5266 15.3814 20.3505 14.2515 19.8228 13.3209C18.8974 13.9527 17.7322 14.2595 16.5934 14.1782Z" fill="#F2E2B8"/>
<path d="M13.7812 8.0149C13.4819 9.13191 13.6594 10.2642 14.1886 11.1962C14.2094 11.2336 14.2307 11.2692 14.2522 11.3038C14.2667 11.3276 14.2815 11.3504 14.2962 11.3733C14.3143 11.402 14.3327 11.4299 14.352 11.4579C14.365 11.4763 14.377 11.4945 14.39 11.5129C14.4017 11.5319 14.4147 11.5503 14.4276 11.5687C14.4276 11.5687 14.428 11.5685 14.4288 11.5681C14.9829 12.3296 15.7866 12.9012 16.7519 13.14C17.6689 13.3926 18.6843 13.3114 19.5706 12.9329C19.8436 12.8189 20.105 12.674 20.3457 12.5026C20.7524 12.2046 21.1067 11.8318 21.3868 11.3983C21.6207 11.037 21.8022 10.6339 21.9197 10.1956C22.5228 7.94488 21.19 5.63224 18.9429 5.03012C16.6957 4.428 14.3843 5.76418 13.7812 8.0149Z" fill="#AFB244"/>
</g>
<defs>
<clipPath id="clip0_3204_141">
<rect width="32" height="32" fill="white"/>
</clipPath>
</defs>
</svg>
