<svg viewBox="0 0 266 266" fill="none" xmlns="http://www.w3.org/2000/svg">
<path d="M133 266C206.454 266 266 206.454 266 133C266 59.5461 206.454 0 133 0C59.5461 0 0 59.5461 0 133C0 206.454 59.5461 266 133 266Z" fill="#FFF8F0"/>
<path d="M117.895 207.201C118.136 206.317 121.151 196.142 121.381 195.232C117.868 193.127 114.173 191.46 110.451 189.804C107.067 197.839 100.921 215.192 97.501 223.213C95.892 226.955 95.922 227.908 98.305 229.997C99.213 230.798 100.317 231.336 101.455 231.739C103.586 232.486 105.87 232.355 108.228 231.892C111.787 231.173 112.151 230.66 113.156 226.413C114.687 219.989 116.306 213.558 117.91 207.164L117.884 207.175L117.895 207.201Z" fill="#F5DDB8"/>
<path d="M115.56 224.125C116.812 217.907 122.056 201.531 123.87 195.351C123.425 195.083 123.137 194.9 122.692 194.632C122.572 194.561 121.874 193.976 121.717 193.89C121.445 194.847 117.719 206.161 117.514 207.06C115.921 213.48 114.704 220.076 113.199 226.49C112.194 230.736 111.855 231.238 108.271 231.968C105.912 232.432 103.618 232.537 101.498 231.816C100.37 231.438 99.256 230.874 98.348 230.074C95.965 227.984 95.971 227.046 97.543 223.289C100.964 215.268 107.155 201.034 110.539 192.998C109.943 192.732 109.029 192.356 108.396 192.075C104.61 200.971 98.312 216.125 94.551 225.01C94.078 226.141 93.915 226.48 94.055 227.99C94.135 228.772 94.792 229.404 95.188 229.995C99.068 235.627 104.739 235.391 110.939 233.427C112.844 232.82 113.948 231.307 114.458 229.165C114.859 227.492 115.196 225.814 115.534 224.136L115.56 224.125Z" fill="black"/>
<path d="M168.924 27.985C168.418 27.8627 167.732 28.4785 167.116 28.824C166.909 28.9099 166.819 29.2789 166.701 29.5085C164.472 33.6584 161.976 37.6774 160.065 41.9367C156.534 49.7622 153.331 57.7229 150.009 65.6127C149.52 66.78 149.011 67.8958 148.542 68.9644C139.84 70.0934 132.463 73.6899 126.006 79.2883C122.702 82.1637 119.992 85.5175 117.775 89.33C114.523 94.899 114.452 100.447 117.686 105.985L117.763 105.953C118.388 107.022 119.168 108.026 119.87 109.062C120.198 109.56 120.515 110.032 120.911 110.622C114.025 113.352 109.946 118.388 107.621 125.02C105.271 131.814 105.947 138.139 110.686 143.868C109.381 144.529 108.314 145.031 107.268 145.585C99.255 149.625 93.532 155.825 90.265 164.144C87.2677 171.718 89.239 179.708 95.344 184.993C98.367 187.602 101.677 189.73 105.438 191.189C106.927 191.779 108.371 192.479 110.038 193.206C110.038 193.206 110.023 193.243 110.007 193.279C110.788 193.258 111.559 193.361 112.28 193.635C112.478 193.674 112.702 193.702 112.911 193.766C116.102 194.285 119.527 194.858 123.337 195.482C123.337 195.482 123.337 195.482 123.322 195.519C123.322 195.519 123.322 195.519 123.348 195.508C123.853 195.48 124.389 195.529 124.885 195.626C125.389 195.598 125.863 195.643 126.359 195.74C127.952 195.774 129.592 195.849 131.2 195.847C136.228 195.816 141.181 195.093 145.602 192.569C154.019 187.819 160.869 178.107 154.753 165.679C153.314 162.716 151.222 160.083 149.327 157.339C148.213 155.749 146.914 154.297 145.533 152.576C146.617 152.187 147.365 151.938 148.101 151.664C151.323 150.572 154.253 148.996 156.84 146.81C160.335 143.885 162.33 140.194 162.89 135.68C163.473 130.854 162.183 126.563 159.651 122.574C158.414 120.613 156.939 118.811 155.431 116.781C156.422 116.461 157.372 116.189 158.311 115.89C163.661 114.219 168.503 111.611 172.683 107.921C184.135 97.812 182.66 80.8994 169.614 72.9995C167.389 71.6586 164.99 70.6309 162.422 69.3414C163.002 66.9296 163.722 64.3397 164.243 61.7112C166.148 52.0856 168.018 42.4449 169.824 32.7999C170.028 31.7506 170.137 30.6198 170.012 29.5856C169.944 28.9805 169.405 28.118 168.899 27.9957L168.924 27.985ZM151.168 163.695C151.854 164.617 152.286 165.735 152.786 166.795C157.589 176.931 153.067 185.227 145.063 190.168C140.919 192.698 136.273 193.505 131.505 193.428C124.993 193.319 118.635 192.483 112.263 190.807C107.358 189.52 102.963 187.63 98.854 184.746C90.193 178.711 89.833 169.993 93.509 162.59C97.537 154.498 103.969 148.911 112.574 145.861C121.554 152.519 131.645 154.525 142.925 153.022C145.597 156.47 148.411 160.041 151.168 163.695ZM160.052 129.043C161.8 134.955 159.982 141.197 155.169 145.119C149.963 149.415 143.758 150.928 137.223 151.13C130.058 151.351 123.19 149.942 117.047 146.031C109.27 141.107 106.809 133.62 110.109 125.016C112.206 119.594 115.637 115.339 121.231 113.083C121.723 112.879 122.173 112.572 122.893 112.184C131.102 117.713 140.235 118.578 149.71 117.702C151.696 117.513 153.316 118.199 154.511 119.545C156.953 122.364 158.95 125.428 160.026 129.054L160.052 129.043ZM173.653 103.297C168.252 109.906 160.912 113.517 152.355 114.556C151.492 114.672 150.653 115.14 149.779 115.23C141.907 116.015 134.225 115.576 127.069 111.783C122.632 109.427 119.791 105.717 118.257 100.984C117.479 98.591 117.555 96.207 118.396 93.839C119.536 90.652 121.315 87.8348 123.466 85.2556L123.487 85.3071C129.137 78.565 136.283 74.1897 144.766 71.9449C145.534 71.7475 146.33 71.6895 147.676 71.4942C146.85 73.8266 146.186 75.6698 145.699 76.9873C143.804 77.4701 142.386 77.7856 141.007 78.2663C140.773 78.3629 140.855 79.2941 140.774 80.0515C145.97 79.1072 148.57 82.1625 150.77 85.7157C151.42 86.7735 151.781 88.012 152.364 89.127C152.747 89.904 153.09 91.028 154.268 90.571C155.486 90.067 154.941 89.116 154.589 88.267C154.237 87.4171 154.185 87.4386 154.077 87.0309C153.832 85.9259 154.859 84.9581 155.807 85.561C156.781 86.1532 157.274 86.0995 158.132 85.3828C158.653 84.9558 159.627 85.0352 160.397 84.9879C161.229 84.945 162.225 85.0758 162.387 84.0738C162.593 82.8121 161.557 82.7285 160.598 82.6126C160.15 82.5569 159.732 82.4281 158.965 82.263C159.911 78.8255 160.81 75.4975 161.684 72.1802C175.57 75.3595 183.632 91.023 173.628 103.307L173.653 103.297ZM165.721 43.9384C163.466 56.2419 160.283 68.3566 157.053 80.4306C156.691 81.7567 156.18 82.7223 154.715 82.997C154.04 83.1257 153.419 83.5334 152.849 83.7695C151.145 82.0015 149.521 80.3516 147.687 78.487C153.426 63.7458 158.598 48.5154 166.641 34.5702C166.849 34.6346 167.058 34.6989 167.267 34.7633C166.74 37.8167 166.259 40.9108 165.721 43.9384Z" fill="black"/>
<path d="M152.775 166.725C157.577 176.861 153.056 185.157 145.052 190.099C140.908 192.629 136.262 193.436 131.494 193.359C124.982 193.249 118.624 192.413 112.252 190.737C107.347 189.45 102.952 187.56 98.843 184.676C90.182 178.641 89.822 169.923 93.498 162.52C97.526 154.428 103.958 148.841 112.563 145.791C121.543 152.449 131.634 154.455 142.914 152.952C145.586 156.4 148.4 159.971 151.157 163.625C151.843 164.547 152.275 165.665 152.775 166.725Z" fill="#B5BE56"/>
<path d="M161.731 72.1746C175.628 75.3797 183.716 91.032 173.675 103.302C168.273 109.911 160.933 113.522 152.376 114.561C151.513 114.677 150.674 115.145 149.801 115.235C141.928 116.021 134.221 115.592 127.09 111.788C122.654 109.432 119.812 105.722 118.278 100.989C117.5 98.596 117.576 96.213 118.417 93.844C119.558 90.657 121.337 87.8399 123.487 85.2607C129.137 78.5187 136.283 74.1433 144.766 71.8985C145.534 71.7011 146.33 71.6431 147.676 71.4478C146.851 73.7802 146.186 75.6234 145.7 76.9409C143.804 77.4237 142.387 77.7392 141.017 78.2457C140.784 78.3422 140.866 79.2734 140.785 80.0309C146.006 79.0758 148.581 82.1419 150.781 85.6951C151.442 86.7786 151.818 87.9802 152.375 89.107C152.757 89.883 153.101 91.008 154.278 90.551C155.497 90.046 154.951 89.096 154.6 88.246C154.248 87.3965 154.196 87.418 154.088 87.0103C153.843 85.9053 154.87 84.9375 155.817 85.5404C156.791 86.1326 157.285 86.0789 158.142 85.3622C158.664 84.9352 159.638 85.0145 160.408 84.9673C161.24 84.9244 162.235 85.0552 162.398 84.0531C162.604 82.7915 161.567 82.7078 160.609 82.592C160.16 82.5362 159.743 82.4075 158.95 82.2531C159.896 78.8156 160.795 75.4876 161.669 72.1703L161.731 72.1746Z" fill="#ED6A6C"/>
<path d="M160.053 128.994C161.801 134.905 159.982 141.147 155.195 145.059C149.99 149.355 143.785 150.868 137.25 151.07C130.085 151.291 123.216 149.881 117.099 145.959C109.312 141.01 106.825 133.534 110.161 124.945C112.259 119.522 115.689 115.267 121.294 113.038C121.787 112.834 122.237 112.527 122.956 112.139C131.155 117.642 140.298 118.532 149.773 117.656C151.759 117.467 153.379 118.154 154.574 119.499C157.006 122.293 159.002 125.357 160.078 128.983L160.053 128.994Z" fill="#F5DDB8"/>
<path d="M157.038 80.3907C156.676 81.7168 156.165 82.6823 154.7 82.9571C154.024 83.0858 153.404 83.4935 152.808 83.7403C151.115 81.9981 149.48 80.3224 147.645 78.4578C153.385 63.7166 158.557 48.4863 166.625 34.5303C166.834 34.5947 167.043 34.659 167.252 34.7234C166.724 37.7767 166.244 40.8709 165.706 43.8985C163.451 56.202 160.258 68.291 157.038 80.3907Z" fill="#F5DDB8"/>
</svg>
