<svg width="722" height="722" viewBox="0 0 722 722" fill="none" xmlns="http://www.w3.org/2000/svg">
<path d="M699.683 211.003C689.527 198.404 689.527 176.9 699.683 164.301C713.643 146.981 722 124.956 722 100.978C722 45.2094 676.791 0 621.022 0C597.044 0 575.019 8.35712 557.699 22.3175C545.099 32.4731 523.596 32.4731 510.997 22.3175C493.677 8.35712 471.651 0 447.674 0C423.696 0 401.671 8.35711 384.351 22.3174C371.752 32.4731 350.248 32.4731 337.649 22.3175C320.329 8.35711 298.304 0 274.326 0C250.349 0 228.323 8.35711 211.003 22.3174C198.404 32.473 176.9 32.4731 164.301 22.3174C146.981 8.35711 124.956 0 100.978 0C45.2094 0 0 45.2094 0 100.978C0 124.956 8.35711 146.981 22.3174 164.301C32.473 176.9 32.4731 198.404 22.3174 211.003C8.35711 228.323 0 250.349 0 274.326C0 298.304 8.35733 320.33 22.318 337.65C32.4742 350.25 32.4742 371.755 22.318 384.355C8.35733 401.675 0 423.701 0 447.679C0 471.656 8.35713 493.682 22.3175 511.001C32.4731 523.601 32.4731 545.104 22.3175 557.704C8.35712 575.023 0 597.049 0 621.026C0 676.795 45.2094 722.005 100.978 722.005C124.957 722.005 146.983 713.647 164.303 699.685C176.902 689.53 198.405 689.529 211.005 699.684C228.325 713.644 250.349 722 274.326 722C298.304 722 320.329 713.643 337.649 699.683C350.248 689.527 371.752 689.527 384.351 699.683C401.671 713.643 423.696 722 447.674 722C471.65 722 493.675 713.644 510.995 699.684C523.595 689.529 545.098 689.53 557.697 699.686C575.017 713.647 597.043 722.005 621.022 722.005C676.791 722.005 722 676.795 722 621.026C722 597.049 713.643 575.023 699.683 557.704C689.527 545.104 689.527 523.601 699.683 511.001C713.643 493.682 722 471.656 722 447.679C722 423.701 713.643 401.675 699.682 384.355C689.526 371.755 689.526 350.25 699.682 337.65C713.643 320.33 722 298.304 722 274.326C722 250.349 713.643 228.323 699.683 211.003Z" fill="black"/>
</svg>
