<svg width="24" height="25" viewBox="0 0 24 25" fill="none" xmlns="http://www.w3.org/2000/svg">
<g clip-path="url(#clip0_3410_276679)">
<path d="M12 24.5488C18.6274 24.5488 24 19.1762 24 12.5488C24 5.92141 18.6274 0.548828 12 0.548828C5.37258 0.548828 0 5.92141 0 12.5488C0 19.1762 5.37258 24.5488 12 24.5488Z" fill="#8DC351"/>
<path d="M15.9225 8.44108C15.3405 6.96208 13.881 6.82858 12.1815 7.15858L11.5762 5.04883L10.2922 5.41708L10.8817 7.47208C10.5442 7.56808 10.2007 7.67458 9.8595 7.77958L9.267 5.71108L7.98375 6.07858L8.5875 8.18833C8.3115 8.27383 8.04 8.35783 7.77375 8.43433L7.7715 8.42683L6 8.93458L6.39375 10.3071C6.39375 10.3071 7.33725 10.0161 7.326 10.0386C7.8465 9.88933 8.10225 10.1428 8.226 10.3896L8.916 12.7926C8.95125 12.7828 8.9985 12.7708 9.054 12.7626L8.91825 12.8016L9.8835 16.1691C9.9075 16.3393 9.8865 16.6281 9.5235 16.7331C9.54375 16.7428 8.589 17.0001 8.589 17.0001L8.77425 18.6073L10.4452 18.1273C10.7565 18.0396 11.064 17.9571 11.3647 17.8723L11.9775 20.0061L13.26 19.6386L12.6547 17.5273C12.9988 17.436 13.3418 17.341 13.6837 17.2423L14.2852 19.3446L15.57 18.9763L14.9595 16.8463C17.0827 16.1031 18.438 15.1258 18.0442 13.0438C17.7277 11.3683 16.7512 10.8598 15.441 10.9168C16.077 10.3243 16.3507 9.52333 15.9225 8.44183V8.44108ZM15.435 13.5186C15.8925 15.1138 13.11 15.7153 12.24 15.9658L11.4292 13.1383C12.2992 12.8886 14.9572 11.8558 15.4342 13.5193L15.435 13.5186ZM13.6935 9.70108C14.109 11.1523 11.7832 11.6361 11.058 11.8438L10.323 9.27958C11.0475 9.07183 13.2592 8.18833 13.6935 9.70183V9.70108Z" fill="white"/>
</g>
<defs>
<clipPath id="clip0_3410_276679">
<rect width="24" height="24" fill="white" transform="translate(0 0.548828)"/>
</clipPath>
</defs>
</svg>
