<svg width="24" height="25" viewBox="0 0 24 25" fill="none" xmlns="http://www.w3.org/2000/svg">
<path d="M23.6409 15.4517C22.0381 21.8803 15.5262 25.7927 9.09606 24.1896C2.66863 22.5869 -1.24415 16.0753 0.359423 9.6472C1.96159 3.21786 8.47348 -0.694777 14.9016 0.907909C21.3313 2.5106 25.2438 9.02287 23.6408 15.4518L23.6409 15.4517H23.6409Z" fill="#F7931A"/>
<path d="M17.2921 10.8382C17.531 9.24125 16.3151 8.38283 14.6524 7.81019L15.1918 5.64699L13.8748 5.31888L13.3497 7.42512C13.0035 7.33878 12.648 7.25742 12.2946 7.17677L12.8235 5.05663L11.5074 4.72852L10.9677 6.89101C10.6812 6.82578 10.3998 6.76132 10.1268 6.6934L10.1283 6.68659L8.31218 6.23313L7.96186 7.63956C7.96186 7.63956 8.93892 7.8635 8.91833 7.87729C9.45163 8.01037 9.54806 8.36336 9.53205 8.64314L8.91763 11.1075C8.95435 11.1169 9.00199 11.1303 9.05455 11.1515C9.01061 11.1406 8.96386 11.1286 8.91534 11.117L8.05413 14.5693C7.98896 14.7313 7.82353 14.9744 7.45068 14.8821C7.46388 14.9012 6.4935 14.6432 6.4935 14.6432L5.83966 16.1506L7.55346 16.5777C7.87228 16.6577 8.18471 16.7413 8.49239 16.82L7.94743 19.008L9.26285 19.3361L9.80254 17.1713C10.1619 17.2689 10.5106 17.3589 10.8521 17.4437L10.3142 19.5982L11.6312 19.9264L12.1761 17.7425C14.4218 18.1674 16.1104 17.9961 16.8211 15.9651C17.3938 14.3299 16.7926 13.3867 15.6111 12.7717C16.4716 12.5733 17.1198 12.0074 17.2926 10.8384L17.2922 10.8381L17.2921 10.8382ZM14.2832 15.057C13.8762 16.6922 11.1228 15.8083 10.2301 15.5866L10.9532 12.6879C11.8459 12.9107 14.7086 13.3517 14.2833 15.057H14.2832ZM14.6905 10.8145C14.3192 12.3019 12.0275 11.5462 11.2841 11.3609L11.9398 8.73195C12.6832 8.91724 15.0773 9.26307 14.6906 10.8145H14.6905Z" fill="white"/>
</svg>
