<svg width="24" height="25" viewBox="0 0 24 25" fill="none" xmlns="http://www.w3.org/2000/svg">
<g clip-path="url(#clip0_3410_276663)">
<path d="M12 24.5488C18.6274 24.5488 24 19.1762 24 12.5488C24 5.92141 18.6274 0.548828 12 0.548828C5.37258 0.548828 0 5.92141 0 12.5488C0 19.1762 5.37258 24.5488 12 24.5488Z" fill="#F3BA2F"/>
<path d="M9.087 11.3518L12 8.43883L14.9145 11.3533L16.6095 9.65833L12 5.04883L7.392 9.65683L9.087 11.3518ZM4.5 12.5488L6.195 10.8538L7.89 12.5488L6.195 14.2438L4.5 12.5488ZM9.087 13.7458L12 16.6588L14.9145 13.7443L16.6095 15.4386L12 20.0488L7.392 15.4408L7.38975 15.4386L9.087 13.7458ZM16.11 12.5488L17.805 10.8538L19.5 12.5488L17.805 14.2438L16.11 12.5488ZM13.719 12.5473H13.7205V12.5488L12 14.2693L10.2817 12.5518L10.2787 12.5488L10.2817 12.5466L10.5825 12.2451L10.7287 12.0988L12 10.8283L13.7197 12.5481L13.719 12.5473Z" fill="white"/>
</g>
<defs>
<clipPath id="clip0_3410_276663">
<rect width="24" height="24" fill="white" transform="translate(0 0.548828)"/>
</clipPath>
</defs>
</svg>
