<svg width="24" height="24" viewBox="0 0 24 24" fill="none" xmlns="http://www.w3.org/2000/svg">
<circle cx="12" cy="12" r="12" fill="#9D8F72"/>
<path d="M11.1373 10.4875C11.1373 9.97875 11.2447 9.44085 11.4532 8.88321C10.7547 8.10347 10.1991 7.625 10.1991 7.625C10.1991 7.625 6.13361 11.1276 6.13361 14.6323C6.13361 17.597 8.20592 18.6748 10.1991 18.6748C12.1923 18.6748 14.2646 17.597 14.2646 14.6323C14.2646 14.4024 14.2135 14.0834 14.1708 13.8577C12.6905 13.716 11.1373 12.7798 11.1373 10.4875ZM10.1991 17.8407C9.57048 17.8407 9.01486 17.7297 8.54679 17.5103C8.44254 17.4613 8.39772 17.3372 8.44671 17.233C8.49571 17.1287 8.61976 17.0839 8.724 17.1329C9.13575 17.3257 9.63248 17.4237 10.1991 17.4237C11.4135 17.4237 12.886 16.9875 13.0053 14.9099C13.012 14.7952 13.1126 14.7077 13.2252 14.7139C13.3399 14.7207 13.428 14.8192 13.4212 14.9339C13.3149 16.7811 12.14 17.8407 10.1986 17.8407L10.1991 17.8407Z" fill="white"/>
<path d="M14.5774 5.33203C14.5774 5.33203 12.8574 6.79977 12.011 8.62618C11.7358 9.22245 11.5544 9.85416 11.5544 10.4879C11.5544 12.6707 13.0952 13.4631 14.5775 13.4631C16.0597 13.4631 17.6005 12.6708 17.6005 10.4879C17.6005 7.91112 14.5774 5.33203 14.5774 5.33203ZM14.6989 12.6243C14.556 12.6321 14.4831 12.5425 14.4737 12.4335C14.4643 12.3189 14.5498 12.2183 14.6645 12.2084C15.4421 12.1443 16.3496 11.6554 16.3496 10.4878C16.3496 10.1532 16.2672 9.77685 16.1041 9.37082C16.0613 9.26397 16.1129 9.14253 16.2198 9.09979C16.3272 9.05705 16.4481 9.10917 16.4908 9.2155C16.6738 9.67157 16.7665 10.0995 16.7665 10.4878C16.7665 11.8461 15.7282 12.5393 14.6989 12.6243Z" fill="white"/>
</svg>
