<svg width="24" height="25" viewBox="0 0 24 25" fill="none" xmlns="http://www.w3.org/2000/svg">
<path d="M11.9999 24.5488C18.6274 24.5488 23.9999 19.1762 23.9999 12.5488C23.9999 5.92141 18.6274 0.548828 11.9999 0.548828C5.37253 0.548828 -5.34058e-05 5.92141 -5.34058e-05 12.5488C-5.34058e-05 19.1762 5.37253 24.5488 11.9999 24.5488Z" fill="#F0B90B"/>
<path d="M12 4.54883L13.9821 6.57868L8.99106 11.5697L7.00897 9.58764L12 4.54883Z" fill="white"/>
<path d="M15.009 7.55859L16.991 9.58844L8.99106 17.5884L7.00897 15.6063L15.009 7.55859Z" fill="white"/>
<path d="M5.9821 10.5664L7.96419 12.5962L5.9821 14.5783L4.00001 12.5962L5.9821 10.5664Z" fill="white"/>
<path d="M18.0179 10.5664L20 12.5962L12 20.5962L10.0179 18.6141L18.0179 10.5664Z" fill="white"/>
</svg>
