<svg width="24" height="25" viewBox="0 0 24 25" fill="none" xmlns="http://www.w3.org/2000/svg">
<g clip-path="url(#clip0_3410_276730)">
<path d="M24 12.5488C24 5.92141 18.6274 0.548828 12 0.548828C5.37258 0.548828 0 5.92141 0 12.5488C0 19.1762 5.37258 24.5488 12 24.5488C18.6274 24.5488 24 19.1762 24 12.5488Z" fill="#F2CD16"/>
<path fill-rule="evenodd" clip-rule="evenodd" d="M9.98238 18.788C9.18036 18.788 8.47068 18.2687 8.22816 17.5043L6.98148 13.5747H6.21498C5.41296 13.5747 4.70327 13.0554 4.46078 12.291L3.72 9.95605H6.49854L5.03304 7.74805H18.919L17.4535 9.95605H20.232L19.4912 12.291C19.2487 13.0554 18.539 13.5747 17.737 13.5747H16.9705L15.7238 17.5043C15.4813 18.2687 14.7716 18.788 13.9696 18.788H9.98238ZM9.04056 12.5014C9.04056 13.0942 9.48318 13.5747 10.0292 13.5747C10.5753 13.5747 11.0179 13.0942 11.0179 12.5014C11.0179 11.9086 10.5753 11.428 10.0292 11.428C9.48318 11.428 9.04056 11.9086 9.04056 12.5014ZM14.9115 12.5014C14.9115 13.0942 14.4688 13.5747 13.9228 13.5747C13.3767 13.5747 12.9341 13.0942 12.9341 12.5014C12.9341 11.9086 13.3767 11.428 13.9228 11.428C14.4688 11.428 14.9115 11.9086 14.9115 12.5014Z" fill="#544003"/>
</g>
<defs>
<clipPath id="clip0_3410_276730">
<rect width="24" height="24" fill="white" transform="translate(0 0.548828)"/>
</clipPath>
</defs>
</svg>
