<svg width="24" height="25" viewBox="0 0 24 25" fill="none" xmlns="http://www.w3.org/2000/svg">
<path d="M12 24.5488C18.6274 24.5488 24 19.1762 24 12.5488C24 5.92141 18.6274 0.548828 12 0.548828C5.37259 0.548828 7.62939e-06 5.92141 7.62939e-06 12.5488C7.62939e-06 19.1762 5.37259 24.5488 12 24.5488Z" fill="#F9A606"/>
<path fill-rule="evenodd" clip-rule="evenodd" d="M6.0371 5.54883H11.8994C15.4653 5.54883 18.1683 7.40006 19.1739 10.0938H21V11.7219H19.5584C19.5866 11.9792 19.601 12.2413 19.601 12.5076V12.5476C19.601 12.8474 19.5828 13.1421 19.5472 13.4308H21V15.059H19.1391C18.107 17.7152 15.425 19.5488 11.8994 19.5488H6.0371V15.059H4.00001V13.4308H6.0371V11.7219H4.00001V10.0938H6.0371V5.54883ZM7.67597 15.059V18.0882H11.8994C14.5057 18.0882 16.442 16.875 17.3434 15.059H7.67597ZM17.8454 13.4308H7.67597V11.7219H17.8481C17.8858 11.9908 17.905 12.2665 17.905 12.5476V12.5876C17.905 12.8752 17.8849 13.1567 17.8454 13.4308ZM11.8994 7.007C14.5177 7.007 16.4598 8.25226 17.3558 10.0938H7.67597V7.007H11.8994Z" fill="white"/>
</svg>
