<svg width="24" height="25" viewBox="0 0 24 25" fill="none" xmlns="http://www.w3.org/2000/svg">
<g clip-path="url(#clip0_3410_276675)">
<path d="M12 24.5488C18.6274 24.5488 24 19.1762 24 12.5488C24 5.92141 18.6274 0.548828 12 0.548828C5.37258 0.548828 0 5.92141 0 12.5488C0 19.1762 5.37258 24.5488 12 24.5488Z" fill="#C3A634"/>
<path fill-rule="evenodd" clip-rule="evenodd" d="M9.936 11.5063H13.1715V13.2208H9.936V16.8343H11.9767C12.7845 16.8343 13.4452 16.7256 13.9597 16.5066C14.4742 16.2883 14.8777 15.9861 15.171 15.5991C15.4709 15.1966 15.6751 14.7311 15.768 14.2378C15.8764 13.6814 15.9291 13.1157 15.9255 12.5488C15.9291 11.982 15.8764 11.4162 15.768 10.8598C15.6752 10.3665 15.471 9.90097 15.171 9.49858C14.8777 9.11158 14.4735 8.80933 13.9597 8.59108C13.4452 8.37208 12.7845 8.26333 11.9767 8.26333H9.936V11.5071V11.5063ZM7.8615 13.2208H6.75V11.5071H7.8615V6.54883H12.7732C13.6807 6.54883 14.466 6.70633 15.1297 7.01908C15.7935 7.33333 16.335 7.76158 16.7557 8.30533C17.1757 8.84833 17.4885 9.48433 17.6932 10.2126C17.898 10.9408 18 11.7201 18 12.5488C18.0051 13.338 17.9017 14.1241 17.6925 14.8851C17.4885 15.6126 17.1757 16.2493 16.755 16.7923C16.335 17.3361 15.7935 17.7643 15.1297 18.0786C14.466 18.3921 13.68 18.5488 12.7732 18.5488H7.8615V13.2208Z" fill="white"/>
</g>
<defs>
<clipPath id="clip0_3410_276675">
<rect width="24" height="24" fill="white" transform="translate(0 0.548828)"/>
</clipPath>
</defs>
</svg>
