<svg width="24" height="25" viewBox="0 0 24 25" fill="none" xmlns="http://www.w3.org/2000/svg">
<path d="M12 24.5488C18.6274 24.5488 24 19.1762 24 12.5488C24 5.92141 18.6274 0.548828 12 0.548828C5.37258 0.548828 0 5.92141 0 12.5488C0 19.1762 5.37258 24.5488 12 24.5488Z" fill="#627EEA"/>
<path d="M11.9997 4.54883V10.4634L16.9987 12.6972L11.9997 4.54883Z" fill="white" fill-opacity="0.602"/>
<path d="M11.9997 4.54883L7 12.6972L11.9997 10.4634V4.54883Z" fill="white"/>
<path d="M11.9997 16.5289V20.5478L17.0021 13.627L11.9997 16.5289Z" fill="white" fill-opacity="0.602"/>
<path d="M11.9997 20.5478V16.5283L7 13.627L11.9997 20.5478Z" fill="white"/>
<path d="M11.9997 15.5999L16.9987 12.6973L11.9997 10.4648V15.5999Z" fill="white" fill-opacity="0.2"/>
<path d="M7 12.6973L11.9997 15.5999V10.4648L7 12.6973Z" fill="white" fill-opacity="0.602"/>
</svg>
