<svg width="24" height="24" viewBox="0 0 24 24" fill="none" xmlns="http://www.w3.org/2000/svg">
<circle cx="12.0001" cy="12" r="12" fill="#E3BD66"/>
<path fill-rule="evenodd" clip-rule="evenodd" d="M19.7237 17.0763H12.2885C12.1146 17.0763 11.9363 16.9902 11.8354 16.8563C11.7519 16.7459 11.7267 16.618 11.7658 16.485L12.785 13.0595C13.0381 12.1812 13.5138 11.7168 14.159 11.7168H17.855C18.5011 11.7168 18.976 12.1812 19.229 13.0595L20.2482 16.4841C20.2882 16.6171 20.263 16.745 20.1795 16.8563C20.076 16.9902 19.8978 17.0754 19.7238 17.0754L19.7237 17.0763ZM19.1114 16.2772L18.2436 13.3492C18.1983 13.1953 18.0653 12.7501 17.8531 12.7501H14.1571C14.0615 12.7501 13.9832 12.6718 13.9832 12.5761C13.9832 12.4805 14.0615 12.4022 14.1571 12.4022H17.8531C18.0766 12.4022 18.3844 12.5492 18.5749 13.2457L19.4445 16.1781C19.5097 16.399 19.1741 16.4982 19.1106 16.2773L19.1114 16.2772Z" fill="white"/>
<path fill-rule="evenodd" clip-rule="evenodd" d="M12.8707 12.0646H10.9697C10.6766 11.6541 10.2592 11.3689 9.6809 11.3689H7.71033L8.69822 8.04776C8.95041 7.16945 9.42522 6.70508 10.0714 6.70508H13.7674C14.4135 6.70508 14.8883 7.16945 15.1414 8.04776L16.1292 11.3689H15.2753C15.3457 11.3306 15.3823 11.2471 15.3588 11.1662L14.4892 8.23384C14.2987 7.53728 13.9909 7.3903 13.7674 7.3903H10.0714C9.97572 7.3903 9.89746 7.46856 9.89746 7.56422C9.89746 7.65988 9.97572 7.73815 10.0714 7.73815H13.7674C13.9065 7.73815 14.0491 7.95294 14.15 8.31209C14.1526 8.31992 14.1544 8.32862 14.157 8.33644L15.0248 11.2662C15.0379 11.3123 15.0683 11.3479 15.1075 11.3696H14.1596C13.5813 11.3696 13.1639 11.6549 12.8708 12.0653L12.8707 12.0646Z" fill="white"/>
<path fill-rule="evenodd" clip-rule="evenodd" d="M11.5487 17.0763H4.11355C3.93963 17.0763 3.76136 16.9902 3.66047 16.8563C3.57698 16.7459 3.55177 16.618 3.5909 16.485L4.61009 13.0595C4.86315 12.1812 5.33883 11.7168 5.9841 11.7168H9.68009C10.3262 11.7168 10.801 12.1812 11.0541 13.0595L12.0733 16.4841C12.1133 16.6171 12.0881 16.745 12.0046 16.8563C11.9011 16.9902 11.7228 17.0754 11.5489 17.0754L11.5487 17.0763ZM10.9365 16.2772L10.0686 13.3492C10.0234 13.1953 9.89036 12.7501 9.67818 12.7501H5.98218C5.88653 12.7501 5.80826 12.6718 5.80826 12.5761C5.80826 12.4805 5.88653 12.4022 5.98218 12.4022H9.67818C9.90167 12.4022 10.2095 12.5492 10.4 13.2457L11.2696 16.1781C11.3348 16.399 10.9991 16.4982 10.9356 16.2773L10.9365 16.2772Z" fill="white"/>
</svg>
