<svg width="24" height="24" viewBox="0 0 24 24" fill="none" xmlns="http://www.w3.org/2000/svg">
<circle cx="12" cy="12" r="12" fill="#BEBEBE"/>
<path fill-rule="evenodd" clip-rule="evenodd" d="M19.8843 17.3068H12.4491C12.2752 17.3068 12.0969 17.2207 11.996 17.0868C11.9126 16.9764 11.8873 16.8485 11.9265 16.7155L12.9457 13.29C13.1987 12.4116 13.6744 11.9473 14.3197 11.9473H18.0157C18.6618 11.9473 19.1366 12.4116 19.3897 13.29L20.4089 16.7146C20.4489 16.8476 20.4236 16.9755 20.3402 17.0868C20.2367 17.2207 20.0584 17.3059 19.8845 17.3059L19.8843 17.3068ZM19.2721 16.5076L18.4042 13.5797C18.359 13.4258 18.2259 12.9805 18.0137 12.9805H14.3178C14.2221 12.9805 14.1438 12.9023 14.1438 12.8066C14.1438 12.7109 14.2221 12.6327 14.3178 12.6327H18.0137C18.2372 12.6327 18.5451 12.7796 18.7355 13.4762L19.6051 16.4086C19.6704 16.6295 19.3347 16.7286 19.2712 16.5077L19.2721 16.5076Z" fill="white"/>
<path fill-rule="evenodd" clip-rule="evenodd" d="M13.0313 12.2931H11.1303C10.8373 11.8826 10.4199 11.5974 9.84154 11.5974H7.87097L8.85886 8.27628C9.11105 7.39796 9.58586 6.93359 10.232 6.93359H13.928C14.5741 6.93359 15.0489 7.39796 15.302 8.27628L16.2899 11.5974H15.4359C15.5064 11.5591 15.5429 11.4756 15.5194 11.3948L14.6498 8.46236C14.4594 7.76579 14.1515 7.61881 13.928 7.61881H10.232C10.1364 7.61881 10.0581 7.69708 10.0581 7.79274C10.0581 7.8884 10.1364 7.96666 10.232 7.96666H13.928C14.0672 7.96666 14.2098 8.18146 14.3107 8.54061C14.3133 8.54844 14.315 8.55713 14.3176 8.56496L15.1855 11.4947C15.1985 11.5408 15.229 11.5764 15.2681 11.5982H14.3202C13.7419 11.5982 13.3245 11.8834 13.0314 12.2939L13.0313 12.2931Z" fill="white"/>
<path fill-rule="evenodd" clip-rule="evenodd" d="M11.7093 17.3068H4.27413C4.10021 17.3068 3.92194 17.2207 3.82105 17.0868C3.73757 16.9764 3.71235 16.8485 3.75148 16.7155L4.77067 13.29C5.02373 12.4116 5.49941 11.9473 6.14468 11.9473H9.84068C10.4868 11.9473 10.9616 12.4116 11.2147 13.29L12.2339 16.7146C12.2739 16.8476 12.2487 16.9755 12.1652 17.0868C12.0617 17.2207 11.8834 17.3059 11.7095 17.3059L11.7093 17.3068ZM11.0971 16.5076L10.2292 13.5797C10.184 13.4258 10.0509 12.9805 9.83876 12.9805H6.14277C6.04711 12.9805 5.96884 12.9023 5.96884 12.8066C5.96884 12.7109 6.04711 12.6327 6.14277 12.6327H9.83876C10.0623 12.6327 10.3701 12.7796 10.5606 13.4762L11.4302 16.4086C11.4954 16.6295 11.1597 16.7286 11.0962 16.5077L11.0971 16.5076Z" fill="white"/>
</svg>
