<svg width="88" height="15" viewBox="0 0 88 15" fill="none" xmlns="http://www.w3.org/2000/svg">
<path d="M5.76003 14.4802C5.20003 14.4802 4.84003 14.1002 4.84003 13.4402V1.76023H0.900027C0.320027 1.76023 2.68631e-05 1.48023 2.68631e-05 1.00023C2.68631e-05 0.520233 0.320027 0.240233 0.900027 0.240233H10.58C11.16 0.240233 11.48 0.520233 11.48 1.00023C11.48 1.48023 11.16 1.76023 10.58 1.76023H6.66003V13.4402C6.66003 14.1002 6.32003 14.4802 5.76003 14.4802ZM14.5666 14.5402C11.7866 14.5402 9.82659 12.4802 9.82659 9.40023C9.82659 6.40023 11.7866 4.28023 14.5666 4.28023C17.3266 4.28023 19.3066 6.40023 19.3066 9.40023C19.3066 12.4802 17.3266 14.5402 14.5666 14.5402ZM11.6066 9.40023C11.6066 11.6602 12.7266 13.2002 14.5666 13.2002C16.4066 13.2002 17.5266 11.6602 17.5266 9.40023C17.5266 7.14023 16.3666 5.64023 14.5666 5.64023C12.7666 5.64023 11.6066 7.14023 11.6066 9.40023ZM21.898 14.4802C21.378 14.4802 21.038 14.1202 21.038 13.4802V1.00023C21.038 0.360234 21.378 0.000234127 21.898 0.000234127C22.418 0.000234127 22.758 0.360234 22.758 1.00023V8.70023C22.998 8.44023 23.278 8.20023 23.518 7.94023L26.738 4.66023C27.118 4.28023 27.578 4.26023 27.898 4.58023C28.218 4.90023 28.198 5.36023 27.818 5.74023L24.778 8.70023L28.378 12.9002C28.798 13.4002 28.778 13.9202 28.378 14.2602C27.978 14.6002 27.438 14.5402 27.018 14.0202L23.598 9.86023L22.758 10.6602V13.4802C22.758 14.1202 22.418 14.4802 21.898 14.4802ZM33.7172 14.5402C30.8372 14.5402 29.0372 12.7202 29.0372 9.38023C29.0372 6.42023 30.9772 4.28023 33.5972 4.28023C36.7572 4.28023 37.8172 6.66023 38.0172 8.36023C38.1572 9.54023 37.6972 9.74023 36.9972 9.74023H30.7572C30.7972 11.9402 32.0772 13.2002 33.7372 13.2002C34.7572 13.2002 35.6972 12.8602 36.1172 11.8002C36.2972 11.3402 36.4972 11.0202 36.9972 11.0202C37.6372 11.0202 38.0172 11.5802 37.5772 12.5202C37.0572 13.6202 35.7772 14.5402 33.7172 14.5402ZM30.8172 8.52023H36.2372C36.2372 6.80023 35.2972 5.64023 33.5972 5.64023C31.9972 5.64023 30.9372 6.90023 30.8172 8.52023ZM40.5999 14.4802C40.0799 14.4802 39.7399 14.1202 39.7399 13.4802V5.36023C39.7399 4.72023 40.0799 4.36023 40.5999 4.36023C41.1199 4.36023 41.4399 4.72023 41.4399 5.36023V5.90023C41.9599 5.06023 43.1199 4.28023 44.4199 4.28023C46.6399 4.28023 47.9799 5.68023 47.9799 8.16023V13.4802C47.9799 14.1202 47.6399 14.4802 47.1199 14.4802C46.5999 14.4802 46.2599 14.1202 46.2599 13.4802V8.38023C46.2599 6.56023 45.6599 5.64023 44.1399 5.64023C42.4599 5.64023 41.4599 6.92023 41.4599 8.44023V13.4802C41.4599 14.1202 41.1199 14.4802 40.5999 14.4802ZM55.2007 14.4802C54.6807 14.4802 54.3407 14.1802 54.3407 13.4802V5.30023C54.3407 4.60023 54.6807 4.30023 55.2007 4.30023C55.7207 4.30023 56.0607 4.60023 56.0607 5.30023V13.4802C56.0607 14.1802 55.7207 14.4802 55.2007 14.4802ZM53.9207 1.76023C53.9207 1.06023 54.4807 0.500234 55.1807 0.500234C55.8807 0.500234 56.4407 1.06023 56.4407 1.76023C56.4407 2.46023 55.8807 3.02023 55.1807 3.02023C54.4807 3.02023 53.9207 2.46023 53.9207 1.76023ZM62.5691 14.5402C59.9691 14.5402 57.7891 12.8202 57.7891 9.40023C57.7891 6.36023 59.9091 4.28023 62.6691 4.28023C64.4091 4.28023 65.8091 5.10023 66.4691 6.44023C66.9691 7.48023 66.5491 8.08023 65.8691 8.08023C65.3491 8.08023 65.1291 7.76023 64.9691 7.28023C64.6491 6.32023 63.8291 5.64023 62.6291 5.64023C60.7891 5.64023 59.5691 7.26023 59.5691 9.40023C59.5691 11.7002 60.8091 13.2002 62.6691 13.2002C63.8891 13.2002 64.7491 12.6002 65.0891 11.5402C65.2291 11.0802 65.4891 10.7602 65.9891 10.7602C66.6291 10.7602 67.0091 11.3202 66.5691 12.3202C65.9891 13.6602 64.6291 14.5402 62.5691 14.5402ZM72.5346 14.5402C69.7546 14.5402 67.7946 12.4802 67.7946 9.40023C67.7946 6.40023 69.7546 4.28023 72.5346 4.28023C75.2946 4.28023 77.2746 6.40023 77.2746 9.40023C77.2746 12.4802 75.2946 14.5402 72.5346 14.5402ZM69.5746 9.40023C69.5746 11.6602 70.6946 13.2002 72.5346 13.2002C74.3746 13.2002 75.4946 11.6602 75.4946 9.40023C75.4946 7.14023 74.3346 5.64023 72.5346 5.64023C70.7346 5.64023 69.5746 7.14023 69.5746 9.40023ZM79.846 14.4802C79.326 14.4802 78.986 14.1202 78.986 13.4802V5.36023C78.986 4.72023 79.326 4.36023 79.846 4.36023C80.366 4.36023 80.686 4.72023 80.686 5.36023V5.90023C81.206 5.06023 82.366 4.28023 83.666 4.28023C85.886 4.28023 87.226 5.68023 87.226 8.16023V13.4802C87.226 14.1202 86.886 14.4802 86.366 14.4802C85.846 14.4802 85.506 14.1202 85.506 13.4802V8.38023C85.506 6.56023 84.906 5.64023 83.386 5.64023C81.706 5.64023 80.706 6.92023 80.706 8.44023V13.4802C80.706 14.1202 80.366 14.4802 79.846 14.4802Z" fill="#6E6865"/>
</svg>
