<svg width="24" height="25" viewBox="0 0 24 25" fill="none" xmlns="http://www.w3.org/2000/svg">
<path d="M23.6409 15.4517C22.0381 21.8803 15.5262 25.7926 9.09606 24.1895C2.66864 22.5869 -1.24414 16.0753 0.35943 9.64719C1.96159 3.21785 8.47348 -0.694777 14.9016 0.907909C21.3313 2.51059 25.2438 9.02287 23.6408 15.4518L23.6409 15.4517H23.6409Z" fill="url(#paint0_linear_3410_276715)"/>
<g clip-path="url(#clip0_3410_276715)">
<path d="M7.27409 15.4326C7.35858 15.3481 7.47474 15.2988 7.59795 15.2988H18.7712C18.9754 15.2988 19.0775 15.5452 18.9331 15.6896L16.7259 17.8968C16.6415 17.9813 16.5253 18.0305 16.4021 18.0305H5.22883C5.02466 18.0305 4.92257 17.7841 5.0669 17.6398L7.27409 15.4326Z" fill="white"/>
<path d="M7.27402 7.19236C7.36203 7.10788 7.4782 7.05859 7.59788 7.05859H18.7711C18.9753 7.05859 19.0774 7.30501 18.9331 7.44934L16.7259 9.65653C16.6414 9.74102 16.5252 9.7903 16.402 9.7903H5.22876C5.02459 9.7903 4.9225 9.54388 5.06683 9.39955L7.27402 7.19236Z" fill="white"/>
<path d="M16.7259 11.2861C16.6415 11.2016 16.5253 11.1523 16.4021 11.1523H5.22883C5.02466 11.1523 4.92257 11.3988 5.0669 11.5431L7.27409 13.7503C7.35858 13.8348 7.47474 13.884 7.59795 13.884H18.7712C18.9754 13.884 19.0775 13.6376 18.9331 13.4933L16.7259 11.2861Z" fill="white"/>
</g>
<defs>
<linearGradient id="paint0_linear_3410_276715" x1="2.02588" y1="25.1208" x2="24.2051" y2="2.75948" gradientUnits="userSpaceOnUse">
<stop offset="0.08" stop-color="#9945FF"/>
<stop offset="0.3" stop-color="#8752F3"/>
<stop offset="0.5" stop-color="#5497D5"/>
<stop offset="0.6" stop-color="#43B4CA"/>
<stop offset="0.72" stop-color="#28E0B9"/>
<stop offset="0.97" stop-color="#19FB9B"/>
</linearGradient>
<clipPath id="clip0_3410_276715">
<rect width="14" height="10.9726" fill="white" transform="translate(5.00001 7.05859)"/>
</clipPath>
</defs>
</svg>
