<svg width="24" height="25" viewBox="0 0 24 25" fill="none" xmlns="http://www.w3.org/2000/svg">
<g clip-path="url(#clip0_3410_276696)">
<path d="M12 24.5488C18.6274 24.5488 24 19.1762 24 12.5488C24 5.92141 18.6274 0.548828 12 0.548828C5.37258 0.548828 0 5.92141 0 12.5488C0 19.1762 5.37258 24.5488 12 24.5488Z" fill="#EF0027"/>
<path d="M16.074 7.79083L5.25 5.79883L10.9462 20.1328L18.8835 10.4623L16.074 7.79083ZM15.9 8.66833L17.556 10.2426L13.0275 11.0623L15.9 8.66833ZM12.0435 10.8981L7.2705 6.93958L15.072 8.37508L12.0435 10.8981ZM11.7037 11.5986L10.9252 18.0336L6.729 7.47133L11.7037 11.5978V11.5986ZM12.4237 11.9398L17.439 11.0323L11.6865 18.0396L12.4237 11.9398Z" fill="white"/>
</g>
<defs>
<clipPath id="clip0_3410_276696">
<rect width="24" height="24" fill="white" transform="translate(0 0.548828)"/>
</clipPath>
</defs>
</svg>
