<svg width="24" height="25" viewBox="0 0 24 25" fill="none" xmlns="http://www.w3.org/2000/svg">
<path d="M12 24.5488C18.6274 24.5488 24 19.1762 24 12.5488C24 5.92141 18.6274 0.548828 12 0.548828C5.37258 0.548828 0 5.92141 0 12.5488C0 19.1762 5.37258 24.5488 12 24.5488Z" fill="#FF007A"/>
<path style="mix-blend-mode:soft-light" d="M12 24.5488C18.6274 24.5488 24 19.1762 24 12.5488C24 5.92141 18.6274 0.548828 12 0.548828C5.37258 0.548828 0 5.92141 0 12.5488C0 19.1762 5.37258 24.5488 12 24.5488Z" fill="url(#paint0_linear_3410_276722)"/>
<path d="M9.00894 4.36144C8.78094 4.32624 8.77134 4.32144 8.87854 4.30544C9.08414 4.27344 9.57054 4.31744 9.90574 4.39664C10.6873 4.58304 11.3985 5.05904 12.1585 5.90464L12.3601 6.12864L12.6481 6.08304C13.8641 5.88704 15.1017 6.04304 16.1361 6.52064C16.4209 6.65184 16.8697 6.91344 16.9257 6.98144C16.9441 7.00224 16.9769 7.14064 16.9985 7.28784C17.0753 7.79744 17.0369 8.18784 16.8817 8.47984C16.7969 8.63824 16.7921 8.68784 16.8489 8.82384C16.8759 8.88002 16.9181 8.92749 16.9707 8.96087C17.0233 8.99425 17.0842 9.01219 17.1465 9.01264C17.4041 9.01264 17.6809 8.59664 17.8089 8.01824L17.8601 7.78864L17.9609 7.90304C18.5145 8.53024 18.9489 9.38544 19.0233 9.99344L19.0433 10.1526L18.9497 10.0086C18.7897 9.76064 18.6297 9.59104 18.4233 9.45424C18.0521 9.20864 17.6593 9.12544 16.6193 9.07024C15.6801 9.02064 15.1481 8.94064 14.6217 8.76864C13.7249 8.47664 13.2729 8.08704 12.2073 6.68944C11.7345 6.06864 11.4417 5.72544 11.1513 5.44944C10.4897 4.82064 9.84014 4.49104 9.00894 4.36144Z" fill="white"/>
<path d="M17.1381 5.74856C17.1621 5.33255 17.2181 5.05815 17.3317 4.80775C17.3765 4.70855 17.4189 4.62695 17.4253 4.62695C17.4181 4.68311 17.4033 4.73803 17.3813 4.79016C17.2989 5.03335 17.2853 5.36616 17.3421 5.75256C17.4141 6.24376 17.4557 6.31415 17.9741 6.84455C18.2181 7.09335 18.5013 7.40695 18.6037 7.54215L18.7901 7.78695L18.6037 7.61176C18.3757 7.39815 17.8509 6.97976 17.7349 6.92056C17.6573 6.88056 17.6453 6.88136 17.5973 6.92855C17.5533 6.97336 17.5437 7.03896 17.5381 7.35176C17.5285 7.83816 17.4621 8.15176 17.3013 8.46376C17.2149 8.63175 17.2013 8.59656 17.2797 8.40536C17.3381 8.26296 17.3437 8.20055 17.3437 7.72935C17.3437 6.78215 17.2309 6.55495 16.5709 6.16455C16.3723 6.04932 16.1683 5.9436 15.9597 5.84776C15.8566 5.80641 15.7566 5.75775 15.6605 5.70215C15.6789 5.68375 16.3221 5.87095 16.5805 5.97095C16.9661 6.11895 17.0293 6.13816 17.0765 6.11976C17.1077 6.10776 17.1229 6.01656 17.1381 5.74856ZM9.45248 7.36856C8.98928 6.73096 8.70288 5.75255 8.76448 5.02136L8.78368 4.79496L8.88928 4.81415C9.08768 4.85015 9.42928 4.97735 9.58928 5.07495C10.0277 5.34135 10.2181 5.69256 10.4109 6.59336C10.4677 6.85736 10.5421 7.15576 10.5765 7.25736C10.6309 7.41976 10.8389 7.79976 11.0085 8.04696C11.1301 8.22456 11.0485 8.30856 10.7797 8.28456C10.3685 8.24696 9.81168 7.86296 9.45248 7.36856ZM16.5765 12.1165C14.4109 11.2445 13.6485 10.4878 13.6485 9.21096C13.6485 9.02295 13.6549 8.86936 13.6621 8.86936C13.6701 8.86936 13.7541 8.93095 13.8485 9.00696C14.2877 9.35895 14.7797 9.50936 16.1405 9.70776C16.9413 9.82536 17.3925 9.91975 17.8085 10.0574C19.1301 10.4958 19.9477 11.3853 20.1429 12.5965C20.1989 12.9485 20.1661 13.6085 20.0741 13.9565C20.0021 14.2317 19.7805 14.7269 19.7221 14.7461C19.7061 14.7509 19.6901 14.6893 19.6853 14.6037C19.6629 14.1493 19.4333 13.7061 19.0469 13.3741C18.6077 12.9973 18.0181 12.6965 16.5757 12.1165H16.5765ZM15.0565 12.4781C15.0309 12.3236 14.9959 12.1708 14.9517 12.0205L14.8957 11.8557L14.9989 11.9709C15.1405 12.1309 15.2533 12.3341 15.3477 12.6061C15.4205 12.8133 15.4285 12.8749 15.4277 13.2117C15.4277 13.5429 15.4189 13.6117 15.3517 13.7989C15.2582 14.0734 15.1018 14.3222 14.8949 14.5253C14.4989 14.9285 13.9909 15.1509 13.2565 15.2437C13.1285 15.2597 12.7573 15.2869 12.4301 15.3037C11.6061 15.3469 11.0645 15.4349 10.5773 15.6061C10.5333 15.6258 10.4861 15.6372 10.4381 15.6397C10.4189 15.6197 10.7501 15.4221 11.0245 15.2901C11.4109 15.1037 11.7949 15.0021 12.6565 14.8589C13.0821 14.7877 13.5221 14.7021 13.6333 14.6677C14.6877 14.3445 15.2293 13.5109 15.0557 12.4781H15.0565Z" fill="white"/>
<path d="M16.0477 14.2402C15.7597 13.6218 15.6941 13.0242 15.8517 12.4674C15.8685 12.4082 15.8957 12.3594 15.9117 12.3594C15.9659 12.379 16.0168 12.4065 16.0629 12.441C16.1957 12.5306 16.4613 12.681 17.1693 13.0666C18.0533 13.549 18.5573 13.9226 18.9005 14.3482C19.2005 14.7218 19.3861 15.1474 19.4757 15.6658C19.5261 15.9594 19.4965 16.6658 19.4213 16.9618C19.1837 17.8946 18.6309 18.6274 17.8437 19.0546C17.7694 19.0976 17.6925 19.1358 17.6133 19.169C17.6021 19.169 17.6437 19.0626 17.7069 18.9314C17.9709 18.3778 18.0021 17.8386 17.8013 17.2386C17.6789 16.8714 17.4285 16.4226 16.9237 15.6658C16.3365 14.7858 16.1925 14.5506 16.0477 14.2402ZM7.91413 17.577C8.71813 16.8986 9.71733 16.417 10.6285 16.269C11.0205 16.205 11.6749 16.2306 12.0381 16.3234C12.6205 16.4722 13.1421 16.8066 13.4133 17.2042C13.6773 17.593 13.7917 17.9322 13.9093 18.6858C13.9573 18.9834 14.0077 19.2818 14.0229 19.3498C14.1109 19.7402 14.2845 20.053 14.4989 20.2098C14.8389 20.4586 15.4253 20.4738 16.0013 20.2498C16.0615 20.2222 16.1249 20.2023 16.1901 20.1906C16.2109 20.2114 15.9213 20.4058 15.7165 20.5082C15.4749 20.6376 15.2042 20.7031 14.9301 20.6986C14.4021 20.6986 13.9637 20.4306 13.5981 19.8826C13.5261 19.7746 13.3645 19.4522 13.2381 19.165C12.8525 18.285 12.6621 18.0162 12.2141 17.7226C11.8229 17.4666 11.3197 17.421 10.9413 17.6066C10.4437 17.8506 10.3053 18.4866 10.6613 18.889C10.8029 19.049 11.0669 19.1874 11.2829 19.2138C11.3772 19.2263 11.473 19.2184 11.5639 19.1907C11.6548 19.163 11.7387 19.116 11.8099 19.0531C11.8811 18.9901 11.938 18.9126 11.9767 18.8258C12.0154 18.739 12.035 18.6449 12.0341 18.5498C12.0341 18.2842 11.9317 18.1338 11.6757 18.0178C11.3261 17.8602 10.9501 18.0442 10.9517 18.373C10.9525 18.513 11.0133 18.601 11.1541 18.665C11.2445 18.705 11.2461 18.709 11.1725 18.6938C10.8517 18.6266 10.7765 18.2402 11.0349 17.9834C11.3445 17.6746 11.9853 17.8106 12.2053 18.2314C12.2981 18.4082 12.3085 18.761 12.2277 18.9738C12.0477 19.4498 11.5213 19.6994 10.9877 19.5634C10.6245 19.4706 10.4765 19.3706 10.0389 18.9194C9.27813 18.1354 8.98293 17.9834 7.88533 17.8122L7.67493 17.7794L7.91493 17.577H7.91413Z" fill="white"/>
<path fill-rule="evenodd" clip-rule="evenodd" d="M4.66334 3.04973C7.37934 6.38093 8.76814 8.08973 8.83054 8.17453C8.99054 8.39693 8.93054 8.59613 8.65534 8.75293C8.50254 8.84013 8.18734 8.92813 8.03054 8.92813C7.85214 8.92813 7.65134 8.84253 7.50494 8.70413C7.40174 8.60573 6.98494 7.98333 6.02254 6.48973C5.57187 5.7838 5.11532 5.08165 4.65294 4.38333C4.61374 4.34653 4.61454 4.34733 5.94734 6.73213C6.78414 8.22973 7.06734 8.75853 7.06734 8.82973C7.06734 8.97373 7.02734 9.04893 6.84974 9.24733C6.55374 9.57773 6.42174 9.94893 6.32574 10.7169C6.21854 11.5785 5.91774 12.1865 5.08254 13.2273C4.59454 13.8369 4.51454 13.9489 4.39054 14.1945C4.23534 14.5033 4.19294 14.6769 4.17534 15.0673C4.15694 15.4801 4.19294 15.7473 4.31934 16.1417C4.42974 16.4873 4.54494 16.7161 4.83934 17.1721C5.09374 17.5665 5.24014 17.8593 5.24014 17.9737C5.24014 18.0649 5.25774 18.0649 5.65214 17.9761C6.59534 17.7633 7.36094 17.3881 7.79214 16.9289C8.05854 16.6449 8.12094 16.4881 8.12334 16.0985C8.12414 15.8441 8.11534 15.7905 8.04654 15.6441C7.93454 15.4057 7.73054 15.2073 7.28094 14.9001C6.69134 14.4969 6.44014 14.1721 6.37054 13.7265C6.31294 13.3609 6.37934 13.1025 6.70574 12.4193C7.04254 11.7121 7.12654 11.4113 7.18334 10.6985C7.21934 10.2377 7.26974 10.0561 7.40254 9.91053C7.54014 9.75853 7.66494 9.70653 8.00654 9.66013C8.56334 9.58413 8.91774 9.44013 9.20894 9.17213C9.46174 8.93853 9.56734 8.71373 9.58334 8.37613L9.59614 8.12013L9.45454 7.95533C9.32654 7.80573 7.79774 6.11853 4.86894 2.89453L4.66414 3.04973H4.66334ZM5.52734 15.5345C5.58316 15.4357 5.59982 15.3195 5.57404 15.209C5.54826 15.0985 5.48192 15.0017 5.38814 14.9377C5.20574 14.8161 4.92174 14.8737 4.92174 15.0321C4.92174 15.0801 4.94814 15.1153 5.00814 15.1465C5.10974 15.1985 5.11694 15.2577 5.03774 15.3769C4.95694 15.4985 4.96334 15.6057 5.05614 15.6785C5.20494 15.7953 5.41614 15.7305 5.52814 15.5345H5.52734ZM9.94734 9.79453C9.68574 9.87453 9.43214 10.1521 9.35294 10.4425C9.30494 10.6193 9.33214 10.9305 9.40414 11.0265C9.52014 11.1817 9.63294 11.2225 9.93694 11.2201C10.5321 11.2161 11.0489 10.9609 11.1097 10.6417C11.1593 10.3801 10.9313 10.0177 10.6185 9.85773C10.4569 9.77613 10.1137 9.74333 9.94734 9.79453ZM10.6433 10.3385C10.7353 10.2081 10.6945 10.0665 10.5393 9.97213C10.2417 9.79053 9.79214 9.94013 9.79214 10.2217C9.79214 10.3609 10.0265 10.5137 10.2409 10.5137C10.3849 10.5137 10.5801 10.4281 10.6433 10.3385Z" fill="white"/>
<defs>
<linearGradient id="paint0_linear_3410_276722" x1="12" y1="0.548828" x2="12" y2="24.5488" gradientUnits="userSpaceOnUse">
<stop stop-color="white" stop-opacity="0.5"/>
<stop offset="1" stop-opacity="0.5"/>
</linearGradient>
</defs>
</svg>
