<svg width="32" height="32" viewBox="0 0 32 32" fill="none" xmlns="http://www.w3.org/2000/svg">
  <path
    d="M32 16C32 24.8366 24.8366 32 16 32C7.16344 32 0 24.8366 0 16C0 7.16344 7.16344 0 16 0C24.8366 0 32 7.16344 32 16Z"
    fill="#25B12A" />
  <path
    d="M14.6636 25.3333V6.66667C14.6636 5.93029 15.2605 5.33333 15.9969 5.33333C16.7333 5.33333 17.3303 5.93029 17.3303 6.66667V25.3333L17.3237 25.4701C17.2553 26.1422 16.6872 26.6667 15.9969 26.6667C15.3067 26.6667 14.7385 26.1422 14.6701 25.4701L14.6636 25.3333Z"
    fill="white" />
  <path
    d="M19.6453 12.2307C19.6452 11.7311 19.4432 11.2713 18.9499 10.8986C18.4267 10.5033 17.4948 10.1538 15.9968 10.1538C14.4817 10.1539 13.5516 10.488 13.0346 10.8713C12.5605 11.2229 12.3484 11.6725 12.3484 12.2307C12.3484 12.462 12.4597 12.8369 13.0307 13.258C13.6171 13.6905 14.627 14.1107 16.1752 14.3192C17.9208 14.5543 19.5707 14.9604 20.8171 15.702C22.13 16.4833 23.0734 17.701 23.0736 19.4169C23.0736 20.9982 22.154 22.3108 20.8809 23.1708C19.6071 24.0312 17.8985 24.5132 15.9968 24.5132C14.1345 24.5132 12.445 24.1122 11.1726 23.3479C9.89592 22.5809 8.92021 21.3532 8.92 19.7697C8.92 19.0334 9.51695 18.4364 10.2533 18.4364C10.9897 18.4364 11.5867 19.0334 11.5867 19.7697C11.5869 20.1341 11.795 20.6107 12.545 21.0614C13.3003 21.5151 14.4829 21.8465 15.9968 21.8466C17.4712 21.8466 18.635 21.469 19.3888 20.9598C20.143 20.4502 20.407 19.8804 20.407 19.4169C20.4068 18.8612 20.1668 18.4186 19.4526 17.9937C18.6713 17.529 17.4489 17.182 15.8184 16.9624C13.9906 16.7162 12.509 16.1857 11.4486 15.4038C10.3729 14.6106 9.68172 13.5072 9.68172 12.2307C9.68175 10.8539 10.2733 9.59913 11.446 8.72937C12.576 7.89145 14.136 7.48719 15.9968 7.48718C17.8751 7.48718 19.4344 7.92092 20.558 8.76973C21.7116 9.64119 22.3119 10.8864 22.3119 12.2307C22.3119 12.967 21.715 13.564 20.9786 13.564C20.2424 13.5638 19.6453 12.9669 19.6453 12.2307Z"
    fill="white" />
</svg>
