<svg width="24" height="25" viewBox="0 0 24 25" fill="none" xmlns="http://www.w3.org/2000/svg">
<path d="M12 24.5488C18.6274 24.5488 24 19.1762 24 12.5488C24 5.92141 18.6274 0.548828 12 0.548828C5.37258 0.548828 0 5.92141 0 12.5488C0 19.1762 5.37258 24.5488 12 24.5488Z" fill="#2775C9"/>
<path fill-rule="evenodd" clip-rule="evenodd" d="M11.28 8.09292V7.34352C11.28 6.94587 11.6024 6.62352 12 6.62352C12.3976 6.62352 12.72 6.94587 12.72 7.34352V8.09032C14.0229 8.28649 14.9161 9.02724 15.1546 10.0827C15.2063 10.3116 15.0626 10.5391 14.8337 10.5907C14.803 10.5977 14.7716 10.6012 14.7401 10.6012H14.3506C14.0354 10.6012 13.7486 10.4192 13.6144 10.134C13.366 9.60594 12.7772 9.30188 11.9931 9.30188C11.0125 9.30188 10.3508 9.78313 10.3508 10.505C10.3508 11.0825 10.79 11.4193 11.8547 11.672L12.8533 11.9006C14.6159 12.3036 15.3618 13.0315 15.3618 14.3249C15.3618 15.7581 14.3613 16.7274 12.72 16.9559V17.8235C12.72 18.2211 12.3976 18.5435 12 18.5435C11.6024 18.5435 11.28 18.2211 11.28 17.8235V16.9695C9.8262 16.794 8.84433 16.0245 8.61369 14.8472C8.57574 14.6535 8.70201 14.4657 8.89572 14.4278C8.91835 14.4233 8.94136 14.4211 8.96443 14.4211L9.55574 14.4212C9.82337 14.4212 10.0671 14.5752 10.182 14.8169C10.4543 15.3894 11.1509 15.7446 12.0232 15.7446C13.0699 15.7446 13.7978 15.2272 13.7978 14.5054C13.7978 13.8797 13.3526 13.5188 12.2578 13.2601L11.1329 12.9954C9.5327 12.6285 8.77473 11.8585 8.77473 10.6193C8.77473 9.28482 9.78205 8.32527 11.28 8.09292ZM3 12.5487C3 8.57737 5.59223 5.20915 9.18314 4.0314C9.40993 3.95702 9.65407 4.08057 9.72845 4.30736C9.74271 4.35083 9.74997 4.39628 9.74997 4.44203L9.74998 4.69569C9.74998 5.08235 9.51544 5.43036 9.15705 5.57549C6.39432 6.69426 4.44643 9.39489 4.44643 12.5487C4.44643 15.701 6.39244 18.4005 9.15306 19.5202C9.5139 19.6666 9.74998 20.0171 9.74998 20.4065L9.74999 20.618C9.74999 20.8716 9.54445 21.0771 9.29089 21.0771C9.24162 21.0771 9.19266 21.0692 9.14591 21.0537C5.57432 19.8649 3 16.5062 3 12.5487ZM21 12.5487C21 16.4969 18.4379 19.849 14.8794 21.0452C14.6295 21.1292 14.3589 20.9947 14.2749 20.7448C14.2584 20.6958 14.25 20.6444 14.25 20.5927V20.4232C14.25 20.0244 14.4914 19.6653 14.8606 19.5147C17.614 18.3916 19.5536 15.6957 19.5536 12.5487C19.5536 9.40457 17.6176 6.71086 14.8684 5.58585C14.4944 5.43279 14.25 5.06878 14.25 4.66465V4.51012C14.25 4.24432 14.4655 4.02885 14.7313 4.02885C14.7835 4.02885 14.8354 4.03736 14.8849 4.05403C18.4405 5.25181 21 8.60251 21 12.5487Z" fill="white"/>
</svg>
