<svg width="24" height="25" viewBox="0 0 24 25" fill="none" xmlns="http://www.w3.org/2000/svg">
<g clip-path="url(#clip0_3410_276659)">
<path d="M12 24.5488C18.6274 24.5488 24 19.1762 24 12.5488C24 5.92141 18.6274 0.548828 12 0.548828C5.37258 0.548828 0 5.92141 0 12.5488C0 19.1762 5.37258 24.5488 12 24.5488Z" fill="#26A17B"/>
<path fill-rule="evenodd" clip-rule="evenodd" d="M13.2165 13.7218V13.7203C13.134 13.7263 12.7087 13.7518 11.76 13.7518C11.0025 13.7518 10.4692 13.7293 10.2817 13.7203V13.7226C7.36575 13.5943 5.18925 13.0866 5.18925 12.4791C5.18925 11.8723 7.36575 11.3646 10.2817 11.2341V13.2171C10.4722 13.2306 11.0182 13.2628 11.7727 13.2628C12.678 13.2628 13.1317 13.2253 13.2165 13.2178V11.2356C16.1265 11.3653 18.2977 11.8731 18.2977 12.4791C18.2977 13.0866 16.1265 13.5928 13.2165 13.7218ZM13.2165 11.0293V9.25483H17.277V6.54883H6.22125V9.25483H10.2817V11.0286C6.98175 11.1801 4.5 11.8341 4.5 12.6171C4.5 13.4001 6.98175 14.0533 10.2817 14.2056V19.8921H13.2165V14.2041C16.5112 14.0526 18.987 13.3993 18.987 12.6171C18.987 11.8348 16.5112 11.1816 13.2165 11.0293Z" fill="white"/>
</g>
<defs>
<clipPath id="clip0_3410_276659">
<rect width="24" height="24" fill="white" transform="translate(0 0.548828)"/>
</clipPath>
</defs>
</svg>
