<svg width="24" height="24" viewBox="0 0 24 24" fill="none" xmlns="http://www.w3.org/2000/svg">
<circle cx="12.0001" cy="12" r="12" fill="#625346"/>
<path d="M11.1371 10.4875C11.1371 9.97875 11.2445 9.44085 11.453 8.88321C10.7545 8.10347 10.1989 7.625 10.1989 7.625C10.1989 7.625 6.13342 11.1276 6.13342 14.6323C6.13342 17.597 8.20574 18.6748 10.1989 18.6748C12.1921 18.6748 14.2644 17.597 14.2644 14.6323C14.2644 14.4024 14.2134 14.0834 14.1706 13.8577C12.6903 13.716 11.1371 12.7798 11.1371 10.4875ZM10.1989 17.8407C9.5703 17.8407 9.01468 17.7297 8.5466 17.5103C8.44236 17.4613 8.39753 17.3372 8.44653 17.233C8.49552 17.1287 8.61958 17.0839 8.72381 17.1329C9.13557 17.3257 9.63229 17.4237 10.1989 17.4237C11.4133 17.4237 12.8858 16.9875 13.0051 14.9099C13.0119 14.7952 13.1125 14.7077 13.225 14.7139C13.3397 14.7207 13.4278 14.8192 13.421 14.9339C13.3147 16.7811 12.1399 17.8407 10.1984 17.8407L10.1989 17.8407Z" fill="white"/>
<path d="M14.5773 5.33203C14.5773 5.33203 12.8572 6.79977 12.0108 8.62618C11.7356 9.22245 11.5543 9.85416 11.5543 10.4879C11.5543 12.6707 13.095 13.4631 14.5773 13.4631C16.0596 13.4631 17.6003 12.6708 17.6003 10.4879C17.6003 7.91112 14.5773 5.33203 14.5773 5.33203ZM14.6987 12.6243C14.5559 12.6321 14.4829 12.5425 14.4735 12.4335C14.4641 12.3189 14.5496 12.2183 14.6643 12.2084C15.4419 12.1443 16.3494 11.6554 16.3494 10.4878C16.3494 10.1532 16.267 9.77685 16.1039 9.37082C16.0611 9.26397 16.1127 9.14253 16.2196 9.09979C16.327 9.05705 16.4479 9.10917 16.4906 9.2155C16.6736 9.67157 16.7663 10.0995 16.7663 10.4878C16.7663 11.8461 15.7281 12.5393 14.6987 12.6243Z" fill="white"/>
</svg>
