<svg width="24" height="25" viewBox="0 0 24 25" fill="none" xmlns="http://www.w3.org/2000/svg">
<path d="M12.0001 0.548828C14.3734 0.548843 16.6935 1.25264 18.6669 2.57123C20.6403 3.88982 22.1783 5.76396 23.0866 7.95668C23.9948 10.1494 24.2324 12.5622 23.7694 14.8899C23.3064 17.2177 22.1635 19.3559 20.4853 21.0341C18.807 22.7123 16.6688 23.8552 14.3411 24.3182C12.0133 24.7812 9.60049 24.5436 7.40778 23.6353C5.21507 22.7271 3.34093 21.189 2.02236 19.2156C0.703786 17.2422 0 14.9222 0 12.5488C0.00117043 9.36658 1.26584 6.315 3.51604 4.06481C5.76624 1.81463 8.81782 0.549979 12.0001 0.548828Z" fill="#003371"/>
<path d="M18.0801 6.4871C17.7168 6.12512 17.2248 5.92188 16.7119 5.92188C16.199 5.92188 15.7071 6.12512 15.3437 6.4871L10.6319 11.1843C10.4522 11.3631 10.3097 11.5757 10.2125 11.8097C10.1152 12.0438 10.0651 12.2948 10.0651 12.5482C10.0651 12.8017 10.1152 13.0527 10.2125 13.2867C10.3097 13.5208 10.4522 13.7333 10.6319 13.9122L15.3437 18.6093C15.707 18.9713 16.199 19.1745 16.7119 19.1745C17.2248 19.1745 17.7168 18.9713 18.0801 18.6093C18.2597 18.4304 18.4023 18.2179 18.4995 17.9838C18.5968 17.7498 18.6468 17.4988 18.6468 17.2454C18.6468 16.9919 18.5968 16.741 18.4995 16.5069C18.4023 16.2728 18.2597 16.0603 18.0801 15.8815L15.1911 13.0036C15.131 12.944 15.0833 12.873 15.0508 12.7949C15.0182 12.7167 15.0015 12.6329 15.0015 12.5482C15.0015 12.4636 15.0182 12.3797 15.0508 12.3016C15.0833 12.2234 15.131 12.1525 15.1911 12.0929L18.0801 9.21498C18.2597 9.03615 18.4023 8.82361 18.4995 8.58955C18.5968 8.35549 18.6469 8.10452 18.6469 7.85105C18.6469 7.59758 18.5968 7.34661 18.4995 7.11255C18.4023 6.87848 18.2597 6.66593 18.0801 6.4871Z" fill="#04795B"/>
<path d="M15.343 18.6078C15.7046 18.9706 16.1956 19.1749 16.7079 19.1757C17.2202 19.1765 17.7119 18.9737 18.0747 18.6121C18.4375 18.2504 18.6418 17.7594 18.6426 17.2471C18.6434 16.7348 18.4406 16.2432 18.079 15.8803L13.367 11.1831C13.0053 10.8203 12.5143 10.616 12.002 10.6152C11.4897 10.6144 10.9981 10.8171 10.6353 11.1788C10.2725 11.5405 10.0682 12.0315 10.0674 12.5438C10.0666 13.0561 10.2694 13.5477 10.631 13.9105L15.343 18.6078Z" fill="#0DB50A"/>
<path d="M13.3683 11.1833L8.65644 6.48615C8.47752 6.30559 8.26473 6.16212 8.03026 6.06395C7.79579 5.96578 7.54425 5.91485 7.29006 5.91407C7.03587 5.91329 6.78402 5.96268 6.54896 6.05941C6.31389 6.15615 6.10022 6.29831 5.9202 6.47777C5.74018 6.65723 5.59734 6.87045 5.49987 7.10522C5.4024 7.33998 5.35222 7.59167 5.3522 7.84586C5.35218 8.10005 5.40233 8.35175 5.49976 8.58653C5.5972 8.8213 5.74 9.03454 5.92 9.21403L8.8069 12.0919C8.86698 12.1515 8.91465 12.2224 8.94719 12.3006C8.97973 12.3787 8.99648 12.4626 8.99648 12.5472C8.99648 12.6319 8.97973 12.7157 8.94719 12.7938C8.91465 12.872 8.86698 12.9429 8.8069 13.0026L5.92 15.8805C5.55941 16.2436 5.35763 16.7349 5.35892 17.2466C5.36022 17.7584 5.5645 18.2487 5.92692 18.61C6.28934 18.9713 6.7803 19.174 7.29203 19.1737C7.80377 19.1733 8.29447 18.97 8.65644 18.6083L11.999 15.274L13.3683 13.9112C13.5479 13.7323 13.6904 13.5198 13.7877 13.2857C13.885 13.0517 13.935 12.8007 13.935 12.5472C13.935 12.2938 13.885 12.0428 13.7877 11.8087C13.6904 11.5747 13.5479 11.3621 13.3683 11.1833Z" fill="#0AE33A"/>
<path d="M16.7108 9.78101C17.092 9.77981 17.4643 9.66569 17.7806 9.45305C18.097 9.24041 18.3433 8.93878 18.4883 8.58627C18.6333 8.23377 18.6707 7.84618 18.5956 7.47247C18.5205 7.09876 18.3363 6.75568 18.0664 6.48657C17.7964 6.21745 17.4528 6.03437 17.0788 5.96045C16.7049 5.88652 16.3174 5.92507 15.9654 6.07121C15.6133 6.21736 15.3124 6.46456 15.1008 6.78158C14.8891 7.09861 14.7762 7.47124 14.7762 7.85242C14.777 8.36472 14.9813 8.85571 15.3441 9.21739C15.7069 9.57907 16.1985 9.78181 16.7108 9.78101Z" fill="#0AE33A"/>
</svg>
