<svg width="24" height="25" viewBox="0 0 24 25" fill="none" xmlns="http://www.w3.org/2000/svg">
<g clip-path="url(#clip0_3410_276692)">
<path d="M12 24.5488C18.6274 24.5488 24 19.1762 24 12.5488C24 5.92141 18.6274 0.548828 12 0.548828C5.37258 0.548828 0 5.92141 0 12.5488C0 19.1762 5.37258 24.5488 12 24.5488Z" fill="url(#paint0_linear_3410_276692)"/>
<path d="M17.3025 6.54883H19.47L14.9587 11.0166C14.17 11.7937 13.1072 12.2293 12 12.2293C10.8928 12.2293 9.82998 11.7937 9.04125 11.0166L4.52625 6.54883H6.6975L10.125 9.94108C10.6241 10.4337 11.2972 10.7099 11.9985 10.7099C12.6998 10.7099 13.3729 10.4337 13.872 9.94108L17.3025 6.54883ZM6.67125 18.9711H4.5L9.04125 14.4763C9.82998 13.6992 10.8928 13.2636 12 13.2636C13.1072 13.2636 14.17 13.6992 14.9587 14.4763L19.5 18.9703H17.3287L13.875 15.5488C13.3759 15.0562 12.7028 14.78 12.0015 14.78C11.3002 14.78 10.6271 15.0562 10.128 15.5488L6.6705 18.9711H6.67125Z" fill="black"/>
</g>
<defs>
<linearGradient id="paint0_linear_3410_276692" x1="12" y1="0.548828" x2="12" y2="24.5488" gradientUnits="userSpaceOnUse">
<stop stop-color="white"/>
<stop offset="1" stop-color="#ABABAB"/>
</linearGradient>
<clipPath id="clip0_3410_276692">
<rect width="24" height="24" fill="white" transform="translate(0 0.548828)"/>
</clipPath>
</defs>
</svg>
