<svg width="251" height="251" viewBox="0 0 251 251" fill="none" xmlns="http://www.w3.org/2000/svg">
<circle cx="125.078" cy="125.078" r="125.078" fill="#FFF8F0"/>
<path d="M116.497 160.187C106.594 159.696 96.6134 155.171 89.2397 148.107C85.3662 152.04 82.4307 156.995 80.9001 162.708C76.1856 180.302 86.6023 198.388 104.176 203.097C121.75 207.806 139.807 197.35 144.522 179.755C146.949 170.696 145.365 161.504 140.856 154.072C133.766 158.614 125.041 160.796 116.497 160.187Z" fill="#DD375B"/>
<path d="M129.715 110.859C119.582 110.353 109.367 105.632 101.947 98.2761C98.5223 102.042 95.9165 106.665 94.5064 111.927C91.7796 122.104 94.1137 132.438 99.9637 140.261C100.063 140.412 100.173 140.55 100.284 140.689C100.291 140.691 100.296 140.7 100.304 140.702C100.304 140.702 100.296 140.7 100.295 140.707C100.32 140.73 100.336 140.757 100.353 140.778C100.793 141.339 101.254 141.882 101.732 142.415C101.989 142.702 102.256 142.983 102.52 143.272C106.574 147.447 111.754 150.554 117.72 152.028C124.506 153.893 131.973 153.42 138.622 150.868C140.777 150.045 142.85 149.006 144.779 147.749C144.854 147.699 144.928 147.657 144.996 147.605C151.225 143.315 156.016 136.858 158.128 128.975C160.462 120.265 159.085 111.431 154.96 104.157C147.726 109.096 138.617 111.494 129.715 110.859Z" fill="#F2E2B8"/>
<path d="M107.731 62.6281C105.391 71.3602 106.778 80.2119 110.916 87.4976C111.078 87.7901 111.245 88.0681 111.413 88.3388C111.526 88.5247 111.641 88.7034 111.757 88.8821C111.898 89.1068 112.042 89.3242 112.193 89.5436C112.294 89.6874 112.388 89.8293 112.489 89.9731C112.582 90.1223 112.683 90.2661 112.784 90.41C112.784 90.41 112.787 90.4082 112.793 90.4046C117.125 96.3575 123.407 100.826 130.954 102.693C138.122 104.668 146.06 104.033 152.989 101.074C155.123 100.183 157.166 99.0502 159.048 97.7105C162.227 95.3806 164.997 92.4662 167.186 89.0775C169.015 86.2533 170.434 83.1016 171.352 79.6756C176.067 62.0808 165.648 44.0019 148.081 39.2949C130.515 34.5879 112.445 45.0333 107.731 62.6281Z" fill="#AFB244"/>
</svg>
