<?xml version="1.0" encoding="UTF-8"?>
<svg id="Livello_1" data-name="Livello 1" xmlns="http://www.w3.org/2000/svg" viewBox="0 0 725.97 776.87">
  <defs>
    <style>
      .cls-1, .cls-2, .cls-3, .cls-4, .cls-5 {
        stroke-width: 0px;
      }

      .cls-2 {
        fill: #7a8019;
      }

      .cls-3 {
        fill: #dba2a2;
      }

      .cls-4 {
        fill: #b4bb4f;
      }

      .cls-5 {
        fill: #ffc2c2;
      }
    </style>
  </defs>
  <path class="cls-1" d="M725.73,269.22c.36,5.7.39,11.41-.41,17.11-.72,5.11-1.79,10.12-3.16,15.09-1.27,4.64-3.14,9.03-5.41,13.23-2.21,4.09-4.47,8.17-7.03,12.04-2.59,3.92-5.54,7.61-8.39,11.36-1.16,1.53-2.43,2.99-3.71,4.42-.85.95-1.83,1.8-3.02,2.97,0,3.61,0,7.46,0,11.3,0,5.46.01,10.92.05,16.38.05,9.11.14,18.22.19,27.33.05,10.13.06,20.25.1,30.37.03,7.82.09,15.65.13,23.47.06,11.65.11,23.31.15,34.96.04,10.93.09,21.86.12,32.8.02,6.95,0,13.9.04,20.85.07,13.27.18,26.54.25,39.81.04,7.33.04,14.66.08,22,0,1.53-.6,2.7-1.61,3.83-2.03,2.27-4.84,3.2-7.42,4.49-6.16,3.08-12.35,6.09-18.53,9.12-6.23,3.06-12.47,6.11-18.7,9.18-6.17,3.04-12.34,6.11-18.51,9.15-5.4,2.66-10.81,5.29-16.21,7.95-5.45,2.68-10.9,5.38-16.35,8.06-5.4,2.66-10.8,5.3-16.2,7.96-5.5,2.71-11.01,5.43-16.52,8.14-5.4,2.66-10.8,5.29-16.21,7.94-5.45,2.68-10.89,5.39-16.35,8.06-5.46,2.68-10.92,5.33-16.37,8.01-5.4,2.65-10.79,5.33-16.19,7.98-5.4,2.66-10.79,5.32-16.19,7.97-5.46,2.68-10.91,5.35-16.37,8.03-5.51,2.71-11.02,5.41-16.53,8.12-5.4,2.66-10.79,5.33-16.19,7.98-6.23,3.06-12.47,6.11-18.7,9.17-6.79,3.34-13.57,6.69-20.36,10.03-6.29,3.09-12.58,6.17-18.87,9.27-6.17,3.04-12.34,6.11-18.51,9.14-1.62.79-3.26,1.52-4.92,2.2-1.38.57-2.81.53-4.15-.17-6.71-3.5-13.41-7.01-20.12-10.5-6.77-3.52-13.55-7.02-20.32-10.53-6.83-3.55-13.64-7.11-20.47-10.66-6.05-3.15-12.11-6.28-18.16-9.42-6.05-3.14-12.11-6.3-18.16-9.44-6.11-3.18-12.22-6.35-18.32-9.53-6.11-3.18-12.22-6.35-18.33-9.53-6.11-3.17-12.22-6.34-18.33-9.52-6.11-3.18-12.21-6.36-18.32-9.54-6.05-3.15-12.1-6.3-18.16-9.44-6.11-3.18-12.22-6.34-18.33-9.52-6.11-3.17-12.22-6.35-18.32-9.53-6.11-3.18-12.22-6.35-18.33-9.53-6.05-3.15-12.1-6.3-18.15-9.45-5.45-2.83-10.89-5.67-16.34-8.5-6.05-3.14-12.11-6.28-18.16-9.42-6.11-3.18-12.22-6.36-18.32-9.54-6.05-3.15-12.1-6.3-18.15-9.44-2.37-1.23-4.75-2.43-7.11-3.67-1.55-.81-2.52-2.09-2.58-3.84-.1-2.6-.12-5.2-.05-7.8.14-5.27.36-10.55.56-15.82.3-7.94.63-15.87.92-23.81.21-5.89.35-11.79.57-17.68.28-7.81.63-15.63.92-23.44.22-5.83.37-11.66.58-17.5.29-7.94.63-15.87.92-23.81.22-5.83.36-11.67.57-17.5.29-7.88.63-15.75.92-23.63.22-5.89.37-11.79.58-17.68.28-7.81.62-15.63.91-23.44.22-5.89.37-11.79.59-17.68.28-7.81.62-15.63.9-23.44.06-1.73,0-3.47,0-5.36-1.68-.6-2.65-2.06-3.64-3.59-1.74-2.71-3.72-5.26-5.53-7.93-2.32-3.42-3.8-7.24-4.88-11.2-1.07-3.89-1.74-7.86-1.99-11.9-.23-3.85-.21-7.7.34-11.5.97-6.74,2.25-13.45,3.29-20.18.77-5.03,1.54-10.07,2-15.12.61-6.73,1.07-13.49,1.33-20.25.23-5.89.09-11.79.13-17.68.04-5.9-.06-11.81.19-17.69.3-6.89,1.27-13.71,3.32-20.32,2.24-7.23,5.65-13.85,10.51-19.73,3.86-4.68,8.4-8.58,13.24-12.19,4.39-3.27,8.91-6.32,13.72-8.91,3.92-2.12,7.96-4.04,12.03-5.86,6.38-2.87,12.84-5.61,19.26-8.39,7.85-3.39,15.74-6.72,23.56-10.18,9.52-4.21,19.05-8.42,28.48-12.86,8.98-4.23,17.6-9.13,25.98-14.5,8.2-5.25,16.45-10.42,24.82-15.39,9.28-5.51,18.83-10.55,28.81-14.69,12.37-5.13,24.87-9.9,37.63-14.02,11.35-3.65,22.4-8.07,32.98-13.61,6.76-3.53,13.42-7.25,20.14-10.86,9.19-4.93,18.58-9.38,28.47-12.77,6.71-2.3,13.54-4.05,20.57-4.96,6.86-.89,13.75-1.07,20.64-.7,9.84.54,19.37,2.65,28.63,6.08,7.75,2.87,15.16,6.44,22.5,10.23,7.67,3.96,15.1,8.32,22.38,12.94,4.98,3.15,9.88,6.43,14.83,9.62,10.53,6.81,21.25,13.24,32.75,18.34,8,3.55,16.15,6.68,24.33,9.77,9.22,3.47,18.41,7.04,27.3,11.31,7.05,3.39,13.83,7.28,20.3,11.69,5.79,3.95,11.55,7.93,17.28,11.98,4.76,3.37,9.43,6.86,14.16,10.27,8.87,6.39,18.05,12.27,27.93,17.03,7.11,3.42,14.39,6.39,21.81,9.05,9.57,3.43,19.12,6.91,28.7,10.31,5.79,2.05,11.51,4.26,17.03,6.97,6.38,3.13,12.31,6.99,17.21,12.21,4.77,5.09,8.32,10.9,10.2,17.71,1.37,4.95,1.9,9.99,1.85,15.08-.07,7.32-.39,14.63-.55,21.96-.16,7.29.52,14.51,1.81,21.68,1.49,8.25,3.19,16.46,3.73,24.83ZM715.71,284.95c1.16-8.45.43-16.85-.92-25.23-1.18-7.28-2.44-14.56-3.53-21.86-.82-5.53-.94-11.12-.78-16.72.18-6.39.45-12.78.55-19.18.07-4.35-.19-8.69-1.29-12.93-.65-2.52-1.56-4.94-2.99-7.33-.46.82-.87,1.43-1.17,2.09-1.47,3.22-3.76,5.83-6.16,8.35-4.96,5.2-11.01,8.81-17.53,11.7-8.17,3.62-16.55,6.72-25.01,9.59-13.15,4.46-26.36,8.76-39.51,13.23-7.82,2.66-15.43,5.84-22.87,9.42-7.49,3.61-14.78,7.6-21.98,11.77-8.64,5.01-17.13,10.27-25.37,15.93-8.28,5.7-16.51,11.49-25.47,16.09-5.51,2.83-11.1,5.52-16.8,7.94-4.9,2.08-9.94,3.83-15.02,5.44-4.54,1.44-9.17,2.7-13.83,3.65-5.09,1.04-10.26,1.68-15.41,2.41-7.88,1.1-15.82,1.42-23.76,1.82-5.77.29-11.55.42-17.3.86-7.74.59-15.4,1.81-22.96,3.57-7.08,1.65-13.99,3.83-20.79,6.36-7.15,2.67-14.17,5.67-20.98,9.1-3.7,1.87-7.35,3.83-11.1,5.79.54,2.11,1.13,4.07,1.53,6.06,1.06,5.29,2.1,10.59,3.03,15.9.96,5.5,1.85,11,2.66,16.52.51,3.43.89,6.89,1.17,10.35.3,3.77.59,7.55.56,11.33-.06,8.46-1.17,16.83-2.55,25.17-1.42,8.58-2.8,17.17-2.99,25.89,0,.39.07.78.11,1.17.14.07.27.15.41.22.1-.23.19-.46.31-.67,3.25-5.3,7-10.24,11-14.99,3.45-4.09,7.24-7.83,11.94-10.53,2.29-1.32,4.76-2.2,7.37-2.41,4.59-.35,8.67,1.22,12.31,3.91,3.07,2.28,5.5,5.2,7.68,8.3,4.47,6.36,8.08,13.22,11.38,20.25.25.53.6,1.01,1.01,1.68.14-.45.21-.61.25-.78.68-3.28,1.29-6.57,2.04-9.84,1.61-6.95,3.41-13.84,5.74-20.6,2.24-6.51,4.52-13.01,7.98-19,2.02-3.5,4.3-6.81,7.99-8.87,2.33-1.3,4.79-1.42,7.18-.71,2.4.7,4.38,2.31,6.02,4.22,2.97,3.46,5.21,7.4,7.16,11.5,2.68,5.6,4.99,11.35,6.83,17.29.49,1.56,1.06,3.1,1.66,4.88.22-.4.33-.53.37-.68,1.29-6.01,2.4-12.05,3.89-18,2.33-9.27,5.26-18.35,8.98-27.18,3.3-7.84,6.81-15.57,11.5-22.7,3.04-4.63,6.43-8.98,11.05-12.2,3.02-2.1,6.36-3.37,10.03-3.54,4.67-.21,8.75,1.53,12.38,4.32,2.93,2.25,5.27,5.08,7.28,8.15,3.77,5.77,6.97,11.88,9.84,18.14,2.61,5.69,5,11.48,7.31,17.3,2.24,5.65,4.26,11.39,6.36,17.09,1.13,3.07,2.25,6.15,3.37,9.22.14,0,.28,0,.42.01.55-1.24,1.13-2.46,1.64-3.72,3.27-8.06,5.63-16.43,8.34-24.67,2.9-8.84,5.85-17.67,9.06-26.4,3.58-9.72,7.75-19.21,12.67-28.34,3.68-6.84,7.58-13.54,12.68-19.44,2.69-3.12,5.63-5.93,9.77-7.14,2.12-.62,4.21-.57,6.22.07,3.42,1.08,6.02,3.4,8.12,6.25,2.67,3.63,4.49,7.71,5.94,11.95,2.5,7.35,4.36,14.87,6.03,22.45.39,1.78.86,3.55,1.37,5.62.33-.53.54-.76.63-1.03.81-2.34,1.55-4.71,2.4-7.04,3.23-8.86,6.37-17.74,9.76-26.54,2.8-7.29,6.03-14.41,9.59-21.38,3.53-6.91,7.19-13.75,12-19.87,1.75-2.23,3.63-4.34,6.24-5.75,4.37-2.36,8.58-1.2,11.42,2.35,1.43,1.78,2.37,3.93,3,6.15,1.3,4.58,1.67,9.27,1.5,14.01-.09,2.54-.3,5.09-.3,7.63.01,9.69.09,19.37.15,29.06,0,1.08.06,2.15.1,3.54.81-.96,1.38-1.61,1.92-2.28,4.06-5.13,7.36-10.72,10.58-16.4,4.79-8.47,7.28-17.62,8.59-27.15ZM697.56,177.9c.67-1.65,1.42-3.16,3.19-4.17-1.25-1.07-2.34-2.07-3.5-2.99-5.42-4.26-11.56-7.23-17.94-9.71-5.43-2.11-10.93-4.04-16.41-6.03-7.23-2.62-14.45-5.26-21.7-7.83-7.37-2.62-14.58-5.62-21.62-9.01-8.96-4.32-17.45-9.46-25.56-15.22-8.7-6.18-17.27-12.55-26.01-18.67-5.43-3.81-11-7.45-16.65-10.92-8.8-5.4-18.27-9.47-27.86-13.26-9.86-3.89-19.78-7.65-29.62-11.58-7.2-2.88-14.25-6.17-20.92-10.11-8.44-4.98-16.76-10.17-25-15.47-8.72-5.61-17.42-11.22-26.57-16.11-8.49-4.54-17.08-8.83-26.18-12.03-8.01-2.81-16.24-4.61-24.74-4.9-4.52-.15-9.07-.04-13.58.28-4.13.3-8.28.81-12.33,1.68-8.46,1.83-16.57,4.82-24.38,8.52-7.17,3.39-14.2,7.11-21.18,10.87-9.57,5.14-19.04,10.45-29.16,14.43-4.96,1.95-9.96,3.8-14.99,5.58-4.91,1.75-9.9,3.26-14.79,5.05-7.21,2.66-14.39,5.43-21.54,8.26-6.98,2.76-13.79,5.92-20.35,9.57-5.91,3.29-11.81,6.6-17.61,10.07-5.17,3.08-10.18,6.41-15.29,9.59-4.53,2.81-9.03,5.7-13.67,8.31-5.24,2.94-10.58,5.74-15.99,8.35-6.98,3.37-14.04,6.57-21.12,9.72-7.76,3.45-15.59,6.77-23.38,10.14-7.12,3.07-14.25,6.1-21.34,9.23-4.71,2.08-9.41,4.18-14.03,6.44-6.04,2.97-11.59,6.72-16.92,10.8-3.51,2.68-6.87,5.53-9.78,9.2.53.49.97.91,1.42,1.32,2.82,2.52,5.77,4.92,8.44,7.59,4.65,4.65,9.12,9.48,13.69,14.22,4.51,4.67,9.56,8.66,15.14,11.99,7.14,4.25,14.95,6.65,23.03,8.2,8.03,1.53,16.13,2.72,24.19,4.14,5.5.97,10.9,2.38,16.16,4.29,5.02,1.82,9.86,4.05,14.56,6.58,5.59,3,10.97,6.34,16.01,10.16,4.85,3.66,9.51,7.57,14.22,11.42,7.94,6.48,15.79,13.05,23.77,19.47,5.13,4.12,10.62,7.76,16.26,11.15,7.14,4.28,14.56,8.02,22.25,11.22,7.57,3.14,15.27,5.95,23.19,8.01,10.32,2.69,20.73,5.03,31.09,7.57,6.63,1.62,13.17,3.56,19.57,5.91,7.4,2.72,14.71,5.65,21.72,9.25,1.79.92,3.26.75,4.88-.02.39-.19.79-.35,1.17-.55,2.36-1.25,4.7-2.53,7.07-3.75,7.72-3.96,15.62-7.56,23.75-10.64,7.71-2.93,15.55-5.43,23.59-7.36,10.24-2.46,20.63-3.7,31.12-4.3,7.44-.42,14.89-.59,22.32-1.13,6.43-.47,12.86-1.16,19.25-2.02,6.71-.9,13.26-2.55,19.73-4.55,10.11-3.12,19.8-7.21,29.17-12.09,6.94-3.61,13.56-7.79,19.99-12.23,8.79-6.06,17.66-11.97,26.85-17.41,8.44-4.99,16.98-9.79,25.77-14.14,9.3-4.6,18.89-8.48,28.69-11.83,10.25-3.51,20.58-6.81,30.86-10.24,9-3.01,17.96-6.13,26.71-9.82,4.75-2,9.47-4.09,13.56-7.31,3.89-3.06,7.45-6.43,9.35-11.14ZM685.93,602.57v-1.98c0-3.66,0-7.33-.02-11-.02-9.13-.04-18.26-.09-27.39-.04-7.74-.14-15.49-.18-23.23-.04-10.07-.03-20.13-.08-30.19-.07-15.7-.19-31.39-.27-47.09-.04-7.76-.04-15.52-.07-23.29-.04-12.49-.1-24.98-.15-37.46-.04-10.11-.09-20.21-.13-30.31-.04-9.44-.09-18.88-.13-28.32-.04-9.32-.1-18.64-.1-27.96,0-7,.06-14.01.14-21.01.04-4.35.29-8.7-.8-12.97-.28-1.1-.5-2.25-1.64-3.52-.32.54-.5.96-.79,1.28-2.79,3.04-4.97,6.51-7.05,10.05-6.04,10.3-10.97,21.14-15.3,32.25-2.81,7.22-5.43,14.52-8.04,21.82-2.07,5.78-3.95,11.62-5.98,17.42-.92,2.62-1.72,5.29-3.31,7.65-2.08,3.08-6.05,3.2-8.34.27-1.42-1.81-2.31-3.83-2.82-6.01-1.68-7.12-3.27-14.27-4.95-21.39-1.45-6.16-3.02-12.3-5.39-18.18-1.18-2.94-2.53-5.82-4.87-8.08-1.64-1.58-2.49-1.74-4.18-.22-1.92,1.73-3.76,3.62-5.34,5.67-5.18,6.72-9.13,14.18-12.83,21.78-5.24,10.78-9.53,21.97-13.36,33.31-3.14,9.29-5.98,18.68-9.03,27.99-1.85,5.66-3.8,11.28-6.65,16.54-1.23,2.27-2.86,4.21-4.95,5.72-1.15.83-2.46,1.17-3.89.79-.6-.16-1.2-.35-1.81-.44-1.67-.24-2.74-1.23-3.7-2.55-1.6-2.2-2.59-4.66-3.52-7.15-3.68-9.81-7.27-19.66-10.98-29.46-3.68-9.71-8.25-19-13.62-27.89-1.71-2.82-3.65-5.48-6.37-7.46-3.47-2.54-6.6-2.67-10.19-.37-.42.27-.82.55-1.21.87-2.7,2.16-4.8,4.85-6.74,7.67-4.81,7-8.3,14.69-11.54,22.48-3.48,8.37-6.22,17-8.43,25.8-2.26,8.97-3.95,18.05-5.49,27.16-.62,3.66-.97,7.38-2.38,10.88-.8,1.99-2.17,3.2-4.26,3.4-2.03.2-3.54-.75-4.72-2.41-1.18-1.66-1.86-3.52-2.32-5.44-1.89-7.91-4.12-15.72-6.85-23.38-2.11-5.91-4.49-11.7-7.71-17.11-1.17-1.96-2.35-3.94-4.51-5.5-.73.8-1.45,1.41-1.94,2.18-1.23,1.93-2.49,3.87-3.49,5.93-3.34,6.89-5.76,14.14-7.91,21.46-2.77,9.41-4.59,19.05-6.41,28.68-.53,2.8-1.06,5.6-2.28,8.22-1.06,2.25-3.4,3.59-5.63,2.89-2.26-.71-4.12-2.11-5.13-4.3-2.75-5.9-5.31-11.9-8.16-17.75-2.69-5.53-5.75-10.87-9.65-15.66-1.58-1.93-3.31-3.71-5.59-4.84-2.08-1.04-4.22-1.21-6.25-.02-1.71.99-3.4,2.08-4.87,3.38-5.77,5.11-10.19,11.34-14.46,17.68-3.86,5.73-6.94,11.89-9.78,18.17-.61,1.36-1.25,2.68-1.21,4.23.02,1.11-.03,2.23-.1,3.35-.28,4.25.14,8.56-1.06,12.75-.1.34,0,.74.02,1.11.29,7.32.6,14.63.89,21.95.35,8.87.69,17.74,1.03,26.61.38,9.74.76,19.48,1.14,29.22.38,9.68.76,19.35,1.14,29.03.38,9.67.76,19.35,1.14,29.03.38,9.68.76,19.36,1.14,29.03.35,8.87.68,17.74,1.03,26.61.38,9.74.77,19.48,1.14,29.22.3,7.75.58,15.51.88,23.26.34,8.69.68,17.37,1.02,26.06.16,4.09.33,8.18.52,12.63,22.18-10.86,44.11-21.7,66.08-32.46,22-10.78,43.97-21.61,65.96-32.43,21.92-10.78,43.84-21.59,65.77-32.38,21.98-10.82,43.96-21.64,65.94-32.45,21.98-10.8,43.96-21.59,65.99-32.41ZM346.2,763.42c.08-.6.15-.85.14-1.09-.16-3.72-.36-7.44-.51-11.16-.39-9.74-.77-19.48-1.15-29.21-.38-9.67-.76-19.35-1.14-29.03-.38-9.68-.76-19.35-1.14-29.03-.34-8.87-.68-17.74-1.03-26.61-.38-9.74-.77-19.48-1.15-29.21-.3-7.75-.58-15.51-.88-23.26-.33-8.69-.68-17.37-1.01-26.05-.19-4.96-.35-9.93-.55-14.89-.31-7.88-.66-15.75-.97-23.63-.23-5.77-.42-11.54-.64-17.31-.31-8.06-.55-16.13-.98-24.19-.36-6.86-.37-13.72-2.11-20.49-1.57-6.12-2.81-12.33-4.57-18.41-2.86-9.86-6.47-19.42-11.64-28.32-2.93-5.05-6.58-9.48-11.48-12.77-4.45-2.98-9.57-2.94-13.95.12-2.21,1.55-4.03,3.5-5.67,5.62-3.73,4.85-6.44,10.29-9.19,15.72-1.31,2.59-2.89,5.05-4.43,7.51-.8,1.28-2.08,1.95-3.58,2.09-.93.08-1.87.09-2.8.07-1.61-.03-2.91-.77-3.73-2.12-.7-1.16-1.36-2.41-1.71-3.7-.87-3.23-1.65-6.5-2.3-9.78-1.76-8.77-3.81-17.46-7.11-25.8-1.65-4.15-3.28-8.31-5.56-12.17-1.21-2.04-2.63-3.91-4.47-5.44-1.45-1.21-2.93-1.33-4.43-.27-1.21.86-2.4,1.78-3.45,2.82-3.21,3.16-5.67,6.91-7.97,10.74-3.34,5.59-6.53,11.27-9.76,16.93-1.18,2.07-2.65,3.88-4.62,5.26-1.73,1.22-3.93,1.42-5.58.18-1.48-1.11-2.9-2.39-3.6-4.18-1.8-4.62-3.64-9.23-5.3-13.9-2.65-7.43-5.63-14.72-9.45-21.63-1.41-2.56-3.06-4.97-5.2-7-1.67-1.59-2.3-1.67-3.86.02-1.45,1.59-2.81,3.34-3.87,5.21-3.75,6.57-6.25,13.66-8.18,20.92-2.53,9.53-4.68,19.15-7.02,28.73-.62,2.52-1.33,5.03-2.03,7.54-.44,1.61-1.5,2.67-3.03,3.3-2.22.93-7.2-.83-8.02-3.56-.57-1.9-1.32-3.74-1.91-5.64-2.21-7.17-4.25-14.4-6.62-21.51-4.18-12.53-8.48-25.02-12.88-37.48-3.49-9.89-7.09-19.74-11.63-29.2-3.01-6.28-6.3-12.41-10.68-17.86-1.55-1.92-3.28-3.77-5.19-5.32-2.9-2.36-5.24-2.15-7.94.45-1.11,1.07-2.11,2.29-3,3.56-4.87,6.93-7.93,14.71-10.47,22.72-1.08,3.36-2.17,6.72-3.34,10.05-.68,1.93-2.17,2.99-4.2,3.2-2.61.26-5.92-1.97-6.6-4.49-.95-3.53-1.83-7.08-2.75-10.62-2.53-9.73-5.41-19.35-9.02-28.74-2.21-5.74-4.71-11.35-7.99-16.57-1.13-1.79-2.4-3.49-4.24-4.64-1.25-.78-1.85-.68-2.69.49-.54.75-.98,1.59-1.34,2.44-1.73,4.15-2.55,8.56-3.25,12.97-.66,4.16-1.17,8.35-1.6,12.55-.63,6.11-1.25,12.22-1.66,18.35-.35,5.14-.39,10.3-.58,15.45-.32,8.37-.66,16.75-.97,25.12-.31,8.56-.57,17.12-.89,25.68-.3,8.37-.66,16.75-.97,25.12-.2,5.4-.34,10.8-.54,16.2-.31,8.31-.66,16.62-.97,24.93-.31,8.69-.59,17.37-.89,26.06-.3,8.56-.63,17.12-.94,25.68-.21,5.71-.37,11.42-.58,17.12-.29,7.94-.62,15.88-.92,23.82-.27,6.88-.54,13.77-.78,20.65-.22,6.21-.38,12.41-.62,18.62-.03.82.22,1.24.92,1.6,7.88,4.08,15.74,8.19,23.62,12.27,8.26,4.28,16.53,8.54,24.79,12.83,8.25,4.29,16.49,8.62,24.75,12.92,7.54,3.92,15.1,7.8,22.64,11.72,6.83,3.55,13.63,7.13,20.45,10.69,6.93,3.61,13.87,7.2,20.81,10.8,6.05,3.14,12.11,6.29,18.17,9.43,6.11,3.18,12.21,6.36,18.32,9.54,6.05,3.15,12.1,6.3,18.15,9.45,6.16,3.2,12.33,6.41,18.49,9.61,6.05,3.15,12.11,6.29,18.16,9.43,6.11,3.17,12.22,6.35,18.33,9.53,6.05,3.15,12.1,6.31,18.15,9.45,6.11,3.17,12.23,6.33,18.33,9.51,6.05,3.15,12.09,6.32,18.14,9.47,6.93,3.61,13.87,7.2,20.8,10.79,2.02,1.05,4.06,2.08,6.32,3.24ZM340.62,409.71c1.52-9.45,2.71-18.91,2.16-28.52-.37-6.52-1.1-12.99-2.15-19.42-1.12-6.86-2.35-13.7-3.64-20.53-.76-4.02-1.75-7.98-2.6-11.83-.89-.34-1.56-.52-2.15-.84-5.91-3.17-12.1-5.74-18.31-8.24-11.08-4.46-22.63-7.38-34.2-10.2-7.95-1.94-15.92-3.8-23.83-5.91-9.97-2.66-19.56-6.41-28.9-10.75-11.34-5.27-22.08-11.64-31.93-19.34-9.04-7.08-17.87-14.42-26.64-21.82-8.56-7.22-17.41-14-27.27-19.36-6.45-3.5-13.19-6.31-20.31-8.21-6.6-1.76-13.35-2.73-20.08-3.75-7.54-1.14-15.02-2.58-22.35-4.73-7.95-2.33-15.21-6.01-21.91-10.83-5.72-4.12-10.63-9.11-15.43-14.24-4.37-4.66-8.99-9.08-13.55-13.56-1.21-1.19-2.59-2.21-4.1-3.48-.85,2.02-1.65,3.77-2.33,5.55-2.46,6.51-3.58,13.3-3.86,20.21-.26,6.32-.19,12.66-.25,19-.05,5.96.07,11.92-.16,17.87-.25,6.51-.6,13.03-1.3,19.5-.72,6.78-1.8,13.51-2.91,20.24-1.03,6.24-2.37,12.43-2.73,18.77-.38,6.71.35,13.26,2.63,19.6.96,2.67,2.22,5.18,4.21,7.65.09-.72.17-1.14.18-1.55.06-2.54.36-5.05.75-7.57,1.05-6.86,1.68-13.78,2.73-20.63.8-5.27,1.98-10.48,4.31-15.35,1.09-2.27,2.57-4.31,4.62-5.74,1.38-.96,3.08-1.76,4.73-2,4.29-.62,7.84,1.17,10.94,4.04,3.38,3.13,5.63,7.07,7.71,11.09,2.48,4.8,4.7,9.72,6.44,14.84,2.05,6.05,4.02,12.12,5.98,18.19.68,2.12,1.22,4.27,1.94,6.78.34-.59.5-.79.58-1.02,2.06-6.01,4.65-11.77,7.98-17.17,2.42-3.91,5.1-7.62,9.03-10.24,2.45-1.64,5.1-2.62,8.01-2.59,3.84.04,7.24,1.44,10.25,3.83,3.39,2.69,6.15,5.97,8.61,9.48,5.45,7.75,9.67,16.18,13.3,24.9,2.07,4.98,4,10.02,5.89,15.07,2.13,5.69,4.2,11.41,6.21,17.14,2.27,6.5,4.52,13,6.66,19.54,2.17,6.6,4.2,13.23,6.29,19.86.19.6.25,1.28.94,1.7,1.24-5.11,2.47-10.11,3.66-15.11,2.36-9.93,5.42-19.6,10.17-28.68,2.33-4.44,5.18-8.46,9.61-11.1,1.75-1.05,3.68-1.59,5.67-1.5,2.88.13,5.38,1.35,7.54,3.24,3.44,3.04,6.05,6.75,8.21,10.74,4.09,7.61,7.41,15.56,10.17,23.75.74,2.2,1.58,4.37,2.46,6.8.47-.73.78-1.17,1.06-1.64,3.14-5.27,6.21-10.59,9.44-15.81,2.89-4.66,6.28-8.94,10.66-12.32,2.03-1.57,4.31-2.74,6.84-3.24,4.12-.82,7.72.53,10.89,3.1,2.97,2.42,5.25,5.45,7.1,8.78,2.92,5.28,5.11,10.89,7.15,16.55,2.64,7.31,4.41,14.85,5.94,22.47.22,1.11.52,2.21.85,3.63.46-.72.76-1.11.97-1.54,2.3-4.75,4.87-9.35,8.02-13.6,3.39-4.59,7.27-8.6,12.59-11.02,4.55-2.08,9.22-2.28,14-1.18,3.77.86,6.98,2.88,9.94,5.27,4.98,4.03,8.89,9,12.03,14.55,4.32,7.63,7.68,15.7,10.35,24.05.33,1.04.73,2.05,1.25,3.5.15-.93.27-1.4.29-1.87.41-7.83,1.74-15.54,2.99-23.25Z"/>
  <path class="cls-2" d="M714.78,259.72c1.36,8.37,2.09,16.78.92,25.23-1.31,9.52-3.8,18.68-8.59,27.15-3.22,5.68-6.52,11.27-10.58,16.4-.54.67-1.1,1.32-1.92,2.28-.04-1.39-.09-2.47-.1-3.54-.06-9.68-.13-19.37-.15-29.06,0-2.54.21-5.08.3-7.63.17-4.74-.21-9.43-1.5-14.01-.63-2.22-1.57-4.37-3-6.15-2.84-3.55-7.06-4.71-11.42-2.35-2.6,1.41-4.48,3.52-6.24,5.75-4.81,6.13-8.47,12.96-12,19.87-3.56,6.97-6.79,14.09-9.59,21.38-3.38,8.8-6.53,17.68-9.76,26.54-.84,2.33-1.59,4.69-2.4,7.04-.09.27-.3.5-.63,1.03-.51-2.07-.98-3.84-1.37-5.62-1.67-7.58-3.53-15.11-6.03-22.45-1.44-4.24-3.27-8.32-5.94-11.95-2.1-2.85-4.69-5.17-8.12-6.25-2.01-.64-4.11-.69-6.22-.07-4.14,1.21-7.08,4.02-9.77,7.14-5.1,5.9-9,12.6-12.68,19.44-4.92,9.14-9.09,18.62-12.67,28.34-3.21,8.73-6.16,17.56-9.06,26.4-2.71,8.25-5.07,16.61-8.34,24.67-.51,1.26-1.09,2.48-1.64,3.72-.14,0-.28,0-.42-.01-1.12-3.07-2.24-6.15-3.37-9.22-2.1-5.7-4.12-11.44-6.36-17.09-2.3-5.82-4.7-11.61-7.31-17.3-2.86-6.26-6.06-12.37-9.84-18.14-2.01-3.07-4.36-5.9-7.28-8.15-3.64-2.79-7.71-4.53-12.38-4.32-3.66.17-7.01,1.43-10.03,3.54-4.62,3.22-8,7.57-11.05,12.2-4.69,7.14-8.2,14.86-11.5,22.7-3.72,8.82-6.65,17.91-8.98,27.18-1.49,5.95-2.6,11.99-3.89,18-.03.15-.15.28-.37.68-.61-1.78-1.18-3.31-1.66-4.88-1.84-5.94-4.15-11.69-6.83-17.29-1.95-4.1-4.19-8.03-7.16-11.5-1.64-1.92-3.61-3.52-6.02-4.22-2.39-.71-4.85-.59-7.18.71-3.69,2.06-5.97,5.37-7.99,8.87-3.46,5.99-5.74,12.49-7.98,19-2.33,6.75-4.13,13.65-5.74,20.6-.75,3.27-1.37,6.56-2.04,9.84-.04.17-.11.33-.25.78-.41-.68-.76-1.15-1.01-1.68-3.3-7.03-6.91-13.88-11.38-20.25-2.18-3.1-4.61-6.03-7.68-8.3-3.64-2.7-7.72-4.27-12.31-3.91-2.6.2-5.07,1.09-7.37,2.41-4.7,2.7-8.5,6.44-11.94,10.53-4,4.74-7.75,9.69-11,14.99-.13.21-.21.45-.31.67-.14-.07-.27-.15-.41-.22-.04-.39-.12-.79-.11-1.17.19-8.72,1.57-17.31,2.99-25.89,1.37-8.34,2.49-16.71,2.55-25.17.03-3.78-.27-7.56-.56-11.33-.28-3.46-.67-6.92-1.17-10.35-.81-5.52-1.7-11.03-2.66-16.52-.93-5.31-1.97-10.61-3.03-15.9-.4-2-.99-3.96-1.53-6.06,3.76-1.96,7.41-3.93,11.1-5.79,6.82-3.43,13.83-6.43,20.98-9.1,6.8-2.54,13.72-4.71,20.79-6.36,7.56-1.76,15.22-2.98,22.96-3.57,5.75-.44,11.53-.57,17.3-.86,7.94-.4,15.88-.72,23.76-1.82,5.15-.72,10.32-1.37,15.41-2.41,4.67-.95,9.29-2.21,13.83-3.65,5.07-1.61,10.12-3.36,15.02-5.44,5.7-2.42,11.29-5.11,16.8-7.94,8.96-4.6,17.19-10.39,25.47-16.09,8.24-5.66,16.73-10.92,25.37-15.93,7.19-4.17,14.48-8.16,21.98-11.77,7.43-3.58,15.05-6.76,22.87-9.42,13.15-4.47,26.36-8.77,39.51-13.23,8.46-2.87,16.83-5.97,25.01-9.59,6.52-2.89,12.57-6.51,17.53-11.7,2.4-2.51,4.69-5.13,6.16-8.35.3-.66.71-1.27,1.17-2.09,1.43,2.4,2.34,4.81,2.99,7.33,1.1,4.24,1.36,8.59,1.29,12.93-.1,6.39-.37,12.78-.55,19.18-.16,5.59-.04,11.18.78,16.72,1.09,7.3,2.35,14.57,3.53,21.86Z"/>
  <path class="cls-4" d="M700.75,173.73c-1.77,1.02-2.52,2.53-3.19,4.17-1.91,4.71-5.47,8.08-9.35,11.14-4.09,3.22-8.81,5.31-13.56,7.31-8.75,3.68-17.71,6.81-26.71,9.82-10.28,3.44-20.61,6.73-30.86,10.24-9.8,3.35-19.4,7.23-28.69,11.83-8.79,4.35-17.33,9.14-25.77,14.14-9.19,5.44-18.06,11.35-26.85,17.41-6.43,4.44-13.05,8.62-19.99,12.23-9.37,4.88-19.07,8.97-29.17,12.09-6.47,2-13.02,3.65-19.73,4.55-6.39.86-12.81,1.55-19.25,2.02-7.42.55-14.88.71-22.32,1.13-10.48.6-20.88,1.84-31.12,4.3-8.04,1.93-15.87,4.43-23.59,7.36-8.13,3.08-16.02,6.67-23.75,10.64-2.37,1.22-4.71,2.5-7.07,3.75-.38.2-.78.37-1.17.55-1.62.78-3.09.94-4.88.02-7.01-3.6-14.32-6.53-21.72-9.25-6.4-2.35-12.94-4.29-19.57-5.91-10.36-2.54-20.77-4.88-31.09-7.57-7.92-2.06-15.62-4.87-23.19-8.01-7.7-3.19-15.11-6.93-22.25-11.22-5.65-3.39-11.13-7.03-16.26-11.15-7.97-6.42-15.83-12.99-23.77-19.47-4.71-3.85-9.37-7.75-14.22-11.42-5.05-3.81-10.43-7.16-16.01-10.16-4.7-2.52-9.54-4.75-14.56-6.58-5.26-1.91-10.66-3.32-16.16-4.29-8.05-1.42-16.15-2.61-24.19-4.14-8.07-1.55-15.89-3.95-23.03-8.2-5.58-3.32-10.63-7.31-15.14-11.99-4.57-4.73-9.04-9.57-13.69-14.22-2.67-2.67-5.62-5.07-8.44-7.59-.46-.41-.9-.83-1.42-1.32,2.91-3.67,6.27-6.52,9.78-9.2,5.33-4.08,10.89-7.83,16.92-10.8,4.62-2.26,9.32-4.37,14.03-6.44,7.09-3.12,14.23-6.15,21.34-9.23,7.8-3.37,15.62-6.69,23.38-10.14,7.08-3.15,14.14-6.35,21.12-9.72,5.42-2.62,10.75-5.41,15.99-8.35,4.65-2.61,9.14-5.5,13.67-8.31,5.11-3.18,10.13-6.51,15.29-9.59,5.8-3.47,11.7-6.78,17.61-10.07,6.56-3.65,13.37-6.81,20.35-9.57,7.15-2.83,14.32-5.6,21.54-8.26,4.89-1.8,9.88-3.3,14.79-5.05,5.02-1.78,10.03-3.62,14.99-5.58,10.13-3.99,19.6-9.3,29.16-14.43,6.99-3.76,14.02-7.48,21.18-10.87,7.8-3.69,15.92-6.68,24.38-8.52,4.05-.87,8.2-1.38,12.33-1.68,4.51-.33,9.07-.44,13.58-.28,8.5.29,16.73,2.09,24.74,4.9,9.1,3.19,17.69,7.49,26.18,12.03,9.15,4.89,17.86,10.5,26.57,16.11,8.24,5.3,16.56,10.49,25,15.47,6.68,3.93,13.72,7.23,20.92,10.11,9.84,3.93,19.76,7.7,29.62,11.58,9.59,3.79,19.06,7.86,27.86,13.26,5.66,3.47,11.22,7.11,16.65,10.92,8.74,6.12,17.31,12.49,26.01,18.67,8.11,5.76,16.59,10.9,25.56,15.22,7.04,3.39,14.25,6.39,21.62,9.01,7.24,2.57,14.47,5.21,21.7,7.83,5.48,1.99,10.98,3.91,16.41,6.03,6.37,2.48,12.52,5.45,17.94,9.71,1.16.92,2.25,1.92,3.5,2.99Z"/>
  <path class="cls-5" d="M685.93,600.59v1.98c-22.03,10.82-44.01,21.61-65.99,32.41-21.99,10.81-43.97,21.63-65.94,32.45-21.93,10.79-43.85,21.6-65.77,32.38-21.99,10.82-43.96,21.64-65.96,32.43-21.97,10.77-43.9,21.61-66.08,32.46-.18-4.45-.35-8.54-.52-12.63-.34-8.69-.68-17.37-1.02-26.06-.29-7.75-.58-15.51-.88-23.26-.38-9.74-.77-19.48-1.14-29.22-.35-8.87-.68-17.74-1.03-26.61-.38-9.67-.76-19.35-1.14-29.03-.38-9.67-.76-19.35-1.14-29.03-.38-9.68-.77-19.35-1.14-29.03-.38-9.74-.77-19.48-1.14-29.22-.34-8.87-.68-17.74-1.03-26.61-.29-7.32-.6-14.63-.89-21.95-.01-.37-.12-.78-.02-1.11,1.2-4.18.77-8.5,1.06-12.75.07-1.11.13-2.23.1-3.35-.04-1.55.6-2.88,1.21-4.23,2.84-6.29,5.92-12.45,9.78-18.17,4.27-6.33,8.69-12.57,14.46-17.68,1.47-1.3,3.16-2.4,4.87-3.38,2.03-1.18,4.17-1.01,6.25.02,2.28,1.13,4.02,2.91,5.59,4.84,3.9,4.79,6.96,10.13,9.65,15.66,2.85,5.85,5.4,11.85,8.16,17.75,1.02,2.19,2.87,3.58,5.13,4.3,2.22.7,4.57-.64,5.63-2.89,1.22-2.62,1.75-5.42,2.28-8.22,1.82-9.63,3.64-19.27,6.41-28.68,2.15-7.32,4.57-14.57,7.91-21.46,1-2.06,2.25-3.99,3.49-5.93.49-.77,1.21-1.37,1.94-2.18,2.16,1.56,3.34,3.55,4.51,5.5,3.22,5.41,5.6,11.21,7.71,17.11,2.73,7.67,4.96,15.47,6.85,23.38.46,1.92,1.13,3.78,2.32,5.44,1.19,1.66,2.69,2.61,4.72,2.41,2.1-.21,3.47-1.41,4.26-3.4,1.4-3.5,1.76-7.22,2.38-10.88,1.54-9.11,3.23-18.19,5.49-27.16,2.21-8.8,4.95-17.42,8.43-25.8,3.24-7.79,6.73-15.48,11.54-22.48,1.94-2.82,4.05-5.5,6.74-7.67.38-.31.79-.6,1.21-.87,3.59-2.29,6.72-2.17,10.19.37,2.72,1.98,4.66,4.64,6.37,7.46,5.37,8.89,9.94,18.17,13.62,27.89,3.71,9.8,7.29,19.65,10.98,29.46.93,2.49,1.92,4.96,3.52,7.15.96,1.32,2.03,2.31,3.7,2.55.61.09,1.21.28,1.81.44,1.43.38,2.74.05,3.89-.79,2.09-1.51,3.71-3.44,4.95-5.72,2.86-5.26,4.8-10.89,6.65-16.54,3.05-9.32,5.89-18.7,9.03-27.99,3.84-11.35,8.12-22.54,13.36-33.31,3.7-7.6,7.66-15.06,12.83-21.78,1.58-2.05,3.42-3.94,5.34-5.67,1.68-1.52,2.54-1.36,4.18.22,2.34,2.25,3.69,5.14,4.87,8.08,2.37,5.89,3.94,12.02,5.39,18.18,1.68,7.13,3.26,14.27,4.95,21.39.52,2.18,1.4,4.2,2.82,6.01,2.3,2.93,6.26,2.81,8.34-.27,1.59-2.36,2.39-5.03,3.31-7.65,2.03-5.79,3.91-11.64,5.98-17.42,2.61-7.3,5.23-14.6,8.04-21.82,4.33-11.11,9.26-21.95,15.3-32.25,2.07-3.54,4.26-7.01,7.05-10.05.29-.32.46-.74.79-1.28,1.14,1.26,1.36,2.41,1.64,3.52,1.09,4.27.84,8.62.8,12.97-.08,7-.14,14.01-.14,21.01,0,9.32.06,18.64.1,27.96.04,9.44.09,18.88.13,28.32.04,10.11.09,20.21.13,30.31.05,12.48.1,24.97.15,37.46.03,7.76.03,15.52.07,23.29.08,15.69.19,31.39.27,47.09.05,10.06.04,20.12.08,30.19.04,7.74.14,15.49.18,23.23.05,9.13.07,18.26.09,27.39,0,3.66.01,7.33.02,11Z"/>
  <path class="cls-3" d="M346.34,762.33c0,.24-.06.49-.14,1.09-2.26-1.16-4.3-2.19-6.32-3.24-6.93-3.59-13.87-7.18-20.8-10.79-6.05-3.15-12.09-6.32-18.14-9.47-6.1-3.18-12.22-6.33-18.33-9.51-6.05-3.15-12.1-6.31-18.15-9.45-6.11-3.18-12.22-6.35-18.33-9.53-6.05-3.15-12.11-6.29-18.16-9.43-6.17-3.2-12.33-6.41-18.49-9.61-6.05-3.15-12.1-6.3-18.15-9.45-6.11-3.18-12.21-6.36-18.32-9.54-6.05-3.14-12.11-6.29-18.17-9.43-6.94-3.6-13.88-7.19-20.81-10.8-6.82-3.56-13.63-7.14-20.45-10.69-7.54-3.92-15.1-7.8-22.64-11.72-8.25-4.29-16.49-8.62-24.75-12.92-8.26-4.29-16.53-8.55-24.79-12.83-7.88-4.09-15.74-8.19-23.62-12.27-.7-.36-.95-.78-.92-1.6.25-6.2.41-12.41.62-18.62.25-6.88.52-13.77.78-20.65.3-7.94.63-15.88.92-23.82.21-5.71.38-11.42.58-17.12.3-8.56.63-17.12.94-25.68.3-8.69.58-17.37.89-26.06.3-8.31.66-16.62.97-24.93.2-5.4.34-10.8.54-16.2.31-8.37.66-16.75.97-25.12.31-8.56.57-17.12.89-25.68.3-8.38.65-16.75.97-25.12.19-5.15.23-10.31.58-15.45.41-6.12,1.03-12.24,1.66-18.35.43-4.19.94-8.38,1.6-12.55.7-4.41,1.52-8.81,3.25-12.97.35-.85.8-1.69,1.34-2.44.83-1.17,1.43-1.27,2.69-.49,1.84,1.14,3.11,2.84,4.24,4.64,3.29,5.22,5.78,10.83,7.99,16.57,3.6,9.39,6.48,19.01,9.02,28.74.92,3.54,1.81,7.09,2.75,10.62.68,2.52,3.99,4.75,6.6,4.49,2.03-.21,3.53-1.26,4.2-3.2,1.17-3.33,2.27-6.69,3.34-10.05,2.55-8.01,5.61-15.79,10.47-22.72.89-1.27,1.89-2.48,3-3.56,2.7-2.6,5.04-2.81,7.94-.45,1.91,1.55,3.64,3.4,5.19,5.32,4.38,5.45,7.67,11.58,10.68,17.86,4.54,9.47,8.15,19.32,11.63,29.2,4.4,12.45,8.7,24.95,12.88,37.48,2.37,7.12,4.41,14.34,6.62,21.51.58,1.9,1.34,3.74,1.91,5.64.82,2.72,5.79,4.48,8.02,3.56,1.53-.64,2.59-1.7,3.03-3.3.7-2.51,1.41-5.01,2.03-7.54,2.34-9.58,4.49-19.21,7.02-28.73,1.93-7.26,4.43-14.36,8.18-20.92,1.07-1.87,2.42-3.61,3.87-5.21,1.56-1.7,2.19-1.61,3.86-.02,2.14,2.03,3.79,4.44,5.2,7,3.83,6.91,6.81,14.2,9.45,21.63,1.66,4.67,3.51,9.28,5.3,13.9.7,1.8,2.13,3.07,3.6,4.18,1.65,1.24,3.85,1.04,5.58-.18,1.97-1.38,3.43-3.19,4.62-5.26,3.23-5.66,6.42-11.33,9.76-16.93,2.29-3.83,4.76-7.58,7.97-10.74,1.06-1.04,2.24-1.96,3.45-2.82,1.5-1.06,2.99-.94,4.43.27,1.84,1.53,3.26,3.4,4.47,5.44,2.29,3.86,3.92,8.02,5.56,12.17,3.3,8.34,5.35,17.03,7.11,25.8.66,3.28,1.43,6.55,2.3,9.78.35,1.29,1.01,2.54,1.71,3.7.82,1.35,2.12,2.09,3.73,2.12.93.01,1.87,0,2.8-.07,1.5-.13,2.78-.81,3.58-2.09,1.54-2.47,3.12-4.92,4.43-7.51,2.75-5.43,5.46-10.87,9.19-15.72,1.64-2.13,3.45-4.08,5.67-5.62,4.38-3.06,9.5-3.1,13.95-.12,4.91,3.29,8.55,7.72,11.48,12.77,5.17,8.91,8.78,18.47,11.64,28.32,1.76,6.08,3.01,12.29,4.57,18.41,1.74,6.78,1.74,13.64,2.11,20.49.43,8.06.67,16.13.98,24.19.22,5.77.41,11.54.64,17.31.31,7.88.65,15.75.97,23.63.2,4.96.36,9.93.55,14.89.33,8.68.68,17.36,1.01,26.05.3,7.75.58,15.51.88,23.26.38,9.74.77,19.48,1.15,29.21.34,8.87.68,17.74,1.03,26.61.38,9.68.76,19.35,1.14,29.03.38,9.67.76,19.35,1.14,29.03.38,9.74.76,19.48,1.15,29.21.15,3.72.35,7.44.51,11.16Z"/>
  <path class="cls-2" d="M342.77,381.19c.55,9.61-.64,19.06-2.16,28.52-1.24,7.71-2.57,15.42-2.99,23.25-.02.47-.14.94-.29,1.87-.52-1.45-.92-2.47-1.25-3.5-2.67-8.35-6.03-16.42-10.35-24.05-3.14-5.55-7.04-10.52-12.03-14.55-2.96-2.39-6.17-4.41-9.94-5.27-4.78-1.1-9.44-.89-14,1.18-5.32,2.42-9.2,6.43-12.59,11.02-3.15,4.25-5.72,8.85-8.02,13.6-.21.43-.51.82-.97,1.54-.33-1.42-.63-2.52-.85-3.63-1.52-7.61-3.3-15.15-5.94-22.47-2.04-5.66-4.23-11.27-7.15-16.55-1.85-3.32-4.12-6.36-7.1-8.78-3.17-2.57-6.77-3.91-10.89-3.1-2.52.5-4.8,1.67-6.84,3.24-4.38,3.38-7.76,7.67-10.66,12.32-3.24,5.22-6.3,10.53-9.44,15.81-.28.46-.58.91-1.06,1.64-.88-2.43-1.72-4.6-2.46-6.8-2.76-8.19-6.08-16.14-10.17-23.75-2.16-4-4.76-7.7-8.21-10.74-2.16-1.9-4.66-3.11-7.54-3.24-1.99-.08-3.92.46-5.67,1.5-4.43,2.64-7.28,6.66-9.61,11.1-4.75,9.07-7.82,18.75-10.17,28.68-1.19,5-2.42,10-3.66,15.11-.69-.42-.75-1.1-.94-1.7-2.09-6.62-4.12-13.26-6.29-19.86-2.15-6.54-4.39-13.05-6.66-19.54-2.01-5.74-4.08-11.45-6.21-17.14-1.89-5.05-3.82-10.09-5.89-15.07-3.63-8.72-7.85-17.15-13.3-24.9-2.46-3.51-5.22-6.79-8.61-9.48-3.01-2.39-6.41-3.79-10.25-3.83-2.91-.03-5.56.95-8.01,2.59-3.93,2.62-6.61,6.32-9.03,10.24-3.34,5.4-5.93,11.16-7.98,17.17-.08.23-.24.43-.58,1.02-.72-2.51-1.26-4.67-1.94-6.78-1.96-6.07-3.92-12.15-5.98-18.19-1.73-5.12-3.96-10.04-6.44-14.84-2.09-4.02-4.33-7.96-7.71-11.09-3.1-2.86-6.65-4.66-10.94-4.04-1.65.24-3.34,1.04-4.73,2-2.04,1.42-3.53,3.47-4.62,5.74-2.33,4.87-3.51,10.08-4.31,15.35-1.05,6.86-1.67,13.78-2.73,20.63-.39,2.52-.69,5.03-.75,7.57,0,.41-.09.83-.18,1.55-1.99-2.47-3.25-4.98-4.21-7.65-2.28-6.34-3.02-12.89-2.63-19.6.36-6.34,1.7-12.53,2.73-18.77,1.11-6.73,2.19-13.47,2.91-20.24.69-6.47,1.05-12.99,1.3-19.5.23-5.95.11-11.92.16-17.87.06-6.33,0-12.67.25-19,.28-6.91,1.4-13.71,3.86-20.21.68-1.79,1.48-3.53,2.33-5.55,1.51,1.27,2.89,2.29,4.1,3.48,4.56,4.48,9.18,8.9,13.55,13.56,4.81,5.13,9.72,10.12,15.43,14.24,6.7,4.82,13.96,8.5,21.91,10.83,7.33,2.15,14.81,3.58,22.35,4.73,6.74,1.02,13.48,1.99,20.08,3.75,7.12,1.9,13.85,4.7,20.31,8.21,9.87,5.36,18.71,12.13,27.27,19.36,8.77,7.4,17.6,14.75,26.64,21.82,9.85,7.7,20.59,14.07,31.93,19.34,9.34,4.35,18.93,8.1,28.9,10.75,7.91,2.11,15.88,3.97,23.83,5.91,11.57,2.82,23.12,5.74,34.2,10.2,6.21,2.5,12.4,5.07,18.31,8.24.59.32,1.26.5,2.15.84.85,3.85,1.84,7.81,2.6,11.83,1.3,6.83,2.52,13.67,3.64,20.53,1.05,6.43,1.77,12.91,2.15,19.42Z"/>
</svg>