<svg width="253" height="253" viewBox="0 0 253 253" fill="none" xmlns="http://www.w3.org/2000/svg">
<path d="M232.772 191.336C232.8 192.656 232.759 193.975 232.671 195.291C232.633 195.826 232.419 196.361 232.217 196.868C232.016 197.372 231.566 197.624 231.04 197.712C229.907 197.904 228.767 198.068 227.633 198.272C226.056 198.556 224.482 198.867 222.848 199.179C222.914 199.4 222.955 199.579 223.024 199.749C225.058 204.906 225.499 210.211 224.523 215.655C224.252 217.169 223.884 218.652 223.317 220.088C222.832 221.306 222.161 222.402 221.277 223.372C220.804 223.888 220.288 224.288 219.58 224.518C219.003 224.707 218.481 225.069 217.857 225.182C217.08 225.321 216.305 225.488 215.528 225.636C209.618 226.769 203.734 228.009 197.94 229.656C193.161 231.016 188.517 232.757 183.92 234.631C182.5 235.21 181.087 235.808 179.676 236.41C179.16 236.63 178.662 236.728 178.08 236.665C177.532 236.605 176.953 236.787 176.389 236.866H175.813C175.678 236.828 175.539 236.768 175.401 236.759C173.848 236.649 172.479 236.047 171.204 235.197C168.82 233.614 167.171 231.397 165.829 228.923C164.46 226.397 163.761 223.671 163.437 220.834C163.408 220.579 163.374 220.324 163.336 220.006C163.115 220.066 162.958 220.097 162.807 220.148C158.742 221.517 154.678 222.887 150.61 224.257C150.541 224.279 150.465 224.294 150.408 224.332C149.782 224.751 149.146 224.644 148.478 224.423C145.383 223.4 142.282 222.393 139.184 221.382C137.087 220.696 134.994 220.012 132.897 219.326C132.736 219.276 132.553 219.254 132.424 219.162C131.823 218.744 131.294 218.939 130.699 219.228C126.971 221.058 123.036 222.396 119.207 223.986C111.657 227.118 104.082 230.191 96.4188 233.028C93.604 234.07 90.7201 234.895 87.7511 235.349C85.7707 235.654 83.8187 235.496 81.8289 235.116C79.4266 234.659 77.4809 233.406 75.5036 232.153C73.4981 230.884 71.5334 229.552 69.5468 228.249C69.3516 228.123 69.1438 228.016 68.8636 227.852C68.725 228.507 68.5928 229.086 68.4763 229.666C68.2181 230.956 67.9662 232.254 67.7081 233.544C67.6609 233.781 67.6136 234.017 67.5255 234.24C67.283 234.848 66.8328 235.207 66.1716 235.27C65.8883 235.298 65.5955 235.289 65.309 235.286C56.8176 235.21 48.3262 235.128 39.838 235.071C38.7392 235.065 37.8482 234.703 37.0548 233.957C31.8347 229.039 26.602 224.131 21.3756 219.219C21.2874 219.137 21.2024 219.052 21.1142 218.973C20.4405 218.372 20.3082 217.648 20.6231 216.82C21.1961 215.318 21.7943 213.826 22.3264 212.311C24.2375 206.858 26.0353 201.367 27.3419 195.728C27.7039 194.167 27.9401 192.574 28.1982 190.99C28.3871 189.835 28.9003 189.318 30.0779 189.375C31.1767 189.425 32.2723 189.576 33.368 189.696C36.6801 190.055 39.9923 190.423 43.3076 190.782C45.6438 191.037 47.9799 191.283 50.3161 191.535C50.8544 191.591 51.3267 191.796 51.7581 192.127C52.9009 193.002 54.0564 193.861 55.2056 194.727C55.4354 194.9 55.6653 195.07 55.8762 195.228C58.7602 194.519 61.4332 193.329 64.1251 192.193C65.4947 191.613 66.858 191.018 68.2433 190.486C68.7471 190.291 69.0115 189.992 69.1501 189.488C69.9655 186.529 70.8408 183.588 71.6153 180.619C73.3532 173.954 74.6724 167.2 75.7398 160.4C76.5206 155.422 77.0841 150.416 77.3581 145.382C77.8114 137.057 76.467 129.038 73.2651 121.334C72.097 118.522 71.0234 115.673 70.252 112.717C69.3956 109.423 68.9486 106.083 69.1721 102.673C69.2886 100.913 69.6286 99.1972 70.378 97.5914C72.0372 94.04 74.855 92.2045 78.7591 92.0187C79.9209 91.962 81.0543 92.1383 82.1815 92.3934C82.32 92.4249 82.4617 92.4406 82.6978 92.4784C82.7419 91.9872 82.7891 91.5212 82.8238 91.0553C83.274 84.9252 83.3779 78.7858 83.1481 72.6432C83.0001 68.6635 82.8678 64.6839 82.6789 60.7043C82.5971 58.9569 82.3861 57.2158 82.2382 55.4684C82.128 54.1397 82.8458 53.5069 84.1493 53.6958C87.0679 54.1114 89.9896 54.5207 92.9145 54.8796C96.5541 55.3267 100.2 55.7392 103.846 56.1296C106.969 56.4633 110.096 56.753 113.225 57.0426C116.783 57.3732 120.341 57.6849 123.898 58.006C125.617 58.1603 127.336 58.3146 129.056 58.4657C129.197 58.4783 129.339 58.4657 129.566 58.4657C129.669 57.9903 129.789 57.5117 129.877 57.0269C131.023 50.752 132.198 44.4866 133.296 38.2023C134.184 33.1207 134.786 27.9982 135.107 22.8474C135.145 22.2491 135.195 21.6509 135.23 21.0527C135.296 19.7839 135.856 18.8331 136.961 18.1719C139.074 16.9031 141.401 16.3458 143.812 16.2293C146.699 16.0908 149.558 16.393 152.332 17.2966C155.417 18.3041 157.823 20.1743 159.577 22.904C159.945 23.477 160.058 24.1004 160.005 24.7616C159.895 26.0997 159.765 27.4378 159.662 28.7759C159.435 31.6441 159.174 34.5123 159.007 37.3869C158.708 42.5377 158.487 47.6917 158.547 52.852C158.575 55.2732 158.714 57.6943 158.805 60.1155C158.811 60.2572 158.846 60.3989 158.878 60.6035C159.948 60.6633 161.015 60.7232 162.165 60.7861C162.391 59.8038 162.662 58.8593 162.826 57.899C163.947 51.2306 165.093 44.5653 166.122 37.8875C166.623 34.6414 166.975 31.3702 167.098 28.0832C167.145 26.7609 167.684 25.6873 168.732 24.8624C169.67 24.1225 170.725 23.6313 171.878 23.3354C174.333 22.7057 176.814 22.3121 179.352 22.6459C182.611 23.0709 185.671 24.0564 188.303 26.0934C188.999 26.6318 189.597 27.3024 190.236 27.9132C190.885 28.5334 191.014 29.308 190.919 30.1612C190.655 32.5194 190.349 34.8776 190.161 37.242C189.666 43.4634 189.367 49.691 189.597 55.9375C189.732 59.6306 189.931 63.3175 190.362 66.9886C190.4 67.2971 190.453 67.6025 190.507 67.9677C191.505 68.0212 192.481 68.0748 193.457 68.1283C195.182 68.2227 196.908 68.3078 198.627 68.4211C199.811 68.4998 200.217 68.9123 200.45 70.0551C200.812 71.8403 201.205 73.6192 201.602 75.4705C202.263 75.5177 202.924 75.5933 203.592 75.6059C209.347 75.7286 215.103 75.842 220.855 75.9585C222.7 75.9963 224.548 76.0309 226.393 76.075C226.654 76.0813 226.916 76.1474 227.177 76.1757C228.002 76.267 228.49 76.755 228.641 77.539C228.858 78.6693 229.053 79.8027 229.204 80.9425C229.847 85.8005 230.058 90.69 230.237 95.5827C230.385 99.6096 230.602 103.636 230.747 107.663C230.98 114.209 231.207 120.755 231.383 127.3C231.6 135.429 231.774 143.562 231.947 151.694C232.098 158.939 232.211 166.183 232.362 173.428C232.488 179.401 232.655 185.373 232.778 191.346L232.772 191.336ZM229.825 193.883C229.828 192.876 229.837 191.868 229.815 190.861C229.68 185.08 229.522 179.3 229.403 173.523C229.255 166.303 229.154 159.081 229 151.864C228.792 142.126 228.603 132.388 228.313 122.653C228.065 114.31 227.677 105.969 227.372 97.6261C227.205 93.1175 227.029 88.6121 226.616 84.1192C226.541 83.3038 226.428 82.4915 226.314 81.5123C226.138 81.7705 226.069 81.8618 226.009 81.9594C224.435 84.5663 222.876 87.1827 221.283 89.7802C218.928 93.6244 216.554 97.4561 214.177 101.288C212.143 104.568 210.071 107.827 208.075 111.133C207.549 112.005 206.939 112.477 205.915 112.506C204.924 112.534 204.294 112.093 204.171 111.114C204.064 110.28 203.992 109.445 203.891 108.611C203.4 104.565 203.031 100.497 202.38 96.4769C201.334 90.0415 200.1 83.6375 198.942 77.221C198.853 76.7393 198.731 76.267 198.62 75.7885C198.57 75.7885 198.517 75.7822 198.466 75.779C198.353 76.1065 198.239 76.4307 198.129 76.7582C194.512 87.5825 191.417 98.5675 188.101 109.486C187.859 110.28 187.598 110.991 186.987 111.596C186.543 112.037 186.121 112.345 185.485 112.232C184.849 112.118 184.49 111.693 184.304 111.101C184.175 110.689 184.065 110.273 183.939 109.858C179.736 95.7968 175.124 81.8744 169.822 68.185C169.765 68.0338 169.689 67.889 169.623 67.741C169.582 67.7442 169.545 67.7505 169.504 67.7536C169.293 70.2629 169.107 72.7723 168.864 75.2784C168.376 80.3159 167.898 85.3534 167.337 90.3815C166.799 95.2175 166.226 100.054 165.546 104.871C164.674 111.02 163.733 117.159 162.722 123.283C161.513 130.615 160.247 137.939 158.922 145.253C157.111 155.255 155.304 165.258 154.045 175.352C153.421 180.348 152.798 185.345 152.241 190.351C151.636 195.81 151.126 201.279 150.849 206.767C150.619 211.323 150.518 215.879 150.638 220.437C150.641 220.623 150.67 220.809 150.685 220.982C150.767 221.007 150.821 221.045 150.855 221.033C154.945 219.672 159.032 218.309 163.194 216.921C163.194 216.596 163.194 216.241 163.194 215.885C163.235 211.867 163.909 207.966 165.304 204.195C166.223 201.714 167.523 199.466 169.337 197.533C169.847 196.991 170.363 196.465 171.106 196.223C171.418 196.122 171.73 195.939 171.966 195.71C172.488 195.209 173.121 195.042 173.798 194.976C175.445 194.815 177.095 194.702 178.741 194.523C181.458 194.227 184.179 193.95 186.88 193.559C190.249 193.074 193.605 192.504 196.958 191.928C200.972 191.236 204.98 190.512 208.985 189.762C210.279 189.52 211.564 189.208 212.823 188.83C213.45 188.641 213.988 188.654 214.545 188.953C215.609 189.526 216.604 190.203 217.41 191.1C218.21 191.991 218.981 192.911 219.706 193.865C220.31 194.664 220.826 195.527 221.421 196.421C224.18 195.917 226.95 195.414 229.759 194.904C229.781 194.545 229.815 194.214 229.818 193.883H229.825ZM220.839 218.29C222.001 214.647 222.319 210.92 221.881 207.129C221.283 201.934 219.129 197.435 215.676 193.547C215.188 192.996 214.574 192.558 214.013 192.07C213.72 191.812 213.406 191.774 213.015 191.868C211.642 192.205 210.267 192.542 208.878 192.8C205.32 193.458 201.756 194.088 198.192 194.708C193.117 195.593 188.042 196.494 182.913 197.051C182.211 197.126 181.505 197.211 180.69 197.303C180.882 197.507 180.995 197.618 181.099 197.737C181.732 198.487 182.437 199.185 182.985 199.995C185.825 204.176 187.091 208.873 187.469 213.86C187.686 216.722 187.535 219.569 187.151 222.402C186.754 225.318 186.005 228.135 184.61 230.752C184.55 230.865 184.519 230.994 184.437 231.221C184.808 231.086 185.073 230.994 185.334 230.89C189.742 229.121 194.231 227.594 198.816 226.347C205.09 224.641 211.466 223.416 217.842 222.169C218.242 222.09 218.55 221.936 218.837 221.659C219.803 220.711 220.43 219.565 220.836 218.29H220.839ZM206.778 107.393C207.817 106.269 223.896 80.02 224.161 78.9873C216.866 78.8393 209.593 78.6913 202.222 78.5402C204.039 87.995 205.711 97.434 206.674 106.98C206.687 107.112 206.74 107.238 206.781 107.396L206.778 107.393ZM196.476 72.2654C196.577 71.9568 196.65 71.6388 196.757 71.2453C189.093 70.7163 181.499 70.8234 173.83 70.3826C178.294 82.1892 182.179 94.1124 185.967 106.228C186.112 105.784 186.216 105.475 186.31 105.16C188.183 98.9169 190.022 92.6641 191.943 86.4365C193.403 81.6949 194.965 76.988 196.476 72.2654ZM187.909 30.3879C187.963 29.9377 187.859 29.6134 187.538 29.2985C186.634 28.4233 185.627 27.6991 184.493 27.1544C180.529 25.2496 176.443 25.0009 172.249 26.276C171.604 26.4744 171.005 26.7672 170.489 27.2205C170.206 27.4724 170.051 27.7463 170.039 28.1462C169.903 31.6473 169.529 35.1326 168.994 38.5896C167.989 45.0785 166.865 51.5486 165.782 58.0249C165.625 58.9632 165.417 59.892 165.215 60.8963C166.437 60.89 167.602 60.9971 168.773 60.8522C169.113 60.8113 169.491 60.8522 169.812 60.975C170.262 61.145 170.473 61.5764 170.637 62.0109C171.207 63.5127 171.777 65.0113 172.35 66.5131C172.441 66.7556 172.542 66.9949 172.646 67.2562C177.57 67.8103 182.485 67.6875 187.44 67.889C187.44 67.6025 187.459 67.4325 187.44 67.2688C186.977 63.5756 186.776 59.8668 186.659 56.1516C186.534 52.172 186.537 48.1892 186.76 44.2127C186.911 41.5302 187.075 38.8509 187.292 36.1747C187.447 34.2416 187.683 32.3116 187.913 30.3847L187.909 30.3879ZM184.648 215.929C184.575 215.082 184.474 213.505 184.292 211.934C183.879 208.357 182.708 205.035 180.794 201.981C180.045 200.788 179.132 199.755 177.923 199.009C177.054 198.471 176.125 198.09 175.089 198.09C173.546 198.09 172.262 198.704 171.232 199.843C170.014 201.191 169.094 202.724 168.399 204.399C167.435 206.713 166.821 209.122 166.462 211.597C166.043 214.484 166.059 217.383 166.343 220.277C166.635 223.274 167.454 226.108 169.088 228.671C170.262 230.512 171.635 232.162 173.615 233.189C175.505 234.171 177.343 234.07 179.113 232.858C180.101 232.181 180.873 231.312 181.493 230.298C182.195 229.149 182.749 227.931 183.177 226.653C184.26 223.41 184.563 220.053 184.651 215.926L184.648 215.929ZM166.701 65.8866C166.755 65.2317 166.843 64.5674 166.708 63.8275C166.273 63.8275 165.867 63.837 165.464 63.8275C164.312 63.7929 163.163 63.7614 162.013 63.711C159.64 63.6071 157.269 63.5158 154.898 63.3804C151.45 63.1821 148.003 62.968 144.558 62.7161C141.401 62.4863 138.249 62.1998 135.094 61.9322C132.132 61.6834 129.169 61.4284 126.206 61.1702C123.149 60.9026 120.092 60.6287 117.035 60.3516C114.239 60.0998 111.446 59.8573 108.654 59.5771C105.244 59.2371 101.831 58.8939 98.4243 58.4941C94.4006 58.0218 90.3863 57.4865 86.3658 56.9828C86.0415 56.9419 85.714 56.9198 85.3772 56.8852C86.1863 69.1358 86.5987 81.3203 85.6038 93.3914C87.4803 94.4241 89.234 95.3875 91.0412 96.3824C91.0255 96.14 91.0097 95.9102 90.994 95.6835C90.9593 95.1797 90.8901 94.6791 90.8964 94.1785C90.9499 89.3362 92.2722 84.8591 94.8099 80.7441C96.1543 78.5622 97.9206 76.796 100.191 75.5586C100.304 75.4988 100.392 75.3918 100.509 75.2973C100.298 75.0643 100.118 74.8723 99.945 74.6771C99.224 73.8553 98.6667 72.9391 98.3393 71.8938C97.7285 69.9512 98.0496 68.2039 99.4035 66.658C100.361 65.5655 101.535 64.813 102.927 64.3942C104.548 63.9062 106.192 63.9314 107.844 64.1738C110.917 64.6241 113.685 65.8236 116.229 67.5836C118.08 68.865 119.547 70.4739 120.63 72.4448C120.709 72.5865 120.803 72.7187 120.901 72.8667C122.463 72.6306 123.993 72.7219 125.514 72.9549C129.591 73.5751 133.199 75.269 136.448 77.7783C137.345 78.4709 138.148 79.258 138.841 80.1554C139.527 81.0464 139.971 82.035 140.182 83.1432C140.447 84.5222 140.088 85.7124 139.156 86.7325C138.306 87.6581 137.257 88.25 136.039 88.568C134.307 89.0182 132.563 88.9553 130.828 88.6404C127.538 88.0391 124.475 86.8049 121.619 85.0858C119.503 83.8139 117.772 82.1452 116.855 79.7712C116.84 79.7335 116.786 79.7114 116.758 79.6894C115.464 79.7807 114.182 79.872 112.879 79.9633C113.087 80.5867 113.335 81.1849 113.49 81.8083C114.091 84.242 114.097 86.6947 113.723 89.1662C113.238 92.3587 112.123 95.3309 110.643 98.1771C109.161 101.033 107.36 103.646 104.825 105.683C104.778 105.721 104.762 105.796 104.715 105.881C104.831 105.954 104.926 106.023 105.03 106.077C106.579 106.87 107.951 107.912 109.249 109.058C110.842 110.472 111.994 112.188 112.709 114.193C113.121 115.349 113.238 116.542 112.973 117.735C112.366 120.481 110.593 122.149 107.964 122.958C106.056 123.544 104.123 123.494 102.202 123.053C97.8607 122.055 94.0259 120.062 90.7201 117.074C89.2844 115.774 88.132 114.256 87.2284 112.534C86.1769 110.535 85.9124 108.447 86.4004 106.259C86.4665 105.966 86.6145 105.661 86.8065 105.434C87.1119 105.069 87.4614 104.729 87.8392 104.439C88.9286 103.599 90.1943 103.17 91.5387 102.963C92.0456 102.884 92.5525 102.821 93.1129 102.742C92.8421 102.176 92.5714 101.694 92.3824 101.181C92.2124 100.715 91.9889 100.422 91.4568 100.327C91.1514 100.274 90.8743 100.013 90.5973 99.8237C89.7031 99.2192 88.8436 98.5612 87.9211 98.0039C85.459 96.521 82.8741 95.3309 79.9776 95.0003C76.7725 94.6351 74.0963 96.14 72.9219 99.131C72.3426 100.601 72.1065 102.135 72.0655 103.703C71.9837 106.923 72.5315 110.053 73.4257 113.135C74.2443 115.95 75.3745 118.648 76.445 121.372C79.2912 128.613 80.6104 136.116 80.3554 143.892C80.2074 148.429 79.7414 152.938 79.1401 157.431C78.2428 164.137 76.9897 170.783 75.4407 177.367C74.6252 180.843 73.6209 184.271 72.7015 187.725C72.6165 188.04 72.5441 188.358 72.4528 188.72C72.6196 188.685 72.6921 188.679 72.755 188.654C75.0219 187.675 77.2825 186.689 79.5525 185.716C79.902 185.568 80.0437 185.298 80.1602 184.97C81.2716 181.907 82.4239 178.856 83.5038 175.78C85.1127 171.189 86.6712 166.577 88.258 161.977C88.4028 161.558 88.4563 161.159 88.3902 160.715C88.2454 159.742 88.1163 158.766 88.047 157.787C87.7763 153.983 87.4772 150.18 87.2883 146.37C86.9482 139.56 87.0238 132.747 87.4079 125.94C87.4488 125.206 87.4142 124.467 87.4142 123.724C87.326 123.673 87.2473 123.616 87.1592 123.579C85.1253 122.65 83.211 121.51 81.3408 120.292C79.8894 119.344 78.5639 118.239 77.3423 117.011C76.763 116.429 76.2561 115.786 75.9601 115.012C75.6453 114.187 75.9381 113.39 76.6528 113.05C77.3738 112.707 78.1137 113.013 78.6111 113.759C78.9921 114.332 79.414 114.895 79.8989 115.377C81.0606 116.529 82.3893 117.474 83.7651 118.359C86.7877 120.304 90.062 121.718 93.4183 122.962C93.7552 123.084 94.0952 123.21 94.41 123.38C94.9642 123.676 95.2192 124.149 95.2318 124.791C95.257 126.06 95.2885 127.332 95.3861 128.594C95.4805 129.8 95.7985 130.959 96.4597 131.991C97.4924 133.607 99.1768 133.855 100.625 132.608C101.362 131.976 101.957 131.22 102.417 130.373C102.86 129.551 103.251 128.701 103.638 127.851C104.041 126.97 104.605 126.614 105.571 126.715C105.738 126.73 105.902 126.771 106.062 126.812C108.534 127.442 111.053 127.779 113.581 128.009C116.493 128.273 119.412 128.475 122.33 128.689C123.162 128.748 123.996 128.771 124.944 128.815C124.349 126.375 124.046 123.991 124.509 121.608C124.405 121.548 124.367 121.513 124.32 121.498C121.084 120.452 118.672 118.355 117 115.453C114.119 110.453 113.26 105.082 114.365 99.4175C114.837 97.0058 115.794 94.7925 117.378 92.8845C118.631 91.3796 120.117 90.1895 122.063 89.7109C124.207 89.1851 126.282 89.5629 128.234 90.4445C131.788 92.0502 134.235 94.7358 135.642 98.3848C137.131 102.242 137.405 106.218 136.857 110.277C136.741 111.127 136.527 111.961 136.35 112.836C136.486 112.861 136.599 112.893 136.713 112.899C139.704 113.038 142.44 114.004 145.006 115.49C145.497 115.774 145.972 116.136 146.347 116.555C146.939 117.213 146.8 118.148 146.126 118.648C145.569 119.061 144.927 119.02 144.263 118.557C142.531 117.348 140.642 116.495 138.564 116.095C136.306 115.66 134.074 115.692 131.93 116.636C130.063 117.458 128.612 118.711 127.85 120.67C127.176 122.401 127.104 124.183 127.374 125.984C127.834 129.044 129.018 131.84 130.661 134.438C132.166 136.818 133.98 138.962 135.9 141.012C137.575 142.803 139.404 144.428 141.41 145.841C143.101 147.031 144.832 148.149 146.832 148.766C147.011 148.823 147.187 148.914 147.345 149.024C147.874 149.39 148.097 150.01 147.927 150.602C147.745 151.235 147.216 151.644 146.539 151.638C146.303 151.638 146.054 151.603 145.837 151.521C145.119 151.254 144.414 150.958 143.702 150.674C143.516 150.599 143.327 150.533 143.091 150.441C143.066 150.69 143.047 150.854 143.038 151.017C142.836 154.175 142.663 157.339 142.436 160.494C141.98 166.86 141.158 173.189 140.355 179.517C139.549 185.871 138.41 192.171 137.015 198.424C135.903 203.408 134.798 208.395 134.143 213.467C134.014 214.462 133.917 215.457 133.797 216.511C138.45 218.029 143.038 219.528 147.638 221.029C147.638 220.299 147.647 219.654 147.638 219.011C147.55 213.224 147.726 207.444 148.223 201.682C148.755 195.518 149.398 189.362 150.093 183.213C150.663 178.188 151.331 173.17 152.061 168.164C152.776 163.277 153.598 158.404 154.435 153.536C155.235 148.883 156.135 144.245 156.963 139.595C157.732 135.275 158.481 130.952 159.199 126.623C159.92 122.272 160.609 117.912 161.28 113.551C161.856 109.807 162.42 106.061 162.933 102.308C163.38 99.0523 163.77 95.7905 164.151 92.5287C164.438 90.0509 164.677 87.5668 164.926 85.0858C165.244 81.9122 165.571 78.7386 165.864 75.5618C166.16 72.3378 166.424 69.1106 166.689 65.8803L166.701 65.8866ZM157.055 24.9285C157.086 24.6199 157.004 24.3869 156.834 24.1319C155.474 22.0854 153.582 20.7788 151.265 20.0484C148.692 19.2424 146.045 19.0094 143.375 19.214C141.87 19.3305 140.406 19.7084 139.024 20.3821C138.381 20.697 138.139 21.1189 138.104 21.8273C137.874 26.5972 137.352 31.3387 136.624 36.0582C135.497 43.3784 134.093 50.6513 132.695 57.9242C132.648 58.1761 132.62 58.4342 132.572 58.7522C140.324 59.4165 148 60.1564 155.798 60.4744C155.798 60.1627 155.808 59.9297 155.798 59.6968C155.758 58.9285 155.695 58.1635 155.666 57.3984C155.458 52.0492 155.616 46.7031 155.849 41.3602C156.088 35.8725 156.491 30.3973 157.052 24.9316L157.055 24.9285ZM138.362 171.646C138.513 170.494 138.649 169.36 138.413 168.164C137.758 164.867 137.55 161.511 137.393 158.158C137.383 157.982 137.349 157.809 137.314 157.56C133.788 160.264 129.84 161.826 125.617 162.67C121.395 163.514 117.136 163.873 112.819 162.78C112.869 163.044 112.898 163.227 112.939 163.407C113.531 166.12 114.154 168.831 114.714 171.552C115.801 176.813 116.581 182.124 117.101 187.47C117.243 188.94 117.246 189.013 118.672 189.441C122.579 190.615 126.527 190.902 130.52 189.916C132.087 189.529 133.592 188.994 134.924 188.04C135.286 187.779 135.696 187.583 136.206 187.281C136.25 187.045 136.322 186.721 136.366 186.39C137.037 181.475 137.711 176.561 138.359 171.643L138.362 171.646ZM135.828 85.5203C137.449 84.7836 137.626 84.0752 136.895 82.5608C136.719 82.1987 136.467 81.8587 136.184 81.5722C135.629 81.0117 135.079 80.4261 134.439 79.9727C133.388 79.2266 132.302 78.5087 131.168 77.8948C128.646 76.5315 125.935 75.779 122.771 75.6846C122.434 75.7097 121.805 75.694 121.197 75.8074C120.246 75.99 119.513 76.6543 119.525 77.7311C119.535 78.3733 119.623 78.9967 119.994 79.5099C120.485 80.1837 121.008 80.848 121.613 81.4179C122.683 82.4348 123.983 83.1212 125.321 83.7225C127.733 84.8088 130.189 85.7438 132.868 85.9233C133.892 85.9926 134.909 85.9359 135.831 85.5172L135.828 85.5203ZM136.552 153.533C136.678 153.168 136.521 152.869 136.155 152.724C135.822 152.592 135.488 152.444 135.138 152.374C133.12 151.981 131.096 151.612 129.021 151.757C128.35 151.801 127.683 151.836 127.015 151.912C123.256 152.337 119.601 153.174 116.172 154.811C115.202 155.271 114.277 155.831 113.373 156.417C112.898 156.722 112.479 157.144 112.107 157.576C111.509 158.275 111.594 158.829 112.378 159.295C112.866 159.584 113.408 159.808 113.949 159.981C115.224 160.384 116.544 160.46 117.869 160.478C118.058 160.478 118.244 160.485 118.433 160.485C118.593 160.485 118.757 160.478 118.918 160.472C119.242 160.463 119.563 160.45 119.887 160.434C121.987 160.331 124.068 160.063 126.115 159.543C129.103 158.785 131.971 157.724 134.515 155.932C135.079 155.539 135.592 155.054 136.058 154.547C136.303 154.279 136.426 153.886 136.549 153.53L136.552 153.533ZM135.519 191.226C134.653 191.585 133.917 191.938 133.149 192.199C127.84 194.003 122.538 193.792 117.261 192.061C116.613 191.846 116.012 191.459 115.429 191.091C115.158 190.921 114.897 190.641 114.78 190.348C114.548 189.75 114.337 189.126 114.255 188.493C113.924 185.975 113.66 183.446 113.339 180.924C113.178 179.668 112.958 178.418 112.747 177.064C110.373 178.047 108.077 179.001 105.722 179.977C105.763 180.147 105.779 180.241 105.807 180.329C106.821 183.302 107.788 186.293 108.865 189.24C109.768 191.714 110.776 194.154 111.793 196.588C112.243 197.668 111.978 198.893 111.087 199.573C110.423 200.08 109.752 200.602 109.022 201.002C105.316 203.033 101.349 204.245 97.146 204.651C91.6866 205.18 86.3815 204.481 81.2464 202.542C79.7383 201.975 78.3057 201.248 76.9865 200.316C76.2939 199.825 75.702 199.236 75.2927 198.48C74.9873 197.91 74.9589 197.347 75.3021 196.771C75.4627 196.506 75.5918 196.22 75.7114 195.933C76.4922 194.025 77.2668 192.114 78.0381 190.203C78.1042 190.039 78.142 189.866 78.2239 189.595C71.7381 192.249 65.3625 194.86 58.9145 197.501C59.1632 197.693 59.3647 197.857 59.5725 198.011C63.5553 201.012 67.5286 204.031 71.5366 207.003C72.3552 207.611 72.6606 208.325 72.5252 209.292C72.4969 209.481 72.478 209.673 72.4402 209.862C71.6562 213.788 70.866 217.711 70.082 221.64C69.8774 222.67 69.679 223.699 69.4869 224.694C71.587 226.057 73.6272 227.38 75.7461 228.756C75.7461 228.457 75.7524 228.271 75.7461 228.085C75.6799 226.111 76.2404 224.342 77.4809 222.802C77.9626 222.207 78.4632 221.621 79.0047 221.08C80.1161 219.975 81.4007 219.09 82.7514 218.3C85.9659 216.417 89.3505 214.865 92.8264 213.561C97.2909 211.886 101.812 210.362 106.311 208.788C113.505 206.269 120.737 203.858 127.752 200.86C129.424 200.146 131.049 199.318 132.686 198.521C133.177 198.282 133.633 197.976 134.188 197.652C134.616 195.596 135.063 193.452 135.526 191.232L135.519 191.226ZM133.646 111.378C134.279 108.857 134.326 106.303 133.999 103.737C133.706 101.429 133.057 99.2223 131.795 97.2546C130.189 94.7484 127.963 93.086 124.972 92.5413C123.316 92.2391 121.896 92.6421 120.646 93.7472C119.207 95.0223 118.278 96.6249 117.683 98.4289C116.896 100.809 116.707 103.256 116.953 105.743C117.255 108.79 118.086 111.668 119.733 114.275C120.914 116.142 122.475 117.59 124.538 118.45C124.837 118.573 125.148 118.667 125.46 118.777C127.148 115.648 129.802 113.967 133.117 113.173C133.312 112.521 133.504 111.955 133.649 111.378H133.646ZM133.133 202.425C133.186 202.18 133.221 201.928 133.274 201.629C133.117 201.676 133.048 201.688 132.985 201.717C130.057 202.976 127.182 204.371 124.194 205.473C117.091 208.092 109.944 210.605 102.798 213.102C98.7927 214.503 94.7595 215.816 90.8806 217.55C88.343 218.687 85.8022 219.82 83.4503 221.328C82.0461 222.229 80.7993 223.293 79.7729 224.625C78.9386 225.711 78.6206 226.92 78.6804 228.258C78.7308 229.442 79.2188 230.409 80.2074 231.051C80.8654 231.476 81.5864 231.829 82.32 232.109C84.2028 232.827 86.1485 232.669 88.0691 232.31C90.783 231.803 93.4214 231.013 96.0095 230.043C103.55 227.216 111.015 224.19 118.455 221.108C122.107 219.597 125.857 218.312 129.418 216.581C129.89 216.351 130.52 216.225 130.784 215.847C131.064 215.444 130.995 214.795 131.077 214.257C131.083 214.21 131.086 214.163 131.093 214.115C131.596 210.189 132.295 206.298 133.133 202.428V202.425ZM116.767 76.3709C116.981 75.4642 117.45 74.696 118.146 73.975C117.759 73.4051 117.419 72.8289 117.01 72.3094C115.376 70.2283 113.165 68.9469 110.763 67.9803C108.946 67.2499 107.048 66.8563 105.077 66.9823C103.629 67.0767 102.382 67.6057 101.466 68.7863C101.022 69.3562 100.886 69.9733 101.056 70.6785C101.261 71.5444 101.708 72.2685 102.313 72.9045C103.128 73.7609 104.057 74.4693 105.108 75.0202C107.401 76.2229 109.863 76.796 112.425 76.8936C113.663 76.9408 114.91 76.8086 116.15 76.7487C116.411 76.7361 116.688 76.7078 116.767 76.3709ZM110.13 91.7259C110.873 89.2292 111.264 86.6789 110.924 84.0563C110.741 82.6269 110.373 81.2856 109.406 80.1679C109.315 80.0609 109.227 79.935 109.183 79.8027C109.085 79.5068 108.871 79.4186 108.591 79.3619C107.127 79.066 105.688 78.6441 104.397 77.9074C103.541 77.4194 102.823 77.561 102.045 77.9263C101.699 78.09 101.359 78.2726 101.034 78.4741C99.7592 79.2738 98.6856 80.297 97.8293 81.5312C95.2885 85.1992 94.0543 89.3016 93.8276 93.6464C93.837 95.0821 94.0228 96.4076 94.3219 97.7205C94.6178 99.0145 95.0838 100.242 95.7828 101.376C96.1543 101.977 96.5888 102.506 97.3287 102.692C97.5081 102.736 97.7159 102.834 97.8167 102.975C98.1409 103.422 98.6195 103.542 99.1075 103.671C99.5011 103.775 99.9261 103.838 100.269 104.036C101.116 104.521 101.809 104.225 102.492 103.721C102.59 103.652 102.687 103.583 102.785 103.514C103.984 102.616 105.005 101.533 105.877 100.321C107.766 97.6922 109.208 94.8271 110.13 91.7259ZM107.867 119.851C109.863 118.91 110.64 116.998 109.844 114.943C109.261 113.441 108.339 112.181 107.127 111.111C104.614 108.882 101.648 107.534 98.481 106.565C96.8501 106.064 95.1877 105.692 93.4687 105.727C92.2156 105.755 90.9845 105.932 89.8794 106.605C89.5835 106.785 89.3977 107.002 89.2812 107.361C88.9758 108.302 89.0671 109.203 89.3851 110.107C89.9644 111.744 90.9279 113.135 92.14 114.357C94.6399 116.876 97.6529 118.554 100.987 119.684C102.262 120.119 103.569 120.408 104.926 120.433C105.943 120.433 106.935 120.292 107.863 119.851H107.867ZM108.975 197.545C108.852 197.24 108.751 197 108.657 196.758C107.624 194.126 106.513 191.522 105.581 188.852C102.977 181.409 100.587 173.894 98.3676 166.328C97.1177 162.075 95.8867 157.818 94.643 153.561C94.558 153.275 94.4478 152.998 94.2998 152.576C94.1802 152.938 94.1078 153.136 94.048 153.344C93.4466 155.34 92.8925 157.352 92.2376 159.329C91.1451 162.629 89.9959 165.906 88.8656 169.193C87.0332 174.517 85.3614 179.898 83.2582 185.128C81.7092 188.975 80.1507 192.816 78.5985 196.66C78.4821 196.944 78.3845 197.237 78.2648 197.558C78.4978 197.74 78.6867 197.929 78.9102 198.055C79.7446 198.524 80.5663 199.034 81.4384 199.415C84.653 200.826 88.0439 201.531 91.5355 201.789C97.2531 202.214 102.643 201.09 107.7 198.379C108.137 198.146 108.534 197.838 108.981 197.542L108.975 197.545ZM64.9469 232.332C66.4424 224.842 67.919 217.424 69.4177 209.915C61.641 209.305 53.9525 208.7 46.1979 208.089C44.2585 216.13 42.3411 224.071 40.3985 232.112C48.6222 232.187 56.7609 232.26 64.9469 232.332ZM65.4129 206.635C65.5797 206.647 65.7529 206.613 66.0709 206.594C65.6144 206.247 65.2901 206.005 64.9658 205.759C60.1361 202.123 55.3126 198.483 50.4766 194.859C50.1996 194.652 49.8564 194.475 49.5227 194.422C48.5529 194.274 47.5706 194.201 46.5915 194.094C43.2793 193.732 39.9671 193.37 36.655 193.011C35.7828 192.917 34.9107 192.832 34.0355 192.744C34.026 192.794 34.0134 192.844 34.0008 192.895C34.0638 192.967 34.1236 193.043 34.1897 193.112C37.8356 196.963 41.4847 200.807 45.1211 204.664C45.4076 204.966 45.7162 205.108 46.1192 205.136C47.5769 205.237 49.0346 205.356 50.4955 205.47C53.2913 205.69 56.0872 205.914 58.8861 206.131C61.0617 206.301 63.2373 206.468 65.4129 206.632V206.635ZM43.2541 207.806C43.3737 207.312 43.2919 206.981 42.9298 206.603C39.0541 202.542 35.2004 198.461 31.3372 194.387C31.1767 194.217 31.0035 194.063 30.7863 193.849C30.7138 194.139 30.6572 194.343 30.6099 194.551C30.3864 195.558 30.2006 196.572 29.9425 197.57C28.2801 204.006 26.2808 210.334 23.888 216.537C23.5763 217.343 23.5133 217.182 24.1808 217.809C28.5162 221.883 32.8548 225.954 37.1933 230.024C37.3476 230.169 37.5113 230.298 37.7412 230.494C37.8199 230.217 37.8703 230.059 37.9112 229.895C39.6901 222.531 41.4658 215.167 43.2572 207.806H43.2541Z" fill="black"/>
<path d="M229.812 190.86C229.834 191.868 229.828 192.875 229.821 193.883C229.821 194.216 229.783 194.547 229.761 194.903C226.953 195.416 224.182 195.917 221.424 196.42C220.832 195.529 220.316 194.664 219.708 193.864C218.984 192.91 218.213 191.987 217.413 191.099C216.604 190.199 215.609 189.525 214.548 188.952C213.991 188.653 213.452 188.641 212.826 188.829C211.567 189.207 210.282 189.522 208.988 189.761C204.983 190.511 200.975 191.235 196.961 191.928C193.608 192.507 190.252 193.074 186.883 193.558C184.178 193.949 181.458 194.226 178.744 194.522C177.101 194.701 175.448 194.815 173.801 194.975C173.124 195.041 172.491 195.208 171.969 195.709C171.732 195.935 171.421 196.118 171.109 196.222C170.363 196.464 169.85 196.99 169.34 197.532C167.523 199.465 166.223 201.713 165.306 204.194C163.912 207.969 163.238 211.867 163.197 215.884C163.194 216.24 163.197 216.596 163.197 216.92C159.035 218.308 154.948 219.672 150.858 221.032C150.82 221.044 150.77 221.007 150.688 220.981C150.672 220.808 150.644 220.622 150.641 220.437C150.521 215.878 150.622 211.322 150.852 206.766C151.132 201.278 151.639 195.81 152.244 190.35C152.801 185.347 153.424 180.348 154.048 175.351C155.307 165.257 157.114 155.254 158.925 145.252C160.247 137.938 161.516 130.615 162.725 123.282C163.735 117.155 164.677 111.016 165.549 104.87C166.232 100.053 166.802 95.2167 167.34 90.3807C167.901 85.3526 168.379 80.3151 168.867 75.2776C169.11 72.7715 169.296 70.2621 169.506 67.7528C169.547 67.7497 169.585 67.7434 169.626 67.7402C169.692 67.8882 169.765 68.033 169.824 68.1842C175.123 81.8736 179.739 95.796 183.942 109.857C184.065 110.269 184.178 110.688 184.307 111.101C184.493 111.693 184.852 112.114 185.488 112.231C186.121 112.344 186.543 112.033 186.99 111.595C187.601 110.99 187.862 110.279 188.104 109.485C191.42 98.5698 194.515 87.5849 198.132 76.7574C198.242 76.4299 198.356 76.1025 198.469 75.7782C198.519 75.7782 198.573 75.7845 198.623 75.7877C198.73 76.2662 198.856 76.7385 198.944 77.2202C200.103 83.6367 201.337 90.0407 202.383 96.4761C203.034 100.497 203.403 104.564 203.894 108.61C203.995 109.445 204.07 110.279 204.174 111.113C204.297 112.092 204.93 112.533 205.918 112.505C206.942 112.476 207.555 112.004 208.078 111.132C210.071 107.826 212.146 104.571 214.18 101.287C216.557 97.4553 218.928 93.6236 221.286 89.7794C222.876 87.1819 224.437 84.5655 226.012 81.9586C226.071 81.861 226.141 81.7666 226.317 81.5115C226.43 82.4907 226.544 83.303 226.619 84.1184C227.032 88.6113 227.208 93.1167 227.375 97.6253C227.683 105.966 228.071 114.306 228.316 122.652C228.606 132.387 228.795 142.125 229.003 151.864C229.157 159.083 229.258 166.302 229.406 173.522C229.525 179.302 229.683 185.083 229.818 190.86H229.812ZM222.419 123.896C222.432 123.657 222.441 123.414 222.404 123.178C222.259 122.265 221.49 121.717 220.581 121.868C220.344 121.909 220.115 121.982 219.885 122.045C210.518 124.585 201.155 127.123 191.791 129.664C191.306 129.796 190.812 129.909 190.34 130.07C189.502 130.357 189.153 130.98 189.272 131.861C189.313 132.167 189.316 132.482 189.291 132.79C188.983 136.59 188.662 140.391 188.353 144.191C188.041 148.016 187.739 151.842 187.431 155.664C187.1 159.75 186.763 163.837 186.433 167.924C186.414 168.138 186.401 168.358 186.423 168.569C186.502 169.388 187.094 169.936 187.912 169.92C188.243 169.914 188.577 169.835 188.898 169.75C198.91 167.124 208.919 164.492 218.928 161.86C220.108 161.551 220.464 161.126 220.536 159.892C220.656 157.833 220.754 155.774 220.861 153.712C221.069 149.713 221.276 145.715 221.484 141.713H221.494C221.582 139.915 221.664 138.121 221.761 136.323C221.978 132.179 222.205 128.036 222.426 123.893L222.419 123.896Z" fill="#DBA2A2"/>
<path d="M222.404 123.179C222.441 123.415 222.432 123.658 222.419 123.897C222.199 128.04 221.975 132.184 221.755 136.327C221.661 138.122 221.576 139.919 221.487 141.717H221.478C221.27 145.719 221.062 149.717 220.855 153.716C220.748 155.775 220.653 157.837 220.53 159.896C220.458 161.131 220.102 161.556 218.921 161.864C208.913 164.496 198.904 167.128 188.892 169.754C188.57 169.839 188.234 169.915 187.906 169.924C187.088 169.94 186.496 169.392 186.417 168.574C186.395 168.363 186.411 168.142 186.426 167.928C186.757 163.841 187.091 159.755 187.424 155.668C187.733 151.843 188.035 148.017 188.347 144.195C188.655 140.395 188.977 136.595 189.285 132.795C189.31 132.489 189.307 132.171 189.266 131.866C189.147 130.987 189.496 130.361 190.334 130.074C190.809 129.914 191.3 129.797 191.785 129.668C201.152 127.127 210.515 124.59 219.879 122.049C220.108 121.986 220.341 121.914 220.574 121.873C221.484 121.721 222.253 122.269 222.397 123.182L222.404 123.179ZM217.747 156.77C218.298 146.242 218.843 135.789 219.397 125.235C217.464 125.758 215.622 126.255 213.815 126.743C213.815 127.31 213.837 127.763 213.815 128.214C213.682 130.657 213.534 133.1 213.399 135.54C213.078 141.261 212.766 146.985 212.433 152.708C212.407 153.127 212.524 153.363 212.867 153.587C214.372 154.572 215.861 155.58 217.357 156.578C217.448 156.641 217.558 156.676 217.757 156.77H217.747ZM216.305 159.509C216.132 159.352 216.056 159.264 215.965 159.204C214.375 158.136 212.773 157.079 211.189 155.999C210.874 155.788 210.575 155.8 210.235 155.87C204.357 157.009 198.479 158.146 192.6 159.282C191.76 159.446 190.922 159.619 190.041 159.796C189.858 162.034 189.679 164.222 189.487 166.555C198.491 164.191 207.348 161.864 216.308 159.512L216.305 159.509Z" fill="black"/>
<path d="M221.881 207.13C222.319 210.921 222.001 214.645 220.839 218.291C220.433 219.563 219.803 220.712 218.84 221.66C218.556 221.94 218.244 222.095 217.845 222.17C211.472 223.42 205.093 224.645 198.819 226.348C194.234 227.595 189.745 229.122 185.337 230.891C185.076 230.995 184.811 231.086 184.44 231.222C184.521 230.995 184.553 230.866 184.613 230.753C186.011 228.136 186.757 225.319 187.154 222.403C187.538 219.569 187.689 216.723 187.472 213.861C187.094 208.874 185.825 204.177 182.988 199.996C182.44 199.19 181.735 198.487 181.102 197.738C180.998 197.618 180.885 197.508 180.693 197.304C181.508 197.209 182.211 197.127 182.916 197.052C188.041 196.495 193.117 195.591 198.195 194.709C201.759 194.089 205.323 193.459 208.881 192.801C210.269 192.543 211.645 192.206 213.018 191.869C213.408 191.775 213.723 191.813 214.016 192.071C214.573 192.559 215.19 193 215.678 193.548C219.132 197.436 221.286 201.935 221.884 207.13H221.881Z" fill="#7A8125"/>
<path d="M224.161 78.9873C223.896 80.02 207.817 106.269 206.778 107.393C206.737 107.238 206.687 107.109 206.671 106.977C205.708 97.4309 204.036 87.995 202.219 78.5371C209.59 78.6882 216.863 78.8331 224.158 78.9842L224.161 78.9873Z" fill="#FFC2C2"/>
<path d="M219.397 125.234C218.846 135.788 218.298 146.241 217.747 156.769C217.549 156.675 217.442 156.64 217.347 156.577C215.852 155.579 214.363 154.572 212.858 153.586C212.518 153.363 212.401 153.126 212.423 152.708C212.76 146.987 213.072 141.263 213.39 135.539C213.525 133.096 213.673 130.656 213.805 128.213C213.831 127.763 213.805 127.309 213.805 126.742C215.613 126.254 217.454 125.757 219.388 125.234H219.397Z" fill="#FFC2C2"/>
<path d="M215.965 159.2C216.059 159.263 216.135 159.351 216.305 159.505C207.345 161.857 198.488 164.184 189.483 166.548C189.675 164.218 189.852 162.027 190.038 159.788C190.919 159.612 191.757 159.439 192.597 159.275C198.475 158.135 204.353 157.002 210.232 155.862C210.572 155.796 210.871 155.78 211.186 155.991C212.769 157.068 214.372 158.126 215.962 159.196L215.965 159.2Z" fill="#FFC2C2"/>
<path d="M196.757 71.2435C196.65 71.6371 196.574 71.9551 196.476 72.2636C194.965 76.9863 193.404 81.6964 191.943 86.4348C190.025 92.6624 188.187 98.9184 186.31 105.159C186.216 105.47 186.112 105.782 185.967 106.226C182.179 94.1107 178.294 82.1844 173.83 70.3809C181.499 70.8216 189.093 70.7146 196.757 71.2435Z" fill="#FFC2C2"/>
<path d="M187.538 29.3018C187.859 29.6134 187.963 29.9377 187.909 30.3911C187.68 32.318 187.443 34.248 187.289 36.1811C187.075 38.8573 186.908 41.5366 186.757 44.2191C186.53 48.1956 186.53 52.1784 186.656 56.158C186.773 59.8732 186.974 63.5852 187.437 67.2752C187.459 67.4389 187.437 67.6089 187.437 67.8954C182.481 67.6939 177.567 67.8167 172.643 67.2626C172.539 67.0012 172.438 66.762 172.347 66.5195C171.774 65.0177 171.204 63.5191 170.634 62.0173C170.47 61.5796 170.262 61.1483 169.809 60.9814C169.488 60.8618 169.11 60.8177 168.77 60.8586C167.599 61.0035 166.437 60.8964 165.212 60.9027C165.411 59.9015 165.622 58.9696 165.779 58.0313C166.862 51.555 167.986 45.0849 168.99 38.596C169.526 35.139 169.903 31.6568 170.036 28.1526C170.051 27.7527 170.203 27.4757 170.486 27.2269C171.002 26.7736 171.597 26.4776 172.246 26.2824C176.44 25.0041 180.526 25.256 184.49 27.1608C185.624 27.7055 186.631 28.4296 187.535 29.3049L187.538 29.3018Z" fill="#F96969"/>
<path d="M184.292 211.932C184.474 213.503 184.575 215.081 184.648 215.928C184.559 220.052 184.254 223.408 183.174 226.655C182.746 227.933 182.192 229.151 181.49 230.3C180.869 231.314 180.095 232.183 179.11 232.86C177.34 234.072 175.501 234.173 173.612 233.191C171.632 232.164 170.259 230.518 169.085 228.673C167.451 226.11 166.632 223.276 166.339 220.279C166.056 217.385 166.04 214.486 166.459 211.599C166.818 209.124 167.432 206.715 168.395 204.401C169.091 202.726 170.01 201.193 171.229 199.845C172.258 198.706 173.543 198.095 175.086 198.092C176.122 198.092 177.05 198.473 177.919 199.011C179.128 199.757 180.041 200.79 180.791 201.983C182.705 205.037 183.876 208.356 184.289 211.936L184.292 211.932Z" fill="#B4BD57"/>
<path d="M166.708 63.8266C166.843 64.5665 166.755 65.2309 166.702 65.8857C166.437 69.1129 166.173 72.34 165.877 75.5672C165.584 78.744 165.256 81.9176 164.938 85.0913C164.69 87.5722 164.454 90.0563 164.164 92.5342C163.783 95.796 163.393 99.0609 162.945 102.313C162.429 106.066 161.869 109.813 161.293 113.556C160.622 117.917 159.932 122.274 159.211 126.629C158.494 130.958 157.744 135.281 156.976 139.6C156.148 144.251 155.248 148.888 154.448 153.542C153.61 158.409 152.792 163.283 152.074 168.169C151.34 173.175 150.676 178.194 150.106 183.219C149.41 189.368 148.768 195.523 148.236 201.688C147.738 207.449 147.562 213.233 147.65 219.017C147.66 219.659 147.65 220.304 147.65 221.035C143.05 219.533 138.463 218.037 133.81 216.517C133.929 215.465 134.027 214.467 134.156 213.472C134.811 208.4 135.916 203.413 137.027 198.429C138.422 192.176 139.559 185.876 140.368 179.523C141.171 173.194 141.993 166.866 142.449 160.5C142.676 157.342 142.849 154.181 143.05 151.023C143.06 150.859 143.082 150.695 143.104 150.447C143.34 150.538 143.529 150.604 143.715 150.68C144.426 150.963 145.132 151.259 145.849 151.527C146.067 151.608 146.315 151.643 146.552 151.643C147.232 151.646 147.757 151.24 147.94 150.607C148.11 150.015 147.89 149.395 147.358 149.03C147.2 148.923 147.027 148.828 146.844 148.772C144.845 148.155 143.113 147.037 141.423 145.847C139.414 144.433 137.588 142.805 135.913 141.017C133.992 138.964 132.179 136.823 130.674 134.443C129.027 131.843 127.847 129.05 127.387 125.99C127.116 124.189 127.189 122.407 127.862 120.675C128.624 118.713 130.073 117.464 131.943 116.642C134.087 115.697 136.319 115.666 138.577 116.1C140.654 116.5 142.544 117.353 144.275 118.562C144.94 119.025 145.582 119.066 146.139 118.654C146.816 118.153 146.951 117.221 146.359 116.56C145.982 116.141 145.506 115.779 145.018 115.496C142.452 114.01 139.716 113.04 136.725 112.905C136.612 112.898 136.499 112.867 136.363 112.842C136.539 111.97 136.754 111.132 136.87 110.282C137.415 106.224 137.144 102.247 135.655 98.3903C134.247 94.7444 131.801 92.0556 128.246 90.4499C126.294 89.5683 124.22 89.1905 122.076 89.7163C120.13 90.1949 118.644 91.3818 117.391 92.8899C115.807 94.7948 114.847 97.0081 114.378 99.423C113.272 105.087 114.132 110.458 117.013 115.458C118.685 118.361 121.096 120.455 124.333 121.503C124.377 121.519 124.415 121.55 124.522 121.613C124.059 123.997 124.361 126.38 124.956 128.82C124.009 128.776 123.174 128.757 122.343 128.694C119.425 128.48 116.506 128.278 113.594 128.014C111.062 127.784 108.543 127.447 106.075 126.818C105.911 126.777 105.748 126.736 105.584 126.72C104.621 126.622 104.054 126.975 103.651 127.857C103.264 128.707 102.873 129.557 102.429 130.378C101.973 131.229 101.374 131.981 100.638 132.614C99.1895 133.861 97.505 133.612 96.4723 131.997C95.8112 130.964 95.4932 129.805 95.3987 128.6C95.298 127.337 95.2696 126.065 95.2445 124.796C95.2319 124.154 94.9768 123.682 94.4227 123.386C94.1079 123.219 93.7678 123.093 93.4309 122.967C90.0747 121.723 86.8003 120.31 83.7778 118.364C82.4019 117.479 81.0733 116.535 79.9115 115.382C79.4235 114.901 79.0016 114.337 78.6238 113.764C78.1264 113.015 77.3865 112.713 76.6655 113.056C75.9508 113.396 75.6548 114.192 75.9728 115.017C76.2688 115.792 76.7757 116.434 77.355 117.016C78.5766 118.244 79.9021 119.349 81.3535 120.297C83.2237 121.519 85.1379 122.659 87.1718 123.584C87.2568 123.625 87.3387 123.679 87.4269 123.729C87.4269 124.472 87.4646 125.212 87.4206 125.945C87.0396 132.756 86.964 139.566 87.3009 146.376C87.4898 150.185 87.7889 153.989 88.0597 157.792C88.129 158.771 88.2581 159.75 88.4029 160.72C88.469 161.167 88.4155 161.567 88.2706 161.983C86.6807 166.582 85.1253 171.195 83.5165 175.785C82.4366 178.861 81.2842 181.912 80.1728 184.976C80.0532 185.303 79.9115 185.574 79.5652 185.722C77.2952 186.692 75.0346 187.68 72.7677 188.659C72.7047 188.688 72.6323 188.691 72.4655 188.725C72.5568 188.363 72.6323 188.045 72.7142 187.731C73.6335 184.28 74.6347 180.848 75.4533 177.372C77.0024 170.789 78.2523 164.142 79.1527 157.436C79.7541 152.94 80.2201 148.432 80.368 143.898C80.6231 136.121 79.3039 128.615 76.4577 121.377C75.3872 118.657 74.2569 115.959 73.4383 113.141C72.5442 110.058 71.9963 106.929 72.0782 103.708C72.1191 102.14 72.3553 100.607 72.9346 99.1365C74.1121 96.1454 76.7883 94.6405 79.9902 95.0057C82.8837 95.3363 85.4717 96.5264 87.9338 98.0093C88.8563 98.5666 89.7158 99.2215 90.6099 99.8291C90.887 100.018 91.1609 100.279 91.4695 100.333C92.0016 100.427 92.2251 100.72 92.3951 101.186C92.5809 101.699 92.8548 102.178 93.1255 102.748C92.5683 102.826 92.0582 102.889 91.5513 102.968C90.2069 103.176 88.9413 103.604 87.8519 104.445C87.4741 104.734 87.1246 105.074 86.8192 105.44C86.6272 105.669 86.4792 105.972 86.4131 106.265C85.9251 108.453 86.1895 110.54 87.2411 112.539C88.1447 114.258 89.297 115.779 90.7327 117.079C94.0386 120.067 97.8734 122.06 102.215 123.058C104.136 123.499 106.069 123.55 107.977 122.964C110.609 122.155 112.378 120.486 112.986 117.741C113.25 116.544 113.134 115.354 112.721 114.199C112.007 112.193 110.854 110.477 109.261 109.064C107.964 107.914 106.591 106.872 105.042 106.082C104.939 106.032 104.844 105.959 104.728 105.887C104.772 105.802 104.791 105.726 104.838 105.688C107.375 103.648 109.176 101.038 110.656 98.1825C112.136 95.3331 113.25 92.3642 113.735 89.1716C114.11 86.7001 114.104 84.2475 113.502 81.8137C113.348 81.1935 113.102 80.5953 112.891 79.9687C114.195 79.8774 115.476 79.7861 116.77 79.6948C116.799 79.7169 116.852 79.7389 116.868 79.7767C117.784 82.1506 119.516 83.8161 121.632 85.0913C124.487 86.8103 127.551 88.0445 130.841 88.6458C132.576 88.9638 134.317 89.0268 136.051 88.5734C137.27 88.2554 138.318 87.6635 139.168 86.7379C140.103 85.7178 140.459 84.5277 140.195 83.1487C139.984 82.0404 139.54 81.0518 138.854 80.1608C138.161 79.2635 137.358 78.4764 136.461 77.7837C133.212 75.2775 129.603 73.5805 125.526 72.9603C124.006 72.7305 122.475 72.636 120.914 72.8721C120.816 72.7242 120.722 72.5919 120.643 72.4502C119.56 70.4825 118.093 68.8705 116.241 67.589C113.697 65.8291 110.93 64.6295 107.857 64.1793C106.204 63.9368 104.561 63.9117 102.939 64.3997C101.548 64.8184 100.376 65.5709 99.4161 66.6634C98.0623 68.2061 97.7412 69.9567 98.352 71.8993C98.6826 72.9477 99.2398 73.8607 99.9577 74.6825C100.131 74.8808 100.31 75.0729 100.521 75.3027C100.408 75.3972 100.317 75.5042 100.203 75.5641C97.9332 76.7982 96.1701 78.5677 94.8226 80.7495C92.2849 84.8646 90.9657 89.3448 90.909 94.184C90.9027 94.6846 90.972 95.1883 91.0066 95.6889C91.0224 95.9188 91.0381 96.1454 91.0539 96.3879C89.2467 95.393 87.4898 94.4264 85.6165 93.3969C86.6114 81.3226 86.199 69.1412 85.3898 56.8906C85.7267 56.9221 86.0541 56.9473 86.3784 56.9882C90.399 57.4951 94.4133 58.0272 98.437 58.4995C101.844 58.8993 105.253 59.2425 108.666 59.5825C111.459 59.8628 114.252 60.1052 117.047 60.3571C120.105 60.6341 123.162 60.908 126.219 61.1757C129.182 61.4338 132.144 61.6889 135.107 61.9376C138.262 62.2052 141.413 62.4917 144.571 62.7215C148.016 62.9734 151.46 63.1844 154.911 63.3859C157.281 63.5244 159.652 63.6157 162.026 63.7165C163.175 63.7668 164.328 63.7983 165.477 63.8329C165.88 63.8455 166.286 63.8329 166.72 63.8329L166.708 63.8266Z" fill="#FFC2C2"/>
<path d="M156.834 24.1282C157.004 24.3833 157.086 24.6163 157.055 24.9248C156.494 30.3905 156.091 35.8656 155.852 41.3534C155.619 46.6963 155.461 52.0424 155.669 57.3916C155.698 58.1566 155.761 58.9217 155.801 59.6899C155.814 59.9229 155.801 60.1591 155.801 60.4676C148.003 60.1528 140.327 59.4097 132.575 58.7454C132.619 58.4243 132.648 58.1692 132.698 57.9174C134.096 50.6445 135.5 43.3715 136.627 36.0514C137.355 31.3319 137.877 26.5903 138.107 21.8204C138.142 21.112 138.381 20.6901 139.027 20.3753C140.409 19.7015 141.873 19.3237 143.378 19.2072C146.048 19.0026 148.692 19.2324 151.268 20.0416C153.585 20.7689 155.48 22.0786 156.837 24.1251L156.834 24.1282Z" fill="#F96969"/>
<path d="M138.413 168.163C138.649 169.36 138.514 170.493 138.362 171.645C137.714 176.563 137.037 181.478 136.369 186.393C136.325 186.723 136.253 187.051 136.209 187.284C135.696 187.583 135.29 187.781 134.927 188.043C133.596 188.993 132.091 189.532 130.523 189.919C126.531 190.905 122.582 190.618 118.675 189.444C117.249 189.015 117.246 188.943 117.104 187.473C116.585 182.127 115.801 176.815 114.718 171.554C114.157 168.834 113.534 166.123 112.942 163.409C112.901 163.227 112.873 163.044 112.822 162.783C117.142 163.875 121.399 163.516 125.621 162.672C129.843 161.829 133.791 160.267 137.317 157.562C137.352 157.811 137.386 157.988 137.396 158.161C137.556 161.514 137.761 164.87 138.416 168.166L138.413 168.163Z" fill="#7A8125"/>
<path d="M136.895 82.5606C137.629 84.0718 137.449 84.7834 135.828 85.5201C134.905 85.9388 133.888 85.9955 132.865 85.9262C130.186 85.7468 127.73 84.8117 125.318 83.7255C123.98 83.1241 122.68 82.4378 121.61 81.4208C121.008 80.8509 120.482 80.1835 119.991 79.5129C119.62 79.0028 119.532 78.3763 119.522 77.734C119.51 76.6541 120.243 75.9898 121.194 75.8103C121.802 75.6938 122.434 75.7095 122.768 75.6875C125.935 75.7851 128.643 76.5344 131.165 77.8977C132.298 78.5117 133.385 79.2295 134.436 79.9757C135.075 80.4291 135.626 81.0147 136.181 81.5751C136.464 81.8616 136.716 82.2016 136.892 82.5637L136.895 82.5606Z" fill="#F96969"/>
<path d="M136.155 152.725C136.521 152.87 136.678 153.169 136.552 153.534C136.429 153.89 136.306 154.287 136.061 154.551C135.595 155.058 135.082 155.54 134.518 155.937C131.974 157.725 129.106 158.786 126.118 159.548C124.072 160.071 121.99 160.335 119.89 160.439C119.569 160.455 119.245 160.467 118.921 160.477C118.76 160.48 118.596 160.483 118.436 160.486C118.247 160.486 118.061 160.486 117.872 160.48C116.55 160.461 115.231 160.385 113.952 159.982C113.411 159.812 112.866 159.589 112.381 159.296C111.601 158.83 111.516 158.276 112.111 157.577C112.479 157.143 112.901 156.724 113.376 156.418C114.277 155.833 115.206 155.272 116.175 154.813C119.607 153.176 123.262 152.338 127.018 151.913C127.683 151.837 128.353 151.803 129.024 151.759C131.096 151.614 133.123 151.982 135.141 152.376C135.491 152.442 135.825 152.59 136.158 152.725H136.155Z" fill="#B4BD57"/>
<path d="M133.152 192.203C133.92 191.942 134.653 191.589 135.522 191.231C135.06 193.453 134.613 195.594 134.184 197.65C133.63 197.974 133.174 198.28 132.683 198.519C131.045 199.316 129.421 200.144 127.749 200.858C120.734 203.856 113.502 206.271 106.308 208.786C101.809 210.364 97.2877 211.887 92.8232 213.559C89.3442 214.863 85.9628 216.415 82.7482 218.298C81.3975 219.085 80.113 219.973 79.0016 221.078C78.46 221.616 77.9563 222.202 77.4777 222.8C76.2372 224.34 75.6768 226.109 75.7429 228.083C75.7492 228.269 75.7429 228.451 75.7429 228.754C73.6209 227.378 71.5807 226.052 69.4838 224.692C69.679 223.697 69.8742 222.668 70.0789 221.638C70.8628 217.712 71.6531 213.786 72.4371 209.86C72.4748 209.671 72.4969 209.482 72.5221 209.29C72.6575 208.327 72.3521 207.609 71.5335 207.001C67.5286 204.029 63.5553 201.01 59.5694 198.009C59.3647 197.852 59.1601 197.691 58.9113 197.499C65.3594 194.861 71.735 192.251 78.2208 189.593C78.1389 189.864 78.1011 190.037 78.035 190.201C77.2636 192.112 76.4891 194.023 75.7083 195.931C75.5918 196.218 75.4596 196.504 75.299 196.769C74.9527 197.342 74.981 197.908 75.2896 198.478C75.6957 199.234 76.2908 199.823 76.9834 200.314C78.3026 201.246 79.7352 201.973 81.2433 202.54C86.3784 204.476 91.6835 205.178 97.1429 204.649C101.346 204.243 105.313 203.028 109.019 201C109.749 200.6 110.42 200.078 111.084 199.571C111.975 198.891 112.24 197.666 111.789 196.586C110.776 194.152 109.768 191.712 108.861 189.238C107.785 186.287 106.818 183.3 105.804 180.327C105.776 180.239 105.76 180.148 105.719 179.975C108.074 178.999 110.37 178.048 112.743 177.062C112.954 178.416 113.178 179.666 113.335 180.922C113.653 183.444 113.918 185.973 114.252 188.491C114.337 189.124 114.544 189.751 114.777 190.346C114.894 190.635 115.155 190.919 115.426 191.089C116.012 191.457 116.61 191.844 117.258 192.059C122.535 193.79 127.837 194.001 133.145 192.197L133.152 192.203Z" fill="#F96969"/>
<path d="M133.998 103.74C134.326 106.303 134.279 108.86 133.646 111.382C133.501 111.961 133.306 112.528 133.114 113.176C129.801 113.97 127.147 115.651 125.457 118.78C125.148 118.67 124.836 118.579 124.534 118.453C122.472 117.593 120.91 116.145 119.73 114.278C118.083 111.671 117.255 108.794 116.95 105.746C116.701 103.262 116.893 100.815 117.68 98.432C118.275 96.628 119.204 95.0254 120.643 93.7503C121.893 92.6452 123.313 92.2422 124.969 92.5444C127.96 93.0923 130.186 94.7547 131.791 97.2577C133.054 99.2254 133.702 101.433 133.995 103.74H133.998ZM129.32 109.146C130.104 105.897 129.956 102.67 128.822 99.5246C128.52 98.6808 128.004 97.9031 127.5 97.1506C127.217 96.7224 126.798 96.3635 126.382 96.0455C124.663 94.72 122.658 94.9499 121.282 96.6154C120.586 97.4592 120.129 98.432 119.856 99.4899C119.5 100.869 119.345 102.27 119.32 103.951C119.339 104.266 119.349 104.842 119.408 105.412C119.616 107.421 120.18 109.31 121.364 110.975C122.012 111.888 122.891 112.487 123.955 112.811C125.803 113.378 127.632 112.685 128.58 111.001C128.904 110.421 129.169 109.785 129.326 109.14L129.32 109.146Z" fill="#F5DEBB"/>
<path d="M133.277 201.626C133.224 201.925 133.189 202.177 133.136 202.423C132.301 206.292 131.599 210.184 131.096 214.11C131.089 214.157 131.086 214.204 131.08 214.251C130.998 214.793 131.067 215.438 130.787 215.841C130.523 216.219 129.893 216.345 129.421 216.575C125.86 218.31 122.11 219.591 118.458 221.102C111.018 224.185 103.553 227.21 96.0125 230.038C93.4245 231.007 90.7861 231.798 88.0721 232.305C86.1516 232.664 84.2058 232.821 82.3231 232.103C81.5895 231.823 80.8685 231.47 80.2104 231.045C79.2218 230.406 78.7338 229.436 78.6835 228.253C78.6268 226.915 78.9416 225.702 79.776 224.619C80.7992 223.284 82.0491 222.223 83.4533 221.323C85.8052 219.815 88.346 218.681 90.8837 217.545C94.7626 215.807 98.7957 214.494 102.801 213.096C109.951 210.599 117.094 208.087 124.197 205.467C127.182 204.365 130.06 202.971 132.988 201.711C133.051 201.683 133.12 201.67 133.277 201.623V201.626Z" fill="#F96969"/>
<path d="M128.822 99.5238C129.956 102.669 130.107 105.896 129.32 109.145C129.165 109.788 128.901 110.427 128.574 111.006C127.626 112.691 125.797 113.383 123.948 112.817C122.884 112.492 122.006 111.894 121.357 110.981C120.173 109.315 119.613 107.426 119.402 105.418C119.342 104.845 119.333 104.269 119.314 103.957C119.342 102.276 119.493 100.874 119.849 99.4955C120.123 98.4376 120.58 97.4647 121.275 96.6209C122.651 94.9523 124.66 94.7256 126.376 96.0511C126.792 96.3691 127.21 96.728 127.494 97.1562C127.994 97.9087 128.511 98.6863 128.816 99.5301L128.822 99.5238Z" fill="black"/>
<path d="M118.149 73.9749C117.453 74.6959 116.984 75.4641 116.77 76.3709C116.692 76.7078 116.414 76.7361 116.153 76.7487C114.909 76.8085 113.666 76.9408 112.429 76.8935C109.866 76.7928 107.404 76.2198 105.112 75.0202C104.063 74.4692 103.131 73.7608 102.316 72.9044C101.711 72.2716 101.267 71.5443 101.059 70.6785C100.889 69.9732 101.025 69.3561 101.469 68.7863C102.385 67.6056 103.632 67.0767 105.08 66.9822C107.054 66.8563 108.953 67.2498 110.766 67.9803C113.168 68.9468 115.379 70.2251 117.013 72.3094C117.422 72.832 117.765 73.405 118.149 73.9749Z" fill="#F96969"/>
<path d="M110.923 84.0599C111.263 86.6825 110.873 89.2328 110.13 91.7295C109.207 94.8307 107.765 97.6958 105.876 100.325C105.007 101.537 103.987 102.617 102.785 103.517C102.687 103.59 102.589 103.656 102.492 103.725C101.809 104.229 101.116 104.525 100.269 104.04C99.9258 103.842 99.4976 103.782 99.1072 103.675C98.6192 103.546 98.1406 103.426 97.8163 102.979C97.7125 102.837 97.5047 102.74 97.3283 102.696C96.5885 102.513 96.154 101.984 95.7825 101.379C95.0835 100.246 94.6175 99.0181 94.3216 97.7241C94.0225 96.4112 93.8336 95.0857 93.8273 93.65C94.054 89.3052 95.2882 85.2028 97.8289 81.5348C98.6822 80.3006 99.7589 79.2774 101.034 78.4777C101.358 78.2762 101.698 78.0936 102.045 77.9299C102.819 77.5646 103.537 77.423 104.397 77.911C105.687 78.6446 107.126 79.0696 108.59 79.3655C108.871 79.4222 109.085 79.5104 109.182 79.8063C109.226 79.9386 109.311 80.0645 109.406 80.1715C110.375 81.2861 110.741 82.6305 110.923 84.0599ZM109.802 87.3122C109.837 86.1095 109.642 84.9698 108.911 83.9717C108.105 82.8729 107.038 82.3566 105.669 82.5486C105.014 82.6399 104.431 82.9138 103.896 83.2948C102.87 84.0221 101.95 84.8722 101.283 85.9395C100.688 86.8935 100.124 87.8758 99.6456 88.8896C98.6381 91.0116 98.0273 93.2439 97.9423 95.6021C97.9108 96.9591 98.1879 98.231 99.0065 99.3393C100.156 100.895 101.909 101.181 103.499 100.085C104.274 99.5502 104.932 98.8922 105.505 98.1429C107.123 96.0177 108.26 93.6532 109.041 91.1124C109.422 89.8719 109.765 88.6251 109.802 87.3154V87.3122Z" fill="#F5DEBB"/>
<path d="M109.843 114.943C110.637 116.999 109.862 118.91 107.866 119.851C106.937 120.289 105.949 120.437 104.929 120.434C103.575 120.405 102.265 120.116 100.99 119.684C97.6558 118.554 94.6428 116.876 92.1429 114.357C90.9307 113.136 89.9673 111.744 89.388 110.107C89.0669 109.203 88.9787 108.303 89.2841 107.361C89.4006 107.006 89.5864 106.785 89.8823 106.606C90.9874 105.935 92.2185 105.756 93.4715 105.727C95.1906 105.689 96.853 106.064 98.4839 106.565C101.651 107.534 104.617 108.882 107.129 111.111C108.339 112.182 109.264 113.441 109.847 114.943H109.843Z" fill="#F96969"/>
<path d="M108.912 83.9715C109.642 84.9695 109.837 86.1093 109.803 87.312C109.765 88.6217 109.422 89.8685 109.041 91.109C108.26 93.6498 107.123 96.0174 105.505 98.1395C104.932 98.8888 104.274 99.5468 103.5 100.082C101.913 101.178 100.156 100.891 99.0067 99.3359C98.1881 98.2276 97.9111 96.9588 97.9425 95.5987C98.0275 93.2405 98.6383 91.0083 99.6458 88.8862C100.128 87.8724 100.688 86.8901 101.283 85.9361C101.951 84.8656 102.87 84.0187 103.896 83.2914C104.431 82.9136 105.017 82.6365 105.669 82.5452C107.038 82.3532 108.106 82.8695 108.912 83.9683V83.9715Z" fill="black"/>
<path d="M108.657 196.759C108.751 197.001 108.849 197.241 108.975 197.546C108.527 197.842 108.131 198.151 107.693 198.384C102.64 201.094 97.2498 202.218 91.529 201.793C88.0374 201.535 84.6465 200.833 81.432 199.42C80.5599 199.035 79.7381 198.525 78.9038 198.059C78.6802 197.933 78.4913 197.745 78.2583 197.562C78.378 197.241 78.4787 196.951 78.5921 196.665C80.1443 192.82 81.7027 188.979 83.2518 185.132C85.3581 179.902 87.0268 174.522 88.8592 169.198C89.9895 165.911 91.1418 162.633 92.2311 159.333C92.886 157.353 93.4402 155.344 94.0415 153.348C94.1013 153.144 94.1737 152.942 94.2934 152.58C94.4414 152.999 94.5547 153.276 94.6366 153.566C95.8802 157.822 97.1112 162.079 98.3612 166.332C100.581 173.901 102.967 181.414 105.574 188.856C106.506 191.523 107.621 194.127 108.65 196.762L108.657 196.759Z" fill="#7A8125"/>
<path d="M69.4177 209.916C67.919 217.422 66.4424 224.84 64.9469 232.333C56.7641 232.26 48.6222 232.188 40.3985 232.112C42.3379 224.074 44.2553 216.131 46.1979 208.09C53.9525 208.701 61.641 209.305 69.4177 209.916Z" fill="#7A8125"/>
<path d="M66.071 206.593C65.753 206.615 65.5798 206.65 65.4129 206.634C63.2374 206.47 61.0618 206.303 58.8862 206.133C56.0872 205.916 53.2914 205.689 50.4956 205.472C49.0379 205.356 47.5801 205.239 46.1193 205.138C45.7163 205.11 45.4077 204.968 45.1212 204.666C41.4847 200.809 37.8357 196.965 34.1898 193.114C34.1237 193.045 34.0639 192.97 34.0009 192.897C34.0135 192.847 34.0229 192.796 34.0355 192.746C34.9076 192.834 35.7798 192.919 36.655 193.014C39.9672 193.373 43.2794 193.738 46.5915 194.097C47.5707 194.204 48.5499 194.276 49.5227 194.424C49.8565 194.475 50.2028 194.654 50.4767 194.862C55.3127 198.486 60.1361 202.125 64.9659 205.762C65.2901 206.007 65.6144 206.25 66.071 206.596V206.593Z" fill="#B4BD57"/>
<path d="M42.9297 206.604C43.2917 206.982 43.3736 207.312 43.254 207.807C41.4625 215.168 39.6899 222.532 37.9079 229.896C37.867 230.06 37.8166 230.217 37.7379 230.494C37.508 230.299 37.3412 230.17 37.1901 230.025C32.8515 225.954 28.5161 221.88 24.1775 217.809C23.5101 217.183 23.573 217.343 23.8847 216.537C26.2775 210.335 28.28 204.006 29.9392 197.571C30.1974 196.573 30.3863 195.559 30.6067 194.552C30.6507 194.347 30.7106 194.142 30.783 193.85C31.0034 194.064 31.1765 194.221 31.3339 194.388C35.1939 198.462 39.0508 202.546 42.9265 206.604H42.9297Z" fill="#B4BD57"/>
</svg>
