<svg width="213" height="221" viewBox="0 0 213 221" fill="none" xmlns="http://www.w3.org/2000/svg">
<path d="M212.772 175.336C212.8 176.656 212.759 177.975 212.671 179.291C212.633 179.826 212.419 180.361 212.217 180.868C212.016 181.372 211.566 181.624 211.04 181.712C209.907 181.904 208.767 182.068 207.633 182.272C206.056 182.556 204.482 182.867 202.848 183.179C202.914 183.4 202.955 183.579 203.024 183.749C205.058 188.906 205.499 194.211 204.523 199.655C204.252 201.169 203.884 202.652 203.317 204.088C202.832 205.306 202.161 206.402 201.277 207.372C200.804 207.888 200.288 208.288 199.58 208.518C199.003 208.707 198.481 209.069 197.857 209.182C197.08 209.321 196.305 209.488 195.528 209.636C189.618 210.769 183.734 212.009 177.94 213.656C173.161 215.016 168.517 216.757 163.92 218.631C162.5 219.21 161.087 219.808 159.676 220.41C159.16 220.63 158.662 220.728 158.08 220.665C157.532 220.605 156.953 220.787 156.389 220.866H155.813C155.678 220.828 155.539 220.768 155.401 220.759C153.848 220.649 152.479 220.047 151.204 219.197C148.82 217.614 147.171 215.397 145.829 212.923C144.46 210.397 143.761 207.671 143.437 204.834C143.408 204.579 143.374 204.324 143.336 204.006C143.115 204.066 142.958 204.097 142.807 204.148C138.742 205.517 134.678 206.887 130.61 208.257C130.541 208.279 130.465 208.294 130.408 208.332C129.782 208.751 129.146 208.644 128.478 208.423C125.383 207.4 122.282 206.393 119.184 205.382C117.087 204.696 114.994 204.012 112.897 203.326C112.736 203.276 112.553 203.254 112.424 203.162C111.823 202.744 111.294 202.939 110.699 203.228C106.971 205.058 103.036 206.396 99.2072 207.986C91.6572 211.118 84.0821 214.191 76.4188 217.028C73.604 218.07 70.7201 218.895 67.7511 219.349C65.7707 219.654 63.8187 219.496 61.8289 219.116C59.4266 218.659 57.4809 217.406 55.5036 216.153C53.4981 214.884 51.5334 213.552 49.5468 212.249C49.3516 212.123 49.1438 212.016 48.8636 211.852C48.725 212.507 48.5928 213.086 48.4763 213.666C48.2181 214.956 47.9662 216.254 47.7081 217.544C47.6609 217.781 47.6136 218.017 47.5255 218.24C47.283 218.848 46.8328 219.207 46.1716 219.27C45.8883 219.298 45.5955 219.289 45.309 219.286C36.8176 219.21 28.3262 219.128 19.838 219.071C18.7392 219.065 17.8482 218.703 17.0548 217.957C11.8347 213.039 6.60197 208.131 1.37555 203.219C1.2874 203.137 1.20239 203.052 1.11423 202.973C0.440465 202.372 0.308231 201.648 0.623075 200.82C1.19609 199.318 1.7943 197.826 2.32638 196.311C4.23749 190.858 6.03525 185.367 7.34186 179.728C7.70393 178.167 7.94006 176.574 8.19824 174.99C8.38714 173.835 8.90034 173.318 10.0779 173.375C11.1767 173.425 12.2723 173.576 13.368 173.696C16.6801 174.055 19.9923 174.423 23.3076 174.782C25.6438 175.037 27.9799 175.283 30.3161 175.535C30.8544 175.591 31.3267 175.796 31.7581 176.127C32.9009 177.002 34.0564 177.861 35.2056 178.727C35.4354 178.9 35.6653 179.07 35.8762 179.228C38.7602 178.519 41.4332 177.329 44.1251 176.193C45.4947 175.613 46.858 175.018 48.2433 174.486C48.7471 174.291 49.0115 173.992 49.1501 173.488C49.9655 170.529 50.8408 167.588 51.6153 164.619C53.3532 157.954 54.6724 151.2 55.7398 144.4C56.5206 139.422 57.0841 134.416 57.3581 129.382C57.8114 121.057 56.467 113.038 53.2651 105.334C52.097 102.522 51.0234 99.673 50.252 96.7166C49.3956 93.4233 48.9486 90.0828 49.1721 86.673C49.2886 84.9131 49.6286 83.1972 50.378 81.5914C52.0372 78.04 54.855 76.2045 58.7591 76.0187C59.9209 75.962 61.0543 76.1383 62.1815 76.3934C62.32 76.4249 62.4617 76.4406 62.6978 76.4784C62.7419 75.9872 62.7891 75.5212 62.8238 75.0553C63.274 68.9252 63.3779 62.7858 63.1481 56.6432C63.0001 52.6635 62.8678 48.6839 62.6789 44.7043C62.5971 42.9569 62.3861 41.2158 62.2382 39.4684C62.128 38.1397 62.8458 37.5069 64.1493 37.6958C67.0679 38.1114 69.9896 38.5207 72.9145 38.8796C76.5541 39.3267 80.2 39.7392 83.8459 40.1296C86.9692 40.4633 90.0956 40.753 93.2252 41.0426C96.7829 41.3732 100.341 41.6849 103.898 42.006C105.617 42.1603 107.336 42.3146 109.056 42.4657C109.197 42.4783 109.339 42.4657 109.566 42.4657C109.669 41.9903 109.789 41.5117 109.877 41.0269C111.023 34.752 112.198 28.4866 113.296 22.2023C114.184 17.1207 114.786 11.9982 115.107 6.84735C115.145 6.24915 115.195 5.65094 115.23 5.05274C115.296 3.78392 115.856 2.83309 116.961 2.17191C119.074 0.903089 121.401 0.345814 123.812 0.229322C126.699 0.0907901 129.558 0.393041 132.332 1.29664C135.417 2.30415 137.823 4.17432 139.577 6.90403C139.945 7.47704 140.058 8.10043 140.005 8.76161C139.895 10.0997 139.765 11.4378 139.662 12.7759C139.435 15.6441 139.174 18.5123 139.007 21.3869C138.708 26.5377 138.487 31.6917 138.547 36.852C138.575 39.2732 138.714 41.6943 138.805 44.1155C138.811 44.2572 138.846 44.3989 138.878 44.6035C139.948 44.6633 141.015 44.7232 142.165 44.7861C142.391 43.8038 142.662 42.8593 142.826 41.899C143.947 35.2306 145.093 28.5653 146.122 21.8875C146.623 18.6414 146.975 15.3702 147.098 12.0832C147.145 10.7609 147.684 9.68725 148.732 8.86236C149.67 8.12247 150.725 7.63132 151.878 7.33536C154.333 6.70567 156.814 6.31212 159.352 6.64585C162.611 7.07089 165.671 8.05636 168.303 10.0934C168.999 10.6318 169.597 11.3024 170.236 11.9132C170.885 12.5334 171.014 13.308 170.919 14.1612C170.655 16.5194 170.349 18.8776 170.161 21.242C169.666 27.4634 169.367 33.691 169.597 39.9375C169.732 43.6306 169.931 47.3175 170.362 50.9886C170.4 51.2971 170.453 51.6025 170.507 51.9677C171.505 52.0212 172.481 52.0748 173.457 52.1283C175.182 52.2227 176.908 52.3078 178.627 52.4211C179.811 52.4998 180.217 52.9123 180.45 54.0551C180.812 55.8403 181.205 57.6192 181.602 59.4705C182.263 59.5177 182.924 59.5933 183.592 59.6059C189.347 59.7286 195.103 59.842 200.855 59.9585C202.7 59.9963 204.548 60.0309 206.393 60.075C206.654 60.0813 206.916 60.1474 207.177 60.1757C208.002 60.267 208.49 60.755 208.641 61.539C208.858 62.6693 209.053 63.8027 209.204 64.9425C209.847 69.8005 210.058 74.69 210.237 79.5827C210.385 83.6096 210.602 87.6365 210.747 91.6633C210.98 98.2089 211.207 104.755 211.383 111.3C211.6 119.429 211.774 127.562 211.947 135.694C212.098 142.939 212.211 150.183 212.362 157.428C212.488 163.401 212.655 169.373 212.778 175.346L212.772 175.336ZM209.825 177.883C209.828 176.876 209.837 175.868 209.815 174.861C209.68 169.08 209.522 163.3 209.403 157.523C209.255 150.303 209.154 143.081 209 135.864C208.792 126.126 208.603 116.388 208.313 106.653C208.065 98.3097 207.677 89.9695 207.372 81.6261C207.205 77.1175 207.029 72.6121 206.616 68.1192C206.541 67.3038 206.428 66.4915 206.314 65.5123C206.138 65.7705 206.069 65.8618 206.009 65.9594C204.435 68.5663 202.876 71.1827 201.283 73.7802C198.928 77.6244 196.554 81.4561 194.177 85.2877C192.143 88.5684 190.071 91.827 188.075 95.1329C187.549 96.005 186.939 96.4773 185.915 96.5056C184.924 96.534 184.294 96.0932 184.171 95.114C184.064 94.2797 183.992 93.4453 183.891 92.611C183.4 88.5652 183.031 84.4975 182.38 80.4769C181.334 74.0415 180.1 67.6375 178.942 61.221C178.853 60.7393 178.731 60.267 178.62 59.7885C178.57 59.7885 178.517 59.7822 178.466 59.779C178.353 60.1065 178.239 60.4307 178.129 60.7582C174.512 71.5825 171.417 82.5675 168.101 93.4863C167.859 94.2797 167.598 94.9912 166.987 95.5957C166.543 96.0365 166.121 96.3451 165.485 96.2317C164.849 96.1184 164.49 95.6933 164.304 95.1014C164.175 94.689 164.065 94.2734 163.939 93.8578C159.736 79.7968 155.124 65.8744 149.822 52.185C149.765 52.0338 149.689 51.889 149.623 51.741C149.582 51.7442 149.545 51.7505 149.504 51.7536C149.293 54.2629 149.107 56.7723 148.864 59.2784C148.376 64.3159 147.898 69.3534 147.337 74.3815C146.799 79.2175 146.226 84.0535 145.546 88.8706C144.674 95.0196 143.733 101.159 142.722 107.283C141.513 114.615 140.247 121.939 138.922 129.253C137.111 139.255 135.304 149.258 134.045 159.352C133.421 164.348 132.798 169.345 132.241 174.351C131.636 179.81 131.126 185.279 130.849 190.767C130.619 195.323 130.518 199.879 130.638 204.437C130.641 204.623 130.67 204.809 130.685 204.982C130.767 205.007 130.821 205.045 130.855 205.033C134.945 203.672 139.032 202.309 143.194 200.921C143.194 200.596 143.194 200.241 143.194 199.885C143.235 195.867 143.909 191.966 145.304 188.195C146.223 185.714 147.523 183.466 149.337 181.533C149.847 180.991 150.363 180.465 151.106 180.223C151.418 180.122 151.73 179.939 151.966 179.71C152.488 179.209 153.121 179.042 153.798 178.976C155.445 178.815 157.095 178.702 158.741 178.523C161.458 178.227 164.179 177.95 166.88 177.559C170.249 177.074 173.605 176.504 176.958 175.928C180.972 175.236 184.98 174.512 188.985 173.762C190.279 173.52 191.564 173.208 192.823 172.83C193.45 172.641 193.988 172.654 194.545 172.953C195.609 173.526 196.604 174.203 197.41 175.1C198.21 175.991 198.981 176.911 199.706 177.865C200.31 178.664 200.826 179.527 201.421 180.421C204.18 179.917 206.95 179.414 209.759 178.904C209.781 178.545 209.815 178.214 209.818 177.883H209.825ZM200.839 202.29C202.001 198.647 202.319 194.92 201.881 191.129C201.283 185.934 199.129 181.435 195.676 177.547C195.188 176.996 194.574 176.558 194.013 176.07C193.72 175.812 193.406 175.774 193.015 175.868C191.642 176.205 190.267 176.542 188.878 176.8C185.32 177.458 181.756 178.088 178.192 178.708C173.117 179.593 168.042 180.494 162.913 181.051C162.211 181.126 161.505 181.211 160.69 181.303C160.882 181.507 160.995 181.618 161.099 181.737C161.732 182.487 162.437 183.185 162.985 183.995C165.825 188.176 167.091 192.873 167.469 197.86C167.686 200.722 167.535 203.569 167.151 206.402C166.754 209.318 166.005 212.135 164.61 214.752C164.55 214.865 164.519 214.994 164.437 215.221C164.808 215.086 165.073 214.994 165.334 214.89C169.742 213.121 174.231 211.594 178.816 210.347C185.09 208.641 191.466 207.416 197.842 206.169C198.242 206.09 198.55 205.936 198.837 205.659C199.803 204.711 200.43 203.565 200.836 202.29H200.839ZM186.778 91.3926C187.817 90.2686 203.896 64.02 204.161 62.9873C196.866 62.8393 189.593 62.6913 182.222 62.5402C184.039 71.995 185.711 81.434 186.674 90.9801C186.687 91.1123 186.74 91.2383 186.781 91.3957L186.778 91.3926ZM176.476 56.2654C176.577 55.9568 176.65 55.6388 176.757 55.2453C169.093 54.7163 161.499 54.8234 153.83 54.3826C158.294 66.1892 162.179 78.1124 165.967 90.2276C166.112 89.7837 166.216 89.4752 166.31 89.1603C168.183 82.9169 170.022 76.6641 171.943 70.4365C173.403 65.6949 174.965 60.988 176.476 56.2654ZM167.909 14.3879C167.963 13.9377 167.859 13.6134 167.538 13.2985C166.634 12.4233 165.627 11.6991 164.493 11.1544C160.529 9.24962 156.443 9.00089 152.249 10.276C151.604 10.4744 151.005 10.7672 150.489 11.2205C150.206 11.4724 150.051 11.7463 150.039 12.1462C149.903 15.6473 149.529 19.1326 148.994 22.5896C147.989 29.0785 146.865 35.5486 145.782 42.0249C145.625 42.9632 145.417 43.892 145.215 44.8963C146.437 44.89 147.602 44.9971 148.773 44.8522C149.113 44.8113 149.491 44.8522 149.812 44.975C150.262 45.145 150.473 45.5764 150.637 46.0109C151.207 47.5127 151.777 49.0113 152.35 50.5131C152.441 50.7556 152.542 50.9949 152.646 51.2562C157.57 51.8103 162.485 51.6875 167.44 51.889C167.44 51.6025 167.459 51.4325 167.44 51.2688C166.977 47.5756 166.776 43.8668 166.659 40.1516C166.534 36.172 166.537 32.1892 166.76 28.2127C166.911 25.5302 167.075 22.8509 167.292 20.1747C167.447 18.2416 167.683 16.3116 167.913 14.3847L167.909 14.3879ZM164.648 199.929C164.575 199.082 164.474 197.505 164.292 195.934C163.879 192.357 162.708 189.035 160.794 185.981C160.045 184.788 159.132 183.755 157.923 183.009C157.054 182.471 156.125 182.09 155.089 182.09C153.546 182.09 152.262 182.704 151.232 183.843C150.014 185.191 149.094 186.724 148.399 188.399C147.435 190.713 146.821 193.122 146.462 195.597C146.043 198.484 146.059 201.383 146.343 204.277C146.635 207.274 147.454 210.108 149.088 212.671C150.262 214.512 151.635 216.162 153.615 217.189C155.505 218.171 157.343 218.07 159.113 216.858C160.101 216.181 160.873 215.312 161.493 214.298C162.195 213.149 162.749 211.931 163.177 210.653C164.26 207.41 164.563 204.053 164.651 199.926L164.648 199.929ZM146.701 49.8866C146.755 49.2317 146.843 48.5674 146.708 47.8275C146.273 47.8275 145.867 47.837 145.464 47.8275C144.312 47.7929 143.163 47.7614 142.013 47.711C139.64 47.6071 137.269 47.5158 134.898 47.3804C131.45 47.1821 128.003 46.968 124.558 46.7161C121.401 46.4863 118.249 46.1998 115.094 45.9322C112.132 45.6834 109.169 45.4284 106.206 45.1702C103.149 44.9026 100.092 44.6287 97.0348 44.3516C94.239 44.0998 91.4463 43.8573 88.6536 43.5771C85.2438 43.2371 81.8309 42.8939 78.4243 42.4941C74.4006 42.0218 70.3863 41.4865 66.3658 40.9828C66.0415 40.9419 65.714 40.9198 65.3772 40.8852C66.1863 53.1358 66.5987 65.3203 65.6038 77.3914C67.4803 78.4241 69.234 79.3875 71.0412 80.3824C71.0255 80.14 71.0097 79.9102 70.994 79.6835C70.9593 79.1797 70.8901 78.6791 70.8964 78.1785C70.9499 73.3362 72.2722 68.8591 74.8099 64.7441C76.1543 62.5622 77.9206 60.796 80.1906 59.5586C80.3039 59.4988 80.3921 59.3918 80.5086 59.2973C80.2976 59.0643 80.1182 58.8723 79.945 58.6771C79.224 57.8553 78.6667 56.9391 78.3393 55.8938C77.7285 53.9512 78.0496 52.2039 79.4035 50.658C80.3606 49.5655 81.535 48.813 82.9266 48.3942C84.548 47.9062 86.1915 47.9314 87.8445 48.1738C90.9173 48.6241 93.6848 49.8236 96.2288 51.5836C98.0801 52.865 99.5472 54.4739 100.63 56.4448C100.709 56.5865 100.803 56.7187 100.901 56.8667C102.463 56.6306 103.993 56.7219 105.514 56.9549C109.591 57.5751 113.199 59.269 116.448 61.7783C117.345 62.4709 118.148 63.258 118.841 64.1554C119.527 65.0464 119.971 66.035 120.182 67.1432C120.447 68.5222 120.088 69.7124 119.156 70.7325C118.306 71.6581 117.257 72.25 116.039 72.568C114.307 73.0182 112.563 72.9553 110.828 72.6404C107.538 72.0391 104.475 70.8049 101.619 69.0858C99.5032 67.8139 97.7715 66.1452 96.8553 63.7712C96.8396 63.7335 96.786 63.7114 96.7577 63.6894C95.4637 63.7807 94.1823 63.872 92.8788 63.9633C93.0866 64.5867 93.3353 65.1849 93.4896 65.8083C94.091 68.242 94.0973 70.6947 93.7226 73.1662C93.2377 76.3587 92.1232 79.3309 90.6434 82.1771C89.1605 85.0327 87.3596 87.6459 84.8251 89.683C84.7779 89.7207 84.7621 89.7963 84.7149 89.8813C84.8314 89.9537 84.9258 90.023 85.0297 90.0765C86.5788 90.8699 87.9515 91.912 89.2487 93.0581C90.8418 94.4717 91.9941 96.1876 92.7088 98.1932C93.1213 99.3487 93.2377 100.542 92.9733 101.735C92.3656 104.481 90.5931 106.149 87.9641 106.958C86.0561 107.544 84.123 107.494 82.2024 107.053C77.8607 106.055 74.0259 104.062 70.7201 101.074C69.2844 99.7737 68.132 98.2562 67.2284 96.534C66.1769 94.5347 65.9124 92.4473 66.4004 90.2591C66.4665 89.9663 66.6145 89.6609 66.8065 89.4342C67.1119 89.069 67.4614 88.729 67.8392 88.4393C68.9286 87.5987 70.1943 87.1705 71.5387 86.9627C72.0456 86.884 72.5525 86.821 73.1129 86.7423C72.8421 86.1756 72.5714 85.6939 72.3824 85.1807C72.2124 84.7147 71.9889 84.4219 71.4568 84.3274C71.1514 84.2739 70.8743 84.0126 70.5973 83.8237C69.7031 83.2192 68.8436 82.5612 67.9211 82.0039C65.459 80.521 62.8741 79.3309 59.9776 79.0003C56.7725 78.6351 54.0963 80.14 52.9219 83.131C52.3426 84.6014 52.1065 86.1347 52.0655 87.7026C51.9837 90.9234 52.5315 94.053 53.4257 97.1353C54.2443 99.95 55.3745 102.648 56.445 105.372C59.2912 112.613 60.6104 120.116 60.3554 127.892C60.2074 132.429 59.7414 136.938 59.1401 141.431C58.2428 148.137 56.9897 154.783 55.4407 161.367C54.6252 164.843 53.6209 168.271 52.7015 171.725C52.6165 172.04 52.5441 172.358 52.4528 172.72C52.6196 172.685 52.6921 172.679 52.755 172.654C55.0219 171.675 57.2825 170.689 59.5525 169.716C59.902 169.568 60.0437 169.298 60.1602 168.97C61.2716 165.907 62.4239 162.856 63.5038 159.78C65.1127 155.189 66.6712 150.577 68.258 145.977C68.4028 145.558 68.4563 145.159 68.3902 144.715C68.2454 143.742 68.1163 142.766 68.047 141.787C67.7763 137.983 67.4772 134.18 67.2883 130.37C66.9482 123.56 67.0238 116.747 67.4079 109.94C67.4488 109.206 67.4142 108.467 67.4142 107.724C67.326 107.673 67.2473 107.616 67.1592 107.579C65.1253 106.65 63.211 105.51 61.3408 104.292C59.8894 103.344 58.5639 102.239 57.3423 101.011C56.763 100.429 56.2561 99.7863 55.9601 99.0118C55.6453 98.1869 55.9381 97.3903 56.6528 97.0503C57.3738 96.7071 58.1137 97.0125 58.6111 97.7587C58.9921 98.3317 59.414 98.8953 59.8989 99.377C61.0606 100.529 62.3893 101.474 63.7651 102.359C66.7877 104.304 70.062 105.718 73.4183 106.962C73.7552 107.084 74.0952 107.21 74.41 107.38C74.9642 107.676 75.2192 108.149 75.2318 108.791C75.257 110.06 75.2885 111.332 75.3861 112.594C75.4805 113.8 75.7985 114.959 76.4597 115.991C77.4924 117.607 79.1768 117.855 80.6251 116.608C81.3618 115.976 81.9569 115.22 82.4165 114.373C82.8605 113.551 83.2509 112.701 83.6381 111.851C84.0411 110.97 84.6047 110.614 85.5713 110.715C85.7382 110.73 85.9019 110.771 86.0624 110.812C88.534 111.442 91.0527 111.779 93.5809 112.009C96.4932 112.273 99.4118 112.475 102.33 112.689C103.162 112.748 103.996 112.771 104.944 112.815C104.349 110.375 104.046 107.991 104.509 105.608C104.405 105.548 104.367 105.513 104.32 105.498C101.084 104.452 98.672 102.355 97.0001 99.4526C94.1193 94.4528 93.2598 89.0816 94.3649 83.4175C94.8372 81.0058 95.7943 78.7925 97.378 76.8845C98.631 75.3796 100.117 74.1895 102.063 73.7109C104.207 73.1851 106.282 73.5629 108.234 74.4445C111.788 76.0502 114.235 78.7358 115.642 82.3848C117.131 86.2417 117.405 90.2182 116.857 94.2765C116.741 95.1266 116.527 95.961 116.35 96.8362C116.486 96.8614 116.599 96.8929 116.713 96.8992C119.704 97.0377 122.44 98.0043 125.006 99.4904C125.497 99.7737 125.972 100.136 126.347 100.555C126.939 101.213 126.8 102.148 126.126 102.648C125.569 103.061 124.927 103.02 124.263 102.557C122.531 101.348 120.642 100.495 118.564 100.095C116.306 99.6604 114.074 99.6918 111.93 100.636C110.063 101.458 108.612 102.711 107.85 104.67C107.176 106.401 107.104 108.183 107.374 109.984C107.834 113.044 109.018 115.84 110.661 118.438C112.166 120.818 113.98 122.962 115.9 125.012C117.575 126.803 119.404 128.428 121.41 129.841C123.101 131.031 124.832 132.149 126.832 132.766C127.011 132.823 127.187 132.914 127.345 133.024C127.874 133.39 128.097 134.01 127.927 134.602C127.745 135.235 127.216 135.644 126.539 135.638C126.303 135.638 126.054 135.603 125.837 135.521C125.119 135.254 124.414 134.958 123.702 134.674C123.516 134.599 123.327 134.533 123.091 134.441C123.066 134.69 123.047 134.854 123.038 135.017C122.836 138.175 122.663 141.339 122.436 144.494C121.98 150.86 121.158 157.189 120.355 163.517C119.549 169.871 118.41 176.171 117.015 182.424C115.903 187.408 114.798 192.395 114.143 197.467C114.014 198.462 113.917 199.457 113.797 200.511C118.45 202.029 123.038 203.528 127.638 205.029C127.638 204.299 127.647 203.654 127.638 203.011C127.55 197.224 127.726 191.444 128.223 185.682C128.755 179.518 129.398 173.362 130.093 167.213C130.663 162.188 131.331 157.17 132.061 152.164C132.776 147.277 133.598 142.404 134.435 137.536C135.235 132.883 136.135 128.245 136.963 123.595C137.732 119.275 138.481 114.952 139.199 110.623C139.92 106.272 140.609 101.912 141.28 97.5509C141.856 93.8074 142.42 90.0608 142.933 86.3078C143.38 83.0523 143.77 79.7905 144.151 76.5287C144.438 74.0509 144.677 71.5668 144.926 69.0858C145.244 65.9122 145.571 62.7386 145.864 59.5618C146.16 56.3378 146.424 53.1106 146.689 49.8803L146.701 49.8866ZM137.055 8.92848C137.086 8.61993 137.004 8.38694 136.834 8.13192C135.474 6.08543 133.582 4.77882 131.265 4.04839C128.692 3.24238 126.045 3.0094 123.375 3.21405C121.87 3.33054 120.406 3.70835 119.024 4.38212C118.381 4.69697 118.139 5.11886 118.104 5.82726C117.874 10.5972 117.352 15.3387 116.624 20.0582C115.497 27.3784 114.093 34.6513 112.695 41.9242C112.648 42.1761 112.62 42.4342 112.572 42.7522C120.324 43.4165 128 44.1564 135.798 44.4744C135.798 44.1627 135.808 43.9297 135.798 43.6968C135.758 42.9285 135.695 42.1635 135.666 41.3984C135.458 36.0492 135.616 30.7031 135.849 25.3602C136.088 19.8725 136.491 14.3973 137.052 8.93162L137.055 8.92848ZM118.362 155.646C118.513 154.494 118.649 153.36 118.413 152.164C117.758 148.867 117.55 145.511 117.393 142.158C117.383 141.982 117.349 141.809 117.314 141.56C113.788 144.264 109.84 145.826 105.617 146.67C101.395 147.514 97.1355 147.873 92.819 146.78C92.8694 147.044 92.8977 147.227 92.9386 147.407C93.5305 150.12 94.1539 152.831 94.7144 155.552C95.8006 160.813 96.5814 166.124 97.1009 171.47C97.2426 172.94 97.2457 173.013 98.672 173.441C102.579 174.615 106.527 174.902 110.52 173.916C112.087 173.529 113.592 172.994 114.924 172.04C115.286 171.779 115.696 171.583 116.206 171.281C116.25 171.045 116.322 170.721 116.366 170.39C117.037 165.475 117.711 160.561 118.359 155.643L118.362 155.646ZM115.828 69.5203C117.449 68.7836 117.626 68.0752 116.895 66.5608C116.719 66.1987 116.467 65.8587 116.184 65.5722C115.629 65.0117 115.079 64.4261 114.439 63.9727C113.388 63.2266 112.302 62.5087 111.168 61.8948C108.646 60.5315 105.935 59.779 102.771 59.6846C102.434 59.7097 101.805 59.694 101.197 59.8074C100.246 59.99 99.5126 60.6543 99.5252 61.7311C99.5346 62.3733 99.6228 62.9967 99.9943 63.5099C100.485 64.1837 101.008 64.848 101.613 65.4179C102.683 66.4348 103.983 67.1212 105.321 67.7225C107.733 68.8088 110.189 69.7438 112.868 69.9233C113.892 69.9926 114.909 69.9359 115.831 69.5172L115.828 69.5203ZM116.552 137.533C116.678 137.168 116.521 136.869 116.155 136.724C115.822 136.592 115.488 136.444 115.138 136.374C113.12 135.981 111.096 135.612 109.021 135.757C108.35 135.801 107.683 135.836 107.015 135.912C103.256 136.337 99.6008 137.174 96.1721 138.811C95.2024 139.271 94.2767 139.831 93.3731 140.417C92.8977 140.722 92.479 141.144 92.1075 141.576C91.5093 142.275 91.5943 142.829 92.3782 143.295C92.8662 143.584 93.4078 143.808 93.9493 143.981C95.2244 144.384 96.5436 144.46 97.8691 144.478C98.058 144.478 98.2438 144.485 98.4327 144.485C98.5933 144.485 98.757 144.478 98.9175 144.472C99.2418 144.463 99.563 144.45 99.8873 144.434C101.987 144.331 104.068 144.063 106.115 143.543C109.103 142.785 111.971 141.724 114.515 139.932C115.079 139.539 115.592 139.054 116.058 138.547C116.303 138.279 116.426 137.886 116.549 137.53L116.552 137.533ZM115.519 175.226C114.653 175.585 113.917 175.938 113.149 176.199C107.84 178.003 102.538 177.792 97.2615 176.061C96.6129 175.846 96.0115 175.459 95.4291 175.091C95.1583 174.921 94.897 174.641 94.7805 174.348C94.5475 173.75 94.3366 173.126 94.2547 172.493C93.9241 169.975 93.6596 167.446 93.3385 164.924C93.1779 163.668 92.9575 162.418 92.7466 161.064C90.3727 162.047 88.0774 163.001 85.7224 163.977C85.7633 164.147 85.7791 164.241 85.8074 164.329C86.8212 167.302 87.7878 170.293 88.8646 173.24C89.7682 175.714 90.7757 178.154 91.7926 180.588C92.2428 181.668 91.9784 182.893 91.0874 183.573C90.423 184.08 89.7524 184.602 89.022 185.002C85.3163 187.033 81.3492 188.245 77.146 188.651C71.6866 189.18 66.3815 188.481 61.2464 186.542C59.7383 185.975 58.3057 185.248 56.9865 184.316C56.2939 183.825 55.702 183.236 55.2927 182.48C54.9873 181.91 54.9589 181.347 55.3021 180.771C55.4627 180.506 55.5918 180.22 55.7114 179.933C56.4922 178.025 57.2668 176.114 58.0381 174.203C58.1042 174.039 58.142 173.866 58.2239 173.595C51.7381 176.249 45.3625 178.86 38.9145 181.501C39.1632 181.693 39.3647 181.857 39.5725 182.011C43.5553 185.012 47.5286 188.031 51.5366 191.003C52.3552 191.611 52.6606 192.325 52.5252 193.292C52.4969 193.481 52.478 193.673 52.4402 193.862C51.6562 197.788 50.866 201.711 50.082 205.64C49.8774 206.67 49.679 207.699 49.4869 208.694C51.587 210.057 53.6272 211.38 55.7461 212.756C55.7461 212.457 55.7524 212.271 55.7461 212.085C55.6799 210.111 56.2404 208.342 57.4809 206.802C57.9626 206.207 58.4632 205.621 59.0047 205.08C60.1161 203.975 61.4007 203.09 62.7514 202.3C65.9659 200.417 69.3505 198.865 72.8264 197.561C77.2909 195.886 81.812 194.362 86.3112 192.788C93.5054 190.269 100.737 187.858 107.752 184.86C109.424 184.146 111.049 183.318 112.686 182.521C113.177 182.282 113.633 181.976 114.188 181.652C114.616 179.596 115.063 177.452 115.526 175.232L115.519 175.226ZM113.646 95.3785C114.279 92.8566 114.326 90.3032 113.999 87.7372C113.706 85.4294 113.057 83.2223 111.795 81.2546C110.189 78.7484 107.963 77.086 104.972 76.5413C103.316 76.2391 101.896 76.6421 100.646 77.7472C99.2072 79.0223 98.2784 80.6249 97.6833 82.4289C96.8962 84.8092 96.7073 87.2555 96.9529 89.7428C97.2552 92.7905 98.0864 95.6681 99.733 98.2751C100.914 100.142 102.475 101.59 104.538 102.45C104.837 102.573 105.148 102.667 105.46 102.777C107.148 99.6478 109.802 97.9665 113.117 97.1731C113.312 96.5214 113.504 95.9547 113.649 95.3785H113.646ZM113.133 186.425C113.186 186.18 113.221 185.928 113.274 185.629C113.117 185.676 113.048 185.688 112.985 185.717C110.057 186.976 107.182 188.371 104.194 189.473C97.0914 192.092 89.9445 194.605 82.7975 197.102C78.7927 198.503 74.7595 199.816 70.8806 201.55C68.343 202.687 65.8022 203.82 63.4503 205.328C62.0461 206.229 60.7993 207.293 59.7729 208.625C58.9386 209.711 58.6206 210.92 58.6804 212.258C58.7308 213.442 59.2188 214.409 60.2074 215.051C60.8654 215.476 61.5864 215.829 62.32 216.109C64.2028 216.827 66.1485 216.669 68.0691 216.31C70.783 215.803 73.4214 215.013 76.0095 214.043C83.55 211.216 91.0149 208.19 98.4547 205.108C102.107 203.597 105.857 202.312 109.418 200.581C109.89 200.351 110.52 200.225 110.784 199.847C111.064 199.444 110.995 198.795 111.077 198.257C111.083 198.21 111.086 198.163 111.093 198.115C111.596 194.189 112.295 190.298 113.133 186.428V186.425ZM96.7672 60.3709C96.9812 59.4642 97.4504 58.696 98.1462 57.975C97.7589 57.4051 97.4189 56.8289 97.0096 56.3094C95.3755 54.2283 93.1653 52.9469 90.7631 51.9803C88.9464 51.2499 87.0479 50.8563 85.077 50.9823C83.6287 51.0767 82.3819 51.6057 81.4657 52.7863C81.0218 53.3562 80.8864 53.9733 81.0564 54.6785C81.2611 55.5444 81.7081 56.2685 82.3126 56.9045C83.1281 57.7609 84.0569 58.4693 85.1085 59.0202C87.4005 60.2229 89.8626 60.796 92.4254 60.8936C93.6628 60.9408 94.9096 60.8086 96.1501 60.7487C96.4114 60.7361 96.6884 60.7078 96.7672 60.3709ZM90.1302 75.7259C90.8733 73.2292 91.2637 70.6789 90.9236 68.0563C90.741 66.6269 90.3727 65.2856 89.4061 64.1679C89.3148 64.0609 89.2266 63.935 89.1825 63.8027C89.0849 63.5068 88.8708 63.4186 88.5906 63.3619C87.1266 63.066 85.6878 62.6441 84.3969 61.9074C83.5405 61.4194 82.8227 61.561 82.045 61.9263C81.6987 62.09 81.3587 62.2726 81.0344 62.4741C79.7592 63.2738 78.6856 64.297 77.8293 65.5312C75.2885 69.1992 74.0543 73.3016 73.8276 77.6464C73.837 79.0821 74.0228 80.4076 74.3219 81.7205C74.6178 83.0145 75.0838 84.2424 75.7828 85.3759C76.1543 85.9772 76.5888 86.5062 77.3287 86.6919C77.5081 86.736 77.7159 86.8336 77.8167 86.9753C78.1409 87.4224 78.6195 87.542 79.1075 87.6711C79.5011 87.775 79.9261 87.838 80.2693 88.0363C81.1162 88.5212 81.8089 88.2252 82.4921 87.7215C82.5897 87.6522 82.6873 87.5829 82.7849 87.5137C83.9845 86.6164 85.0046 85.5333 85.8767 84.3212C87.7657 81.6922 89.2077 78.8271 90.1302 75.7259ZM87.8665 103.851C89.8626 102.91 90.6403 100.998 89.8437 98.9425C89.2613 97.4407 88.3388 96.1813 87.1266 95.1109C84.6142 92.8818 81.6483 91.5342 78.481 90.5645C76.8501 90.0639 75.1877 89.6924 73.4687 89.727C72.2156 89.7554 70.9845 89.9317 69.8794 90.6054C69.5835 90.7849 69.3977 91.0021 69.2812 91.3611C68.9758 92.3025 69.0671 93.2029 69.3851 94.1065C69.9644 95.7437 70.9279 97.1353 72.14 98.3569C74.6399 100.876 77.6529 102.554 80.9871 103.684C82.2623 104.119 83.5689 104.408 84.9258 104.433C85.9428 104.433 86.9346 104.292 87.8633 103.851H87.8665ZM88.9747 181.545C88.852 181.24 88.7512 181 88.6568 180.758C87.6241 178.126 86.5127 175.522 85.5807 172.852C82.977 165.409 80.5873 157.894 78.3676 150.328C77.1177 146.075 75.8867 141.818 74.643 137.561C74.558 137.275 74.4478 136.998 74.2998 136.576C74.1802 136.938 74.1078 137.136 74.048 137.344C73.4466 139.34 72.8925 141.352 72.2376 143.329C71.1451 146.629 69.9959 149.906 68.8656 153.193C67.0332 158.517 65.3614 163.898 63.2582 169.128C61.7092 172.975 60.1507 176.816 58.5985 180.66C58.4821 180.944 58.3845 181.237 58.2648 181.558C58.4978 181.74 58.6867 181.929 58.9102 182.055C59.7446 182.524 60.5663 183.034 61.4384 183.415C64.653 184.826 68.0439 185.531 71.5355 185.789C77.2531 186.214 82.6432 185.09 87.6996 182.379C88.1373 182.146 88.534 181.838 88.981 181.542L88.9747 181.545ZM44.9469 216.332C46.4424 208.842 47.919 201.424 49.4177 193.915C41.641 193.305 33.9525 192.7 26.1979 192.089C24.2585 200.13 22.3411 208.071 20.3985 216.112C28.6222 216.187 36.7609 216.26 44.9469 216.332ZM45.4129 190.635C45.5797 190.647 45.7529 190.613 46.0709 190.594C45.6144 190.247 45.2901 190.005 44.9658 189.759C40.1361 186.123 35.3126 182.483 30.4766 178.859C30.1996 178.652 29.8564 178.475 29.5227 178.422C28.5529 178.274 27.5706 178.201 26.5915 178.094C23.2793 177.732 19.9671 177.37 16.655 177.011C15.7828 176.917 14.9107 176.832 14.0355 176.744C14.026 176.794 14.0134 176.844 14.0008 176.895C14.0638 176.967 14.1236 177.043 14.1897 177.112C17.8356 180.963 21.4847 184.807 25.1211 188.664C25.4076 188.966 25.7162 189.108 26.1192 189.136C27.5769 189.237 29.0346 189.356 30.4955 189.47C33.2913 189.69 36.0872 189.914 38.8861 190.131C41.0617 190.301 43.2373 190.468 45.4129 190.632V190.635ZM23.2541 191.806C23.3737 191.312 23.2919 190.981 22.9298 190.603C19.0541 186.542 15.2004 182.461 11.3372 178.387C11.1767 178.217 11.0035 178.063 10.7863 177.849C10.7138 178.139 10.6572 178.343 10.6099 178.551C10.3864 179.558 10.2006 180.572 9.94247 181.57C8.28009 188.006 6.28083 194.334 3.88801 200.537C3.57632 201.343 3.51335 201.182 4.18082 201.809C8.51623 205.883 12.8548 209.954 17.1933 214.024C17.3476 214.169 17.5113 214.298 17.7412 214.494C17.8199 214.217 17.8703 214.059 17.9112 213.895C19.6901 206.531 21.4658 199.167 23.2572 191.806H23.2541Z" fill="black"/>
<path d="M209.812 174.86C209.834 175.868 209.828 176.875 209.821 177.883C209.821 178.216 209.783 178.547 209.761 178.903C206.953 179.416 204.182 179.917 201.424 180.42C200.832 179.529 200.316 178.664 199.708 177.864C198.984 176.91 198.213 175.987 197.413 175.099C196.604 174.199 195.609 173.525 194.548 172.952C193.991 172.653 193.452 172.641 192.826 172.829C191.567 173.207 190.282 173.522 188.988 173.761C184.983 174.511 180.975 175.235 176.961 175.928C173.608 176.507 170.252 177.074 166.883 177.558C164.178 177.949 161.458 178.226 158.744 178.522C157.101 178.701 155.448 178.815 153.801 178.975C153.124 179.041 152.491 179.208 151.969 179.709C151.732 179.935 151.421 180.118 151.109 180.222C150.363 180.464 149.85 180.99 149.34 181.532C147.523 183.465 146.223 185.713 145.306 188.194C143.912 191.969 143.238 195.867 143.197 199.884C143.194 200.24 143.197 200.596 143.197 200.92C139.035 202.308 134.948 203.672 130.858 205.032C130.82 205.044 130.77 205.007 130.688 204.981C130.672 204.808 130.644 204.622 130.641 204.437C130.521 199.878 130.622 195.322 130.852 190.766C131.132 185.278 131.639 179.81 132.244 174.35C132.801 169.347 133.424 164.348 134.048 159.351C135.307 149.257 137.114 139.254 138.925 129.252C140.247 121.938 141.516 114.615 142.725 107.282C143.735 101.155 144.677 95.0156 145.549 88.8699C146.232 84.0527 146.802 79.2167 147.34 74.3807C147.901 69.3526 148.379 64.3151 148.867 59.2776C149.11 56.7715 149.296 54.2621 149.506 51.7528C149.547 51.7497 149.585 51.7434 149.626 51.7402C149.692 51.8882 149.765 52.033 149.824 52.1842C155.123 65.8736 159.739 79.796 163.942 93.857C164.065 94.2694 164.178 94.6882 164.307 95.1006C164.493 95.6925 164.852 96.1144 165.488 96.2309C166.121 96.3443 166.543 96.0326 166.99 95.5949C167.601 94.9904 167.862 94.2789 168.104 93.4855C171.42 82.5698 174.515 71.5849 178.132 60.7574C178.242 60.4299 178.356 60.1025 178.469 59.7782C178.519 59.7782 178.573 59.7845 178.623 59.7877C178.73 60.2662 178.856 60.7385 178.944 61.2202C180.103 67.6367 181.337 74.0407 182.383 80.4761C183.034 84.4967 183.403 88.5645 183.894 92.6102C183.995 93.4445 184.07 94.2789 184.174 95.1132C184.297 96.0924 184.93 96.5332 185.918 96.5048C186.942 96.4765 187.555 96.0042 188.078 95.1321C190.071 91.8262 192.146 88.5707 194.18 85.2869C196.557 81.4553 198.928 77.6236 201.286 73.7794C202.876 71.1819 204.437 68.5655 206.012 65.9586C206.071 65.861 206.141 65.7666 206.317 65.5115C206.43 66.4907 206.544 67.303 206.619 68.1184C207.032 72.6113 207.208 77.1167 207.375 81.6253C207.683 89.9655 208.071 98.3057 208.316 106.652C208.606 116.387 208.795 126.125 209.003 135.864C209.157 143.083 209.258 150.302 209.406 157.522C209.525 163.302 209.683 169.083 209.818 174.86H209.812ZM202.419 107.896C202.432 107.657 202.441 107.414 202.404 107.178C202.259 106.265 201.49 105.717 200.581 105.868C200.344 105.909 200.115 105.982 199.885 106.045C190.518 108.585 181.155 111.123 171.791 113.664C171.306 113.796 170.812 113.909 170.34 114.07C169.502 114.357 169.153 114.98 169.272 115.861C169.313 116.167 169.316 116.482 169.291 116.79C168.983 120.59 168.662 124.391 168.353 128.191C168.041 132.016 167.739 135.842 167.431 139.664C167.1 143.75 166.763 147.837 166.433 151.924C166.414 152.138 166.401 152.358 166.423 152.569C166.502 153.388 167.094 153.936 167.912 153.92C168.243 153.914 168.577 153.835 168.898 153.75C178.91 151.124 188.919 148.492 198.928 145.86C200.108 145.551 200.464 145.126 200.536 143.892C200.656 141.833 200.754 139.774 200.861 137.712C201.069 133.713 201.276 129.715 201.484 125.713H201.494C201.582 123.915 201.664 122.121 201.761 120.323C201.978 116.179 202.205 112.036 202.426 107.893L202.419 107.896Z" fill="#DBA2A2"/>
<path d="M202.404 107.179C202.441 107.415 202.432 107.658 202.419 107.897C202.199 112.04 201.975 116.184 201.755 120.327C201.661 122.122 201.576 123.919 201.487 125.717H201.478C201.27 129.719 201.062 133.717 200.855 137.716C200.748 139.775 200.653 141.837 200.53 143.896C200.458 145.131 200.102 145.556 198.921 145.864C188.913 148.496 178.904 151.128 168.892 153.754C168.57 153.839 168.234 153.915 167.906 153.924C167.088 153.94 166.496 153.392 166.417 152.574C166.395 152.363 166.411 152.142 166.426 151.928C166.757 147.841 167.091 143.755 167.424 139.668C167.733 135.843 168.035 132.017 168.347 128.195C168.655 124.395 168.977 120.595 169.285 116.795C169.31 116.489 169.307 116.171 169.266 115.866C169.147 114.987 169.496 114.361 170.334 114.074C170.809 113.914 171.3 113.797 171.785 113.668C181.152 111.127 190.515 108.59 199.879 106.049C200.108 105.986 200.341 105.914 200.574 105.873C201.484 105.721 202.253 106.269 202.397 107.182L202.404 107.179ZM197.747 140.77C198.298 130.242 198.843 119.789 199.397 109.235C197.464 109.758 195.622 110.255 193.815 110.743C193.815 111.31 193.837 111.763 193.815 112.214C193.682 114.657 193.534 117.1 193.399 119.54C193.078 125.261 192.766 130.985 192.433 136.708C192.407 137.127 192.524 137.363 192.867 137.587C194.372 138.572 195.861 139.58 197.357 140.578C197.448 140.641 197.558 140.676 197.757 140.77H197.747ZM196.305 143.509C196.132 143.352 196.056 143.264 195.965 143.204C194.375 142.136 192.773 141.079 191.189 139.999C190.874 139.788 190.575 139.8 190.235 139.87C184.357 141.009 178.479 142.146 172.6 143.282C171.76 143.446 170.922 143.619 170.041 143.796C169.858 146.034 169.679 148.222 169.487 150.555C178.491 148.191 187.348 145.864 196.308 143.512L196.305 143.509Z" fill="black"/>
<path d="M201.881 191.13C202.319 194.921 202.001 198.645 200.839 202.291C200.433 203.563 199.803 204.712 198.84 205.66C198.556 205.94 198.244 206.095 197.845 206.17C191.472 207.42 185.093 208.645 178.819 210.348C174.234 211.595 169.745 213.122 165.337 214.891C165.076 214.995 164.811 215.086 164.44 215.222C164.521 214.995 164.553 214.866 164.613 214.753C166.011 212.136 166.757 209.319 167.154 206.403C167.538 203.569 167.689 200.723 167.472 197.861C167.094 192.874 165.825 188.177 162.988 183.996C162.44 183.19 161.735 182.487 161.102 181.738C160.998 181.618 160.885 181.508 160.693 181.304C161.508 181.209 162.211 181.127 162.916 181.052C168.041 180.495 173.117 179.591 178.195 178.709C181.759 178.089 185.323 177.459 188.881 176.801C190.269 176.543 191.645 176.206 193.018 175.869C193.408 175.775 193.723 175.813 194.016 176.071C194.573 176.559 195.19 177 195.678 177.548C199.132 181.436 201.286 185.935 201.884 191.13H201.881Z" fill="#7A8125"/>
<path d="M204.161 62.9873C203.896 64.02 187.817 90.2686 186.778 91.3926C186.737 91.2383 186.687 91.1093 186.671 90.977C185.708 81.4309 184.036 71.995 182.219 62.5371C189.59 62.6882 196.863 62.8331 204.158 62.9842L204.161 62.9873Z" fill="#FFC2C2"/>
<path d="M199.397 109.234C198.846 119.788 198.298 130.241 197.747 140.769C197.549 140.675 197.442 140.64 197.347 140.577C195.852 139.579 194.363 138.572 192.858 137.586C192.518 137.363 192.401 137.126 192.423 136.708C192.76 130.987 193.072 125.263 193.39 119.539C193.525 117.096 193.673 114.656 193.805 112.213C193.831 111.763 193.805 111.309 193.805 110.742C195.613 110.254 197.454 109.757 199.388 109.234H199.397Z" fill="#FFC2C2"/>
<path d="M195.965 143.2C196.059 143.263 196.135 143.351 196.305 143.505C187.345 145.857 178.488 148.184 169.483 150.548C169.675 148.218 169.852 146.027 170.038 143.788C170.919 143.612 171.757 143.439 172.597 143.275C178.475 142.135 184.353 141.002 190.232 139.862C190.572 139.796 190.871 139.78 191.186 139.991C192.769 141.068 194.372 142.126 195.962 143.196L195.965 143.2Z" fill="#FFC2C2"/>
<path d="M176.757 55.2435C176.65 55.6371 176.574 55.9551 176.476 56.2636C174.965 60.9863 173.404 65.6964 171.943 70.4348C170.025 76.6624 168.187 82.9184 166.31 89.1586C166.216 89.4703 166.112 89.782 165.967 90.2259C162.179 78.1107 158.294 66.1844 153.83 54.3809C161.499 54.8216 169.093 54.7146 176.757 55.2435Z" fill="#FFC2C2"/>
<path d="M167.538 13.3018C167.859 13.6134 167.963 13.9377 167.909 14.3911C167.68 16.318 167.443 18.248 167.289 20.1811C167.075 22.8573 166.908 25.5366 166.757 28.2191C166.53 32.1956 166.53 36.1784 166.656 40.158C166.773 43.8732 166.974 47.5852 167.437 51.2752C167.459 51.4389 167.437 51.6089 167.437 51.8954C162.481 51.6939 157.567 51.8167 152.643 51.2626C152.539 51.0012 152.438 50.762 152.347 50.5195C151.774 49.0177 151.204 47.5191 150.634 46.0173C150.47 45.5796 150.262 45.1483 149.809 44.9814C149.488 44.8618 149.11 44.8177 148.77 44.8586C147.599 45.0035 146.437 44.8964 145.212 44.9027C145.411 43.9015 145.622 42.9696 145.779 42.0313C146.862 35.555 147.986 29.0849 148.99 22.596C149.526 19.139 149.903 15.6568 150.036 12.1526C150.051 11.7527 150.203 11.4757 150.486 11.2269C151.002 10.7736 151.597 10.4776 152.246 10.2824C156.44 9.00413 160.526 9.256 164.49 11.1608C165.624 11.7055 166.631 12.4296 167.535 13.3049L167.538 13.3018Z" fill="#F96969"/>
<path d="M164.292 195.932C164.474 197.503 164.575 199.081 164.648 199.928C164.559 204.052 164.254 207.408 163.174 210.655C162.746 211.933 162.192 213.151 161.49 214.3C160.869 215.314 160.095 216.183 159.11 216.86C157.34 218.072 155.501 218.173 153.612 217.191C151.632 216.164 150.259 214.518 149.085 212.673C147.451 210.11 146.632 207.276 146.339 204.279C146.056 201.385 146.04 198.486 146.459 195.599C146.818 193.124 147.432 190.715 148.395 188.401C149.091 186.726 150.01 185.193 151.229 183.845C152.258 182.706 153.543 182.095 155.086 182.092C156.122 182.092 157.05 182.473 157.919 183.011C159.128 183.757 160.041 184.79 160.791 185.983C162.705 189.037 163.876 192.356 164.289 195.936L164.292 195.932Z" fill="#B4BD57"/>
<path d="M146.708 47.8266C146.843 48.5665 146.755 49.2309 146.702 49.8857C146.437 53.1129 146.173 56.34 145.877 59.5672C145.584 62.744 145.256 65.9176 144.938 69.0913C144.69 71.5722 144.454 74.0563 144.164 76.5342C143.783 79.796 143.393 83.0609 142.945 86.3132C142.429 90.0662 141.869 93.8128 141.293 97.5563C140.622 101.917 139.932 106.274 139.211 110.629C138.494 114.958 137.744 119.281 136.976 123.6C136.148 128.251 135.248 132.888 134.448 137.542C133.61 142.409 132.792 147.283 132.074 152.169C131.34 157.175 130.676 162.194 130.106 167.219C129.41 173.368 128.768 179.523 128.236 185.688C127.738 191.449 127.562 197.233 127.65 203.017C127.66 203.659 127.65 204.304 127.65 205.035C123.05 203.533 118.463 202.037 113.81 200.517C113.929 199.465 114.027 198.467 114.156 197.472C114.811 192.4 115.916 187.413 117.027 182.429C118.422 176.176 119.559 169.876 120.368 163.523C121.171 157.194 121.993 150.866 122.449 144.5C122.676 141.342 122.849 138.181 123.05 135.023C123.06 134.859 123.082 134.695 123.104 134.447C123.34 134.538 123.529 134.604 123.715 134.68C124.426 134.963 125.132 135.259 125.849 135.527C126.067 135.608 126.315 135.643 126.552 135.643C127.232 135.646 127.757 135.24 127.94 134.607C128.11 134.015 127.89 133.395 127.358 133.03C127.2 132.923 127.027 132.828 126.844 132.772C124.845 132.155 123.113 131.037 121.423 129.847C119.414 128.433 117.588 126.805 115.913 125.017C113.992 122.964 112.179 120.823 110.674 118.443C109.027 115.843 107.847 113.05 107.387 109.99C107.116 108.189 107.189 106.407 107.862 104.675C108.624 102.713 110.073 101.464 111.943 100.642C114.087 99.6973 116.319 99.6658 118.577 100.1C120.654 100.5 122.544 101.353 124.275 102.562C124.94 103.025 125.582 103.066 126.139 102.654C126.816 102.153 126.951 101.221 126.359 100.56C125.982 100.141 125.506 99.7791 125.018 99.4958C122.452 98.0097 119.716 97.04 116.725 96.9046C116.612 96.8983 116.499 96.8668 116.363 96.8416C116.539 95.9695 116.754 95.132 116.87 94.282C117.415 90.2236 117.144 86.2471 115.655 82.3903C114.247 78.7444 111.801 76.0556 108.246 74.4499C106.294 73.5683 104.22 73.1905 102.076 73.7163C100.13 74.1949 98.6437 75.3818 97.3906 76.8899C95.8069 78.7948 94.8467 81.0081 94.3776 83.423C93.2724 89.087 94.132 94.4583 97.0128 99.458C98.6846 102.361 101.096 104.455 104.333 105.503C104.377 105.519 104.415 105.55 104.522 105.613C104.059 107.997 104.361 110.38 104.956 112.82C104.009 112.776 103.174 112.757 102.343 112.694C99.4245 112.48 96.5059 112.278 93.5936 112.014C91.0622 111.784 88.5435 111.447 86.0751 110.818C85.9114 110.777 85.7477 110.736 85.584 110.72C84.6205 110.622 84.0538 110.975 83.6508 111.857C83.2635 112.707 82.8731 113.557 82.4292 114.378C81.9727 115.229 81.3745 115.981 80.6377 116.614C79.1895 117.861 77.505 117.612 76.4723 115.997C75.8112 114.964 75.4932 113.805 75.3987 112.6C75.298 111.337 75.2696 110.065 75.2445 108.796C75.2319 108.154 74.9768 107.682 74.4227 107.386C74.1079 107.219 73.7678 107.093 73.4309 106.967C70.0747 105.723 66.8003 104.31 63.7778 102.364C62.4019 101.479 61.0733 100.535 59.9115 99.3824C59.4235 98.9007 59.0016 98.3372 58.6238 97.7641C58.1264 97.0148 57.3865 96.7126 56.6655 97.0557C55.9508 97.3958 55.6548 98.1923 55.9728 99.0172C56.2688 99.7917 56.7757 100.434 57.355 101.016C58.5766 102.244 59.9021 103.349 61.3535 104.297C63.2237 105.519 65.1379 106.659 67.1718 107.584C67.2568 107.625 67.3387 107.679 67.4269 107.729C67.4269 108.472 67.4646 109.212 67.4206 109.945C67.0396 116.756 66.964 123.566 67.3009 130.376C67.4898 134.185 67.7889 137.989 68.0597 141.792C68.129 142.771 68.2581 143.75 68.4029 144.72C68.469 145.167 68.4155 145.567 68.2706 145.983C66.6807 150.582 65.1253 155.195 63.5165 159.785C62.4366 162.861 61.2842 165.912 60.1728 168.976C60.0532 169.303 59.9115 169.574 59.5652 169.722C57.2952 170.692 55.0346 171.68 52.7677 172.659C52.7047 172.688 52.6323 172.691 52.4655 172.725C52.5568 172.363 52.6323 172.045 52.7142 171.731C53.6335 168.28 54.6347 164.848 55.4533 161.372C57.0024 154.789 58.2523 148.142 59.1527 141.436C59.7541 136.94 60.2201 132.432 60.368 127.898C60.6231 120.121 59.3039 112.615 56.4577 105.377C55.3872 102.657 54.2569 99.9586 53.4383 97.1408C52.5442 94.0584 51.9963 90.9289 52.0782 87.708C52.1191 86.1401 52.3553 84.6068 52.9346 83.1365C54.1121 80.1454 56.7883 78.6405 59.9902 79.0057C62.8837 79.3363 65.4717 80.5264 67.9338 82.0093C68.8563 82.5666 69.7158 83.2215 70.6099 83.8291C70.887 84.018 71.1609 84.2793 71.4695 84.3329C72.0016 84.4273 72.2251 84.7201 72.3951 85.1861C72.5809 85.6993 72.8548 86.1779 73.1255 86.7477C72.5683 86.8264 72.0582 86.8894 71.5513 86.9681C70.2069 87.1759 68.9413 87.6041 67.8519 88.4447C67.4741 88.7344 67.1246 89.0744 66.8192 89.4396C66.6272 89.6695 66.4792 89.9717 66.4131 90.2645C65.9251 92.4527 66.1895 94.5401 67.2411 96.5394C68.1447 98.2584 69.297 99.7791 70.7327 101.079C74.0386 104.067 77.8734 106.06 82.2151 107.058C84.1357 107.499 86.0688 107.55 87.9768 106.964C90.6089 106.155 92.3783 104.486 92.9859 101.741C93.2504 100.544 93.1339 99.3541 92.7215 98.1986C92.0068 96.1931 90.8544 94.4772 89.2613 93.0635C87.9642 91.9143 86.5914 90.8722 85.0424 90.0819C84.9385 90.0316 84.8441 89.9591 84.7276 89.8867C84.7716 89.8017 84.7905 89.7262 84.8378 89.6884C87.3754 87.6482 89.1763 85.0381 90.6561 82.1825C92.1359 79.3331 93.2504 76.3642 93.7353 73.1716C94.1099 70.7001 94.1036 68.2475 93.5023 65.8137C93.348 65.1935 93.1024 64.5953 92.8915 63.9687C94.1949 63.8774 95.4764 63.7861 96.7704 63.6948C96.7987 63.7169 96.8522 63.7389 96.868 63.7767C97.7842 66.1506 99.5158 67.8161 101.632 69.0913C104.487 70.8103 107.551 72.0445 110.841 72.6458C112.576 72.9638 114.317 73.0268 116.051 72.5734C117.27 72.2554 118.318 71.6635 119.168 70.7379C120.103 69.7178 120.459 68.5277 120.195 67.1487C119.984 66.0404 119.54 65.0518 118.854 64.1608C118.161 63.2635 117.358 62.4764 116.461 61.7837C113.212 59.2775 109.603 57.5805 105.526 56.9603C104.006 56.7305 102.475 56.636 100.914 56.8721C100.816 56.7242 100.722 56.5919 100.643 56.4502C99.5599 54.4825 98.0927 52.8705 96.2414 51.589C93.6975 49.8291 90.93 48.6295 87.8571 48.1793C86.2042 47.9368 84.5607 47.9117 82.9393 48.3997C81.5476 48.8184 80.3764 49.5709 79.4161 50.6634C78.0623 52.2061 77.7412 53.9567 78.352 55.8993C78.6826 56.9477 79.2398 57.8607 79.9577 58.6825C80.1308 58.8808 80.3103 59.0729 80.5212 59.3027C80.4079 59.3972 80.3166 59.5042 80.2033 59.5641C77.9332 60.7982 76.1701 62.5677 74.8226 64.7495C72.2849 68.8646 70.9657 73.3448 70.909 78.184C70.9027 78.6846 70.972 79.1883 71.0066 79.6889C71.0224 79.9188 71.0381 80.1454 71.0539 80.3879C69.2467 79.393 67.4898 78.4264 65.6165 77.3969C66.6114 65.3226 66.199 53.1412 65.3898 40.8906C65.7267 40.9221 66.0541 40.9473 66.3784 40.9882C70.399 41.4951 74.4133 42.0272 78.437 42.4995C81.8436 42.8993 85.2534 43.2425 88.6663 43.5825C91.459 43.8628 94.2516 44.1052 97.0474 44.3571C100.105 44.6341 103.162 44.908 106.219 45.1757C109.182 45.4338 112.144 45.6889 115.107 45.9376C118.262 46.2052 121.413 46.4917 124.571 46.7215C128.016 46.9734 131.46 47.1844 134.911 47.3859C137.281 47.5244 139.652 47.6157 142.026 47.7165C143.175 47.7668 144.328 47.7983 145.477 47.8329C145.88 47.8455 146.286 47.8329 146.72 47.8329L146.708 47.8266Z" fill="#FFC2C2"/>
<path d="M136.834 8.12824C137.004 8.38327 137.086 8.61625 137.055 8.9248C136.494 14.3905 136.091 19.8656 135.852 25.3534C135.619 30.6963 135.461 36.0424 135.669 41.3916C135.698 42.1566 135.761 42.9217 135.801 43.6899C135.814 43.9229 135.801 44.1591 135.801 44.4676C128.003 44.1528 120.327 43.4097 112.575 42.7454C112.619 42.4243 112.648 42.1692 112.698 41.9174C114.096 34.6445 115.5 27.3715 116.627 20.0514C117.355 15.3319 117.877 10.5903 118.107 5.82043C118.142 5.11203 118.381 4.69014 119.027 4.3753C120.409 3.70153 121.873 3.32372 123.378 3.20722C126.048 3.00258 128.692 3.23241 131.268 4.04156C133.585 4.76885 135.48 6.07861 136.837 8.1251L136.834 8.12824Z" fill="#F96969"/>
<path d="M118.413 152.163C118.649 153.36 118.514 154.493 118.362 155.645C117.714 160.563 117.037 165.478 116.369 170.393C116.325 170.723 116.253 171.051 116.209 171.284C115.696 171.583 115.29 171.781 114.927 172.043C113.596 172.993 112.091 173.532 110.523 173.919C106.531 174.905 102.582 174.618 98.6752 173.444C97.2489 173.015 97.2458 172.943 97.1041 171.473C96.5846 166.127 95.8007 160.815 94.7176 155.554C94.1572 152.834 93.5338 150.123 92.9419 147.409C92.9009 147.227 92.8726 147.044 92.8222 146.783C97.1419 147.875 101.399 147.516 105.621 146.672C109.843 145.829 113.791 144.267 117.317 141.562C117.352 141.811 117.386 141.988 117.396 142.161C117.556 145.514 117.761 148.87 118.416 152.166L118.413 152.163Z" fill="#7A8125"/>
<path d="M116.895 66.5606C117.629 68.0718 117.449 68.7834 115.828 69.5201C114.905 69.9388 113.888 69.9955 112.865 69.9262C110.186 69.7468 107.73 68.8117 105.318 67.7255C103.98 67.1241 102.68 66.4378 101.61 65.4208C101.008 64.8509 100.482 64.1835 99.9912 63.5129C99.6197 63.0028 99.5315 62.3763 99.5221 61.734C99.5095 60.6541 100.243 59.9898 101.194 59.8103C101.802 59.6938 102.434 59.7095 102.768 59.6875C105.935 59.7851 108.643 60.5344 111.165 61.8977C112.298 62.5117 113.385 63.2295 114.436 63.9757C115.075 64.4291 115.626 65.0147 116.181 65.5751C116.464 65.8616 116.716 66.2016 116.892 66.5637L116.895 66.5606Z" fill="#F96969"/>
<path d="M116.155 136.725C116.521 136.87 116.678 137.169 116.552 137.534C116.429 137.89 116.306 138.287 116.061 138.551C115.595 139.058 115.082 139.54 114.518 139.937C111.974 141.725 109.106 142.786 106.118 143.548C104.072 144.071 101.99 144.335 99.8904 144.439C99.5693 144.455 99.245 144.467 98.9207 144.477C98.7601 144.48 98.5964 144.483 98.4358 144.486C98.2469 144.486 98.0612 144.486 97.8723 144.48C96.5499 144.461 95.2307 144.385 93.9524 143.982C93.4109 143.812 92.8662 143.589 92.3814 143.296C91.6006 142.83 91.5155 142.276 92.1106 141.577C92.479 141.143 92.9009 140.724 93.3763 140.418C94.2767 139.833 95.2055 139.272 96.1752 138.813C99.607 137.176 103.262 136.338 107.018 135.913C107.683 135.837 108.353 135.803 109.024 135.759C111.096 135.614 113.123 135.982 115.141 136.376C115.491 136.442 115.825 136.59 116.158 136.725H116.155Z" fill="#B4BD57"/>
<path d="M113.152 176.203C113.92 175.942 114.653 175.589 115.522 175.231C115.06 177.453 114.613 179.594 114.184 181.65C113.63 181.974 113.174 182.28 112.683 182.519C111.045 183.316 109.421 184.144 107.749 184.858C100.734 187.856 93.5022 190.271 86.308 192.786C81.8089 194.364 77.2877 195.887 72.8232 197.559C69.3442 198.863 65.9628 200.415 62.7482 202.298C61.3975 203.085 60.113 203.973 59.0016 205.078C58.46 205.616 57.9563 206.202 57.4777 206.8C56.2372 208.34 55.6768 210.109 55.7429 212.083C55.7492 212.269 55.7429 212.451 55.7429 212.754C53.6209 211.378 51.5807 210.052 49.4838 208.692C49.679 207.697 49.8742 206.668 50.0789 205.638C50.8628 201.712 51.6531 197.786 52.4371 193.86C52.4748 193.671 52.4969 193.482 52.5221 193.29C52.6575 192.327 52.3521 191.609 51.5335 191.001C47.5286 188.029 43.5553 185.01 39.5694 182.009C39.3647 181.852 39.1601 181.691 38.9113 181.499C45.3594 178.861 51.735 176.251 58.2208 173.593C58.1389 173.864 58.1011 174.037 58.035 174.201C57.2636 176.112 56.4891 178.023 55.7083 179.931C55.5918 180.218 55.4596 180.504 55.299 180.769C54.9527 181.342 54.981 181.908 55.2896 182.478C55.6957 183.234 56.2908 183.823 56.9834 184.314C58.3026 185.246 59.7352 185.973 61.2433 186.54C66.3784 188.476 71.6835 189.178 77.1429 188.649C81.3461 188.243 85.3131 187.028 89.0189 185C89.7493 184.6 90.4199 184.078 91.0842 183.571C91.9752 182.891 92.2397 181.666 91.7895 180.586C90.7757 178.152 89.7682 175.712 88.8614 173.238C87.7847 170.287 86.8181 167.3 85.8043 164.327C85.7759 164.239 85.7602 164.148 85.7193 163.975C88.0743 162.999 90.3695 162.048 92.7435 161.062C92.9544 162.416 93.1779 163.666 93.3354 164.922C93.6534 167.444 93.9178 169.973 94.2516 172.491C94.3366 173.124 94.5444 173.751 94.7774 174.346C94.8938 174.635 95.1552 174.919 95.4259 175.089C96.0115 175.457 96.6097 175.844 97.2583 176.059C102.535 177.79 107.837 178.001 113.145 176.197L113.152 176.203Z" fill="#F96969"/>
<path d="M113.998 87.7403C114.326 90.3032 114.279 92.8597 113.646 95.3816C113.501 95.9609 113.306 96.5276 113.114 97.1762C109.801 97.9696 107.147 99.6509 105.457 102.78C105.148 102.67 104.836 102.579 104.534 102.453C102.472 101.593 100.91 100.145 99.7296 98.2782C98.0829 95.6713 97.2549 92.7936 96.9495 89.7459C96.7008 87.2618 96.8928 84.8154 97.6799 82.432C98.275 80.628 99.2038 79.0254 100.643 77.7503C101.893 76.6452 103.313 76.2422 104.969 76.5444C107.96 77.0923 110.186 78.7547 111.791 81.2577C113.054 83.2254 113.702 85.4325 113.995 87.7403H113.998ZM109.32 93.1462C110.104 89.897 109.956 86.6699 108.822 83.5246C108.52 82.6808 108.004 81.9031 107.5 81.1506C107.217 80.7224 106.798 80.3635 106.382 80.0455C104.663 78.72 102.658 78.9499 101.282 80.6154C100.586 81.4592 100.129 82.432 99.8555 83.4899C99.4997 84.8689 99.3455 86.27 99.3203 87.9513C99.3392 88.2661 99.3486 88.8423 99.4084 89.4121C99.6162 91.4209 100.18 93.3099 101.364 94.9754C102.012 95.8885 102.891 96.4867 103.955 96.811C105.803 97.3777 107.632 96.6851 108.58 95.0006C108.904 94.4213 109.169 93.7853 109.326 93.1399L109.32 93.1462Z" fill="#F5DEBB"/>
<path d="M113.277 185.626C113.224 185.925 113.189 186.177 113.136 186.423C112.301 190.292 111.599 194.184 111.096 198.11C111.089 198.157 111.086 198.204 111.08 198.251C110.998 198.793 111.067 199.438 110.787 199.841C110.523 200.219 109.893 200.345 109.421 200.575C105.86 202.31 102.11 203.591 98.4578 205.102C91.018 208.185 83.553 211.21 76.0125 214.038C73.4245 215.007 70.7861 215.798 68.0721 216.305C66.1516 216.664 64.2058 216.821 62.3231 216.103C61.5895 215.823 60.8685 215.47 60.2104 215.045C59.2218 214.406 58.7338 213.436 58.6835 212.253C58.6268 210.915 58.9416 209.702 59.776 208.619C60.7992 207.284 62.0491 206.223 63.4533 205.323C65.8052 203.815 68.346 202.681 70.8837 201.545C74.7626 199.807 78.7957 198.494 82.8005 197.096C89.9507 194.599 97.0945 192.087 104.197 189.467C107.182 188.365 110.06 186.971 112.988 185.711C113.051 185.683 113.12 185.67 113.277 185.623V185.626Z" fill="#F96969"/>
<path d="M108.822 83.5238C109.956 86.6691 110.107 89.8963 109.32 93.1455C109.165 93.7877 108.901 94.4269 108.574 95.0062C107.626 96.6906 105.797 97.3833 103.948 96.8166C102.884 96.4923 102.006 95.8941 101.357 94.981C100.173 93.3155 99.6131 91.4264 99.4021 89.4177C99.3423 88.8447 99.3329 88.2685 99.314 87.9568C99.3423 86.2756 99.4934 84.8745 99.8492 83.4955C100.123 82.4376 100.58 81.4647 101.275 80.6209C102.651 78.9523 104.66 78.7256 106.376 80.0511C106.792 80.3691 107.21 80.728 107.494 81.1562C107.994 81.9087 108.511 82.6863 108.816 83.5301L108.822 83.5238Z" fill="black"/>
<path d="M98.1492 57.9749C97.4534 58.6959 96.9843 59.4641 96.7702 60.3709C96.6915 60.7078 96.4144 60.7361 96.1531 60.7487C94.9095 60.8085 93.6658 60.9408 92.4285 60.8935C89.8657 60.7928 87.4036 60.2198 85.1115 59.0202C84.0631 58.4692 83.1312 57.7608 82.3157 56.9044C81.7112 56.2716 81.2673 55.5443 81.0595 54.6785C80.8895 53.9732 81.0248 53.3561 81.4688 52.7863C82.385 51.6056 83.6318 51.0767 85.08 50.9822C87.0541 50.8563 88.9526 51.2498 90.7661 51.9803C93.1684 52.9468 95.3786 54.2251 97.0126 56.3094C97.4219 56.832 97.7651 57.405 98.1492 57.9749Z" fill="#F96969"/>
<path d="M90.9233 68.0599C91.2634 70.6825 90.873 73.2328 90.1299 75.7295C89.2074 78.8307 87.7654 81.6958 85.8764 84.3247C85.0074 85.5369 83.9873 86.6168 82.7846 87.5173C82.687 87.5897 82.5894 87.6558 82.4918 87.7251C81.8086 88.2288 81.1159 88.5248 80.269 88.0399C79.9258 87.8416 79.4976 87.7817 79.1072 87.6747C78.6192 87.5456 78.1406 87.426 77.8163 86.9789C77.7125 86.8372 77.5047 86.7396 77.3283 86.6955C76.5885 86.5129 76.154 85.984 75.7825 85.3795C75.0835 84.246 74.6175 83.0181 74.3216 81.7241C74.0225 80.4112 73.8336 79.0857 73.8273 77.65C74.054 73.3052 75.2882 69.2028 77.8289 65.5348C78.6822 64.3006 79.7589 63.2774 81.0341 62.4777C81.3584 62.2762 81.6984 62.0936 82.0447 61.9299C82.8192 61.5646 83.5371 61.423 84.3966 61.911C85.6875 62.6446 87.1263 63.0696 88.5903 63.3655C88.8705 63.4222 89.0846 63.5104 89.1822 63.8063C89.2263 63.9386 89.3113 64.0645 89.4058 64.1715C90.3755 65.2861 90.7407 66.6305 90.9233 68.0599ZM89.8025 71.3122C89.8371 70.1095 89.6419 68.9698 88.9115 67.9717C88.1055 66.8729 87.0381 66.3566 85.6686 66.5486C85.0137 66.6399 84.4312 66.9138 83.896 67.2948C82.8696 68.0221 81.9503 68.8722 81.2828 69.9395C80.6877 70.8935 80.1242 71.8758 79.6456 72.8896C78.6381 75.0116 78.0273 77.2439 77.9423 79.6021C77.9108 80.9591 78.1879 82.231 79.0065 83.3393C80.1556 84.8946 81.9093 85.1811 83.4993 84.0855C84.2738 83.5502 84.9318 82.8922 85.5049 82.1429C87.1232 80.0177 88.2597 77.6532 89.0406 75.1124C89.4215 73.8719 89.7647 72.6251 89.8025 71.3154V71.3122Z" fill="#F5DEBB"/>
<path d="M89.8435 98.9427C90.6369 100.999 89.8623 102.91 87.8662 103.851C86.9374 104.289 85.9488 104.437 84.9287 104.434C83.5749 104.405 82.2651 104.116 80.99 103.684C77.6558 102.554 74.6428 100.876 72.1429 98.3571C70.9307 97.1355 69.9673 95.7439 69.388 94.1067C69.0669 93.2031 68.9787 92.3027 69.2841 91.3613C69.4006 91.0055 69.5864 90.7851 69.8823 90.6057C70.9874 89.935 72.2185 89.7556 73.4715 89.7272C75.1906 89.6895 76.853 90.0641 78.4839 90.5647C81.6512 91.5344 84.617 92.882 87.1295 95.1111C88.3385 96.1815 89.2641 97.4409 89.8466 98.9427H89.8435Z" fill="#F96969"/>
<path d="M88.9117 67.9715C89.6422 68.9695 89.8374 70.1093 89.8027 71.312C89.7649 72.6217 89.4218 73.8685 89.0408 75.109C88.26 77.6498 87.1234 80.0174 85.5051 82.1395C84.9321 82.8888 84.2741 83.5468 83.4995 84.0821C81.9127 85.1777 80.1559 84.8912 79.0067 83.3359C78.1881 82.2276 77.9111 80.9588 77.9425 79.5987C78.0275 77.2405 78.6383 75.0083 79.6458 72.8862C80.1276 71.8724 80.688 70.8901 81.283 69.9361C81.9505 68.8656 82.8698 68.0187 83.8962 67.2914C84.4315 66.9136 85.0171 66.6365 85.6688 66.5452C87.0384 66.3532 88.1057 66.8695 88.9117 67.9683V67.9715Z" fill="black"/>
<path d="M88.6566 180.759C88.751 181.001 88.8486 181.241 88.9746 181.546C88.5275 181.842 88.1308 182.151 87.6932 182.384C82.6399 185.094 77.2498 186.218 71.529 185.793C68.0374 185.535 64.6465 184.833 61.432 183.42C60.5599 183.035 59.7381 182.525 58.9038 182.059C58.6802 181.933 58.4913 181.745 58.2583 181.562C58.378 181.241 58.4787 180.951 58.5921 180.665C60.1443 176.82 61.7027 172.979 63.2518 169.132C65.3581 163.902 67.0268 158.522 68.8592 153.198C69.9895 149.911 71.1418 146.633 72.2311 143.333C72.886 141.353 73.4402 139.344 74.0415 137.348C74.1013 137.144 74.1737 136.942 74.2934 136.58C74.4414 136.999 74.5547 137.276 74.6366 137.566C75.8802 141.822 77.1112 146.079 78.3612 150.332C80.5808 157.901 82.9673 165.414 85.5743 172.856C86.5062 175.523 87.6207 178.127 88.6503 180.762L88.6566 180.759Z" fill="#7A8125"/>
<path d="M49.4177 193.916C47.919 201.422 46.4424 208.84 44.9469 216.333C36.7641 216.26 28.6222 216.188 20.3985 216.112C22.3379 208.074 24.2553 200.131 26.1979 192.09C33.9525 192.701 41.641 193.305 49.4177 193.916Z" fill="#7A8125"/>
<path d="M46.071 190.593C45.753 190.615 45.5798 190.65 45.4129 190.634C43.2374 190.47 41.0618 190.303 38.8862 190.133C36.0872 189.916 33.2914 189.689 30.4956 189.472C29.0379 189.356 27.5801 189.239 26.1193 189.138C25.7163 189.11 25.4077 188.968 25.1212 188.666C21.4847 184.809 17.8357 180.965 14.1898 177.114C14.1237 177.045 14.0639 176.97 14.0009 176.897C14.0135 176.847 14.0229 176.796 14.0355 176.746C14.9076 176.834 15.7798 176.919 16.655 177.014C19.9672 177.373 23.2794 177.738 26.5915 178.097C27.5707 178.204 28.5499 178.276 29.5227 178.424C29.8565 178.475 30.2028 178.654 30.4767 178.862C35.3127 182.486 40.1361 186.125 44.9659 189.762C45.2901 190.007 45.6144 190.25 46.071 190.596V190.593Z" fill="#B4BD57"/>
<path d="M22.9297 190.604C23.2917 190.982 23.3736 191.312 23.254 191.807C21.4625 199.168 19.6899 206.532 17.9079 213.896C17.867 214.06 17.8166 214.217 17.7379 214.494C17.508 214.299 17.3412 214.17 17.1901 214.025C12.8515 209.954 8.51609 205.88 4.17753 201.809C3.51006 201.183 3.57303 201.343 3.88473 200.537C6.27755 194.335 8.27996 188.006 9.93919 181.571C10.1974 180.573 10.3863 179.559 10.6067 178.552C10.6507 178.347 10.7106 178.142 10.783 177.85C11.0034 178.064 11.1765 178.221 11.3339 178.388C15.1939 182.462 19.0508 186.546 22.9265 190.604H22.9297Z" fill="#B4BD57"/>
</svg>
