<svg width="800" height="800" viewBox="0 0 800 800" fill="none" xmlns="http://www.w3.org/2000/svg">
<path d="M762.092 497.393C764.302 501.103 765.542 505.173 765.502 509.603C765.462 514.423 763.512 518.183 759.692 521.013C755.902 523.823 751.572 525.253 746.902 525.743C739.572 526.513 732.372 525.553 725.272 523.923C717.972 522.243 710.762 520.213 703.272 518.273C703.032 519.513 702.762 520.983 702.472 522.453C701.422 527.933 700.212 533.363 697.762 538.433C696.382 541.303 694.592 543.863 692.192 545.983C687.702 549.923 682.552 550.963 676.822 549.493C676.352 549.373 675.902 549.193 675.442 549.053C675.062 548.933 674.672 548.833 674.022 548.653C671.212 569.733 661.772 587.403 646.862 602.393C647.122 602.683 647.362 602.993 647.642 603.263C661.382 616.553 670.862 632.513 677.262 650.423C680.722 660.123 682.922 670.123 684.472 680.273C685.682 688.253 686.712 696.263 687.572 704.283C688.252 710.633 688.162 717.023 687.552 723.393C687.322 725.853 685.762 727.533 683.292 727.833C682.172 727.973 681.032 727.943 679.902 727.943C632.732 727.943 585.562 727.963 538.382 727.903C535.972 727.903 534.162 728.533 532.282 730.083C512.192 746.673 489.752 759.013 464.852 766.743C453.352 770.313 441.532 771.953 429.482 771.393C415.232 770.733 401.552 767.423 388.372 762.013C361.522 751.003 337.742 735.273 316.912 715.123C300.142 698.913 284.972 681.323 271.912 661.953C264.982 651.673 259.062 640.863 254.362 629.393C254.102 628.753 253.792 628.123 253.052 627.523C253.032 628.343 252.982 629.173 252.982 629.993C253.052 639.603 253.152 649.213 253.172 658.823C253.172 660.833 252.992 662.863 252.682 664.843C252.042 668.993 249.872 672.173 246.202 674.293C241.802 676.823 237.022 678.263 232.062 679.063C223.572 680.433 215.162 680.263 206.952 677.393C205.432 676.863 203.942 676.223 202.492 675.523C196.022 672.423 192.782 667.123 192.642 660.083C192.562 656.063 193.072 652.023 193.322 647.993C193.442 646.063 193.602 644.143 193.742 642.333C186.702 639.143 181.492 634.023 176.672 628.453C175.892 627.553 175.242 626.943 173.902 626.953C159.442 627.053 144.982 626.963 130.532 627.133C110.342 627.373 90.1524 627.713 69.9624 628.153C62.7824 628.313 55.6124 628.893 48.4324 629.253C46.2524 629.363 44.0724 629.423 41.8924 629.433C39.6624 629.443 38.2324 628.293 37.0424 626.403C35.3224 623.663 34.9624 620.783 35.0024 617.633C35.2324 596.553 35.3424 575.473 35.5024 554.393C35.7224 526.693 35.8224 498.983 36.2524 471.283C36.4924 455.543 37.2924 439.803 37.8124 424.063C38.2524 410.983 38.6524 397.903 39.1024 384.833C39.6924 367.563 40.2024 350.283 40.9424 333.013C41.5324 319.133 42.5124 305.273 43.1424 291.393C43.5624 281.953 43.9624 272.503 43.8524 263.053C43.5224 235.353 42.8424 207.653 42.4624 179.953C42.1624 157.743 41.9024 135.533 42.6824 113.323C43.1924 98.7932 43.2024 84.2532 43.4924 69.7132C43.6524 61.4832 43.9324 53.2432 44.1524 45.0132C44.1524 44.7732 44.1524 44.5332 44.1524 44.2832C44.1424 40.0232 46.1424 37.9132 50.4324 37.7632C52.0424 37.7032 53.6624 37.8632 55.2724 37.8332C68.7524 37.5732 82.2424 37.3232 95.7224 37.0132C115.822 36.5432 135.932 36.0332 156.032 35.5432C169.592 35.2132 183.162 34.8532 196.722 34.5932C223.932 34.0732 251.152 33.6132 278.362 33.1132C296.122 32.7932 313.892 32.4932 331.662 32.1332C354.272 31.6832 376.882 31.0832 399.492 30.7332C428.642 30.2832 457.802 29.9932 486.962 29.6632C502.142 29.4932 517.332 29.3932 532.512 29.2632C533.482 29.2532 534.472 29.3532 535.412 29.1632C538.592 28.5332 541.262 29.8332 543.912 31.2432C545.362 32.0132 546.102 33.3532 546.312 34.9632C546.382 35.5232 546.382 36.0932 546.362 36.6532C545.912 50.6232 545.442 64.5832 545.012 78.5432C544.792 85.6432 544.722 92.7532 544.442 99.8532C543.902 113.653 543.252 127.453 542.692 141.243C542.262 151.813 541.922 162.393 541.492 172.963C541.122 182.163 540.592 191.363 540.282 200.563C539.662 219.373 539.152 238.183 538.602 256.993C538.582 257.703 538.602 258.423 538.602 259.673C539.652 258.813 540.382 258.263 541.062 257.653C550.512 249.383 560.572 241.973 571.642 235.993C578.042 232.533 584.612 229.463 591.492 227.063C592.092 226.853 592.672 226.613 593.232 226.403C593.362 224.433 593.252 222.543 593.632 220.753C595.712 210.743 601.582 203.623 610.632 199.083C615.222 196.783 620.182 195.553 625.302 195.223C638.782 194.353 651.492 197.063 663.162 204.013C668.692 207.313 673.542 211.433 677.142 216.863C681.212 223.003 683.192 229.663 682.132 237.073C681.732 239.833 680.922 242.413 679.232 244.623C679.312 244.833 679.332 245.013 679.422 245.123C690.562 258.203 697.272 273.473 701.412 289.953C704.832 303.553 706.352 317.413 706.422 331.453C706.512 350.553 704.992 369.533 702.572 388.453C701.892 393.743 701.282 399.033 700.582 404.313C700.402 405.663 700.052 406.973 699.732 408.503C701.612 410.123 703.642 411.833 705.632 413.583C707.692 415.393 709.822 417.143 711.712 419.123C722.262 430.113 731.792 441.923 739.562 455.053C744.572 463.523 749.172 472.243 753.952 480.853C754.222 481.343 754.482 481.853 754.692 482.383C756.822 487.593 759.242 492.583 762.092 497.393ZM753.122 513.513C755.152 512.283 755.932 510.523 755.562 508.183C755.142 505.503 754.042 503.083 752.732 500.763C750.372 496.603 747.482 492.823 744.322 489.253C737.422 481.473 729.552 474.823 720.942 469.033C717.812 466.933 714.632 464.893 711.272 462.703C709.972 464.683 708.882 466.283 707.852 467.913C706.042 470.773 704.222 473.633 702.482 476.543C701.142 478.773 700.882 481.153 701.342 483.763C702.232 488.843 702.962 493.953 703.592 499.073C703.942 501.863 703.952 504.693 704.112 507.473C710.972 510.313 718.072 512.143 725.212 513.793C731.512 515.243 737.872 516.333 744.382 516.013C747.492 515.863 750.432 515.153 753.122 513.513ZM733.662 465.963C733.912 466.143 734.242 466.223 734.942 466.523C730.592 459.033 726.242 452.143 721.302 445.643C714.252 436.383 706.862 427.403 697.882 419.893C682.082 406.663 664.802 395.693 646.412 386.443C627.542 376.943 607.822 369.623 587.702 363.323C571.492 358.243 555.032 354.323 538.142 352.373C521.912 350.493 505.602 349.873 489.282 350.523C482.522 350.793 475.742 351.443 469.032 352.383C453.292 354.593 438.182 359.223 423.432 365.083C423.092 365.223 422.762 365.383 422.432 365.523C422.442 365.633 422.462 365.733 422.472 365.843C422.832 365.883 423.192 365.963 423.552 365.963C433.912 365.813 444.212 366.673 454.482 367.843C469.002 369.503 483.442 371.663 497.802 374.433C528.812 380.413 559.362 388.223 589.392 398.013C622.362 408.763 654.262 422.143 685.392 437.383C702.242 445.603 718.592 454.703 733.662 465.963ZM698.682 463.813C699.912 461.833 701.222 459.913 702.652 457.733C689.892 450.313 676.922 444.093 663.662 438.103C659.292 446.623 657.042 455.223 658.192 464.533C658.572 467.563 659.562 470.353 661.532 472.713C664.752 476.553 665.452 480.883 664.382 485.663C663.522 489.523 662.642 493.383 662.022 497.283C660.092 509.433 662.402 520.723 669.192 531.033C671.252 534.173 673.742 536.913 677.012 538.833C681.152 541.253 684.612 540.633 687.292 536.653C688.622 534.673 689.662 532.413 690.392 530.133C693.052 521.853 694.292 513.343 694.032 504.613C693.842 498.133 692.782 491.773 691.592 485.423C690.732 480.823 691.182 476.403 693.542 472.303C695.192 469.433 696.932 466.623 698.682 463.813ZM696.302 347.303C696.902 332.833 696.672 318.413 694.282 304.083C692.152 291.253 688.442 278.953 682.492 267.363C677.282 257.213 670.352 248.513 660.972 241.903C654.902 237.633 648.292 234.513 641.032 232.903C629.642 230.363 618.252 230.953 606.902 233.193C593.492 235.833 581.312 241.513 569.782 248.633C555.962 257.173 543.882 267.863 532.592 279.493C519.302 293.183 508.172 308.493 498.402 324.833C495.792 329.193 493.362 333.663 490.882 338.093C490.502 338.763 490.292 339.533 489.912 340.493C490.862 340.493 491.492 340.503 492.122 340.493C504.152 340.343 516.182 340.513 528.192 341.453C541.652 342.493 554.972 344.483 568.092 347.643C588.442 352.543 608.252 359.143 627.632 367.033C649.462 375.933 670.162 386.913 689.322 400.703C689.762 401.023 690.252 401.263 690.882 401.633C691.042 400.843 691.212 400.233 691.292 399.613C691.692 396.413 692.042 393.203 692.462 390.003C694.282 375.803 695.702 361.603 696.302 347.303ZM678.212 717.723C678.262 717.663 678.302 717.593 678.362 717.513C678.272 715.533 678.152 713.533 678.092 711.523C677.602 696.453 675.252 681.603 671.802 666.983C667.012 646.683 658.112 628.413 643.552 613.153C635.052 604.243 624.922 598.353 612.842 595.823C604.542 594.083 596.182 593.733 587.782 594.633C572.482 596.283 557.552 599.593 543.092 604.983C524.032 612.083 506.772 622.473 490.042 633.823C480.852 640.053 472.702 647.543 464.832 655.343C452.242 667.813 440.612 681.103 430.542 695.723C429.172 697.723 427.162 698.553 425.122 697.993C422.102 697.183 420.542 694.053 422.002 691.083C423.092 688.853 424.552 686.783 426.042 684.783C428.942 680.903 431.972 677.123 435.212 672.973C431.962 666.473 428.932 659.953 425.512 653.653C412.082 628.963 397.622 604.873 382.652 581.093C373.952 567.273 364.262 554.143 353.392 541.933C342.202 529.353 329.742 518.203 314.982 510.043C287.642 494.923 258.422 487.613 227.022 490.253C216.622 491.133 206.702 493.763 197.182 498.023C191.032 500.773 185.742 504.633 181.512 509.903C179.272 512.703 177.512 515.753 176.442 519.203C174.682 524.873 176.192 529.943 179.052 534.963C179.702 534.573 180.182 534.283 180.652 533.993C184.882 531.463 189.042 528.833 193.342 526.443C199.432 523.063 205.832 520.393 212.602 518.683C217.072 517.553 221.582 516.553 226.232 516.993C227.982 517.153 229.772 517.483 231.392 518.123C233.562 518.973 234.602 521.373 234.102 523.513C233.582 525.763 231.772 527.233 229.382 527.273C228.582 527.283 227.772 527.093 226.972 527.073C225.122 527.033 223.242 526.773 221.452 527.073C218.042 527.663 214.632 528.393 211.332 529.403C203.632 531.763 196.652 535.673 189.862 539.913C186.922 541.753 183.992 543.643 181.302 545.813C176.562 549.633 172.982 554.363 171.332 560.353C169.962 565.343 170.782 569.883 174.462 573.583C177.352 576.493 180.542 579.123 183.612 581.853C184.062 582.253 184.652 582.513 185.182 582.843C185.712 582.363 186.142 582.003 186.552 581.613C194.132 574.493 202.602 568.613 211.802 563.793C216.532 561.313 221.472 559.373 226.652 558.003C230.562 556.973 234.502 557.073 238.442 557.363C241.222 557.573 243.022 559.523 243.112 562.043C243.192 564.593 241.582 566.543 238.822 567.083C237.882 567.263 236.882 567.333 235.942 567.213C232.822 566.793 229.842 567.353 226.882 568.243C219.852 570.363 213.512 573.863 207.412 577.853C200.282 582.503 193.682 587.813 188.132 594.313C184.952 598.043 182.542 602.213 181.332 607.013C179.862 612.813 180.822 618.123 184.802 622.643C186.822 624.933 189.172 626.933 191.392 629.053C191.662 629.313 192.042 629.443 192.682 629.813C193.232 625.673 193.752 621.793 194.252 618.013C193.272 617.253 192.472 616.703 191.742 616.073C190.252 614.783 189.082 613.263 188.612 611.293C188.042 608.913 189.082 606.623 191.192 605.603C193.222 604.613 195.732 605.013 197.032 607.003C198.472 609.193 200.512 610.023 202.832 610.553C208.202 611.793 213.422 611.043 218.552 609.313C227.382 606.333 234.412 600.813 240.492 593.903C241.342 592.933 242.092 591.723 243.162 591.133C244.882 590.173 245.382 588.863 245.552 587.043C245.762 584.763 246.502 582.613 248.332 581.033C250.192 579.433 252.732 579.283 254.592 580.653C256.392 581.973 257.132 584.333 256.112 586.483C255.202 588.393 254.952 590.363 255.062 592.373C255.222 595.023 255.402 597.703 255.932 600.303C259.842 619.623 267.672 637.333 278.452 653.753C292.802 675.603 309.812 695.233 329.092 712.843C348.722 730.773 370.902 744.733 395.802 754.203C418.112 762.693 440.732 764.033 463.662 756.803C475.332 753.123 486.412 748.083 497.092 742.173C519.142 729.973 538.152 714.193 553.112 693.783C561.042 682.963 568.192 671.623 574.842 659.983C575.322 659.143 575.802 658.283 576.422 657.553C577.862 655.883 580.252 655.403 582.152 656.293C584.102 657.203 585.212 659.253 584.782 661.513C584.592 662.513 584.162 663.523 583.632 664.413C580.052 670.453 576.502 676.523 572.772 682.463C565.112 694.653 556.812 706.373 546.742 716.743C546.452 717.033 546.322 717.473 545.992 718.053C589.902 718.053 633.502 718.053 677.112 718.043C677.422 718.043 677.742 717.953 678.052 717.883C678.102 717.873 678.162 717.783 678.212 717.723ZM672.452 234.993C672.802 231.443 672.062 228.113 670.432 224.943C667.952 220.143 664.202 216.543 659.762 213.623C650.212 207.323 639.592 204.833 628.282 205.013C623.992 205.083 619.802 205.943 615.822 207.683C610.042 210.223 606.122 214.503 603.972 220.393C603.612 221.373 603.582 222.483 603.382 223.703C604.082 223.593 604.392 223.553 604.712 223.493C614.182 221.673 623.692 220.873 633.352 221.693C646.762 222.833 658.712 227.533 669.322 235.763C670.072 236.343 670.842 236.923 671.952 237.773C672.182 236.563 672.382 235.783 672.452 234.993ZM663.792 549.983C664.162 547.573 664.572 545.213 666.872 543.763C657.412 533.833 652.572 522.093 651.432 508.313C642.902 517.393 632.652 523.183 622.222 528.683C611.682 534.243 600.592 538.183 588.342 539.273C588.812 540.033 589.052 540.433 589.292 540.833C592.992 546.893 596.712 552.943 600.382 559.023C601.932 561.593 601.412 564.393 599.222 565.923C596.932 567.533 594.122 566.963 592.192 564.493C591.852 564.043 591.542 563.573 591.242 563.083C590.032 561.073 588.802 559.083 587.662 557.043C582.852 548.503 577.312 540.463 571.032 532.963C568.552 530.003 565.702 527.353 562.932 524.653C561.572 523.323 560.022 522.203 558.412 520.863C557.862 521.103 557.042 521.443 556.232 521.793C551.182 523.913 545.902 524.573 540.572 523.483C529.382 521.193 521.242 514.913 516.662 504.333C516.122 503.093 515.432 502.253 514.182 501.963C511.832 501.423 509.482 500.803 507.092 500.503C498.732 499.443 490.502 500.583 482.312 502.203C474.692 503.713 467.322 506.063 460.112 508.923C458.562 509.533 456.882 510.023 455.232 510.143C453.022 510.303 451.152 508.683 450.602 506.603C450.072 504.613 450.862 502.493 452.662 501.323C453.332 500.893 454.112 500.633 454.862 500.343C457.532 499.293 460.222 498.263 462.852 497.253C458.902 490.173 455.082 483.303 451.212 476.353C450.692 476.983 450.192 477.613 449.662 478.213C447.412 480.743 445.262 483.383 442.862 485.773C438.632 489.973 433.732 493.233 427.962 494.953C426.672 495.343 425.902 495.983 425.292 497.123C422.362 502.593 420.452 508.383 419.542 514.503C418.622 520.663 418.982 526.713 421.082 532.653C423.232 538.733 427.392 542.183 433.652 542.913C436.192 537.753 438.722 532.643 441.262 527.493C439.342 525.263 437.292 523.093 435.512 520.713C434.672 519.593 434.132 518.143 433.842 516.763C433.362 514.373 434.762 512.103 436.892 511.313C439.192 510.463 441.702 511.313 442.862 513.653C444.592 517.113 447.372 519.513 450.462 521.623C454.572 524.433 459.132 526.283 463.892 527.603C479.602 531.943 495.622 533.393 511.862 532.333C513.862 532.203 515.832 531.773 517.662 531.513C517.932 531.083 518.092 530.893 518.182 530.673C519.022 528.703 520.462 527.573 522.642 527.533C524.942 527.493 526.462 528.703 527.372 530.693C529.272 534.833 531.842 538.553 534.672 542.083C543.662 553.303 553.852 563.273 565.782 571.363C575.022 577.633 584.732 582.783 596.292 583.143C604.622 583.403 612.402 582.113 618.572 575.823C619.072 575.313 619.672 574.863 620.292 574.503C622.542 573.193 625.082 573.603 626.642 575.483C628.152 577.303 628.182 579.773 626.602 581.723C625.842 582.653 624.902 583.453 624.012 584.253C622.902 585.253 621.742 586.203 620.362 587.383C627.102 589.493 633.062 592.423 638.632 595.953C639.532 595.243 640.252 594.723 640.922 594.143C641.652 593.503 642.382 592.863 643.032 592.143C653.872 580.043 661.262 566.213 663.792 549.983ZM654.652 483.823C655.182 481.753 654.802 480.093 653.462 478.433C650.152 474.343 648.672 469.533 648.192 464.363C647.292 454.623 649.302 445.423 653.352 436.593C653.742 435.733 654.132 434.873 654.542 433.953C653.622 433.503 652.912 433.123 652.182 432.813C645.212 429.833 638.262 426.773 631.242 423.903C590.872 407.393 549.202 395.173 506.542 386.183C504.062 385.663 501.652 385.083 499.452 386.923C499.342 387.023 499.152 387.033 499.002 387.083C495.122 388.323 492.032 390.633 489.572 393.873C486.922 397.363 484.482 400.993 482.912 405.083C479.762 413.293 476.622 421.513 473.742 429.823C469.962 440.743 466.092 451.633 460.532 461.783C458.912 464.743 458.882 467.323 459.932 470.223C460.262 471.133 460.582 472.053 460.972 472.933C464.222 480.273 468.352 487.103 472.812 493.743C472.892 493.863 473.072 493.923 473.302 494.083C486.872 490.713 500.612 488.673 514.812 491.663C515.522 489.493 516.072 487.463 516.842 485.533C517.892 482.893 519.232 480.383 521.362 478.433C523.322 476.633 526.152 476.623 528.002 478.223C529.882 479.853 530.172 482.543 528.702 484.813C528.532 485.083 528.312 485.323 528.132 485.593C523.452 492.323 523.742 498.103 527.672 504.053C528.202 504.863 528.782 505.643 529.402 506.383C537.642 516.053 551.072 516.573 559.952 507.493C561.742 505.663 563.192 503.483 564.742 501.423C565.712 500.143 566.512 498.713 567.562 497.483C569.422 495.303 572.162 494.923 574.282 496.413C576.482 497.953 577.082 500.843 575.412 503.283C572.952 506.873 570.272 510.313 567.682 513.823C567.372 514.243 567.072 514.673 566.762 515.103C571.432 518.413 575.322 522.303 578.662 526.663C580.372 528.903 582.402 529.453 584.942 529.393C592.122 529.223 599.042 527.743 605.722 525.193C616.802 520.983 627.052 515.193 636.662 508.293C640.622 505.453 644.082 502.043 646.932 498.083C648.382 496.063 649.792 494.173 652.382 493.943C653.162 490.433 653.802 487.103 654.652 483.823ZM562.142 588.923C565.272 588.213 568.422 587.573 571.812 586.843C567.122 583.863 562.592 581.213 558.322 578.213C553.982 575.163 549.892 571.763 545.582 568.423C544.902 570.433 543.442 571.693 541.712 572.653C533.252 577.353 524.302 579.413 514.662 577.543C499.102 574.523 486.402 561.293 486.512 543.803C486.512 543.183 486.422 542.563 486.362 541.863C473.892 540.323 461.642 538.383 450.132 532.983C448.382 535.043 447.222 537.343 446.112 539.653C441.742 548.713 439.482 558.323 438.642 568.303C437.652 580.163 439.062 591.663 443.602 602.723C449.512 617.143 460.602 625.893 474.792 631.263C475.812 631.653 476.592 631.473 477.452 630.793C486.012 624.003 495.342 618.343 504.672 612.723C522.642 601.933 541.632 593.583 562.142 588.923ZM536.282 41.1732C536.302 40.5532 536.282 39.9332 536.282 39.1232C535.192 39.1232 534.322 39.1132 533.452 39.1232C525.372 39.2532 517.302 39.4232 509.222 39.5132C476.032 39.8432 442.832 40.1032 409.642 40.4932C393.812 40.6832 377.992 41.1032 362.162 41.4232C337.292 41.9132 312.422 42.4232 287.552 42.8932C260.342 43.4032 233.122 43.8132 205.912 44.3532C182.822 44.8132 159.732 45.3732 136.632 45.9232C117.902 46.3732 99.1724 46.8932 80.4424 47.3432C72.3724 47.5432 64.2924 47.6432 56.2224 47.7932C55.5124 47.8032 54.8024 47.8732 53.9624 47.9232C53.8924 48.9332 53.8024 49.8032 53.7924 50.6732C53.6624 58.5832 53.5924 66.5032 53.4224 74.4132C53.0124 93.7932 52.2024 113.173 52.2124 132.553C52.2324 161.143 52.4524 189.743 53.2624 218.313C54.2724 253.553 53.7124 288.723 51.4324 323.893C50.6024 336.703 50.1724 349.543 49.7224 362.383C49.1024 379.813 48.6824 397.253 48.1024 414.693C47.5524 431.163 46.5624 447.623 46.3724 464.093C45.8024 515.133 45.5424 566.183 45.1624 617.233C45.1624 617.933 45.2524 618.633 45.2924 619.163C87.3224 617.673 129.172 617.283 171.162 616.873C169.552 606.943 172.962 598.413 178.402 590.463C177.382 589.653 176.562 589.003 175.752 588.343C172.152 585.463 168.682 582.443 165.822 578.793C161.782 573.643 160.092 567.863 161.032 561.333C161.972 554.823 164.822 549.213 168.932 544.173C169.632 543.313 170.362 542.463 171.022 541.663C169.862 539.043 168.712 536.643 167.712 534.183C165.022 527.503 165.132 520.793 167.702 514.103C169.732 508.823 172.912 504.283 176.822 500.223C182.772 494.033 190.042 489.963 197.972 486.943C199.992 486.173 202.032 485.443 203.992 484.723C204.762 481.103 205.422 464.543 204.922 461.283C202.952 460.793 200.922 460.253 198.892 459.773C183.512 456.103 168.702 450.873 154.832 443.233C145.902 438.313 137.332 432.823 130.242 425.343C121.672 416.293 114.812 406.053 109.392 394.873C102.722 381.093 99.3924 366.443 98.7524 351.183C98.3224 341.063 98.8124 330.993 100.802 321.043C104.622 301.983 112.562 284.733 123.912 268.993C136.912 250.973 153.742 237.603 173.532 227.763C174.522 227.273 175.542 226.803 176.462 226.373C176.282 225.123 176.052 224.103 176.002 223.073C175.862 219.683 175.812 216.293 175.692 212.903C175.542 208.943 175.262 204.993 175.212 201.043C175.172 198.283 177.032 196.303 179.542 196.083C182.212 195.843 184.352 197.463 184.892 200.263C185.102 201.363 185.162 202.513 185.212 203.633C185.492 209.763 185.742 215.893 186.012 222.083C234.392 207.373 277.722 214.883 314.962 250.453C315.452 249.463 315.792 248.643 316.242 247.883C318.572 243.923 320.922 239.973 323.292 236.033C323.662 235.413 324.142 234.843 324.652 234.333C326.482 232.483 329.062 232.193 331.052 233.573C333.112 235.003 333.712 237.643 332.482 240.033C332.082 240.813 331.532 241.533 331.012 242.253C327.912 246.523 325.492 251.173 323.472 256.033C322.682 257.933 322.752 259.443 324.172 261.283C333.402 273.223 340.472 286.273 343.942 301.103C344.052 301.593 344.322 302.043 344.572 302.633C345.072 302.243 345.402 302.013 345.702 301.763C349.382 298.673 353.572 296.393 357.932 294.463C360.552 293.303 363.172 294.313 364.342 296.653C365.472 298.903 364.742 301.483 362.482 303.013C361.482 303.693 360.402 304.263 359.322 304.793C354.362 307.173 350.202 310.533 346.652 314.963C351.182 345.843 343.262 374.483 329.712 402.293C331.572 402.553 333.072 403.333 333.912 404.923C335.442 407.853 336.982 410.783 338.352 413.793C339.222 415.703 338.912 417.613 337.402 419.183C336.032 420.593 334.262 421.083 332.522 420.343C331.332 419.843 330.172 418.853 329.452 417.783C328.152 415.853 327.192 413.693 326.092 411.623C325.812 411.103 325.532 410.593 325.132 409.863C324.132 411.393 323.302 412.663 322.462 413.943C318.712 419.633 314.352 424.803 309.392 429.483C300.132 438.233 289.422 444.783 277.922 450.093C272.352 452.663 266.682 454.983 260.692 456.453C258.522 456.983 258.572 457.053 258.942 459.433C259.082 460.303 259.072 461.203 259.062 462.093C259.052 467.583 259.012 473.073 258.982 478.573C258.982 479.363 258.982 480.153 258.982 480.993C260.062 481.203 260.922 481.363 261.782 481.533C267.552 482.703 273.392 483.603 279.082 485.083C299.192 490.303 317.922 498.553 334.612 511.133C347.142 520.573 358.082 531.613 367.962 543.753C368.512 544.433 369.082 545.083 369.772 545.893C383.112 539.453 397.352 537.583 411.962 536.843C406.862 521.953 409.292 508.023 415.492 494.373C415.092 494.043 414.732 493.723 414.352 493.433C411.742 491.433 410.152 488.783 409.312 485.653C408.502 482.633 408.552 479.573 409.042 476.523C410.062 470.263 412.812 464.723 416.292 459.503C416.732 458.853 417.152 458.183 417.672 457.363C414.962 455.273 413.432 452.483 412.452 449.473C409.532 449.723 406.882 449.983 404.232 450.173C401.492 450.363 398.752 450.493 396.002 450.593C394.872 450.633 393.732 450.643 392.612 450.493C389.672 450.093 387.792 447.913 387.962 445.253C388.132 442.573 390.242 440.783 393.262 440.693C396.572 440.593 399.882 440.553 403.182 440.333C405.752 440.163 408.312 439.783 410.862 439.423C411.932 439.263 412.652 438.693 413.102 437.543C414.282 434.543 415.662 431.633 416.972 428.683C417.212 428.123 417.472 427.573 417.662 427.163C413.672 424.773 409.802 422.613 406.082 420.203C396.932 414.243 389.422 406.683 384.332 396.923C383.372 395.073 382.542 393.113 381.932 391.123C380.692 387.043 380.832 383.003 382.842 379.123C383.132 378.563 383.352 377.913 383.382 377.303C383.482 375.283 384.482 373.743 386.012 372.603C387.692 371.353 389.442 370.173 391.272 369.173C410.632 358.573 431.062 350.733 452.492 345.483C454.202 345.063 455.922 344.703 457.712 344.293C457.672 343.743 457.632 343.353 457.612 342.973C457.502 340.873 457.252 338.773 457.332 336.693C457.432 334.043 459.482 332.083 461.972 331.953C464.342 331.833 466.442 333.503 466.982 336.013C467.172 336.873 467.242 337.773 467.302 338.653C467.392 339.923 467.432 341.193 467.502 342.523C470.892 342.143 474.092 341.753 477.302 341.433C478.352 341.333 478.842 340.723 479.222 339.853C480.162 337.713 481.002 335.503 482.132 333.463C485.402 327.623 488.702 321.793 492.182 316.063C498.772 305.213 506.032 294.813 514.252 285.133C518.432 280.213 522.912 275.553 527.272 270.773C527.972 270.003 528.632 269.353 528.652 268.113C528.862 255.923 529.082 243.723 529.452 231.533C529.922 215.793 530.482 200.053 531.082 184.313C531.602 170.753 532.272 157.203 532.782 143.643C533.562 123.223 534.312 102.803 535.012 82.3932C535.492 68.6132 535.872 54.8932 536.282 41.1732ZM539.442 562.373C532.882 555.493 526.542 548.653 521.512 540.773C513.232 542.793 504.992 542.573 496.612 542.663C496.552 543.333 496.492 543.653 496.492 543.973C496.272 553.663 502.372 562.653 511.732 566.363C521.632 570.283 530.662 568.053 539.442 562.373ZM485.782 383.313C485.982 383.113 486.082 382.823 486.432 382.203C474.662 380.553 463.192 378.933 452.122 377.383C450.452 378.783 449.162 379.873 447.862 380.943C443.792 384.303 440.052 387.993 437.302 392.513C436.012 394.623 434.962 396.953 434.252 399.313C433.442 402.013 433.962 404.693 435.852 407.193C436.622 406.703 437.282 406.273 437.942 405.853C438.752 405.333 439.522 404.713 440.392 404.303C442.722 403.213 445.282 403.893 446.632 405.873C448.012 407.903 447.732 410.423 445.852 412.253C445.342 412.753 444.722 413.163 444.142 413.603C442.402 414.913 440.652 416.203 438.902 417.513C431.642 422.933 426.782 430.153 423.252 438.373C422.282 440.623 421.682 442.963 421.892 445.433C422.032 447.043 422.332 448.633 424.012 449.463C424.482 449.163 424.872 448.863 425.292 448.643C427.432 447.533 429.772 447.873 431.292 449.493C432.812 451.113 433.022 453.483 431.762 455.543C431.342 456.223 430.782 456.823 430.302 457.463C427.942 460.633 425.462 463.713 423.262 466.993C420.862 470.573 419.162 474.523 418.702 478.863C418.532 480.423 418.712 482.093 419.092 483.623C419.522 485.373 420.782 486.203 422.562 485.903C424.372 485.613 426.192 485.093 427.852 484.343C431.642 482.623 434.832 480.013 437.632 476.943C442.982 471.083 447.732 464.773 451.492 457.753C455.952 449.413 459.402 440.633 462.572 431.733C466.112 421.783 469.642 411.823 473.452 401.973C476.192 394.903 480.372 388.673 485.782 383.313ZM467.092 639.093C467.072 639.063 467.052 638.953 467.002 638.933C466.072 638.463 465.132 638.003 464.192 637.533C450.272 630.523 439.782 620.293 434.032 605.543C428.492 591.343 427.362 576.713 429.412 561.733C429.812 558.793 430.412 555.873 430.952 552.803C430.232 552.533 429.592 552.203 428.912 552.033C425.252 551.133 421.932 549.593 418.992 547.183C418.502 546.783 417.682 546.583 417.032 546.613C411.952 546.863 406.872 547.063 401.812 547.523C393.742 548.253 385.852 549.873 378.312 552.933C377.582 553.233 376.872 553.573 376.242 553.853C400.712 589.343 422.352 626.353 442.302 664.213C450.502 655.903 458.792 647.503 467.092 639.093ZM435.902 378.513C436.502 377.913 437.082 377.293 437.982 376.353C436.622 376.223 435.752 376.063 434.882 376.063C429.072 376.043 423.252 375.823 417.452 376.133C412.722 376.383 408.002 377.143 403.312 377.923C400.042 378.473 396.922 379.633 394.112 381.473C391.192 383.393 390.532 385.143 391.472 388.493C391.732 389.423 392.082 390.343 392.552 391.183C393.782 393.363 394.962 395.573 396.402 397.613C403.032 406.973 412.202 413.153 422.372 418.023C422.722 418.193 423.132 418.243 423.592 418.373C425.042 416.843 426.472 415.343 427.872 413.863C427.722 413.493 427.662 413.253 427.542 413.063C422.822 405.573 423.012 398.003 427.082 390.323C429.422 385.923 432.412 382.033 435.902 378.513ZM337.792 340.233C338.362 332.873 337.952 325.543 337.042 318.243C335.842 308.593 333.842 299.113 329.942 290.173C319.302 265.783 301.482 248.183 278.132 235.913C263.212 228.073 247.092 225.303 230.452 224.873C217.822 224.543 205.512 226.593 193.492 230.353C180.822 234.323 169.312 240.623 158.522 248.273C131.392 267.493 111.322 301.643 108.942 334.933C108.252 344.623 108.402 354.293 110.002 363.913C112.472 378.723 118.052 392.233 126.442 404.673C133.352 414.913 141.632 423.613 152.202 430.203C166.742 439.273 182.472 445.303 198.962 449.583C202.942 450.613 206.932 451.603 210.842 452.853C214.012 453.863 214.972 455.323 214.932 458.613C214.862 465.553 214.682 472.493 214.542 479.443C214.532 480.233 214.542 481.023 214.542 481.983C225.932 479.883 237.252 479.293 248.842 479.963C248.892 479.053 248.972 478.263 248.982 477.483C249.002 474.253 248.912 471.023 249.042 467.793C249.172 464.423 248.622 461.003 249.832 457.703C249.952 457.373 249.832 456.903 249.712 456.523C248.882 453.643 250.182 451.503 252.132 449.613C253.562 448.223 255.382 447.553 257.282 447.053C267.842 444.303 277.582 439.663 286.872 434.053C298.012 427.333 307.472 418.793 314.582 407.783C320.422 398.733 325.392 389.243 328.982 379.063C333.432 366.473 336.752 353.613 337.792 340.233ZM243.432 606.653C243.432 606.373 243.352 606.093 243.222 605.343C237.852 610.383 232.242 614.383 225.812 617.133C219.352 619.893 212.642 621.393 205.342 621.113C205.042 625.133 204.772 628.823 204.492 632.513C203.852 641.043 203.152 649.573 202.582 658.103C202.242 663.103 203.742 665.353 208.322 667.293C215.232 670.223 222.422 670.473 229.712 669.423C233.322 668.903 236.792 667.893 240.112 666.353C241.982 665.483 243.072 664.203 243.122 662.093C243.162 660.483 243.322 658.873 243.332 657.263C243.382 640.383 243.402 623.523 243.432 606.653Z" fill="black"/>
<path d="M755.562 508.183C755.922 510.523 755.152 512.283 753.122 513.513C750.432 515.143 747.492 515.863 744.382 516.013C737.872 516.333 731.512 515.243 725.212 513.793C718.072 512.143 710.972 510.313 704.112 507.473C703.952 504.703 703.942 501.873 703.592 499.073C702.962 493.953 702.232 488.843 701.342 483.763C700.882 481.153 701.152 478.773 702.482 476.543C704.222 473.633 706.042 470.783 707.852 467.913C708.882 466.283 709.962 464.683 711.272 462.703C714.622 464.893 717.812 466.923 720.942 469.033C729.552 474.823 737.422 481.473 744.322 489.253C747.492 492.823 750.372 496.603 752.732 500.763C754.052 503.083 755.152 505.503 755.562 508.183Z" fill="#F5DEBB"/>
<path d="M734.942 466.523C734.242 466.223 733.912 466.153 733.662 465.963C718.602 454.703 702.242 445.603 685.402 437.353C654.272 422.113 622.372 408.743 589.402 397.983C559.372 388.183 528.832 380.383 497.812 374.403C483.452 371.633 469.012 369.473 454.492 367.813C444.222 366.643 433.922 365.783 423.562 365.933C423.202 365.933 422.842 365.853 422.482 365.813C422.472 365.713 422.452 365.603 422.442 365.493C422.772 365.343 423.102 365.183 423.442 365.053C438.192 359.193 453.292 354.573 469.042 352.353C475.742 351.413 482.522 350.753 489.292 350.493C505.612 349.843 521.912 350.473 538.152 352.343C555.042 354.293 571.502 358.223 587.712 363.293C607.842 369.593 627.552 376.923 646.422 386.413C664.812 395.673 682.092 406.633 697.892 419.863C706.872 427.373 714.262 436.353 721.312 445.613C726.242 452.143 730.592 459.033 734.942 466.523Z" fill="#F5DEBB"/>
<path d="M702.652 457.733C701.222 459.913 699.913 461.843 698.683 463.813C696.933 466.623 695.192 469.433 693.532 472.293C691.172 476.393 690.712 480.823 691.582 485.413C692.772 491.763 693.842 498.123 694.022 504.603C694.272 513.323 693.043 521.833 690.383 530.123C689.653 532.403 688.612 534.663 687.282 536.643C684.602 540.623 681.143 541.243 677.003 538.823C673.723 536.903 671.243 534.163 669.183 531.023C662.393 520.713 660.093 509.413 662.013 497.273C662.633 493.373 663.513 489.513 664.373 485.653C665.433 480.873 664.742 476.533 661.522 472.703C659.542 470.353 658.553 467.553 658.183 464.523C657.033 455.213 659.282 446.623 663.652 438.093C676.922 444.093 689.882 450.313 702.652 457.733Z" fill="#F5DEBB"/>
<path d="M694.283 304.083C696.673 318.423 696.903 332.833 696.303 347.303C695.703 361.593 694.283 375.803 692.443 389.983C692.033 393.183 691.673 396.393 691.273 399.593C691.193 400.213 691.033 400.823 690.863 401.613C690.223 401.243 689.733 401.003 689.303 400.683C670.133 386.893 649.433 375.903 627.613 367.013C608.233 359.113 588.433 352.523 568.073 347.623C554.943 344.463 541.633 342.473 528.173 341.433C516.163 340.503 504.143 340.323 492.103 340.473C491.473 340.483 490.843 340.473 489.893 340.473C490.273 339.513 490.493 338.753 490.863 338.073C493.343 333.633 495.773 329.173 498.383 324.813C508.153 308.473 519.283 293.153 532.573 279.473C543.863 267.853 555.943 257.153 569.763 248.613C581.293 241.493 593.473 235.813 606.883 233.173C618.233 230.943 629.623 230.353 641.013 232.883C648.273 234.493 654.893 237.613 660.953 241.883C670.333 248.493 677.263 257.203 682.473 267.343C688.443 278.953 692.153 291.253 694.283 304.083Z" fill="#F5DEBB"/>
<path d="M678.362 717.503C678.302 717.583 678.262 717.653 678.212 717.713C678.162 717.773 678.102 717.863 678.042 717.873C677.732 717.943 677.412 718.033 677.102 718.033C633.492 718.043 589.892 718.043 545.982 718.043C546.312 717.463 546.452 717.023 546.732 716.733C556.802 706.363 565.102 694.643 572.762 682.453C576.502 676.503 580.042 670.443 583.622 664.403C584.152 663.513 584.582 662.513 584.772 661.503C585.202 659.243 584.092 657.193 582.142 656.283C580.232 655.393 577.842 655.873 576.412 657.543C575.792 658.273 575.312 659.133 574.832 659.973C568.182 671.623 561.032 682.953 553.102 693.773C538.142 714.183 519.132 729.963 497.082 742.163C486.402 748.073 475.312 753.113 463.652 756.793C440.722 764.013 418.102 762.683 395.792 754.193C370.892 744.713 348.712 730.763 329.082 712.833C309.802 695.223 292.792 675.603 278.442 653.743C267.662 637.323 259.832 619.613 255.922 600.293C255.392 597.693 255.202 595.013 255.052 592.363C254.942 590.353 255.182 588.383 256.102 586.473C257.132 584.323 256.382 581.963 254.582 580.643C252.722 579.273 250.182 579.423 248.322 581.023C246.492 582.603 245.752 584.753 245.542 587.033C245.372 588.853 244.882 590.163 243.152 591.123C242.082 591.713 241.332 592.923 240.482 593.893C234.412 600.793 227.372 606.323 218.542 609.303C213.412 611.033 208.192 611.783 202.822 610.543C200.502 610.003 198.462 609.173 197.022 606.993C195.722 605.003 193.212 604.613 191.182 605.593C189.072 606.613 188.032 608.903 188.602 611.283C189.072 613.253 190.242 614.773 191.732 616.063C192.462 616.693 193.262 617.253 194.242 618.003C193.742 621.783 193.222 625.663 192.672 629.803C192.032 629.433 191.652 629.293 191.382 629.043C189.162 626.933 186.812 624.923 184.792 622.633C180.812 618.103 179.852 612.793 181.322 607.003C182.542 602.203 184.942 598.033 188.122 594.303C193.672 587.793 200.272 582.493 207.402 577.843C213.502 573.863 219.852 570.363 226.872 568.233C229.842 567.333 232.812 566.783 235.932 567.203C236.872 567.333 237.882 567.263 238.812 567.073C241.572 566.533 243.182 564.583 243.102 562.033C243.012 559.513 241.212 557.563 238.432 557.353C234.482 557.063 230.542 556.963 226.642 557.993C221.462 559.353 216.522 561.293 211.792 563.783C202.592 568.613 194.122 574.483 186.542 581.603C186.132 581.993 185.702 582.353 185.172 582.833C184.632 582.503 184.052 582.243 183.602 581.843C180.522 579.113 177.342 576.493 174.452 573.573C170.782 569.873 169.952 565.333 171.322 560.343C172.972 554.343 176.552 549.623 181.292 545.803C183.982 543.633 186.912 541.733 189.852 539.903C196.642 535.663 203.622 531.753 211.322 529.393C214.622 528.383 218.032 527.653 221.442 527.063C223.232 526.753 225.122 527.013 226.962 527.063C227.772 527.083 228.572 527.273 229.372 527.263C231.762 527.223 233.572 525.753 234.092 523.503C234.582 521.363 233.542 518.973 231.382 518.113C229.762 517.473 227.962 517.143 226.222 516.983C221.572 516.543 217.062 517.543 212.592 518.673C205.822 520.383 199.422 523.053 193.332 526.433C189.032 528.823 184.862 531.453 180.642 533.983C180.162 534.263 179.692 534.553 179.042 534.953C176.182 529.943 174.682 524.873 176.432 519.193C177.502 515.743 179.262 512.693 181.502 509.893C185.732 504.623 191.022 500.753 197.172 498.013C206.692 493.753 216.612 491.123 227.012 490.243C258.412 487.603 287.642 494.903 314.972 510.033C329.732 518.193 342.192 529.353 353.382 541.923C364.252 554.143 373.932 567.263 382.642 581.083C397.612 604.863 412.072 628.953 425.502 653.643C428.932 659.943 431.952 666.463 435.202 672.963C431.962 677.123 428.932 680.893 426.032 684.773C424.542 686.773 423.082 688.843 421.992 691.073C420.542 694.043 422.092 697.173 425.112 697.983C427.152 698.533 429.162 697.703 430.532 695.713C440.592 681.093 452.222 667.803 464.822 655.333C472.692 647.543 480.852 640.053 490.032 633.813C506.762 622.463 524.032 612.073 543.082 604.973C557.532 599.583 572.462 596.273 587.772 594.623C596.172 593.723 604.542 594.073 612.832 595.813C624.912 598.343 635.042 604.233 643.542 613.143C658.102 628.403 667.012 646.673 671.792 666.973C675.242 681.593 677.592 696.433 678.082 711.513C678.152 713.523 678.272 715.523 678.362 717.503Z" fill="#B4BD57"/>
<path d="M670.432 224.943C672.062 228.113 672.802 231.443 672.452 234.993C672.372 235.783 672.172 236.553 671.952 237.773C670.832 236.923 670.072 236.343 669.322 235.763C658.722 227.533 646.762 222.833 633.352 221.693C623.692 220.873 614.182 221.673 604.712 223.493C604.402 223.553 604.082 223.593 603.382 223.703C603.592 222.483 603.612 221.373 603.972 220.393C606.122 214.503 610.042 210.223 615.822 207.683C619.802 205.933 623.992 205.073 628.282 205.013C639.582 204.833 650.212 207.323 659.762 213.623C664.212 216.553 667.962 220.143 670.432 224.943Z" fill="#F5DEBB"/>
<path d="M666.873 543.763C664.563 545.213 664.163 547.573 663.793 549.983C661.273 566.213 653.873 580.043 643.003 592.153C642.353 592.873 641.623 593.513 640.893 594.153C640.223 594.733 639.503 595.253 638.603 595.963C633.033 592.443 627.073 589.503 620.333 587.393C621.713 586.213 622.873 585.263 623.983 584.263C624.883 583.453 625.823 582.663 626.573 581.733C628.163 579.783 628.123 577.313 626.613 575.493C625.053 573.613 622.513 573.203 620.263 574.513C619.643 574.873 619.043 575.323 618.543 575.833C612.373 582.123 604.593 583.413 596.263 583.153C584.703 582.793 574.993 577.633 565.753 571.373C553.823 563.283 543.633 553.313 534.643 542.093C531.813 538.563 529.243 534.843 527.343 530.703C526.433 528.713 524.913 527.493 522.613 527.543C520.433 527.583 518.993 528.713 518.153 530.683C518.063 530.903 517.903 531.093 517.633 531.523C515.813 531.793 513.833 532.223 511.833 532.343C495.593 533.403 479.573 531.953 463.863 527.613C459.103 526.293 454.533 524.433 450.433 521.633C447.343 519.523 444.563 517.133 442.833 513.663C441.663 511.323 439.163 510.473 436.863 511.323C434.733 512.113 433.333 514.383 433.813 516.773C434.093 518.153 434.643 519.613 435.483 520.723C437.263 523.093 439.323 525.273 441.233 527.503C438.693 532.653 436.163 537.763 433.623 542.923C427.363 542.193 423.203 538.743 421.053 532.663C418.953 526.723 418.593 520.683 419.513 514.513C420.423 508.393 422.343 502.593 425.263 497.133C425.873 495.993 426.653 495.353 427.933 494.963C433.703 493.233 438.593 489.983 442.833 485.783C445.233 483.403 447.383 480.763 449.633 478.223C450.163 477.623 450.663 476.993 451.183 476.363C455.053 483.313 458.873 490.173 462.823 497.263C460.193 498.283 457.513 499.303 454.833 500.353C454.083 500.643 453.303 500.903 452.633 501.333C450.823 502.503 450.043 504.613 450.573 506.613C451.123 508.693 452.993 510.313 455.203 510.153C456.853 510.033 458.533 509.543 460.083 508.933C467.303 506.073 474.673 503.723 482.283 502.213C490.473 500.593 498.703 499.453 507.063 500.513C509.453 500.813 511.803 501.433 514.153 501.973C515.403 502.263 516.093 503.103 516.633 504.343C521.223 514.923 529.353 521.203 540.543 523.493C545.883 524.583 551.153 523.923 556.203 521.803C557.013 521.463 557.833 521.113 558.383 520.873C559.993 522.213 561.553 523.343 562.903 524.663C565.673 527.363 568.523 530.013 571.003 532.973C577.293 540.473 582.823 548.523 587.633 557.053C588.783 559.093 590.013 561.083 591.213 563.093C591.503 563.573 591.813 564.053 592.163 564.503C594.093 566.973 596.903 567.533 599.193 565.933C601.373 564.403 601.903 561.603 600.353 559.033C596.683 552.953 592.963 546.903 589.263 540.843C589.023 540.443 588.773 540.043 588.313 539.283C600.563 538.193 611.643 534.263 622.193 528.693C632.623 523.193 642.873 517.393 651.403 508.323C652.573 522.093 657.413 533.843 666.873 543.763Z" fill="#F5DEBB"/>
<path d="M653.462 478.443C654.802 480.093 655.192 481.753 654.652 483.833C653.802 487.113 653.162 490.443 652.392 493.973C649.802 494.203 648.392 496.093 646.942 498.113C644.102 502.073 640.632 505.493 636.672 508.323C627.062 515.223 616.812 521.013 605.732 525.223C599.042 527.763 592.132 529.253 584.952 529.423C582.412 529.483 580.392 528.943 578.672 526.693C575.332 522.333 571.442 518.433 566.772 515.133C567.082 514.703 567.382 514.273 567.692 513.853C570.272 510.343 572.952 506.913 575.422 503.313C577.092 500.873 576.492 497.983 574.292 496.443C572.172 494.953 569.422 495.323 567.572 497.513C566.532 498.733 565.732 500.163 564.752 501.453C563.192 503.513 561.752 505.693 559.962 507.523C551.082 516.603 537.652 516.073 529.412 506.413C528.782 505.673 528.212 504.893 527.682 504.083C523.752 498.143 523.462 492.363 528.142 485.623C528.322 485.353 528.542 485.113 528.712 484.843C530.172 482.573 529.882 479.873 528.012 478.253C526.162 476.643 523.332 476.663 521.372 478.463C519.252 480.403 517.902 482.923 516.852 485.563C516.082 487.503 515.532 489.523 514.822 491.693C500.622 488.703 486.882 490.743 473.312 494.113C473.082 493.953 472.902 493.893 472.822 493.773C468.362 487.133 464.222 480.303 460.982 472.963C460.592 472.083 460.272 471.163 459.942 470.253C458.892 467.353 458.912 464.773 460.542 461.813C466.112 451.663 469.972 440.773 473.752 429.853C476.632 421.543 479.772 413.323 482.922 405.113C484.492 401.013 486.932 397.393 489.582 393.903C492.042 390.663 495.132 388.343 499.012 387.113C499.162 387.063 499.352 387.053 499.462 386.953C501.662 385.113 504.072 385.683 506.552 386.213C549.202 395.203 590.872 407.423 631.252 423.933C638.272 426.803 645.212 429.863 652.192 432.843C652.922 433.153 653.632 433.533 654.552 433.983C654.132 434.903 653.752 435.763 653.362 436.623C649.322 445.443 647.302 454.643 648.202 464.393C648.662 469.543 650.142 474.353 653.462 478.443ZM624.892 482.523C625.002 480.673 624.912 478.813 624.912 476.333C624.482 472.933 624.172 468.893 623.442 464.933C622.442 459.563 620.522 454.533 617.032 450.203C613.952 446.383 610.022 444.033 605.182 443.323C599.832 442.523 594.752 443.483 589.902 445.873C580.532 450.513 574.612 458.283 570.222 467.453C569.852 468.223 569.692 469.163 569.672 470.023C569.632 472.073 570.622 473.573 572.482 474.443C574.272 475.283 576.452 474.933 577.842 473.463C578.492 472.783 578.992 471.913 579.412 471.053C581.372 467.023 583.882 463.373 586.952 460.123C590.242 456.643 594.192 454.193 598.922 453.193C604.052 452.113 607.772 453.673 610.472 458.143C611.462 459.783 612.212 461.603 612.832 463.423C614.672 468.853 614.772 474.523 614.982 480.173C615.022 481.383 615.032 482.613 615.292 483.783C615.832 486.253 617.992 487.713 620.512 487.473C622.942 487.263 624.732 485.313 624.892 482.523ZM538.672 454.963C538.942 449.893 539.192 444.803 539.082 439.723C538.982 435.173 537.772 430.783 535.742 426.683C532.602 420.333 527.602 416.343 520.572 415.093C513.202 413.783 506.612 415.753 500.842 420.333C495.752 424.373 492.022 429.513 489.602 435.563C489.122 436.763 488.712 437.993 488.452 439.253C487.922 441.843 489.322 444.263 491.672 445.053C494.042 445.843 496.532 444.713 497.692 442.283C498.032 441.553 498.212 440.753 498.512 440.013C500.662 434.533 503.892 429.853 508.992 426.773C515.202 423.023 524.812 423.223 528.012 434.003C528.192 434.623 528.382 435.243 528.522 435.863C529.472 439.913 529.552 444.023 529.352 447.823C529.242 449.193 529.132 450.233 529.072 451.283C529.012 452.413 528.922 453.543 528.962 454.673C529.062 457.693 530.972 459.723 533.672 459.803C536.402 459.873 538.512 458.003 538.672 454.963Z" fill="#FFC2C2"/>
<path d="M624.913 476.343C624.913 478.823 625.003 480.683 624.893 482.533C624.733 485.323 622.943 487.263 620.493 487.493C617.973 487.733 615.813 486.273 615.273 483.803C615.013 482.633 615.013 481.403 614.963 480.193C614.753 474.543 614.653 468.873 612.813 463.443C612.193 461.623 611.443 459.803 610.453 458.163C607.763 453.693 604.033 452.133 598.903 453.213C594.173 454.213 590.223 456.663 586.933 460.143C583.873 463.393 581.363 467.043 579.393 471.073C578.973 471.933 578.473 472.803 577.823 473.483C576.433 474.953 574.253 475.303 572.463 474.463C570.603 473.593 569.613 472.093 569.653 470.043C569.673 469.173 569.833 468.243 570.203 467.473C574.583 458.303 580.513 450.533 589.883 445.893C594.723 443.493 599.813 442.543 605.163 443.343C610.003 444.063 613.933 446.403 617.013 450.223C620.503 454.553 622.423 459.583 623.423 464.953C624.173 468.903 624.483 472.933 624.913 476.343Z" fill="black"/>
<path d="M571.813 586.853C568.423 587.583 565.273 588.223 562.143 588.933C541.633 593.593 522.643 601.943 504.683 612.733C495.343 618.343 486.023 624.003 477.463 630.803C476.603 631.483 475.823 631.663 474.803 631.273C460.603 625.903 449.523 617.153 443.613 602.733C439.073 591.673 437.653 580.163 438.653 568.313C439.493 558.333 441.753 548.713 446.123 539.663C447.243 537.353 448.393 535.053 450.143 532.993C461.643 538.393 473.893 540.333 486.373 541.873C486.433 542.573 486.523 543.193 486.523 543.813C486.413 561.303 499.113 574.533 514.673 577.553C524.313 579.423 533.263 577.363 541.723 572.663C543.453 571.703 544.913 570.443 545.593 568.433C549.903 571.773 553.993 575.173 558.333 578.223C562.593 581.223 567.123 583.873 571.813 586.853Z" fill="#F5DEBB"/>
<path d="M539.082 439.723C539.192 444.803 538.942 449.893 538.672 454.963C538.512 458.003 536.392 459.873 533.672 459.793C530.962 459.713 529.062 457.683 528.962 454.663C528.922 453.533 529.002 452.403 529.072 451.273C529.132 450.223 529.242 449.183 529.352 447.813C529.552 444.013 529.472 439.903 528.522 435.853C528.372 435.223 528.192 434.603 528.012 433.993C524.812 423.213 515.202 423.013 508.992 426.763C503.892 429.843 500.672 434.533 498.512 440.003C498.212 440.753 498.032 441.553 497.692 442.273C496.542 444.703 494.042 445.833 491.672 445.043C489.312 444.263 487.912 441.843 488.452 439.243C488.712 437.983 489.132 436.743 489.602 435.553C492.022 429.503 495.752 424.363 500.842 420.323C506.612 415.743 513.202 413.773 520.572 415.083C527.592 416.333 532.602 420.323 535.742 426.673C537.772 430.783 538.982 435.173 539.082 439.723Z" fill="black"/>
<path d="M536.282 39.1135C536.282 39.9235 536.302 40.5535 536.282 41.1635C535.872 54.8835 535.492 68.6135 535.022 82.3335C534.322 102.753 533.582 123.173 532.792 143.583C532.272 157.143 531.602 170.693 531.092 184.253C530.492 199.993 529.932 215.733 529.462 231.473C529.092 243.663 528.872 255.853 528.662 268.053C528.642 269.293 527.982 269.943 527.282 270.713C522.932 275.483 518.452 280.153 514.262 285.073C506.032 294.753 498.772 305.153 492.192 316.003C488.722 321.733 485.412 327.563 482.142 333.403C481.002 335.433 480.172 337.643 479.232 339.793C478.852 340.663 478.352 341.263 477.312 341.373C474.102 341.693 470.902 342.083 467.512 342.463C467.442 341.133 467.412 339.863 467.312 338.593C467.252 337.713 467.182 336.813 466.992 335.953C466.452 333.443 464.352 331.773 461.982 331.893C459.492 332.023 457.442 333.973 457.342 336.633C457.262 338.723 457.512 340.823 457.622 342.913C457.642 343.303 457.682 343.693 457.722 344.233C455.932 344.633 454.212 345.003 452.502 345.423C431.072 350.673 410.642 358.513 391.282 369.113C389.452 370.123 387.692 371.303 386.022 372.543C384.482 373.684 383.492 375.223 383.392 377.243C383.362 377.863 383.142 378.513 382.852 379.063C380.842 382.943 380.692 386.983 381.942 391.063C382.552 393.063 383.382 395.013 384.342 396.863C389.432 406.633 396.942 414.183 406.092 420.143C409.802 422.563 413.682 424.713 417.672 427.103C417.482 427.513 417.222 428.063 416.982 428.623C415.672 431.573 414.292 434.483 413.112 437.483C412.662 438.633 411.942 439.203 410.872 439.363C408.312 439.723 405.762 440.103 403.192 440.273C399.892 440.493 396.582 440.533 393.272 440.633C390.242 440.723 388.142 442.513 387.972 445.193C387.802 447.863 389.682 450.033 392.622 450.433C393.732 450.583 394.882 450.583 396.012 450.533C398.752 450.433 401.502 450.293 404.242 450.113C406.892 449.933 409.542 449.663 412.462 449.413C413.432 452.423 414.972 455.213 417.682 457.303C417.152 458.113 416.742 458.783 416.302 459.443C412.812 464.663 410.062 470.203 409.052 476.463C408.562 479.513 408.512 482.573 409.322 485.593C410.162 488.733 411.752 491.383 414.362 493.373C414.742 493.663 415.092 493.973 415.502 494.313C409.302 507.963 406.872 521.893 411.972 536.783C397.362 537.523 383.122 539.393 369.782 545.833C369.092 545.023 368.522 544.363 367.972 543.693C358.102 531.553 347.152 520.523 334.622 511.073C317.932 498.493 299.202 490.243 279.092 485.023C273.402 483.543 267.562 482.643 261.792 481.473C260.932 481.303 260.072 481.143 258.992 480.934C258.992 480.094 258.992 479.303 258.992 478.513C259.022 473.023 259.052 467.533 259.072 462.033C259.072 461.143 259.082 460.243 258.952 459.373C258.572 456.993 258.522 456.923 260.702 456.393C266.692 454.923 272.362 452.603 277.932 450.033C289.432 444.713 300.132 438.173 309.402 429.423C314.362 424.743 318.722 419.573 322.472 413.883C323.312 412.603 324.142 411.333 325.142 409.803C325.542 410.533 325.832 411.043 326.102 411.563C327.202 413.623 328.162 415.783 329.462 417.723C330.182 418.793 331.342 419.773 332.532 420.283C334.282 421.023 336.052 420.533 337.412 419.123C338.922 417.563 339.232 415.643 338.362 413.733C337.002 410.723 335.452 407.793 333.922 404.863C333.082 403.263 331.592 402.493 329.722 402.233C343.272 374.423 351.192 345.783 346.662 314.903C350.222 310.473 354.382 307.113 359.332 304.733C360.422 304.213 361.502 303.633 362.492 302.953C364.752 301.423 365.472 298.843 364.352 296.593C363.182 294.253 360.562 293.233 357.942 294.403C353.582 296.343 349.392 298.613 345.712 301.703C345.412 301.953 345.082 302.183 344.582 302.573C344.342 301.983 344.072 301.533 343.952 301.043C340.482 286.213 333.412 273.163 324.182 261.223C322.762 259.383 322.692 257.873 323.482 255.973C325.502 251.113 327.922 246.463 331.022 242.193C331.542 241.473 332.082 240.763 332.492 239.973C333.732 237.573 333.122 234.933 331.062 233.513C329.072 232.133 326.502 232.423 324.662 234.273C324.152 234.783 323.672 235.353 323.302 235.973C320.932 239.913 318.582 243.863 316.252 247.823C315.812 248.573 315.472 249.393 314.972 250.393C277.732 214.813 234.402 207.313 186.022 222.023C185.752 215.833 185.502 209.703 185.222 203.573C185.172 202.443 185.112 201.303 184.902 200.203C184.362 197.403 182.222 195.783 179.552 196.023C177.052 196.253 175.192 198.223 175.222 200.983C175.272 204.943 175.562 208.893 175.702 212.843C175.832 216.233 175.872 219.623 176.012 223.013C176.052 224.043 176.292 225.073 176.472 226.313C175.552 226.753 174.542 227.213 173.542 227.703C153.762 237.543 136.922 250.903 123.922 268.933C112.572 284.673 104.632 301.913 100.812 320.983C98.8224 330.933 98.3324 341.003 98.7624 351.123C99.4124 366.393 102.732 381.033 109.402 394.813C114.812 406.003 121.682 416.233 130.252 425.283C137.342 432.763 145.902 438.253 154.842 443.173C168.712 450.813 183.522 456.043 198.902 459.713C200.942 460.193 202.962 460.733 204.932 461.223C205.432 464.473 204.772 481.043 204.002 484.663C202.052 485.383 200.012 486.113 197.982 486.883C190.052 489.903 182.772 493.983 176.832 500.163C172.932 504.223 169.742 508.753 167.712 514.043C165.142 520.733 165.042 527.443 167.722 534.123C168.712 536.593 169.862 538.983 171.032 541.603C170.372 542.403 169.642 543.254 168.942 544.113C164.832 549.154 161.982 554.763 161.042 561.273C160.102 567.803 161.792 573.594 165.832 578.734C168.692 582.384 172.162 585.403 175.762 588.283C176.572 588.933 177.392 589.583 178.412 590.403C172.962 598.353 169.562 606.883 171.172 616.813C129.182 617.223 87.3224 617.614 45.3024 619.104C45.2624 618.573 45.1724 617.873 45.1724 617.173C45.5524 566.123 45.8224 515.083 46.3824 464.033C46.5624 447.563 47.5624 431.103 48.1124 414.633C48.6924 397.193 49.1224 379.753 49.7324 362.323C50.1824 349.493 50.6124 336.653 51.4424 323.833C53.7224 288.663 54.2824 253.493 53.2724 218.253C52.4524 189.673 52.2324 161.083 52.2224 132.493C52.2124 113.113 53.0224 93.7335 53.4324 74.3535C53.6024 66.4435 53.6724 58.5235 53.8024 50.6135C53.8124 49.7335 53.9124 48.8635 53.9724 47.8635C54.8124 47.8135 55.5224 47.7435 56.2324 47.7335C64.3024 47.5835 72.3824 47.4835 80.4524 47.2835C99.1824 46.8335 117.912 46.3135 136.642 45.8635C159.732 45.3135 182.822 44.7435 205.922 44.2935C233.132 43.7535 260.352 43.3435 287.562 42.8335C312.432 42.3735 337.302 41.8635 362.172 41.3635C377.992 41.0435 393.822 40.6235 409.652 40.4335C442.842 40.0435 476.042 39.7835 509.232 39.4535C517.302 39.3735 525.382 39.1935 533.462 39.0635C534.322 39.1035 535.192 39.1135 536.282 39.1135ZM466.752 95.7335C468.072 93.9935 467.952 91.5335 466.622 89.8735C465.312 88.2435 463.172 87.6135 461.172 88.3935C460.282 88.7435 459.452 89.2835 458.672 89.8335C455.182 92.3035 451.712 94.8135 448.232 97.2935C437.062 105.253 425.882 113.213 414.712 121.173C414.322 121.443 413.922 121.703 413.482 121.993C413.062 121.623 412.692 121.323 412.342 121.003C406.602 115.553 400.862 110.113 395.142 104.643C387.772 97.6035 379.922 91.1435 371.532 85.3535C368.412 83.2035 365.192 81.1935 361.932 79.2535C359.372 77.7235 356.552 78.3835 355.102 80.6135C353.662 82.8435 354.262 85.6535 356.602 87.4635C357.242 87.9535 357.932 88.3735 358.622 88.7935C367.962 94.4835 376.632 101.063 384.652 108.483C391.172 114.513 397.582 120.663 404.032 126.773C404.542 127.253 404.992 127.813 405.512 128.383C404.962 128.873 404.562 129.263 404.122 129.613C396.852 135.393 389.562 141.133 382.322 146.953C372.202 155.103 362.112 163.293 352.032 171.503C350.722 172.573 349.532 173.793 348.382 175.033C347.362 176.133 346.802 177.493 346.942 179.023C347.122 180.943 348.082 182.373 349.892 183.123C351.902 183.953 353.682 183.473 355.262 182.063C357.612 179.963 359.852 177.743 362.302 175.773C378.792 162.523 395.322 149.323 411.842 136.123C412.082 135.933 412.372 135.813 412.742 135.613C413.462 136.373 414.152 137.043 414.782 137.773C424.932 149.383 435.082 160.993 445.222 172.603C445.802 173.273 446.332 173.993 446.982 174.603C448.902 176.413 451.432 176.603 453.392 175.143C455.412 173.633 455.942 170.983 454.582 168.633C453.982 167.593 453.202 166.643 452.402 165.733C442.372 154.233 432.322 142.753 422.282 131.263C421.722 130.623 421.172 129.973 420.562 129.253C421.382 128.593 421.982 128.063 422.632 127.593C428.842 123.103 435.042 118.573 441.292 114.133C448.992 108.663 456.752 103.283 464.462 97.8235C465.302 97.2535 466.132 96.5535 466.752 95.7335ZM458.062 318.623C459.802 317.263 460.402 314.853 459.442 312.723C459.112 311.993 458.642 311.313 458.132 310.703C456.952 309.273 455.772 307.833 454.482 306.493C450.782 302.643 446.862 299.033 442.322 296.183C440.922 295.303 439.312 294.763 438.502 294.393C435.592 294.393 434.082 295.303 433.172 297.133C432.282 298.923 432.632 301.043 434.042 302.523C434.482 302.983 435.012 303.383 435.562 303.703C441.082 306.913 445.592 311.273 449.722 316.063C450.402 316.853 451.042 317.713 451.832 318.393C453.722 320.033 456.192 320.083 458.062 318.623ZM419.572 172.103C419.862 171.363 419.952 170.553 420.042 170.163C420.022 167.583 418.742 165.743 416.792 165.113C414.812 164.463 412.642 165.083 411.392 166.813C410.782 167.653 410.332 168.623 409.922 169.583C406.552 177.383 401.532 183.883 394.782 189.053C394.272 189.443 393.782 189.873 393.362 190.363C391.882 192.133 391.792 194.643 393.092 196.413C394.372 198.153 396.602 198.853 398.702 198.043C399.592 197.703 400.452 197.193 401.202 196.603C409.542 190.103 415.662 181.933 419.572 172.103ZM405.222 294.843C407.742 294.393 409.372 292.213 409.242 289.823C409.112 287.303 407.192 285.433 404.492 285.233C403.852 285.183 403.202 285.223 402.552 285.223C400.772 285.223 399.002 285.223 397.222 285.223C397.222 285.183 397.222 285.143 397.222 285.113C396.822 285.083 396.412 285.033 396.012 285.043C391.562 285.063 387.112 285.223 382.872 286.743C380.172 287.703 378.922 290.173 379.612 292.703C380.302 295.223 382.672 296.753 385.462 296.083C390.402 294.903 395.372 294.873 400.392 295.073C402.002 295.123 403.652 295.113 405.222 294.843ZM371.072 210.263C372.682 208.883 373.052 206.543 372.172 204.723C371.282 202.873 369.772 201.963 367.172 201.903C366.602 202.123 365.532 202.463 364.542 202.953C362.602 203.933 360.682 204.963 358.782 206.033C355.832 207.703 352.892 209.393 349.982 211.123C348.282 212.133 346.892 213.463 346.172 215.363C345.332 217.573 345.962 219.873 347.792 221.203C349.632 222.543 351.942 222.383 353.842 220.903C355.172 219.873 356.522 218.843 357.972 217.993C360.892 216.283 363.902 214.723 366.842 213.033C368.302 212.193 369.792 211.353 371.072 210.263ZM370.552 439.733C371.112 437.193 369.882 435.083 367.312 433.963C365.772 433.293 364.242 432.543 362.792 431.693C360.432 430.303 358.142 428.783 355.812 427.333C355.062 426.863 354.292 426.383 353.472 426.073C351.182 425.223 348.752 426.063 347.542 428.043C346.302 430.073 346.662 432.483 348.472 434.213C348.762 434.493 349.082 434.753 349.422 434.963C353.032 437.243 356.602 439.603 360.292 441.763C361.792 442.633 363.542 443.073 365.172 443.713C367.982 443.513 370.042 442.073 370.552 439.733ZM183.692 175.413C183.672 175.253 183.652 174.923 183.602 174.613C181.852 164.123 178.982 153.983 173.942 144.553C173.682 144.053 173.392 143.553 173.052 143.113C171.662 141.353 169.402 140.743 167.392 141.523C165.472 142.273 164.192 144.153 164.442 146.323C164.582 147.573 165.032 148.843 165.612 149.963C169.022 156.543 171.182 163.533 172.782 170.723C173.272 172.923 173.592 175.183 174.272 177.333C175.052 179.773 177.482 181.023 179.842 180.523C182.102 180.043 183.662 178.033 183.692 175.413ZM163.352 129.333C164.932 127.493 164.922 124.903 163.252 122.913C162.582 122.113 161.792 121.413 161.012 120.713C155.052 115.373 148.842 110.393 141.512 107.023C139.702 106.193 137.762 105.643 136.682 105.243C132.402 105.033 129.862 107.923 130.622 111.163C131.062 113.053 132.322 114.243 134.142 114.793C138.362 116.083 142.082 118.333 145.572 120.943C148.662 123.263 151.572 125.813 154.572 128.253C155.382 128.913 156.132 129.673 157.012 130.213C159.202 131.573 161.782 131.173 163.352 129.333ZM117.592 100.303C118.472 98.4735 118.382 96.5735 116.942 95.1435C116.032 94.2335 114.712 93.4835 113.452 93.2135C108.572 92.1535 103.652 91.2735 98.6124 91.2735C96.6824 91.4135 94.7424 91.4435 92.8424 91.7235C91.0924 91.9735 89.3724 92.4235 87.6724 92.8835C86.8324 93.1135 85.9824 93.4535 85.2324 93.9035C83.0024 95.2135 82.1624 97.6635 83.0724 99.9335C83.9824 102.183 86.3024 103.403 88.7924 102.863C90.5124 102.483 92.2024 101.893 93.9424 101.603C98.8624 100.773 103.732 101.513 108.582 102.343C110.092 102.603 111.592 102.963 113.112 103.023C115.112 103.073 116.712 102.153 117.592 100.303Z" fill="#DBA2A2"/>
<path d="M521.513 540.773C526.543 548.653 532.883 555.493 539.443 562.373C530.673 568.043 521.633 570.283 511.733 566.353C502.373 562.643 496.273 553.653 496.493 543.963C496.503 543.643 496.553 543.323 496.613 542.653C504.993 542.573 513.233 542.793 521.513 540.773Z" fill="#F96969"/>
<path d="M486.442 382.213C486.092 382.823 485.992 383.123 485.792 383.323C480.382 388.683 476.202 394.913 473.472 401.983C469.662 411.833 466.142 421.793 462.592 431.743C459.422 440.643 455.982 449.423 451.512 457.763C447.762 464.783 443.012 471.083 437.652 476.953C434.852 480.023 431.662 482.623 427.872 484.353C426.212 485.113 424.382 485.623 422.582 485.913C420.792 486.203 419.542 485.373 419.112 483.633C418.732 482.103 418.552 480.433 418.722 478.873C419.182 474.543 420.882 470.593 423.282 467.003C425.482 463.723 427.962 460.633 430.322 457.473C430.802 456.823 431.372 456.233 431.782 455.553C433.042 453.503 432.832 451.123 431.312 449.503C429.792 447.883 427.452 447.533 425.312 448.653C424.882 448.873 424.502 449.173 424.032 449.473C422.352 448.653 422.052 447.063 421.912 445.443C421.702 442.973 422.312 440.633 423.272 438.383C426.802 430.163 431.672 422.943 438.922 417.523C440.672 416.223 442.422 414.923 444.162 413.613C444.742 413.173 445.352 412.773 445.872 412.263C447.742 410.433 448.032 407.903 446.652 405.883C445.302 403.903 442.742 403.223 440.412 404.313C439.542 404.723 438.772 405.343 437.962 405.863C437.302 406.283 436.642 406.713 435.872 407.203C433.982 404.703 433.462 402.023 434.272 399.323C434.972 396.963 436.032 394.633 437.322 392.523C440.072 388.003 443.822 384.313 447.882 380.953C449.182 379.883 450.462 378.793 452.142 377.393C463.192 378.943 474.662 380.553 486.442 382.213Z" fill="#F5DEBB"/>
<path d="M466.992 638.933C467.052 638.963 467.072 639.063 467.082 639.093C458.782 647.503 450.492 655.903 442.292 664.213C422.342 626.353 400.702 589.353 376.232 553.853C376.862 553.573 377.572 553.223 378.302 552.933C385.842 549.883 393.732 548.263 401.802 547.523C406.862 547.063 411.952 546.863 417.022 546.613C417.672 546.583 418.492 546.773 418.982 547.183C421.912 549.593 425.242 551.133 428.902 552.033C429.582 552.203 430.222 552.533 430.942 552.803C430.402 555.873 429.802 558.793 429.402 561.733C427.362 576.703 428.492 591.343 434.022 605.543C439.772 620.293 450.262 630.523 464.182 637.533C465.122 638.003 466.062 638.463 466.992 638.933Z" fill="#7A8125"/>
<path d="M466.622 89.8831C467.952 91.5431 468.072 94.0031 466.752 95.7431C466.132 96.5631 465.302 97.2631 464.452 97.8531C456.742 103.303 448.982 108.693 441.282 114.163C435.032 118.603 428.842 123.123 422.622 127.623C421.972 128.093 421.372 128.623 420.552 129.283C421.162 130.003 421.712 130.653 422.272 131.293C432.312 142.783 442.362 154.263 452.392 165.763C453.182 166.673 453.962 167.623 454.572 168.663C455.942 171.013 455.402 173.663 453.382 175.173C451.422 176.633 448.892 176.443 446.972 174.633C446.332 174.023 445.802 173.303 445.212 172.633C435.062 161.023 424.922 149.413 414.772 137.803C414.142 137.083 413.452 136.403 412.732 135.643C412.362 135.853 412.072 135.973 411.832 136.153C395.312 149.363 378.782 162.553 362.292 175.803C359.842 177.773 357.602 179.993 355.252 182.093C353.672 183.503 351.892 183.983 349.882 183.153C348.072 182.403 347.112 180.973 346.932 179.053C346.792 177.523 347.352 176.163 348.372 175.063C349.522 173.823 350.712 172.603 352.022 171.533C362.102 163.323 372.192 155.133 382.312 146.983C389.542 141.163 396.842 135.423 404.112 129.643C404.552 129.293 404.952 128.903 405.502 128.413C404.982 127.843 404.532 127.293 404.022 126.803C397.572 120.693 391.172 114.543 384.642 108.513C376.622 101.093 367.952 94.5131 358.612 88.8231C357.922 88.4031 357.232 87.9831 356.592 87.4931C354.252 85.6831 353.652 82.8731 355.092 80.6431C356.542 78.4031 359.362 77.7531 361.922 79.2831C365.182 81.2231 368.402 83.2331 371.522 85.3831C379.912 91.1731 387.752 97.6331 395.132 104.673C400.852 110.143 406.602 115.583 412.332 121.033C412.672 121.363 413.052 121.663 413.472 122.023C413.912 121.723 414.322 121.473 414.702 121.203C425.882 113.243 437.052 105.283 448.222 97.3231C451.702 94.8431 455.172 92.3331 458.662 89.8631C459.452 89.3031 460.272 88.7631 461.162 88.4231C463.172 87.6131 465.312 88.2531 466.622 89.8831Z" fill="black"/>
<path d="M459.453 312.723C460.413 314.853 459.813 317.263 458.073 318.623C456.193 320.083 453.733 320.023 451.843 318.383C451.053 317.703 450.413 316.843 449.733 316.053C445.603 311.263 441.093 306.903 435.573 303.693C435.023 303.373 434.493 302.973 434.053 302.513C432.643 301.033 432.293 298.913 433.183 297.123C434.093 295.293 435.603 294.383 438.513 294.383C439.323 294.763 440.943 295.293 442.333 296.173C446.873 299.023 450.793 302.633 454.493 306.483C455.783 307.823 456.963 309.263 458.143 310.693C458.643 311.313 459.123 311.993 459.453 312.723Z" fill="black"/>
<path d="M437.983 376.353C437.083 377.293 436.503 377.913 435.903 378.513C432.413 382.023 429.433 385.913 427.103 390.303C423.033 397.973 422.843 405.553 427.562 413.043C427.682 413.233 427.743 413.473 427.893 413.843C426.493 415.323 425.063 416.833 423.613 418.353C423.143 418.223 422.743 418.173 422.393 418.003C412.223 413.133 403.053 406.953 396.423 397.593C394.983 395.563 393.803 393.343 392.573 391.163C392.103 390.323 391.753 389.403 391.493 388.473C390.543 385.123 391.213 383.373 394.133 381.453C396.943 379.603 400.063 378.443 403.333 377.903C408.013 377.123 412.743 376.363 417.473 376.113C423.263 375.803 429.093 376.023 434.903 376.043C435.753 376.063 436.623 376.223 437.983 376.353Z" fill="#F5DEBB"/>
<path d="M420.042 170.173C419.952 170.553 419.862 171.373 419.572 172.113C415.662 181.933 409.542 190.113 401.212 196.623C400.462 197.213 399.602 197.713 398.712 198.063C396.612 198.873 394.372 198.173 393.102 196.433C391.802 194.653 391.892 192.143 393.372 190.383C393.782 189.893 394.282 189.463 394.792 189.073C401.542 183.903 406.562 177.403 409.932 169.603C410.342 168.643 410.792 167.673 411.402 166.833C412.652 165.113 414.822 164.493 416.802 165.133C418.742 165.753 420.032 167.593 420.042 170.173Z" fill="black"/>
<path d="M409.252 289.813C409.382 292.203 407.752 294.383 405.232 294.833C403.662 295.113 402.012 295.123 400.402 295.053C395.392 294.863 390.412 294.893 385.472 296.063C382.682 296.733 380.312 295.193 379.622 292.683C378.932 290.153 380.182 287.683 382.882 286.723C387.122 285.203 391.572 285.043 396.022 285.023C396.422 285.023 396.832 285.073 397.232 285.093C397.232 285.133 397.232 285.173 397.232 285.203C399.012 285.203 400.782 285.203 402.562 285.203C403.212 285.203 403.852 285.173 404.502 285.213C407.202 285.433 409.112 287.293 409.252 289.813Z" fill="black"/>
<path d="M372.172 204.713C373.052 206.533 372.682 208.873 371.072 210.253C369.802 211.343 368.302 212.183 366.842 213.023C363.902 214.713 360.892 216.263 357.972 217.983C356.522 218.833 355.172 219.853 353.842 220.893C351.952 222.373 349.632 222.523 347.792 221.193C345.972 219.873 345.332 217.573 346.172 215.353C346.902 213.453 348.292 212.123 349.982 211.113C352.892 209.383 355.832 207.693 358.782 206.023C360.672 204.953 362.592 203.923 364.542 202.943C365.532 202.443 366.602 202.113 367.172 201.893C369.772 201.953 371.282 202.873 372.172 204.713Z" fill="black"/>
<path d="M367.312 433.963C369.882 435.083 371.112 437.193 370.552 439.733C370.042 442.073 367.972 443.513 365.182 443.713C363.552 443.073 361.792 442.633 360.302 441.763C356.612 439.603 353.042 437.253 349.432 434.963C349.092 434.753 348.782 434.483 348.482 434.213C346.672 432.483 346.312 430.073 347.552 428.043C348.762 426.063 351.192 425.223 353.482 426.073C354.302 426.383 355.072 426.863 355.822 427.333C358.152 428.773 360.442 430.293 362.802 431.693C364.252 432.543 365.772 433.293 367.312 433.963Z" fill="black"/>
<path d="M337.042 318.243C337.952 325.543 338.362 332.873 337.792 340.233C336.752 353.613 333.432 366.473 328.982 379.073C325.392 389.253 320.422 398.743 314.582 407.793C307.482 418.803 298.022 427.333 286.872 434.063C277.582 439.673 267.842 444.313 257.282 447.063C255.382 447.553 253.572 448.233 252.132 449.623C250.182 451.503 248.882 453.653 249.712 456.533C249.822 456.913 249.952 457.373 249.832 457.713C248.622 461.003 249.182 464.433 249.042 467.803C248.912 471.033 249.002 474.263 248.982 477.493C248.982 478.273 248.902 479.053 248.842 479.973C237.252 479.303 225.932 479.893 214.542 481.993C214.542 481.033 214.532 480.243 214.542 479.453C214.672 472.513 214.862 465.573 214.932 458.623C214.962 455.333 214.012 453.873 210.842 452.863C206.932 451.613 202.932 450.623 198.962 449.593C182.472 445.313 166.742 439.283 152.202 430.213C141.632 423.623 133.342 414.923 126.442 404.683C118.052 392.243 112.472 378.723 110.002 363.923C108.402 354.303 108.252 344.633 108.942 334.943C111.322 301.643 131.392 267.503 158.522 248.283C169.322 240.633 180.822 234.333 193.492 230.363C205.512 226.603 217.822 224.553 230.452 224.883C247.092 225.313 263.222 228.083 278.132 235.923C301.472 248.193 319.302 265.793 329.942 290.183C333.842 299.123 335.842 308.593 337.042 318.243ZM302.602 357.543C306.942 342.663 306.372 327.703 302.122 312.853C297.092 295.293 287.632 280.743 272.912 269.743C269.472 267.173 265.742 265.093 261.762 263.463C248.592 258.073 234.982 256.463 220.932 258.703C206.712 260.973 193.742 266.183 182.492 275.313C175.202 281.243 168.642 287.893 162.972 295.423C152.142 309.813 147.072 326.073 146.782 342.693C146.752 361.593 152.752 378.853 163.662 392.693C169.422 400.003 176.512 405.563 185.032 409.333C190.362 411.693 195.832 413.673 201.542 414.803C208.822 416.233 216.142 417.433 223.462 418.613C224.682 418.813 226.132 418.723 227.242 418.233C228.572 417.653 229.862 417.553 231.232 417.523C242.402 417.293 253.022 414.893 262.682 409.113C282.702 397.143 296.072 379.903 302.602 357.543Z" fill="#F96969"/>
<path d="M302.123 312.853C306.373 327.703 306.943 342.663 302.603 357.543C296.073 379.903 282.703 397.153 262.693 409.133C253.033 414.913 242.413 417.313 231.243 417.543C229.873 417.573 228.583 417.673 227.253 418.253C226.143 418.733 224.693 418.823 223.473 418.633C216.153 417.453 208.823 416.253 201.553 414.823C195.843 413.693 190.373 411.713 185.043 409.353C176.523 405.583 169.433 400.023 163.673 392.713C152.763 378.863 146.763 361.613 146.793 342.713C147.083 326.093 152.153 309.833 162.983 295.443C168.653 287.903 175.213 281.253 182.503 275.333C193.743 266.203 206.713 260.993 220.943 258.723C235.003 256.473 248.613 258.083 261.773 263.483C265.753 265.113 269.483 267.193 272.923 269.763C287.633 280.733 297.093 295.283 302.123 312.853ZM295.353 342.103C296.023 334.223 295.313 326.463 293.433 318.793C289.683 303.443 282.243 290.333 270.053 280.073C265.743 276.443 260.993 273.613 255.693 271.703C245.493 268.023 235.033 266.783 224.243 268.263C210.473 270.143 198.103 275.153 187.363 284.083C185.623 285.523 184.383 286.853 185.133 289.333C185.453 290.373 185.183 291.583 185.283 292.713C185.643 296.563 185.993 300.423 186.453 304.263C186.683 306.183 187.303 308.053 187.463 309.983C187.773 313.573 184.803 316.163 181.473 315.303C179.273 314.733 178.143 313.093 177.703 310.983C177.113 308.143 176.593 305.283 176.113 302.413C175.793 300.463 175.593 298.483 175.303 296.273C174.803 296.673 174.533 296.843 174.333 297.073C163.763 309.363 157.773 323.563 156.833 339.763C155.963 354.713 159.573 368.543 167.643 381.243C173.653 390.703 181.613 397.603 192.123 401.633C199.553 404.483 207.293 406.043 215.063 407.493C216.663 407.793 218.203 408.093 219.793 407.343C220.403 407.053 221.213 407.113 221.933 407.133C225.803 407.233 229.673 407.553 233.543 407.463C241.233 407.273 248.603 405.483 255.383 401.813C272.903 392.313 284.753 377.913 291.643 359.313C291.803 358.893 291.863 358.433 292.063 357.563C290.303 358.513 288.933 359.293 287.523 360.003C285.793 360.873 284.083 361.813 282.273 362.473C279.843 363.363 277.393 362.333 276.293 360.193C275.233 358.143 275.773 355.593 277.663 354.093C278.353 353.543 279.183 353.183 279.953 352.753C282.563 351.303 285.183 349.883 287.783 348.403C288.903 347.763 289.873 346.813 291.043 346.353C292.193 345.903 293.513 345.893 294.893 345.673C295.063 344.493 295.243 343.303 295.353 342.103Z" fill="black"/>
<path d="M293.433 318.793C295.303 326.463 296.023 334.223 295.353 342.103C295.253 343.303 295.073 344.493 294.923 345.643C293.543 345.873 292.223 345.873 291.073 346.323C289.903 346.783 288.923 347.733 287.812 348.373C285.223 349.853 282.593 351.273 279.983 352.723C279.213 353.153 278.382 353.523 277.692 354.063C275.802 355.563 275.263 358.113 276.323 360.163C277.423 362.303 279.873 363.333 282.303 362.443C284.113 361.783 285.823 360.833 287.553 359.973C288.963 359.263 290.333 358.483 292.092 357.533C291.882 358.403 291.823 358.863 291.673 359.283C284.783 377.883 272.932 392.293 255.412 401.783C248.632 405.453 241.263 407.253 233.573 407.433C229.702 407.523 225.833 407.203 221.963 407.103C221.243 407.083 220.433 407.023 219.823 407.313C218.233 408.063 216.692 407.763 215.092 407.463C207.312 406.013 199.583 404.453 192.153 401.603C181.643 397.573 173.673 390.673 167.673 381.213C159.603 368.513 155.983 354.683 156.863 339.733C157.803 323.543 163.793 309.333 174.363 297.043C174.563 296.813 174.833 296.643 175.333 296.243C175.613 298.463 175.813 300.433 176.143 302.383C176.623 305.243 177.143 308.103 177.733 310.953C178.173 313.063 179.293 314.703 181.503 315.273C184.833 316.133 187.803 313.553 187.493 309.953C187.333 308.033 186.713 306.153 186.483 304.233C186.023 300.393 185.673 296.533 185.313 292.683C185.203 291.563 185.472 290.353 185.163 289.303C184.413 286.833 185.653 285.503 187.393 284.053C198.133 275.123 210.493 270.103 224.273 268.233C235.063 266.763 245.512 268.003 255.722 271.673C261.022 273.583 265.783 276.413 270.083 280.043C282.233 290.333 289.683 303.443 293.433 318.793ZM254.502 369.123C256.812 368.563 258.183 366.593 258.113 364.293C258.043 362.103 256.653 360.313 254.403 359.793C253.323 359.543 252.163 359.553 251.043 359.543C244.312 359.453 237.662 359.043 231.382 356.203C228.762 355.023 226.122 356.043 224.942 358.333C223.722 360.713 224.563 363.473 227.123 364.973C228.363 365.703 229.732 366.233 231.103 366.723C237.193 368.913 243.582 369.173 250.662 369.593C251.482 369.513 253.032 369.473 254.502 369.123ZM210.873 348.993C211.183 347.063 210.422 345.483 208.972 344.273C207.612 343.133 206.163 342.103 204.743 341.033C200.293 337.663 196.612 333.673 194.412 328.453C194.132 327.793 193.722 327.163 193.243 326.623C191.833 325.023 189.623 324.543 187.723 325.353C185.863 326.143 184.773 327.863 184.813 330.563C185.013 331.153 185.313 332.323 185.803 333.413C188.443 339.293 192.523 344.023 197.563 347.963C199.463 349.453 201.363 350.993 203.423 352.253C206.563 354.183 210.313 352.463 210.873 348.993Z" fill="#DBA2A2"/>
<path d="M258.112 364.293C258.182 366.583 256.812 368.553 254.502 369.123C253.032 369.483 251.472 369.523 250.662 369.613C243.572 369.193 237.182 368.933 231.102 366.743C229.742 366.253 228.362 365.723 227.122 364.993C224.562 363.483 223.722 360.723 224.942 358.353C226.122 356.063 228.762 355.033 231.382 356.223C237.662 359.063 244.312 359.473 251.042 359.563C252.162 359.573 253.322 359.563 254.402 359.813C256.652 360.313 258.052 362.103 258.112 364.293Z" fill="black"/>
<path d="M243.222 605.343C243.342 606.093 243.432 606.373 243.432 606.653C243.412 623.523 243.382 640.393 243.332 657.253C243.332 658.863 243.172 660.473 243.122 662.083C243.062 664.183 241.982 665.473 240.112 666.343C236.792 667.883 233.322 668.893 229.712 669.413C222.412 670.463 215.232 670.213 208.322 667.283C203.752 665.343 202.252 663.093 202.582 658.093C203.152 649.563 203.852 641.033 204.492 632.503C204.772 628.813 205.042 625.123 205.342 621.103C212.652 621.383 219.362 619.883 225.812 617.123C232.242 614.373 237.852 610.383 243.222 605.343Z" fill="#F96969"/>
<path d="M208.972 344.273C210.422 345.483 211.182 347.063 210.872 348.993C210.322 352.473 206.572 354.183 203.412 352.263C201.352 351.003 199.462 349.463 197.552 347.973C192.522 344.033 188.432 339.293 185.792 333.423C185.302 332.333 185.002 331.163 184.802 330.573C184.762 327.873 185.852 326.153 187.712 325.363C189.612 324.553 191.822 325.033 193.232 326.633C193.702 327.173 194.122 327.803 194.402 328.463C196.602 333.683 200.282 337.673 204.732 341.043C206.162 342.103 207.612 343.133 208.972 344.273Z" fill="black"/>
<path d="M183.602 174.613C183.652 174.933 183.682 175.253 183.692 175.413C183.662 178.033 182.102 180.043 179.842 180.523C177.482 181.023 175.052 179.783 174.272 177.333C173.592 175.193 173.272 172.933 172.782 170.723C171.172 163.533 169.012 156.533 165.612 149.963C165.032 148.843 164.582 147.563 164.442 146.323C164.192 144.143 165.472 142.273 167.392 141.523C169.402 140.733 171.662 141.353 173.052 143.113C173.402 143.553 173.682 144.053 173.942 144.553C178.982 153.983 181.842 164.113 183.602 174.613Z" fill="black"/>
<path d="M163.252 122.923C164.922 124.913 164.922 127.493 163.352 129.343C161.782 131.183 159.212 131.583 157.012 130.233C156.132 129.693 155.382 128.933 154.572 128.273C151.582 125.833 148.662 123.283 145.572 120.963C142.092 118.353 138.362 116.103 134.142 114.813C132.312 114.253 131.062 113.073 130.622 111.183C129.872 107.943 132.402 105.053 136.682 105.263C137.762 105.653 139.702 106.203 141.512 107.043C148.842 110.423 155.052 115.393 161.012 120.733C161.792 121.423 162.582 122.123 163.252 122.923Z" fill="black"/>
<path d="M116.942 95.1434C118.382 96.5734 118.472 98.4834 117.592 100.303C116.702 102.153 115.112 103.083 113.102 103.003C111.582 102.943 110.082 102.583 108.572 102.323C103.722 101.493 98.8522 100.753 93.9322 101.583C92.1922 101.873 90.5122 102.463 88.7822 102.843C86.3022 103.383 83.9722 102.163 83.0622 99.9134C82.1522 97.6534 82.9922 95.2034 85.2222 93.8834C85.9722 93.4434 86.8222 93.0934 87.6622 92.8634C89.3722 92.4034 91.0922 91.9534 92.8322 91.7034C94.7422 91.4334 96.6822 91.3934 98.6022 91.2534C103.642 91.2634 108.562 92.1434 113.442 93.1934C114.712 93.4834 116.032 94.2334 116.942 95.1434Z" fill="black"/>
</svg>
