<svg width="252" height="252" viewBox="0 0 252 252" fill="none" xmlns="http://www.w3.org/2000/svg">
<path d="M230.138 169.052C230.79 172.508 231.03 175.992 230.822 179.487C230.532 184.371 229.409 189.065 227.206 193.464C226.933 194.006 226.525 194.48 226.208 195.001C226.104 195.173 226.024 195.404 226.045 195.596C226.554 201.008 225.245 206.046 222.92 210.877C221.786 213.231 220.426 215.453 218.93 217.597C216.516 221.063 213.392 223.773 209.962 226.175C204.18 230.221 197.862 233.005 190.926 234.37C187.949 234.957 184.949 235.327 181.922 235.446C179.268 235.549 176.608 235.594 173.951 235.594C171.362 235.594 168.789 235.366 166.295 234.598C165.519 234.359 164.746 234.113 163.99 233.816C163.682 233.698 163.445 233.704 163.152 233.825C158.961 235.564 154.619 236.817 150.182 237.744C146.64 238.484 143.062 238.994 139.46 239.334C135.088 239.749 130.708 239.799 126.33 239.586C117.862 239.172 109.468 238.182 101.237 236.068C98.974 235.487 96.7378 234.818 94.626 233.92C94.1343 234.122 93.7552 234.299 93.3613 234.433C89.9255 235.597 86.3771 236.26 82.7992 236.817C78.5015 237.486 74.186 237.634 69.8469 237.543C63.8076 237.415 57.8927 236.598 52.1466 234.675C42.9352 231.592 35.4683 226.065 29.432 218.527C27.1957 215.734 25.1787 212.802 23.6296 209.562C22.2849 206.754 21.5208 203.792 21.2009 200.712C20.7211 196.088 21.0261 191.521 22.3234 187.039C23.5526 182.792 25.5637 178.971 28.5552 175.69C28.6885 175.544 28.7981 175.343 28.961 175.266C29.7933 174.89 29.7578 174.129 29.8496 173.403C30.4064 169.028 31.5053 164.802 33.4246 160.824C35.2965 156.944 37.6453 153.354 40.7049 150.309C44.736 146.299 49.4602 143.331 54.8183 141.394C56.7405 140.698 58.6658 140.017 60.6887 139.694C61.518 139.563 61.9771 139.152 62.3118 138.414C63.2685 136.305 64.4177 134.297 65.7062 132.372C68.1467 128.72 71.3782 125.924 75.122 123.682C77.918 122.008 80.8118 120.557 83.978 119.707C84.0372 119.692 84.0935 119.651 84.2505 119.574C83.9336 119.396 83.6818 119.257 83.433 119.118C80.8858 117.699 78.6437 115.934 76.982 113.496C73.2293 107.99 73.721 102.051 77.0679 97.1048C79.6033 93.358 83.0421 90.6923 87.239 88.9745C89.7892 87.9319 92.4371 87.301 95.1413 86.9189C97.1347 86.6375 99.1517 86.4954 101.163 86.3354C106.272 85.9296 111.393 85.9533 116.511 86.0037C117.886 86.0185 119.26 86.1666 120.628 86.3058C121.209 86.365 121.778 86.5576 122.444 86.7086C122.565 86.5664 122.74 86.371 122.906 86.1636C125.462 82.9707 128.38 80.1747 131.827 77.9444C133.678 76.7448 135.61 75.7378 137.804 75.3379C139.214 75.0803 140.597 75.1128 141.892 75.8415C141.978 75.8889 142.069 75.954 142.158 75.957C142.854 75.9688 143.367 76.3213 143.761 76.8218C143.852 76.8278 143.912 76.8515 143.947 76.8307C145.816 75.7437 147.86 75.5571 149.948 75.723C154.539 76.0873 158.887 77.3698 163.013 79.3898C164.935 80.3317 166.769 81.4454 168.481 82.7397C169.085 83.1988 169.642 83.723 170.261 84.2532C170.995 83.9096 171.81 84.0607 172.612 84.0933C175.269 84.2029 177.92 84.4072 180.524 84.9878C184.229 85.8112 187.597 87.3839 190.576 89.7416C193.603 92.1377 195.292 95.2922 195.682 99.1367C195.94 101.681 195.179 103.953 193.757 106.026C191.788 108.896 189.122 110.886 185.893 112.133C184.999 112.477 184.081 112.758 183.174 113.069C182.946 113.146 182.718 113.22 182.387 113.33C185.574 115.948 188.491 118.703 190.686 122.13C192.881 125.557 194.471 129.241 195.36 133.261C195.845 133.343 196.302 133.423 196.758 133.5C203.899 134.697 210.092 137.857 215.453 142.662C223.37 149.761 228.171 158.617 230.138 169.052ZM225.686 189.421C227.632 184.054 228.302 178.542 227.638 172.864C226.966 167.109 225.42 161.641 222.591 156.55C220.18 152.211 217.292 148.277 213.537 144.987C208.718 140.763 203.286 137.807 196.95 136.61C196.648 136.554 196.343 136.53 195.964 136.483C196.05 137.265 196.13 137.943 196.192 138.625C196.216 138.891 196.233 139.169 196.189 139.427C196.073 140.079 195.582 140.526 194.945 140.621C194.347 140.707 193.701 140.372 193.434 139.786C193.313 139.522 193.248 139.226 193.206 138.936C193.097 138.207 193.023 137.472 192.922 136.741C192.309 132.292 190.831 128.157 188.488 124.322C186.773 121.514 184.504 119.209 182.09 117.018C180.846 115.889 179.422 115.095 177.89 114.464C177.701 114.387 177.458 114.39 177.251 114.429C176.306 114.598 175.37 114.802 174.428 114.977C170.527 115.694 167.014 117.379 163.573 119.325C163.65 119.423 163.697 119.509 163.768 119.571C165.222 120.824 166.164 122.423 166.863 124.182C168.229 127.63 168.288 131.196 167.722 134.795C167.192 138.159 165.993 141.302 164.313 144.255C162.72 147.06 160.803 149.598 158.227 151.595C156.781 152.714 155.191 153.499 153.402 153.878C150.247 154.545 147.484 153.807 145.23 151.476C143.927 150.131 143.047 148.517 142.526 146.707C141.832 144.294 141.806 141.835 142.155 139.386C142.914 134.06 144.785 129.161 147.987 124.807C148.094 124.662 148.174 124.499 148.313 124.268C147.964 124.301 147.721 124.336 147.475 124.348C146.024 124.407 144.572 124.532 143.124 124.508C140.014 124.452 136.954 123.963 133.933 123.226C132.615 122.903 131.315 122.521 130.154 121.801C129.763 121.558 129.363 121.277 129.082 120.918C128.368 120.009 128.922 118.673 130.059 118.584C130.441 118.555 130.891 118.712 131.223 118.919C132.023 119.423 132.87 119.799 133.773 120.051C136.436 120.788 139.149 121.277 141.904 121.434C147.111 121.733 152.149 120.904 157.012 119.008C159.518 118.031 161.879 116.766 164.254 115.522C166.852 114.159 169.523 112.963 172.405 112.341C174.401 111.908 176.407 111.541 178.406 111.129C181.012 110.596 183.577 109.936 185.997 108.784C188.02 107.821 189.676 106.432 191.02 104.652C192.593 102.569 193.032 100.283 192.377 97.7476C191.663 94.9752 189.999 92.9226 187.679 91.3558C185.713 90.0289 183.601 88.9833 181.314 88.314C178.335 87.4432 175.266 87.2595 172.195 87.0966C172.13 87.0937 172.059 87.1322 171.993 87.1529C172.118 87.8371 172.292 88.5065 172.355 89.1847C172.521 90.9826 171.896 92.5672 170.954 94.057C170.826 94.2614 170.658 94.4836 170.643 94.7057C170.61 95.2329 170.364 95.6387 170.071 96.0385C169.04 97.4484 168.01 98.8612 166.985 100.274C166.881 100.416 166.804 100.579 166.7 100.754C166.822 100.766 166.875 100.786 166.914 100.772C169.094 99.9867 171.359 99.5217 173.611 99.0034C175.885 98.4791 177.95 97.5728 179.576 95.8283C179.786 95.6002 180.076 95.4225 180.361 95.2951C180.935 95.0404 181.56 95.2033 181.981 95.6535C182.398 96.1037 182.511 96.7435 182.215 97.2973C182.079 97.5521 181.871 97.7742 181.67 97.9845C179.893 99.8564 177.725 101.059 175.234 101.687C173.637 102.09 172.032 102.46 170.432 102.854C167.177 103.654 164.236 105.063 161.707 107.294C161.117 107.812 160.483 108.286 159.861 108.766C155.593 112.045 150.745 113.502 145.39 113.357C142.917 113.289 140.506 112.797 138.112 112.225C133.447 111.109 128.779 110.013 123.99 109.568C121.632 109.352 119.269 109.246 116.92 109.61C114.758 109.945 112.608 110.347 110.457 110.75C107.09 111.378 103.713 111.891 100.268 111.704C98.198 111.591 96.1543 111.307 94.1787 110.661C91.6611 109.838 89.5138 108.499 87.9766 106.266C85.8647 103.203 86.5993 99.5277 88.6104 97.3388C88.794 97.1404 88.9866 96.9449 89.2087 96.7968C89.8396 96.3762 90.5949 96.4591 91.1013 96.9715C91.5782 97.4543 91.6641 98.2007 91.285 98.8079C91.1161 99.0774 90.8881 99.3085 90.6896 99.5573C89.496 101.065 89.4042 102.886 90.4438 104.498C90.6156 104.767 90.8111 105.022 91.0184 105.265C92.1439 106.568 93.6012 107.309 95.322 107.836C95.2391 107.489 95.1947 107.255 95.1295 107.024C94.6082 105.164 94.2706 103.283 94.395 101.34C94.5342 99.1633 95.1177 97.1729 96.8415 95.6772C96.9155 95.615 97.0044 95.5469 97.037 95.461C97.4516 94.3917 98.3965 93.9563 99.3413 93.5209C100.123 93.1626 100.911 92.816 101.69 92.4487C103.538 91.5839 105.387 90.716 107.229 89.8364C108.526 89.2173 109.794 89.244 111.041 89.9578C111.361 90.1414 111.681 90.328 111.986 90.5324C113.76 91.7201 115.256 93.2129 116.668 94.7975C116.828 94.9782 116.994 95.1529 117.193 95.3692C118.315 93.3551 119.408 91.3914 120.534 89.3684C120.341 89.321 120.205 89.2706 120.069 89.2618C118.819 89.1699 117.569 89.0189 116.316 89.007C111.763 88.9626 107.208 88.9389 102.665 89.2677C100.384 89.4336 98.0973 89.5816 95.8315 89.8689C92.6711 90.2688 89.6056 91.0626 86.7414 92.5258C83.2908 94.2851 80.5245 96.7849 78.7296 100.227C76.8517 103.825 76.905 107.445 78.9754 111.002C80.2786 113.241 82.1476 114.879 84.3453 116.159C88.4653 118.561 92.9347 119.766 97.6915 119.965C99.9129 120.059 102.117 119.92 104.32 119.648C104.584 119.615 104.865 119.612 105.123 119.663C105.745 119.781 106.174 120.252 106.269 120.862C106.37 121.496 106.074 122.109 105.49 122.399C105.253 122.518 104.981 122.601 104.72 122.627C103.375 122.758 102.028 122.924 100.677 122.971C96.9688 123.107 93.302 122.79 89.727 121.73C89.3094 121.606 88.8888 121.478 88.4593 121.348C88.0388 121.946 87.4523 122.159 86.7977 122.26C85.3612 122.482 83.9514 122.796 82.5859 123.32C79.9054 124.351 77.4145 125.728 75.039 127.319C71.9054 129.416 69.3137 132.049 67.4092 135.319C66.5177 136.847 65.6795 138.411 64.8946 139.999C64.16 141.483 63.0553 142.3 61.4114 142.632C56.8116 143.559 52.505 145.265 48.5776 147.854C46.0244 149.536 43.6016 151.387 41.6142 153.751C37.5831 158.543 34.7752 163.934 33.4601 170.092C32.6663 173.809 32.3909 177.535 32.9477 181.308C33.0366 181.918 33.1195 182.529 33.1817 183.139C33.2084 183.405 33.2113 183.684 33.1699 183.944C33.0455 184.694 32.4709 185.197 31.757 185.215C31.0877 185.233 30.4597 184.794 30.2998 184.086C30.1517 183.441 30.0984 182.774 30.0125 182.117C29.8911 181.175 29.7755 180.233 29.6363 179.128C29.3875 179.433 29.2128 179.623 29.0617 179.833C27.6252 181.824 26.5382 183.995 25.7237 186.305C24.1657 190.718 23.7303 195.271 24.148 199.912C24.4086 202.8 25.0691 205.587 26.3279 208.22C27.7496 211.191 29.6008 213.88 31.6326 216.457C39.3543 226.246 49.4039 232.004 61.7106 233.885C64.9805 234.385 68.2771 234.459 71.5707 234.557C75.5189 234.675 79.4345 234.308 83.3294 233.68C85.6841 233.301 88.0299 232.869 90.3283 232.211C90.6037 232.134 90.8703 232.033 91.1872 231.927C90.9562 231.693 90.7815 231.524 90.6186 231.343C90.4379 231.145 90.2394 230.952 90.0943 230.727C89.6619 230.055 89.7537 229.279 90.3016 228.778C90.8496 228.278 91.6315 228.263 92.2624 228.746C92.3601 228.82 92.449 228.906 92.5349 228.995C93.2546 229.717 94.0958 230.265 94.9962 230.736C96.5068 231.527 98.124 232.042 99.753 232.525C104.22 233.846 108.784 234.708 113.39 235.357C118.072 236.017 122.776 236.441 127.497 236.621C134.185 236.876 140.825 236.429 147.41 235.206C154.391 233.911 161.144 231.962 167.322 228.343C167.491 228.245 167.669 228.153 167.85 228.082C168.661 227.754 169.455 228.002 169.834 228.695C170.213 229.391 169.997 230.209 169.271 230.692C168.863 230.964 168.418 231.18 167.995 231.429C167.844 231.518 167.702 231.628 167.488 231.773C167.725 231.85 167.859 231.903 168.001 231.936C169.683 232.339 171.389 232.561 173.119 232.54C176.318 232.504 179.517 232.475 182.712 232.365C185.248 232.279 187.756 231.918 190.247 231.423C196.18 230.25 201.686 228.029 206.739 224.691C209.044 223.169 211.303 221.584 213.249 219.614C217.132 215.678 219.872 211.016 221.723 205.83C223.003 202.249 223.403 198.567 222.92 194.779C222.63 192.504 222.188 190.265 221.62 188.047C221.522 187.667 221.424 187.276 221.412 186.891C221.392 186.183 221.886 185.591 222.547 185.44C223.184 185.295 223.847 185.585 224.17 186.186C224.306 186.444 224.398 186.731 224.469 187.016C224.694 187.898 224.896 188.784 225.115 189.67C225.156 189.838 225.23 190.004 225.331 190.292C225.488 189.915 225.597 189.673 225.686 189.421ZM167.823 93.0796C169.292 91.6431 169.935 89.4661 168.691 87.3573C168.075 86.3147 167.213 85.5268 166.238 84.8426C161.517 81.5224 156.298 79.4994 150.564 78.8182C149.288 78.6671 148.011 78.6197 146.749 78.9366C146.453 79.0107 146.172 79.1321 145.825 79.2506C146.027 79.5024 146.16 79.6771 146.299 79.843C147.395 81.1403 148.485 82.4435 149.59 83.7319C150.146 84.3806 150.357 85.0914 150.096 85.9208C150.052 86.06 150.031 86.211 149.987 86.3502C149.56 87.6831 149.128 89.0159 148.689 90.3784C149.359 91.5454 150.481 92.2385 151.69 92.8249C153.538 93.7253 155.507 94.2525 157.495 94.7235C159.681 95.2418 161.873 95.3544 164.079 94.8745C165.471 94.5754 166.783 94.0985 167.823 93.0796ZM163.813 137.997C164.891 134.854 165.332 131.62 164.832 128.326C164.367 125.275 163.321 122.506 160.368 120.912C160.329 120.918 160.279 120.915 160.235 120.933C158.12 121.878 155.955 122.669 153.71 123.249C153.55 123.291 153.363 123.353 153.253 123.469C152.321 124.476 151.337 125.45 150.493 126.528C148.289 129.336 146.912 132.562 145.929 135.968C145.176 138.565 144.824 141.21 145.055 143.917C145.165 145.206 145.487 146.444 146.118 147.575C146.77 148.742 147.549 149.812 148.787 150.454C150.274 151.224 151.796 151.227 153.372 150.774C155.158 150.259 156.58 149.178 157.856 147.895C160.652 145.093 162.533 141.72 163.813 137.997ZM164.713 98.2659C164.796 98.1504 164.855 98.0201 164.988 97.7831C161.742 98.494 158.638 98.2066 155.57 97.3714C152.501 96.5391 149.495 95.5735 147.096 93.3373C146.204 94.5843 145.348 95.7809 144.448 97.0426C144.578 97.1493 144.664 97.2381 144.765 97.3033C145.156 97.555 145.541 97.8216 145.95 98.0467C150.822 100.733 156.07 101.853 161.6 101.808C161.979 101.805 162.237 101.684 162.462 101.367C163.197 100.324 163.961 99.3025 164.713 98.2659ZM159.764 104.832C156.035 104.687 152.46 103.911 148.938 102.774C147.786 105.2 147.196 107.649 147.158 110.235C150.614 110.647 157.779 107.581 159.764 104.832ZM146.971 85.8971C147.022 85.7075 147.028 85.4202 146.921 85.2869C146.009 84.1644 145.067 83.0655 144.069 81.8837C143.98 82.1621 143.912 82.3369 143.87 82.5205C143.521 84.0163 142.958 85.4232 142.17 86.7442C140.719 89.1788 139.087 91.4921 137.206 93.6098C134.828 96.2873 132.076 98.5561 129.173 100.644C127.109 102.128 124.947 103.434 122.494 104.19C122.432 104.207 122.385 104.273 122.317 104.326C122.536 105.031 122.752 105.73 122.968 106.429C123.107 106.453 123.229 106.482 123.347 106.497C124.739 106.654 126.129 106.823 127.524 106.947C127.82 106.974 128.172 106.915 128.43 106.769C130.607 105.57 132.722 104.279 134.688 102.747C137.544 100.523 139.94 97.8601 142.143 95.0137C143.29 93.5358 144.371 92.0133 145.248 90.3547C146.003 88.9389 146.551 87.4432 146.971 85.8971ZM144.134 110.199C144.175 107.169 144.886 104.332 146.121 101.622C144.88 100.89 143.678 100.185 142.431 99.4477C139.658 102.732 136.442 105.537 132.674 107.809C134.837 108.555 142.718 110.199 144.134 110.199ZM141.119 80.4887C141.196 78.7234 140.352 78.0007 138.601 78.2702C137.17 78.4894 135.852 79.0314 134.623 79.7719C132.36 81.1343 130.269 82.7219 128.377 84.5701C125.009 87.8608 122.482 91.7379 120.371 95.9112C120.048 96.548 119.749 97.1937 119.432 97.8334C119.31 98.0763 119.322 98.2777 119.467 98.5206C120.024 99.4477 120.554 100.387 121.138 101.4C121.298 101.364 121.44 101.343 121.576 101.299C122.873 100.896 124.12 100.372 125.252 99.6135C126.6 98.7102 127.95 97.8068 129.233 96.8146C131.827 94.8094 134.277 92.6442 136.264 90.0082C137.641 88.1807 139.025 86.3561 140.052 84.2976C140.654 83.0981 141.059 81.8304 141.119 80.4887ZM119.737 106.284C119.678 106.076 119.627 105.866 119.556 105.662C118.031 101.121 115.356 97.3536 111.793 94.1963C111.207 93.6779 110.531 93.2633 109.903 92.7923C109.373 92.3954 108.843 92.3806 108.257 92.6887C107.561 93.05 106.835 93.358 106.124 93.6957C105.173 94.1459 104.225 94.602 103.263 95.0611C103.328 95.1381 103.355 95.1885 103.393 95.2122C103.5 95.2744 103.612 95.3247 103.719 95.381C106.559 96.8323 108.902 98.8494 110.623 101.542C111.405 102.762 112.101 104.033 112.818 105.294C113.132 105.845 113.395 106.423 113.668 106.959C115.712 106.731 117.702 106.512 119.737 106.284ZM110.564 107.655C110.502 107.457 110.481 107.335 110.428 107.234C109.524 105.487 108.594 103.757 107.392 102.193C106.083 100.49 104.454 99.1604 102.543 98.1918C101.983 97.9075 101.355 97.712 100.736 97.5995C99.4568 97.3684 98.5327 97.8808 97.9848 99.0597C97.3983 100.321 97.2354 101.678 97.4487 103.026C97.7389 104.859 98.1802 106.669 98.5623 108.505C102.641 109.089 106.553 108.416 110.564 107.655Z" fill="black"/>
<path d="M227.641 172.866C228.305 178.544 227.635 184.056 225.689 189.423C225.601 189.675 225.491 189.918 225.34 190.297C225.239 190.006 225.165 189.844 225.124 189.675C224.905 188.792 224.703 187.903 224.478 187.021C224.407 186.737 224.315 186.449 224.179 186.192C223.856 185.59 223.193 185.3 222.556 185.445C221.892 185.596 221.401 186.189 221.421 186.896C221.433 187.284 221.531 187.672 221.629 188.052C222.197 190.27 222.639 192.509 222.929 194.784C223.412 198.569 223.012 202.254 221.732 205.835C219.878 211.021 217.141 215.683 213.258 219.619C211.312 221.589 209.053 223.174 206.748 224.696C201.695 228.034 196.192 230.255 190.256 231.428C187.766 231.92 185.257 232.284 182.721 232.37C179.526 232.48 176.327 232.509 173.128 232.545C171.401 232.563 169.692 232.344 168.01 231.941C167.871 231.908 167.734 231.852 167.497 231.778C167.711 231.633 167.85 231.523 168.004 231.434C168.427 231.186 168.872 230.969 169.28 230.697C170.003 230.217 170.222 229.399 169.843 228.7C169.467 228.007 168.673 227.759 167.859 228.087C167.678 228.161 167.5 228.25 167.331 228.348C161.153 231.967 154.397 233.916 147.419 235.211C140.834 236.434 134.194 236.881 127.506 236.626C122.785 236.446 118.081 236.022 113.399 235.362C108.79 234.713 104.229 233.851 99.762 232.53C98.133 232.047 96.5188 231.532 95.0052 230.741C94.1078 230.27 93.2666 229.722 92.5439 229C92.458 228.914 92.3692 228.825 92.2714 228.751C91.6405 228.268 90.8586 228.283 90.3107 228.783C89.7627 229.284 89.6709 230.06 90.1033 230.732C90.2485 230.957 90.444 231.15 90.6276 231.348C90.7905 231.529 90.9652 231.698 91.1963 231.932C90.8764 232.036 90.6098 232.136 90.3373 232.216C88.0389 232.874 85.696 233.306 83.3384 233.685C79.4435 234.31 75.5279 234.681 71.5797 234.562C68.2861 234.461 64.9895 234.387 61.7196 233.89C49.413 232.009 39.3633 226.251 31.6417 216.462C29.6098 213.885 27.7586 211.196 26.3369 208.225C25.0781 205.595 24.4176 202.805 24.157 199.917C23.7394 195.276 24.1748 190.726 25.7327 186.31C26.5472 184.003 27.6342 181.829 29.0708 179.838C29.2218 179.631 29.3966 179.438 29.6454 179.133C29.7846 180.238 29.9001 181.18 30.0215 182.122C30.1074 182.779 30.1607 183.446 30.3088 184.092C30.4688 184.799 31.0967 185.238 31.7661 185.22C32.4799 185.202 33.0545 184.699 33.1789 183.949C33.2233 183.686 33.2174 183.41 33.1907 183.144C33.1285 182.534 33.0486 181.923 32.9567 181.313C32.3999 177.54 32.6754 173.814 33.4692 170.097C34.7842 163.942 37.5891 158.548 41.6232 153.756C43.6106 151.395 46.0335 149.544 48.5866 147.859C52.5141 145.27 56.8236 143.564 61.4204 142.637C63.0643 142.305 64.1691 141.488 64.9036 140.004C65.6885 138.419 66.5267 136.855 67.4183 135.324C69.3198 132.054 71.9114 129.421 75.0481 127.324C77.4235 125.734 79.9174 124.356 82.595 123.326C83.9604 122.801 85.3702 122.487 86.8068 122.265C87.4613 122.164 88.0448 121.951 88.4684 121.353C88.8978 121.483 89.3184 121.611 89.7361 121.735C93.314 122.795 96.9779 123.112 100.686 122.976C102.037 122.926 103.381 122.763 104.729 122.632C104.993 122.609 105.262 122.523 105.499 122.404C106.086 122.114 106.379 121.504 106.278 120.867C106.183 120.26 105.754 119.789 105.132 119.668C104.871 119.617 104.593 119.62 104.329 119.653C102.129 119.925 99.922 120.062 97.7006 119.97C92.9467 119.768 88.4743 118.566 84.3543 116.164C82.1566 114.881 80.2877 113.246 78.9844 111.007C76.9141 107.45 76.8637 103.83 78.7386 100.232C80.5335 96.79 83.2999 94.2902 86.7505 92.5308C89.6146 91.0706 92.6772 90.2739 95.8405 89.874C98.1093 89.5867 100.393 89.4386 102.674 89.2728C107.22 88.944 111.772 88.9677 116.325 89.0121C117.578 89.024 118.828 89.175 120.078 89.2668C120.214 89.2757 120.347 89.329 120.543 89.3735C119.417 91.3964 118.324 93.3572 117.202 95.3743C117.003 95.158 116.837 94.9833 116.677 94.8026C115.265 93.218 113.769 91.7252 111.995 90.5375C111.687 90.3331 111.37 90.1465 111.05 89.9629C109.803 89.2491 108.535 89.2224 107.238 89.8415C105.396 90.7211 103.547 91.589 101.699 92.4538C100.92 92.8182 100.132 93.1677 99.3503 93.526C98.4055 93.9614 97.4606 94.3939 97.046 95.4661C97.0134 95.549 96.9245 95.6171 96.8505 95.6823C95.1267 97.178 94.5432 99.1684 94.404 101.345C94.2796 103.285 94.6172 105.169 95.1385 107.029C95.2037 107.257 95.2481 107.491 95.3311 107.841C93.6102 107.314 92.153 106.573 91.0274 105.27C90.8201 105.027 90.6246 104.772 90.4528 104.503C89.4103 102.892 89.505 101.07 90.6987 99.5624C90.8971 99.3106 91.1252 99.0796 91.294 98.813C91.6731 98.2058 91.5872 97.4594 91.1104 96.9766C90.6039 96.4642 89.8486 96.3813 89.2177 96.8019C88.9956 96.95 88.8031 97.1455 88.6194 97.3439C86.6083 99.5327 85.8767 103.208 87.9856 106.271C89.5258 108.504 91.6702 109.846 94.1878 110.666C96.1663 111.312 98.21 111.596 100.277 111.709C103.719 111.896 107.099 111.383 110.466 110.755C112.617 110.355 114.767 109.953 116.929 109.615C119.278 109.251 121.641 109.354 123.999 109.574C128.791 110.015 133.456 111.111 138.121 112.23C140.515 112.805 142.926 113.297 145.399 113.362C150.754 113.507 155.602 112.05 159.87 108.771C160.495 108.291 161.126 107.817 161.716 107.299C164.245 105.069 167.189 103.659 170.441 102.859C172.041 102.465 173.646 102.095 175.243 101.692C177.734 101.064 179.902 99.8615 181.679 97.9896C181.88 97.7763 182.088 97.5542 182.224 97.3024C182.52 96.7486 182.407 96.1088 181.99 95.6586C181.569 95.2054 180.947 95.0455 180.37 95.3002C180.082 95.4276 179.795 95.6053 179.585 95.8333C177.959 97.5779 175.894 98.4842 173.62 99.0085C171.369 99.5298 169.103 99.9918 166.923 100.777C166.881 100.792 166.828 100.771 166.709 100.759C166.813 100.584 166.89 100.421 166.994 100.279C168.019 98.8663 169.049 97.4535 170.08 96.0436C170.373 95.6438 170.619 95.235 170.652 94.7108C170.667 94.4887 170.832 94.2665 170.963 94.0621C171.905 92.5723 172.53 90.9877 172.364 89.1898C172.302 88.5116 172.127 87.8422 172.002 87.158C172.068 87.1402 172.136 87.0988 172.204 87.1017C175.275 87.2646 178.344 87.4482 181.323 88.319C183.613 88.9884 185.722 90.034 187.689 91.3609C190.008 92.9248 191.672 94.9803 192.386 97.7526C193.041 100.288 192.602 102.572 191.03 104.657C189.685 106.437 188.029 107.826 186.006 108.789C183.586 109.941 181.021 110.601 178.415 111.134C176.416 111.543 174.407 111.913 172.414 112.346C169.529 112.971 166.861 114.164 164.263 115.527C161.888 116.771 159.527 118.036 157.021 119.013C152.158 120.909 147.12 121.738 141.913 121.439C139.155 121.282 136.445 120.793 133.782 120.056C132.876 119.804 132.032 119.428 131.232 118.924C130.9 118.714 130.447 118.557 130.068 118.589C128.931 118.678 128.374 120.017 129.091 120.923C129.372 121.279 129.772 121.563 130.163 121.806C131.327 122.526 132.627 122.911 133.942 123.231C136.963 123.968 140.02 124.457 143.133 124.513C144.581 124.54 146.033 124.416 147.484 124.353C147.727 124.344 147.97 124.309 148.322 124.273C148.183 124.504 148.103 124.667 147.996 124.812C144.792 129.169 142.92 134.065 142.164 139.391C141.815 141.84 141.839 144.299 142.535 146.713C143.056 148.525 143.939 150.137 145.239 151.481C147.496 153.812 150.259 154.55 153.411 153.883C155.2 153.507 156.79 152.722 158.236 151.6C160.812 149.603 162.729 147.065 164.322 144.26C166.002 141.304 167.201 138.165 167.731 134.8C168.297 131.201 168.238 127.635 166.872 124.187C166.176 122.428 165.232 120.829 163.777 119.576C163.706 119.517 163.659 119.428 163.582 119.33C167.026 117.384 170.536 115.699 174.437 114.982C175.382 114.807 176.318 114.603 177.26 114.434C177.467 114.398 177.713 114.393 177.899 114.47C179.431 115.103 180.855 115.894 182.099 117.023C184.513 119.214 186.782 121.519 188.497 124.327C190.84 128.162 192.318 132.297 192.931 136.746C193.032 137.477 193.109 138.212 193.215 138.941C193.257 139.228 193.322 139.527 193.443 139.791C193.713 140.377 194.356 140.712 194.954 140.626C195.591 140.531 196.082 140.081 196.198 139.432C196.245 139.172 196.228 138.896 196.201 138.63C196.139 137.948 196.059 137.27 195.973 136.488C196.352 136.536 196.657 136.556 196.959 136.616C203.295 137.812 208.727 140.768 213.546 144.992C217.298 148.282 220.189 152.216 222.6 156.555C225.423 161.643 226.969 167.111 227.641 172.866ZM198.129 178.879C198.402 174.412 197.981 170.026 196.699 165.74C195.573 161.978 193.746 158.605 190.893 155.856C186.332 151.455 180.885 149.654 174.65 150.77C169.609 151.674 165.24 154.017 161.736 157.834C161.408 158.193 161.085 158.557 160.756 158.918C160.152 158.676 159.613 158.442 159.062 158.237C156.781 157.378 154.406 157.032 151.989 156.872C148.023 156.605 144.122 156.978 140.31 158.104C137.547 158.918 135 160.18 132.799 162.073C131.279 163.382 130.095 164.928 129.47 166.862C128.783 168.998 128.931 171.039 130.225 172.928C131.362 174.587 132.79 175.92 134.659 176.705C135.61 177.104 136.578 177.478 137.57 177.741C140.781 178.6 144.057 178.813 147.374 178.68C151.228 178.526 154.85 177.572 158.262 175.786C160.661 174.531 162.847 172.996 164.47 170.781C164.947 170.129 165.362 169.433 165.856 168.678C168.318 169.694 170.513 171.059 172.272 173.056C172.435 173.239 172.559 173.452 172.698 173.657C173.762 175.206 173.362 176.992 171.81 178.029C171.197 178.437 170.545 178.793 169.879 179.101C167.551 180.179 165.131 180.999 162.631 181.577C159.536 182.294 156.396 182.738 153.245 183.114C149.67 183.538 146.08 183.662 142.487 183.582C137.565 183.473 132.657 183.114 127.776 182.465C125.264 182.131 122.755 181.787 120.249 181.417C119.604 181.322 118.937 181.242 118.348 180.878C118.369 180.733 118.386 180.614 118.407 180.496C118.813 178.221 118.863 175.943 118.395 173.672C117.433 169.033 114.666 165.686 110.703 163.32C106.533 160.829 101.989 159.763 97.1141 160.311C95.0141 160.548 93.0297 161.175 91.1222 162.058C90.2988 162.437 89.9908 163.267 90.3107 164.025C90.6128 164.736 91.3947 165.07 92.2329 164.824C92.4936 164.75 92.7424 164.644 92.9912 164.534C97.0756 162.769 101.219 162.807 105.384 164.182C108.209 165.115 110.712 166.587 112.705 168.847C113.345 169.569 113.914 170.331 114.349 171.198C115.857 174.226 116.011 177.38 115.282 180.623C114.684 183.283 113.434 185.655 111.912 187.877C107.919 193.697 102.86 198.3 96.3618 201.199C94.2559 202.138 92.2151 203.243 89.9641 203.844C89.2325 204.04 88.8445 204.727 88.9393 205.438C89.0341 206.143 89.6028 206.717 90.3521 206.691C90.9534 206.67 91.5813 206.552 92.1411 206.335C93.5154 205.802 94.866 205.207 96.2107 204.6C98.7224 203.465 101.193 202.245 103.476 200.681C106.853 198.368 109.779 195.572 112.329 192.379C112.51 192.154 112.7 191.935 112.907 191.686C113.031 191.837 113.117 191.926 113.182 192.023C114.868 194.565 116.95 196.754 119.222 198.771C123.353 202.44 127.968 205.305 133.228 207.052C136.584 208.166 140.026 208.897 143.595 208.616C149.021 208.189 152.96 205.503 155.235 200.569C157.314 196.058 157.691 191.289 156.95 186.411C156.917 186.197 156.888 185.987 156.852 185.735C158.991 185.353 161.082 184.977 163.194 184.598C163.724 186.734 163.952 188.884 164.091 191.04C164.245 193.427 164.136 195.812 163.804 198.184C163.377 201.22 162.441 204.09 160.809 206.685C158.007 211.142 154.065 214.184 149.069 215.855C145.245 217.134 141.353 217.25 137.408 216.542C129.603 215.138 122.779 211.747 116.92 206.412C115.59 205.201 114.349 203.901 113.366 202.378C113.259 202.215 113.135 202.055 112.996 201.922C112.486 201.43 111.731 201.345 111.159 201.7C110.558 202.073 110.303 202.817 110.57 203.51C110.665 203.758 110.819 203.989 110.967 204.215C112.24 206.143 113.849 207.769 115.581 209.273C121.677 214.572 128.676 218.023 136.635 219.465C139.999 220.075 143.364 220.2 146.758 219.566C155.217 217.981 163.265 211.898 166.031 202.224C166.686 199.941 166.976 197.601 167.115 195.237C167.343 191.384 166.943 187.59 166.111 183.784C166.256 183.73 166.464 183.662 166.665 183.582C168.333 182.925 170.015 182.297 171.665 181.592C172.728 181.136 173.711 180.517 174.538 179.681C176.493 177.697 176.895 174.904 175.506 172.487C175.083 171.749 174.547 171.05 173.957 170.434C172.106 168.512 169.902 167.081 167.438 166.08C166.662 165.763 166.209 165.369 165.945 164.502C165.534 163.136 164.704 161.951 163.644 160.959C163.54 160.861 163.383 160.817 163.229 160.737C164.189 159.564 165.095 158.602 166.159 157.799C168.626 155.942 171.339 154.559 174.36 153.895C179.126 152.847 183.494 153.759 187.369 156.786C190.333 159.099 192.273 162.132 193.482 165.654C195.209 170.686 195.478 175.858 194.907 181.106C194.548 184.397 193.796 187.598 192.816 190.753C192.73 191.034 192.644 191.322 192.62 191.612C192.561 192.326 192.973 192.927 193.636 193.146C194.285 193.362 194.99 193.108 195.354 192.488C195.514 192.216 195.612 191.905 195.706 191.6C197.03 187.459 197.863 183.227 198.129 178.879ZM138.755 138.203C138.758 136.382 138.501 134.613 138.107 132.851C137.259 129.08 133.581 125.585 130.065 124.907C127.355 124.383 124.888 124.783 122.714 126.572C122.601 126.664 122.468 126.726 122.346 126.806C121.958 127.058 121.538 127.277 121.185 127.573C118.523 129.806 116.509 132.555 114.954 135.635C112.599 140.3 111.31 145.235 111.538 150.495C111.66 153.246 112.457 155.811 113.941 158.151C115.812 161.101 120.166 163.702 124.828 162.182C126.949 161.492 128.78 160.302 130.338 158.723C135.953 153.03 138.361 146.025 138.755 138.203Z" fill="#F96969"/>
<path d="M196.698 165.737C197.981 170.023 198.404 174.41 198.129 178.876C197.862 183.224 197.03 187.457 195.712 191.604C195.614 191.909 195.517 192.22 195.36 192.492C194.998 193.111 194.29 193.366 193.642 193.15C192.978 192.93 192.563 192.329 192.626 191.615C192.649 191.325 192.735 191.035 192.821 190.756C193.802 187.602 194.554 184.4 194.912 181.11C195.484 175.858 195.217 170.69 193.488 165.657C192.279 162.136 190.339 159.103 187.374 156.79C183.497 153.763 179.128 152.85 174.366 153.899C171.345 154.565 168.631 155.945 166.164 157.803C165.101 158.605 164.195 159.568 163.235 160.741C163.389 160.821 163.546 160.865 163.65 160.963C164.707 161.955 165.536 163.14 165.951 164.505C166.212 165.373 166.665 165.767 167.444 166.084C169.911 167.085 172.115 168.516 173.963 170.438C174.552 171.054 175.088 171.753 175.512 172.49C176.901 174.904 176.498 177.7 174.543 179.685C173.72 180.523 172.737 181.139 171.67 181.595C170.024 182.3 168.341 182.928 166.671 183.586C166.469 183.666 166.262 183.734 166.117 183.787C166.949 187.593 167.352 191.39 167.121 195.241C166.982 197.604 166.691 199.941 166.037 202.228C163.27 211.904 155.223 217.985 146.764 219.57C143.37 220.206 140.005 220.079 136.64 219.469C128.679 218.024 121.68 214.573 115.587 209.277C113.857 207.772 112.246 206.146 110.973 204.218C110.824 203.993 110.67 203.762 110.576 203.513C110.309 202.82 110.564 202.077 111.165 201.704C111.737 201.351 112.492 201.434 113.001 201.926C113.141 202.062 113.265 202.219 113.372 202.382C114.355 203.904 115.596 205.204 116.926 206.416C122.784 211.75 129.609 215.142 137.413 216.546C141.358 217.256 145.247 217.138 149.074 215.858C154.068 214.188 158.013 211.146 160.815 206.688C162.447 204.094 163.383 201.224 163.81 198.188C164.141 195.815 164.254 193.431 164.097 191.044C163.958 188.887 163.73 186.737 163.199 184.602C161.088 184.981 158.996 185.357 156.858 185.739C156.894 185.991 156.923 186.204 156.956 186.414C157.693 191.293 157.32 196.061 155.241 200.572C152.966 205.507 149.027 208.193 143.601 208.62C140.032 208.901 136.59 208.169 133.234 207.056C127.974 205.308 123.359 202.444 119.227 198.774C116.956 196.757 114.873 194.568 113.188 192.027C113.12 191.926 113.034 191.838 112.913 191.689C112.705 191.938 112.516 192.157 112.335 192.383C109.785 195.575 106.861 198.374 103.482 200.685C101.198 202.249 98.731 203.466 96.2164 204.603C94.8717 205.21 93.5211 205.806 92.1468 206.339C91.587 206.558 90.9591 206.677 90.3578 206.694C89.6084 206.721 89.0397 206.146 88.945 205.441C88.8502 204.728 89.2382 204.043 89.9698 203.848C92.2208 203.247 94.2615 202.142 96.3674 201.203C102.866 198.303 107.925 193.701 111.917 187.88C113.443 185.659 114.69 183.287 115.288 180.627C116.017 177.384 115.863 174.229 114.355 171.202C113.923 170.334 113.351 169.573 112.711 168.85C110.715 166.593 108.215 165.121 105.389 164.185C101.225 162.811 97.0813 162.77 92.9968 164.538C92.748 164.644 92.4992 164.751 92.2386 164.828C91.4004 165.071 90.6184 164.739 90.3163 164.028C89.9935 163.27 90.3045 162.441 91.1279 162.062C93.0353 161.179 95.0198 160.548 97.1198 160.314C101.995 159.766 106.539 160.833 110.709 163.323C114.669 165.69 117.438 169.037 118.401 173.675C118.872 175.947 118.821 178.225 118.413 180.499C118.392 180.618 118.374 180.739 118.354 180.882C118.943 181.243 119.609 181.323 120.255 181.421C122.761 181.791 125.27 182.134 127.781 182.469C132.665 183.118 137.57 183.476 142.493 183.586C146.086 183.666 149.675 183.544 153.25 183.118C156.402 182.742 159.544 182.297 162.637 181.581C165.133 181.003 167.556 180.183 169.884 179.104C170.551 178.796 171.205 178.441 171.816 178.032C173.368 176.998 173.767 175.212 172.704 173.66C172.565 173.459 172.438 173.243 172.278 173.059C170.515 171.06 168.323 169.697 165.862 168.682C165.367 169.437 164.953 170.136 164.476 170.784C162.853 173 160.667 174.534 158.268 175.79C154.859 177.576 151.233 178.527 147.38 178.684C144.063 178.817 140.787 178.604 137.576 177.745C136.584 177.478 135.612 177.105 134.665 176.708C132.796 175.92 131.365 174.588 130.231 172.932C128.936 171.045 128.788 169.001 129.475 166.866C130.097 164.935 131.285 163.386 132.805 162.077C135.005 160.184 137.552 158.922 140.316 158.108C144.131 156.985 148.032 156.612 151.995 156.875C154.411 157.038 156.787 157.385 159.068 158.241C159.618 158.448 160.158 158.679 160.762 158.922C161.091 158.558 161.413 158.196 161.742 157.838C165.246 154.017 169.612 151.677 174.656 150.774C180.888 149.657 186.338 151.458 190.899 155.86C193.742 158.602 195.573 161.976 196.698 165.737ZM162.957 167.577C163.466 166.644 163.359 165.785 162.88 164.92C162.148 163.602 161.132 162.553 159.781 161.866C159.168 161.555 158.54 161.268 157.895 161.031C155.27 160.062 152.531 159.849 149.767 159.861C149.151 159.861 148.535 159.831 147.922 159.867C145.111 160.033 142.351 160.468 139.712 161.496C137.653 162.296 135.749 163.35 134.17 164.926C133.284 165.808 132.627 166.83 132.268 168.039C131.907 169.259 132.1 170.37 132.846 171.395C133.643 172.488 134.605 173.391 135.861 173.924C136.628 174.25 137.41 174.555 138.213 174.78C141.107 175.592 144.069 175.76 147.057 175.672C151.319 175.544 155.223 174.291 158.792 171.972C160.528 170.844 161.949 169.416 162.957 167.577ZM147.125 203.735C147.33 199.515 145.733 196.144 142.274 193.724C140.476 192.465 138.441 191.838 136.211 192.06C135.553 192.125 134.899 192.22 134.265 192.531C134.333 192.637 134.368 192.729 134.434 192.794C135.823 194.278 136.889 195.993 137.917 197.732C138.077 198.004 138.222 198.297 138.302 198.602C138.471 199.239 138.198 199.864 137.659 200.199C137.093 200.548 136.385 200.498 135.885 200.03C135.675 199.832 135.509 199.577 135.352 199.331C134.851 198.543 134.383 197.732 133.865 196.956C132.858 195.454 131.697 194.089 130.139 193.117C128.667 192.202 127.094 191.515 125.415 191.079C123.744 190.644 122.068 190.546 120.385 191.032C119.275 191.355 118.38 191.95 117.811 193.099C118.007 193.318 118.17 193.532 118.362 193.718C119.366 194.696 120.341 195.709 121.392 196.636C125.483 200.249 130.068 203.01 135.334 204.538C137.869 205.273 140.449 205.791 143.115 205.634C144.492 205.554 145.843 205.326 147.122 204.707C147.125 204.369 147.11 204.052 147.125 203.735Z" fill="black"/>
<path d="M173.717 31.8377C173.818 32.9454 173.46 33.7362 172.651 34.4974C169.511 37.4593 165.85 39.4586 161.772 40.8181C157.211 42.3375 152.599 43.6111 147.816 44.1621C142.973 44.7189 138.189 44.4731 133.501 43.0454C132.103 42.6189 130.811 41.9732 129.63 41.1024C128.788 40.4834 128.152 39.7133 127.906 38.6915C127.568 37.2816 127.26 35.8658 126.988 34.4441C126.579 32.2938 126.212 30.1375 125.827 27.9843C125.359 25.3689 126.292 23.2008 128.009 21.317C129.126 20.0938 130.459 19.1134 131.857 18.2308C136.415 15.3577 141.373 13.5688 146.693 12.7513C149.228 12.3633 151.77 12.1293 154.151 12.1708C157.468 12.153 160.581 12.3722 163.641 13.0712C165.765 13.5569 167.793 14.3092 169.588 15.574C170.246 16.039 170.85 16.5988 171.404 17.1823C172.245 18.0649 172.689 19.1489 172.793 20.3692C172.923 21.862 173.077 23.3548 173.193 24.8506C173.377 27.1757 173.501 29.5096 173.717 31.8377ZM170.329 32.5041C170.56 32.2908 170.693 32.0835 170.667 31.7429C170.527 30.0043 170.412 28.2627 170.279 26.3789C170.077 26.5418 169.988 26.6159 169.896 26.6869C169.162 27.2615 168.469 27.9043 167.681 28.393C164.364 30.4633 160.786 31.965 157.018 32.9898C150.754 34.6959 144.368 35.4008 137.884 35.0335C135.245 34.8854 132.66 34.4263 130.225 33.3275C130.127 33.2831 130.015 33.2801 129.778 33.2297C130.098 34.7225 130.4 36.1117 130.684 37.5037C130.811 38.1317 131.196 38.5404 131.709 38.881C132.763 39.583 133.915 40.0687 135.136 40.3886C139.407 41.5052 143.722 41.6741 148.088 41.0935C153.286 40.4034 158.274 38.9373 163.158 37.0832C165.862 36.0524 168.214 34.4619 170.329 32.5041ZM169.615 21.7228C169.932 20.698 169.79 19.7621 168.993 19.0068C168.531 18.5684 168.036 18.1508 167.503 17.8102C166.292 17.0342 164.959 16.5247 163.573 16.1634C160.575 15.3785 157.507 15.2215 154.675 15.1652C152.063 15.1711 149.711 15.3459 147.371 15.6984C142.241 16.4714 137.464 18.1745 133.113 21.0209C131.955 21.7761 130.877 22.6292 129.949 23.6658C129.339 24.3471 128.907 25.132 128.993 26.0649C129.07 26.9061 129.031 27.7591 129.378 28.5855C129.633 29.1868 129.938 29.6903 130.483 30.0013C131.099 30.3538 131.738 30.6855 132.399 30.9313C134.614 31.7607 136.94 31.9887 139.282 32.0805C143.856 32.2612 148.375 31.7843 152.851 30.8899C157.32 29.9983 161.565 28.4789 165.516 26.1893C166.434 25.6562 167.311 25.0638 168.024 24.2671C168.7 23.5118 169.31 22.7121 169.615 21.7228Z" fill="black"/>
<path d="M170.666 31.7419C170.693 32.0825 170.56 32.2899 170.329 32.5031C168.214 34.4609 165.862 36.0515 163.158 37.0792C158.274 38.9334 153.286 40.4025 148.088 41.0896C143.722 41.6702 139.404 41.5013 135.136 40.3847C133.915 40.0648 132.766 39.582 131.709 38.8771C131.196 38.5365 130.814 38.1278 130.684 37.4998C130.4 36.1077 130.095 34.7216 129.778 33.2258C130.012 33.2732 130.127 33.2792 130.225 33.3236C132.66 34.4254 135.248 34.8815 137.884 35.0296C144.371 35.3969 150.754 34.6949 157.018 32.9859C160.786 31.9611 164.361 30.4594 167.681 28.3891C168.469 27.8974 169.162 27.2547 169.896 26.683C169.988 26.6119 170.077 26.5379 170.278 26.375C170.412 28.2617 170.524 30.0033 170.666 31.7419Z" fill="#7A8125"/>
<path d="M168.993 19.0066C169.79 19.7618 169.932 20.6978 169.615 21.7226C169.31 22.7119 168.7 23.5146 168.024 24.2698C167.311 25.0666 166.434 25.659 165.516 26.1921C161.562 28.4846 157.32 30.0011 152.851 30.8926C148.375 31.7871 143.855 32.264 139.282 32.0833C136.939 31.9915 134.614 31.7634 132.399 30.9341C131.735 30.6853 131.099 30.3565 130.482 30.004C129.937 29.6901 129.629 29.1866 129.378 28.5883C129.028 27.7619 129.067 26.9089 128.993 26.0677C128.907 25.1317 129.339 24.3498 129.949 23.6686C130.876 22.6349 131.955 21.7819 133.113 21.0236C137.467 18.1802 142.244 16.4742 147.371 15.7011C149.714 15.3486 152.063 15.1739 154.675 15.168C157.507 15.2213 160.575 15.3783 163.573 16.1661C164.959 16.5275 166.292 17.0369 167.503 17.8129C168.036 18.1506 168.531 18.5682 168.993 19.0066Z" fill="#B4BD57"/>
<path d="M168.691 87.3576C169.938 89.4664 169.295 91.6434 167.823 93.0799C166.784 94.0959 165.471 94.5757 164.082 94.8748C161.876 95.3547 159.684 95.2421 157.498 94.7238C155.511 94.2528 153.541 93.7256 151.693 92.8252C150.484 92.2358 149.362 91.5457 148.692 90.3787C149.131 89.0162 149.563 87.6834 149.99 86.3505C150.034 86.2113 150.055 86.0632 150.099 85.921C150.36 85.0917 150.15 84.3809 149.593 83.7322C148.488 82.4438 147.395 81.1406 146.302 79.8433C146.16 79.6774 146.027 79.5027 145.828 79.2509C146.175 79.1324 146.459 79.011 146.752 78.9369C148.014 78.62 149.291 78.6674 150.567 78.8184C156.301 79.4997 161.52 81.5256 166.242 84.8429C167.213 85.5301 168.075 86.315 168.691 87.3576Z" fill="#B4BD57"/>
<path d="M164.831 128.328C165.332 131.621 164.894 134.856 163.813 137.998C162.533 141.721 160.652 145.095 157.853 147.903C156.577 149.185 155.155 150.266 153.369 150.782C151.793 151.235 150.271 151.232 148.784 150.462C147.543 149.819 146.767 148.753 146.115 147.583C145.484 146.451 145.162 145.213 145.052 143.925C144.824 141.218 145.176 138.573 145.926 135.975C146.909 132.569 148.286 129.344 150.49 126.536C151.337 125.458 152.317 124.483 153.25 123.476C153.357 123.361 153.544 123.298 153.707 123.257C155.949 122.676 158.117 121.885 160.232 120.941C160.273 120.923 160.326 120.926 160.365 120.92C163.321 122.507 164.366 125.277 164.831 128.328ZM161.695 130.667C161.662 130.262 161.65 129.646 161.559 129.038C161.41 128.085 161.105 127.178 160.549 126.373C159.586 124.978 157.987 124.285 156.523 124.759C155.356 125.138 154.252 125.7 153.387 126.61C151.065 129.053 149.35 131.867 148.352 135.093C147.718 137.142 147.25 139.227 147.416 141.398C147.531 142.912 148.144 144.191 149.32 145.172C150.069 145.797 150.928 146.087 151.912 146.019C153.307 145.921 154.444 145.299 155.436 144.36C156.897 142.98 158.058 141.369 159.023 139.615C160.525 136.893 161.49 134.003 161.695 130.667Z" fill="#F5DEBB"/>
<path d="M164.989 97.7837C164.855 98.0206 164.796 98.1539 164.713 98.2665C163.964 99.3002 163.197 100.325 162.462 101.368C162.237 101.684 161.979 101.806 161.6 101.809C156.07 101.85 150.822 100.734 145.95 98.0473C145.541 97.8222 145.156 97.5556 144.765 97.3038C144.664 97.2387 144.578 97.1498 144.448 97.0432C145.348 95.7844 146.204 94.5848 147.096 93.3379C149.495 95.5741 152.501 96.5397 155.57 97.372C158.638 98.2072 161.74 98.4945 164.989 97.7837Z" fill="#7A8125"/>
<path d="M162.88 164.921C163.359 165.786 163.466 166.645 162.957 167.578C161.95 169.417 160.528 170.848 158.789 171.976C155.223 174.295 151.319 175.548 147.054 175.676C144.063 175.764 141.101 175.596 138.21 174.784C137.41 174.559 136.626 174.254 135.858 173.928C134.603 173.395 133.64 172.492 132.843 171.399C132.097 170.374 131.901 169.263 132.266 168.043C132.624 166.834 133.282 165.81 134.167 164.93C135.746 163.354 137.65 162.3 139.709 161.5C142.348 160.472 145.108 160.04 147.919 159.871C148.532 159.835 149.148 159.865 149.764 159.865C152.531 159.853 155.271 160.066 157.892 161.035C158.535 161.272 159.165 161.559 159.779 161.87C161.132 162.554 162.145 163.6 162.88 164.921Z" fill="#B4BD57"/>
<path d="M161.559 129.041C161.651 129.645 161.662 130.264 161.695 130.67C161.491 134.005 160.525 136.896 159.026 139.621C158.061 141.374 156.9 142.985 155.44 144.365C154.447 145.304 153.31 145.926 151.915 146.024C150.929 146.092 150.073 145.802 149.323 145.177C148.144 144.194 147.534 142.917 147.419 141.404C147.253 139.233 147.721 137.147 148.355 135.098C149.353 131.872 151.068 129.058 153.39 126.615C154.255 125.706 155.362 125.143 156.527 124.764C157.99 124.29 159.589 124.983 160.552 126.378C161.106 127.178 161.408 128.087 161.559 129.041Z" fill="black"/>
<path d="M148.938 102.775C152.46 103.916 156.035 104.689 159.764 104.834C157.779 107.583 150.615 110.648 147.158 110.236C147.196 107.651 147.786 105.201 148.938 102.775Z" fill="#B4BD57"/>
<path d="M142.277 193.726C145.734 196.146 147.333 199.517 147.129 203.737C147.114 204.054 147.126 204.371 147.126 204.712C145.846 205.331 144.495 205.559 143.118 205.639C140.453 205.793 137.873 205.277 135.337 204.543C130.068 203.015 125.483 200.254 121.396 196.641C120.347 195.714 119.37 194.701 118.366 193.723C118.173 193.537 118.01 193.323 117.815 193.104C118.384 191.958 119.278 191.36 120.389 191.037C122.068 190.551 123.747 190.649 125.418 191.084C127.094 191.523 128.67 192.207 130.142 193.122C131.7 194.093 132.861 195.459 133.868 196.961C134.39 197.737 134.855 198.548 135.355 199.336C135.512 199.585 135.678 199.837 135.888 200.035C136.389 200.503 137.097 200.556 137.662 200.204C138.199 199.869 138.471 199.241 138.305 198.607C138.225 198.302 138.08 198.009 137.92 197.737C136.892 195.998 135.826 194.286 134.437 192.799C134.375 192.734 134.336 192.642 134.268 192.535C134.902 192.224 135.557 192.13 136.214 192.065C138.444 191.839 140.479 192.47 142.277 193.726Z" fill="#7A8125"/>
<path d="M146.921 85.2918C147.028 85.4251 147.022 85.7124 146.971 85.902C146.551 87.4481 146.003 88.9438 145.254 90.3655C144.377 92.0242 143.293 93.5466 142.149 95.0246C139.943 97.8739 137.547 100.534 134.694 102.758C132.728 104.289 130.613 105.581 128.436 106.78C128.178 106.922 127.826 106.985 127.53 106.958C126.135 106.834 124.745 106.662 123.353 106.508C123.232 106.496 123.113 106.466 122.974 106.44C122.758 105.741 122.542 105.042 122.323 104.337C122.391 104.283 122.438 104.218 122.5 104.2C124.953 103.445 127.115 102.139 129.179 100.655C132.082 98.567 134.834 96.2982 137.212 93.6206C139.093 91.5029 140.722 89.1897 142.176 86.755C142.964 85.434 143.524 84.0271 143.876 82.5313C143.918 82.3507 143.986 82.1759 144.075 81.8945C145.067 83.0704 146.012 84.1693 146.921 85.2918Z" fill="#7A8125"/>
<path d="M146.121 101.623C144.886 104.333 144.175 107.171 144.134 110.201C142.718 110.204 134.833 108.557 132.671 107.811C136.442 105.542 139.655 102.737 142.428 99.4492C143.678 100.184 144.88 100.892 146.121 101.623Z" fill="#7A8125"/>
<path d="M138.601 78.2696C140.352 78.0001 141.196 78.7228 141.119 80.4881C141.06 81.8298 140.657 83.1005 140.059 84.2971C139.031 86.3556 137.648 88.1801 136.27 90.0076C134.283 92.6437 131.833 94.8088 129.239 96.814C127.956 97.8062 126.603 98.7096 125.258 99.613C124.129 100.371 122.88 100.895 121.582 101.298C121.446 101.34 121.301 101.363 121.144 101.399C120.56 100.389 120.03 99.4471 119.473 98.52C119.328 98.2772 119.316 98.0728 119.438 97.8329C119.755 97.1931 120.057 96.5474 120.377 95.9106C122.489 91.7373 125.015 87.8602 128.383 84.5696C130.275 82.7184 132.366 81.1308 134.629 79.7713C135.853 79.0308 137.171 78.4918 138.601 78.2696Z" fill="#B4BD57"/>
<path d="M138.107 132.854C138.501 134.613 138.758 136.382 138.755 138.206C138.358 146.029 135.953 153.033 130.341 158.72C128.783 160.299 126.952 161.49 124.832 162.18C120.167 163.699 115.816 161.096 113.944 158.149C112.46 155.809 111.66 153.247 111.542 150.492C111.313 145.232 112.602 140.3 114.957 135.632C116.512 132.552 118.526 129.803 121.188 127.57C121.541 127.274 121.958 127.055 122.349 126.803C122.471 126.723 122.607 126.661 122.717 126.569C124.891 124.783 127.358 124.38 130.068 124.904C133.581 125.586 137.26 129.081 138.107 132.854ZM135.779 137.987C135.672 137.007 135.577 135.854 135.417 134.711C135.038 132.031 133.652 129.993 131.339 128.619C130.018 127.834 128.578 127.532 127.02 127.78C125.83 127.973 124.826 128.586 123.919 129.244C122.166 130.52 120.697 132.125 119.473 133.932C116.55 138.242 114.906 143.001 114.542 148.188C114.355 150.862 114.814 153.421 116.07 155.826C117.607 158.762 121.556 160.936 125.519 158.59C126.736 157.87 127.841 157.029 128.795 155.983C133.4 150.939 135.397 144.873 135.779 137.987Z" fill="black"/>
<path d="M138.355 64.0665C138.222 64.9906 138.133 65.9206 137.949 66.8328C137.653 68.2901 136.877 69.4719 135.681 70.3486C135.047 70.8136 134.366 71.2135 133.702 71.6341C132.271 72.5434 130.844 73.4615 129.401 74.3501C126.943 75.8666 124.316 76.5123 121.431 75.911C117.856 75.1646 114.805 73.4408 112.202 70.9321C108.076 66.9572 105.514 62.1057 104.382 56.4988C104.074 54.9675 104.033 53.4096 104.323 51.8724C104.767 49.5236 105.997 47.6576 108.091 46.4906C109.367 45.7798 110.531 44.9268 111.719 44.0974C113.09 43.1407 114.456 42.1722 115.806 41.1829C116.523 40.6587 117.272 40.4899 118.161 40.6083C119.9 40.8394 121.484 41.4614 123.019 42.267C129.256 45.5428 133.853 50.3559 136.705 56.8158C137.724 59.1201 138.231 61.537 138.355 64.0665ZM135.192 65.1446C135.381 62.6329 134.919 60.2456 133.906 57.9561C131.261 51.976 126.931 47.6102 121.114 44.6868C120.211 44.2337 119.278 43.8486 118.271 43.6946C118.016 43.6561 117.681 43.6117 117.492 43.7331C116.573 44.3314 115.691 44.989 114.69 45.6998C115.412 45.9634 115.975 46.1441 116.514 46.3722C120.513 48.0634 123.744 50.7439 126.324 54.1915C127.485 55.7436 128.507 57.4081 129.461 59.0964C130.802 61.4689 131.756 63.9983 131.966 66.7499C132.023 67.5022 131.975 68.2634 131.975 69.1253C132.425 68.8588 132.816 68.6159 133.216 68.3938C134.496 67.6859 135.082 66.5752 135.192 65.1446ZM128.889 68.9239C129.123 67.5407 128.939 66.1812 128.581 64.8365C127.953 62.4789 126.783 60.3789 125.524 58.3174C123.809 55.5125 121.659 53.1075 118.981 51.1911C117.349 50.0242 115.608 49.0764 113.638 48.6054C112.252 48.2737 110.904 48.2559 109.72 49.2274C109.628 49.3044 109.512 49.3696 109.397 49.4051C108.568 49.6569 108.165 50.3292 107.78 51.0253C107.264 51.9642 107.178 52.986 107.149 54.0316C107.211 54.6417 107.249 55.2578 107.335 55.865C107.629 57.959 108.408 59.8932 109.308 61.7888C110.872 65.0853 112.987 67.9495 115.934 70.1442C118.14 71.7881 120.563 72.9521 123.362 73.0913C125.906 73.2157 128.353 72.1198 128.889 68.9239Z" fill="black"/>
<path d="M135.417 134.712C135.577 135.855 135.672 137.007 135.778 137.988C135.396 144.874 133.4 150.937 128.791 155.987C127.838 157.033 126.733 157.871 125.516 158.593C121.553 160.942 117.604 158.768 116.067 155.83C114.811 153.428 114.349 150.866 114.539 148.191C114.903 143.002 116.547 138.242 119.47 133.936C120.697 132.129 122.163 130.524 123.916 129.247C124.822 128.59 125.827 127.973 127.017 127.784C128.578 127.532 130.015 127.834 131.336 128.622C133.649 129.993 135.038 132.031 135.417 134.712ZM130.651 143.562C131.342 141.343 131.845 139.092 131.768 136.75C131.724 135.369 131.365 134.072 130.589 132.92C129.345 131.075 127.384 130.556 125.433 131.611C124.728 131.99 124.076 132.508 123.493 133.059C121.514 134.931 120.075 137.179 119.059 139.697C118.348 141.462 117.841 143.283 117.841 145.526C117.797 146.924 118.253 148.526 119.017 150.037C119.675 151.337 120.694 152.231 122.177 152.433C123.356 152.593 124.408 152.169 125.373 151.526C126.514 150.765 127.435 149.782 128.229 148.671C129.345 147.116 130.086 145.38 130.651 143.562Z" fill="#F5DEBB"/>
<path d="M133.907 57.9548C134.92 60.2444 135.382 62.6316 135.192 65.1433C135.083 66.5739 134.496 67.6846 133.217 68.3925C132.817 68.6147 132.426 68.8575 131.975 69.1241C131.975 68.2651 132.023 67.5039 131.967 66.7487C131.756 63.9971 130.803 61.4676 129.461 59.0952C128.507 57.4069 127.485 55.7393 126.324 54.1903C123.744 50.7426 120.513 48.0621 116.514 46.3709C115.972 46.1428 115.41 45.9622 114.69 45.6986C115.691 44.9877 116.571 44.3331 117.492 43.7319C117.681 43.6075 118.013 43.6519 118.271 43.6934C119.278 43.8474 120.211 44.2324 121.114 44.6856C126.931 47.609 131.262 51.9748 133.907 57.9548Z" fill="#7A8125"/>
<path d="M131.771 136.75C131.848 139.093 131.345 141.344 130.655 143.562C130.086 145.378 129.348 147.117 128.232 148.675C127.438 149.785 126.517 150.769 125.376 151.53C124.411 152.172 123.359 152.596 122.181 152.436C120.694 152.235 119.678 151.34 119.02 150.04C118.256 148.529 117.8 146.93 117.844 145.529C117.847 143.287 118.351 141.465 119.062 139.7C120.075 137.182 121.517 134.934 123.496 133.062C124.079 132.512 124.734 131.993 125.436 131.614C127.388 130.56 129.345 131.078 130.592 132.923C131.368 134.075 131.724 135.373 131.771 136.75Z" fill="black"/>
<path d="M128.581 64.8357C128.94 66.1804 129.12 67.5399 128.889 68.9231C128.35 72.119 125.907 73.2149 123.365 73.0875C120.563 72.9483 118.143 71.7813 115.937 70.1404C112.99 67.9486 110.875 65.0815 109.311 61.785C108.411 59.8894 107.632 57.9582 107.338 55.8612C107.253 55.254 107.214 54.6409 107.152 54.0278C107.182 52.9852 107.264 51.9604 107.783 51.0215C108.165 50.3254 108.568 49.6531 109.4 49.4013C109.515 49.3658 109.628 49.3006 109.723 49.2236C110.911 48.2521 112.255 48.2699 113.641 48.6016C115.608 49.0726 117.353 50.0204 118.985 51.1873C121.662 53.1037 123.812 55.5058 125.527 58.3136C126.786 60.3781 127.953 62.478 128.581 64.8357Z" fill="#B4BD57"/>
<path d="M119.556 105.664C119.624 105.868 119.675 106.079 119.737 106.286C117.702 106.514 115.712 106.733 113.674 106.961C113.401 106.425 113.135 105.848 112.824 105.297C112.107 104.038 111.408 102.764 110.629 101.544C108.908 98.8517 106.565 96.8346 103.725 95.3833C103.615 95.327 103.503 95.2767 103.399 95.2145C103.361 95.1908 103.337 95.1434 103.269 95.0634C104.232 94.6043 105.179 94.1482 106.13 93.698C106.841 93.3603 107.567 93.0523 108.263 92.6909C108.849 92.3829 109.379 92.3977 109.909 92.7946C110.537 93.2656 111.213 93.6802 111.799 94.1985C115.359 97.3559 118.031 101.123 119.556 105.664Z" fill="#7A8125"/>
<path d="M110.428 107.235C110.481 107.336 110.502 107.457 110.564 107.656C106.554 108.417 102.641 109.089 98.5623 108.506C98.1832 106.67 97.7389 104.86 97.4487 103.026C97.2354 101.682 97.3954 100.325 97.9848 99.0605C98.5327 97.8787 99.4568 97.3662 100.736 97.6002C101.355 97.7128 101.983 97.9083 102.543 98.1926C104.454 99.1611 106.083 100.491 107.392 102.194C108.594 103.758 109.524 105.488 110.428 107.235Z" fill="#B4BD57"/>
</svg>
