<svg width="252" height="252" viewBox="0 0 252 252" fill="none" xmlns="http://www.w3.org/2000/svg">
  <path
    d="M234.357 175.072C234.357 176.899 234.357 178.724 234.357 180.551C234.319 180.782 234.245 181.016 234.245 181.247C234.239 183.51 233.978 185.752 233.646 187.985C232.965 192.556 231.902 197.034 230.308 201.376C228.887 205.25 226.881 208.775 224.062 211.814C222.409 213.594 220.525 215.072 218.357 216.156C214 218.33 209.83 218.051 205.917 215.06C204.418 213.914 203.145 212.545 202.058 211.002C200.568 208.887 199.448 206.583 198.61 204.14C197.212 200.058 196.442 195.834 195.713 191.596C195.32 189.303 194.86 187.023 194.428 184.704C193.379 184.514 192.393 184.31 191.401 184.159C188.01 183.634 184.618 183.101 181.218 182.621C177.865 182.148 174.515 181.647 171.148 181.318C165.532 180.767 159.904 180.338 154.28 179.876C153.595 179.82 152.902 179.867 152.147 179.867C152.239 180.43 152.316 180.924 152.405 181.416C152.914 184.248 152.497 186.919 150.959 189.372C149.84 191.158 148.495 192.742 146.783 193.998C146.653 194.096 146.534 194.208 146.38 194.342C146.611 195.725 146.825 197.099 147.073 198.468C147.852 202.721 148.88 206.915 149.943 211.103C150.284 212.451 150.583 213.813 150.802 215.187C151.048 216.736 150.477 217.536 148.99 217.966C148.945 217.977 148.907 218.013 148.865 218.037C148.433 218.037 148 218.037 147.568 218.037C147.005 217.948 146.443 217.841 145.877 217.776C142.823 217.424 139.766 217.092 136.713 216.733C135.282 216.565 133.855 216.363 132.43 216.159C132.051 216.106 131.654 216.037 131.322 215.869C130.996 215.703 130.591 215.448 130.484 215.143C130.211 214.364 129.853 213.623 129.814 212.744C129.678 209.578 129.45 206.414 129.252 203.251C129.237 202.993 129.175 202.739 129.118 202.398C125.849 204.06 122.736 205.884 119.146 206.764C119.146 207.039 119.146 207.3 119.146 207.558C119.155 209.48 119.172 211.402 119.164 213.324C119.161 213.849 119.122 214.382 119.03 214.9C118.784 216.28 117.866 216.959 116.459 216.84C115.334 216.745 114.211 216.633 113.086 216.553C110.257 216.357 107.432 216.177 104.603 215.987C104.339 215.969 104.076 215.952 103.815 215.916C102.598 215.744 101.958 214.933 102.082 213.706C102.136 213.182 102.233 212.661 102.302 212.137C102.322 211.977 102.322 211.811 102.334 211.624C102.222 211.639 102.151 211.633 102.088 211.66C99.3426 212.797 96.4578 213.446 93.5551 213.982C89.5418 214.722 85.5136 215.377 81.4825 216.011C78.9234 216.414 76.3495 216.745 73.7757 217.059C70.2925 217.486 66.7886 217.69 63.2817 217.738C60.619 217.773 57.9474 217.741 55.2876 217.584C52.0354 217.391 48.8514 216.787 45.8925 215.324C43.0935 213.937 40.647 212.122 38.9084 209.468C37.5489 207.392 36.7284 205.096 36.1153 202.709C35.3541 199.747 34.9483 196.726 34.5337 193.705C33.8672 188.853 33.1831 184.002 32.4485 179.159C31.942 175.812 31.3881 172.471 30.7839 169.142C28.8854 158.639 26.4596 148.264 23.1482 138.113C21.608 133.389 19.9997 128.686 18.1189 124.083C17.9382 123.639 17.7309 123.206 17.5117 122.78C17.2807 122.326 17.2155 121.879 17.3992 121.39C17.4821 121.171 17.5413 120.934 17.565 120.7C17.6598 119.646 18.0301 118.695 18.5987 117.812C19.5732 116.302 20.832 115.052 22.1826 113.888C23.551 112.706 25.0527 111.717 26.578 110.751C27.6295 110.088 28.6395 109.362 29.6673 108.666C29.38 107.304 29.1075 106.039 28.8439 104.771C27.6147 98.8446 26.5544 92.8882 25.7872 86.8845C25.0853 81.3872 24.8987 75.8722 25.3459 70.3453C25.6747 66.2905 26.2315 62.2742 27.5614 58.406C30.3722 50.2312 35.4785 43.8306 42.6226 39.0175C46.1176 36.6628 50.0036 35.3596 54.1206 34.6724C55.5867 34.4266 57.0647 34.2015 58.5457 34.0889C62.3398 33.8016 66.0155 34.4177 69.5787 35.7269C74.1814 37.4181 78.4614 39.7343 82.4569 42.5658C86.7694 45.6195 90.5932 49.2182 94.2067 53.0628C97.219 56.2675 99.6892 59.8662 102.097 63.5182C105.945 69.3502 109.055 75.576 111.821 81.9796C111.954 82.2847 112.088 82.5898 112.233 82.9156C112.579 82.8889 112.887 82.8593 113.195 82.8475C117.896 82.6638 122.561 82.8948 127.161 83.9552C129.258 84.438 131.248 85.1873 133.108 86.2744C134.616 87.154 135.86 88.2825 136.603 89.8967C136.671 90.0448 136.769 90.1989 136.896 90.2966C137.421 90.7024 137.578 91.2681 137.625 91.8812C137.72 93.1489 137.82 94.4195 137.886 95.6902C138.149 100.752 138.324 105.82 138.676 110.876C138.976 115.162 139.464 119.436 139.891 123.713C140.015 124.951 140.211 126.18 140.382 127.471C140.682 127.356 140.907 127.282 141.123 127.187C151.872 122.4 162.617 117.614 173.221 112.508C178.745 109.848 184.1 106.886 189.384 103.788C189.816 103.533 189.884 103.255 189.861 102.799C189.532 96.0841 190.367 89.5206 192.55 83.1496C193.454 80.5165 194.751 78.0788 196.478 75.893C199.511 72.0573 203.509 70.0047 208.384 69.7559C211.302 69.6078 213.962 70.5112 216.447 72.0218C220.167 74.2817 223.022 77.368 225.288 81.0466C227.503 84.6483 229.085 88.5343 230.459 92.515C232.293 97.8287 233.489 103.284 233.883 108.897C234.434 116.77 233.566 124.486 231.064 131.991C230.362 134.091 229.443 136.105 228.389 138.045C227.406 139.852 226.173 141.472 224.42 142.675C224.536 142.808 224.621 142.917 224.719 143.012C226.653 144.866 228.051 147.094 229.239 149.475C230.717 152.443 231.62 155.594 232.343 158.814C233.318 163.162 233.824 167.572 234.185 172.003C234.245 172.744 234.221 173.493 234.251 174.236C234.253 174.515 234.316 174.793 234.357 175.072ZM231.176 183.762C231.561 179.808 231.508 175.845 231.203 171.885C230.844 167.258 230.234 162.67 229.159 158.147C228.374 154.854 227.243 151.705 225.513 148.788C223.922 146.107 221.822 143.942 219.023 142.509C217.397 141.676 215.691 141.475 213.911 141.86C211.977 142.278 210.342 143.24 208.92 144.591C207.203 146.22 205.713 148.036 204.516 150.082C201.821 154.7 200.061 159.643 199.321 164.945C199.14 166.23 198.942 167.51 198.732 168.789C198.554 169.862 198.024 170.664 196.919 170.99C196.572 171.091 196.235 171.218 195.885 171.307C192.989 172.024 190.05 172.486 187.08 172.75C183.031 173.108 178.967 173.164 174.909 173.078C166.983 172.912 159.057 172.723 151.131 172.483C145.296 172.305 139.47 171.929 133.659 171.354C127.469 170.741 121.284 170.078 115.15 169.026C112.499 168.57 109.843 168.167 107.186 167.744C107.103 167.729 107.014 167.744 106.866 167.744C107.837 182.927 107.375 197.994 105.169 213.004C108.892 213.28 112.52 213.546 116.219 213.819C116.219 213.138 116.225 212.542 116.219 211.944C116.16 206.85 116.068 201.755 116.859 196.696C117.147 194.866 117.478 193.05 118.168 191.321C118.693 190.005 119.433 188.841 120.532 187.926C122.028 186.679 123.772 186.496 125.496 187.411C126.465 187.926 127.267 188.646 127.957 189.49C128.941 190.696 129.61 192.079 130.125 193.533C131.165 196.468 131.802 199.504 132.125 202.588C132.427 205.475 132.539 208.384 132.732 211.284C132.773 211.923 132.797 212.566 132.833 213.286C137.829 213.869 142.758 214.441 147.855 215.036C147.565 213.81 147.328 212.735 147.056 211.669C145.418 205.292 143.922 198.891 143.176 192.336C142.868 189.635 142.625 186.934 142.959 184.215C143.134 182.796 143.454 181.425 144.28 180.219C145.471 178.487 147.186 177.625 149.194 177.231C151.41 176.795 153.64 176.849 155.873 177.015C158.077 177.18 160.28 177.335 162.484 177.527C165.33 177.776 168.18 178.016 171.02 178.336C174.145 178.688 177.267 179.088 180.38 179.532C184.589 180.133 188.786 180.788 192.989 181.431C193.842 181.561 194.692 181.736 195.533 181.925C196.306 182.103 196.809 182.559 196.883 183.403C196.898 183.56 196.993 183.711 197.049 183.865C197.186 184.224 197.366 184.57 197.446 184.938C197.71 186.134 197.953 187.334 198.178 188.536C198.761 191.626 199.283 194.73 199.919 197.807C200.491 200.562 201.27 203.26 202.469 205.822C203.749 208.556 205.425 210.993 207.869 212.827C210.709 214.959 213.734 215.146 216.876 213.579C217.711 213.164 218.52 212.667 219.269 212.116C222.4 209.812 224.663 206.787 226.28 203.295C229.153 197.108 230.521 190.518 231.176 183.762ZM230.924 117.519C231.206 113.527 231.117 109.549 230.572 105.583C229.899 100.711 228.656 95.9834 226.917 91.3836C225.649 88.0278 224.222 84.7549 222.237 81.7486C220.137 78.5705 217.516 75.9463 214.145 74.1069C212.623 73.2776 211.015 72.7385 209.276 72.7149C204.949 72.6556 201.448 74.3824 198.764 77.7471C197.47 79.3702 196.492 81.1918 195.71 83.114C194.144 86.9556 193.459 90.9986 192.983 95.086C192.666 97.8139 192.58 100.554 192.864 103.287C192.989 104.493 192.467 105.257 191.57 105.888C191.434 105.986 191.294 106.08 191.146 106.163C187.207 108.367 183.33 110.698 179.308 112.739C173.914 115.479 168.443 118.076 162.943 120.591C146.588 128.072 130.182 135.439 113.497 142.165C113.305 142.242 113.121 142.343 112.864 142.464C116.178 150.349 118.204 158.574 120.227 166.778C121.438 167.086 129.29 168.005 129.963 167.919C129.971 167.854 129.995 167.785 129.989 167.717C129.969 167.525 129.939 167.335 129.909 167.146C129.533 164.744 129.752 162.407 130.691 160.15C131.13 159.098 131.834 158.266 132.759 157.617C134.097 156.678 135.528 156.521 136.973 157.283C137.749 157.694 138.49 158.216 139.15 158.796C140.99 160.416 142.414 162.374 143.552 164.542C143.682 164.791 143.821 165.037 143.963 165.3C146.028 164.735 148.033 164.199 150.009 163.396C149.863 163.129 149.757 162.922 149.638 162.718C148.99 161.595 148.323 160.481 147.687 159.35C147.07 158.26 146.552 157.126 146.217 155.914C145.856 154.608 145.634 153.287 145.847 151.927C146.191 149.742 147.915 148.735 149.979 149.522C150.423 149.691 150.85 149.925 151.261 150.171C151.652 150.405 152.02 150.678 152.384 150.956C154.709 152.727 156.516 154.96 158.106 157.383C158.382 157.804 158.654 158.224 158.912 158.618C159.744 158.589 166.527 156.584 167.063 156.213C166.829 156.033 166.607 155.852 166.379 155.68C162.789 153.012 159.312 150.204 156.045 147.15C154.733 145.924 153.483 144.612 152.328 143.234C150.681 141.277 149.582 139.017 149.087 136.484C148.774 134.876 148.984 133.351 149.997 132.035C150.548 131.319 151.211 130.673 151.904 130.087C153.338 128.869 154.952 127.913 156.611 127.036C159.507 125.505 162.555 124.326 165.662 123.319C171.278 121.497 176.92 119.75 182.554 117.981C184.935 117.235 187.325 116.509 189.71 115.772C190.613 115.493 191.505 115.31 192.461 115.609C193.071 115.801 193.468 116.133 193.679 116.717C193.809 117.078 193.919 117.448 194.058 117.804C196.587 124.181 200.029 130.001 204.626 135.116C205.787 136.407 207.096 137.536 208.604 138.418C209.368 138.866 210.144 139.292 210.914 139.725C214.741 138.113 218.387 138.421 221.805 140.699C222.157 140.456 222.388 140.207 222.67 140.121C223.179 139.958 223.579 139.653 223.884 139.259C224.544 138.406 225.235 137.562 225.765 136.632C226.801 134.817 227.646 132.9 228.303 130.913C229.751 126.562 230.601 122.095 230.924 117.519ZM207.982 141.582C207.736 141.398 207.617 141.288 207.478 141.208C205.079 139.816 203.115 137.936 201.323 135.833C197.793 131.683 195.029 127.062 192.698 122.163C192.133 120.976 191.647 119.75 191.093 118.467C190.82 118.541 190.589 118.594 190.364 118.666C187.174 119.646 183.987 120.635 180.797 121.607C175.401 123.251 169.995 124.862 164.691 126.787C161.664 127.886 158.684 129.1 155.947 130.827C154.828 131.532 153.747 132.287 152.811 133.232C152.043 134.005 151.759 134.903 151.99 135.995C152.351 137.693 153.059 139.227 154.043 140.64C155.118 142.186 156.415 143.542 157.813 144.792C159.584 146.377 161.373 147.95 163.21 149.457C165.085 150.994 167.036 152.437 168.944 153.939C169.548 154.412 170.146 154.901 170.683 155.449C171.343 156.124 171.364 156.803 170.896 157.614C170.588 158.147 170.141 158.461 169.563 158.636C167.199 159.356 164.839 160.093 162.472 160.804C161.507 161.094 160.532 161.358 159.552 161.586C158.296 161.873 157.283 161.465 156.543 160.404C156.365 160.147 156.193 159.886 156.03 159.619C155.044 158.017 153.909 156.533 152.633 155.153C151.747 154.196 150.758 153.361 149.659 152.662C149.41 152.502 149.123 152.401 148.788 152.241C148.788 152.875 148.735 153.4 148.797 153.912C148.963 155.239 149.452 156.468 150.103 157.626C150.882 159.006 151.694 160.369 152.476 161.746C152.701 162.14 152.917 162.549 153.074 162.972C153.53 164.21 153.136 165.214 151.966 165.804C151.561 166.008 151.122 166.15 150.699 166.316C150.281 166.479 149.858 166.633 149.41 166.802C149.709 167.717 149.991 168.576 150.296 169.506C150.634 169.53 151.039 169.571 151.442 169.583C157.23 169.746 163.014 169.93 168.802 170.06C174.518 170.187 180.235 170.318 185.945 169.888C189.04 169.654 192.1 169.213 195.115 168.461C195.364 168.399 195.604 168.304 195.838 168.227C195.992 167.211 196.152 166.263 196.279 165.312C196.949 160.345 198.335 155.606 200.595 151.116C202.375 147.579 204.614 144.407 207.62 141.801C207.709 141.721 207.825 141.673 207.982 141.582ZM145.951 190.722C149.028 188.705 150.536 183.655 149.102 180.302C147.55 180.687 146.543 181.638 146.143 183.19C145.752 184.713 145.696 186.27 145.749 187.831C145.782 188.782 145.88 189.727 145.951 190.722ZM147.118 169.243C146.94 168.745 146.762 168.25 146.561 167.688C146.321 167.735 146.158 167.75 146.001 167.797C145.406 167.981 144.813 168.182 144.218 168.366C143.519 168.582 142.945 168.443 142.379 167.919C141.706 167.297 141.259 166.556 140.845 165.768C139.873 163.923 138.641 162.276 137.071 160.896C136.642 160.52 136.141 160.224 135.652 159.922C135.267 159.682 134.873 159.756 134.5 160.002C133.914 160.387 133.532 160.917 133.289 161.568C132.69 163.156 132.554 164.791 132.788 166.461C132.877 167.092 133.016 167.717 133.126 168.304C134.971 168.656 146.232 169.411 147.118 169.243ZM136.837 129.091C137.095 128.982 137.344 128.848 137.613 128.718C135.987 118.71 135.566 108.66 135.06 98.4595C134.832 98.6698 134.734 98.7646 134.631 98.8505C133.683 99.6236 132.785 100.468 131.775 101.152C129.418 102.748 126.823 103.901 124.211 105.002C118.47 107.422 112.564 109.365 106.576 111.051C100.311 112.81 94.029 114.504 87.7498 116.201C76.6013 119.216 65.4646 122.264 54.1354 124.548C48.6056 125.661 43.0994 126.917 37.4837 127.566C34.5899 127.901 31.6903 128.043 28.7787 127.886C26.7143 127.773 24.6587 127.56 22.6772 126.905C22.618 126.885 22.5469 126.903 22.4285 126.903C22.4818 127.095 22.5143 127.255 22.5647 127.406C22.8787 128.312 23.1897 129.222 23.5214 130.125C27.2534 140.264 30.0405 150.669 32.253 161.234C33.3104 166.287 34.2464 171.363 35.0046 176.473C35.4992 179.799 36.059 183.113 36.5418 186.439C37.1046 190.313 37.5726 194.199 38.159 198.071C38.5293 200.517 39.095 202.928 40.022 205.235C41.0054 207.685 42.5011 209.738 44.7166 211.204C45.6348 211.811 46.5945 212.374 47.5897 212.845C50.285 214.124 53.1935 214.491 56.1258 214.71C58.8122 214.912 61.5016 214.888 64.194 214.773C67.6268 214.628 71.0596 214.462 74.4687 214.014C76.9449 213.692 79.418 213.348 81.8883 212.975C86.257 212.314 90.6288 211.669 94.9383 210.685C97.0472 210.205 99.1501 209.714 101.143 208.849C101.665 208.621 102.213 208.452 102.829 208.227C102.909 207.537 103.006 206.755 103.086 205.97C103.353 203.292 103.7 200.621 103.857 197.937C104.091 193.885 104.265 189.825 104.327 185.767C104.387 181.878 104.304 177.983 104.218 174.094C104.165 171.766 104.002 169.438 103.854 167.113C103.806 166.352 104.108 165.703 104.399 165.055C104.597 164.616 105.029 164.391 105.521 164.391C105.826 164.391 106.137 164.453 106.442 164.518C107.405 164.723 108.359 164.983 109.327 165.143C111.72 165.54 114.119 165.896 116.516 166.263C116.652 166.284 116.794 166.281 117.031 166.293C116.984 166.038 116.963 165.872 116.921 165.712C116.516 164.107 116.107 162.501 115.701 160.896C114.17 154.812 112.333 148.826 109.925 143.024C109.834 142.802 109.745 142.577 109.691 142.343C109.591 141.904 109.606 141.454 109.908 141.108C110.393 140.554 110.879 140.012 111.62 139.727C113.388 139.046 115.138 138.312 116.886 137.571C123.535 134.749 130.188 131.92 136.837 129.091ZM133.703 95.1896C134.87 93.0126 134.328 90.7024 132.311 89.2777C131.959 89.0289 131.586 88.8097 131.21 88.5965C129.755 87.779 128.197 87.2192 126.577 86.846C122.431 85.8952 118.225 85.6079 113.98 85.7708C113.814 85.7768 113.652 85.8034 113.385 85.8301C113.93 87.314 114.43 88.715 114.955 90.1041C115.135 90.5839 115.304 91.0459 115.144 91.5702C115.109 91.6916 115.135 91.8634 115.195 91.9819C115.541 92.6779 115.316 93.2674 114.934 93.8716C113.643 95.9064 111.895 97.4466 109.845 98.6728C105.797 101.093 101.472 102.366 96.7155 101.836C95.4181 101.691 94.1356 101.478 93.1197 100.545C92.9775 100.411 92.8413 100.228 92.791 100.041C92.1542 97.6273 91.5351 95.2074 90.9102 92.7935C90.842 92.5269 90.7443 92.2662 90.6525 91.9701C78.953 96.5669 66.9456 99.8457 54.8403 102.816C54.8403 102.882 54.8226 102.956 54.8433 103.021C55.3054 104.561 55.6786 106.137 56.265 107.627C56.7123 108.767 56.4871 109.727 55.8444 110.597C54.0051 113.094 51.6978 115.046 48.9018 116.417C45.9517 117.866 42.8151 118.624 39.5689 118.959C37.9161 119.131 36.2486 119.151 34.6314 118.686C33.9235 118.482 33.2304 118.189 32.5877 117.833C31.9776 117.496 31.6014 116.933 31.5836 116.186C31.5777 115.973 31.5214 115.76 31.4652 115.55C31.1808 114.483 30.8906 113.417 30.5973 112.354C30.5499 112.182 30.4789 112.013 30.4167 111.838C28.6217 112.795 25.1978 115.129 23.8531 116.355C23.163 116.986 22.5025 117.656 21.8835 118.355C21.4895 118.799 21.1519 119.308 20.8587 119.827C20.3285 120.763 20.447 121.669 21.1193 122.507C21.5488 123.043 22.0789 123.443 22.7009 123.727C23.9597 124.305 25.2956 124.586 26.661 124.746C30.8195 125.235 34.9661 125.022 39.0861 124.376C42.4301 123.852 45.7592 123.236 49.0795 122.581C56.8307 121.056 64.5375 119.335 72.1733 117.303C80.7568 115.019 89.3285 112.7 97.9091 110.405C103.848 108.814 109.763 107.159 115.571 105.139C119.611 103.735 123.606 102.224 127.421 100.272C128.834 99.5495 130.22 98.7824 131.461 97.7783C132.347 97.0467 133.15 96.2233 133.703 95.1896ZM128.559 199.321C128.55 199.146 128.556 199.048 128.535 198.956C128.183 197.262 127.78 195.583 127.131 193.974C126.773 193.08 126.394 192.185 125.739 191.469C125.259 190.944 124.702 190.473 124.128 190.053C123.553 189.632 122.955 189.73 122.416 190.198C121.883 190.663 121.426 191.193 121.169 191.851C120.852 192.65 120.529 193.462 120.325 194.294C119.611 197.221 119.362 200.212 119.187 203.212C119.181 203.343 119.217 203.476 119.246 203.689C122.582 202.647 125.523 200.926 128.559 199.321ZM112.567 92.05C112.345 91.4932 112.12 90.9897 111.937 90.4743C109.164 82.6135 105.69 75.0814 101.386 67.9403C99.313 64.5016 97.1094 61.1428 94.5888 58.0209C91.0286 53.6107 86.9412 49.7158 82.4747 46.2327C78.6835 43.2797 74.5309 40.925 70.097 39.0797C66.7353 37.6817 63.2521 36.8079 59.5853 36.9857C57.9829 37.0627 56.3864 37.3026 54.7959 37.5484C50.4538 38.2178 46.473 39.7491 42.9158 42.3911C36.8084 46.9287 32.4663 52.7281 30.1412 59.9936C28.9624 63.6781 28.5062 67.4931 28.2249 71.3317C27.8043 77.0836 28.1597 82.806 28.9713 88.5047C29.6703 93.4007 30.5322 98.2729 31.5096 103.122C32.3093 107.076 33.2334 111 34.3204 114.886C34.4804 115.461 34.7617 115.754 35.3186 115.825C36.0561 115.92 36.7936 116.098 37.5281 116.086C41.1298 116.035 44.5715 115.262 47.8118 113.651C49.8703 112.629 51.5556 111.157 53.0425 109.424C53.3949 109.016 53.546 108.64 53.2824 108.133C53.161 107.902 53.1047 107.638 53.0306 107.384C51.2239 101.306 49.5623 95.1926 48.3064 88.9726C47.56 85.2732 46.9765 81.5561 46.8966 77.7678C46.8048 73.4849 47.6252 69.4124 49.5238 65.5649C51.4105 61.7411 54.3013 59.0013 58.2761 57.4167C61.0277 56.3179 63.883 55.9624 66.8241 56.0957C69.6409 56.2231 72.2503 57.0139 74.682 58.4326C77.2233 59.9166 79.3973 61.821 81.2633 64.0839C83.5558 66.8622 85.3004 69.984 86.8731 73.2065C89.527 78.6416 91.4581 84.3491 93.2027 90.1189C93.9875 92.7135 94.6421 95.3496 95.3086 97.9797C95.4389 98.498 95.6906 98.7083 96.1616 98.7765C96.5644 98.8327 96.9672 98.9098 97.373 98.9394C102.189 99.2948 106.398 97.7309 110.171 94.8401C111.172 94.076 111.966 93.1133 112.567 92.05ZM89.832 89.1059C89.5477 88.2411 89.2959 87.465 89.0353 86.6949C87.3737 81.7782 85.5906 76.9118 83.1204 72.3268C81.6809 69.6552 80.0993 67.0814 78.0112 64.854C76.1007 62.8162 73.9238 61.1369 71.3292 60.0587C68.3702 58.8266 65.2839 58.7377 62.1947 59.339C58.1665 60.1209 54.9085 62.138 52.7937 65.7485C51.1795 68.5001 50.2553 71.4857 49.9532 74.6667C49.6452 77.9218 49.9769 81.1444 50.4716 84.3551C51.0965 88.4158 52.0325 92.4143 53.0425 96.3922C53.3327 97.5295 53.6378 98.661 53.9547 99.8605C54.2746 99.8191 54.559 99.8131 54.8315 99.745C57.044 99.1971 59.2565 98.6432 61.4661 98.0834C69.8956 95.9508 78.2126 93.4451 86.3785 90.4477C87.501 90.033 88.6088 89.5828 89.832 89.1059Z"
    fill="black" />
  <path
    d="M231.203 171.884C231.508 175.845 231.561 179.808 231.176 183.762C230.521 190.518 229.15 197.105 226.28 203.301C224.66 206.793 222.397 209.817 219.269 212.122C218.517 212.673 217.711 213.17 216.876 213.585C213.733 215.152 210.709 214.965 207.869 212.833C205.425 210.996 203.749 208.561 202.469 205.828C201.27 203.269 200.491 200.567 199.919 197.813C199.282 194.732 198.758 191.631 198.178 188.542C197.95 187.34 197.71 186.137 197.446 184.943C197.363 184.573 197.182 184.227 197.049 183.871C196.99 183.717 196.895 183.569 196.883 183.409C196.809 182.565 196.306 182.109 195.533 181.931C194.692 181.739 193.841 181.567 192.988 181.437C188.788 180.791 184.589 180.136 180.38 179.538C177.267 179.094 174.145 178.694 171.02 178.341C168.18 178.022 165.33 177.782 162.484 177.533C160.283 177.34 158.077 177.186 155.873 177.02C153.64 176.855 151.41 176.801 149.194 177.237C147.186 177.631 145.471 178.492 144.28 180.225C143.454 181.428 143.134 182.799 142.959 184.221C142.622 186.94 142.867 189.638 143.175 192.342C143.922 198.897 145.421 205.3 147.056 211.674C147.328 212.741 147.565 213.819 147.855 215.042C142.758 214.447 137.829 213.872 132.833 213.292C132.797 212.572 132.773 211.929 132.732 211.289C132.539 208.39 132.427 205.481 132.125 202.593C131.802 199.51 131.165 196.474 130.125 193.539C129.61 192.082 128.944 190.701 127.957 189.496C127.267 188.649 126.465 187.932 125.496 187.417C123.769 186.498 122.028 186.682 120.532 187.932C119.433 188.847 118.693 190.011 118.168 191.326C117.478 193.056 117.143 194.872 116.859 196.702C116.068 201.761 116.16 206.855 116.219 211.95C116.225 212.545 116.219 213.144 116.219 213.825C112.52 213.552 108.892 213.283 105.169 213.01C107.375 197.996 107.837 182.932 106.866 167.75C107.017 167.75 107.103 167.738 107.186 167.75C109.839 168.173 112.499 168.576 115.15 169.032C121.284 170.087 127.469 170.747 133.659 171.36C139.47 171.938 145.296 172.311 151.131 172.489C159.054 172.732 166.983 172.918 174.909 173.084C178.97 173.17 183.031 173.114 187.079 172.755C190.05 172.492 192.988 172.03 195.885 171.313C196.235 171.227 196.572 171.097 196.919 170.996C198.021 170.67 198.554 169.87 198.732 168.795C198.942 167.516 199.143 166.233 199.321 164.951C200.061 159.649 201.821 154.703 204.516 150.088C205.713 148.041 207.203 146.226 208.92 144.597C210.342 143.246 211.977 142.283 213.911 141.866C215.691 141.481 217.397 141.682 219.023 142.514C221.822 143.948 223.925 146.113 225.513 148.794C227.243 151.711 228.374 154.86 229.159 158.153C230.234 162.67 230.844 167.258 231.203 171.884ZM224.15 175.93C224.115 172.966 224.02 170.016 223.691 167.074C223.324 163.79 222.598 160.591 221.346 157.525C220.815 156.231 220.149 155.011 219.254 153.924C218.381 152.863 217.317 152.067 216.017 151.599C214.415 151.021 212.907 151.19 211.485 152.146C211.293 152.274 211.068 152.389 210.843 152.425C210.304 152.511 209.93 152.813 209.613 153.228C208.408 154.8 207.439 156.506 206.681 158.337C205.162 162.004 204.338 165.851 203.823 169.761C203.142 174.935 202.813 180.136 203.074 185.358C203.242 188.746 203.725 192.096 204.655 195.369C205.304 197.653 206.267 199.788 207.653 201.723C207.973 202.17 208.322 202.605 208.707 202.999C211.029 205.366 214.089 205.546 216.684 203.476C217.842 202.552 218.781 201.432 219.542 200.165C220.498 198.574 221.254 196.889 221.816 195.12C222.687 192.384 223.123 189.555 223.374 186.709C223.691 183.119 223.899 179.523 224.15 175.93Z"
    fill="#B4BD57" />
  <path
    d="M230.572 105.583C231.117 109.546 231.206 113.527 230.925 117.52C230.602 122.096 229.752 126.565 228.309 130.916C227.649 132.904 226.808 134.82 225.771 136.636C225.241 137.569 224.548 138.41 223.89 139.263C223.585 139.657 223.188 139.965 222.676 140.125C222.394 140.214 222.163 140.46 221.811 140.702C218.39 138.425 214.747 138.117 210.92 139.728C210.153 139.295 209.374 138.869 208.61 138.422C207.102 137.542 205.793 136.414 204.632 135.119C200.038 130.004 196.593 124.184 194.064 117.807C193.922 117.449 193.815 117.081 193.685 116.72C193.474 116.137 193.078 115.802 192.467 115.612C191.511 115.313 190.619 115.497 189.716 115.775C187.332 116.513 184.941 117.235 182.56 117.985C176.926 119.753 171.284 121.5 165.668 123.322C162.561 124.329 159.513 125.508 156.617 127.039C154.958 127.916 153.344 128.876 151.91 130.09C151.22 130.676 150.554 131.322 150.003 132.039C148.993 133.351 148.78 134.879 149.094 136.488C149.585 139.017 150.687 141.277 152.334 143.238C153.489 144.612 154.736 145.927 156.051 147.153C159.318 150.207 162.792 153.015 166.385 155.684C166.613 155.852 166.835 156.033 167.069 156.217C166.533 156.59 159.75 158.595 158.918 158.622C158.66 158.225 158.388 157.804 158.113 157.387C156.522 154.964 154.715 152.731 152.39 150.959C152.029 150.684 151.659 150.408 151.268 150.174C150.856 149.929 150.429 149.698 149.985 149.526C147.918 148.738 146.197 149.745 145.853 151.931C145.64 153.29 145.862 154.611 146.224 155.918C146.558 157.129 147.077 158.263 147.693 159.353C148.329 160.482 148.993 161.598 149.645 162.721C149.763 162.925 149.87 163.133 150.015 163.399C148.042 164.202 146.034 164.738 143.97 165.304C143.827 165.04 143.688 164.794 143.558 164.546C142.418 162.377 140.996 160.42 139.156 158.799C138.496 158.219 137.755 157.695 136.979 157.286C135.534 156.522 134.104 156.682 132.765 157.621C131.838 158.269 131.133 159.102 130.697 160.153C129.758 162.41 129.539 164.747 129.915 167.149C129.945 167.339 129.975 167.528 129.995 167.721C130.001 167.786 129.978 167.857 129.969 167.922C129.296 168.008 121.444 167.087 120.233 166.782C118.21 158.577 116.184 150.352 112.87 142.468C113.127 142.346 113.311 142.248 113.504 142.169C130.188 135.442 146.594 128.076 162.949 120.594C168.449 118.077 173.92 115.479 179.314 112.742C183.336 110.699 187.213 108.37 191.152 106.167C191.297 106.084 191.437 105.989 191.576 105.891C192.476 105.258 192.995 104.496 192.87 103.291C192.589 100.557 192.672 97.8173 192.989 95.0894C193.466 91.002 194.15 86.959 195.717 83.1174C196.502 81.1952 197.476 79.3736 198.77 77.7505C201.457 74.3858 204.955 72.659 209.282 72.7183C211.021 72.742 212.629 73.281 214.151 74.1104C217.522 75.9467 220.143 78.571 222.243 81.752C224.228 84.7583 225.655 88.0312 226.923 91.387C228.653 95.9839 229.9 100.711 230.572 105.583ZM224.308 112.271C224.26 111.282 224.245 109.499 224.077 107.734C223.523 101.905 221.84 96.3956 219.148 91.2034C217.8 88.6088 216.13 86.2422 214.033 84.1867C212.679 82.8627 211.095 81.9534 209.279 81.441C208.077 81.1004 206.868 81.0086 205.689 81.5743C205.603 81.6158 205.509 81.6632 205.417 81.6602C204.549 81.6335 203.992 82.1578 203.477 82.7442C202.402 83.9705 201.643 85.3833 201.069 86.8998C199.813 90.22 199.333 93.6854 199.232 97.2071C199.075 102.645 199.804 107.988 201.122 113.255C201.987 116.708 203.041 120.097 204.679 123.278C205.805 125.463 207.07 127.555 208.761 129.361C209.741 130.407 210.828 131.301 212.161 131.858C214.649 132.898 216.965 132.599 219.027 130.842C219.64 130.321 220.173 129.675 220.638 129.015C221.589 127.67 222.202 126.154 222.679 124.584C223.831 120.825 224.216 116.963 224.308 112.271Z"
    fill="#B4BD57" />
  <path
    d="M224.076 107.73C224.245 109.498 224.26 111.278 224.308 112.268C224.219 116.962 223.834 120.822 222.684 124.577C222.205 126.144 221.591 127.663 220.644 129.008C220.176 129.669 219.646 130.314 219.032 130.836C216.974 132.592 214.658 132.891 212.167 131.852C210.834 131.295 209.744 130.4 208.766 129.355C207.075 127.548 205.811 125.457 204.685 123.271C203.047 120.093 201.99 116.704 201.128 113.248C199.81 107.979 199.081 102.639 199.238 97.2005C199.339 93.6788 199.822 90.2134 201.074 86.8931C201.649 85.3767 202.404 83.9638 203.483 82.7376C203.998 82.1512 204.555 81.6269 205.423 81.6536C205.511 81.6565 205.609 81.6091 205.695 81.5677C206.874 81.002 208.079 81.0967 209.285 81.4344C211.097 81.9468 212.685 82.8561 214.039 84.1801C216.136 86.2356 217.809 88.6021 219.154 91.1968C221.84 96.3949 223.523 101.901 224.076 107.73ZM221.369 111.654C221.301 110.656 221.248 108.876 221.044 107.114C220.487 102.251 219.05 97.6359 216.885 93.2553C215.623 90.7021 214.059 88.3474 212.013 86.3393C211.086 85.43 210.019 84.7724 208.784 84.3726C208.038 84.1297 207.3 83.9609 206.566 84.42C206.486 84.4703 206.382 84.5147 206.293 84.5088C205.805 84.4733 205.571 84.8139 205.322 85.1427C204.374 86.3867 203.811 87.8113 203.37 89.2893C202.167 93.3293 201.999 97.4671 202.253 101.634C202.511 105.891 203.275 110.061 204.401 114.172C205.434 117.946 206.809 121.571 208.995 124.838C209.697 125.889 210.544 126.852 211.385 127.803C211.995 128.49 212.777 128.967 213.657 129.281C214.844 129.704 215.922 129.515 216.921 128.771C217.569 128.288 218.052 127.666 218.461 126.979C219.198 125.729 219.702 124.382 220.081 122.99C221.023 119.53 221.307 115.994 221.369 111.654Z"
    fill="black" />
  <path
    d="M223.691 167.073C224.02 170.015 224.115 172.965 224.151 175.929C223.896 179.522 223.688 183.118 223.374 186.705C223.123 189.551 222.687 192.38 221.817 195.116C221.254 196.885 220.499 198.57 219.542 200.161C218.781 201.425 217.842 202.548 216.684 203.472C214.089 205.542 211.029 205.362 208.707 202.995C208.322 202.604 207.973 202.169 207.653 201.719C206.27 199.784 205.304 197.649 204.655 195.365C203.725 192.092 203.243 188.745 203.074 185.354C202.813 180.132 203.145 174.931 203.823 169.757C204.336 165.844 205.159 162 206.681 158.333C207.44 156.502 208.405 154.796 209.614 153.224C209.933 152.809 210.304 152.507 210.843 152.421C211.068 152.385 211.293 152.273 211.485 152.143C212.907 151.186 214.415 151.017 216.017 151.595C217.314 152.063 218.381 152.859 219.255 153.92C220.149 155.007 220.815 156.224 221.346 157.521C222.598 160.59 223.324 163.789 223.691 167.073ZM221.135 174.922C221.094 173.702 221.067 171.442 220.925 169.191C220.715 165.844 220.09 162.571 218.92 159.417C218.502 158.288 217.999 157.201 217.297 156.215C216.787 155.498 216.171 154.906 215.369 154.524C214.326 154.029 213.677 154.133 212.801 154.894C212.513 155.143 212.202 155.398 211.859 155.534C211.536 155.661 211.323 155.854 211.174 156.126C210.582 157.225 209.931 158.297 209.439 159.438C207.902 163.022 207.137 166.816 206.693 170.663C206.358 173.572 206.148 176.498 206 179.424C205.778 183.805 206.036 188.165 206.966 192.466C207.517 195.019 208.316 197.474 209.815 199.648C210.179 200.178 210.582 200.703 211.05 201.141C212.102 202.13 213.337 202.201 214.536 201.387C214.871 201.159 215.179 200.883 215.472 200.599C216.239 199.855 216.835 198.988 217.353 198.061C218.858 195.38 219.628 192.469 220.069 189.456C220.727 184.981 220.969 180.473 221.135 174.922Z"
    fill="black" />
  <path
    d="M149.102 180.305C150.533 183.658 149.025 188.708 145.951 190.725C145.88 189.729 145.782 188.782 145.749 187.834C145.696 186.273 145.752 184.715 146.143 183.193C146.543 181.64 147.553 180.69 149.102 180.305Z"
    fill="#EC6A6C" />
  <path
    d="M146.561 167.688C146.763 168.251 146.94 168.743 147.118 169.243C146.232 169.412 134.974 168.657 133.126 168.304C133.017 167.718 132.874 167.093 132.788 166.462C132.554 164.791 132.691 163.156 133.289 161.569C133.535 160.92 133.917 160.387 134.5 160.002C134.874 159.756 135.268 159.682 135.653 159.922C136.141 160.224 136.642 160.52 137.071 160.897C138.641 162.274 139.876 163.924 140.845 165.769C141.259 166.557 141.707 167.297 142.379 167.919C142.945 168.443 143.519 168.583 144.218 168.366C144.814 168.183 145.406 167.981 146.001 167.798C146.158 167.753 146.324 167.736 146.561 167.688Z"
    fill="#EC6A6C" />
  <path
    d="M137.613 128.716C137.344 128.846 137.095 128.979 136.837 129.089C130.185 131.917 123.536 134.749 116.88 137.569C115.133 138.309 113.385 139.044 111.614 139.725C110.873 140.009 110.391 140.551 109.902 141.105C109.597 141.452 109.585 141.902 109.686 142.34C109.739 142.574 109.828 142.799 109.92 143.022C112.328 148.824 114.164 154.81 115.695 160.894C116.101 162.499 116.51 164.104 116.916 165.71C116.957 165.869 116.978 166.035 117.025 166.29C116.788 166.278 116.646 166.281 116.51 166.26C114.114 165.893 111.715 165.538 109.321 165.141C108.353 164.981 107.399 164.72 106.437 164.516C106.134 164.451 105.823 164.389 105.515 164.389C105.024 164.389 104.591 164.614 104.393 165.052C104.103 165.701 103.798 166.346 103.848 167.111C103.996 169.436 104.162 171.764 104.212 174.092C104.298 177.981 104.381 181.876 104.322 185.764C104.26 189.822 104.085 193.88 103.851 197.935C103.694 200.618 103.35 203.29 103.081 205.967C103.001 206.752 102.903 207.534 102.823 208.224C102.204 208.45 101.659 208.618 101.138 208.846C99.1444 209.714 97.0415 210.203 94.9326 210.683C90.6201 211.666 86.2484 212.315 81.8825 212.972C79.4123 213.346 76.9392 213.689 74.463 214.012C71.0539 214.456 67.6211 214.625 64.1883 214.77C61.4959 214.883 58.8065 214.906 56.1201 214.708C53.1878 214.489 50.2792 214.122 47.5839 212.842C46.5917 212.371 45.6291 211.808 44.7109 211.201C42.4954 209.735 40.9997 207.682 40.0163 205.233C39.0893 202.923 38.5235 200.512 38.1533 198.068C37.5668 194.197 37.0989 190.311 36.5361 186.437C36.0533 183.111 35.4906 179.796 34.9989 176.47C34.2406 171.361 33.3047 166.284 32.2473 161.231C30.0348 150.666 27.2476 140.261 23.5157 130.123C23.1839 129.222 22.8759 128.313 22.559 127.404C22.5057 127.252 22.4731 127.095 22.4227 126.9C22.5382 126.9 22.6123 126.882 22.6715 126.903C24.653 127.555 26.7056 127.768 28.773 127.883C31.6845 128.043 34.5842 127.898 37.478 127.563C43.0937 126.915 48.5969 125.662 54.1297 124.545C65.4589 122.262 76.5985 119.214 87.7441 116.199C94.0233 114.499 100.308 112.807 106.57 111.048C112.559 109.363 118.465 107.417 124.205 105C126.817 103.898 129.412 102.746 131.77 101.149C132.78 100.465 133.677 99.6211 134.625 98.848C134.731 98.7621 134.826 98.6644 135.054 98.457C135.567 108.661 135.987 118.71 137.613 128.716ZM117.517 120.245C117.692 119.584 117.384 118.841 116.694 118.589C115.592 118.186 114.472 117.798 113.329 117.558C111.433 117.161 109.555 117.493 107.692 117.917C104.511 118.639 101.621 120.023 98.8956 121.773C96.8756 123.07 94.8734 124.397 92.88 125.736C90.7445 127.17 88.6386 128.642 86.355 129.835C85.6975 130.179 85.0133 130.487 84.3083 130.709C82.9399 131.141 81.9299 130.756 81.1125 129.589C80.9881 129.415 80.8755 129.222 80.7244 129.074C80.3127 128.674 79.8152 128.541 79.2642 128.725C78.6837 128.917 78.3076 129.347 78.3016 129.945C78.2987 130.354 78.4112 130.824 78.6334 131.159C79.7707 132.862 81.3346 133.857 83.4464 133.837C83.6449 133.834 83.8463 133.837 84.0299 133.837C84.0447 133.949 84.0566 133.976 84.0506 133.997C84.0033 134.157 83.9499 134.317 83.9026 134.479C83.325 136.39 83.0999 138.33 83.405 140.314C83.7989 142.859 84.9777 144.962 87.1132 146.416C90.0307 148.403 93.2384 148.966 96.6653 148.027C99.3162 147.301 101.582 145.862 103.605 144.046C107.165 140.85 109.17 136.87 109.434 132.068C109.635 128.419 108.359 125.389 105.512 123.055C105.252 122.842 104.994 122.626 104.742 122.404C104.656 122.33 104.591 122.232 104.488 122.114C104.636 122.037 104.731 121.966 104.837 121.93C106.093 121.527 107.337 121.077 108.611 120.742C110.802 120.165 112.979 120.159 115.097 121.124C115.373 121.252 115.698 121.302 116.003 121.32C116.753 121.361 117.336 120.926 117.517 120.245ZM99.0763 198.003C100.226 197.745 100.773 196.783 100.442 195.648C100.314 195.216 100.095 194.807 99.8878 194.404C99.3577 193.382 98.7623 192.39 98.2766 191.348C96.6683 187.897 95.5872 184.26 94.666 180.578C93.8604 177.362 93.3806 174.08 92.9511 170.795C92.8445 169.992 92.7704 169.187 92.6845 168.411C93.2888 168.156 93.8367 167.967 94.3432 167.703C95.9426 166.874 97.0356 165.638 97.3347 163.802C97.4621 163.032 97.4295 162.265 97.237 161.513C96.2151 157.532 94.0855 154.363 90.3595 152.455C86.195 150.323 81.9981 150.601 77.8899 152.606C75.6211 153.711 74.2587 155.61 73.69 158.074C73.0591 160.811 73.7196 163.159 75.79 165.085C77.028 166.237 78.4853 166.995 80.1113 167.436C80.3394 167.499 80.5675 167.561 80.7867 167.623C80.7867 168.574 80.8548 169.442 80.7748 170.298C80.3216 175.102 80.0432 179.921 79.2435 184.689C78.4468 189.443 77.9136 194.247 76.4208 198.865C76.0121 200.133 76.7407 201.181 78.0617 201.359C78.3668 201.4 78.6896 201.409 78.9947 201.365C79.824 201.243 80.6563 201.11 81.4768 200.938C83.5916 200.497 85.6856 199.943 87.8152 199.596C90.703 199.126 93.6175 198.806 96.5202 198.412C97.3732 198.293 98.2351 198.193 99.0763 198.003ZM76.1039 133.031C76.2402 131.432 75.9203 129.877 75.55 128.334C75.5175 128.197 75.4404 128.064 75.3664 127.946C75.0258 127.404 74.4068 127.149 73.8144 127.294C73.1716 127.451 72.7333 127.963 72.7185 128.639C72.7126 128.947 72.7866 129.255 72.8251 129.566C72.9436 130.54 73.148 131.515 73.1657 132.492C73.2013 134.248 72.3009 135.371 70.6067 135.875C69.5552 136.186 68.48 136.242 67.396 136.18C65.1568 136.052 62.968 135.629 60.8058 135.051C58.3 134.385 55.8061 133.677 53.2915 133.052C51.4018 132.584 49.4884 132.282 47.5158 132.519C45.0515 132.815 42.8212 134.636 42.3147 137.729C42.2437 138.167 42.2851 138.594 42.5665 138.967C42.8953 139.402 43.3396 139.618 43.8845 139.553C44.4532 139.485 44.8708 139.171 45.0752 138.632C45.2352 138.206 45.327 137.755 45.4869 137.332C45.8838 136.274 46.6569 135.638 47.7676 135.475C49.2633 135.255 50.7295 135.472 52.2785 135.875C52.16 136.026 52.1067 136.103 52.0445 136.171C48.1526 140.314 47.5247 147.142 49.3611 151.709C51.3781 156.72 56.4933 159.413 61.7358 158.391C66.8747 157.387 70.8673 154.632 73.6633 150.18C74.6585 148.596 75.3279 146.884 75.6863 145.05C76.2135 142.346 75.7278 139.897 73.8647 137.791C73.8233 137.743 73.8085 137.672 73.7818 137.61C73.841 137.542 73.8795 137.48 73.9329 137.435C75.2864 136.277 75.9558 134.776 76.1039 133.031Z"
    fill="#EC6A6C" />
  <path
    d="M132.314 89.2745C134.328 90.6992 134.873 93.0124 133.706 95.1864C133.153 96.2201 132.35 97.0435 131.446 97.7751C130.208 98.7792 128.819 99.5463 127.406 100.269C123.592 102.221 119.596 103.731 115.556 105.135C109.748 107.155 103.83 108.811 97.8942 110.402C89.3137 112.7 80.742 115.016 72.1584 117.3C64.5227 119.332 56.8159 121.053 49.0646 122.578C45.7444 123.232 42.4152 123.849 39.0712 124.373C34.9513 125.019 30.8076 125.232 26.6461 124.743C25.2807 124.583 23.9449 124.302 22.6861 123.724C22.0641 123.44 21.5339 123.04 21.1045 122.504C20.4351 121.666 20.3136 120.762 20.8438 119.823C21.14 119.305 21.4747 118.796 21.8686 118.351C22.4906 117.652 23.1482 116.983 23.8383 116.352C25.183 115.123 28.6069 112.792 30.4018 111.835C30.464 112.013 30.5351 112.179 30.5825 112.351C30.8757 113.414 31.166 114.48 31.4503 115.546C31.5066 115.754 31.5629 115.97 31.5688 116.183C31.5895 116.93 31.9627 117.492 32.5729 117.83C33.2156 118.185 33.9116 118.482 34.6166 118.683C36.2338 119.148 37.8983 119.127 39.554 118.956C42.8003 118.621 45.9369 117.863 48.8869 116.414C51.6829 115.04 53.9932 113.088 55.8296 110.594C56.4723 109.72 56.6974 108.764 56.2502 107.623C55.6667 106.131 55.2905 104.558 54.8285 103.018C54.8107 102.952 54.8255 102.878 54.8255 102.813C66.9337 99.8425 78.9382 96.5637 90.6376 91.9669C90.7324 92.263 90.8272 92.5237 90.8953 92.7903C91.5232 95.2072 92.1423 97.627 92.7761 100.038C92.8265 100.225 92.9598 100.408 93.1049 100.542C94.1208 101.474 95.4033 101.691 96.7006 101.833C101.457 102.363 105.782 101.089 109.831 98.6696C111.883 97.4434 113.631 95.9062 114.919 93.8684C115.301 93.2642 115.526 92.6747 115.18 91.9787C115.121 91.8602 115.094 91.6914 115.129 91.567C115.289 91.0427 115.124 90.5807 114.94 90.1009C114.416 88.7117 113.912 87.3108 113.37 85.8269C113.64 85.8002 113.803 85.7736 113.965 85.7676C118.21 85.6047 122.416 85.892 126.562 86.8428C128.185 87.216 129.74 87.7728 131.195 88.5933C131.586 88.8065 131.962 89.0257 132.314 89.2745Z"
    fill="#DBA2A2" />
  <path
    d="M128.538 198.953C128.556 199.045 128.55 199.143 128.562 199.318C125.523 200.926 122.585 202.647 119.247 203.687C119.22 203.473 119.181 203.34 119.187 203.21C119.365 200.212 119.611 197.218 120.325 194.291C120.529 193.456 120.849 192.648 121.169 191.848C121.429 191.19 121.883 190.66 122.416 190.195C122.955 189.727 123.553 189.629 124.128 190.05C124.702 190.471 125.259 190.939 125.739 191.466C126.394 192.183 126.77 193.08 127.131 193.972C127.78 195.583 128.186 197.262 128.538 198.953Z"
    fill="#EC6A6C" />
  <path
    d="M116.694 118.588C117.384 118.839 117.692 119.583 117.517 120.243C117.336 120.925 116.75 121.36 116.006 121.319C115.701 121.301 115.375 121.25 115.1 121.123C112.982 120.158 110.805 120.166 108.614 120.741C107.34 121.076 106.096 121.526 104.84 121.929C104.733 121.964 104.636 122.032 104.491 122.112C104.594 122.231 104.659 122.329 104.745 122.403C104.997 122.625 105.258 122.841 105.515 123.054C108.362 125.391 109.638 128.421 109.437 132.067C109.173 136.868 107.168 140.849 103.608 144.045C101.585 145.861 99.3221 147.3 96.6682 148.026C93.2413 148.965 90.0336 148.402 87.1162 146.415C84.9806 144.96 83.8018 142.86 83.4079 140.313C83.0998 138.329 83.325 136.386 83.9055 134.478C83.9529 134.318 84.0062 134.158 84.0536 133.995C84.0595 133.975 84.0477 133.948 84.0328 133.835C83.8492 133.835 83.6478 133.835 83.4494 133.835C81.3375 133.853 79.7766 132.858 78.6363 131.158C78.4141 130.823 78.3016 130.349 78.3046 129.944C78.3105 129.345 78.6896 128.919 79.2672 128.723C79.8181 128.54 80.3157 128.673 80.7274 129.073C80.8814 129.221 80.9939 129.41 81.1154 129.588C81.9329 130.755 82.9429 131.14 84.3113 130.708C85.0162 130.486 85.7033 130.178 86.3579 129.834C88.6386 128.64 90.7474 127.165 92.883 125.735C94.8763 124.396 96.8785 123.066 98.8985 121.772C101.623 120.024 104.514 118.638 107.695 117.915C109.558 117.492 111.436 117.16 113.332 117.557C114.475 117.797 115.595 118.185 116.694 118.588ZM101.478 141.995C101.594 141.898 101.686 141.77 101.834 141.605C101.114 141.51 100.462 141.483 99.8434 141.332C96.8163 140.603 94.5771 138.939 93.5908 135.876C93.1229 134.419 92.9688 132.914 93.1732 131.392C93.2828 130.566 93.4576 129.745 93.6205 128.812C93.3598 128.981 93.1791 129.096 92.9985 129.212C91.556 130.121 90.1254 131.048 88.6682 131.931C88.2002 132.212 87.7974 132.473 87.7115 133.074C87.673 133.347 87.4894 133.602 87.3561 133.856C86.4112 135.681 86.0706 137.621 86.3016 139.653C86.5208 141.605 87.4272 143.177 89.1125 144.205C91.0999 145.416 93.2502 145.831 95.5457 145.271C97.8174 144.717 99.719 143.485 101.478 141.995Z"
    fill="black" />
  <path
    d="M111.94 90.4705C112.123 90.9888 112.346 91.4894 112.571 92.0462C111.969 93.1095 111.176 94.0722 110.178 94.8363C106.404 97.7301 102.195 99.2939 97.3792 98.9356C96.9735 98.9059 96.5706 98.8289 96.1678 98.7727C95.6969 98.7075 95.4451 98.4972 95.3148 97.9759C94.6513 95.3458 93.9938 92.7126 93.2089 90.1151C91.4614 84.3453 89.5302 78.6378 86.8794 73.2027C85.3066 69.9802 83.565 66.8584 81.2696 64.0801C79.4036 61.8172 77.2295 59.9127 74.6882 58.4288C72.2565 57.0101 69.6442 56.2193 66.8304 56.0919C63.8922 55.9586 61.0369 56.3141 58.2824 57.4129C54.3046 59.0005 51.4138 61.7402 49.53 65.5611C47.6314 69.4085 46.811 73.4811 46.9028 77.764C46.9828 81.5523 47.5663 85.2724 48.3127 88.9688C49.5685 95.1858 51.2301 101.302 53.0369 107.38C53.1109 107.632 53.1702 107.898 53.2886 108.129C53.5522 108.636 53.4012 109.009 53.0487 109.421C51.5619 111.153 49.8736 112.625 47.818 113.647C44.5777 115.256 41.136 116.029 37.5344 116.082C36.7998 116.091 36.0623 115.913 35.3248 115.821C34.765 115.75 34.4866 115.457 34.3267 114.882C33.2426 110.996 32.3155 107.072 31.5158 103.118C30.5355 98.2691 29.6735 93.3998 28.9775 88.5008C28.1659 82.8022 27.8076 77.0798 28.2311 71.3278C28.5125 67.4892 28.9686 63.6714 30.1474 59.9898C32.4725 52.7272 36.8146 46.9278 42.9221 42.3873C46.4793 39.7453 50.463 38.211 54.8022 37.5446C56.3897 37.2988 57.9892 37.0618 59.5915 36.9818C63.2583 36.8041 66.7445 37.6779 70.1033 39.0759C74.5372 40.9211 78.6927 43.2758 82.481 46.2288C86.9475 49.7091 91.0349 53.6069 94.5951 58.0171C97.1186 61.1419 99.3222 64.4977 101.393 67.9365C105.693 75.0806 109.168 82.6126 111.94 90.4705Z"
    fill="#F5DEBB" />
  <path
    d="M101.834 141.605C101.686 141.771 101.594 141.898 101.478 141.996C99.7191 143.483 97.8205 144.718 95.5428 145.272C93.2474 145.831 91.0971 145.417 89.1096 144.205C87.4243 143.178 86.518 141.602 86.2988 139.653C86.0707 137.621 86.4114 135.681 87.3532 133.857C87.4865 133.602 87.6702 133.347 87.7087 133.075C87.7946 132.473 88.1974 132.216 88.6653 131.931C90.1226 131.052 91.5561 130.122 92.9956 129.212C93.1763 129.1 93.354 128.981 93.6176 128.812C93.4547 129.745 93.28 130.563 93.1704 131.392C92.966 132.915 93.12 134.419 93.588 135.877C94.5773 138.936 96.8135 140.604 99.8405 141.332C100.463 141.483 101.114 141.51 101.834 141.605Z"
    fill="#F5DEBB" />
  <path
    d="M100.439 195.647C100.77 196.781 100.222 197.744 99.0733 198.002C98.2321 198.191 97.3702 198.292 96.5142 198.407C93.6116 198.801 90.6971 199.118 87.8092 199.592C85.6796 199.942 83.5856 200.492 81.4708 200.934C80.6504 201.106 79.821 201.239 78.9888 201.36C78.6837 201.405 78.3638 201.393 78.0558 201.354C76.7318 201.177 76.0032 200.131 76.4149 198.86C77.9077 194.243 78.4408 189.439 79.2376 184.685C80.0373 179.916 80.3157 175.094 80.7688 170.293C80.8488 169.44 80.7807 168.569 80.7807 167.619C80.5615 167.559 80.3334 167.494 80.1054 167.432C78.4763 166.994 77.0221 166.232 75.784 165.08C73.7166 163.155 73.0531 160.806 73.684 158.069C74.2527 155.608 75.6152 153.707 77.884 152.602C81.9951 150.6 86.1891 150.321 90.3535 152.451C94.0795 154.358 96.2121 157.524 97.231 161.508C97.4235 162.258 97.4531 163.028 97.3287 163.798C97.0266 165.631 95.9367 166.869 94.3372 167.699C93.8308 167.962 93.2828 168.152 92.6786 168.406C92.7645 169.182 92.8385 169.988 92.9451 170.791C93.3746 174.075 93.8544 177.357 94.6601 180.574C95.5812 184.255 96.6623 187.893 98.2706 191.343C98.7564 192.386 99.3517 193.378 99.8819 194.4C100.095 194.806 100.311 195.214 100.439 195.647Z"
    fill="black" />
  <path
    d="M75.5472 128.333C75.9174 129.876 76.2373 131.431 76.101 133.03C75.9529 134.775 75.2836 136.277 73.927 137.432C73.8737 137.476 73.8322 137.538 73.776 137.606C73.8026 137.666 73.8174 137.74 73.8589 137.787C75.7219 139.893 76.2077 142.343 75.6804 145.047C75.3221 146.88 74.6527 148.592 73.6575 150.177C70.8615 154.628 66.8688 157.383 61.73 158.387C56.4874 159.409 51.3723 156.717 49.3552 151.705C47.5159 147.138 48.1438 140.311 52.0387 136.167C52.1039 136.099 52.1542 136.022 52.2727 135.871C50.7236 135.468 49.2545 135.252 47.7617 135.471C46.651 135.634 45.878 136.271 45.4811 137.328C45.3211 137.755 45.2293 138.205 45.0694 138.628C44.865 139.167 44.4474 139.481 43.8787 139.549C43.3367 139.615 42.8924 139.398 42.5607 138.963C42.2793 138.593 42.2378 138.166 42.3089 137.725C42.8154 134.633 45.0427 132.811 47.51 132.515C49.4855 132.278 51.396 132.58 53.2856 133.048C55.8003 133.673 58.2942 134.381 60.7999 135.047C62.9621 135.622 65.151 136.046 67.3901 136.176C68.4742 136.238 69.5523 136.182 70.6008 135.871C72.295 135.367 73.1954 134.248 73.1599 132.488C73.1392 131.511 72.9377 130.536 72.8193 129.562C72.7808 129.254 72.7067 128.943 72.7126 128.635C72.7274 127.96 73.1658 127.447 73.8085 127.29C74.4009 127.145 75.02 127.4 75.3606 127.942C75.4405 128.063 75.5146 128.197 75.5472 128.333ZM67.0436 153.067C67.0199 153.026 66.9992 152.985 66.9755 152.943C66.1076 152.771 65.225 152.65 64.372 152.422C61.3953 151.622 58.463 148.423 58.5963 144.674C58.6733 142.491 59.4997 140.625 60.8858 138.978C61.0606 138.768 61.2353 138.56 61.4634 138.291C59.4167 137.737 57.4826 137.213 55.6344 136.712C55.3057 137.088 55.0509 137.396 54.7814 137.689C54.343 138.163 53.8336 138.581 53.4604 139.099C51.7484 141.484 51.1946 144.197 51.3308 147.079C51.396 148.435 51.6862 149.744 52.2668 150.976C53.6203 153.832 55.898 155.357 59.0347 155.615C61.1169 155.784 63.0184 155.123 64.8607 154.273C65.616 153.926 66.3209 153.473 67.0436 153.067Z"
    fill="black" />
  <path
    d="M66.9785 152.944C67.0022 152.985 67.0229 153.027 67.0466 153.068C66.321 153.474 65.616 153.927 64.8637 154.274C63.0185 155.124 61.1199 155.784 59.0377 155.616C55.9011 155.358 53.6204 153.833 52.2698 150.977C51.6863 149.748 51.396 148.436 51.3338 147.079C51.1976 144.195 51.7515 141.484 53.4634 139.1C53.8366 138.582 54.3461 138.164 54.7844 137.69C55.0569 137.397 55.3116 137.089 55.6374 136.713C57.4857 137.213 59.4198 137.738 61.4664 138.292C61.2413 138.561 61.0666 138.771 60.8889 138.979C59.4997 140.626 58.6763 142.494 58.5993 144.674C58.466 148.421 61.3983 151.623 64.375 152.423C65.228 152.651 66.1107 152.772 66.9785 152.944Z"
    fill="#F5DEBB" />
</svg>
