<svg width="609" height="394" viewBox="0 0 609 394" fill="none" xmlns="http://www.w3.org/2000/svg">
<path d="M474.74 107.261C463.807 108.255 454.294 110.953 444.426 116.135C443.361 109.036 440.876 103.002 437.469 95.9023C450.744 98.955 462.813 102.576 474.811 107.261H474.74Z" fill="#FDFDFD"/>
<path d="M367.463 160.929C362.92 135.088 342.19 115.636 317.484 109.033C320.537 98.3133 327.068 90.2911 334.878 83.5467C362.21 59.7641 403.528 62.0359 427.807 89.1552C434.694 97.5323 439.379 107.542 440.586 118.404C427.239 127.207 417.229 139.063 412.686 154.469C397.209 152.055 382.514 154.469 367.463 160.929Z" fill="#FDC1C1"/>
<path d="M187.925 160.29C184.375 151.913 180.825 144.672 175.004 138.211C164.071 126.214 150.156 118.404 133.828 115.494C136.384 103.993 142.418 94.7638 150.866 87.1676C173.655 66.6507 208.016 64.5919 233.36 81.7721C246.352 90.5753 255.226 103.567 257.498 119.043C244.151 128.201 234.07 140.554 229.598 156.457C215.683 154.185 202.194 155.392 187.925 160.219V160.29Z" fill="#F1E5DB"/>
<path d="M261.051 116.63C258.779 109.247 256.862 102.787 252.531 96.7522C243.444 83.2636 230.027 73.9635 214.195 69.6329C220.443 48.3351 238.475 34.3495 258.992 29.238C283.2 23.2036 308.687 32.2197 323.311 52.3817C329.062 61.1848 332.682 70.5559 332.186 81.2758C323.524 88.659 317.561 97.6041 313.798 108.253C295.695 104.916 277.947 107.543 261.051 116.63Z" fill="#FDC1C1"/>
<path d="M530.114 129.267C526.209 125.931 523.512 122.665 519.039 119.896L544.1 103.994L578.673 82.554C582.791 79.9982 588.612 79.7853 590.813 85.0387C593.014 90.2922 589.464 94.8358 584.849 96.6816L530.114 129.338V129.267Z" fill="#ECCA88"/>
<path d="M442.929 81.0642C438.812 83.549 435.262 85.2528 431.428 87.9506C428.305 84.1879 425.394 81.4902 421.773 78.1535L478.639 42.7991C482.543 40.3853 488.152 42.7991 489.217 46.6327C490.282 50.4663 487.371 54.5129 483.821 56.6427L442.929 81.0642Z" fill="#ECCA88"/>
<path d="M236.487 319.954C232.157 322.296 215.189 331.525 211.995 327.195C208.8 322.864 226.406 310.441 230.453 307.956L270.351 283.534C272.836 282.682 276.101 286.161 276.882 288.149C277.663 290.137 278.16 294.964 275.675 296.597C262.755 304.974 249.976 312.57 236.487 319.954Z" fill="#ECCA88"/>
<path d="M259.845 311.01C265.383 306.112 272.198 303.84 277.949 299.367C283.699 294.895 281.995 290.777 280.149 286.447C278.659 283.039 273.547 278.566 269.074 280.412C261.549 283.465 255.87 289.215 247.99 293.049C238.335 266.569 246.712 239.094 268.719 222.127C301.731 196.641 350.361 200.758 375.067 234.054C388.626 252.37 391.75 276.934 381.669 297.451C366.477 328.403 324.094 341.679 292.218 330.533C280.22 326.842 269.145 321.091 259.845 311.01Z" fill="#B3BA4E"/>
<path d="M134.613 273.382C130.85 275.512 113.173 284.386 112.818 277.286C112.463 270.187 128.792 261.739 133.619 258.757L168.903 237.033C171.671 235.898 174.937 239.66 175.505 241.719C176.073 243.778 176.286 248.25 173.659 249.883C160.738 258.118 147.96 265.857 134.613 273.311V273.382Z" fill="#ECCA88"/>
<path d="M241.03 281.403C214.621 291.981 178.343 285.45 158.111 263.868L176.569 251.941C180.26 249.598 180.189 243.493 178.273 239.588C176.356 235.684 171.954 231.779 167.695 233.625C160.311 236.82 154.277 242.357 146.681 246.333C138.162 224.893 142.634 201.82 157.401 184.711C167.056 173.494 179.479 166.111 193.678 161.993C206.812 158.159 219.661 157.521 232.937 160.857C256.223 166.679 275.249 182.723 282.845 205.583C283.129 206.506 283.555 208.564 282.632 209.132L277.734 212.256C251.182 228.939 238.262 248.179 240.959 281.332L241.03 281.403Z" fill="#B3BA4E"/>
<path d="M323.169 46.2056C319.903 42.7269 317.418 40.2422 313.727 37.3315L365.835 5.38466C368.888 3.53885 372.864 5.1717 374.496 7.44347C376.129 9.71525 376.058 14.7557 372.793 16.6726L323.169 46.2766V46.2056Z" fill="#ECCA88"/>
<path d="M139.791 236.537C115.796 243.494 85.2686 237.673 67.5204 218.434C72.7739 214.103 78.8792 211.974 84.3457 207.927C89.8121 203.88 88.6763 199.905 87.1144 195.929C85.5526 191.954 81.08 187.694 76.8205 189.54C69.6502 192.593 63.9707 197.988 56.3035 202.035C47.0744 179.672 52.4699 154.398 69.9341 137.502C84.6297 123.303 104.366 116.488 124.883 117.695C145.4 118.902 175.359 134.946 184.517 161.782C153.919 174.702 134.538 202.532 139.791 236.537Z" fill="#B3BA4E"/>
<path d="M57.0891 220.492C53.1135 222.835 37.5661 230.573 35.0813 226.811C31.8866 222.054 44.8073 213.606 48.428 211.263L59.7159 203.951C65.5373 200.117 71.2877 196 77.606 193.089C80.8007 191.598 83.9244 196.426 84.2084 198.839C84.7054 202.389 82.9305 205.158 79.7358 207.074L57.0891 220.563V220.492Z" fill="#ECCA88"/>
<path d="M390.899 276.435C393.029 240.229 368.323 212.684 334.602 204.165C338.932 184.642 355.615 169.023 373.435 162.137C389.763 155.818 407.937 155.108 424.55 160.859C441.162 166.609 441.375 169.165 448.19 175.625C465.583 192.167 471.263 217.085 462.744 239.519C458.626 249.103 452.45 256.77 444.073 262.947C429.164 274.306 410.564 278.991 390.899 276.435Z" fill="#F1E5DB"/>
<path d="M470.408 224.614C470.479 212.971 469.343 201.896 464.09 191.602C454.648 172.86 437.184 159.584 416.383 154.97C425.328 125.579 455.216 108.966 484.891 111.167C494.617 111.877 503.136 114.859 511.513 119.473C529.475 129.412 540.762 147.16 541.543 167.748C542.111 183.154 537.071 197.068 525.925 207.788C511.3 221.348 491.351 227.737 470.408 224.614Z" fill="#FDC1C1"/>
<path d="M130.423 114.503L117.289 114.148L131.63 108.895C132.056 110.669 130.991 112.018 130.423 114.503Z" fill="#FDFDFD"/>
<path d="M287.46 207.716C283.484 194.369 276.456 183.436 266.446 174.562C256.649 166.185 245.574 160.789 232.938 157.453C238.262 135.232 258.211 118.264 279.225 112.727C300.239 107.19 319.691 109.958 336.658 121.104C351.354 130.83 361.506 145.171 364.061 162.848C348.159 171.793 336.303 185.637 331.121 203.385C316.212 201.255 301.872 202.178 287.389 207.787L287.46 207.716Z" fill="#F1E5DB"/>
<path d="M30.8236 228.444C38.3488 236.608 56.0971 225.32 63.9773 220.635C82.2934 239.732 114.453 249.316 140.082 240.229L143.418 248.038L127.729 257.977C121.836 261.668 104.727 272.743 109.555 280.624C114.382 288.504 130.64 279.985 136.177 276.79L154.706 266.07C176.146 288.504 212.707 297.094 241.673 285.38C242.311 288.859 243.305 291.485 244.441 294.68L224.847 306.82C218.529 310.796 212.92 315.41 208.661 321.515C204.401 327.621 207.028 329.538 210.933 331.525C216.825 334.507 235.283 324.994 241.673 321.302L256.155 312.925C272.483 329.751 294.917 338.909 318.416 338.625C351.215 338.057 386.995 315.197 390.758 280.34C424.692 285.309 464.022 264.579 469.631 228.657C498.17 232.987 529.123 219.499 541.263 192.734C548.078 175.199 546.871 154.398 536.435 137.715C541.618 139.064 544.599 142.613 548.504 145.027C559.508 152.055 569.163 160.788 577.824 170.798L580.877 174.276C588.402 183.008 593.797 192.947 597.489 203.951C609.558 239.448 587.763 273.808 561.07 295.461C549.569 304.761 537.926 312.641 524.792 319.599C473.89 346.576 411.984 360.917 354.622 366.525C297.047 372.133 239.046 368.939 182.535 357.225C138.023 347.925 89.8897 330.461 53.7543 302.702C29.9007 284.386 9.17074 261.242 6.47301 230.006C4.62719 208.708 15.3471 187.694 28.9068 171.933C37.3549 162.491 46.3 154.043 57.5879 146.873C47.01 164.763 45.0932 184.925 52.3344 203.88C42.2534 211.193 40.4786 210.625 32.1724 219.996C30.2556 222.196 30.3266 225.533 30.7526 228.373L30.8236 228.444Z" fill="#FDF4F0"/>
<path d="M8.38281 253.718C13.9913 265.006 19.5997 274.519 27.8349 283.393C41.3945 297.947 56.587 310.016 73.8383 320.168C104.649 338.413 143.766 352.398 178.766 359.924C230.023 370.928 284.048 374.69 336.228 371.495L341.978 371.141C388.124 368.301 443.569 356.516 487.301 340.046C508.315 332.094 528.051 322.51 546.793 310.158C560.211 301.283 571.783 291.132 582.218 278.921C591.59 268.059 597.269 256.132 602.167 242.359C602.309 254.073 598.263 264.367 593.293 274.306C580.444 300.219 552.401 322.155 527.341 336.141C466.855 369.792 392.951 383.919 324.301 386.191C263.389 388.25 205.53 382.499 147.529 364.396C100.816 349.772 41.3235 321.516 17.1149 276.862C13.1393 269.55 9.5187 262.237 8.38281 253.718Z" fill="#E3D5CC"/>
<path d="M584.99 171.508C574.98 159.297 563.054 148.719 548.642 139.064C547.577 138.354 546.583 137.644 545.589 136.934C542.466 134.733 539.484 132.675 535.721 131.042L587.049 100.941C594.432 96.6102 597.414 91.2148 595.852 84.9674C595.142 81.9147 593.155 79.3589 590.386 77.7261C587.191 75.8803 583.216 75.5253 579.524 76.6612C577.323 77.3711 575.619 78.507 573.844 79.7849C573.206 80.2819 572.496 80.7788 571.715 81.2048L515.772 116.701C509.667 112.016 502.71 110.383 495.965 108.75C493.055 108.04 490.073 107.33 487.162 106.407C482.619 104.916 478.004 103.355 473.532 101.864C461.676 97.8171 449.394 93.6995 436.544 90.5758L489.15 58.558C493.126 56.1443 494.332 51.1748 494.119 47.6961C493.906 43.7205 491.28 39.9579 487.659 38.325C481.696 35.6983 476.371 38.254 471.97 41.0228L418.512 74.8154C410.206 69.136 401.829 65.7283 392.174 64.0955C372.651 60.4748 353.127 64.8054 337.083 76.3063C335.45 65.3024 332.043 56.7832 326.576 49.6839L375.348 20.7898L375.49 20.6478C379.537 16.3172 380.957 12.3416 379.892 8.22404C378.969 4.53241 375.916 1.69269 373.361 0.84078C369.385 -0.508086 365.267 -0.22411 362.286 1.62171L310.816 33.8525C302.226 28.67 294.274 25.5463 285.897 24.0555C270.279 21.2867 253.879 24.1265 239.61 32.1487C225.198 40.2418 214.691 52.8076 209.935 67.5741C194.955 64.6634 179.195 66.5092 165.493 72.7566C151.224 79.288 140.149 89.9369 133.546 103.568C126.731 105.2 120.271 107.827 114.023 110.312C109.693 112.087 105.149 113.932 100.606 115.423C86.4072 119.967 75.1193 126.427 65.1093 135.727C62.1986 138.425 58.791 140.697 55.4543 142.827C52.7566 144.601 49.9878 146.376 47.5031 148.506C33.0205 160.362 22.6556 171.65 14.8463 184.144C-1.90799 210.98 -4.67673 243.637 7.53405 271.537C24.5014 310.299 66.3162 335.998 89.7439 347.854C141.995 374.334 209.722 390.237 280.502 392.722C288.24 393.006 295.907 393.148 303.503 393.148C347.448 393.148 388.766 388.675 429.232 379.517C469.343 370.43 507.821 355.45 537.567 337.418C572.567 316.12 595 291.486 604.229 264.082C614.736 232.917 607.708 199.266 584.919 171.65L584.99 171.508ZM372.367 15.9623L323.239 45.2823C320.187 42.0877 317.986 39.8869 314.862 37.3311L366.119 5.88128C368.817 4.17745 372.438 5.88128 373.857 7.7271C374.638 8.79199 374.922 10.7798 374.567 12.5546C374.354 13.6195 373.786 15.1104 372.367 15.9623ZM590.031 90.7888C589.037 93.0606 587.049 94.9774 584.564 95.9003L530.184 128.344C529.048 127.35 528.054 126.356 526.989 125.433C524.859 123.446 522.872 121.6 520.316 119.825L544.453 104.49L579.027 83.0506C581.512 81.4887 584.351 80.9918 586.552 81.7017C588.185 82.1986 589.392 83.4055 590.102 85.1804C590.812 86.9552 590.812 88.872 589.96 90.7178L590.031 90.7888ZM444.921 115.068C443.785 108.75 441.656 103.142 438.674 96.9652C450.814 99.8049 461.392 103 471.686 106.904C461.889 108.111 453.511 110.667 444.85 115.068H444.921ZM63.6185 202.177C68.162 199.124 72.8475 196 77.888 193.728C78.172 193.587 78.527 193.516 78.8109 193.516C79.0949 193.516 79.6628 193.658 80.0888 193.87C81.9346 194.864 83.2835 197.491 83.4965 198.911C83.9224 201.964 82.5026 204.519 79.3079 206.436L56.6611 219.925C51.1947 223.191 37.4931 229.296 35.6472 226.456C35.2923 225.888 35.1503 225.32 35.3633 224.539C36.0022 221.558 40.4747 217.298 48.8519 211.832L60.1398 204.519C61.3467 203.739 62.4826 202.958 63.6894 202.177H63.6185ZM171.244 237.886C173.019 238.738 174.438 240.797 174.793 241.933C175.432 244.133 175.503 247.896 173.231 249.316C159.601 257.977 146.822 265.644 134.185 272.744C129.145 275.583 117.715 280.766 114.378 278.849C113.81 278.494 113.526 277.997 113.455 277.216C113.384 275.299 115.869 270.472 133.901 259.326L169.114 237.673C169.753 237.46 170.463 237.531 171.173 237.886H171.244ZM276.313 288.433C277.094 290.35 277.449 294.68 275.319 296.029C262.541 304.335 249.762 311.932 236.202 319.315C217.46 329.538 213.484 327.905 212.633 326.769C212.278 326.272 212.136 325.704 212.278 324.994C213.129 320.735 222.43 313.707 230.878 308.524L270.705 284.173C272.622 283.606 275.532 286.658 276.313 288.362V288.433ZM270.066 305.116C272.835 303.555 275.745 301.993 278.372 299.934C282.49 296.739 282.703 290.634 280.786 286.161C279.082 282.257 273.615 277.784 268.788 279.772C264.67 281.405 261.192 283.819 257.429 286.445C254.589 288.433 251.679 290.421 248.342 292.125C239.397 266.567 247.49 239.377 269.072 222.765C285.613 209.986 306.911 204.306 327.499 207.146C346.667 209.773 363.28 219.57 374.425 234.549C388.056 252.937 390.612 277.571 380.957 297.236C366.687 326.201 325.298 341.465 292.358 329.964C279.011 325.846 269.001 319.812 260.837 311.151C263.676 308.737 266.942 306.962 270.066 305.187V305.116ZM330.694 202.603C315.217 200.473 301.232 201.893 287.885 206.862C283.838 193.941 276.81 182.938 266.871 174.134C257.429 166.112 246.638 160.504 233.717 157.025C238.829 136.792 257.074 119.399 279.295 113.507C299.599 108.111 319.832 111.022 336.16 121.742C351.282 131.823 360.653 145.879 363.209 162.492C346.951 171.792 335.663 185.635 330.552 202.603H330.694ZM462.102 239.235C457.984 248.677 451.95 256.273 443.643 262.379C429.019 273.525 411.058 278.21 391.677 275.796C393.38 241.72 370.876 212.826 335.521 203.668C339.71 186.203 354.618 170.23 373.786 162.776C390.328 156.386 408.289 155.889 424.404 161.498C432.924 164.479 440.591 169.236 447.832 176.122C464.941 192.38 470.55 217.156 462.244 239.164L462.102 239.235ZM232.795 161.569C256.435 167.461 274.893 184.002 282.206 205.868C282.561 207.004 282.632 208.353 282.277 208.566L277.378 211.69C248.626 229.793 237.835 249.884 240.249 280.908C213.697 291.273 178.414 283.889 159.175 264.011L176.923 252.582C180.828 250.026 180.97 243.708 178.911 239.306C177.278 235.969 172.096 231 167.41 233.059C163.221 234.904 159.601 237.318 155.696 239.945C152.928 241.791 150.088 243.708 147.035 245.411C139.155 224.752 143.202 202.319 157.897 185.28C167.055 174.631 179.124 167.106 193.89 162.776C207.308 158.8 220.087 158.445 232.795 161.64V161.569ZM525.356 207.288C510.874 220.777 491.138 226.811 471.047 223.972C471.047 214.529 470.337 202.461 464.657 191.315C455.215 172.644 437.964 159.297 417.163 154.469C425.824 127.492 454.079 109.602 484.748 111.874C493.764 112.513 502.142 115.139 511.087 120.038C528.906 129.835 539.981 147.654 540.762 167.745C541.401 183.364 536.005 196.994 525.356 207.288ZM412.194 153.689C397.569 151.559 383.157 153.618 367.965 159.936C363.35 135.727 344.04 115.707 318.341 108.537C321.039 99.5209 326.505 91.7117 335.308 84.0445C362.286 60.6168 403.532 63.1016 427.173 89.5819C434.201 98.1011 438.532 107.898 439.739 118.05C425.753 127.421 416.453 139.348 412.052 153.689H412.194ZM331.475 80.9208C323.098 88.0911 317.134 96.8232 313.3 107.472C295.268 104.277 277.804 107.046 261.476 115.636C259.275 108.466 257.287 102.29 253.099 96.3972C244.153 83.1216 231.02 73.6795 215.046 69.136C220.939 49.9679 237.338 35.3433 259.133 29.9479C283.341 23.9135 308.26 32.9296 322.672 52.8076C329.061 62.5336 331.83 71.4787 331.475 80.9208ZM229.103 155.747C215.543 153.618 202.197 154.824 188.353 159.439C184.59 150.636 181.112 143.891 175.503 137.786C164.428 125.646 150.656 117.979 134.682 114.997C137.167 104.561 142.563 95.6873 151.366 87.8071C174.012 67.4321 207.592 65.2313 233.008 82.4826C246.07 91.3567 254.518 104.206 256.79 118.831C242.734 128.557 233.433 140.981 229.174 155.747H229.103ZM148.1 190.96C139.794 204.306 136.599 219.854 138.942 236.111C113.81 243.211 85.0583 236.04 68.517 218.576C71.1437 216.517 73.9124 214.955 76.8941 213.323C79.5208 211.903 82.2186 210.412 84.7743 208.566C88.679 205.726 89.3889 199.763 87.7561 195.716C86.8332 193.445 84.2774 190.321 81.2957 189.043C79.5918 188.333 77.959 188.262 76.4682 188.901C72.4216 190.605 68.8719 193.019 65.1803 195.574C62.4825 197.42 59.7138 199.337 56.5902 201.041C47.929 179.246 53.2535 154.611 70.3628 138.07C84.7034 124.226 104.013 117.198 124.814 118.405C152.786 120.038 174.722 136.082 183.596 161.356C168.262 167.958 156.051 178.11 148.1 190.818V190.96ZM51.6207 203.668C48.8519 205.655 46.7221 207.004 44.8763 208.282C40.4038 211.193 37.706 212.968 31.7426 219.641C29.6129 222.055 29.7548 225.746 30.1098 228.586V228.799L30.3228 228.941C37.848 237.176 54.3184 227.237 63.1925 221.984L63.9024 221.558C72.9895 230.858 85.4843 238.028 99.1149 241.72C113.172 245.482 127.512 245.269 139.723 241.152L142.563 247.825L127.441 257.409C121.549 261.101 103.729 272.389 109.054 281.05C113.526 288.291 129.074 281.831 136.67 277.5L154.702 267.064C176.497 289.498 212.633 297.591 241.243 286.445C241.811 289.072 242.521 291.202 243.372 293.616C243.443 293.899 243.585 294.183 243.656 294.467L224.559 306.323C217.318 310.867 212.065 315.552 208.16 321.232C206.882 323.078 206.456 325.491 206.953 327.621C207.45 329.609 208.799 331.242 210.645 332.236C217.886 335.927 241.101 322.581 242.024 321.942L256.08 313.778C272.409 330.319 295.126 339.548 318.483 339.264C335.166 338.98 352.418 333.017 365.977 322.865C380.46 312.003 389.476 297.165 391.464 281.121C408.289 283.393 426.392 279.559 441.23 270.401C457.132 260.604 467.426 246.121 470.266 229.438C484.322 231.426 499.16 229.154 511.939 222.978C525.64 216.375 536.076 206.01 541.969 192.948C548.926 175.057 547.435 154.966 538.064 138.922C540.62 139.916 542.679 141.478 544.595 143.04C545.731 143.891 546.867 144.814 548.145 145.595C558.652 152.269 568.236 160.646 577.323 171.224L580.376 174.702C587.546 183.08 592.942 192.664 596.846 204.093C612.039 248.677 572.993 284.812 560.64 294.822C548.713 304.477 537.212 312.145 524.504 318.889C466.503 349.558 400.125 361.343 354.618 365.744C297.185 371.353 239.326 368.229 182.745 356.444C131.701 345.795 86.0522 326.485 54.2474 302.064C24.5014 279.204 9.52186 256.273 7.25009 229.864C5.1203 204.803 20.2418 183.08 29.4709 172.36C38.416 162.35 46.5801 155.037 55.5962 149.003C46.2962 166.325 44.8763 185.564 51.5497 203.597L51.6207 203.668ZM27.3411 283.889C40.6167 298.23 55.7382 310.299 73.4865 320.806C102.452 337.986 140.788 352.469 178.627 360.633C229.032 371.495 283.554 375.47 336.302 372.276L342.053 371.921C388.411 369.081 444.211 357.154 487.517 340.826C509.88 332.378 529.403 322.581 547.151 310.867C560.569 301.993 572.212 291.77 582.719 279.559C590.386 270.614 596.065 260.746 601.248 246.973C600.467 257.054 596.704 265.999 592.587 274.163C577.11 305.329 541.472 327.55 526.918 335.643C458.694 373.625 379.04 383.777 324.233 385.622C258.352 387.823 202.268 380.937 147.674 363.898C117.715 354.527 45.0893 327.337 17.6861 276.648C14.7043 271.111 11.6516 265.218 10.0188 258.687C14.4204 267.135 19.7448 275.796 27.2701 283.961L27.3411 283.889ZM483.399 56.0023L442.508 80.4238C441.159 81.2048 439.881 81.9147 438.674 82.6246C436.26 83.9735 433.917 85.3224 431.575 86.9552C428.877 83.6895 426.179 81.2048 423.055 78.365L422.914 78.223L478.998 43.3655C480.631 42.3716 482.761 42.2296 484.748 43.0106C486.665 43.7915 488.014 45.1404 488.44 46.7732C489.647 51.1748 486.31 54.1565 483.328 55.9313L483.399 56.0023ZM120.981 113.578L130.991 109.886C130.991 110.454 130.707 111.093 130.494 111.874C130.281 112.442 130.068 113.081 129.855 113.79L120.981 113.578Z" fill="black"/>
</svg>
