<?xml version="1.0" encoding="UTF-8"?>
<svg id="Livello_1" data-name="Livello 1" xmlns="http://www.w3.org/2000/svg" viewBox="0 0 652.07 709.02">
  <defs>
    <style>
      .cls-1, .cls-2, .cls-3 {
        stroke-width: 0px;
      }

      .cls-2 {
        fill: #dba2a2;
      }

      .cls-3 {
        fill: #ffc2c2;
      }
    </style>
  </defs>
  <path class="cls-1" d="M648.02,373.98c2.26.76,4.18,3.37,4.05,5.74-.17,3.07-.48,6.12-.8,9.18-.43,4.19-.92,8.37-1.39,12.55-.63,5.65-1.27,11.3-1.88,16.96-.51,4.75-.98,9.51-1.49,14.26-.49,4.58-.99,9.16-1.49,13.74-.53,4.8-1.06,9.61-1.59,14.42-.64,5.82-1.3,11.64-1.93,17.47-.28,2.54-.36,5.12-.79,7.63-.43,2.54-1.28,4.74-4.01,6.09-8.31,4.11-16.47,8.5-24.7,12.77-9.88,5.13-19.77,10.24-29.66,15.36-2.97,1.53-5.94,3.06-9.02,4.64,1.25,2.35,2.45,4.6,3.65,6.84,3.03,5.67,6.05,11.34,9.08,17,2.93,5.46,5.86,10.91,8.8,16.37,1.16,2.15,2.4,4.27,3.45,6.47.39.82.58,1.93.38,2.8-.47,2.03-1.47,3.77-3.51,4.77-6.43,3.15-12.83,6.36-19.25,9.54-5.55,2.75-11.11,5.49-16.65,8.24-5.7,2.83-11.4,5.66-17.11,8.48-5.65,2.8-11.31,5.59-16.96,8.39-4.89,2.42-9.78,4.85-14.66,7.27-5.09,2.52-10.19,5.03-15.28,7.56-5.65,2.81-11.28,5.64-16.94,8.44-5.6,2.78-11.22,5.52-16.82,8.29-3,1.49-5.99,3-9,4.5-.35.17-.72.45-1.09.47-2.33.12-4.15,1.5-6.12,2.46-7.86,3.85-15.68,7.77-23.5,11.69-6.25,3.13-12.48,6.3-18.73,9.43-6.3,3.15-12.62,6.27-18.93,9.41-4.93,2.46-9.86,4.93-14.77,7.44-3.24,1.65-7.35-.45-7.97-4.08-.56-3.25-1.21-6.48-1.84-9.72-.07-.33-.2-.65-.36-1.15-1.27.82-2.52,1.57-3.72,2.38-7.28,4.86-14.56,9.73-21.84,14.59-5.81,3.89-11.62,7.79-17.42,11.68-1.94,1.3-3.86,2.62-5.81,3.89-1.03.67-2.14.93-3.41.71-3.47-.57-6.95-1.04-10.43-1.56-4.04-.61-8.08-1.22-12.11-1.85-4.04-.62-8.07-1.26-12.11-1.88-4.04-.62-8.09-1.22-12.13-1.84-4.09-.63-8.19-1.27-12.28-1.91-4.77-.74-9.55-1.47-14.32-2.2-4.78-.74-9.55-1.48-14.32-2.21-6.02-.92-12.04-1.81-18.05-2.77-2.9-.47-5.06-3.95-4.44-6.85,1.35-6.28,2.63-12.58,3.96-18.86,1.17-5.51,2.37-11,3.54-16.51,1.27-6.01,2.51-12.02,3.76-18.03.27-1.27.53-2.54.82-3.94-12.71-5.95-24.71-13.09-36.63-20.69-1.97.97-4.01,1.95-6.03,2.96-7.12,3.55-14.24,7.1-21.36,10.66-6.25,3.12-12.47,6.33-18.77,9.34-1.59.76-3.45,1.07-5.23,1.32-1.43.2-2.66-.55-3.53-1.71-3.24-4.32-6.46-8.66-9.69-12.99-3.78-5.06-7.56-10.1-11.34-15.16-3.34-4.46-6.66-8.94-10-13.4-3.3-4.42-6.61-8.83-9.92-13.25-3.75-5.01-7.49-10.02-11.24-15.02-3.85-5.15-7.7-10.29-11.55-15.44-.51-.68-1.04-1.35-1.54-2.05-1.6-2.24-.96-6.27,1.25-7.88,8.03-5.88,16.06-11.75,24.09-17.62,3.58-2.62,7.14-5.26,10.71-7.89.22-.16.41-.38.76-.72-7.1-11.75-12.72-24.21-17.54-37.03-4.8-12.76-9.52-25.56-12.25-39.14-1.04.13-2.04.21-3.03.37-13.35,2.16-26.69,4.34-40.03,6.5-3.46.56-6.53-2.01-6.79-5.52-.36-4.88-.86-9.74-1.28-14.62-.39-4.53-.76-9.07-1.14-13.61-.41-4.88-.83-9.75-1.24-14.63-.61-7.2-1.21-14.4-1.83-21.6-.4-4.7-.85-9.41-1.26-14.11-.27-3.12-.53-6.24-.79-9.35-.41-4.88-.82-9.75-1.24-14.63-.13-1.59-.28-3.17-.42-4.76-.23-2.59.92-4.65,3.29-5.83,9.56-4.77,19.13-9.52,28.68-14.31,6.25-3.13,12.47-6.32,18.74-9.41.93-.46,1.18-1.04,1.26-1.96.56-6.4.95-12.83,1.79-19.2.93-7.04,2.26-14.02,3.46-21.02.54-3.14,1.21-6.25,1.87-9.56-1.84-1.07-3.73-2.19-5.64-3.29-6.21-3.56-12.44-7.11-18.65-10.66-5.48-3.13-10.96-6.25-16.44-9.38-2.03-1.15-4.06-2.29-6.08-3.45-2.98-1.73-3.86-5.23-2.17-8.24,3.07-5.44,6.08-10.93,9.14-16.38,3.08-5.51,6.19-11,9.28-16.5,3.05-5.45,6.09-10.92,9.14-16.38,2.69-4.81,5.4-9.62,8.09-14.43,3.09-5.5,6.15-11.02,9.26-16.51,1.42-2.52,3.49-4.31,6.28-5.19,6.07-1.91,12.14-3.81,18.22-5.7,8.09-2.51,16.18-4.99,24.27-7.5,6.4-1.99,12.79-4.02,19.34-6.08-.24-1.41-.46-2.8-.73-4.17-1.53-7.58-3.15-15.14-4.56-22.74-.27-1.43.14-3.04.48-4.51.27-1.15,1.26-1.87,2.35-2.34,7-3,14.01-5.97,21-8.98,7.1-3.05,14.18-6.15,21.28-9.22,5.79-2.5,11.59-4.97,17.39-7.46,5.01-2.16,10.02-4.32,15.03-6.47,5.9-2.53,11.8-5.05,17.7-7.59,5.69-2.45,11.37-4.92,17.06-7.37,5.16-2.23,10.34-4.43,15.51-6.66,5.69-2.45,11.37-4.9,17.06-7.35,1.56-.68,3.11-1.4,4.69-2.05.57-.23,1.2-.35,1.82-.41,7.47-.76,14.94-1.48,22.4-2.24,6.68-.67,13.35-1.35,20.02-2.04,6.67-.68,13.35-1.35,20.02-2.04,6.62-.68,13.23-1.35,19.85-2.03.34-.03.67-.15,1-.19,1.72-.2,3.29.28,4.18,1.74.75,1.22,1.42,2.68,1.55,4.09.65,6.85,1.1,13.73,1.63,20.59.4,5.22.81,10.43,1.23,15.65.03.44.17.87.3,1.48,2.19-.72,4.29-1.4,6.37-2.1,7.42-2.52,14.84-5.05,22.26-7.58,8.12-2.76,16.24-5.52,24.36-8.29,5.7-1.94,11.36-3.99,17.11-5.77,2.11-.65,4.33-.47,6.4.78,5.4,3.26,10.87,6.4,16.31,9.6,5.44,3.2,10.86,6.42,16.3,9.63,5.38,3.17,10.78,6.33,16.17,9.5,5.48,3.23,10.96,6.48,16.44,9.71,5.39,3.17,10.78,6.34,16.18,9.49,2.21,1.28,4.45,2.51,6.68,3.75,2.2,1.24,2.98,3.74,1.85,6.04-5.02,10.26-10.05,20.52-15.06,30.79-4.06,8.33-8.08,16.68-12.13,25.01-1.44,2.96-2.93,5.91-4.37,8.87-.25.51-.42,1.05-.65,1.64,11.26,11.97,21.21,24.95,30.78,38.31,3.72-1.26,7.32-2.48,10.92-3.68,6.03-2.02,12.07-4.02,18.1-6.05,5.87-1.98,11.72-4,17.6-5.97,7.11-2.38,14.22-4.77,21.35-7.06,2.93-.94,4.95.25,6.03,3.11,2.2,5.85,4.48,11.67,6.72,17.51,2.56,6.69,5.12,13.38,7.68,20.06,2.2,5.73,4.42,11.46,6.62,17.19,2.59,6.74,5.16,13.48,7.75,20.22,2.25,5.83,4.52,11.66,6.78,17.49,1.64,4.24,3.27,8.48,4.89,12.74.57,1.48.3,2.85-.48,4.24-1.15,2.05-3.06,2.93-5.08,3.77-7.39,3.08-14.76,6.22-22.15,9.33-6.49,2.73-13,5.44-19.49,8.17-6.23,2.62-12.46,5.27-18.68,7.91-.15.06-.26.21-.48.4,2.84,16.24,5.31,32.58,5.7,49.29,1.9.64,3.77,1.28,5.65,1.91,7.72,2.55,15.43,5.12,23.15,7.65,9.44,3.1,18.89,6.17,28.33,9.25,3.57,1.17,7.13,2.33,10.69,3.52ZM642.43,387.21c.06-.53,0-1.07,0-1.77-.83.33-1.47.55-2.08.83-3.79,1.68-7.58,3.38-11.36,5.07-5.71,2.54-11.43,5.07-17.14,7.61-6.39,2.84-12.76,5.71-19.15,8.55-6.44,2.86-12.89,5.69-19.33,8.55-5.77,2.56-11.52,5.15-17.28,7.72-5.76,2.56-11.54,5.1-17.3,7.66-5.82,2.58-11.63,5.17-17.44,7.77-2.44,1.09-4.87,2.18-7.31,3.27-.59.26-1.03.56-1.11,1.34-.53,5.09-1.13,10.17-1.69,15.26-.61,5.6-1.19,11.2-1.81,16.79-.63,5.71-1.28,11.41-1.92,17.12-.51,4.58-.99,9.16-1.5,13.74-.64,5.71-1.29,11.41-1.93,17.12-.51,4.58-.99,9.16-1.5,13.74-.53,4.74-1.08,9.49-1.67,14.57.74-.34,1.27-.55,1.76-.8,4.23-2.2,8.46-4.41,12.69-6.61,5.7-2.96,11.41-5.9,17.11-8.85,5.55-2.88,11.11-5.75,16.66-8.62,5.61-2.9,11.21-5.8,16.81-8.7,5.55-2.88,11.11-5.76,16.66-8.63,5.6-2.9,11.2-5.79,16.81-8.69,5.6-2.9,11.2-5.81,16.8-8.71,4.85-2.51,9.7-5.01,14.55-7.51.74-.38,1.19-.85,1.28-1.81.31-3.45.79-6.89,1.16-10.34.84-7.8,1.63-15.61,2.47-23.41.75-6.9,1.55-13.79,2.31-20.69.81-7.35,1.6-14.7,2.39-22.05.7-6.5,1.39-13.01,2.07-19.51ZM634.58,378.96c-1.04-.34-1.69-.55-2.33-.76-5.99-1.97-11.98-3.95-17.97-5.92-7.45-2.45-14.9-4.9-22.35-7.36-3.78-1.25-7.55-2.52-11.33-3.76-.98-.32-1.86-.4-2.87.26-2.14,1.39-4.43,2.56-6.64,3.83-5.43,3.1-10.85,6.21-16.28,9.32s-10.84,6.23-16.27,9.34c-5.48,3.14-10.96,6.25-16.44,9.38-5.52,3.16-11.05,6.32-16.57,9.49-5.47,3.14-10.94,6.28-16.42,9.42-4.83,2.77-9.67,5.53-14.51,8.3-1.56.89-3.1,1.8-4.88,2.83,3.07,1.04,5.84,2,8.62,2.92,8.79,2.91,17.61,5.74,26.37,8.75,1.73.6,3.13.48,4.7-.25,3.14-1.47,6.32-2.85,9.49-4.26,5.66-2.52,11.32-5.02,16.98-7.54,6.39-2.84,12.76-5.71,19.14-8.55,5.86-2.61,11.74-5.21,17.61-7.81,5.76-2.56,11.53-5.11,17.3-7.67,6.33-2.81,12.67-5.63,19-8.44,7.27-3.23,14.54-6.45,21.81-9.69,1.19-.53,2.36-1.13,3.85-1.84ZM631.26,268.53c-6.35-16.56-12.62-32.96-18.94-49.34-6.34-16.41-12.59-32.86-19.01-49.34-46.03,15.51-91.83,30.95-137.79,46.44,14.46,36.2,28.81,72.12,43.23,108.21,44.26-18.69,88.35-37.32,132.52-55.97ZM571.08,353.92c-.02-2.16.14-4.32-.01-6.47-.44-6.13-.85-12.26-1.55-18.36-.72-6.26-1.76-12.49-2.69-18.73-.22-1.45-.55-2.87-.87-4.51-1.63.68-3.09,1.28-4.53,1.89-6.55,2.76-13.09,5.53-19.64,8.29-6.44,2.72-12.88,5.43-19.31,8.15-6.6,2.79-13.18,5.6-19.78,8.38-1.99.84-3.96,1.76-6.03,2.34-4.43,1.25-8.91,2.3-13.37,3.44-6.33,1.62-12.66,3.24-18.99,4.86-4.29,1.1-8.58,2.19-13.06,3.33,6.5,23.24,10.85,46.57,10.79,70.76.41-.21.65-.31.89-.45,7.11-4.06,14.21-8.13,21.32-12.19,8.05-4.59,16.11-9.16,24.15-13.76,9.96-5.71,19.9-11.46,29.87-17.17,10.56-6.05,21.13-12.07,31.7-18.08.7-.4,1.14-.86,1.13-1.72ZM588.63,572.29c-7.77-14.5-15.46-28.86-23.18-43.27-.61.26-1.14.44-1.63.69-6.06,3.13-12.11,6.27-18.17,9.42-7.57,3.93-15.13,7.86-22.7,11.79-7.11,3.69-14.23,7.37-21.33,11.07-1.88.98-3.71,1.89-5.98,1.46-1.76-.33-3.19-1.18-4.58-2.16-2.68-1.91-5.33-3.87-8.1-5.9-19.2,14.26-38.36,28.48-57.62,42.8,9.08,13.92,18.08,27.71,27.14,41.61,45.4-22.51,90.69-44.96,136.15-67.5ZM517.41,185.97c-.34-.55-.54-.95-.8-1.3-3.24-4.32-6.49-8.63-9.74-12.94-5.11-6.77-10.64-13.19-16.35-19.45-1.48-1.63-1.51-1.61-3.65-1.14-.11.02-.22.07-.33.09-4.62.96-9.23,1.93-13.85,2.88-6.17,1.27-12.35,2.51-18.53,3.78-5.51,1.13-11.02,2.28-16.53,3.4-6.01,1.23-12.02,2.43-18.03,3.66-5.62,1.15-11.24,2.34-16.85,3.5-6.01,1.24-12.02,2.44-18.03,3.67-6.4,1.31-12.8,2.62-19.2,3.94-1.7.35-3.4.73-5.3,1.14,17.02,20.21,32.67,41.15,45.97,63.89,2.05-1.53,3.96-2.94,5.85-4.38,5.03-3.81,10.04-7.65,15.07-11.46,5.75-4.37,11.49-8.74,17.27-13.06,1.59-1.19,3.18-2.52,4.99-3.22,4.4-1.69,8.93-3.04,13.39-4.55,7.27-2.44,14.53-4.89,21.79-7.34,8.77-2.96,17.54-5.91,26.31-8.88,2.14-.72,4.27-1.46,6.55-2.24ZM515.03,84.16c-.71.19-1.03.25-1.34.36-3.75,1.32-7.49,2.66-11.25,3.96-6.76,2.36-13.53,4.7-20.29,7.05-7.24,2.53-14.48,5.08-21.72,7.61-5.95,2.08-11.92,4.12-17.87,6.2-7.46,2.6-14.91,5.22-22.37,7.83-6.54,2.28-13.09,4.55-19.64,6.83-6.7,2.34-13.4,4.71-20.12,7.01-.92.31-1.6.79-2.1,1.61-2.81,4.68-5.62,9.36-8.44,14.03-3.29,5.45-6.61,10.89-9.9,16.34-1.11,1.84-2.2,3.7-3.45,5.8,2.68-.54,5.05-1.01,7.42-1.5,4.79-.98,9.57-1.95,14.36-2.94,5.4-1.11,10.79-2.23,16.18-3.35,5.51-1.14,11.02-2.28,16.53-3.41,6.12-1.26,12.24-2.51,18.36-3.76,5.57-1.14,11.13-2.28,16.7-3.42,6.01-1.23,12.02-2.47,18.02-3.69,4.12-.84,8.24-1.68,12.36-2.52,3.01-.61,6.01-1.22,9.01-1.83.94-.19,1.62-.61,2.02-1.59.66-1.63,1.5-3.19,2.27-4.77,4.04-8.27,8.1-16.54,12.14-24.82,3.51-7.2,7.02-14.41,10.52-21.62.82-1.68,1.61-3.37,2.58-5.4ZM512.92,75.27c-.52-.36-.79-.56-1.07-.72-2.2-1.29-4.42-2.57-6.63-3.87-5.43-3.21-10.86-6.42-16.29-9.63-6.07-3.58-12.16-7.14-18.23-10.72-6.03-3.55-12.03-7.12-18.06-10.67-5.44-3.2-10.9-6.36-16.33-9.58-2.66-1.57-2.62-1.57-5.61-.55-7.25,2.49-14.52,4.93-21.78,7.4-8.18,2.78-16.35,5.56-24.53,8.33-8.01,2.72-16.03,5.43-24.05,8.15-7.42,2.52-14.85,5.05-22.27,7.57-7.32,2.48-14.64,4.95-21.95,7.43-5.7,1.93-11.39,3.88-17.27,5.89.35.27.47.39.61.48,8.09,4.96,16.18,9.94,24.28,14.88,9.12,5.57,18.26,11.11,27.38,16.68,8.44,5.16,16.86,10.33,25.29,15.52.79.49,1.56.59,2.43.29,3.75-1.33,7.5-2.65,11.26-3.96,4.5-1.58,9.01-3.16,13.51-4.73,5.26-1.83,10.52-3.65,15.77-5.49,4.51-1.57,9-3.17,13.51-4.74,5.9-2.05,11.81-4.08,17.7-6.13,5.26-1.83,10.5-3.71,15.76-5.54,6.7-2.34,13.41-4.66,20.12-6.99,6.82-2.37,13.63-4.73,20.44-7.11,1.94-.68,3.87-1.41,6.03-2.2ZM503.92,444.23c-.63-.24-1.2-.49-1.78-.68-6.52-2.17-13.05-4.32-19.57-6.48-6.85-2.28-13.71-4.54-20.54-6.85-2.67-.9-5.51-1.41-7.62-3.6-1.19-1.24-1.84-2.55-1.65-4.28.12-1.13.21-2.27.23-3.4.19-7.41-.04-14.8-.97-22.16-.78-6.14-1.5-12.3-2.54-18.4-.96-5.6-2.21-11.15-3.54-16.68-1.26-5.25-2.73-10.45-4.21-15.64-.85-2.98.89-6.48,3.88-7.33,1.64-.47,3.3-.86,4.95-1.28,5.4-1.37,10.79-2.75,16.19-4.11,5.45-1.38,10.91-2.75,16.36-4.14,2.34-.59,4.68-1.22,7.16-1.86-14.21-35.47-28.35-70.77-42.49-106.06-.01-.04-.09-.06-.14-.08-.06-.02-.11-.02-.22-.04-.15.1-.34.22-.52.36-3.81,2.88-7.61,5.77-11.42,8.66-5.03,3.81-10.07,7.61-15.1,11.43-4.31,3.26-8.59,6.56-12.91,9.8-1.67,1.25-3.84,1.26-5.38-.05-.72-.61-1.29-1.44-1.77-2.26-2.84-4.79-5.44-9.74-8.5-14.39-5.18-7.89-10.45-15.73-16.05-23.33-6.47-8.79-12.91-17.62-20.24-25.75-3.2-3.54-6.45-7.05-9.72-10.54-1.72-1.84-1.81-4.43-.11-6.32.45-.5.94-1,1.29-1.57,2.97-4.85,5.93-9.71,8.87-14.57,3.71-6.13,7.41-12.26,11.11-18.4,1.11-1.84,2.2-3.69,3.35-5.63-26.28-16.06-52.45-32.04-78.74-48.1-.68,2.61-1.3,4.97-1.9,7.33-1.37,5.4-2.73,10.8-4.09,16.2-1.38,5.46-2.75,10.92-4.15,16.37-.76,2.97-1.53,5.94-2.38,8.89-.67,2.35-2.8,3.69-5.1,3.27-1-.18-2.03-.39-2.97-.76-5.52-2.15-11.19-3.78-16.93-5.2-5.91-1.46-11.85-2.72-17.88-3.48-5.72-.72-11.46-.93-17.22-.78-2.96.08-5.9.12-8.84.66-3,.55-5.67-1.84-5.88-5-.51-7.84-1.01-15.68-1.53-23.51-.43-6.58-.87-13.17-1.31-19.76-.24-3.62-.49-7.25-.75-11.11-24.62,5.41-49.02,10.78-73.36,16.13-.04.39-.1.57-.07.72,1.31,6.58,2.61,13.16,3.93,19.73,1.11,5.52,2.23,11.04,3.33,16.55,1.27,6.3,2.58,12.6,3.79,18.9.48,2.49,1.32,4.94.89,7.57-.27,1.62-.93,2.84-2.28,3.82-2.66,1.94-5.36,3.87-7.84,6.03-4.72,4.11-9.41,8.26-13.89,12.62-3.46,3.36-6.68,6.99-9.85,10.64-1.71,1.97-3.17,4.16-4.57,6.36-1.6,2.52-4.03,2.16-6.4,2.19-1.66.02-3.02-.59-3.97-1.95-1.34-1.91-2.62-3.86-3.93-5.79-3.96-5.84-7.91-11.67-11.88-17.51-4.06-5.98-8.12-11.95-12.19-17.92-.6-.88-1.24-1.73-1.96-2.75-13.76,24.58-27.41,48.97-41.09,73.4.33.23.5.38.69.49,6.67,3.8,13.34,7.6,20,11.4,6.96,3.97,13.94,7.93,20.87,11.95,2.2,1.28,4.57,2.3,6.33,4.27,1.15,1.29,1.6,2.67,1.26,4.38-1.54,7.87-3.09,15.73-4.54,23.61-1.53,8.34-2.37,16.78-2.92,25.24-.45,7.04-.68,14.1-.75,21.15-.05,4.83.29,9.66.53,14.49.12,2.44-1.54,4.59-4.02,4.91-.79.1-1.6.1-2.39.05-2.95-.22-5.9-.47-8.85-.74-5.66-.52-11.32-1.06-16.98-1.58-5.04-.46-10.08-.93-15.13-1.33-1.34-.11-2.69-.02-4.09-.02,2.85,33.21,5.69,66.35,8.54,99.54.87-.08,1.55-.11,2.22-.22,6.11-1,12.2-2.02,18.31-3.01,6.84-1.1,13.7-2.1,20.52-3.29,1.89-.33,3.61-.13,5.35.46,1.79.6,2.82,1.87,3.09,3.72.79,5.3,1.93,10.52,3.57,15.62,3.9,12.19,8.03,24.29,13.12,36.05,3.75,8.68,7.85,17.17,12.77,25.25.37.62.86,1.19,1.38,1.7,2.27,2.22,2.05,5.35-.51,7.21-1.7,1.23-3.38,2.5-5.08,3.74-9.22,6.76-18.45,13.51-27.67,20.27-1.21.89-2.4,1.82-3.64,2.77,20,26.76,39.88,53.36,59.84,80.05.43-.5.78-.86,1.08-1.26,3.8-4.97,7.58-9.95,11.38-14.93,4.84-6.33,9.67-12.65,14.54-18.95.54-.7,1.28-1.34,2.06-1.72,1.82-.89,5.73-.12,7.26,1.21,2.84,2.46,5.64,4.95,8.57,7.3,4.84,3.87,9.89,7.48,15.17,10.73,4.56,2.79,9.16,5.5,13.76,8.22,5.48,3.24,11.11,6.21,16.9,8.88,1.59.73,3.12,1.62,4.58,2.59,1.56,1.03,2.25,2.6,1.88,4.45-.76,3.85-1.62,7.68-2.43,11.51-1.17,5.51-2.32,11.02-3.48,16.53-1.59,7.57-3.19,15.13-4.78,22.7-.45,2.15-.88,4.31-1.36,6.66,31.32,4.83,62.48,9.62,93.78,14.44,0-.54.03-.81,0-1.08-.45-3.1-.89-6.19-1.36-9.29-.85-5.55-1.73-11.11-2.58-16.66-.76-5-1.49-10.01-2.24-15.01-.55-3.72-1.13-7.43-1.66-11.15-.28-2,.68-3.85,2.46-4.64,1.31-.58,2.7-.85,4.16-.71,2.54.23,5.09.54,7.64.61,7.52.21,15.01.05,22.5-.85,8.13-.97,16.22-2.12,24.15-4.23,1.67-.45,3.25-.41,4.87,0,1.9.47,3.06,1.68,3.45,3.6.57,2.84,1.12,5.69,1.67,8.54,1.88,9.83,3.75,19.66,5.63,29.49.19.97.45,1.93.73,3.07,24.97-12.48,49.74-24.87,74.61-37.3-3.12-4.78-6.1-9.34-9.07-13.91-3.45-5.29-6.9-10.58-10.34-15.86-3.01-4.62-5.97-9.28-9.07-13.85-1.31-1.94-1.34-3.85-.41-5.81.73-1.53,1.6-3.02,2.56-4.42,6-8.77,10.76-18.21,14.79-28.01,2.4-5.83,4.65-11.74,6.7-17.7,1.53-4.45,2.65-9.05,3.93-13.59.58-2.07,1.04-4.18,1.64-6.25.87-3.01,4.63-4.24,7.5-2,4.88,3.81,9.98,7.35,14.99,11.01,6.43,4.69,12.87,9.38,19.3,14.07,1.74,1.26,3.49,2.5,5.46,3.9,3.97-35.7,7.91-71.12,11.87-106.64ZM475.39,549.86c-7.92-5.77-15.62-11.39-23.35-17.03-1.78,5.64-3.36,11.1-5.23,16.46-1.88,5.36-3.95,10.66-6.15,15.9-2.17,5.17-4.6,10.23-6.92,15.34.06.04.12.09.19.13,13.76-10.22,27.52-20.44,41.48-30.8ZM355.89,667.11c1.52-1.01,1.56-.99,1.22-2.74-.99-5.25-2-10.5-3.02-15.74-.22-1.14-.52-2.27-.79-3.44-17.02,3.68-34,5.73-51.43,4.49,2.44,16.25,4.84,32.26,7.28,48.55.55-.33.9-.5,1.22-.72,3.97-2.65,7.93-5.32,11.9-7.97,5.25-3.5,10.5-6.99,15.75-10.49,5.96-3.97,11.9-7.97,17.87-11.94ZM352.82,46.45c-.22-1.26-.47-2.31-.57-3.37-.21-2.32-.34-4.65-.52-6.98-.52-6.52-1.06-13.04-1.6-19.56-.15-1.85-.31-3.71-.49-5.84-46.83,16.96-93.43,33.84-140.14,50.76,1.08,16.39,2.16,32.62,3.24,49.08,22.29-6.29,44.42-12.53,66.71-18.82,1.34-5.31,2.63-10.55,4.01-15.77.38-1.47.44-3.07,1.46-4.33,1.19-1.48,3.35-1.65,4.42-3.32.21-.34.75-.51,1.18-.65,6.4-2.18,12.8-4.36,19.2-6.52,7.32-2.47,14.65-4.92,21.97-7.39,6.25-2.11,12.48-4.24,18.72-6.36.89-.3,1.75-.67,2.41-.92ZM317.24,12.87c-.02-.08-.05-.16-.08-.24-1.86.21-3.71.43-5.57.63-6.67.69-13.34,1.38-20.02,2.04-6.17.62-12.34,1.17-18.51,1.82-1.28.13-2.61.35-3.79.84-6.4,2.68-12.75,5.46-19.12,8.19-6.42,2.76-12.86,5.49-19.28,8.25-6.53,2.81-13.04,5.64-19.57,8.44-6.42,2.76-12.85,5.51-19.27,8.27-6.58,2.83-13.16,5.65-19.73,8.49-1.19.51-2.36,1.07-3.53,1.61,3.53-.5,6.97-1.23,10.41-1.99,6.32-1.39,12.65-2.8,18.97-4.21,2.55-.57,5.17-.91,7.63-1.76,6.61-2.27,13.14-4.76,19.71-7.14,9.41-3.4,18.82-6.75,28.23-10.16,10.09-3.66,20.17-7.37,30.26-11.03,10.09-3.66,20.2-7.28,30.3-10.93.99-.36,1.97-.76,2.95-1.14ZM276.85,101.93c-.42.02-.65-.01-.85.05-13.71,3.88-27.41,7.77-41.11,11.67-.03.01-.06.08-.06.13,0,.06.01.11.03.23,12.54,1.34,24.71,4.45,36.81,8.4,1.74-6.88,3.45-13.62,5.19-20.48ZM163.63,601.79c-3.4-2.74-6.79-5.47-10.35-8.34-5.53,7.21-11.05,14.43-16.79,21.92,2.61-.9,25.93-12.4,27.14-13.58ZM130.16,140.78c-1.74-8.68-3.47-17.29-5.23-26.1-6.56,2.05-12.94,4.04-19.32,6.04-6.45,2.02-12.89,4.04-19.35,6.04-6.36,1.97-12.73,3.89-19.2,6.02,9.52,13.98,18.88,27.73,28.31,41.59,10.12-12.93,21.98-23.71,34.8-33.59ZM51.3,324.86v-17.85c-10.18,5.1-20.05,10.05-29.93,15,2.24.85,28.82,3.09,29.93,2.85Z"/>
  <path class="cls-2" d="M642.44,385.44c0,.69.05,1.24,0,1.77-.68,6.5-1.38,13.01-2.07,19.51-.79,7.35-1.58,14.7-2.39,22.05-.76,6.9-1.56,13.79-2.31,20.69-.84,7.8-1.63,15.61-2.47,23.41-.37,3.45-.85,6.89-1.16,10.34-.09.96-.54,1.42-1.28,1.81-4.85,2.5-9.7,5-14.55,7.51-5.6,2.9-11.2,5.81-16.8,8.71-5.6,2.9-11.21,5.79-16.81,8.69-5.55,2.87-11.11,5.75-16.66,8.63-5.6,2.9-11.21,5.8-16.81,8.7-5.55,2.87-11.11,5.75-16.66,8.62-5.7,2.95-11.41,5.89-17.11,8.85-4.23,2.2-8.46,4.41-12.69,6.61-.5.26-1.02.47-1.76.8.58-5.08,1.14-9.82,1.67-14.57.51-4.58.99-9.16,1.5-13.74.64-5.71,1.29-11.41,1.93-17.12.51-4.58,1-9.16,1.5-13.74.63-5.71,1.29-11.41,1.92-17.12.62-5.6,1.19-11.2,1.81-16.79.56-5.09,1.16-10.17,1.69-15.26.08-.78.52-1.07,1.11-1.34,2.44-1.09,4.87-2.18,7.31-3.27,5.81-2.59,11.63-5.19,17.44-7.77,5.77-2.56,11.54-5.1,17.3-7.66,5.77-2.56,11.52-5.15,17.28-7.72,6.44-2.86,12.89-5.69,19.33-8.55,6.39-2.84,12.76-5.7,19.15-8.55,5.71-2.54,11.42-5.07,17.14-7.61,3.79-1.69,7.58-3.39,11.36-5.07.62-.28,1.26-.5,2.08-.83Z"/>
  <path class="cls-2" d="M632.25,378.2c.64.21,1.28.42,2.33.76-1.49.71-2.65,1.31-3.85,1.84-7.27,3.24-14.54,6.46-21.81,9.69-6.33,2.81-12.67,5.63-19,8.44-5.77,2.56-11.53,5.11-17.3,7.67-5.87,2.6-11.74,5.19-17.61,7.81-6.38,2.84-12.76,5.71-19.14,8.55-5.65,2.52-11.32,5.02-16.98,7.54-3.17,1.41-6.35,2.79-9.49,4.26-1.57.73-2.97.85-4.7.25-8.76-3.01-17.58-5.84-26.37-8.75-2.78-.92-5.55-1.88-8.62-2.92,1.78-1.03,3.32-1.94,4.88-2.83,4.84-2.77,9.67-5.52,14.51-8.3,5.48-3.14,10.95-6.28,16.42-9.42,5.52-3.17,11.05-6.33,16.57-9.49,5.48-3.13,10.96-6.25,16.44-9.38,5.43-3.11,10.85-6.22,16.27-9.34s10.85-6.22,16.28-9.32c2.22-1.27,4.5-2.45,6.64-3.83,1.01-.65,1.89-.58,2.87-.26,3.78,1.24,7.55,2.51,11.33,3.76,7.45,2.46,14.9,4.91,22.35,7.36,5.99,1.97,11.98,3.94,17.97,5.92Z"/>
  <path class="cls-2" d="M612.32,219.19c6.33,16.38,12.59,32.78,18.94,49.34-44.17,18.66-88.26,37.28-132.52,55.97-14.42-36.08-28.77-72.01-43.23-108.21,45.97-15.49,91.76-30.93,137.79-46.44,6.42,16.48,12.67,32.92,19.01,49.34Z"/>
  <path class="cls-2" d="M571.07,347.45c.15,2.14-.01,4.31.01,6.47.01.87-.42,1.32-1.13,1.72-10.57,6.01-21.14,12.04-31.7,18.08-9.96,5.71-19.9,11.46-29.87,17.17-8.04,4.6-16.1,9.17-24.15,13.76-7.11,4.06-14.21,8.13-21.32,12.19-.23.13-.48.24-.89.45.06-24.18-4.29-47.52-10.79-70.76,4.49-1.14,8.78-2.24,13.06-3.33,6.33-1.62,12.66-3.24,18.99-4.86,4.46-1.14,8.94-2.19,13.37-3.44,2.06-.58,4.04-1.5,6.03-2.34,6.6-2.77,13.19-5.59,19.78-8.38,6.43-2.72,12.88-5.43,19.31-8.15,6.54-2.76,13.09-5.53,19.64-8.29,1.45-.61,2.9-1.21,4.53-1.89.32,1.64.65,3.07.87,4.51.93,6.24,1.97,12.46,2.69,18.73.7,6.1,1.11,12.24,1.55,18.36Z"/>
  <path class="cls-2" d="M565.45,529.01c7.72,14.41,15.41,28.77,23.18,43.27-45.46,22.54-90.75,44.99-136.15,67.5-9.07-13.9-18.07-27.69-27.14-41.61,19.27-14.31,38.42-28.54,57.62-42.8,2.78,2.03,5.42,3.99,8.1,5.9,1.39.98,2.82,1.83,4.58,2.16,2.27.43,4.1-.48,5.98-1.46,7.11-3.7,14.22-7.38,21.33-11.07,7.57-3.93,15.13-7.86,22.7-11.79,6.05-3.14,12.11-6.28,18.17-9.42.49-.26,1.03-.44,1.63-.69Z"/>
  <path class="cls-2" d="M516.6,184.67c.26.35.46.75.8,1.3-2.27.78-4.41,1.52-6.55,2.24-8.77,2.96-17.54,5.92-26.31,8.88-7.26,2.45-14.53,4.9-21.79,7.34-4.47,1.5-9,2.86-13.39,4.55-1.81.7-3.41,2.03-4.99,3.22-5.78,4.32-11.53,8.7-17.27,13.06-5.03,3.82-10.04,7.65-15.07,11.46-1.89,1.44-3.81,2.85-5.85,4.38-13.3-22.74-28.94-43.68-45.97-63.89,1.9-.41,3.6-.79,5.3-1.14,6.4-1.32,12.8-2.63,19.2-3.94,6.01-1.23,12.03-2.44,18.03-3.67,5.62-1.15,11.24-2.34,16.85-3.5,6.01-1.23,12.02-2.44,18.03-3.66,5.51-1.13,11.02-2.27,16.53-3.4,6.18-1.27,12.35-2.51,18.53-3.78,4.62-.95,9.23-1.92,13.85-2.88.11-.02.22-.07.33-.09,2.14-.47,2.17-.49,3.65,1.14,5.71,6.27,11.24,12.68,16.35,19.45,3.25,4.31,6.5,8.62,9.74,12.94Z"/>
  <path class="cls-2" d="M513.68,84.52c.31-.11.64-.17,1.34-.36-.97,2.03-1.77,3.72-2.58,5.4-3.51,7.21-7.01,14.42-10.52,21.62-4.04,8.27-8.1,16.54-12.14,24.82-.77,1.58-1.61,3.14-2.27,4.77-.4.98-1.08,1.4-2.02,1.59-3.01.61-6.01,1.22-9.01,1.83-4.12.84-8.24,1.67-12.36,2.52-6.01,1.23-12.02,2.46-18.02,3.69-5.57,1.14-11.13,2.28-16.7,3.42-6.12,1.26-12.24,2.51-18.36,3.76-5.51,1.13-11.02,2.27-16.53,3.41-5.4,1.12-10.79,2.24-16.18,3.35-4.78.99-9.57,1.96-14.36,2.94-2.37.49-4.75.96-7.42,1.5,1.25-2.1,2.33-3.96,3.45-5.8,3.3-5.45,6.61-10.89,9.9-16.34,2.82-4.67,5.63-9.35,8.44-14.03.49-.82,1.17-1.29,2.1-1.61,6.72-2.31,13.41-4.67,20.12-7.01,6.54-2.28,13.09-4.55,19.64-6.83,7.46-2.6,14.91-5.23,22.37-7.83,5.95-2.07,11.92-4.12,17.87-6.2,7.24-2.53,14.48-5.08,21.72-7.61,6.76-2.36,13.53-4.7,20.29-7.05,3.75-1.31,7.5-2.65,11.25-3.96Z"/>
  <path class="cls-2" d="M511.84,74.54c.28.16.55.37,1.07.72-2.17.79-4.09,1.52-6.03,2.2-6.81,2.38-13.62,4.74-20.44,7.11-6.71,2.33-13.42,4.65-20.12,6.99-5.26,1.83-10.5,3.71-15.76,5.54-5.9,2.05-11.81,4.08-17.7,6.13-4.51,1.57-9,3.17-13.51,4.74-5.25,1.84-10.51,3.66-15.77,5.49-4.5,1.57-9.01,3.15-13.51,4.73-3.75,1.32-7.51,2.63-11.26,3.96-.87.31-1.64.21-2.43-.29-8.42-5.19-16.85-10.36-25.29-15.52-9.12-5.57-18.26-11.11-27.38-16.68-8.1-4.95-16.19-9.92-24.28-14.88-.14-.08-.26-.2-.61-.48,5.88-2,11.57-3.95,17.27-5.89,7.31-2.48,14.64-4.95,21.95-7.43,7.42-2.52,14.84-5.05,22.27-7.57,8.02-2.72,16.04-5.43,24.05-8.15,8.18-2.77,16.35-5.56,24.53-8.33,7.26-2.47,14.53-4.91,21.78-7.4,2.99-1.03,2.95-1.03,5.61.55,5.43,3.22,10.89,6.38,16.33,9.58,6.03,3.55,12.03,7.12,18.06,10.67,6.07,3.58,12.16,7.14,18.23,10.72,5.43,3.2,10.86,6.42,16.29,9.63,2.2,1.3,4.42,2.58,6.63,3.87Z"/>
  <path class="cls-3" d="M502.14,443.55c.58.19,1.15.44,1.78.68-3.95,35.52-7.89,70.94-11.87,106.64-1.97-1.41-3.72-2.64-5.46-3.9-6.44-4.69-12.87-9.37-19.3-14.07-5.01-3.65-10.1-7.2-14.99-11.01-2.87-2.24-6.63-1-7.5,2-.6,2.07-1.06,4.17-1.64,6.25-1.27,4.54-2.39,9.14-3.93,13.59-2.05,5.96-4.3,11.87-6.7,17.7-4.03,9.8-8.79,19.24-14.79,28.01-.96,1.4-1.83,2.89-2.56,4.42-.93,1.96-.9,3.87.41,5.81,3.1,4.56,6.05,9.22,9.07,13.85,3.45,5.29,6.9,10.57,10.34,15.86,2.98,4.57,5.96,9.13,9.07,13.91-24.87,12.44-49.64,24.82-74.61,37.3-.27-1.14-.54-2.09-.73-3.07-1.88-9.83-3.75-19.66-5.63-29.49-.55-2.85-1.09-5.7-1.67-8.54-.39-1.91-1.55-3.12-3.45-3.6-1.62-.41-3.2-.44-4.87,0-7.92,2.11-16.01,3.25-24.15,4.23-7.49.9-14.98,1.06-22.5.85-2.55-.07-5.1-.38-7.64-.61-1.46-.13-2.86.13-4.16.71-1.79.8-2.75,2.64-2.46,4.64.53,3.72,1.11,7.43,1.66,11.15.75,5,1.48,10.01,2.24,15.01.85,5.56,1.72,11.11,2.58,16.66.47,3.09.92,6.19,1.36,9.29.04.27,0,.54,0,1.08-31.3-4.82-62.46-9.62-93.78-14.44.48-2.34.91-4.51,1.36-6.66,1.59-7.57,3.18-15.13,4.78-22.7,1.16-5.51,2.32-11.02,3.48-16.53.81-3.84,1.67-7.67,2.43-11.51.37-1.85-.32-3.42-1.88-4.45-1.46-.96-3-1.85-4.58-2.59-5.79-2.67-11.42-5.63-16.9-8.88-4.6-2.72-9.21-5.43-13.76-8.22-5.29-3.25-10.33-6.86-15.17-10.73-2.93-2.34-5.73-4.84-8.57-7.3-1.53-1.33-5.44-2.1-7.26-1.21-.78.38-1.52,1.03-2.06,1.72-4.87,6.29-9.71,12.62-14.54,18.95-3.8,4.97-7.58,9.95-11.38,14.93-.3.4-.65.76-1.08,1.26-19.95-26.69-39.83-53.29-59.84-80.05,1.24-.95,2.43-1.88,3.64-2.77,9.22-6.76,18.44-13.51,27.67-20.27,1.7-1.24,3.38-2.51,5.08-3.74,2.57-1.86,2.79-4.99.51-7.21-.52-.51-1.01-1.08-1.38-1.7-4.93-8.08-9.02-16.57-12.77-25.25-5.09-11.76-9.22-23.86-13.12-36.05-1.63-5.09-2.78-10.32-3.57-15.62-.27-1.85-1.3-3.12-3.09-3.72-1.75-.58-3.47-.79-5.35-.46-6.82,1.19-13.68,2.18-20.52,3.29-6.11.98-12.2,2.01-18.31,3.01-.67.11-1.35.14-2.22.22-2.85-33.19-5.69-66.33-8.54-99.54,1.41,0,2.76-.09,4.09.02,5.05.41,10.08.87,15.13,1.33,5.66.52,11.32,1.06,16.98,1.58,2.95.27,5.9.52,8.85.74.79.06,1.6.05,2.39-.05,2.48-.31,4.15-2.46,4.02-4.91-.24-4.83-.58-9.66-.53-14.49.07-7.05.29-14.11.75-21.15.55-8.45,1.39-16.89,2.92-25.24,1.45-7.88,3-15.75,4.54-23.61.34-1.72-.12-3.1-1.26-4.38-1.76-1.97-4.13-3-6.33-4.27-6.93-4.03-13.91-7.98-20.87-11.95-6.67-3.8-13.33-7.6-20-11.4-.19-.11-.36-.26-.69-.49,13.67-24.43,27.33-48.82,41.09-73.4.72,1.01,1.36,1.87,1.96,2.75,4.07,5.97,8.13,11.94,12.19,17.92,3.96,5.83,7.92,11.67,11.88,17.51,1.31,1.93,2.6,3.88,3.93,5.79.95,1.35,2.31,1.97,3.97,1.95,2.37-.03,4.8.32,6.4-2.19,1.4-2.2,2.87-4.4,4.57-6.36,3.17-3.65,6.39-7.28,9.85-10.64,4.49-4.36,9.17-8.51,13.89-12.62,2.48-2.16,5.17-4.09,7.84-6.03,1.35-.98,2.02-2.2,2.28-3.82.43-2.63-.41-5.08-.89-7.57-1.21-6.31-2.52-12.6-3.79-18.9-1.11-5.52-2.23-11.03-3.33-16.55-1.32-6.57-2.63-13.16-3.93-19.73-.03-.16.03-.33.07-.72,24.35-5.35,48.74-10.72,73.36-16.13.26,3.86.51,7.48.75,11.11.44,6.58.88,13.17,1.31,19.76.51,7.84,1.02,15.68,1.53,23.51.21,3.16,2.88,5.55,5.88,5,2.94-.54,5.88-.58,8.84-.66,5.76-.15,11.5.06,17.22.78,6.04.76,11.98,2.02,17.88,3.48,5.75,1.42,11.41,3.05,16.93,5.2.95.37,1.97.57,2.97.76,2.3.42,4.43-.92,5.1-3.27.84-2.95,1.62-5.92,2.38-8.89,1.4-5.45,2.77-10.91,4.15-16.37,1.36-5.4,2.72-10.8,4.09-16.2.6-2.36,1.22-4.72,1.9-7.33,26.28,16.06,52.45,32.04,78.74,48.1-1.15,1.93-2.24,3.79-3.35,5.63-3.7,6.14-7.4,12.27-11.11,18.4-2.95,4.86-5.9,9.72-8.87,14.57-.35.57-.83,1.07-1.29,1.57-1.7,1.9-1.61,4.49.11,6.32,3.27,3.48,6.51,6.99,9.72,10.54,7.33,8.12,13.78,16.96,20.24,25.75,5.59,7.6,10.86,15.44,16.05,23.33,3.06,4.65,5.65,9.6,8.5,14.39.48.82,1.06,1.65,1.77,2.26,1.54,1.31,3.72,1.3,5.38.05,4.32-3.25,8.6-6.54,12.91-9.8,5.03-3.81,10.07-7.62,15.1-11.43,3.81-2.89,7.61-5.77,11.42-8.66.18-.14.37-.26.52-.36.11.02.17.02.22.04.05.02.12.04.14.08,14.14,35.3,28.28,70.6,42.49,106.06-2.48.65-4.81,1.27-7.16,1.86-5.45,1.39-10.9,2.76-16.36,4.14-5.4,1.36-10.79,2.74-16.19,4.11-1.65.42-3.31.81-4.95,1.28-2.99.85-4.73,4.35-3.88,7.33,1.48,5.19,2.95,10.4,4.21,15.64,1.33,5.52,2.58,11.08,3.54,16.68,1.05,6.1,1.77,12.26,2.54,18.4.93,7.35,1.16,14.75.97,22.16-.03,1.13-.12,2.27-.23,3.4-.19,1.72.46,3.04,1.65,4.28,2.11,2.19,4.95,2.69,7.62,3.6,6.84,2.31,13.69,4.58,20.54,6.85,6.52,2.17,13.05,4.32,19.57,6.48ZM375.64,398.37c-.09-2.47-.24-7.25-.43-12.02-.39-9.8-1.7-19.5-3.6-29.1-1.62-8.2-3.59-16.32-5.95-24.35-2.8-9.52-6.52-18.67-10.81-27.6-3.32-6.92-6.92-13.71-10.83-20.31-3.48-5.88-7.21-11.59-11.26-17.09-4.19-5.68-8.72-11.08-13.63-16.17-4.27-4.42-8.74-8.64-13.6-12.41-7.95-6.17-16.58-11.16-25.91-14.94-10.68-4.33-21.8-6.79-33.22-7.98-5.77-.59-11.57-1.05-17.37-.44-3.89.41-7.81.82-11.62,1.63-6.3,1.34-12.31,3.6-18.12,6.41-8.61,4.15-16.12,9.78-22.82,16.53-4.93,4.97-9.41,10.34-13.39,16.12-4.01,5.83-7.42,11.99-10.32,18.43-3.18,7.06-5.83,14.31-7.99,21.75-1.93,6.62-3.46,13.32-4.55,20.12-.86,5.33-1.49,10.69-2.15,16.05-.94,7.7-1.24,15.43-1.01,23.18.18,6.08.56,12.16,1.07,18.23.46,5.38,1.05,10.76,1.91,16.1.99,6.11,2.27,12.18,3.53,18.25,1.43,6.91,3.28,13.72,5.57,20.38,2.2,6.4,4.53,12.75,6.97,19.06,3,7.76,6.67,15.21,10.94,22.34,4.71,7.87,9.96,15.36,15.85,22.4,5.45,6.53,11.48,12.46,17.98,17.93,6.54,5.5,13.45,10.49,20.93,14.65,5.52,3.07,11.17,5.87,17.06,8.17,5.83,2.28,11.83,4.02,17.91,5.47,6.2,1.48,12.5,2.4,18.87,2.72,7.86.4,15.69.06,23.46-1.27,4.54-.78,9.05-1.7,13.38-3.29,6.97-2.55,13.68-5.63,19.54-10.28,3.11-2.47,6.25-4.97,9.01-7.82,5.08-5.24,9.44-11.06,12.68-17.67,2.56-5.21,5.11-10.41,6.79-15.99.64-2.11,1.23-4.25,2.38-6.18.41-.68.73-1.42.98-2.17.79-2.37,1.61-4.74,2.28-7.14,1.48-5.25,3.08-10.48,4.27-15.79,2.1-9.44,3.19-19.05,4.07-28.68.75-8.28,1.06-16.57,1.17-27.19Z"/>
  <path class="cls-2" d="M452.03,532.84c7.73,5.64,15.43,11.25,23.35,17.03-13.96,10.36-27.72,20.58-41.48,30.8-.06-.05-.12-.09-.19-.13,2.32-5.11,4.76-10.16,6.92-15.34,2.2-5.24,4.27-10.54,6.15-15.9,1.88-5.35,3.45-10.82,5.23-16.46Z"/>
  <path class="cls-1" d="M375.2,386.34c.19,4.78.35,9.55.43,12.02-.1,10.61-.41,18.91-1.17,27.19-.88,9.64-1.97,19.24-4.07,28.68-1.18,5.32-2.79,10.55-4.27,15.79-.68,2.41-1.49,4.77-2.28,7.14-.25.75-.57,1.49-.98,2.17-1.15,1.93-1.74,4.07-2.38,6.18-1.68,5.58-4.23,10.78-6.79,15.99-3.24,6.61-7.6,12.42-12.68,17.67-2.76,2.85-5.9,5.35-9.01,7.82-5.85,4.65-12.57,7.73-19.54,10.28-4.33,1.59-8.85,2.51-13.38,3.29-7.77,1.33-15.6,1.67-23.46,1.27-6.37-.32-12.67-1.24-18.87-2.72-6.08-1.45-12.07-3.19-17.91-5.47-5.89-2.3-11.54-5.1-17.06-8.17-7.49-4.16-14.39-9.15-20.93-14.65-6.5-5.47-12.53-11.4-17.98-17.93-5.89-7.05-11.13-14.54-15.85-22.4-4.27-7.13-7.95-14.58-10.94-22.34-2.44-6.31-4.77-12.66-6.97-19.06-2.29-6.67-4.14-13.48-5.57-20.38-1.26-6.07-2.55-12.14-3.53-18.25-.86-5.33-1.45-10.71-1.91-16.1-.51-6.06-.89-12.14-1.07-18.23-.23-7.74.06-15.48,1.01-23.18.66-5.36,1.29-10.72,2.15-16.05,1.09-6.8,2.61-13.51,4.55-20.12,2.17-7.43,4.81-14.69,7.99-21.75,2.9-6.44,6.31-12.6,10.32-18.43,3.98-5.78,8.46-11.15,13.39-16.12,6.7-6.75,14.21-12.39,22.82-16.53,5.82-2.8,11.82-5.07,18.12-6.41,3.82-.81,7.73-1.22,11.62-1.63,5.8-.61,11.6-.15,17.37.44,11.42,1.19,22.54,3.65,33.22,7.98,9.34,3.79,17.97,8.78,25.91,14.94,4.86,3.77,9.33,7.99,13.6,12.41,4.91,5.08,9.44,10.48,13.63,16.17,4.06,5.5,7.78,11.21,11.26,17.09,3.92,6.61,7.51,13.39,10.83,20.31,4.29,8.93,8.01,18.08,10.81,27.6,2.36,8.03,4.33,16.15,5.95,24.35,1.9,9.61,3.21,19.3,3.6,29.1ZM367,401.57c.09-8.08-.1-16.17-1.12-24.2-.75-5.92-1.47-11.85-2.6-17.7-1.26-6.53-2.91-12.98-4.51-19.43-2.6-10.47-6.53-20.47-11.16-30.19-3.84-8.06-8.03-15.95-12.71-23.56-3.46-5.62-7.16-11.08-11.19-16.31-4.04-5.23-8.4-10.18-13.09-14.84-4.65-4.62-9.59-8.89-14.98-12.63s-11.11-6.9-17.12-9.52c-2.55-1.11-5.18-2.05-7.79-3.01-1.34-.49-1.49-.4-2.41.8-.56.72-1.1,1.45-1.67,2.17-5.76,7.33-9.83,15.54-12.65,24.39-1.78,5.59-3.19,11.26-4.31,17.02-1.55,7.95-2.46,15.97-2.72,24.06-.27,8.04.18,16.04,1.2,24.01.82,6.33,1.93,12.61,3.71,18.74,1.88,6.43,3.92,12.83,6.09,19.17,2.15,6.31,4.9,12.36,8.04,18.24,3.44,6.43,7.29,12.6,11.46,18.58,4.2,6.02,8.77,11.76,13.65,17.24,4.29,4.81,9,9.16,13.82,13.42,6.51,5.75,13.6,10.65,21.06,15.06,5.29,3.14,10.85,5.74,16.46,8.24,4.26,1.9,8.63,3.52,13.2,4.53,1.71.37,3.44.64,5.39,1.01.45-2.05.86-3.81,1.22-5.59,2.01-10.06,3.26-20.21,3.94-30.43.43-6.41.7-12.84.77-19.27ZM357.11,465c-.5-.17-.7-.28-.92-.31-3.44-.52-6.77-1.49-10.03-2.66-6.92-2.47-13.57-5.57-20.03-9.05-8.12-4.38-15.86-9.36-22.99-15.26-6.45-5.34-12.68-10.92-18.24-17.19-7.5-8.43-14.27-17.41-20.24-27.01-5.45-8.77-10.21-17.86-13.83-27.55-3.57-9.55-6.67-19.22-8.88-29.18-2-9.03-3.11-18.17-3.52-27.39-.36-8.09-.05-16.17.92-24.21,1.27-10.47,3.39-20.76,6.68-30.8,2.82-8.61,6.65-16.67,11.99-24,.69-.94,1.34-1.92,2.09-2.98-.56-.18-.92-.35-1.31-.41-5.01-.74-10-1.56-15.03-2.16-6.18-.73-12.37-.75-18.55.06-7.23.94-14.08,3.08-20.69,6.1-7.63,3.49-14.39,8.24-20.42,14.08-6.66,6.45-12.48,13.57-17.25,21.51-6.84,11.4-11.54,23.71-14.92,36.53-2.64,9.97-4.28,20.14-5.34,30.39-.74,7.14-1.06,14.3-.99,21.49.1,10.15,1,20.23,2.35,30.28,1.72,12.72,4.42,25.22,8.16,37.49,3.18,10.46,7.01,20.68,11.61,30.61,4.57,9.85,10.27,19.01,16.75,27.69,5.19,6.95,10.95,13.38,17.39,19.21,5.83,5.28,11.94,10.21,18.6,14.4,10.31,6.48,21.23,11.61,33.05,14.75,4.94,1.32,9.92,2.53,15,3.16,7.13.87,14.29,1.12,21.47.45,8.13-.76,16.06-2.26,23.66-5.43,7.9-3.29,14.78-8.02,20.82-14.01,7.79-7.73,12.91-17.15,16.62-27.34,1.84-5.07,3.15-10.33,4.64-15.52.53-1.84.91-3.73,1.39-5.72Z"/>
  <path class="cls-2" d="M357.12,664.37c.33,1.75.3,1.72-1.22,2.74-5.96,3.97-11.91,7.96-17.87,11.94-5.25,3.5-10.5,6.99-15.75,10.49-3.97,2.65-7.93,5.31-11.9,7.97-.32.22-.67.4-1.22.72-2.44-16.29-4.85-32.3-7.28-48.55,17.44,1.24,34.41-.8,51.43-4.49.27,1.17.57,2.3.79,3.44,1.02,5.24,2.03,10.49,3.02,15.74Z"/>
  <path class="cls-2" d="M356.19,464.69c.22.03.42.14.92.31-.48,1.99-.86,3.88-1.39,5.72-1.49,5.19-2.8,10.45-4.64,15.52-3.71,10.2-8.83,19.61-16.62,27.34-6.04,5.99-12.91,10.73-20.82,14.01-7.6,3.17-15.53,4.67-23.66,5.43-7.18.67-14.34.42-21.47-.45-5.08-.63-10.05-1.84-15-3.16-11.81-3.14-22.74-8.27-33.05-14.75-6.67-4.18-12.77-9.12-18.6-14.4-6.44-5.82-12.2-12.25-17.39-19.21-6.48-8.69-12.18-17.84-16.75-27.69-4.6-9.93-8.43-20.15-11.61-30.61-3.73-12.27-6.44-24.77-8.16-37.49-1.36-10.05-2.25-20.13-2.35-30.28-.07-7.18.24-14.35.99-21.49,1.06-10.26,2.7-20.42,5.34-30.39,3.39-12.82,8.08-25.13,14.92-36.53,4.77-7.94,10.59-15.06,17.25-21.51,6.03-5.83,12.78-10.59,20.42-14.08,6.6-3.02,13.46-5.16,20.69-6.1,6.19-.81,12.38-.79,18.55-.06,5.02.59,10.02,1.42,15.03,2.16.38.06.75.23,1.31.41-.74,1.06-1.4,2.03-2.09,2.98-5.34,7.33-9.17,15.4-11.99,24-3.29,10.05-5.41,20.33-6.68,30.8-.97,8.04-1.28,16.12-.92,24.21.41,9.22,1.52,18.36,3.52,27.39,2.21,9.96,5.31,19.64,8.88,29.18,3.62,9.69,8.38,18.78,13.83,27.55,5.97,9.6,12.74,18.58,20.24,27.01,5.57,6.26,11.79,11.85,18.24,17.19,7.13,5.9,14.87,10.89,22.99,15.26,6.46,3.48,13.11,6.57,20.03,9.05,3.26,1.17,6.59,2.14,10.03,2.66Z"/>
  <path class="cls-2" d="M352.26,43.08c.1,1.06.35,2.11.57,3.37-.66.26-1.53.62-2.41.92-6.24,2.13-12.48,4.25-18.72,6.36-7.32,2.47-14.65,4.92-21.97,7.39-6.4,2.16-12.81,4.34-19.2,6.52-.42.14-.96.32-1.18.65-1.07,1.67-3.23,1.84-4.42,3.32-1.01,1.26-1.07,2.86-1.46,4.33-1.37,5.22-2.67,10.46-4.01,15.77-22.29,6.29-44.42,12.53-66.71,18.82-1.09-16.47-2.16-32.69-3.24-49.08,46.71-16.92,93.31-33.8,140.14-50.76.18,2.14.34,3.99.49,5.84.54,6.52,1.07,13.04,1.6,19.56.19,2.33.31,4.66.52,6.98Z"/>
  <path class="cls-2" d="M317.16,12.63c.02.08.05.16.08.24-.98.38-1.96.78-2.95,1.14-10.1,3.65-20.21,7.27-30.3,10.93-10.09,3.66-20.17,7.37-30.26,11.03-9.4,3.41-18.82,6.76-28.23,10.16-6.57,2.38-13.1,4.87-19.71,7.14-2.46.84-5.08,1.19-7.63,1.76-6.32,1.41-12.65,2.81-18.97,4.21-3.44.76-6.88,1.49-10.41,1.99,1.18-.54,2.34-1.1,3.53-1.61,6.57-2.83,13.15-5.66,19.73-8.49,6.42-2.76,12.85-5.51,19.27-8.27,6.53-2.81,13.04-5.64,19.57-8.44,6.42-2.76,12.85-5.49,19.28-8.25,6.37-2.74,12.72-5.52,19.12-8.19,1.18-.49,2.51-.71,3.79-.84,6.17-.64,12.34-1.2,18.51-1.82,6.68-.66,13.35-1.35,20.02-2.04,1.86-.19,3.72-.42,5.57-.63Z"/>
  <path class="cls-2" d="M276,101.98c.2-.06.43-.02.85-.05-1.74,6.86-3.44,13.6-5.19,20.48-12.1-3.96-24.27-7.06-36.81-8.4-.02-.12-.04-.17-.03-.23,0-.05.03-.12.06-.13,13.71-3.89,27.41-7.79,41.11-11.67Z"/>
  <path class="cls-2" d="M153.28,593.44c3.56,2.87,6.96,5.61,10.35,8.34-1.21,1.18-24.53,12.69-27.14,13.58,5.74-7.49,11.26-14.71,16.79-21.92Z"/>
  <path class="cls-2" d="M124.92,114.69c1.77,8.81,3.5,17.42,5.23,26.1-12.81,9.88-24.68,20.65-34.8,33.59-9.43-13.86-18.79-27.61-28.31-41.59,6.47-2.13,12.84-4.05,19.2-6.02,6.46-2,12.9-4.03,19.35-6.04,6.38-1.99,12.76-3.99,19.32-6.04Z"/>
  <path class="cls-2" d="M51.3,307.02v17.85c-1.11.24-27.69-1.99-29.93-2.85,9.88-4.95,19.75-9.9,29.93-15Z"/>
</svg>