<svg width="1149" height="426" viewBox="0 0 1149 426" fill="none" xmlns="http://www.w3.org/2000/svg">
<g opacity="0.5">
<path d="M212.873 2.94846e-05C95.3064 1.92099e-05 1.0278e-05 95.2763 0 212.806C-1.0278e-05 330.335 95.3064 425.611 212.873 425.611C266.722 425.611 315.901 405.623 353.391 372.663C374.902 353.752 411.854 353.752 433.365 372.663C470.855 405.623 520.034 425.611 573.883 425.611C691.45 425.611 786.756 330.335 786.756 212.806C786.756 95.2763 691.45 1.02747e-05 573.883 0C520.034 -4.70614e-06 470.855 19.9882 433.365 52.9478C411.854 71.8595 374.902 71.8595 353.391 52.9478C315.901 19.9883 266.722 3.41908e-05 212.873 2.94846e-05Z" fill="#F3E5BF" fill-opacity="0.5"/>
<path d="M574.182 2.94846e-05C456.616 1.92099e-05 361.309 95.2763 361.309 212.806C361.309 330.335 456.616 425.611 574.182 425.611C628.031 425.611 677.21 405.623 714.7 372.663C736.212 353.752 773.163 353.752 794.675 372.663C832.165 405.623 881.344 425.611 935.193 425.611C1052.76 425.611 1148.07 330.335 1148.07 212.806C1148.07 95.2763 1052.76 1.02747e-05 935.193 0C881.344 -4.70615e-06 832.165 19.9882 794.675 52.9478C773.163 71.8595 736.212 71.8595 714.7 52.9478C677.21 19.9882 628.031 3.41907e-05 574.182 2.94846e-05Z" fill="#F3E5BF" fill-opacity="0.5"/>
</g>
</svg>
