<svg width="24" height="28" viewBox="0 0 24 28" fill="none" xmlns="http://www.w3.org/2000/svg">
  <path fillRule="evenodd" clipRule="evenodd"
    d="M23.498 16.502C23.498 16.416 22.6912 15.9815 22.1938 15.8422C21.7793 15.7262 21.197 15.589 20.5208 15.5042C19.1946 15.338 17.3716 15.3561 15.7645 16.2839C14.1575 17.2117 13.2303 18.7815 12.7112 20.0131C12.2848 21.0249 12.0586 22.0609 11.8887 23.1404C12.908 23.5339 13.9191 23.8552 15.0083 23.9918C16.3345 24.1581 18.1575 24.1399 19.7645 23.2121C21.3495 22.297 22.2759 20.7253 22.7987 19.4963C23.0659 18.8682 23.2426 18.2942 23.353 17.8764C23.5102 17.2815 23.498 17.002 23.498 16.502Z"
    fill="#AFB244" />
  <path fillRule="evenodd" clipRule="evenodd"
    d="M1 16.5C1 16.414 1.80687 15.9796 2.30427 15.8403C2.71877 15.7243 3.30107 15.5871 3.97727 15.5023C5.30347 15.3361 7.12647 15.3542 8.73357 16.282C10.3406 17.2098 11.2678 18.7796 11.7869 20.0112C12.2133 21.023 12.4395 22.059 12.6094 23.1385C11.5901 23.532 10.579 23.8533 9.48977 23.9899C8.16357 24.1562 6.34057 24.138 4.73357 23.2102C3.14857 22.2951 2.22217 20.7234 1.69937 19.4944C1.43217 18.8663 1.25547 18.2923 1.14507 17.8745C0.98786 17.2795 1 17 1 16.5Z"
    fill="#AFB244" />
  <path fillRule="evenodd" clipRule="evenodd"
    d="M5.50195 8.5C5.50195 4.91015 8.4121 2 12.002 2C15.5919 2 18.502 4.91015 18.502 8.5C18.502 12.0899 15.5919 15 12.002 15C8.4121 15 5.50195 12.0899 5.50195 8.5ZM13.002 7C13.002 7 13.002 6 12.002 6C11.002 6 11.002 7 11.002 7V10C11.002 10 11.002 11 12.002 11C13.002 11 13.002 10 13.002 10V7Z"
    fill="#AFB244" />
</svg>
