<svg width="71" height="62" viewBox="0 0 71 62" fill="none" xmlns="http://www.w3.org/2000/svg">
<path d="M7.58887 24.0589C7.58887 15.7708 12.8733 9.70914 19.9421 7.58789" stroke="#ACA9A7" stroke-width="1.75392" stroke-linecap="round"/>
<path d="M1.00098 24.0594C1.00098 12.456 9.10378 3.96975 19.9426 1" stroke="#ACA9A7" stroke-width="1.75392" stroke-linecap="round"/>
<path d="M63.4111 24.0589C63.4111 15.7708 58.1267 9.70914 51.0579 7.58789" stroke="#ACA9A7" stroke-width="1.75392" stroke-linecap="round"/>
<path d="M69.999 24.0594C69.999 12.456 61.8962 3.96975 51.0574 1" stroke="#ACA9A7" stroke-width="1.75392" stroke-linecap="round"/>
<path fill-rule="evenodd" clip-rule="evenodd" d="M35.6865 10.8828C31.3211 10.8828 27.1345 12.617 24.0478 15.7037C20.961 18.7905 19.2268 22.9771 19.2268 27.3425C19.2268 30.4485 18.6809 32.8128 17.9167 34.6048C17.7058 35.1055 17.2767 35.5385 16.4484 36.0731C16.1072 36.2829 15.762 36.4862 15.4131 36.683L15.063 36.8863C14.5095 37.1985 13.9741 37.5417 13.4592 37.9141C11.509 39.356 10.7937 41.5772 10.8916 43.5801C10.9857 45.5265 11.8591 47.5595 13.4893 48.7868C13.5931 48.8696 13.7025 48.9451 13.8168 49.0127C14.0888 49.1897 14.3731 49.347 14.6677 49.4833C15.4056 49.8372 16.5237 50.2664 18.1614 50.6805C21.4368 51.5088 26.8618 52.2956 35.6865 52.2956C44.5112 52.2956 49.9363 51.5088 53.2117 50.6805C54.8493 50.2664 55.9675 49.8372 56.7054 49.4833C57.09 49.3004 57.4589 49.0864 57.8085 48.8433C57.8339 48.8249 57.859 48.806 57.8838 48.7868C59.5139 47.5595 60.3874 45.5265 60.4815 43.5801C60.5794 41.5772 59.8641 39.356 57.9139 37.9141C57.3989 37.5417 56.8635 37.1986 56.3101 36.8863L55.96 36.683C55.6113 36.4866 55.2673 36.282 54.9284 36.0693C54.1001 35.5422 53.6672 35.1055 53.4526 34.6048C53.2882 34.215 53.1412 33.818 53.0121 33.4151C52.4775 31.3445 52.1462 29.3868 52.1462 27.3425C52.1467 25.1809 51.7213 23.0403 50.8943 21.0431C50.0673 19.0459 48.8549 17.2312 47.3264 15.7026C45.7979 14.1741 43.9832 12.9617 41.986 12.1347C39.9888 11.3077 37.8482 10.8823 35.6865 10.8828Z" fill="#ACA9A7"/>
<path fill-rule="evenodd" clip-rule="evenodd" d="M29.2715 55.6288C29.5157 55.3409 29.8409 55.1331 30.2048 55.0324C30.5687 54.9317 30.9545 54.9427 31.312 55.0641C32.2682 55.3878 33.6763 55.6363 35.6867 55.6363C37.6971 55.6363 39.1051 55.3878 40.0614 55.0641C40.4191 54.9429 40.8051 54.9321 41.169 55.0332C41.533 55.1342 41.8581 55.3424 42.1022 55.6307C42.3462 55.919 42.4979 56.2741 42.5374 56.6497C42.577 57.0254 42.5026 57.4042 42.324 57.7371C41.6807 58.938 40.7237 59.9419 39.5548 60.6418C38.3859 61.3417 37.0491 61.7113 35.6867 61.7113C34.3243 61.7113 32.9874 61.3417 31.8186 60.6418C30.6497 59.9419 29.6926 58.938 29.0493 57.7371C28.8703 57.404 28.7958 57.0247 28.8354 56.6487C28.875 56.2726 29.027 55.9172 29.2715 55.6288Z" fill="#ACA9A7"/>
</svg>
