<svg width="24" height="28" viewBox="0 0 24 28" fill="none" xmlns="http://www.w3.org/2000/svg">
<path d="M1.9538 21.6331C2.03697 23.1976 3.23604 24.6663 4.80273 24.6782C4.81704 24.6783 4.83137 24.6783 4.84569 24.6783C4.86003 24.6783 4.87434 24.6783 4.88867 24.6782C6.45536 24.6663 7.65442 23.1976 7.7376 21.6331C7.76318 21.1518 7.78026 20.6635 7.78026 20.1694C7.78026 19.2084 7.71566 18.2695 7.64952 17.3612C7.59263 16.5799 6.99846 15.9306 6.21748 15.8694C5.2833 15.7961 4.4081 15.7961 3.47391 15.8694C2.69294 15.9306 2.09877 16.5799 2.04187 17.3612C1.97573 18.2695 1.91113 19.2084 1.91113 20.1694C1.91113 20.6635 1.92821 21.1518 1.9538 21.6331Z" fill="#B81941" stroke="#B81941" stroke-linecap="round" stroke-linejoin="round"/>
<path d="M2.80271 6.9019C2.82893 8.02968 3.71662 8.975 4.84472 8.975C5.97282 8.975 6.86049 8.02968 6.88672 6.9019C6.90287 6.20695 6.8967 5.5201 6.86816 4.81895C6.83596 4.02735 6.21514 3.37854 5.42397 3.33711C5.02165 3.31604 4.66778 3.31601 4.26546 3.33703C3.47428 3.37837 2.85346 4.0272 2.82126 4.8188C2.79274 5.52001 2.78655 6.20688 2.80271 6.9019Z" fill="#B81941" stroke="#B81941" stroke-linecap="round" stroke-linejoin="round"/>
<path d="M4.8457 15.5965V9.01855V15.5965Z" fill="#B81941"/>
<path d="M4.8457 15.5965V9.01855" stroke="#B81941" stroke-width="2" stroke-linecap="round" stroke-linejoin="round"/>
<path d="M13.5963 3.55101C13.5963 6.83642 14.4959 7.64888 16.0951 7.64888C17.6944 7.64888 18.594 6.83642 18.594 3.55101C18.594 3.42154 18.7154 3.32533 18.8398 3.36102C21.1345 4.0191 22.3865 5.649 22.3865 8.07877C22.3865 10.3594 21.2835 11.9354 19.2505 12.6644C19.1756 12.6913 19.1278 12.7654 19.1324 12.8449C19.1938 13.9246 19.249 16.2679 19.249 17.4017C19.249 18.5355 19.194 20.906 19.1324 21.9856C19.0591 23.272 18.1307 24.4609 16.8502 24.6045C16.3543 24.66 15.8359 24.66 15.3401 24.6045C14.0596 24.4609 13.1312 23.272 13.0579 21.9856C12.9964 20.906 12.9412 18.5355 12.9412 17.4017C12.9412 16.2679 12.9964 13.9246 13.0579 12.8449C13.0625 12.7654 13.0147 12.6913 12.9398 12.6644C10.9068 11.9354 9.80371 10.3594 9.80371 8.07877C9.80371 5.649 11.0557 4.0191 13.3504 3.36102C13.4749 3.32533 13.5963 3.42154 13.5963 3.55101Z" fill="#B81941" stroke="#B81941" stroke-width="1.5" stroke-linecap="round" stroke-linejoin="round"/>
</svg>
