<?xml version="1.0" encoding="UTF-8"?>
<svg id="Livello_1" data-name="Livello 1" xmlns="http://www.w3.org/2000/svg" viewBox="0 0 690.44 739.61">
  <defs>
    <style>
      .cls-1, .cls-2, .cls-3 {
        stroke-width: 0px;
      }

      .cls-2 {
        fill: #f96a69;
      }

      .cls-3 {
        fill: #ffc2c2;
      }
    </style>
  </defs>
  <path class="cls-1" d="M689.65,91.63c.92,6.8.91,13.63.59,20.44-.2,4.35-.91,8.68-1.67,12.98-1.05,6.01-2.72,11.88-4.78,17.63-1.8,5.02-3.9,9.91-6.48,14.57-2.95,5.33-5.97,10.64-9.2,15.79-3.56,5.68-7.49,11.11-11.88,16.18-2.47,2.84-5.05,5.59-7.62,8.35-.58.63-.75,1.13-.51,2.04,1.88,7.04,3.89,14.06,5.41,21.19,1.24,5.78,1.95,11.68,2.74,17.55,1.24,9.16,1.3,18.39.93,27.6-.28,6.87-.97,13.71-1.95,20.53-1.51,10.62-3.85,21.04-6.84,31.32-2.53,8.73-5.57,17.28-8.9,25.74-4.2,10.69-8.93,21.15-14.19,31.35-5.4,10.46-10.96,20.84-16.76,31.08-4.8,8.47-10.05,16.7-15.11,25.02-4.62,7.62-9.27,15.22-13.87,22.84-3.84,6.35-7.67,12.69-11.43,19.07-4.13,7-8.21,14.04-12.24,21.1-4.02,7.07-8.08,14.11-11.89,21.3-3.81,7.18-7.46,14.44-10.93,21.79-2.68,5.67-5.07,11.48-7.42,17.3-2.5,6.15-4.4,12.51-6.19,18.9-1.93,6.88-3.16,13.89-4.13,20.94-.75,5.4-1.01,10.83-.93,16.29.02,1.22-.18,2.46-.31,4,1.79,2.25,3.87,4.72,5.77,7.33,3.52,4.83,7.04,9.67,10.35,14.64,2.45,3.68,4.68,7.51,6.84,11.36,2.61,4.64,4.84,9.48,6.62,14.5,1.19,3.38,2.3,6.79,3.27,10.24,1.06,3.74,1.53,7.6,1.82,11.5.27,3.59.23,7.16-.18,10.74-.54,4.8-1.91,9.37-3.8,13.78-1.48,3.47-3.23,6.79-5.42,9.88-2.3,3.25-5.01,6.1-8.02,8.66-3.56,3.02-7.43,5.6-11.69,7.59-5.21,2.43-10.66,3.87-16.36,4.44-4.77.48-9.56.6-14.32.19-3.45-.3-6.89-.86-10.3-1.48-5.11-.93-10.22-1.91-15.29-3.04-5.89-1.31-11.77-2.66-17.6-4.23-5.53-1.48-11.04-3.09-16.47-4.94-5.65-1.92-11.23-4.09-16.76-6.34-5.47-2.23-10.88-4.64-16.26-7.08-6.09-2.77-12.14-5.62-18.18-8.51-5.99-2.86-11.95-5.76-17.88-8.72-7.43-3.71-14.86-7.44-22.24-11.26-5.2-2.69-10.35-5.48-15.44-8.37-4.37-2.48-8.65-5.11-12.91-7.76-4.97-3.1-9.91-6.24-14.81-9.46-8.04-5.29-16.03-10.66-24.04-15.99-.15-.1-.33-.19-.42-.33-.86-1.4-2.17-1.4-3.6-1.29-5.61.43-11.25.36-16.84-.18-5.29-.51-10.55-1.4-15.8-2.25-6.81-1.11-13.37-3.19-19.78-5.68-5.7-2.21-11.12-4.98-16.37-8.1-5.32-3.16-10.23-6.86-14.76-11.04-5.73-5.29-10.91-11.04-15.37-17.47-3.49-5.03-6.68-10.21-9.21-15.77-1.48-3.26-2.69-6.65-3.93-10.01-.46-1.25-.99-2.29-2.08-3.2-7.7-6.54-15.41-13.09-22.95-19.82-8.75-7.8-17.43-15.69-25.97-23.72-6.54-6.15-12.85-12.53-19.19-18.88-4.65-4.66-9.27-9.35-13.74-14.18-4.5-4.87-8.9-9.86-13.17-14.94-4.39-5.22-8.67-10.53-12.79-15.96-4.52-5.95-8.89-12.01-13.14-18.16-3.34-4.81-6.52-9.73-9.54-14.75-3.05-5.07-5.96-10.24-8.63-15.51-2.4-4.74-4.57-9.61-6.5-14.56-3.24-8.32-5.71-16.87-6.64-25.8-.81-7.75-.4-15.44,1.6-22.97,2.33-8.82,6.52-16.63,12.95-23.22,4.32-4.43,8.93-8.49,14.04-11.96,6.75-4.58,14.09-7.78,22.16-9.26,7.96-1.46,15.94-1.4,23.94-.73,5.84.49,11.62,1.4,17.34,2.69.53.12,1.13-.09,1.7-.17.99-.13,1.98-.38,2.97-.4,2.45-.05,4.92.21,7.34-.04,5.11-.53,10.2-1.24,15.27-2.02,5.38-.83,10.68-2.09,15.82-3.89,6.99-2.46,13.97-4.93,20.85-7.66,7.34-2.92,14.31-6.62,21.01-10.83,8.78-5.51,17.07-11.71,24.81-18.59,6.57-5.84,12.92-11.93,19.23-18.06,4.72-4.58,9.31-9.3,13.81-14.1,4.5-4.8,8.86-9.73,13.22-14.66s8.67-9.9,12.93-14.91c4.23-4.97,8.38-9.99,12.53-15.02,4.26-5.17,8.44-10.4,12.71-15.56,4.19-5.07,8.36-10.15,12.72-15.08,4.47-5.06,9.04-10.06,13.79-14.86,4.71-4.76,9.61-9.33,14.57-13.83,5.1-4.61,10.44-8.96,16.11-12.86,4.92-3.38,9.82-6.83,14.95-9.89,5.12-3.06,10.42-5.84,15.79-8.44,5.26-2.54,10.67-4.82,16.1-6.99,6.38-2.55,12.95-4.56,19.59-6.35,6.42-1.73,12.89-3.17,19.45-4.18,5.08-.78,10.2-1.38,15.31-1.93,3.56-.38,7.15-.53,10.98-.8.96-1.96,1.93-3.95,2.92-5.92,2.08-4.19,4.71-8.04,7.39-11.86,3.51-5,7.38-9.72,11.48-14.23,3.99-4.39,8.23-8.52,12.73-12.38,3.99-3.43,8.15-6.65,12.55-9.54,4.45-2.93,9.07-5.55,13.87-7.85,4.75-2.28,9.62-4.26,14.6-5.94,5.1-1.72,10.28-3.2,15.6-4.01,5.25-.8,10.51-1.65,15.8-2.04,5.05-.36,10.15-.29,15.23-.19,3.64.08,7.31.33,10.9.85,5.13.75,10.24,1.72,15.32,2.82,5.15,1.11,10.13,2.79,15.04,4.69,4.91,1.91,9.73,4.05,14.27,6.7,4.54,2.64,8.98,5.47,13.35,8.38,5.08,3.4,9.65,7.46,13.98,11.77,3.77,3.76,7.28,7.76,10.5,12.01,3.21,4.26,6.03,8.77,8.41,13.53,2.37,4.77,4.4,9.69,6.05,14.75,1.7,5.24,2.95,10.57,3.69,16.05ZM681.09,106.73c.06-6.36-.32-12.69-1.58-18.93-1.22-6-3.18-11.77-5.53-17.41-3.3-7.91-7.75-15.1-13.29-21.62-5.65-6.63-11.93-12.58-19.04-17.64-6.4-4.56-13.18-8.47-20.33-11.71-7.16-3.25-14.6-5.64-22.27-7.32-7.73-1.69-15.57-2.67-23.48-2.75-4.77-.04-9.56.12-14.32.54s-9.52,1.03-14.19,1.95c-9.24,1.83-18.05,5.03-26.55,9.12-10.06,4.84-19.02,11.24-27.2,18.78-6.4,5.9-12.21,12.32-17.42,19.29-3.11,4.17-6.05,8.47-8.5,13.08-.27.5-.46,1.04-.77,1.78,9.14.23,17.95.83,26.72,2.04,8.81,1.21,17.49,3.09,26.09,5.3.19-.33.32-.53.43-.74,3-5.82,6.53-11.25,11.22-15.9,4.59-4.53,9.72-8.3,15.32-11.46,4.76-2.67,9.76-4.77,15-6.31,3.68-1.08,7.44-1.79,11.25-2.09,3.63-.3,7.27-.35,10.92-.1,5.52.39,10.88,1.48,16.12,3.23,4.37,1.46,8.55,3.37,12.54,5.7,4.68,2.72,9.01,5.91,12.78,9.78,5.17,5.31,9.43,11.27,12.21,18.2,2.07,5.14,3.38,10.47,3.9,15.97.52,5.37.44,10.74-.26,16.1-.59,4.53-1.59,8.95-3.09,13.24-2.24,6.41-5.53,12.31-9.11,18.05-1.23,1.97-2.5,3.92-3.79,5.94,8.35,11.5,14.69,23.97,19.57,37.49.54-.49.88-.75,1.16-1.06,4.13-4.73,8.15-9.57,11.63-14.81,2.78-4.18,5.47-8.43,8.04-12.74,3.16-5.29,6.03-10.75,8.3-16.49,4.63-11.73,7.42-23.86,7.56-36.52ZM647.64,267.99c.64-11.09.29-22.14-1.22-33.14-1.28-9.37-3.34-18.59-5.91-27.7-2.71-9.57-5.93-18.94-10.04-28-4.55-10.03-10.31-19.3-17.15-27.9-4.92-6.2-10.32-11.95-16.11-17.34-7.55-7.04-15.71-13.29-24.39-18.84-7.36-4.71-15.04-8.85-22.96-12.55-8.09-3.77-16.34-7.07-24.84-9.78-7.41-2.35-14.93-4.24-22.56-5.75-8.77-1.73-17.61-2.77-26.52-3.35-7.59-.49-15.19-.48-22.78-.04-6.57.38-13.11,1.03-19.61,2.03-7.87,1.21-15.63,2.87-23.29,5.02-6.92,1.94-13.69,4.27-20.33,6.98-6.04,2.46-11.95,5.21-17.71,8.26-6.4,3.39-12.6,7.12-18.57,11.21-5.93,4.06-11.67,8.37-17.07,13.11-4.86,4.26-9.67,8.59-14.21,13.18-5.76,5.82-11.36,11.82-16.78,17.96-5.27,5.96-10.25,12.17-15.32,18.3-4.73,5.71-9.39,11.49-14.13,17.19-4.28,5.15-8.59,10.28-12.97,15.35-4.85,5.61-9.72,11.22-14.73,16.68-5.58,6.08-11.21,12.13-17.03,17.98-5.9,5.94-11.95,11.75-18.13,17.39-4.86,4.43-9.92,8.65-15.07,12.74-5.99,4.76-12.32,9.07-18.9,13-5.87,3.49-11.94,6.58-18.22,9.22-7.66,3.22-15.45,6.1-23.37,8.6-5.89,1.85-11.86,3.29-17.96,4.19-1.1.17-2.19.38-3.28.56.94.72,1.91,1.15,2.88,1.58,5.42,2.38,10.86,4.7,16.24,7.16,5.32,2.44,10.63,4.93,15.86,7.56,5.34,2.69,10.61,5.52,15.84,8.4,5.76,3.17,11.48,6.42,17.15,9.75,5.72,3.36,11.39,6.82,17.02,10.32,6.34,3.95,12.66,7.94,18.93,12.01,6.16,4,12.26,8.12,18.38,12.2,5.52,3.69,11.06,7.34,16.53,11.11,5.51,3.8,10.96,7.7,16.39,11.61,5.39,3.88,10.75,7.8,16.07,11.77,5.9,4.39,11.74,8.86,17.62,13.29,6.55,4.92,13.14,9.78,19.67,14.74,6.52,4.96,12.98,10,19.45,15.02,5.86,4.54,11.73,9.07,17.55,13.66,6.43,5.08,12.84,10.19,19.2,15.35,8.17,6.63,16.33,13.29,24.42,20.01,7.04,5.84,14.05,11.73,20.97,17.72,6.19,5.37,12.27,10.87,18.34,16.38,4.95,4.5,9.88,9.06,14.72,13.69,4.84,4.63,9.62,9.33,14.33,14.1,4.16,4.21,8.21,8.54,12.24,12.88,4.56,4.91,9.06,9.88,13.56,14.84,1.67,1.85,3.31,3.73,5.16,5.82.19-2.04.36-3.69.49-5.36.53-6.93,1.64-13.79,3.23-20.54,1.2-5.12,2.55-10.22,4.17-15.22,1.84-5.68,3.9-11.3,6.15-16.84,2.22-5.48,4.69-10.87,7.26-16.2,2.88-5.97,5.94-11.87,9.03-17.73,2.71-5.13,5.55-10.19,8.39-15.24,3.29-5.83,6.62-11.64,9.98-17.43,3.37-5.79,6.78-11.55,10.2-17.31,3.39-5.71,6.81-11.4,10.25-17.07,3.38-5.57,6.81-11.11,10.21-16.67,3.9-6.38,7.86-12.72,11.67-19.15,3.36-5.65,6.63-11.37,9.81-17.12,3.15-5.7,6.21-11.46,9.19-17.25,2.64-5.16,5.26-10.35,7.65-15.63,3.01-6.64,5.9-13.34,8.62-20.11,2.11-5.27,4.06-10.61,5.76-16.03,1.97-6.26,3.76-12.6,5.32-18.98,1.33-5.45,2.4-10.98,3.29-16.52,1.03-6.32,1.6-12.69,1.97-19.09ZM631.41,113.28c.67-4.71.78-9.42.39-14.15-.48-5.78-1.83-11.37-4.44-16.55-5.76-11.45-14.9-19.27-26.59-24.26-6.22-2.66-12.71-4.11-19.48-4.4-6.34-.27-12.53.38-18.59,2.3-6.49,2.06-12.48,5.11-18.02,9.08-5.46,3.91-10.12,8.57-13.66,14.32-.86,1.4-1.59,2.87-2.4,4.35,35.19,11.94,65.97,30.19,90.05,58.94.34-.41.51-.57.63-.77,2.16-3.72,4.44-7.39,6.44-11.19,2.92-5.54,4.77-11.46,5.66-17.68ZM538.18,699.12c1.79-6.29,1.64-12.66.72-19.05-1.16-8.02-4.15-15.45-7.54-22.74-3.47-7.46-7.96-14.32-12.56-21.09-5.22-7.68-11.12-14.84-17.1-21.92-5.21-6.17-10.56-12.22-16-18.2-5.96-6.55-11.93-13.1-18.17-19.37-7.63-7.68-15.45-15.18-23.38-22.56-7.66-7.13-15.48-14.1-23.37-20.99-7.35-6.41-14.85-12.64-22.33-18.89-5.69-4.76-11.43-9.46-17.18-14.13-5.81-4.72-11.64-9.4-17.49-14.05-5.14-4.1-10.31-8.17-15.49-12.23-4.56-3.58-9.14-7.14-13.73-10.69-5.21-4.02-10.44-8.01-15.68-11.99-5.33-4.05-10.69-8.07-16.04-12.1-5.26-3.95-10.53-7.89-15.79-11.84s-10.5-7.93-15.83-11.8c-5.95-4.32-11.94-8.59-17.99-12.77-6.79-4.7-13.64-9.3-20.49-13.9-5.46-3.66-10.95-7.3-16.45-10.9-4.9-3.21-9.82-6.4-14.79-9.51-5.57-3.49-11.19-6.91-16.83-10.29-5.03-3.01-10.07-5.99-15.17-8.88-5.05-2.85-10.14-5.65-15.28-8.32-5.83-3.03-11.71-5.98-17.65-8.8-5.07-2.42-10.26-4.58-15.38-6.89-8.46-3.81-16.99-7.4-25.99-9.75-7.47-1.96-15.06-3.34-22.76-3.85-5.49-.37-11-.44-16.49.27-5.45.7-10.62,2.25-15.54,4.69-5.08,2.52-9.59,5.87-13.82,9.6-3.37,2.96-6.57,6.12-9.15,9.84-5.44,7.83-7.77,16.63-8.03,26.04-.21,7.55,1.21,14.87,3.34,22.09,3.16,10.68,7.77,20.71,13.26,30.35,3.32,5.81,6.81,11.54,10.49,17.13,3.91,5.94,8.01,11.77,12.27,17.47,4.47,5.99,9.11,11.86,13.87,17.62,4.58,5.53,9.27,10.97,14.15,16.24,5.49,5.92,11.14,11.7,16.88,17.38,7.39,7.33,14.82,14.63,22.45,21.71,9.6,8.91,19.41,17.6,29.14,26.38,1.32,1.19,2.69,2.31,4.05,3.46.12-.04.23-.09.36-.14-1.72-8.45-2.29-16.98-1.95-25.26-1.21-.96-2.21-1.69-3.14-2.5-1.31-1.14-2.58-2.32-3.84-3.51-4.35-4.1-8.75-8.17-13.05-12.32-3.53-3.41-6.96-6.92-10.43-10.39-5.76-5.75-11.67-11.35-17.23-17.28-8.84-9.43-17.49-19.03-26.13-28.64-7.44-8.28-14.62-16.77-21.19-25.76-4.04-5.53-7.69-11.27-10.06-17.72-1.3-3.53-2.29-7.12-1.7-11.02.35-2.32,1.53-4.1,3.08-5.52,2.05-1.89,4.7-2.78,7.51-3.01,4.56-.38,8.92.64,13.22,1.95,8.32,2.52,16.27,5.99,24.03,9.85,8.08,4.03,16.11,8.17,24,12.53,8.63,4.77,17.16,9.73,25.59,14.85,8.33,5.06,16.54,10.32,24.68,15.66,8.19,5.38,16.28,10.93,24.34,16.52,6.78,4.7,13.48,9.52,20.17,14.36,6,4.34,11.98,8.74,17.91,13.19,5.93,4.45,11.81,8.97,17.7,13.48,5.27,4.04,10.54,8.07,15.76,12.16,5.84,4.58,11.64,9.2,17.43,13.82,5.79,4.63,11.58,9.27,17.34,13.94,5.76,4.67,11.5,9.37,17.25,14.06,6.3,5.15,12.62,10.27,18.89,15.45,6.32,5.22,12.58,10.51,18.88,15.75,6.89,5.74,13.83,11.43,20.69,17.22,6.27,5.28,12.48,10.62,18.69,15.98,6.79,5.86,13.63,11.67,20.32,17.66,6.73,6.02,13.37,12.16,19.92,18.37,8.26,7.82,16.16,16,23.1,25.04,2.19,2.85,4.18,5.85,5.34,9.29.73,2.19.62,4.45-.43,6.45-1.02,1.92-2.98,2.91-5,3.53-2.26.69-4.62.59-6.94.3-4.95-.63-9.71-2.06-14.35-3.84-4.74-1.82-9.41-3.81-14.09-5.79-7-2.96-13.74-6.45-20.4-10.11-6.44-3.53-12.87-7.12-19.23-10.8-7.15-4.13-14.26-8.31-21.3-12.59-6.39-3.89-12.7-7.88-18.99-11.91-5.03-3.22-9.99-6.57-14.97-9.88-2.29-1.53-4.56-3.08-6.81-4.66-.78-.55-1.46-.55-2.32-.13-1.45.71-2.96,1.28-4.45,1.89-5.83,2.37-11.84,4.12-18.02,5.31-2.09.41-4.19.82-6.69,1.3.85.65,1.35,1.09,1.9,1.45,7.17,4.67,14.27,9.43,21.53,13.95,8.37,5.21,16.79,10.37,25.36,15.26,6.96,3.97,14.12,7.57,21.25,11.21,6.55,3.34,13.17,6.55,19.78,9.77,6.61,3.22,13.21,6.45,19.88,9.56,6.72,3.12,13.48,6.16,20.29,9.08,5.21,2.24,10.48,4.37,15.81,6.31,6.96,2.53,14.05,4.69,21.24,6.49,4.12,1.03,8.24,2.06,12.38,2.95,5.66,1.22,11.34,2.4,17.04,3.44,3.76.69,7.55,1.29,11.35,1.59,3.26.25,6.58.22,9.85-.06,3.21-.27,6.49-.61,9.53-1.58,14.63-4.65,24.03-14.48,28.23-29.26ZM347.18,597.36c-.61-.54-1.03-.94-1.48-1.31-3.3-2.76-6.62-5.52-9.93-8.26-5.07-4.21-10.12-8.42-15.2-12.6-5.68-4.68-11.38-9.33-17.07-13.98-5.1-4.16-10.2-8.32-15.31-12.46-5.16-4.18-10.32-8.35-15.51-12.5-5.18-4.14-10.37-8.28-15.59-12.38-5.26-4.14-10.55-8.25-15.85-12.35-4.54-3.51-9.1-7-13.68-10.46-5.3-4-10.62-7.97-15.95-11.93-4.61-3.42-9.23-6.84-13.89-10.18-5.44-3.9-10.94-7.73-16.42-11.58-1.75-1.23-3.52-2.42-5.44-3.72-1.07,2.25-1.98,4.19-2.93,6.12-4.02,8.16-7.63,16.47-10.2,25.23-3.46,11.78-5.74,23.71-5.64,36.04.05,5.63.28,11.26,1.53,16.77,1.25,5.54,2.53,11.08,4.11,16.53,1.69,5.81,3.95,11.42,6.91,16.71,5.29,9.47,11.88,17.91,19.88,25.28,8.17,7.54,17.55,13,27.77,17.17,6.5,2.65,13.22,4.53,20.12,5.78,7.13,1.3,14.32,2.09,21.58,2.12,6.52.03,13.03-.36,19.49-1.32,5.38-.8,10.73-1.75,15.99-3.2,6.71-1.85,13.08-4.58,19.35-7.57,10.51-5.03,20.43-10.99,29.43-18.43,1.32-1.09,2.56-2.27,3.97-3.52Z"/>
  <path class="cls-2" d="M679.5,87.79c1.27,6.24,1.64,12.57,1.58,18.93-.14,12.67-2.93,24.79-7.56,36.52-2.27,5.74-5.14,11.2-8.3,16.49-2.58,4.31-5.26,8.56-8.04,12.74-3.48,5.24-7.49,10.07-11.63,14.81-.27.31-.61.56-1.16,1.06-4.88-13.52-11.22-25.99-19.57-37.49,1.29-2.02,2.56-3.97,3.79-5.94,3.58-5.74,6.87-11.64,9.11-18.05,1.5-4.29,2.5-8.72,3.09-13.24.7-5.37.78-10.74.26-16.1-.53-5.5-1.83-10.83-3.9-15.97-2.79-6.93-7.04-12.89-12.21-18.2-3.77-3.87-8.1-7.05-12.78-9.78-3.99-2.33-8.17-4.24-12.54-5.7-5.24-1.75-10.6-2.84-16.12-3.23-3.65-.25-7.29-.2-10.92.1-3.81.3-7.57,1.01-11.25,2.09-5.24,1.54-10.24,3.63-15,6.31-5.6,3.16-10.73,6.93-15.32,11.46-4.69,4.65-8.22,10.07-11.22,15.9-.11.21-.23.41-.43.74-8.6-2.21-17.27-4.09-26.09-5.3-8.77-1.21-17.59-1.81-26.72-2.04.32-.74.51-1.28.77-1.78,2.45-4.61,5.39-8.91,8.5-13.08,5.21-6.97,11.02-13.39,17.42-19.29,8.18-7.55,17.14-13.94,27.2-18.78,8.5-4.1,17.31-7.29,26.55-9.12,4.68-.93,9.44-1.54,14.19-1.95s9.55-.58,14.32-.54c7.92.07,15.75,1.06,23.48,2.75,7.68,1.68,15.12,4.07,22.27,7.32,7.15,3.24,13.93,7.15,20.33,11.71,7.11,5.06,13.4,11,19.04,17.64,5.55,6.52,9.99,13.71,13.29,21.62,2.35,5.64,4.32,11.4,5.53,17.41Z"/>
  <path class="cls-2" d="M646.43,234.85c1.51,11,1.86,22.05,1.22,33.14-.37,6.4-.95,12.77-1.97,19.09-.9,5.54-1.96,11.07-3.29,16.52-1.56,6.38-3.35,12.72-5.32,18.98-1.7,5.42-3.65,10.76-5.76,16.03-2.72,6.76-5.6,13.47-8.62,20.11-2.39,5.28-5,10.46-7.65,15.63-2.98,5.79-6.03,11.55-9.19,17.25-3.17,5.76-6.45,11.47-9.81,17.12-3.81,6.42-7.77,12.77-11.67,19.15-3.4,5.56-6.83,11.1-10.21,16.67-3.44,5.68-6.86,11.37-10.25,17.07-3.43,5.76-6.84,11.52-10.2,17.31-3.36,5.79-6.7,11.6-9.98,17.43-2.85,5.05-5.68,10.11-8.39,15.24-3.09,5.86-6.15,11.75-9.03,17.73-2.57,5.33-5.03,10.72-7.26,16.2-2.25,5.53-4.31,11.16-6.15,16.84-1.62,5-2.97,10.1-4.17,15.22-1.59,6.76-2.7,13.61-3.23,20.54-.13,1.67-.3,3.32-.49,5.36-1.85-2.09-3.49-3.97-5.16-5.82-4.51-4.96-9-9.93-13.56-14.84-4.03-4.34-8.08-8.67-12.24-12.88-4.71-4.77-9.49-9.46-14.33-14.1-4.84-4.63-9.77-9.19-14.72-13.69-6.07-5.51-12.15-11.01-18.34-16.38-6.92-5.99-13.93-11.87-20.97-17.72-8.1-6.72-16.25-13.38-24.42-20.01-6.37-5.16-12.77-10.27-19.2-15.35-5.82-4.59-11.69-9.12-17.55-13.66-6.47-5.02-12.93-10.06-19.45-15.02-6.52-4.96-13.12-9.82-19.67-14.74-5.88-4.42-11.72-8.89-17.62-13.29-5.32-3.97-10.68-7.89-16.07-11.77-5.44-3.91-10.88-7.81-16.39-11.61-5.47-3.77-11.01-7.42-16.53-11.11-6.12-4.08-12.22-8.2-18.38-12.2-6.27-4.07-12.59-8.07-18.93-12.01-5.63-3.5-11.3-6.96-17.02-10.32-5.67-3.33-11.39-6.57-17.15-9.75-5.23-2.88-10.5-5.71-15.84-8.4-5.23-2.63-10.53-5.12-15.86-7.56-5.38-2.46-10.82-4.77-16.24-7.16-.97-.43-1.95-.85-2.88-1.58,1.09-.19,2.18-.4,3.28-.56,6.1-.91,12.07-2.34,17.96-4.19,7.93-2.5,15.71-5.38,23.37-8.6,6.28-2.64,12.35-5.73,18.22-9.22,6.58-3.93,12.91-8.24,18.9-13,5.15-4.09,10.22-8.31,15.07-12.74,6.18-5.65,12.23-11.45,18.13-17.39,5.82-5.86,11.45-11.9,17.03-17.98,5.01-5.47,9.88-11.07,14.73-16.68,4.39-5.07,8.69-10.2,12.97-15.35,4.74-5.7,9.4-11.48,14.13-17.19,5.07-6.13,10.05-12.34,15.32-18.3,5.42-6.14,11.02-12.14,16.78-17.96,4.54-4.59,9.36-8.91,14.21-13.18,5.39-4.74,11.14-9.05,17.07-13.11,5.97-4.09,12.17-7.81,18.57-11.21,5.76-3.05,11.67-5.8,17.71-8.26,6.65-2.71,13.42-5.04,20.33-6.98,7.66-2.15,15.42-3.81,23.29-5.02,6.5-1,13.05-1.66,19.61-2.03,7.59-.43,15.2-.45,22.78.04,8.91.57,17.75,1.62,26.52,3.35,7.63,1.51,15.15,3.4,22.56,5.75,8.5,2.71,16.76,6,24.84,9.78,7.92,3.7,15.6,7.84,22.96,12.55,8.68,5.55,16.84,11.8,24.39,18.84,5.79,5.4,11.19,11.15,16.11,17.34,6.84,8.6,12.59,17.88,17.15,27.9,4.11,9.06,7.34,18.43,10.04,28,2.57,9.11,4.62,18.33,5.91,27.7Z"/>
  <path class="cls-2" d="M538.9,680.07c.93,6.39,1.07,12.76-.72,19.05-4.19,14.78-13.6,24.62-28.23,29.26-3.04.97-6.33,1.31-9.53,1.58-3.26.28-6.58.32-9.85.06-3.8-.3-7.59-.9-11.35-1.59-5.7-1.04-11.38-2.22-17.04-3.44-4.14-.89-8.26-1.91-12.38-2.95-7.18-1.8-14.27-3.96-21.24-6.49-5.33-1.94-10.6-4.07-15.81-6.31-6.81-2.92-13.57-5.96-20.29-9.08-6.67-3.1-13.27-6.34-19.88-9.56-6.61-3.22-13.22-6.42-19.78-9.77-7.13-3.64-14.3-7.24-21.25-11.21-8.57-4.89-16.99-10.04-25.36-15.26-7.26-4.52-14.37-9.28-21.53-13.95-.55-.35-1.04-.79-1.9-1.45,2.5-.49,4.6-.9,6.69-1.3,6.18-1.19,12.19-2.94,18.02-5.31,1.49-.61,3.01-1.18,4.45-1.89.86-.42,1.54-.42,2.32.13,2.25,1.58,4.52,3.13,6.81,4.66,4.98,3.31,9.94,6.65,14.97,9.88,6.29,4.03,12.61,8.02,18.99,11.91,7.05,4.28,14.16,8.47,21.3,12.59,6.36,3.68,12.79,7.27,19.23,10.8,6.66,3.65,13.4,7.14,20.4,10.11,4.68,1.98,9.35,3.97,14.09,5.79,4.64,1.78,9.4,3.21,14.35,3.84,2.32.3,4.68.4,6.94-.3,2.02-.62,3.98-1.61,5-3.53,1.06-2,1.16-4.26.43-6.45-1.16-3.44-3.15-6.44-5.34-9.29-6.94-9.04-14.84-17.22-23.1-25.04-6.55-6.21-13.19-12.35-19.92-18.37-6.68-5.99-13.52-11.8-20.32-17.66-6.21-5.36-12.42-10.7-18.69-15.98-6.86-5.78-13.8-11.48-20.69-17.22-6.29-5.24-12.56-10.53-18.88-15.75-6.27-5.18-12.59-10.3-18.89-15.45-5.74-4.69-11.48-9.39-17.25-14.06-5.76-4.66-11.54-9.31-17.34-13.94-5.79-4.63-11.59-9.25-17.43-13.82-5.23-4.09-10.49-8.12-15.76-12.16-5.89-4.51-11.77-9.03-17.7-13.48-5.94-4.45-11.91-8.85-17.91-13.19-6.69-4.84-13.39-9.65-20.17-14.36-8.06-5.58-16.15-11.14-24.34-16.52-8.15-5.35-16.36-10.61-24.68-15.66-8.43-5.11-16.96-10.08-25.59-14.85-7.89-4.37-15.92-8.51-24-12.53-7.76-3.86-15.71-7.33-24.03-9.85-4.31-1.3-8.67-2.32-13.22-1.95-2.81.23-5.46,1.12-7.51,3.01-1.55,1.42-2.72,3.21-3.08,5.52-.58,3.9.4,7.49,1.7,11.02,2.37,6.45,6.02,12.19,10.06,17.72,6.57,8.99,13.76,17.48,21.19,25.76,8.64,9.61,17.29,19.21,26.13,28.64,5.56,5.93,11.48,11.53,17.23,17.28,3.47,3.47,6.9,6.98,10.43,10.39,4.3,4.16,8.69,8.23,13.05,12.32,1.27,1.19,2.53,2.37,3.84,3.51.93.81,1.93,1.54,3.14,2.5-.33,8.28.23,16.81,1.95,25.26-.12.05-.24.1-.36.14-1.35-1.15-2.73-2.27-4.05-3.46-9.73-8.77-19.54-17.46-29.14-26.38-7.63-7.08-15.05-14.38-22.45-21.71-5.74-5.68-11.39-11.46-16.88-17.38-4.87-5.27-9.57-10.71-14.15-16.24-4.76-5.76-9.4-11.63-13.87-17.62-4.26-5.7-8.36-11.53-12.27-17.47-3.68-5.59-7.18-11.32-10.49-17.13-5.49-9.64-10.11-19.67-13.26-30.35-2.13-7.22-3.55-14.53-3.34-22.09.26-9.41,2.59-18.21,8.03-26.04,2.58-3.72,5.78-6.87,9.15-9.84,4.23-3.72,8.73-7.08,13.82-9.6,4.92-2.44,10.09-4,15.54-4.69,5.49-.71,11-.64,16.49-.27,7.7.52,15.29,1.9,22.76,3.85,9,2.35,17.53,5.94,25.99,9.75,5.12,2.3,10.31,4.47,15.38,6.89,5.94,2.82,11.82,5.77,17.65,8.8,5.15,2.67,10.23,5.47,15.28,8.32,5.1,2.88,10.14,5.86,15.17,8.88,5.64,3.38,11.26,6.8,16.83,10.29,4.97,3.11,9.89,6.3,14.79,9.51,5.5,3.6,10.99,7.23,16.45,10.9,6.85,4.6,13.7,9.2,20.49,13.9,6.05,4.18,12.04,8.45,17.99,12.77,5.32,3.87,10.56,7.86,15.83,11.8s10.53,7.88,15.79,11.84c5.35,4.03,10.7,8.05,16.04,12.1,5.24,3.98,10.47,7.97,15.68,11.99,4.59,3.55,9.17,7.11,13.73,10.69,5.18,4.06,10.35,8.13,15.49,12.23,5.85,4.66,11.68,9.33,17.49,14.05,5.75,4.68,11.5,9.38,17.18,14.13,7.48,6.25,14.98,12.48,22.33,18.89,7.89,6.89,15.71,13.85,23.37,20.99,7.93,7.38,15.75,14.88,23.38,22.56,6.24,6.28,12.21,12.82,18.17,19.37,5.44,5.97,10.78,12.03,16,18.2,5.98,7.08,11.88,14.24,17.1,21.92,4.61,6.78,9.1,13.64,12.56,21.09,3.38,7.29,6.37,14.72,7.54,22.74Z"/>
  <path class="cls-3" d="M345.69,596.05c.45.37.88.77,1.48,1.31-1.4,1.25-2.64,2.43-3.97,3.52-9,7.44-18.92,13.4-29.43,18.43-6.27,3-12.63,5.73-19.35,7.57-5.26,1.45-10.61,2.4-15.99,3.2-6.46.96-12.97,1.35-19.49,1.32-7.26-.03-14.45-.82-21.58-2.12-6.9-1.25-13.63-3.13-20.12-5.78-10.21-4.16-19.6-9.63-27.77-17.17-7.99-7.38-14.58-15.81-19.88-25.28-2.96-5.29-5.23-10.91-6.91-16.71-1.58-5.45-2.86-10.99-4.11-16.53-1.24-5.51-1.48-11.14-1.53-16.77-.1-12.32,2.18-24.26,5.64-36.04,2.58-8.76,6.18-17.07,10.2-25.23.95-1.93,1.86-3.87,2.93-6.12,1.91,1.31,3.69,2.5,5.44,3.72,5.49,3.84,10.98,7.67,16.42,11.58,4.66,3.34,9.28,6.76,13.89,10.18,5.33,3.95,10.65,7.93,15.95,11.93,4.58,3.46,9.14,6.95,13.68,10.46,5.3,4.1,10.59,8.21,15.85,12.35,5.22,4.1,10.41,8.24,15.59,12.38,5.19,4.14,10.35,8.31,15.51,12.5,5.11,4.14,10.22,8.3,15.31,12.46,5.7,4.66,11.4,9.31,17.07,13.98,5.08,4.18,10.13,8.39,15.2,12.6,3.32,2.75,6.63,5.5,9.93,8.26Z"/>
</svg>