<svg width="253" height="253" viewBox="0 0 253 253" fill="none" xmlns="http://www.w3.org/2000/svg">
<path d="M229.926 177.73C231.686 181.923 232.567 186.29 232.35 190.846C232.24 193.173 231.815 195.465 231.172 197.706C230.363 200.527 229.302 203.248 227.885 205.82C227.621 206.302 227.325 206.771 227.029 207.234C226.484 208.081 225.751 208.701 224.841 209.151C219.067 212.019 213.302 214.906 207.534 217.787C206.054 218.527 204.581 219.276 203.091 219.994C202.733 220.167 202.323 220.237 201.939 220.36C201.716 220.432 201.479 220.485 201.272 220.596C199.997 221.257 198.636 221.591 197.207 221.694C194.147 221.912 191.256 221.197 188.426 220.145C184.938 218.851 181.732 217.035 178.754 214.825C174.16 211.415 170.061 207.504 166.809 202.766C166.025 201.623 165.345 200.402 164.621 199.218C164.498 199.013 164.384 198.802 164.246 198.557C164.089 198.626 163.941 198.682 163.799 198.758C161.526 199.995 159.259 201.245 156.976 202.464C156.598 202.665 156.416 202.892 156.331 203.311C155.915 205.392 155.786 207.495 155.84 209.608C155.903 212.199 156.035 214.784 156.428 217.353C156.589 218.401 156.205 219.239 155.295 219.708C153.913 220.419 152.496 221.071 151.054 221.65C149.105 222.434 147.033 222.74 144.952 222.935C141.01 223.306 137.094 223.067 133.205 222.384C131.767 222.132 130.35 221.77 128.949 221.087C128.876 221.399 128.81 221.666 128.75 221.937C128.303 224.078 128.083 226.247 127.897 228.423C127.891 228.495 127.878 228.568 127.881 228.637C127.891 230.123 127.034 230.979 125.706 231.291C124.1 231.669 122.466 231.962 120.829 232.147C118.156 232.446 115.461 232.446 112.778 232.289C105.209 231.839 98.0247 229.972 91.3752 226.257C90.588 225.816 89.8702 225.24 89.1492 224.682C88.6927 224.327 88.3464 223.864 88.1795 223.284C88.1386 223.133 88.0284 222.988 87.9182 222.875C87.3924 222.352 87.3389 221.767 87.5844 221.09C88.5038 218.565 89.272 215.993 89.8167 213.361C90.1976 211.516 90.3928 209.655 89.8608 207.804C89.6844 207.19 89.4452 206.566 89.1083 206.031C88.488 205.045 87.5435 204.809 86.4762 205.269C85.7394 205.584 85.1066 206.053 84.5399 206.617C83.3687 207.785 82.4934 209.154 81.8354 210.659C80.6925 213.276 79.7196 215.955 79.1057 218.754C79.0427 219.034 78.9734 219.314 78.8695 219.582C78.6302 220.193 78.1769 220.533 77.5188 220.618C77.267 220.652 77.0308 220.766 76.7821 220.825C76.3917 220.92 75.995 221.065 75.6014 221.068C73.1457 221.081 70.7308 220.744 68.3411 220.167C63.9868 219.119 59.9883 217.243 56.1535 214.976C54.0566 213.735 52.1203 212.284 50.4517 210.508C49.6834 209.693 48.953 208.811 48.3674 207.86C47.8699 207.057 47.5897 206.119 47.2465 205.228C47.0576 204.74 47.2749 204.293 47.5079 203.862C49.0695 200.968 50.48 198.006 51.7583 194.977C52.835 192.427 53.682 189.807 54.1133 187.071C54.2802 186.01 54.3085 184.924 54.362 183.85C54.3715 183.642 54.2361 183.397 54.1039 183.211C48.317 175.035 44.3342 166.024 41.6706 156.399C40.2979 151.44 39.366 146.399 38.9882 141.267C38.4215 133.601 38.6922 125.975 40.3829 118.444C40.6978 117.04 41.0473 115.645 41.403 114.15C41.1826 114.018 40.956 113.87 40.7167 113.737C39.2747 112.935 37.8075 112.166 36.3876 111.319C34.6339 110.271 33.003 109.046 31.5484 107.604C30.4937 106.556 29.4578 105.489 28.444 104.402C26.6526 102.488 25.4467 100.196 24.2881 97.8724C22.122 93.5244 21.1239 88.8993 21.0515 84.0633C21.02 81.7492 21.3443 79.4729 21.8543 77.2186C21.9992 76.5795 22.3549 76.1072 22.8713 75.7074C26.8068 72.6408 30.733 69.5647 34.6591 66.4856C35.0558 66.177 35.4462 65.8559 35.8208 65.5221C38.475 63.1608 41.5069 61.8447 45.1276 62.0714C48.2446 62.2666 51.2482 62.9121 54.1007 64.1966C54.5982 64.4202 55.0862 64.6689 55.6781 64.9554C55.6183 64.6469 55.5836 64.4422 55.5364 64.2407C54.362 59.3197 53.8142 54.32 53.8331 49.2667C53.8425 46.3387 54.0503 43.42 54.7713 40.5613C55.4356 37.926 56.5817 35.5111 58.1874 33.323C59.4814 31.5567 61.1627 30.3225 63.2564 29.5984C72.3113 26.4562 81.3537 23.2889 90.3928 20.1027C91.6144 19.6713 92.8486 19.6839 94.0828 19.7784C99.3942 20.1782 104.038 22.253 108.182 25.5243C109.277 26.3901 110.231 27.4071 111.043 28.5468C111.528 29.2269 111.594 29.888 111.169 30.4138C110.738 30.9491 110.282 31.4591 109.602 31.7425C107.3 32.7027 105.021 33.7039 102.732 34.6894C98.1758 36.6477 93.62 38.6124 89.0547 40.5581C88.5667 40.7659 88.2991 41.0241 88.0819 41.5562C86.9358 44.3425 87.2129 47.1447 87.8237 49.9657C87.8269 49.9877 87.8489 50.0066 87.8961 50.0727C88.0472 50.0192 88.2236 49.9751 88.3841 49.8995C94.9864 46.7763 101.913 44.6416 109.038 43.1398C113.502 42.1984 118.036 41.701 122.605 41.6821C125.677 41.6695 128.741 41.8427 131.782 42.296C131.899 42.3149 132.018 42.3118 132.173 42.3181C132.318 42.0694 132.469 41.8269 132.607 41.5782C134.348 38.4959 136.404 35.6402 138.784 33.0176C140.554 31.0655 142.569 29.4126 144.858 28.106C146.895 26.9411 149.089 26.3051 151.451 26.3649C153.651 26.4216 155.603 27.1489 157.363 28.4964C160.166 30.6374 163.018 32.709 165.852 34.8059C167.353 35.9204 168.839 37.0602 170.376 38.1244C171.336 38.7855 171.582 39.5978 171.428 40.7218C170.933 44.3961 170.134 47.9853 168.805 51.4549C168.77 51.543 168.764 51.6375 168.732 51.7823C173.392 54.4081 177.517 57.7518 181.465 61.319C185.677 59.5905 190.095 58.9104 194.559 58.4192C197.594 58.0855 200.639 58.0383 203.683 58.1894C207.512 58.3783 211.262 58.986 214.829 60.472C216.516 61.1741 218.147 61.9896 219.602 63.1041C221.708 64.7193 223.188 66.75 223.679 69.4168C224.022 71.2806 223.83 73.0941 223.226 74.873C222.536 76.888 221.497 78.7173 220.247 80.4332C217.344 84.416 213.834 87.8163 210.068 90.9584C207.861 92.8003 205.594 94.576 203.321 96.4084C207.358 109.997 208.998 123.828 206.533 138.025C206.709 138.122 206.892 138.22 207.074 138.324C208.091 138.906 209.149 139.432 210.119 140.09C211.718 141.17 212.952 142.59 213.717 144.391C214.958 147.309 214.775 150.089 212.902 152.703C212.666 153.033 212.401 153.345 212.118 153.707C212.288 153.808 212.439 153.915 212.603 153.997C214.139 154.743 215.607 155.596 216.989 156.6C218.33 157.573 219.419 158.763 220.21 160.227C221.349 162.346 220.855 164.465 218.875 165.844C218.018 166.439 217.058 166.814 216.069 167.116C213.192 167.991 210.242 168.492 207.263 168.848C206.196 168.974 205.125 169.065 204.03 169.175C205.226 175.683 203.006 181.004 198.501 185.588C199.748 188.069 201.668 189.801 204.011 191.177C205.147 190.389 206.268 189.615 207.389 188.837C213.374 184.678 219.363 180.519 225.345 176.351C225.943 175.932 226.554 175.601 227.281 175.463C228.081 175.308 228.641 175.456 229.088 176.146C229.412 176.647 229.693 177.185 229.922 177.733L229.926 177.73ZM229.34 191.589C229.743 187.301 228.95 183.189 227.353 179.213C227.294 179.065 227.205 178.929 227.101 178.724C217.798 185.188 208.532 191.627 199.241 198.084C199.439 198.352 199.59 198.566 199.751 198.774C200.897 200.257 201.967 201.79 202.818 203.462C204.426 206.626 205.462 209.938 205.33 213.534C205.305 214.22 205.195 214.903 205.113 215.671C205.377 215.552 205.591 215.467 205.799 215.363C211.759 212.388 217.719 209.412 223.67 206.421C223.975 206.267 224.28 206.018 224.463 205.735C224.957 204.973 225.423 204.186 225.833 203.377C227.703 199.662 228.95 195.745 229.34 191.592V191.589ZM220.49 73.7742C220.893 72.5463 221.012 71.2964 220.795 70.015C220.452 67.9968 219.278 66.5296 217.688 65.349C216.353 64.3541 214.854 63.6582 213.314 63.0412C209.81 61.6401 206.13 61.2245 202.405 61.0734C198.68 60.9222 194.978 61.2277 191.301 61.7944C189.005 62.1501 186.723 62.5941 184.509 63.3277C184.295 63.4001 184.087 63.4945 183.804 63.6079C186.392 66.2652 188.804 68.9539 190.964 71.9418C191.225 71.8348 191.423 71.7561 191.619 71.6679C194.049 70.5722 196.558 69.7064 199.178 69.1775C201.177 68.7713 203.186 68.4376 205.239 68.5289C206.523 68.5856 207.754 68.8595 208.875 69.527C210.569 70.5345 211.46 72.4204 211.164 74.3598C210.915 75.9939 210.364 77.5146 209.492 78.9156C208.324 80.7952 207.011 82.5615 205.456 84.142C204.345 85.2692 203.23 86.3932 202.122 87.5203C201.602 88.0461 201.092 88.575 200.566 89.1134C201.121 90.5271 201.678 91.947 202.257 93.4237C202.503 93.2473 202.723 93.1088 202.925 92.9482C205.047 91.226 207.21 89.5511 209.278 87.7691C212.335 85.1369 215.2 82.3096 217.615 79.0541C218.821 77.4296 219.854 75.7105 220.493 73.7742H220.49ZM217.181 163.41C217.946 162.951 218.04 162.428 217.625 161.638C217.149 160.734 216.516 159.953 215.707 159.327C213.913 157.942 211.948 156.852 209.854 155.993C209.467 155.832 209.19 155.886 208.856 156.075C208.334 156.367 207.795 156.635 207.254 156.887C202.906 158.921 198.274 159.765 193.53 160.029C189.622 160.246 185.712 160.205 181.827 159.635C178.452 159.138 175.124 158.43 171.95 157.158C169.62 156.223 167.457 154.998 165.682 153.175C164.595 152.063 163.723 150.807 163.229 149.324C162.536 147.249 162.81 145.291 164.111 143.525C164.548 142.933 165.08 142.391 165.638 141.91C167.637 140.188 169.882 138.887 172.388 138.018C176.692 136.526 181.084 135.499 185.646 135.263C188.212 135.128 190.775 135.137 193.341 135.292C196.026 135.455 198.687 135.777 201.306 136.406C202.093 136.595 202.877 136.793 203.715 136.998C203.8 136.441 203.879 135.921 203.957 135.402C204.385 132.578 204.669 129.741 204.748 126.882C204.892 121.492 204.426 116.149 203.633 110.825C202.455 102.926 200.201 95.3474 196.851 88.0933C194.909 83.887 192.761 79.7877 190.17 75.9403C184.865 68.0598 178.143 61.5897 170.351 56.2059C169.469 55.5982 168.525 55.0756 167.599 54.5057C166.368 56.9804 165.175 59.3795 163.947 61.851C164.007 61.9046 164.073 61.9738 164.148 62.0305C166.192 63.5606 168.002 65.3395 169.645 67.2916C170.637 68.4691 171.487 69.7473 172.252 71.0791C172.501 71.5136 172.668 71.9733 172.504 72.4519C172.202 73.3366 171.764 74.0733 170.707 74.3C169.139 74.64 167.596 75.0966 166.044 75.4996C163.446 76.1765 160.842 76.8282 158.254 77.5397C157.288 77.8042 156.516 77.6436 155.855 76.888C155.509 76.4913 155.128 76.1229 154.772 75.7357C151.74 72.4456 148.485 69.3979 144.82 66.8224C138.318 62.2603 131.225 58.9734 123.524 56.993C120.753 56.2814 117.97 55.6832 115.111 55.5132C114.299 55.466 113.48 55.4849 112.668 55.4251C111.827 55.3621 111.273 54.7419 111.28 53.9642C111.286 53.2086 111.812 52.6481 112.624 52.5348C112.86 52.5002 113.099 52.4781 113.336 52.4309C118.556 51.4076 123.773 50.3813 129.024 49.3517C129.572 47.9664 130.129 46.5559 130.702 45.1076C126.471 44.5692 122.309 44.4464 118.137 44.8148C113.547 45.221 109.025 46.027 104.561 47.2045C95.5091 49.5879 87.0429 53.2432 79.2883 58.5137C74.7514 61.5992 70.5671 65.1097 66.6158 68.9004C65.7027 69.7725 64.8841 70.7423 64.0026 71.6899C64.1789 71.904 64.3395 72.1118 64.5063 72.3102C68.9582 77.6059 71.2849 83.7201 71.4959 90.631C71.625 94.8405 70.5765 98.7477 68.338 102.331C67.1794 104.185 65.7216 105.766 63.9239 106.993C61.1343 108.901 58.2913 110.734 55.4703 112.598C53.6694 113.788 51.8527 114.956 50.077 116.181C49.3214 116.703 48.5878 116.87 47.7157 116.558C46.7239 116.203 45.7164 115.897 44.712 115.576C44.5389 115.519 44.3626 115.475 44.1611 115.422C44.1107 115.582 44.0666 115.693 44.0383 115.806C42.7758 120.695 41.9698 125.654 41.7557 130.708C41.4975 136.916 41.8218 143.087 43.0213 149.183C45.0836 159.654 48.7641 169.512 54.5257 178.539C56.3707 181.432 58.3606 184.225 60.7723 186.69C60.999 186.92 61.1942 187.225 61.2918 187.531C61.5688 188.387 60.9391 189.259 60.0387 189.325C59.5538 189.363 59.1382 189.19 58.8013 188.856C58.3574 188.419 57.9355 187.959 57.4979 187.515C57.394 187.408 57.268 187.326 57.1169 187.203C57.0571 187.487 57.0036 187.694 56.9658 187.905C56.5471 190.251 55.8922 192.527 55.0295 194.744C53.7575 198.009 52.2494 201.17 50.6248 204.271C50.2974 204.894 50.3572 205.398 50.65 205.955C51.1349 206.878 51.7898 207.668 52.5044 208.417C54.5195 210.524 56.9123 212.107 59.4531 213.48C63.7255 215.785 68.1869 217.539 73.0732 217.998C74.1154 218.096 75.1607 218.2 76.2122 218.08C76.2721 217.894 76.3256 217.762 76.3571 217.624C76.9553 214.919 77.925 212.34 78.9955 209.796C79.8676 207.722 81.064 205.845 82.7138 204.293C83.6489 203.411 84.7004 202.697 85.9472 202.338C87.9874 201.755 89.7348 202.25 91.1516 203.84C91.7844 204.548 92.1969 205.382 92.496 206.28C93.1383 208.207 93.2422 210.181 92.9935 212.18C92.6818 214.664 91.9797 217.057 91.2492 219.443C91.0099 220.218 90.7549 220.989 90.5188 221.735C91.1485 222.601 91.6333 223.096 92.7007 223.628C94.5456 224.547 96.378 225.51 98.2954 226.244C104.624 228.665 111.201 229.669 117.97 229.392C120.007 229.311 122.038 229.128 124.037 228.706C124.95 228.514 124.953 228.52 125.019 227.62C125.196 225.274 125.504 222.948 126.014 220.646C126.698 217.557 127.692 214.595 129.497 211.956C129.559 211.865 129.594 211.755 129.673 211.582C129.342 211.613 129.081 211.664 128.823 211.654C128.42 211.641 127.998 211.648 127.617 211.541C126.896 211.339 126.487 210.643 126.594 209.926C126.694 209.242 127.252 208.704 127.995 208.726C129.097 208.758 130.139 208.477 131.175 208.194C136.562 206.72 141.905 205.124 147.178 203.279C153.324 201.129 159.12 198.311 164.595 194.81C164.844 194.649 165.087 194.476 165.351 194.294C163.05 193.859 160.83 193.491 158.632 193.015C152.842 191.756 147.31 189.757 142.015 187.109C141.483 186.841 140.96 186.529 140.491 186.167C140.22 185.96 139.993 185.638 139.871 185.317C139.65 184.751 139.871 184.13 140.346 183.775C140.859 183.39 141.42 183.378 141.971 183.671C142.478 183.941 142.944 184.288 143.46 184.543C149.357 187.465 155.544 189.53 162.02 190.717C165.685 191.388 169.378 191.753 173.102 191.816C175.577 191.857 178.039 191.715 180.492 191.365C183.703 190.906 186.726 189.845 189.613 188.396C193.615 186.388 196.946 183.614 199.354 179.789C200.919 177.308 201.514 174.584 201.41 171.691C201.382 170.913 201.291 170.129 200.966 169.374C198.857 169.446 196.782 169.515 194.764 169.581C194.654 170.539 194.613 171.426 194.446 172.292C194.037 174.414 192.998 176.247 191.625 177.881C190.123 179.666 188.243 180.982 186.197 182.087C182.888 183.875 179.311 184.549 175.602 184.647C172.092 184.741 168.603 184.455 165.14 183.904C159.177 182.959 153.494 181.117 148.088 178.444C144.949 176.892 141.845 175.261 139.449 172.544C138.788 172.884 138.13 173.221 137.472 173.558C131.348 176.678 124.849 178.183 117.98 178.016C116.667 177.981 115.351 177.818 114.05 177.613C113.254 177.487 112.826 176.769 112.926 176.02C113.021 175.318 113.613 174.805 114.381 174.773C114.57 174.767 114.762 174.802 114.951 174.824C115.477 174.887 115.996 174.984 116.522 175.009C120.035 175.179 123.533 175.035 126.965 174.241C133.259 172.787 138.917 170.003 143.907 165.901C145.506 164.585 146.923 163.086 148.079 161.358C149.335 159.478 150.286 157.457 150.471 155.184C150.805 151.087 149.206 147.766 146.054 145.228C144.927 144.318 143.62 143.6 142.314 142.955C139.389 141.507 136.228 140.956 132.991 140.805C130.299 140.676 127.617 140.842 124.956 141.242C122.586 141.598 120.228 142.048 117.989 142.949C117.504 143.144 117.038 143.399 116.597 143.679C115.898 144.123 115.143 144.104 114.626 143.575C114.094 143.027 114.057 142.168 114.626 141.557C114.96 141.198 115.391 140.89 115.832 140.679C116.566 140.326 117.328 140.021 118.102 139.781C123.574 138.094 129.175 137.527 134.874 138.009C139.153 138.371 143.114 139.671 146.719 142.058C148.979 143.556 150.701 145.493 151.932 147.885C153.377 150.694 153.818 153.66 153.195 156.755C152.974 157.85 152.581 158.914 152.26 160.026C152.348 160.067 152.471 160.136 152.606 160.18C156.06 161.345 159.552 162.365 163.094 163.234C167.571 164.33 172.12 165.013 176.692 165.564C181.72 166.172 186.76 166.549 191.829 166.584C197.493 166.625 203.148 166.471 208.768 165.677C211 165.362 213.217 164.95 215.361 164.238C215.994 164.031 216.617 163.754 217.187 163.41H217.181ZM209.952 151.642C211.718 149.885 211.992 147.615 210.959 145.423C210.314 144.051 209.294 143.034 208.044 142.228C206.196 141.034 204.171 140.232 202.065 139.637C197.9 138.462 193.63 138.144 189.326 138.103C188.99 138.103 188.656 138.097 188.319 138.103C187.888 138.116 187.456 138.147 187.025 138.154C182.031 138.251 177.243 139.353 172.583 141.088C170.467 141.875 168.6 143.09 166.988 144.668C165.678 145.949 165.477 147.357 166.27 149.003C166.869 150.241 167.766 151.229 168.833 152.063C170.146 153.087 171.598 153.874 173.15 154.469C176.893 155.908 180.791 156.679 184.771 157.003C189.685 157.403 194.591 157.284 199.452 156.323C202.389 155.744 205.191 154.79 207.786 153.291C208.567 152.841 209.31 152.274 209.946 151.638L209.952 151.642ZM208.157 74.4637C208.488 72.9745 207.984 72.0677 206.508 71.7151C205.705 71.5231 204.842 71.4318 204.02 71.4821C200.248 71.7057 196.653 72.6628 193.202 74.1867C193.054 74.2528 192.919 74.3409 192.72 74.4511C195.198 78.2104 197.283 82.1302 199.222 86.1854C199.361 86.0752 199.461 86.0122 199.543 85.9304C201.007 84.4443 202.487 82.974 203.926 81.4627C205.173 80.1561 206.193 78.6763 207.125 77.1336C207.625 76.3024 207.953 75.4051 208.16 74.4669L208.157 74.4637ZM202.241 214.626C202.392 213.786 202.44 212.904 202.374 212.054C202.194 209.636 201.461 207.363 200.396 205.187C199.505 203.364 198.312 201.746 197.091 200.143C196.713 199.649 196.322 199.155 196.007 198.623C195.557 197.861 195.724 197.061 196.401 196.494C196.602 196.324 196.823 196.179 197.04 196.028C198.259 195.178 199.483 194.331 200.702 193.481C200.906 193.34 201.102 193.182 201.35 192.993C199.203 191.554 197.553 189.776 196.218 187.682C196.061 187.795 195.941 187.871 195.828 187.959C193.892 189.473 191.776 190.679 189.541 191.696C186.395 193.125 183.115 194.064 179.683 194.451C176.553 194.807 173.417 194.841 170.275 194.656C170.014 194.64 169.753 194.656 169.645 194.656C168.644 195.471 167.738 196.208 166.771 196.998C167.013 197.442 167.234 197.867 167.479 198.279C167.955 199.082 168.414 199.901 168.937 200.675C172.284 205.625 176.547 209.661 181.399 213.099C184.572 215.344 188.001 217.079 191.754 218.143C193.781 218.719 195.834 218.993 197.937 218.653C200.302 218.272 201.829 216.893 202.238 214.633L202.241 214.626ZM191.574 171.659C191.713 170.986 191.811 170.299 191.622 169.578C189.415 169.49 187.245 169.405 185.019 169.317C184.33 173.199 183.388 176.987 181.754 180.699C182.013 180.654 182.129 180.654 182.233 180.617C184.893 179.631 187.327 178.271 189.245 176.133C190.397 174.849 191.225 173.369 191.574 171.659ZM178.08 181.52C180.142 177.56 181.317 173.438 182.041 169.128C178.792 168.757 175.618 168.394 172.4 168.026C171.383 172.588 170.074 177.031 168.059 181.338C171.5 181.7 174.837 181.879 178.077 181.52H178.08ZM168.405 41.0965C168.462 40.6148 168.402 40.3188 167.983 40.0166C165.65 38.3322 163.342 36.6131 161.025 34.9066C160.858 34.7839 160.679 34.68 160.421 34.5131C160.436 34.8185 160.449 35.0231 160.461 35.2278C160.499 35.7756 160.562 36.3266 160.572 36.8776C160.603 39.6073 160.166 42.274 159.47 44.9061C158.698 47.8342 157.568 50.6363 156.441 53.4384C154.612 57.9816 152.146 62.1627 149.149 66.0322C149.096 66.1014 149.064 66.1927 149.033 66.2526C150.692 67.7229 152.323 69.1649 154.01 70.6604C154.832 70.0433 155.43 69.2593 156 68.4628C158.61 64.8137 161.107 61.0954 163.097 57.056C165.597 51.9775 167.725 46.7857 168.408 41.1028L168.405 41.0965ZM164.803 180.856C166.434 178.432 169.129 170.627 169.403 167.582C167.281 167.138 165.143 166.729 163.031 166.235C160.918 165.74 158.827 165.161 156.721 164.616C155.229 168.804 153.27 172.717 151.06 176.58C155.462 178.611 160.03 180.031 164.806 180.856H164.803ZM157.47 39.7553C157.71 37.6426 157.694 35.5615 157.118 33.4835C156.422 30.9648 154.259 29.6047 152.112 29.3685C149.842 29.1167 147.786 29.7463 145.881 30.9113C144.033 32.0447 142.383 33.4237 140.922 35.0357C137.821 38.4581 135.349 42.2929 133.388 46.4583C132.003 49.3958 131.086 52.5002 130.199 55.6108C130.173 55.699 130.18 55.7966 130.17 55.9288C136.004 58.0666 141.486 60.875 146.624 64.4831C147.115 63.8346 147.594 63.2395 148.031 62.6193C150.887 58.5546 153.122 54.1783 154.826 49.5091C155.988 46.3261 157.08 43.1398 157.467 39.7521L157.47 39.7553ZM153.44 217.403C152.927 212.998 152.691 208.654 153.16 204.208C152.883 204.296 152.685 204.347 152.493 204.422C147.081 206.5 141.615 208.424 135.998 209.897C135.375 210.061 134.739 210.203 134.405 210.858C134.355 210.958 134.235 211.021 134.14 211.1C133.246 211.843 132.513 212.721 131.883 213.694C131.008 215.045 130.29 216.468 129.808 217.957C130.787 218.864 131.978 219.157 133.177 219.365C134.685 219.626 136.209 219.821 137.73 219.985C140.919 220.328 144.096 220.208 147.257 219.651C149.423 219.267 151.435 218.445 153.437 217.406L153.44 217.403ZM153.922 163.722C152.801 163.37 151.791 162.882 150.673 162.784C148.4 166.187 145.396 168.722 142.046 170.948C143.079 172.239 146.611 174.613 148.4 175.227C150.585 171.587 152.433 167.771 153.922 163.722ZM107.816 29.293C107.637 29.0789 107.533 28.9183 107.394 28.7955C106.749 28.2256 106.135 27.6054 105.43 27.1142C102.187 24.8411 98.6732 23.2196 94.681 22.782C93.2138 22.6214 91.7813 22.5553 90.3928 23.2102C89.7443 23.5156 89.0422 23.6982 88.3621 23.9343C82.0998 26.1256 75.8376 28.3201 69.5785 30.5146C69.3486 30.5964 69.1219 30.6909 68.8134 30.8105C70.841 32.3249 72.1791 34.2455 73.3786 36.2825C74.5845 38.3322 75.4724 40.5266 76.3161 42.825C86.8288 38.307 97.2911 33.8141 107.816 29.293ZM85.1979 51.5116C84.3447 48.5142 84.1148 45.561 84.6658 42.4913C84.4265 42.5763 84.2502 42.6235 84.0834 42.6959C83.2018 43.0706 82.3202 43.4484 81.4418 43.8262C79.77 44.544 78.0982 45.2713 76.4232 45.9766C75.1544 46.5118 74.3767 46.1623 73.8918 44.862C73.8068 44.6385 73.7344 44.4087 73.6526 44.1851C73.3125 43.2626 72.9945 42.3338 72.6262 41.4239C71.6722 39.0815 70.4978 36.865 68.8858 34.8972C68.2089 34.0723 67.447 33.3576 66.4867 32.8696C65.3092 32.2745 64.1505 32.2714 62.9825 32.9168C61.8427 33.5465 60.9643 34.4375 60.2402 35.5049C58.4708 38.1212 57.4664 41.0083 57.098 44.1347C56.525 48.9802 56.7895 53.8036 57.457 58.6176C57.8694 61.5929 58.5904 64.4926 59.5444 67.3356C59.5853 67.4616 59.6766 67.5875 59.7805 67.6757C60.4889 68.2833 61.2036 68.8847 61.9624 69.5238C68.741 62.2289 76.5208 56.2248 85.2074 51.5053L85.1979 51.5116ZM68.6717 91.459C68.5332 90.0548 68.4639 88.638 68.2404 87.2464C67.3934 81.9413 65.1266 77.3099 61.5059 73.3429C57.4318 68.8784 52.5863 65.8086 46.45 65.1538C45.1749 65.0184 43.8494 64.9995 42.5837 65.1758C40.3987 65.4781 38.6418 66.7469 37.2628 68.3652C35.0085 71.0067 33.8058 74.1489 33.6232 77.6373C33.4784 80.3891 33.8405 83.0968 34.5678 85.7477C35.7295 89.973 37.8673 93.685 40.6096 97.0853C43.7297 100.955 47.7094 103.546 52.347 105.18C53.937 105.74 55.5868 106.134 57.2775 106.027C60.8132 105.803 63.5586 104.125 65.539 101.216C67.5351 98.2817 68.5048 95.0105 68.6686 91.459H68.6717ZM55.0673 109.336C55.2121 109.238 55.338 109.116 55.5679 108.927C55.1617 108.864 54.8847 108.826 54.6076 108.775C54.3242 108.728 54.0409 108.678 53.7607 108.612C49.293 107.557 45.2441 105.596 41.8407 102.532C35.9877 97.2648 32.2001 90.7979 30.9974 82.9267C30.4937 79.6209 30.4464 76.337 31.4508 73.1004C31.4697 73.0375 31.4508 72.9619 31.4508 72.8486C31.328 72.8863 31.2745 72.8895 31.243 72.9147C29.1619 74.5361 27.0776 76.1544 25.0154 77.7948C24.8139 77.9553 24.6533 78.2481 24.5998 78.5063C24.2409 80.1718 24.011 81.8626 23.9953 83.569C23.9323 89.6235 25.6891 95.1616 28.9541 100.212C30.7235 102.948 33.0785 105.193 35.6225 107.217C37.6406 108.82 39.9107 110.019 42.1933 111.193C44.032 112.138 45.9179 112.953 47.8951 113.555C48.2572 113.665 48.5594 113.668 48.8995 113.435C50.946 112.056 53.0113 110.702 55.0673 109.336Z" fill="black"/>
<path d="M227.354 179.212C228.947 183.188 229.74 187.3 229.34 191.588C228.95 195.741 227.703 199.655 225.833 203.373C225.424 204.185 224.958 204.969 224.463 205.731C224.281 206.015 223.975 206.263 223.67 206.418C217.716 209.409 211.759 212.384 205.799 215.359C205.595 215.463 205.377 215.548 205.113 215.668C205.195 214.899 205.305 214.216 205.33 213.53C205.462 209.934 204.43 206.622 202.818 203.458C201.968 201.786 200.897 200.253 199.751 198.77C199.591 198.562 199.439 198.351 199.241 198.08C208.532 191.623 217.798 185.188 227.102 178.721C227.209 178.922 227.297 179.061 227.354 179.209V179.212Z" fill="#B4BD57"/>
<path d="M220.795 70.0154C221.012 71.2968 220.896 72.5468 220.49 73.7747C219.854 75.711 218.818 77.4269 217.612 79.0546C215.2 82.3101 212.332 85.1374 209.275 87.7695C207.206 89.5515 205.043 91.2265 202.921 92.9487C202.72 93.1124 202.5 93.2478 202.254 93.4241C201.675 91.9475 201.117 90.5275 200.563 89.1139C201.086 88.5755 201.599 88.0466 202.119 87.5208C203.23 86.3936 204.345 85.2696 205.453 84.1425C207.008 82.562 208.321 80.7957 209.489 78.9161C210.361 77.5119 210.915 75.9912 211.161 74.3603C211.457 72.4208 210.566 70.5318 208.872 69.5274C207.751 68.86 206.52 68.5892 205.236 68.5294C203.183 68.4381 201.174 68.7718 199.175 69.1779C196.555 69.7069 194.046 70.5727 191.615 71.6684C191.42 71.7565 191.222 71.8352 190.96 71.9423C188.801 68.9544 186.386 66.2656 183.801 63.6083C184.084 63.495 184.292 63.4005 184.506 63.3281C186.72 62.5945 189.002 62.1506 191.297 61.7948C194.975 61.225 198.677 60.9227 202.402 61.0738C206.127 61.225 209.807 61.6406 213.311 63.0416C214.851 63.6587 216.35 64.3577 217.684 65.3494C219.271 66.5301 220.449 67.9973 220.792 70.0154H220.795Z" fill="#FFC2C2"/>
<path d="M217.625 161.642C218.043 162.432 217.946 162.955 217.181 163.414C216.614 163.758 215.988 164.032 215.355 164.242C213.211 164.954 210.994 165.363 208.762 165.681C203.142 166.475 197.487 166.629 191.823 166.588C186.757 166.55 181.717 166.172 176.685 165.568C172.114 165.017 167.564 164.334 163.087 163.238C159.548 162.369 156.054 161.346 152.6 160.184C152.468 160.14 152.342 160.071 152.254 160.03C152.578 158.918 152.971 157.854 153.189 156.759C153.809 153.664 153.371 150.698 151.926 147.889C150.692 145.497 148.973 143.56 146.712 142.062C143.104 139.675 139.147 138.372 134.868 138.013C129.166 137.531 123.568 138.098 118.096 139.785C117.322 140.025 116.556 140.33 115.826 140.683C115.382 140.894 114.954 141.202 114.62 141.561C114.05 142.175 114.088 143.031 114.62 143.579C115.133 144.108 115.892 144.127 116.591 143.683C117.032 143.403 117.498 143.148 117.983 142.953C120.221 142.052 122.576 141.602 124.95 141.246C127.611 140.846 130.293 140.683 132.985 140.809C136.218 140.963 139.38 141.511 142.308 142.959C143.611 143.604 144.921 144.322 146.048 145.232C149.2 147.77 150.799 151.091 150.465 155.188C150.279 157.461 149.329 159.482 148.072 161.362C146.92 163.09 145.503 164.589 143.901 165.905C138.907 170.01 133.25 172.791 126.959 174.245C123.527 175.038 120.029 175.183 116.516 175.013C115.99 174.988 115.47 174.891 114.944 174.828C114.756 174.806 114.563 174.771 114.375 174.777C113.603 174.809 113.014 175.322 112.92 176.024C112.819 176.776 113.247 177.494 114.044 177.617C115.344 177.819 116.66 177.985 117.973 178.02C124.843 178.19 131.342 176.682 137.465 173.562C138.123 173.225 138.781 172.888 139.442 172.548C141.835 175.265 144.94 176.896 148.082 178.448C153.488 181.121 159.174 182.963 165.134 183.908C168.597 184.455 172.086 184.745 175.596 184.651C179.305 184.55 182.878 183.879 186.191 182.091C188.237 180.986 190.117 179.67 191.619 177.885C192.994 176.251 194.03 174.418 194.44 172.296C194.606 171.43 194.65 170.543 194.758 169.585C196.776 169.519 198.851 169.45 200.96 169.378C201.284 170.133 201.376 170.917 201.404 171.695C201.511 174.588 200.913 177.312 199.348 179.793C196.939 183.615 193.605 186.389 189.607 188.401C186.72 189.849 183.7 190.91 180.486 191.369C178.033 191.722 175.571 191.861 173.096 191.82C169.372 191.757 165.675 191.388 162.014 190.721C155.537 189.534 149.351 187.469 143.454 184.547C142.94 184.292 142.471 183.945 141.964 183.675C141.413 183.379 140.856 183.391 140.34 183.779C139.864 184.134 139.641 184.755 139.864 185.321C139.987 185.639 140.217 185.964 140.485 186.171C140.957 186.533 141.476 186.848 142.008 187.113C147.307 189.757 152.839 191.76 158.626 193.019C160.824 193.498 163.043 193.866 165.345 194.298C165.08 194.48 164.838 194.653 164.589 194.814C159.114 198.318 153.318 201.136 147.172 203.283C141.898 205.128 136.552 206.728 131.168 208.198C130.133 208.481 129.094 208.758 127.988 208.73C127.249 208.708 126.688 209.246 126.587 209.93C126.48 210.647 126.89 211.343 127.611 211.545C127.995 211.652 128.413 211.645 128.816 211.658C129.075 211.668 129.336 211.617 129.667 211.586C129.588 211.759 129.553 211.869 129.49 211.96C127.686 214.599 126.691 217.565 126.008 220.65C125.498 222.948 125.189 225.275 125.013 227.624C124.944 228.524 124.944 228.518 124.031 228.71C122.028 229.132 120.001 229.315 117.964 229.396C111.195 229.67 104.618 228.669 98.2892 226.248C96.3718 225.514 94.5394 224.548 92.6944 223.632C91.6271 223.1 91.1422 222.605 90.5125 221.739C90.7518 220.993 91.0068 220.222 91.2429 219.447C91.9734 217.064 92.6786 214.671 92.9872 212.184C93.2359 210.185 93.132 208.214 92.4897 206.284C92.1906 205.386 91.7782 204.552 91.1453 203.844C89.7285 202.254 87.978 201.756 85.941 202.342C84.691 202.698 83.6426 203.415 82.7075 204.297C81.0546 205.849 79.8613 207.726 78.9892 209.8C77.9187 212.344 76.949 214.923 76.3508 217.628C76.3193 217.766 76.2658 217.898 76.206 218.084C75.1544 218.204 74.1091 218.1 73.067 218.002C68.1806 217.543 63.7192 215.789 59.4468 213.484C56.9028 212.111 54.51 210.525 52.4982 208.421C51.7835 207.672 51.1286 206.882 50.6437 205.959C50.3509 205.402 50.2911 204.898 50.6186 204.275C52.2432 201.174 53.7513 198.016 55.0232 194.748C55.8859 192.531 56.5439 190.255 56.9595 187.909C56.9973 187.698 57.0477 187.491 57.1106 187.207C57.2618 187.33 57.3877 187.415 57.4916 187.519C57.9292 187.963 58.3511 188.423 58.7951 188.86C59.1351 189.194 59.5475 189.367 60.0324 189.329C60.9297 189.263 61.5594 188.394 61.2855 187.535C61.1847 187.229 60.9927 186.924 60.766 186.694C58.3511 184.229 56.3645 181.436 54.5195 178.543C48.761 169.513 45.0773 159.658 43.0151 149.187C41.8155 143.091 41.4912 136.92 41.7494 130.712C41.9603 125.658 42.7663 120.699 44.032 115.81C44.0603 115.697 44.1044 115.586 44.1548 115.426C44.3563 115.483 44.5326 115.527 44.7058 115.58C45.7101 115.904 46.7176 116.21 47.7094 116.562C48.5815 116.874 49.3151 116.707 50.0707 116.185C51.8464 114.96 53.6631 113.792 55.464 112.602C58.285 110.738 61.1249 108.905 63.9176 106.997C65.7153 105.77 67.1731 104.189 68.3317 102.335C70.5703 98.7517 71.6187 94.8444 71.4896 90.635C71.2787 83.7273 68.952 77.6099 64.5 72.3142C64.3332 72.1127 64.1695 71.908 63.9963 71.6939C64.8779 70.7494 65.6965 69.7797 66.6095 68.9044C70.564 65.1137 74.7451 61.6032 79.282 58.5177C87.0366 53.2472 95.5028 49.5918 104.555 47.2085C109.022 46.0309 113.54 45.2281 118.131 44.8188C122.302 44.4504 126.465 44.5732 130.696 45.1116C130.123 46.5599 129.566 47.9704 129.018 49.3557C123.766 50.3884 118.549 51.4148 113.329 52.4349C113.096 52.479 112.857 52.5042 112.618 52.5388C111.805 52.6553 111.28 53.2157 111.273 53.9682C111.267 54.7458 111.821 55.3661 112.662 55.4291C113.474 55.492 114.293 55.47 115.105 55.5172C117.964 55.6872 120.747 56.2886 123.518 56.997C131.219 58.9742 138.312 62.2612 144.814 66.8264C148.482 69.3987 151.734 72.4496 154.766 75.7397C155.125 76.1269 155.503 76.4953 155.849 76.892C156.51 77.6476 157.282 77.8082 158.248 77.5437C160.836 76.8322 163.44 76.1805 166.037 75.5035C167.59 75.1005 169.132 74.644 170.7 74.304C171.758 74.0742 172.193 73.3406 172.498 72.4559C172.662 71.9773 172.498 71.5176 172.246 71.0831C171.478 69.7482 170.631 68.4731 169.639 67.2956C167.996 65.3467 166.185 63.5678 164.142 62.0345C164.066 61.9778 164 61.9086 163.941 61.855C165.168 59.3835 166.362 56.9844 167.593 54.5097C168.518 55.0796 169.463 55.6022 170.344 56.2099C178.137 61.5937 184.859 68.0638 190.164 75.9443C192.755 79.7917 194.902 83.891 196.845 88.0973C200.195 95.3513 202.446 102.93 203.627 110.829C204.423 116.15 204.886 121.496 204.741 126.886C204.666 129.742 204.379 132.582 203.951 135.406C203.872 135.925 203.794 136.442 203.709 137.002C202.871 136.797 202.087 136.599 201.3 136.41C198.68 135.781 196.02 135.459 193.334 135.296C190.772 135.141 188.206 135.132 185.64 135.267C181.078 135.507 176.685 136.533 172.382 138.022C169.879 138.891 167.634 140.188 165.631 141.914C165.071 142.395 164.539 142.937 164.104 143.529C162.804 145.295 162.53 147.253 163.223 149.328C163.717 150.811 164.589 152.067 165.675 153.179C167.451 155.002 169.614 156.227 171.944 157.162C175.121 158.434 178.445 159.145 181.821 159.639C185.706 160.212 189.616 160.25 193.523 160.033C198.268 159.769 202.899 158.925 207.247 156.891C207.789 156.639 208.327 156.371 208.85 156.079C209.184 155.89 209.461 155.836 209.848 155.997C211.945 156.859 213.906 157.949 215.701 159.331C216.51 159.954 217.14 160.738 217.618 161.642H217.625ZM198.857 127.346C198.904 125.576 199.005 123.801 198.958 122.031C198.913 120.372 198.583 118.747 197.878 117.224C197.081 115.498 195.872 114.198 194.077 113.499C192.302 112.806 190.495 112.706 188.653 113.228C186.027 113.974 184.028 115.555 182.435 117.737C180.624 120.218 179.743 123.058 179.119 126.008C179.066 126.266 179.012 126.527 179.009 126.789C178.996 127.519 179.472 128.127 180.133 128.262C180.857 128.41 181.531 128.051 181.814 127.349C181.884 127.173 181.924 126.981 181.969 126.795C182.224 125.775 182.441 124.739 182.74 123.731C183.398 121.512 184.481 119.516 186.175 117.919C187.639 116.537 189.38 115.728 191.445 115.882C192.991 115.996 194.244 116.638 195.003 118.08C195.409 118.851 195.721 119.66 195.815 120.52C195.976 121.993 196.07 123.476 196.193 124.953C196.159 124.953 196.127 124.959 196.092 124.962C196.067 125.296 196.045 125.633 196.02 125.967C195.995 126.326 195.97 126.685 195.951 127.044C195.941 127.236 195.929 127.428 195.944 127.617C196.004 128.309 196.489 128.838 197.154 128.948C197.799 129.055 198.448 128.69 198.706 128.045C198.794 127.828 198.847 127.582 198.857 127.349V127.346ZM166.922 128.917C166.995 128.253 166.998 127.579 167.035 126.792C166.944 125.948 166.884 124.991 166.733 124.046C166.422 122.094 165.915 120.202 164.822 118.514C163.021 115.738 160.364 114.573 157.165 114.68C154.643 114.765 152.427 115.785 150.553 117.491C148.759 119.125 147.323 121.017 146.341 123.25C145.528 125.095 145.151 127.037 144.927 129.021C144.839 129.811 145.317 130.463 146.051 130.639C146.756 130.809 147.484 130.397 147.745 129.644C147.839 129.377 147.88 129.087 147.912 128.804C148.29 125.337 149.684 122.371 152.219 119.947C153.305 118.911 154.546 118.203 155.988 117.809C158.374 117.154 161.579 117.963 162.87 121.071C163.541 122.683 163.896 124.361 164.004 126.093C164.057 126.974 164.004 127.865 164.019 128.75C164.035 129.651 164.589 130.258 165.392 130.296C166.211 130.334 166.821 129.808 166.919 128.907L166.922 128.917ZM136.958 89.4512C138.696 86.6144 138.999 83.5573 138.318 80.3679C137.695 77.4493 136.329 74.8739 134.462 72.5755C130.715 67.9693 126.194 64.2479 121.115 61.2002C117.073 58.7727 112.674 57.2174 108.106 56.1217C104.747 55.3189 101.346 54.9222 97.9082 55.4354C94.6464 55.9202 91.8349 57.3024 89.6687 59.8589C87.7891 62.0723 86.6966 64.6477 86.1582 67.4782C85.5159 70.8596 85.327 74.2819 85.2672 78.4536C85.3113 79.3919 85.3396 81.0731 85.4781 82.745C85.9504 88.4059 87.1122 93.9314 88.847 99.3404C89.5365 101.491 90.333 103.597 91.4539 105.562C91.6302 105.867 91.8412 106.176 92.1025 106.409C92.5968 106.853 93.3083 106.859 93.8373 106.497C94.341 106.151 94.5709 105.521 94.3882 104.91C94.3221 104.683 94.1962 104.472 94.0923 104.258C93.6452 103.33 93.1163 102.432 92.7636 101.469C92.0647 99.5577 91.4098 97.6277 90.8368 95.6756C89.5113 91.1513 88.6896 86.5294 88.3621 81.8288C88.0756 77.7263 88.233 73.6302 88.7935 69.553C89.017 67.9126 89.3633 66.2943 90.0465 64.7705C91.4161 61.7197 93.5759 59.5378 96.8787 58.6783C97.8704 58.4201 98.9031 58.2627 99.9232 58.2028C103.094 58.0139 106.163 58.6373 109.214 59.4528C114.948 60.9829 120.146 63.5615 124.771 67.2798C127.277 69.2948 129.711 71.3948 131.76 73.8947C133.108 75.5413 134.238 77.3108 134.962 79.3195C136.137 82.5781 136.02 85.7171 134.03 88.6641C133.656 89.2182 133.272 89.7692 132.887 90.3201C132.415 91.0002 132.453 91.7653 132.991 92.2879C133.549 92.8263 134.373 92.842 135.009 92.2879C135.261 92.0707 135.485 91.8062 135.668 91.5291C136.118 90.8491 136.54 90.1501 136.965 89.4575L136.958 89.4512ZM123.662 88.0501C125.104 85.5943 125.75 82.9591 125.293 80.116C124.994 78.2521 124.302 76.5048 123.398 74.8644C121.339 71.1209 118.408 68.4636 114.094 67.5758C112.81 67.3113 111.513 67.1728 110.247 67.5348C108.531 68.0291 106.919 68.7124 105.855 70.2992C102.146 75.831 100.279 81.9264 100.15 89.1048C100.21 89.8195 100.273 91.0663 100.43 92.3005C100.594 93.6103 100.909 94.8948 101.535 96.0755C102.363 97.634 103.632 98.5942 105.376 98.9248C106.611 99.1578 107.813 99.0035 108.997 98.6541C113.036 97.4577 116.623 95.4395 119.758 92.6279C121.267 91.2773 122.633 89.8038 123.666 88.047L123.662 88.0501Z" fill="#FFC2C2"/>
<path d="M210.956 145.421C211.989 147.612 211.715 149.882 209.949 151.639C209.31 152.275 208.567 152.839 207.789 153.292C205.195 154.791 202.393 155.745 199.455 156.324C194.594 157.284 189.689 157.404 184.774 157.004C180.794 156.68 176.896 155.908 173.153 154.469C171.601 153.871 170.149 153.087 168.836 152.064C167.766 151.227 166.869 150.238 166.274 149.004C165.48 147.36 165.682 145.95 166.991 144.668C168.603 143.091 170.467 141.876 172.586 141.089C177.243 139.354 182.035 138.252 187.028 138.154C187.459 138.145 187.891 138.113 188.322 138.104C188.659 138.094 188.993 138.104 189.33 138.104C193.634 138.145 197.903 138.463 202.068 139.637C204.175 140.229 206.199 141.032 208.047 142.228C209.297 143.037 210.317 144.054 210.963 145.424L210.956 145.421ZM205.692 149.778C206.945 148.5 206.904 146.718 205.598 145.503C204.952 144.904 204.206 144.483 203.362 144.25C200.73 143.525 198.233 143.966 195.844 145.172C195.195 145.5 194.666 145.997 194.298 146.639C193.763 147.574 193.772 148.509 194.339 149.432C194.795 150.175 195.46 150.666 196.259 150.99C197.39 151.45 198.577 151.563 199.597 151.582C201.086 151.576 202.358 151.381 203.605 151.003C204.395 150.764 205.11 150.376 205.692 149.781V149.778ZM187.749 150.194C189.515 148.443 189.352 145.736 187.403 144.193C186.849 143.752 186.225 143.44 185.545 143.277C182.627 142.575 179.884 143.025 177.328 144.593C176.449 145.131 175.795 145.893 175.376 146.841C174.737 148.292 175.096 149.791 176.314 150.795C176.893 151.274 177.545 151.623 178.263 151.847C179.346 152.187 180.454 152.366 181.597 152.385C182.334 152.3 183.077 152.253 183.807 152.127C185.303 151.866 186.654 151.271 187.746 150.191L187.749 150.194Z" fill="#DBA2A2"/>
<path d="M206.508 71.7116C207.984 72.0642 208.488 72.9741 208.158 74.4601C207.95 75.3984 207.622 76.2957 207.122 77.1269C206.19 78.6728 205.17 80.1494 203.923 81.456C202.484 82.9641 201.004 84.4376 199.54 85.9236C199.458 86.0055 199.361 86.0685 199.219 86.1787C197.28 82.1235 195.199 78.2005 192.718 74.4444C192.916 74.3342 193.051 74.246 193.199 74.1799C196.65 72.6592 200.246 71.699 204.017 71.4754C204.842 71.4282 205.702 71.5163 206.505 71.7084L206.508 71.7116Z" fill="#DBA2A2"/>
<path d="M205.598 145.503C206.904 146.719 206.945 148.501 205.692 149.779C205.11 150.374 204.395 150.761 203.605 151.001C202.358 151.378 201.083 151.574 199.597 151.58C198.576 151.561 197.39 151.448 196.259 150.988C195.46 150.664 194.795 150.173 194.339 149.43C193.772 148.507 193.763 147.575 194.298 146.637C194.666 145.995 195.195 145.497 195.844 145.17C198.236 143.964 200.733 143.523 203.362 144.247C204.209 144.48 204.955 144.902 205.598 145.5V145.503Z" fill="black"/>
<path d="M202.373 212.05C202.436 212.9 202.392 213.785 202.241 214.623C201.832 216.883 200.302 218.262 197.94 218.643C195.837 218.983 193.785 218.709 191.757 218.133C188.004 217.069 184.575 215.334 181.402 213.089C176.55 209.651 172.287 205.615 168.94 200.666C168.417 199.891 167.958 199.076 167.482 198.27C167.237 197.857 167.02 197.432 166.774 196.988C167.744 196.198 168.647 195.461 169.649 194.646C169.756 194.646 170.017 194.633 170.278 194.646C173.42 194.831 176.556 194.797 179.686 194.441C183.118 194.054 186.395 193.116 189.544 191.686C191.779 190.669 193.895 189.463 195.831 187.949C195.944 187.861 196.064 187.782 196.221 187.672C197.559 189.766 199.206 191.544 201.353 192.983C201.105 193.172 200.909 193.33 200.705 193.471C199.486 194.321 198.265 195.168 197.043 196.018C196.826 196.17 196.606 196.314 196.404 196.484C195.727 197.051 195.557 197.848 196.01 198.613C196.325 199.145 196.716 199.639 197.094 200.133C198.312 201.739 199.508 203.354 200.399 205.177C201.46 207.35 202.197 209.626 202.377 212.044L202.373 212.05Z" fill="#7A8125"/>
<path d="M198.957 122.034C199.005 123.803 198.907 125.576 198.857 127.348C198.85 127.581 198.794 127.827 198.706 128.044C198.447 128.689 197.799 129.055 197.153 128.948C196.489 128.837 196.004 128.312 195.944 127.616C195.929 127.427 195.944 127.232 195.951 127.043C195.97 126.684 195.995 126.325 196.02 125.966C196.042 125.632 196.067 125.295 196.092 124.962C196.127 124.962 196.158 124.955 196.193 124.952C196.07 123.476 195.976 121.993 195.815 120.519C195.721 119.66 195.409 118.851 195.003 118.079C194.247 116.637 192.991 115.995 191.445 115.882C189.38 115.727 187.639 116.54 186.175 117.919C184.481 119.515 183.398 121.511 182.74 123.731C182.441 124.738 182.223 125.771 181.968 126.794C181.921 126.98 181.883 127.169 181.814 127.348C181.531 128.05 180.857 128.412 180.133 128.261C179.472 128.126 178.996 127.518 179.009 126.788C179.012 126.527 179.066 126.262 179.119 126.007C179.742 123.057 180.624 120.217 182.434 117.736C184.028 115.554 186.027 113.974 188.653 113.227C190.494 112.705 192.298 112.806 194.077 113.498C195.872 114.2 197.081 115.497 197.878 117.223C198.583 118.75 198.913 120.374 198.957 122.031V122.034Z" fill="black"/>
<path d="M191.622 169.58C191.811 170.301 191.713 170.987 191.574 171.661C191.222 173.37 190.397 174.85 189.245 176.135C187.327 178.276 184.897 179.633 182.233 180.618C182.129 180.656 182.016 180.659 181.754 180.7C183.388 176.991 184.33 173.2 185.019 169.318C187.248 169.407 189.418 169.492 191.622 169.58Z" fill="#F5DEBB"/>
<path d="M187.4 144.192C189.349 145.735 189.515 148.443 187.746 150.193C186.653 151.276 185.303 151.872 183.807 152.13C183.077 152.256 182.334 152.303 181.597 152.388C180.454 152.366 179.346 152.186 178.263 151.849C177.545 151.626 176.893 151.276 176.314 150.798C175.096 149.794 174.737 148.292 175.376 146.843C175.795 145.896 176.449 145.134 177.328 144.595C179.881 143.028 182.627 142.58 185.545 143.279C186.225 143.443 186.846 143.755 187.403 144.196L187.4 144.192Z" fill="black"/>
<path d="M182.041 169.125C181.317 173.436 180.142 177.557 178.08 181.518C174.84 181.88 171.503 181.697 168.062 181.335C170.074 177.028 171.383 172.582 172.404 168.023C175.621 168.389 178.795 168.754 182.044 169.125H182.041Z" fill="#F5DEBB"/>
<path d="M167.983 40.0156C168.402 40.3179 168.462 40.6138 168.405 41.0956C167.719 46.7785 165.593 51.9703 163.094 57.0487C161.104 61.0882 158.607 64.8065 155.997 68.4555C155.427 69.2521 154.826 70.0361 154.007 70.6532C152.32 69.1576 150.689 67.7125 149.03 66.2453C149.061 66.1855 149.089 66.0942 149.146 66.0249C152.143 62.1555 154.609 57.9744 156.438 53.4312C157.565 50.6322 158.695 47.8269 159.467 44.8989C160.159 42.2668 160.6 39.6 160.569 36.8703C160.562 36.3225 160.496 35.7715 160.458 35.2206C160.446 35.0159 160.433 34.8113 160.417 34.5059C160.676 34.6727 160.855 34.7798 161.022 34.8994C163.339 36.6059 165.647 38.3249 167.98 40.0093L167.983 40.0156Z" fill="#7A8125"/>
<path d="M169.403 167.581C169.126 170.626 166.434 178.431 164.803 180.855C160.027 180.033 155.459 178.613 151.057 176.579C153.271 172.716 155.229 168.803 156.718 164.615C158.824 165.157 160.915 165.739 163.028 166.234C165.143 166.728 167.278 167.137 169.4 167.581H169.403Z" fill="#F5DEBB"/>
<path d="M167.036 126.791C166.995 127.578 166.995 128.252 166.922 128.916C166.821 129.817 166.214 130.342 165.395 130.305C164.592 130.267 164.038 129.659 164.023 128.759C164.007 127.871 164.063 126.983 164.007 126.101C163.9 124.37 163.544 122.692 162.873 121.08C161.582 117.972 158.377 117.163 155.991 117.818C154.552 118.211 153.308 118.917 152.222 119.956C149.684 122.38 148.29 125.343 147.915 128.812C147.884 129.096 147.843 129.385 147.748 129.653C147.484 130.405 146.76 130.815 146.054 130.648C145.321 130.472 144.842 129.82 144.93 129.03C145.151 127.046 145.532 125.103 146.344 123.258C147.326 121.026 148.762 119.134 150.557 117.5C152.43 115.793 154.646 114.773 157.168 114.688C160.367 114.581 163.024 115.746 164.825 118.523C165.918 120.208 166.422 122.103 166.736 124.055C166.888 125 166.951 125.957 167.039 126.8L167.036 126.791Z" fill="black"/>
<path d="M157.121 33.4843C157.694 35.5623 157.713 37.6434 157.474 39.756C157.086 43.1437 155.994 46.33 154.832 49.5131C153.129 54.1822 150.893 58.5585 148.038 62.6232C147.6 63.2434 147.122 63.8385 146.63 64.4871C141.492 60.8789 136.011 58.0705 130.177 55.9327C130.189 55.7973 130.18 55.7029 130.205 55.6147C131.093 52.5009 132.009 49.3997 133.394 46.4622C135.359 42.2937 137.831 38.462 140.929 35.0396C142.39 33.4276 144.039 32.0455 145.887 30.9152C147.792 29.7503 149.848 29.1174 152.118 29.3724C154.269 29.6117 156.428 30.9719 157.124 33.4875L157.121 33.4843Z" fill="#B4BD57"/>
<path d="M153.161 204.208C152.691 208.657 152.928 213.002 153.441 217.403C151.438 218.442 149.426 219.264 147.26 219.648C144.102 220.205 140.923 220.325 137.733 219.982C136.209 219.818 134.689 219.623 133.18 219.362C131.984 219.154 130.791 218.858 129.812 217.954C130.293 216.462 131.011 215.039 131.886 213.691C132.516 212.718 133.25 211.84 134.144 211.097C134.235 211.021 134.355 210.955 134.408 210.855C134.742 210.203 135.375 210.058 136.001 209.894C141.615 208.421 147.081 206.497 152.496 204.419C152.688 204.347 152.887 204.293 153.164 204.205L153.161 204.208Z" fill="#DBA2A2"/>
<path d="M150.673 162.783C151.788 162.884 152.801 163.372 153.922 163.721C152.433 167.773 150.585 171.589 148.4 175.226C146.612 174.612 143.079 172.238 142.046 170.947C145.396 168.718 148.4 166.187 150.673 162.783Z" fill="#F5DEBB"/>
<path d="M138.319 80.368C138.999 83.5574 138.696 86.6177 136.958 89.4513C136.533 90.1439 136.111 90.8429 135.661 91.523C135.479 91.8 135.255 92.0613 135.003 92.2817C134.367 92.8359 133.542 92.8201 132.985 92.2817C132.45 91.7622 132.409 90.994 132.881 90.314C133.262 89.763 133.649 89.2151 134.024 88.6579C136.014 85.7109 136.13 82.5719 134.956 79.3133C134.232 77.3046 133.102 75.5352 131.754 73.8885C129.704 71.3886 127.271 69.2886 124.764 67.2736C120.139 63.5553 114.941 60.9799 109.208 59.4466C106.157 58.6311 103.087 58.0078 99.9169 58.1967C98.8968 58.2565 97.861 58.4139 96.8724 58.6721C93.5697 59.5316 91.4067 61.7135 90.0403 64.7643C89.3571 66.2882 89.0107 67.9065 88.7872 69.5468C88.2268 73.624 88.0693 77.7202 88.3558 81.8226C88.6864 86.5232 89.505 91.1483 90.8305 95.6695C91.4035 97.6215 92.0616 99.5515 92.7574 101.463C93.11 102.426 93.6358 103.323 94.086 104.252C94.1899 104.466 94.3127 104.677 94.382 104.904C94.5646 105.515 94.3347 106.144 93.831 106.491C93.3021 106.856 92.5905 106.846 92.0962 106.403C91.8349 106.17 91.6208 105.861 91.4476 105.556C90.3236 103.588 89.5302 101.481 88.8407 99.3343C87.1059 93.9284 85.9441 88.4028 85.4719 82.7388C85.3333 81.067 85.305 79.3857 85.2609 78.4475C85.3239 74.2758 85.5097 70.8534 86.1519 67.472C86.6903 64.6415 87.7828 62.0661 89.6625 59.8527C91.8286 57.2962 94.6401 55.9172 97.9019 55.4292C101.343 54.916 104.744 55.3127 108.1 56.1155C112.668 57.2112 117.063 58.7665 121.109 61.194C126.188 64.2385 130.709 67.96 134.455 72.5693C136.326 74.8677 137.692 77.4431 138.312 80.3617L138.319 80.368Z" fill="black"/>
<path d="M125.293 80.1188C125.75 82.9619 125.108 85.5971 123.662 88.0529C122.633 89.8066 121.263 91.2832 119.755 92.6339C116.616 95.4455 113.033 97.4636 108.994 98.66C107.81 99.0127 106.607 99.1669 105.373 98.9308C103.629 98.6002 102.36 97.6399 101.532 96.0815C100.906 94.9008 100.594 93.6162 100.427 92.3065C100.273 91.0723 100.21 89.8255 100.147 89.1108C100.276 81.9324 102.143 75.837 105.852 70.3051C106.916 68.7183 108.531 68.0351 110.244 67.5408C111.51 67.1756 112.807 67.3173 114.091 67.5817C118.405 68.4696 121.339 71.1269 123.395 74.8704C124.298 76.5139 124.988 78.2581 125.29 80.122L125.293 80.1188ZM120.904 86.9006C122.34 84.7187 122.888 82.3322 122.202 79.7662C121.644 77.6851 120.697 75.7929 119.355 74.0833C117.608 71.8573 115.307 70.6704 112.564 70.3051C110.691 70.0564 109.098 70.8057 108.084 72.3201C104.8 77.2317 103.191 82.688 103.109 89.0321C103.15 89.5799 103.15 90.5685 103.308 91.5351C103.465 92.5237 103.692 93.5186 104.038 94.4506C104.473 95.6249 105.474 96.1759 106.714 96.0846C107.095 96.0563 107.479 96.0028 107.848 95.9083C110.288 95.2818 112.523 94.1987 114.633 92.8449C117.095 91.258 119.286 89.3658 120.908 86.9006H120.904Z" fill="black"/>
<path d="M122.202 79.7668C122.888 82.3327 122.34 84.7193 120.905 86.9011C119.283 89.3695 117.095 91.2586 114.63 92.8454C112.52 94.2024 110.285 95.2823 107.845 95.9088C107.477 96.0033 107.093 96.0568 106.712 96.0851C105.471 96.1764 104.47 95.6286 104.035 94.4511C103.689 93.516 103.465 92.5211 103.305 91.5356C103.151 90.5691 103.147 89.5805 103.107 89.0326C103.188 82.6854 104.797 77.2291 108.081 72.3207C109.095 70.8063 110.688 70.0538 112.561 70.3057C115.304 70.6709 117.608 71.8579 119.353 74.0838C120.694 75.7934 121.641 77.6856 122.199 79.7668H122.202Z" fill="#DBA2A2"/>
<path d="M107.397 28.7951C107.536 28.9179 107.64 29.0785 107.819 29.2926C97.2941 33.8137 86.8349 38.3066 76.3191 42.8246C75.4785 40.5262 74.5875 38.3318 73.3816 36.2821C72.1852 34.2451 70.8471 32.3277 68.8164 30.8101C69.1218 30.6905 69.3485 30.596 69.5814 30.5142C75.8437 28.3197 82.106 26.1284 88.3651 23.9339C89.0451 23.6978 89.7472 23.5152 90.3958 23.2098C91.7843 22.5549 93.2168 22.621 94.684 22.7816C98.6762 23.2192 102.19 24.8375 105.433 27.1138C106.135 27.605 106.749 28.2253 107.397 28.7951Z" fill="#B4BD57"/>
<path d="M84.663 42.4946C84.112 45.5643 84.3418 48.5144 85.1951 51.5149C76.5116 56.2344 68.7287 62.2385 61.9501 69.5334C61.1913 68.8943 60.4766 68.2929 59.7682 67.6853C59.6675 67.5971 59.5762 67.4712 59.5321 67.3452C58.5812 64.4991 57.8571 61.6025 57.4447 58.6272C56.7772 53.8132 56.5127 48.9898 57.0857 44.1444C57.4541 41.0211 58.4585 38.1308 60.2279 35.5145C60.952 34.444 61.8304 33.553 62.9702 32.9264C64.1383 32.281 65.2969 32.2842 66.4744 32.8792C67.4347 33.3672 68.1997 34.0819 68.8735 34.9068C70.4855 36.8746 71.6599 39.0911 72.6139 41.4335C72.9822 42.3434 73.3034 43.2722 73.6403 44.1947C73.7221 44.4183 73.7945 44.6481 73.8795 44.8716C74.3644 46.172 75.1421 46.5214 76.4109 45.9862C78.0859 45.2778 79.7577 44.5537 81.4295 43.8358C82.3079 43.458 83.1895 43.077 84.0711 42.7055C84.2379 42.6331 84.4111 42.5827 84.6535 42.5009L84.663 42.4946Z" fill="#7A8125"/>
<path d="M68.2406 87.2473C68.4641 88.639 68.5334 90.0558 68.6719 91.46C68.5082 95.0114 67.5385 98.2826 65.5424 101.217C63.562 104.126 60.8166 105.804 57.2809 106.028C55.587 106.135 53.9372 105.741 52.3504 105.181C47.7096 103.544 43.7331 100.953 40.613 97.0862C37.8707 93.6859 35.7329 89.977 34.5711 85.7487C33.8438 83.1008 33.4786 80.39 33.6266 77.6383C33.8123 74.153 35.0119 71.0108 37.2662 68.3661C38.6452 66.7478 40.402 65.4821 42.5871 65.1767C43.8527 65.0004 45.1782 65.0193 46.4534 65.1547C52.5865 65.8064 57.4351 68.8793 61.5092 73.3438C65.1268 77.3108 67.3968 81.9422 68.2437 87.2473H68.2406Z" fill="#B4BD57"/>
<path d="M55.5648 108.928C55.3349 109.117 55.209 109.239 55.0642 109.337C53.0082 110.703 50.9429 112.057 48.8964 113.436C48.5532 113.666 48.2541 113.666 47.892 113.556C45.9116 112.955 44.0289 112.139 42.1902 111.195C39.9076 110.02 37.6375 108.821 35.6194 107.218C33.0723 105.194 30.7204 102.952 28.951 100.213C25.686 95.1658 23.9292 89.6245 23.9922 83.5701C24.0079 81.8636 24.2409 80.176 24.5967 78.5074C24.6502 78.2492 24.8076 77.9564 25.0123 77.7958C27.0777 76.1555 29.1588 74.5372 31.2399 72.9157C31.2745 72.8905 31.3281 72.8874 31.4477 72.8496C31.4477 72.9661 31.4666 73.0385 31.4477 73.1015C30.4433 76.3381 30.4906 79.6219 30.9943 82.9278C32.197 90.7957 35.9878 97.2658 41.8376 102.533C45.241 105.597 49.2899 107.558 53.7576 108.613C54.0378 108.679 54.3211 108.726 54.6045 108.777C54.8816 108.824 55.1586 108.865 55.5648 108.928Z" fill="#7A8125"/>
</svg>
