<?xml version="1.0" encoding="UTF-8"?>
<svg id="Livello_1" data-name="Livello 1" xmlns="http://www.w3.org/2000/svg" viewBox="0 0 725.65 786.84">
  <defs>
    <style>
      .cls-1, .cls-2, .cls-3, .cls-4, .cls-5 {
        stroke-width: 0px;
      }

      .cls-2 {
        fill: #f96a69;
      }

      .cls-3 {
        fill: #7a8019;
      }

      .cls-4 {
        fill: #b4bb4f;
      }

      .cls-5 {
        fill: #ffc2c2;
      }
    </style>
  </defs>
  <path class="cls-1" d="M725.65,232.53v4.23c-.21,1.37-.51,2.73-.6,4.1-.57,9.24-1.08,18.5-1.65,27.74-.23,3.63-.53,7.25-.8,10.88-.62,8.18-1.27,16.37-1.86,24.56-.57,7.84-1.07,15.68-1.65,23.51-.58,7.95-1.24,15.9-1.82,23.85-.58,7.95-1.09,15.91-1.67,23.87-.9,12.51-1.83,25.02-2.75,37.54-.28,3.74-.53,7.49-.82,11.23-.61,7.95-1.25,15.9-1.83,23.85-.58,7.95-1.07,15.91-1.65,23.87-.81,10.99-1.71,21.98-2.52,32.97-.82,11.22-1.57,22.46-2.36,33.69-.26,3.74-.55,7.48-.83,11.23-.61,8.07-1.24,16.13-1.83,24.2-.57,7.84-1.07,15.68-1.65,23.51-.59,7.95-1.26,15.9-1.83,23.85-.58,7.95-1.07,15.91-1.65,23.87-.9,12.51-1.83,25.02-2.76,37.54-.29,3.97-.59,7.95-.89,11.93-.59,7.84-1.18,15.67-1.76,23.5-.46,6.08-.92,12.16-1.34,18.24-.18,2.55-1.12,4.64-2.84,6.61-11.26,12.89-22.43,25.87-33.61,38.84-1.6,1.85-3.24,3.66-5.22,5.11h-1.41c-3.82-1.19-7.8-1.47-11.72-2.06-6.26-.94-12.53-1.8-18.8-2.67-5.8-.8-11.61-1.56-17.42-2.36s-11.6-1.65-17.4-2.47c-5.68-.8-11.37-1.6-17.06-2.4-6.15-.87-12.29-1.74-18.45-2.6-5.57-.78-11.15-1.5-16.71-2.34-3.46-.52-5.11-3.2-3.84-6.39.59-1.48.8-2.92.79-4.44-.02-2.54.15-5.09,0-7.57-1.29-.35-1.7.55-2.25,1.06-4.49,4.13-9.04,8.21-13.36,12.51-2.35,2.33-4.91,2.83-8.01,2.36-6.02-.92-12.07-1.67-18.11-2.52-7.54-1.07-15.08-2.19-22.62-3.25-5.8-.82-11.62-1.55-17.42-2.36-5.8-.81-11.59-1.7-17.39-2.52-4.18-.59-8.36-1.16-12.55-1.68-4.43-.55-7.07-3.41-7.23-7.96-.12-3.17-.22-6.33-.35-9.5-.03-.77-.18-1.55-.27-2.29-1.17-.05-1.61.73-2.19,1.27-3.8,3.49-7.64,6.95-11.36,10.53-1.69,1.63-3.47,2.09-5.75,1.69-4.73-.83-9.49-1.48-14.25-2.15-6.03-.86-12.07-1.67-18.11-2.5-6.04-.83-12.08-1.63-18.11-2.46-5.92-.81-11.84-1.65-17.76-2.46-6.04-.83-12.08-1.64-18.11-2.46-6.97-.95-13.94-1.87-20.9-2.86-2.65-.38-5.01-3.05-5.2-5.88-.26-4.1-.42-8.2-.62-12.3-.05-.92-.11-1.83-.17-2.7-1.15-.33-1.65.49-2.23.97-6.63,5.41-13.24,10.85-19.84,16.31-1.34,1.1-2.75,1.58-4.54,1.31-11.01-1.65-22.03-3.21-33.05-4.81-11.25-1.63-22.5-3.28-33.74-4.92-4.87-.71-9.74-1.4-14.6-2.14-1.74-.26-3.42-.64-4.93-1.72-1.56-1.11-2.42-2.44-2.48-4.37-.09-2.58-.33-5.15-.46-7.73-.57-10.9-1.1-21.8-1.69-32.69-.57-10.66-1.2-21.32-1.8-31.98-.27-4.8-.53-9.61-.78-14.41-.56-11.02-1.08-22.04-1.68-33.05-.81-15-1.7-29.99-2.52-44.99-.58-10.78-1.08-21.56-1.66-32.34-.43-8.08-.92-16.15-1.76-24.32-.31.91-.7,1.8-.93,2.74-6.86,28-13.71,56.01-20.55,84.02-2.61,10.7-5.28,21.39-7.79,32.11-.8,3.41-2.55,5.87-5.43,7.83-13.98,9.47-27.96,18.95-41.81,28.6-2.99,2.09-5.96,2.44-9.3,1.71-8.36-1.81-16.71-3.61-25.07-5.44-9.5-2.07-18.99-4.16-28.48-6.27-1.25-.28-2.5-.67-3.65-1.21-2.01-.96-2.9-2.72-2.51-4.92.2-1.15.61-2.27.96-3.38,8.97-27.8,17.95-55.59,26.92-83.38,28.12-87.09,56.24-174.18,84.34-261.27.75-2.33,1.79-4.57,2.17-7.04.2-1.32,1.24-2.24,2.47-2.8.64-.29,1.32-.48,1.99-.7,12.83-4.13,25.66-8.26,38.5-12.37,1-.32,2.03-.56,3.05-.83,2.26-.58,4.16-.05,5.68,1.77,1.05,1.26,2.17,2.46,3.26,3.69,8.97,10.07,17.95,20.15,26.92,30.22.69.78,1.43,1.53,2.35,2.52.42-.72.83-1.24,1.06-1.83,7.45-18.86,14.89-37.72,22.32-56.59,8.97-22.8,17.93-45.6,26.9-68.39.34-.87.75-1.73,1.04-2.61.76-2.28,2.22-3.64,4.56-4.46,9.39-3.3,18.72-6.78,28.08-10.17,4.18-1.52,8.36-3.04,12.57-4.48,1.08-.38,2.26-.68,3.4-.68,2.33,0,4.17.92,5.7,2.88,6.44,8.22,13.02,16.33,19.54,24.48,9.01,11.26,18.02,22.53,27.04,33.79.51.63,1.06,1.23,1.78,2.07.89-1.27,1.71-2.35,2.44-3.5,9.73-15.22,19.44-30.45,29.14-45.69,1.01-1.6,2.14-3.06,3.64-4.25,1.13-.9,2.35-1.49,3.76-1.8,13.62-2.96,27.23-5.95,40.85-8.91,3.82-.84,6.5.57,8.14,4.27,8.12,18.46,16.24,36.91,24.34,55.37,2.83,6.44,5.65,12.88,8.48,19.32.28.64.61,1.25.97,1.98,1.33-.61,1.85-1.84,2.58-2.83,12.07-16.31,24.12-32.64,36.16-48.97,13.92-18.88,27.84-37.76,41.76-56.65.82-1.12,1.62-2.25,2.59-3.59-1.24-.71-2.23-1.3-3.25-1.85-12.85-7.04-25.7-14.07-38.55-21.11-1.03-.56-2.1-1.07-3.05-1.75-2.54-1.82-2.73-5.25-.36-7.26,1.06-.9,2.32-1.59,3.56-2.23,24.77-12.82,49.55-25.63,74.34-38.42,21.66-11.18,43.34-22.33,65.01-33.5,2.39-1.23,4.73-2.54,7.16-3.7.93-.45,2.01-.66,3.04-.84,10.61-1.9,21.22-3.76,31.83-5.63.58-.1,1.17-.14,1.75-.2,4.52-.47,7.23,1.74,7.47,6.22.31,5.97.54,11.96.84,17.93.37,7.62.76,15.23,1.14,22.85.27,5.51.56,11.01.81,16.52.56,12.07,1.08,24.15,1.67,36.22.57,11.72,1.21,23.44,1.79,35.16.18,3.63.29,7.27.43,10.91.14,3.5-1.47,6.35-4.64,7.95-4.19,2.11-8.42,4.12-12.63,6.18-11.37,5.56-22.76,11.08-34.1,16.7-2.81,1.39-5.36,1.29-7.91-.53-5.43-3.89-10.89-7.76-16.34-11.63-.94-.67-1.92-1.29-2.84-1.9-2.41,2.21-53.99,65.73-61.34,75.5-.18.24-.23.58-.41,1.02,1.4.08,2.31-.74,3.28-1.24,7.2-3.68,14.37-7.43,21.55-11.15.41-.22.85-.4,1.25-.64,2.59-1.55,5.35-1.98,8.4-1.88,15.12.54,30.26.89,45.39,1.33,13.72.4,27.44.85,41.16,1.26,8.68.26,17.36.49,26.04.73.47,0,.95-.02,1.41.05,1.75.28,3.04,1.14,3.52,2.96.17.66.46,1.3.69,1.94ZM715.64,245.94c.04-.61.34-1.38-.54-1.9-.37.18-.81.34-1.18.59-13.43,9.02-26.85,18.07-40.3,27.07-1.3.87-1.87,1.92-1.92,3.48-.23,6.8-.57,13.6-.84,20.4-.33,8.32-.62,16.65-.96,24.98-.23,5.86-.5,11.72-.76,17.58-.6,13.48-1.22,26.96-1.79,40.44-.35,8.2-.62,16.41-.95,24.62-.23,5.98-.5,11.96-.76,17.93-.63,14.3-1.28,28.6-1.89,42.9-.33,7.73-.59,15.48-.92,23.21-.58,13.36-1.22,26.72-1.79,40.09-.6,14.07-1.13,28.14-1.69,42.2-.24,5.98-.51,11.96-.77,17.94-.6,13.59-1.22,27.19-1.81,40.79-.35,8.2-.62,16.41-.95,24.62-.23,5.98-.49,11.96-.76,17.93-.6,13.6-1.23,27.19-1.82,40.79-.35,8.09-.61,16.18-.95,24.27-.31,7.39-.71,14.77-1.03,22.15-.15,3.39-.21,6.79-.34,11.04,1-.92,1.45-1.26,1.81-1.68,1.93-2.21,3.83-4.44,5.75-6.66,6.52-7.54,13.04-15.09,19.59-22.6,1.21-1.38,1.83-2.83,1.92-4.72.23-4.69.74-9.36,1.08-14.03.97-12.98,1.91-25.97,2.85-38.96.93-12.75,1.87-25.5,2.78-38.26.81-11.35,1.59-22.7,2.39-34.05.25-3.63.53-7.25.8-10.88.6-7.84,1.22-15.67,1.8-23.51.59-8.07,1.11-16.15,1.69-24.22.9-12.52,1.82-25.03,2.73-37.55.27-3.74.54-7.49.82-11.23.64-8.54,1.28-17.08,1.91-25.62.54-7.49,1.06-14.98,1.61-22.46.64-8.77,1.31-17.55,1.95-26.32.53-7.25,1.02-14.51,1.56-21.76.6-7.95,1.25-15.9,1.83-23.86.58-7.95,1.07-15.92,1.65-23.87.9-12.52,1.83-25.03,2.75-37.55.29-3.86.58-7.72.86-11.58.63-8.54,1.26-17.08,1.89-25.62.35-4.68.7-9.36,1.05-14.04.55-7.37,1.12-14.74,1.64-22.11ZM706.34,238.37c.54-.37,1.01-.83,1.76-1.44-2-.69-3.76-.59-5.49-.64-17.47-.51-34.95-1.01-52.42-1.48-14.31-.38-28.61-.71-42.93-1.09-1.69-.05-3.2.27-4.72,1.06-15.7,8.17-31.42,16.3-47.13,24.44-.58.3-1.4.37-1.33,1.41.69.05,1.39.12,2.09.15,5.5.27,11.01.53,16.52.8,7.96.39,15.93.81,23.89,1.19,6.56.31,13.13.56,19.69.89,6.79.34,13.58.79,20.37,1.11,7.38.35,14.77.61,22.15.92,1.17.05,2.37,0,3.51.23,1.88.39,3.4-.17,4.94-1.21,13.02-8.8,26.06-17.56,39.09-26.34ZM703.82,145.58c-.1-2.46-.16-4.8-.29-7.13-.33-6.56-.72-13.11-1.03-19.67-.36-7.38-.64-14.76-.98-22.13-.24-5.39-.51-10.77-.78-16.16-.61-12.06-1.24-24.12-1.83-36.18-.53-10.77-1.01-21.55-1.53-32.32-.03-.57-.18-1.13-.27-1.7-.46-.1-.81-.28-1.12-.23-9.46,1.63-18.91,3.29-28.47,4.96-.53,3.34-4.16,142.25-3.93,148.4.02.43.17.85.32,1.52,3.61-1.19,6.71-3.06,9.96-4.58,3.39-1.59,6.75-3.27,10.12-4.9,3.27-1.59,6.56-3.12,9.79-4.77,3.31-1.69,6.81-3.05,10.05-5.11ZM662.17,278.81c.04-1.03-.06-2.06-.1-3.14-2.95-.69-5.75-.67-8.55-.79-7.5-.32-15.01-.62-22.5-.98-7.15-.34-14.29-.77-21.43-1.11-7.27-.34-14.54-.61-21.81-.93-5.15-.23-10.31-.5-15.47-.74-9.96-.47-19.92-.95-29.88-1.41-.54-.02-1.1.14-1.81.23-.07,1.21-.17,2.24-.19,3.27-.15,9.62-.3,19.24-.42,28.86-.24,19.95-.46,39.89-.69,59.84-.48,41.18-.96,82.37-1.44,123.55-.47,40.48-.96,80.96-1.41,121.44-.39,34.97-.74,69.94-1.12,104.91-.17,15.13-.38,30.27-.55,45.41-.01,1.37-.32,2.79.45,4.27,35.1,4.96,70.24,9.85,105.49,14.77.15-.8.33-1.36.36-1.92.23-4.69.46-9.38.65-14.07.32-7.86.59-15.71.93-23.57.58-13.36,1.24-26.72,1.81-40.09.59-13.96,1.1-27.91,1.66-41.86.24-6.1.51-12.19.77-18.29.61-13.48,1.24-26.96,1.82-40.44.35-8.21.62-16.42.95-24.63.24-5.98.5-11.96.76-17.94.6-13.48,1.22-26.96,1.8-40.44.36-8.32.63-16.65.96-24.97.24-5.98.51-11.96.77-17.94.6-13.59,1.23-27.19,1.81-40.79.35-8.09.61-16.18.93-24.27.24-5.98.5-11.96.76-17.94.61-13.95,1.25-27.9,1.84-41.85.34-7.97.61-15.94.94-23.92.25-6.1.53-12.2.8-18.29.36-8.08.73-16.17,1.07-24.26ZM657.39,22.65c0-.74.39-1.64-.45-2.21-.27.02-.53-.03-.72.07-42.52,21.89-85.03,43.8-127.55,65.71-.83.43-1.64.91-2.46,1.37-.1.06-.21.14-.26.23-.04.09,0,.22,0,.57.45.3.99.7,1.58,1.03,2.67,1.48,5.35,2.92,8.02,4.39,9.76,5.36,19.53,10.7,29.29,16.09,4.08,2.26,4.86,5.89,2.16,9.68-.34.48-.69.95-1.04,1.42-39.27,53.25-78.53,106.5-117.79,159.76-.49.66-.94,1.35-1.48,1.97-2.59,3-7.31,2.51-9.18-.97-.55-1.03-.96-2.14-1.43-3.21-15.03-34.37-30.06-68.75-45.1-103.11-.41-.95-.91-1.88-1.58-3.27-.96,1.44-1.62,2.4-2.25,3.38-17.61,27.57-35.22,55.15-52.83,82.73-.57.89-1.09,1.82-1.74,2.65-.99,1.28-2.36,2.03-3.98,1.84-1.87-.21-3.68-.73-4.96-2.33-1.02-1.28-2.08-2.54-3.13-3.81-20.73-25.03-41.45-50.06-62.17-75.09-.66-.79-1.37-1.54-2.07-2.33-1.17,1.06-1.37,2.39-1.84,3.57-15.25,38.72-30.48,77.45-45.72,116.17-6.78,17.24-13.57,34.47-20.37,51.7-.51,1.31-1,2.64-1.68,3.86-1.73,3.11-5.14,3.6-7.68,1.19-.59-.56-1.1-1.22-1.65-1.83-8.31-9.41-16.61-18.83-24.93-28.23-9.94-11.25-19.88-22.51-29.84-33.75-.67-.76-1.14-1.8-2.41-1.95-.22.55-.47,1.08-.65,1.63-36.21,112.17-72.4,224.34-108.6,336.52-.03.1,0,.23.02.35.02.1.08.2.21.51,5.28,1.45,10.81,2.44,16.28,3.66,5.37,1.19,10.75,2.36,16.13,3.51,5.47,1.17,10.9,2.54,16.61,3.5.91-3.37,1.77-6.52,2.59-9.68,10.99-42.32,21.97-84.64,32.95-126.96,9.04-34.83,18.07-69.66,27.11-104.49,2.12-8.17,4.24-16.33,6.36-24.5.41-1.6.91-3.16,1.9-4.51,1.62-2.23,4.18-2.8,6.5-1.38.9.55,1.69,1.26,2.52,1.91,17.44,13.49,34.88,26.99,52.32,40.47.7.54,1.49.98,2.38,1.55.62-1.3,1.16-2.33,1.62-3.39,21.9-50.69,43.8-101.38,65.7-152.07.37-.86.69-1.75,1.13-2.57.98-1.84,2.53-2.71,4.63-2.55,1.69.13,3.2.69,4.41,1.93.73.76,1.42,1.56,2.12,2.35,17.21,19.23,34.42,38.47,51.64,57.7.84.94,1.55,2.05,2.88,2.71.76-1.22,1.52-2.4,2.24-3.59,12.05-19.99,24.1-39.98,36.15-59.96.36-.61.69-1.23,1.11-1.79,2.35-3.15,7.15-3.01,9.25.27.57.89,1.03,1.84,1.54,2.76,18.27,32.51,36.53,65.02,54.81,97.53.56.99,1.17,1.96,1.89,3.17.95-1.08,1.74-1.92,2.47-2.82,23.13-28.37,46.26-56.74,69.39-85.11,33.94-41.64,67.89-83.29,101.83-124.95.37-.45.72-.92,1.11-1.37,1.36-1.53,2.97-2.12,5.04-1.63,1.64.39,3.05,1.1,4.41,2.07,10.12,7.23,20.25,14.43,30.39,21.63.94.67,1.75,1.57,3.23,1.75.43-2.08.39-4.18.45-6.26.27-10.21.5-20.41.75-30.62.49-19.94.97-39.89,1.46-59.83.22-8.8.45-17.6.65-26.39.14-6.1.24-12.2.31-18.3ZM624.19,160.22c.79-.99,1.53-2.02,2.26-3-1.92-2-7.45-6.01-10.87-7.89-.74.84-1.37,1.53-1.96,2.25-10.38,12.73-20.76,25.46-31.14,38.19-35.65,43.74-71.31,87.48-106.95,131.22-8.45,10.37-16.9,20.74-25.34,31.11-.47.57-1.09,1.08-1.06,2.25,1.04-.4,1.79-.66,2.52-.97,12.43-5.19,24.85-10.42,37.3-15.56,1.95-.8,3.27-2.02,4.38-3.79,8.64-13.82,17.35-27.6,26.08-41.36,3.58-5.64,7.23-11.24,10.89-16.83.47-.73.71-1.44.71-2.29,0-2.35-.08-4.71.12-7.04.29-3.41,1.49-6.27,4.89-7.92,4.54-2.19,8.95-4.63,13.45-6.92,1.18-.6,2.09-1.38,2.92-2.42,23.92-29.69,47.86-59.36,71.8-89.04ZM528.87,426.05c.61-3.81,2.23-121.24,1.83-131.39,0-.31-.2-.6-.4-1.17-1.19.91-1.68,2.12-2.33,3.14-9.09,14.37-18.18,28.74-27.19,43.15-1.81,2.9-4.13,4.91-7.31,6.23-18.39,7.63-36.73,15.36-55.09,23.07-1.18.49-2.34,1.01-3.6,1.55-.7,21.37-1.4,42.58-2.09,63.8,0,.31.15.62.3,1.22,1.01-.59,1.91-1.06,2.76-1.61,7.27-4.73,14.56-9.44,21.78-14.24,2.39-1.59,4.85-2.06,7.65-1.64,4.52.67,9.07,1.17,13.6,1.73,4.65.57,9.3,1.11,13.96,1.69,6.51.82,13.02,1.67,19.52,2.5,4.88.62,9.76,1.23,14.64,1.83.66.08,1.32.09,1.97.13ZM528.95,450.64c-.02-4.99.27-9.89-.05-14.98-2.21-.32-4.27-.66-6.34-.92-4.65-.59-9.3-1.12-13.96-1.7-4.88-.61-9.76-1.24-14.64-1.86-4.65-.6-9.29-1.22-13.94-1.8-4.77-.6-9.54-1.1-14.3-1.76-1.86-.26-3.4.15-4.96,1.18-14.69,9.66-29.42,19.27-44.13,28.91-.53.34-.97.82-1.65,1.41,1.27.27,2.18.51,3.11.64,5.92.8,11.84,1.57,17.77,2.35,4.18.55,8.36,1.11,12.54,1.68,6.26.85,12.53,1.7,18.8,2.55,6.03.82,12.07,1.64,18.11,2.45,5.22.71,10.44,1.43,15.67,2.08.64.08,1.37-.15,1.98-.42.63-.29,1.16-.79,1.72-1.22,7.48-5.66,14.96-11.32,22.43-17,.64-.49,1.22-1.05,1.84-1.59ZM528.66,466.82c0-1-.12-2-.18-2.9-1.09-.34-1.56.3-2.09.69-4.6,3.45-9.2,6.89-13.75,10.4-3.45,2.66-2.97,1.67-3,6.08-.28,61.61-.54,123.21-.8,184.81-.12,27.58-.21,55.15-.29,82.73,0,1.25-.3,2.56.55,4.33,5.4-5.04,10.55-9.82,15.64-14.65.46-.43.67-1.21.8-1.86.14-.68.05-1.4.06-2.11.38-31.56.78-63.12,1.15-94.69.23-19.24.43-38.49.64-57.73.19-18.07.38-36.14.58-54.21.23-20.3.47-40.6.69-60.9ZM500.21,481.94c0-.46-.13-.91-.23-1.59-7.5-1.3-15.07-2.08-22.58-3.19-7.65-1.12-15.33-2.02-23-3.05-7.55-1-15.09-2.06-22.64-3.05-7.62-1.01-15.22-2.2-23.07-3.02-.07,1.04-.19,1.84-.17,2.64.39,16.07.76,32.14,1.2,48.21.56,20.88,1.18,41.76,1.76,62.64.46,16.65.9,33.31,1.34,49.97.5,18.65.98,37.3,1.47,55.95.49,18.65.98,37.3,1.49,55.95.02.8.18,1.6.3,2.57,26.67,3.75,53.23,7.5,79.79,11.22.9.13,1.81.11,2.74.15.14-.54.31-.87.31-1.2.45-91.41.88-182.81,1.3-274.21ZM443.75,270.82c8.09-10.97,16.22-22,24.38-33.06-10.52-23.98-20.95-47.8-31.4-71.61-1.22-2.79-2.5-5.56-3.75-8.33-.05-.1-.16-.18-.25-.24-.09-.07-.2-.11-.3-.16-.23-.02-.47-.09-.69-.05-10.75,2.34-21.5,4.69-32.25,7.05-.86.19-1.77.34-2.53,1,.46,1.1.86,2.07,1.28,3.03,8.54,19.54,17.09,39.08,25.63,58.62,6.05,13.85,12.09,27.71,18.18,41.55.34.78.35,1.91,1.7,2.2ZM425.73,361.26c.14-3.66-.28-6.93-2.5-9.9-.89-1.18-1.23-2.75-2.6-3.83-11.03,5.58-21.98,11.13-33.12,16.77,0,1.13,0,1.83,0,2.53.16,18.3.31,36.61.49,54.91.26,26.05.56,52.09.83,78.14.22,21.47.4,42.94.61,64.41.34,34.96.69,69.92,1.05,104.88.21,21,.43,42,.68,63,0,.84-.37,1.85.72,2.66,4.66-4.31,9.3-8.6,13.79-12.76,0-1.6.03-2.88,0-4.17-.21-8.09-.43-16.19-.65-24.28-.42-15.37-.86-30.73-1.27-46.09-.32-12.08-.6-24.16-.93-36.24-.58-21.23-1.21-42.45-1.77-63.68-.36-13.49-.65-26.98-.98-40.47-.03-1.29-.11-2.58-.15-3.87-.35-12.55-.71-25.09-1.02-37.65-.05-1.86.16-3.73.32-5.59.12-1.48.84-2.67,2.08-3.51.68-.46,1.37-.91,2.05-1.36,5.8-3.79,11.59-7.56,17.37-11.36.87-.57,1.68-1.22,2.33-1.71.31-8.96.64-17.63.92-26.31.59-18.17,1.07-36.36,1.78-54.53ZM406.62,343.93c-.05-.19-.1-.39-.15-.58-7.2-.74-14.41-1.52-21.61-2.22-5.83-.57-11.67-1.04-17.5-1.61-8.28-.83-16.55-1.73-24.82-2.57-9.44-.96-18.89-1.88-28.33-2.82-1.77-.18-3.43,0-5.12.76-8.73,4-17.51,7.89-26.27,11.82-.43.19-.87.38-.74.99.2.08.39.23.6.24,5.25.55,10.49,1.07,15.73,1.62,8.5.9,17.01,1.82,25.51,2.74,2.67.29,5.35.59,8.03.89,5.59.61,11.17,1.24,16.77,1.85,5.71.62,11.41,1.25,17.12,1.84,3.61.38,7.24.66,10.84,1.08,1.6.19,2.97-.21,4.37-.92,7.93-4.05,15.88-8.04,23.82-12.06.61-.31,1.16-.69,1.75-1.05ZM413.89,334.64c-8.45-15.13-16.71-29.8-25.32-45.09-.74,1.58-1.25,2.61-1.71,3.67-2.19,5.05-4.49,10.07-6.5,15.19-1,2.53-2.81,3.95-5.09,5-.74.34-1.54.55-2.31.82-10.72,3.75-21.44,7.51-32.16,11.27-.86.3-1.69.67-2.86,1.14.76.35,1.16.66,1.6.7,24.58,2.43,49.18,4.83,74.36,7.29ZM381.62,738.14c.04-1.27.11-2.19.1-3.11-.06-4.93-.15-9.85-.2-14.78-.24-23.58-.49-47.17-.72-70.75-.37-37.67-.69-75.33-1.07-113-.41-40.59-.87-81.19-1.29-121.79-.15-14.08-.23-28.16-.39-42.24-.02-1.49.2-3.05-.54-4.88-8.94-1.04-18.01-1.94-27.07-2.92-9.09-.99-18.17-2-27.26-2.99-9.09-.99-18.17-2.03-27.27-2.9-9.08-.87-18.12-2.07-27.09-2.78-1.4,2.02-1.83,4.01-1.69,6.21.19,2.92.2,5.86.34,8.79.59,12.89,1.22,25.78,1.8,38.67.35,7.73.62,15.48.98,23.21.08,1.87.39,3.73.53,5.6.13,1.87.22,3.74.24,5.62.03,1.87-.11,3.74-.03,5.61.33,7.5.75,15,1.08,22.5.35,7.86.63,15.71.96,23.57.24,5.63.52,11.25.77,16.88.63,13.83,1.27,27.66,1.89,41.49.31,7.03.58,14.07.91,21.1.58,12.54,1.21,25.08,1.78,37.62.36,7.86.63,15.71.96,23.57.25,5.98.54,11.96.82,17.93.6,13.01,1.21,26.02,1.81,39.03.46,9.84.9,19.69,1.37,29.53.03.67.2,1.33.33,2.16,31.71,4.36,63.26,8.71,94.81,13.03.91.13,1.85.02,3.16.02ZM382.69,279.25c-3.17-5.65-6.28-11.37-9.9-17.5-10.72,17.74-21.06,34.87-31.4,52.01-.18.3-.3.63-.44.96-.04.11-.09.23-.07.34.01.08.12.15.35.41,10.13-3.58,20.39-7.02,30.47-10.75,3.71-8.59,7.32-16.96,10.99-25.47ZM347.13,220c-5.26-6.57-10.52-13.16-15.79-19.75-10.47-13.1-20.93-26.2-31.42-39.28-.71-.89-1.23-2.03-2.84-2.53-10.82,3.93-21.92,7.95-33.02,11.99-.52.19-1.01.48-1.44.69,0,.32-.04.46,0,.53.24.4.47.81.76,1.17,21.32,25.73,42.64,51.45,63.97,77.17.07.08.19.13.3.17s.23.05.34.07c2.53-3.22,18.07-27.76,19.12-30.22ZM323.75,325.27c-.26-.46-.37-.79-.58-1.03-9.53-10.65-19.08-21.29-28.62-31.93-.08-.08-.2-.14-.31-.15-.1-.01-.22.03-.33.06-1.44,2.45-15.89,38.67-18.89,47.4.85-.19,1.3-.23,1.69-.39,2.46-1.08,4.91-2.2,7.37-3.3,7.37-3.3,14.76-6.57,22.11-9.91,2.3-1.05,4.6-1.64,7.14-1.25,1.74.27,3.5.37,5.24.54.82.08,1.63.18,2.45.2.88.03,1.79.27,2.75-.23ZM281.38,297.58c1.8-4.57,3.6-9.14,5.4-13.71-.44-.58-.75-1.07-1.14-1.51-5.25-5.84-10.52-11.67-15.78-17.51-.08-.08-.2-.14-.31-.16-.1-.02-.23.02-.56.06-.26.48-.61,1.07-.88,1.68-20.64,47.76-41.28,95.52-61.92,143.28.18.15.36.29.53.44.63-.28,1.27-.53,1.89-.84,11.16-5.45,22.31-10.93,33.48-16.35,1.6-.77,2.5-1.9,3.13-3.54,3.24-8.42,6.54-16.83,9.92-25.19,1.42-3.51,2.73-6.99,2.11-10.87-.03-.23-.05-.48,0-.7.64-2.23.83-4.9,3.13-6.03,1.95-.96,2.63-2.49,3.32-4.24,5.87-14.95,11.77-29.88,17.66-44.82ZM272.71,701.25c.1-2.37-.07-5.05-.19-7.73-.59-12.66-1.22-25.31-1.79-37.97-.36-7.86-.63-15.71-.96-23.57-.25-5.86-.52-11.72-.79-17.58-.6-12.89-1.22-25.78-1.8-38.67-.35-7.73-.63-15.48-.96-23.21-.24-5.63-.5-11.25-.76-16.88-.6-12.77-1.22-25.54-1.8-38.31-.35-7.86-.63-15.71-.96-23.56-.2-4.8-.4-9.61-.64-14.41-.15-2.92-.38-5.85-.59-9.09-.74.19-1.09.22-1.38.37-7.52,3.82-15.04,7.66-22.55,11.52-.6.31-1.12.76-1.71,1.17.57,8.34,1.15,16.53,1.68,24.72.59,9.01,1.12,18.03,1.69,27.04.24,3.86.5,7.72.76,11.59.6,8.77,1.23,17.55,1.81,26.33.59,8.89,1.09,17.79,1.68,26.69.81,12.17,1.69,24.33,2.5,36.51.83,12.52,1.59,25.05,2.38,37.58.26,4.1.53,8.19.82,12.29.61,8.89,1.23,17.78,1.83,26.68.51,7.61.99,15.22,1.51,22.82.02.28.28.55.5.98.86-.64,1.62-1.16,2.33-1.74,4.03-3.23,8.01-6.5,12.06-9.7,1.63-1.29,3.37-2.44,5.34-3.85ZM258.71,430.49c.63.06,1.3-.16,2.08-.28-.72-15.89-1.43-31.57-2.14-47.25-.2-.06-.39-.11-.6-.17-.33.7-.69,1.39-.99,2.11-1.35,3.36-2.67,6.75-4.02,10.12-.99,2.48-2.57,4.25-5.1,5.47-15.5,7.49-30.92,15.13-46.37,22.72-3.21,1.58-6.17,1.49-9.13-.87-7.25-5.76-14.62-11.37-21.95-17.04-1-.77-2.01-1.52-3-2.26-.34.37-.6.51-.64.7-2.92,12.18-5.82,24.36-8.72,36.55-.02.09.03.23.08.32.05.1.14.19.32.43.58-.15,1.24-.28,1.88-.5,5.07-1.81,10.14-3.63,15.21-5.45,9.03-3.24,18.06-6.48,27.09-9.71,1.87-.67,3.75-1.38,5.8-1.13,5.81.71,11.62,1.43,17.43,2.16,8.37,1.07,16.72,2.16,25.09,3.23,2.56.32,5.12.61,7.69.85ZM258.74,440.4c-.51-.3-.77-.57-1.06-.61-4.06-.52-8.13-1.01-12.2-1.51-4.65-.56-9.3-1.1-13.95-1.67-7.2-.88-14.41-1.75-21.6-2.7-1.79-.23-3.43-.05-5.13.58-10,3.66-20.03,7.22-30.05,10.83-.74.27-1.45.64-2.71,1.21,1.3.34,2.04.61,2.8.72,2.55.35,5.12.6,7.67.94,6.14.84,12.28,1.72,18.43,2.56,6.73.92,13.45,1.82,20.18,2.71,2.79.37,5.58.64,8.37,1.01,1.33.17,2.51-.06,3.72-.68,8.01-4.13,16.05-8.2,24.08-12.31.47-.24.87-.64,1.46-1.08ZM243.18,721.04c0-.75.04-1.44,0-2.12-.18-2.81-.39-5.61-.57-8.42-.7-10.65-1.4-21.3-2.1-31.95-.94-14.27-1.88-28.55-2.82-42.83-.94-14.28-1.91-28.55-2.82-42.83-.81-12.52-1.57-25.05-2.36-37.57-.27-4.21-.56-8.42-.85-12.64-.61-8.89-1.22-17.78-1.81-26.68-.34-5.15-.61-10.3-.95-15.45-.64-9.95-1.32-19.89-1.97-29.84-.15-2.32-.3-4.65-.78-7.13-24.1-3.33-48.13-6.43-72.54-9.73-.07.81-.16,1.25-.14,1.7.4,8.08.82,16.17,1.25,24.25.25,4.8.52,9.6.79,14.41.59,10.42,1.2,20.84,1.76,31.26.59,11.01,1.12,22.02,1.69,33.03.24,4.68.49,9.37.76,14.05.6,10.54,1.23,21.07,1.79,31.61.59,11.01,1.11,22.03,1.67,33.03.24,4.69.51,9.37.77,14.05.61,10.77,1.22,21.54,1.82,32.32.46,8.31.91,16.63,1.37,24.94.04.68.24,1.34.38,2.04,1.99.31,3.83.61,5.68.88,5.68.84,11.36,1.68,17.03,2.51,5.44.8,10.89,1.59,16.34,2.39,5.91.86,11.82,1.73,17.73,2.59,5.21.76,10.43,1.53,15.64,2.27,1,.14,2.05.33,3.26-.16ZM194.39,309.54c.21-.53.24-1.13.34-1.62-2.3-3.27-32.4-36.94-34.44-38.56-14.2,4.05-32.06,10.02-34.53,11.56.18.3.31.62.53.87,18,20.38,36.02,40.75,54.04,61.12.07.08.19.13.3.16.1.03.21.03.51.07,4.41-11.17,8.84-22.38,13.25-33.6ZM158.43,398.39c.16-.66.15-1.37.24-2.18-6.84-5.24-13.63-10.44-20.42-15.63-.08-.06-.23-.07-.34-.07-.11,0-.22.07-.52.17-.12.29-.35.68-.46,1.11-21.8,83.9-43.6,167.81-65.39,251.71.2.14.4.29.61.43,1.45-.96,2.9-1.9,4.34-2.88,9.3-6.34,18.58-12.72,27.9-19.02,1.63-1.11,2.65-2.36,3.1-4.38,1.53-6.86,3.29-13.67,4.96-20.5,10-40.86,20.01-81.72,30.01-122.58,1.63-3.89,1.79-7.94,1.35-12.05-.29-2.67.62-4.88,2.53-6.62.86-.79,1.17-1.67,1.42-2.71,3.55-14.93,7.12-29.86,10.67-44.8Z"/>
  <path class="cls-3" d="M715.1,244.05c.89.51.59,1.29.54,1.9-.52,7.37-1.08,14.74-1.64,22.11-.35,4.68-.7,9.36-1.05,14.04-.63,8.54-1.26,17.08-1.89,25.62-.29,3.86-.58,7.72-.86,11.58-.92,12.52-1.85,25.03-2.75,37.55-.58,7.95-1.07,15.92-1.65,23.87-.58,7.96-1.23,15.91-1.83,23.86-.54,7.25-1.03,14.51-1.56,21.76-.64,8.77-1.31,17.55-1.95,26.32-.55,7.48-1.07,14.97-1.61,22.46-.63,8.54-1.27,17.08-1.91,25.62-.28,3.74-.55,7.49-.82,11.23-.92,12.52-1.83,25.03-2.73,37.55-.58,8.08-1.11,16.15-1.69,24.22-.57,7.84-1.2,15.67-1.8,23.51-.28,3.63-.55,7.25-.8,10.88-.8,11.35-1.58,22.7-2.39,34.05-.91,12.75-1.85,25.51-2.78,38.26-.95,12.99-1.89,25.97-2.85,38.96-.35,4.68-.85,9.35-1.08,14.03-.09,1.89-.72,3.34-1.92,4.72-6.56,7.51-13.07,15.06-19.59,22.6-1.92,2.21-3.82,4.45-5.75,6.66-.36.41-.81.76-1.81,1.68.13-4.25.19-7.64.34-11.04.32-7.39.72-14.77,1.03-22.15.34-8.09.6-16.18.95-24.27.58-13.6,1.22-27.19,1.82-40.79.27-5.98.53-11.96.76-17.93.33-8.21.61-16.42.95-24.62.58-13.6,1.21-27.2,1.81-40.79.26-5.98.53-11.96.77-17.94.57-14.07,1.1-28.14,1.69-42.2.57-13.36,1.21-26.72,1.79-40.09.34-7.74.59-15.48.92-23.21.61-14.3,1.26-28.6,1.89-42.9.26-5.98.53-11.96.76-17.93.33-8.21.6-16.42.95-24.62.57-13.48,1.2-26.96,1.79-40.44.26-5.86.53-11.72.76-17.58.33-8.32.62-16.65.96-24.98.27-6.8.61-13.59.84-20.4.05-1.56.62-2.61,1.92-3.48,13.45-9,26.87-18.05,40.3-27.07.38-.25.81-.41,1.18-.59Z"/>
  <path class="cls-3" d="M708.1,236.93c-.75.61-1.22,1.07-1.76,1.44-13.03,8.78-26.08,17.54-39.09,26.34-1.53,1.04-3.05,1.6-4.94,1.21-1.14-.23-2.34-.18-3.51-.23-7.39-.31-14.77-.57-22.15-.92-6.79-.32-13.58-.77-20.37-1.11-6.56-.33-13.12-.57-19.69-.89-7.96-.38-15.93-.79-23.89-1.19-5.51-.27-11.01-.53-16.52-.8-.7-.03-1.4-.1-2.09-.15-.07-1.04.76-1.11,1.33-1.41,15.71-8.14,31.43-16.27,47.13-24.44,1.52-.79,3.03-1.1,4.72-1.06,14.31.38,28.62.71,42.93,1.09,17.47.47,34.95.97,52.42,1.48,1.73.05,3.49-.06,5.49.64Z"/>
  <path class="cls-5" d="M703.53,138.45c.12,2.34.19,4.67.29,7.13-3.23,2.06-6.73,3.42-10.05,5.11-3.23,1.65-6.52,3.18-9.79,4.77-3.37,1.64-6.72,3.31-10.12,4.9-3.25,1.52-6.35,3.39-9.96,4.58-.15-.66-.3-1.09-.32-1.52-.23-6.14,3.4-145.05,3.93-148.4,9.56-1.67,19.01-3.33,28.47-4.96.31-.06.66.13,1.12.23.09.57.24,1.13.27,1.7.52,10.77,1,21.55,1.53,32.32.59,12.06,1.22,24.12,1.83,36.18.27,5.39.54,10.77.78,16.16.34,7.38.62,14.76.98,22.13.31,6.56.7,13.12,1.03,19.67Z"/>
  <path class="cls-4" d="M662.07,275.66c.04,1.08.14,2.11.1,3.14-.34,8.08-.71,16.17-1.07,24.26-.27,6.1-.55,12.19-.8,18.29-.33,7.97-.6,15.94-.94,23.92-.6,13.95-1.23,27.9-1.84,41.85-.27,5.98-.53,11.96-.76,17.94-.32,8.09-.59,16.18-.93,24.27-.58,13.6-1.21,27.2-1.81,40.79-.27,5.98-.53,11.96-.77,17.94-.33,8.32-.61,16.65-.96,24.97-.58,13.48-1.2,26.96-1.8,40.44-.26,5.98-.52,11.96-.76,17.94-.32,8.21-.6,16.42-.95,24.63-.58,13.48-1.22,26.96-1.82,40.44-.27,6.1-.53,12.19-.77,18.29-.56,13.96-1.07,27.91-1.66,41.86-.56,13.36-1.22,26.72-1.81,40.09-.34,7.86-.61,15.71-.93,23.57-.19,4.69-.41,9.38-.65,14.07-.03.56-.2,1.12-.36,1.92-35.25-4.92-70.39-9.82-105.49-14.77-.77-1.47-.46-2.9-.45-4.27.16-15.14.38-30.28.55-45.41.38-34.97.73-69.94,1.12-104.91.46-40.48.94-80.96,1.41-121.44.48-41.18.96-82.37,1.44-123.55.23-19.95.45-39.89.69-59.84.12-9.62.27-19.24.42-28.86.01-1.03.12-2.06.19-3.27.71-.1,1.26-.26,1.81-.23,9.96.46,19.92.93,29.88,1.41,5.16.24,10.31.51,15.47.74,7.27.32,14.54.59,21.81.93,7.15.34,14.29.77,21.43,1.11,7.5.36,15,.66,22.5.98,2.8.12,5.6.1,8.55.79Z"/>
  <path class="cls-2" d="M656.95,20.43c.84.58.46,1.47.45,2.21-.08,6.1-.18,12.2-.31,18.3-.2,8.8-.43,17.6-.65,26.39-.49,19.94-.97,39.89-1.46,59.83-.25,10.21-.47,20.41-.75,30.62-.06,2.08-.01,4.18-.45,6.26-1.48-.18-2.29-1.08-3.23-1.75-10.14-7.2-20.27-14.4-30.39-21.63-1.36-.97-2.77-1.68-4.41-2.07-2.06-.49-3.68.1-5.04,1.63-.39.44-.74.92-1.11,1.37-33.94,41.65-67.89,83.3-101.83,124.95-23.13,28.37-46.25,56.74-69.39,85.11-.73.89-1.52,1.73-2.47,2.82-.72-1.21-1.33-2.17-1.89-3.17-18.27-32.5-36.54-65.02-54.81-97.53-.52-.92-.98-1.88-1.54-2.76-2.11-3.28-6.9-3.42-9.25-.27-.42.56-.75,1.19-1.11,1.79-12.05,19.98-24.1,39.97-36.15,59.96-.72,1.2-1.48,2.38-2.24,3.59-1.33-.66-2.03-1.76-2.88-2.71-17.22-19.22-34.43-38.46-51.64-57.7-.7-.79-1.39-1.6-2.12-2.35-1.2-1.23-2.72-1.8-4.41-1.93-2.1-.16-3.65.7-4.63,2.55-.44.83-.76,1.71-1.13,2.57-21.9,50.69-43.8,101.38-65.7,152.07-.46,1.07-1,2.1-1.62,3.39-.89-.57-1.68-1-2.38-1.55-17.45-13.48-34.88-26.98-52.32-40.47-.84-.65-1.63-1.36-2.52-1.91-2.32-1.42-4.88-.85-6.5,1.38-.99,1.36-1.48,2.92-1.9,4.51-2.12,8.17-4.24,16.33-6.36,24.5-9.04,34.83-18.07,69.66-27.11,104.49-10.98,42.32-21.96,84.64-32.95,126.96-.82,3.16-1.69,6.31-2.59,9.68-5.71-.96-11.14-2.33-16.61-3.5-5.38-1.15-10.76-2.32-16.13-3.51-5.47-1.22-11-2.21-16.28-3.66-.13-.31-.19-.4-.21-.51-.03-.11-.06-.24-.02-.35,36.19-112.18,72.39-224.35,108.6-336.52.18-.55.43-1.08.65-1.63,1.26.15,1.74,1.2,2.41,1.95,9.96,11.24,19.9,22.5,29.84,33.75,8.31,9.41,16.62,18.83,24.93,28.23.54.61,1.06,1.27,1.65,1.83,2.54,2.42,5.95,1.92,7.68-1.19.68-1.22,1.17-2.55,1.68-3.86,6.8-17.23,13.59-34.47,20.37-51.7,15.24-38.73,30.47-77.45,45.72-116.17.46-1.18.67-2.51,1.84-3.57.7.79,1.42,1.54,2.07,2.33,20.73,25.03,41.45,50.06,62.17,75.09,1.05,1.27,2.1,2.52,3.13,3.81,1.27,1.6,3.08,2.12,4.96,2.33,1.62.18,2.99-.57,3.98-1.84.65-.83,1.17-1.76,1.74-2.65,17.61-27.58,35.22-55.16,52.83-82.73.62-.98,1.29-1.94,2.25-3.38.68,1.39,1.17,2.31,1.58,3.27,15.04,34.37,30.07,68.74,45.1,103.11.47,1.07.88,2.19,1.43,3.21,1.87,3.48,6.59,3.97,9.18.97.53-.62.99-1.3,1.48-1.97,39.27-53.25,78.53-106.51,117.79-159.76.35-.47.69-.94,1.04-1.42,2.69-3.79,1.92-7.42-2.16-9.68-9.75-5.39-19.52-10.73-29.29-16.09-2.67-1.46-5.35-2.91-8.02-4.39-.59-.32-1.13-.73-1.58-1.03,0-.35-.03-.48,0-.57.05-.1.16-.18.26-.23.82-.46,1.63-.93,2.46-1.37,42.52-21.91,85.03-43.81,127.55-65.71.18-.1.45-.05.72-.07Z"/>
  <path class="cls-5" d="M626.45,157.22c-.73.98-1.47,2.01-2.26,3-23.94,29.68-47.89,59.34-71.8,89.04-.84,1.04-1.75,1.82-2.92,2.42-4.5,2.29-8.91,4.73-13.45,6.92-3.4,1.65-4.6,4.51-4.89,7.92-.2,2.33-.11,4.69-.12,7.04,0,.85-.24,1.56-.71,2.29-3.66,5.59-7.31,11.18-10.89,16.83-8.72,13.77-17.43,27.54-26.08,41.36-1.11,1.77-2.43,2.99-4.38,3.79-12.45,5.14-24.87,10.37-37.3,15.56-.73.31-1.48.57-2.52.97-.03-1.17.59-1.68,1.06-2.25,8.45-10.37,16.89-20.74,25.34-31.11,35.65-43.74,71.3-87.48,106.95-131.22,10.37-12.73,20.75-25.46,31.14-38.19.59-.72,1.22-1.4,1.96-2.25,3.43,1.88,8.95,5.89,10.87,7.89Z"/>
  <path class="cls-3" d="M528.9,435.66c.32,5.09.03,9.99.05,14.98-.62.54-1.2,1.1-1.84,1.59-7.47,5.67-14.95,11.33-22.43,17-.56.43-1.09.93-1.72,1.22-.61.28-1.34.5-1.98.42-5.23-.65-10.45-1.37-15.67-2.08-6.04-.81-12.07-1.63-18.11-2.45-6.27-.85-12.54-1.7-18.8-2.55-4.18-.56-8.36-1.12-12.54-1.68-5.92-.78-11.84-1.55-17.77-2.35-.92-.13-1.83-.37-3.11-.64.69-.59,1.13-1.07,1.65-1.41,14.71-9.64,29.44-19.25,44.13-28.91,1.56-1.02,3.09-1.44,4.96-1.18,4.76.66,9.53,1.16,14.3,1.76,4.65.58,9.3,1.2,13.94,1.8,4.88.62,9.76,1.26,14.64,1.86,4.65.58,9.3,1.12,13.96,1.7,2.07.26,4.13.6,6.34.92Z"/>
  <path class="cls-3" d="M528.48,463.91c.06.9.19,1.91.18,2.9-.22,20.3-.46,40.6-.69,60.9-.2,18.07-.38,36.14-.58,54.21-.21,19.24-.42,38.49-.64,57.73-.38,31.57-.77,63.13-1.15,94.69,0,.7.08,1.43-.06,2.11-.14.65-.35,1.43-.8,1.86-5.09,4.83-10.24,9.61-15.64,14.65-.85-1.76-.55-3.07-.55-4.33.08-27.58.17-55.15.29-82.73.26-61.61.53-123.21.8-184.81.02-4.41-.45-3.43,3-6.08,4.55-3.51,9.15-6.95,13.75-10.4.53-.39,1-1.03,2.09-.69Z"/>
  <path class="cls-4" d="M499.98,480.35c.1.68.23,1.14.23,1.59-.43,91.4-.86,182.8-1.3,274.21,0,.33-.16.66-.31,1.2-.93-.05-1.84-.03-2.74-.15-26.56-3.73-53.12-7.47-79.79-11.22-.12-.98-.28-1.77-.3-2.57-.51-18.65-.99-37.3-1.49-55.95-.49-18.65-.98-37.3-1.47-55.95-.44-16.66-.88-33.32-1.34-49.97-.58-20.88-1.2-41.76-1.76-62.64-.43-16.07-.81-32.14-1.2-48.21-.02-.8.1-1.6.17-2.64,7.85.82,15.45,2,23.07,3.02,7.55,1,15.09,2.05,22.64,3.05,7.67,1.02,15.35,1.92,23,3.05,7.51,1.1,15.08,1.88,22.58,3.19Z"/>
  <path class="cls-5" d="M468.13,237.75c-8.16,11.06-16.29,22.09-24.38,33.06-1.36-.3-1.36-1.42-1.7-2.2-6.09-13.84-12.13-27.69-18.18-41.55-8.54-19.54-17.09-39.08-25.63-58.62-.42-.96-.82-1.93-1.28-3.03.76-.66,1.67-.81,2.53-1,10.75-2.36,21.5-4.71,32.25-7.05.22-.05.46.03.69.05.1.05.21.09.3.16.09.07.21.14.25.24,1.25,2.77,2.53,5.54,3.75,8.33,10.45,23.81,20.89,47.63,31.4,71.61Z"/>
  <path class="cls-3" d="M423.23,351.37c2.22,2.97,2.64,6.24,2.5,9.9-.7,18.17-1.19,36.35-1.78,54.53-.28,8.68-.6,17.35-.92,26.31-.65.48-1.46,1.14-2.33,1.71-5.78,3.8-11.58,7.57-17.37,11.36-.69.45-1.37.89-2.05,1.36-1.24.85-1.96,2.03-2.08,3.51-.15,1.86-.37,3.74-.32,5.59.31,12.55.67,25.1,1.02,37.65.04,1.29.12,2.58.15,3.87.33,13.49.61,26.98.98,40.47.57,21.23,1.2,42.45,1.77,63.68.33,12.08.61,24.16.93,36.24.41,15.36.85,30.73,1.27,46.09.22,8.09.44,16.18.65,24.28.03,1.29,0,2.57,0,4.17-4.5,4.16-9.13,8.45-13.79,12.76-1.09-.81-.71-1.82-.72-2.66-.24-21-.46-42-.68-63-.36-34.96-.7-69.93-1.05-104.88-.21-21.47-.39-42.94-.61-64.41-.27-26.05-.57-52.09-.83-78.14-.18-18.3-.33-36.61-.49-54.91,0-.7,0-1.4,0-2.53,11.14-5.64,22.1-11.19,33.12-16.77,1.37,1.08,1.72,2.65,2.6,3.83Z"/>
  <path class="cls-3" d="M406.47,343.35c.05.19.1.39.15.58-.58.35-1.14.74-1.75,1.05-7.94,4.02-15.9,8.01-23.82,12.06-1.41.72-2.77,1.11-4.37.92-3.61-.42-7.23-.7-10.84-1.08-5.71-.6-11.41-1.22-17.12-1.84-5.59-.61-11.18-1.23-16.77-1.85-2.68-.3-5.36-.6-8.03-.89-8.51-.92-17.01-1.84-25.51-2.74-5.24-.56-10.49-1.07-15.73-1.62-.21-.02-.4-.16-.6-.24-.14-.61.31-.8.74-.99,8.76-3.93,17.54-7.83,26.27-11.82,1.69-.77,3.35-.94,5.12-.76,9.45.95,18.89,1.87,28.33,2.82,8.28.84,16.55,1.74,24.82,2.57,5.83.58,11.67,1.04,17.5,1.61,7.21.71,14.41,1.48,21.61,2.22Z"/>
  <path class="cls-4" d="M381.73,735.03c0,.92-.06,1.84-.1,3.11-1.3,0-2.25.11-3.16-.02-31.56-4.32-63.11-8.67-94.81-13.03-.13-.84-.3-1.5-.33-2.16-.47-9.84-.91-19.69-1.37-29.53-.61-13.01-1.21-26.02-1.81-39.03-.28-5.98-.56-11.96-.82-17.93-.33-7.86-.61-15.71-.96-23.57-.57-12.54-1.2-25.08-1.78-37.62-.32-7.03-.59-14.07-.91-21.1-.62-13.83-1.26-27.66-1.89-41.49-.26-5.63-.53-11.25-.77-16.88-.33-7.86-.61-15.71-.96-23.57-.33-7.5-.75-15-1.08-22.5-.08-1.87.06-3.74.03-5.61-.03-1.88-.11-3.75-.24-5.62-.13-1.87-.44-3.73-.53-5.6-.36-7.73-.62-15.48-.98-23.21-.58-12.89-1.21-25.78-1.8-38.67-.14-2.93-.15-5.87-.34-8.79-.14-2.2.29-4.19,1.69-6.21,8.97.71,18.01,1.91,27.09,2.78,9.1.87,18.18,1.92,27.27,2.9,9.09.99,18.17,2,27.26,2.99,9.06.99,18.13,1.88,27.07,2.92.74,1.83.52,3.38.54,4.88.16,14.08.24,28.16.39,42.24.42,40.6.88,81.2,1.29,121.79.38,37.67.71,75.33,1.07,113,.23,23.58.48,47.17.72,70.75.05,4.93.15,9.85.2,14.78Z"/>
  <path class="cls-5" d="M372.79,261.75c3.62,6.13,6.73,11.85,9.9,17.5-3.67,8.51-7.29,16.88-10.99,25.47-10.07,3.73-20.34,7.17-30.47,10.75-.23-.26-.33-.33-.35-.41-.02-.11.03-.23.07-.34.14-.32.25-.66.44-.96,10.34-17.13,20.68-34.26,31.4-52.01Z"/>
  <path class="cls-5" d="M331.34,200.25c5.26,6.59,10.53,13.18,15.79,19.75-1.05,2.45-16.59,27-19.12,30.22-.11-.02-.23-.03-.34-.07s-.23-.08-.3-.17c-21.33-25.72-42.65-51.44-63.97-77.17-.3-.36-.53-.77-.76-1.17-.05-.08,0-.21,0-.53.43-.21.92-.49,1.44-.69,11.1-4.04,22.2-8.06,33.02-11.99,1.61.51,2.14,1.65,2.84,2.53,10.49,13.08,20.95,26.18,31.42,39.28Z"/>
  <path class="cls-5" d="M286.77,283.88c-1.8,4.57-3.59,9.14-5.4,13.71-5.89,14.94-11.78,29.87-17.66,44.82-.69,1.75-1.37,3.28-3.32,4.24-2.3,1.13-2.49,3.8-3.13,6.03-.06.22-.04.47,0,.7.62,3.88-.69,7.36-2.11,10.87-3.38,8.37-6.68,16.77-9.92,25.19-.63,1.64-1.53,2.76-3.13,3.54-11.18,5.42-22.33,10.9-33.48,16.35-.62.31-1.26.56-1.89.84-.18-.15-.36-.3-.53-.44,20.64-47.76,41.27-95.52,61.92-143.28.27-.62.62-1.2.88-1.68.33-.04.46-.08.56-.06.11.02.23.08.31.16,5.26,5.83,10.53,11.67,15.78,17.51.39.43.7.92,1.14,1.51Z"/>
  <path class="cls-3" d="M272.52,693.51c.13,2.68.3,5.36.19,7.73-1.97,1.41-3.71,2.56-5.34,3.85-4.05,3.2-8.04,6.47-12.06,9.7-.71.58-1.47,1.1-2.33,1.74-.23-.43-.48-.69-.5-.98-.52-7.61-.99-15.22-1.51-22.82-.6-8.89-1.22-17.78-1.83-26.68-.28-4.1-.55-8.19-.82-12.29-.79-12.52-1.56-25.05-2.38-37.58-.8-12.17-1.69-24.34-2.5-36.51-.59-8.9-1.09-17.8-1.68-26.69-.57-8.78-1.21-17.55-1.81-26.33-.26-3.86-.52-7.72-.76-11.59-.57-9.01-1.1-18.03-1.69-27.04-.53-8.19-1.11-16.38-1.68-24.72.59-.41,1.11-.87,1.71-1.17,7.51-3.85,15.02-7.69,22.55-11.52.29-.15.64-.18,1.38-.37.21,3.25.44,6.17.59,9.09.24,4.8.44,9.61.64,14.41.33,7.85.61,15.71.96,23.56.58,12.77,1.2,25.54,1.8,38.31.26,5.63.53,11.25.76,16.88.33,7.73.61,15.48.96,23.21.58,12.89,1.2,25.78,1.8,38.67.27,5.86.54,11.72.79,17.58.33,7.86.61,15.71.96,23.57.57,12.66,1.2,25.31,1.79,37.97Z"/>
  <path class="cls-3" d="M257.68,439.79c.29.04.55.31,1.06.61-.59.44-.99.84-1.46,1.08-8.02,4.11-16.06,8.18-24.08,12.31-1.21.62-2.39.85-3.72.68-2.79-.37-5.58-.65-8.37-1.01-6.73-.89-13.45-1.79-20.18-2.71-6.14-.84-12.28-1.72-18.43-2.56-2.55-.34-5.12-.59-7.67-.94-.76-.1-1.51-.38-2.8-.72,1.26-.57,1.97-.94,2.71-1.21,10.02-3.61,20.05-7.17,30.05-10.83,1.71-.62,3.34-.81,5.13-.58,7.19.94,14.4,1.82,21.6,2.7,4.65.57,9.3,1.11,13.95,1.67,4.07.49,8.14.99,12.2,1.51Z"/>
  <path class="cls-4" d="M243.17,718.93c.05.68,0,1.37,0,2.12-1.21.49-2.25.3-3.26.16-5.22-.73-10.43-1.51-15.64-2.27-5.91-.86-11.82-1.73-17.73-2.59-5.45-.8-10.9-1.59-16.34-2.39-5.68-.84-11.36-1.67-17.03-2.51-1.85-.27-3.69-.57-5.68-.88-.14-.7-.34-1.36-.38-2.04-.47-8.31-.91-16.63-1.37-24.94-.6-10.77-1.22-21.54-1.82-32.32-.26-4.68-.53-9.37-.77-14.05-.56-11.01-1.08-22.02-1.67-33.03-.56-10.54-1.2-21.07-1.79-31.61-.27-4.68-.52-9.37-.76-14.05-.57-11.01-1.1-22.02-1.69-33.03-.56-10.42-1.17-20.84-1.76-31.26-.27-4.8-.54-9.61-.79-14.41-.43-8.08-.84-16.17-1.25-24.25-.02-.45.07-.89.14-1.7,24.41,3.29,48.44,6.4,72.54,9.73.49,2.49.63,4.81.78,7.13.65,9.95,1.33,19.89,1.97,29.84.34,5.15.61,10.3.95,15.45.59,8.89,1.21,17.78,1.81,26.68.29,4.21.59,8.42.85,12.64.79,12.52,1.55,25.05,2.36,37.57.92,14.27,1.88,28.55,2.82,42.83.94,14.27,1.88,28.55,2.82,42.83.7,10.65,1.4,21.3,2.1,31.95.18,2.81.39,5.62.57,8.42Z"/>
  <path class="cls-5" d="M194.74,307.92c-.1.49-.13,1.09-.34,1.62-4.41,11.22-8.84,22.43-13.25,33.6-.3-.04-.41-.03-.51-.07-.11-.03-.23-.08-.3-.16-18.02-20.37-36.03-40.74-54.04-61.12-.22-.25-.35-.58-.53-.87,2.47-1.54,20.33-7.51,34.53-11.56,2.04,1.61,32.13,35.29,34.44,38.56Z"/>
  <path class="cls-5" d="M158.67,396.21c-.08.82-.08,1.52-.24,2.18-3.55,14.94-7.12,29.87-10.67,44.8-.25,1.04-.55,1.92-1.42,2.71-1.91,1.74-2.82,3.95-2.53,6.62.45,4.11.28,8.16-1.35,12.05-10,40.86-20.01,81.72-30.01,122.58-1.67,6.83-3.44,13.64-4.96,20.5-.46,2.03-1.47,3.28-3.1,4.38-9.32,6.31-18.6,12.68-27.9,19.02-1.44.98-2.89,1.92-4.34,2.88-.2-.14-.4-.29-.61-.43,21.79-83.9,43.59-167.81,65.39-251.71.11-.43.34-.82.46-1.11.3-.1.41-.16.52-.17.11,0,.26,0,.34.07,6.79,5.19,13.58,10.39,20.42,15.63Z"/>
</svg>