<svg width="253" height="253" viewBox="0 0 253 253" fill="none" xmlns="http://www.w3.org/2000/svg">
  <path
    d="M231.783 145.33C232.762 145.535 233.222 146.133 233.109 147.128C233.039 147.745 232.913 148.359 232.81 148.973C231.67 155.635 230.53 162.297 229.387 168.959C228.861 172.029 228.329 175.099 227.813 178.172C227.684 178.94 227.281 179.481 226.639 179.891C223.893 181.651 221.157 183.42 218.415 185.189C217.146 186.008 215.874 186.824 214.608 187.645C214.435 187.759 214.278 187.9 214.108 188.029C214.161 188.13 214.183 188.203 214.227 188.253C216.164 190.469 217.171 193.105 217.741 195.945C218.229 198.375 218.154 200.815 217.845 203.249C217.379 206.914 216.375 210.431 214.728 213.746C214.272 214.665 213.727 215.547 213.176 216.416C212.427 217.593 211.381 218.469 210.157 219.127C210.072 219.171 209.968 219.196 209.905 219.262C209.266 219.936 208.419 219.958 207.578 220.024C203.227 220.364 198.869 220.635 194.531 221.075C189.188 221.617 183.883 222.451 178.622 223.541C176.77 223.925 174.903 224.252 173.043 224.595C172.542 224.687 172.041 224.715 171.566 224.463C171.462 224.41 171.342 224.375 171.223 224.362C168.783 224.082 166.897 222.76 165.187 221.132C164.208 220.2 163.443 219.092 162.76 217.93C162.637 217.726 162.514 217.524 162.363 217.272C162.118 217.401 161.891 217.524 161.664 217.644C156.126 220.509 150.808 223.767 145.402 226.869C139.798 230.083 134.496 233.748 129.254 237.51C128.961 237.721 128.64 237.891 128.373 238.131C127.415 238.987 126.301 238.952 125.196 238.625C124.235 238.342 123.291 237.964 122.394 237.52C119.107 235.898 115.839 234.236 112.564 232.58C106.96 229.746 101.337 226.95 95.7609 224.067C88.1795 220.144 80.4658 216.504 72.7836 212.792C70.9071 211.885 69.0747 210.887 67.2203 209.93C66.9652 209.801 66.7039 209.678 66.3891 209.521C66.282 209.71 66.1781 209.886 66.0837 210.069C64.9754 212.222 63.609 214.165 61.6444 215.648C59.6042 217.184 57.2869 218.044 54.8154 218.528C51.6701 219.145 48.5594 219.026 45.5432 217.867C42.4924 216.696 39.9453 214.854 38.0594 212.143C36.6016 210.046 35.9719 207.691 35.8303 205.182C35.6602 202.191 36.1923 199.31 37.288 196.527C37.3132 196.464 37.3289 196.395 37.3635 196.281C37.2093 196.187 37.0581 196.08 36.8944 195.995C34.8228 194.94 32.7605 193.867 30.6731 192.843C29.8356 192.431 29.4106 191.839 29.3098 190.904C28.9131 187.186 28.5101 183.467 28.0347 179.755C27.6223 176.547 27.1217 173.348 26.6242 170.153C26.5172 169.457 26.5959 168.814 26.832 168.178C27.0555 167.574 27.5215 167.228 28.1386 167.048C31.9419 165.943 35.5941 164.422 39.281 162.999C40.3955 162.568 41.4723 162.039 42.5837 161.545C42.5837 161.157 42.5931 160.824 42.5837 160.49C42.3444 153.444 42.1334 146.394 41.8469 139.348C41.6391 134.197 41.3306 129.05 41.063 123.899C40.8552 119.947 40.6663 115.993 40.4175 112.045C40.2538 109.413 40.0145 106.784 39.7941 104.155C39.6619 102.577 39.4887 101.003 39.3534 99.4259C39.3219 99.0606 39.1865 98.8277 38.8874 98.6041C35.4178 96.0066 33.6673 92.4961 33.4532 88.1985C33.365 86.4259 33.6925 84.7132 34.3379 83.0602C34.4323 82.8147 34.5299 82.5722 34.6559 82.2479C34.2623 82.1661 33.9003 82.0622 33.5319 82.0213C31.1957 81.7631 28.8627 81.5112 26.5235 81.2656C25.9504 81.2058 25.3774 81.1554 24.8044 81.1208C24.1747 81.083 23.6584 80.8343 23.1987 80.4061C22.8051 80.0409 22.6131 79.6127 22.5816 79.0806C22.1912 72.513 21.3726 66.002 20.066 59.554C19.9684 59.0785 19.918 58.6157 20.0786 58.134C20.1384 57.9482 20.088 57.7184 20.0502 57.5138C19.8771 56.5063 20.6264 55.5964 21.615 55.801C23.3278 56.1599 24.9681 55.8073 26.5896 55.4295C30.8463 54.4346 34.9991 53.1122 38.8717 51.0343C40.1153 50.3668 41.2771 49.5545 42.4829 48.824C42.8765 48.5848 42.9961 48.2573 43.0024 47.8102C43.0433 45.2569 43.3771 42.7413 44.0477 40.2792C44.7404 37.7352 45.7793 35.3519 47.3504 33.2204C48.4461 31.728 49.8219 30.5473 51.4371 29.65C53.9086 28.2741 56.4305 28.3434 58.9902 29.3761C59.1445 29.4391 59.2956 29.5115 59.4499 29.5808C59.579 29.6374 59.7081 29.6972 59.8907 29.7791C60.0261 29.5682 60.1614 29.3793 60.2779 29.1778C62.7274 24.9431 65.0258 20.6266 67.1982 16.2439C67.5603 15.5135 67.8846 14.7705 68.508 14.2006C69.2101 13.5646 69.9877 13.5489 70.6835 14.1786C70.885 14.3612 71.1432 14.5123 71.4045 14.5942C73.7659 15.3372 76.1996 15.7559 78.6271 16.203C83.8661 17.1633 89.1492 17.8024 94.4543 18.2432C98.541 18.5832 102.631 18.8855 106.724 19.109C112.064 19.4018 117.406 19.6411 122.749 19.8269C128.574 20.0284 134.399 20.1417 140.226 20.2802C148.762 20.4817 157.3 20.636 165.839 20.4817C169.098 20.4251 172.353 20.2267 175.612 20.0756C176.257 20.0441 176.9 19.9528 177.542 19.8741C178.005 19.8206 178.449 19.8458 178.877 20.0536C179.025 20.126 179.192 20.1795 179.355 20.2015C179.812 20.2645 180.168 20.4975 180.432 20.8564C182.815 24.0993 185.847 26.6684 188.977 29.1463C193.545 32.7607 198.495 35.758 203.658 38.4436C209.662 41.5669 215.817 44.3344 222.121 46.7933C223.994 47.5237 225.848 48.3046 227.719 49.0381C228.424 49.3152 228.805 49.7906 228.865 50.5368C228.994 52.1394 229.132 53.7388 229.261 55.3413C229.535 58.7605 229.806 62.1766 230.077 65.5958C230.329 68.7757 230.584 71.9557 230.836 75.1325C230.842 75.2049 230.845 75.2741 230.848 75.3466C230.889 76.458 230.543 77.0184 229.482 77.3332C227.898 77.8023 226.299 78.2179 224.702 78.6524C224.217 78.7847 223.622 78.7689 223.273 79.0586C222.898 79.3671 222.741 79.9464 222.508 80.4187C221.006 83.4632 219.904 86.6526 219.098 89.9459C218.969 90.4717 219.001 91.0353 218.934 91.5799C218.673 93.7461 218.393 95.909 218.144 98.0752C217.807 101.006 217.442 103.931 217.19 106.869C216.863 110.666 216.589 114.472 216.368 118.276C216.189 121.364 216.098 124.459 216.006 127.551C215.893 131.386 215.824 135.224 215.736 139.062C215.729 139.323 215.736 139.587 215.736 139.924C216.101 140.06 216.409 140.189 216.727 140.293C220.345 141.483 223.969 142.66 227.583 143.857C228.764 144.247 229.929 144.691 231.106 145.107C231.33 145.185 231.563 145.251 231.796 145.302L231.783 145.33ZM229.46 151.023C229.485 150.868 229.485 150.711 229.501 150.45C229.088 150.676 228.754 150.859 228.421 151.041C224.23 153.318 220.074 155.663 215.839 157.855C208.135 161.847 200.519 166.003 192.931 170.209C185.073 174.57 177.129 178.773 169.18 182.967C164.092 185.649 158.963 188.256 153.91 191.002C149.297 193.505 144.744 196.118 140.192 198.734C135.951 201.171 131.751 203.671 127.538 206.152C126.88 206.539 126.247 206.97 125.577 207.399C126.181 216.639 126.783 225.845 127.393 235.218C127.749 234.97 127.979 234.809 128.209 234.642C133.177 231.078 138.218 227.621 143.52 224.561C148.938 221.434 154.278 218.173 159.832 215.285C160.273 215.056 160.694 214.791 161.132 214.542C161.05 214.269 160.987 214.064 160.924 213.862C160.336 211.98 159.907 210.062 159.75 208.098C159.422 203.964 159.929 199.918 161.113 195.948C161.4 194.991 161.822 194.125 162.442 193.344C164.447 190.813 167.042 189.286 170.25 188.996C173.949 188.659 177.665 188.48 181.37 188.231C183.836 188.067 186.298 187.916 188.763 187.743C192.519 187.482 196.272 187.223 200.025 186.934C202.676 186.729 205.327 186.465 207.978 186.251C209.017 186.169 210.065 186.115 211.107 186.131C211.476 186.137 211.737 186.068 212.024 185.866C212.789 185.328 213.554 184.793 214.341 184.289C217.688 182.136 221.038 179.988 224.394 177.854C224.768 177.614 224.979 177.34 225.042 176.896C225.165 176.018 225.332 175.146 225.483 174.274C226.809 166.526 228.131 158.777 229.453 151.026L229.46 151.023ZM228.14 147.833C228.317 147.739 228.474 147.61 228.676 147.471C227.445 146.873 216.249 143.221 215.588 143.214C215.588 143.498 215.594 143.784 215.588 144.068C215.54 145.818 215.477 147.569 215.449 149.316C215.43 150.494 214.848 151.312 213.878 151.879C213.425 152.143 212.937 152.358 212.445 152.546C210.459 153.308 208.4 153.711 206.268 153.755C204.13 153.799 202.059 153.485 200.104 152.597C199.609 152.373 199.153 152.04 198.728 151.699C198.221 151.293 198.082 150.733 198.17 150.081C198.602 146.923 199.017 143.762 199.43 140.601C199.515 139.946 199.559 139.288 199.612 138.725C197.125 137.812 194.751 136.943 192.261 136.03C192.261 136.445 192.258 136.685 192.261 136.921C192.292 138.577 192.302 140.23 192.365 141.886C192.544 146.678 192.742 151.47 192.931 156.265C192.994 157.87 193.076 159.473 193.101 161.082C193.108 161.494 193.026 161.973 192.809 162.31C192.465 162.848 192.031 163.355 191.54 163.758C190.897 164.29 190.195 164.766 189.465 165.172C183.59 168.43 177.759 168.068 172.004 164.863C171.412 164.533 170.917 164 170.439 163.506C170.001 163.056 169.853 162.48 169.973 161.841C170.149 160.899 170.304 159.952 170.467 159.007C171.198 154.779 172.013 150.566 172.63 146.322C173.272 141.886 173.726 137.424 174.255 132.973C174.302 132.576 174.318 132.176 174.346 131.836C170.776 130.372 167.294 128.943 163.745 127.491C163.711 127.967 163.667 128.37 163.66 128.776C163.575 133.882 163.421 138.989 163.44 144.099C163.465 149.927 163.635 155.752 164.035 161.57C164.303 165.449 164.696 169.309 165.316 173.147C165.477 174.142 165.682 175.13 165.779 176.128C165.905 177.41 165.628 178.559 164.425 179.299C164.038 179.538 163.682 179.831 163.289 180.058C157.291 183.489 151.12 183.773 144.801 181.021C143.715 180.549 142.758 179.865 141.901 179.047C141.212 178.389 140.831 177.64 141.212 176.663C141.281 176.487 141.291 176.289 141.316 176.1C141.719 173.059 142.144 170.02 142.515 166.973C142.95 163.427 143.375 159.879 143.737 156.325C144.184 151.91 144.581 147.493 144.955 143.073C145.317 138.797 145.623 134.515 145.953 130.233C145.966 130.051 145.953 129.865 145.953 129.623C144.685 130.136 143.472 130.627 142.216 131.134C142.204 131.301 142.188 131.512 142.175 131.723C141.961 135.605 142.008 139.49 142.119 143.375C142.138 144.096 142.081 144.77 141.429 145.239C141.357 145.289 141.309 145.39 141.272 145.475C141.064 145.938 140.686 146.227 140.258 146.464C139.795 146.719 139.339 146.989 138.854 147.191C137.097 147.915 135.305 148.507 133.319 148.236C133.3 148.457 133.275 148.642 133.271 148.831C133.161 160.392 133.136 171.95 133.974 183.492C134.185 186.411 134.493 189.32 134.984 192.204C135.025 192.431 135.11 192.664 135.23 192.862C135.724 193.678 135.69 194.339 135.016 194.997C134.641 195.362 134.219 195.693 133.778 195.979C130.019 198.441 125.882 199.509 121.411 199.184C119.982 199.08 118.562 198.813 117.148 198.558C115.256 198.218 113.414 197.695 111.664 196.88C110.873 196.511 110.152 196.055 109.551 195.413C109.176 195.01 108.94 194.559 108.962 193.993C108.994 193.155 109.013 192.318 109.06 191.48C109.365 186.238 109.674 180.993 109.992 175.754C110.282 170.943 110.59 166.132 110.886 161.321C110.899 161.139 110.886 160.956 110.886 160.748C110.609 160.748 110.398 160.729 110.19 160.748C108.72 160.893 107.272 160.729 105.833 160.433C103.358 159.926 101.164 158.872 99.3187 157.124C98.6449 156.488 98.3836 155.736 98.4025 154.807C98.4623 152.074 98.4654 149.341 98.4875 146.608C98.4875 146.445 98.4528 146.281 98.4339 146.102C95.5027 147.292 92.6062 148.469 89.6718 149.659C89.7002 150.062 89.7348 150.443 89.7537 150.824C89.7663 151.111 89.8292 151.419 89.7442 151.681C89.5994 152.134 89.7159 152.521 89.8702 152.931C91.6459 157.691 93.4279 162.448 95.1879 167.215C95.975 169.35 96.718 171.503 97.48 173.647C97.7413 174.387 97.7035 175.064 97.0423 175.599C96.951 175.672 96.8503 175.763 96.8125 175.867C96.5386 176.61 95.9309 177.054 95.339 177.501C93.4279 178.934 91.3531 180.086 89.1145 180.904C84.1117 182.731 79.0049 182.967 73.8351 181.707C72.1791 181.304 70.5828 180.722 69.0873 179.878C67.6453 179.063 67.0943 177.454 67.5351 175.876C68.6874 171.793 69.7485 167.687 70.8378 163.588C70.9102 163.314 70.9669 163.018 70.948 162.741C70.8032 160.707 70.6363 158.676 70.4695 156.646C70.4569 156.495 70.3844 156.35 70.3435 156.211C68.2152 156.939 66.1403 157.647 64.0687 158.355C64.2324 159.413 64.3678 160.411 64.5409 161.4C64.8936 163.405 65.2745 165.408 65.6303 167.413C65.8538 168.692 65.6807 169.85 64.522 170.666C64.3457 170.789 64.1883 170.943 64.0151 171.069C62.6676 172.054 61.2067 172.829 59.5947 173.263C55.6906 174.321 51.7803 174.362 47.8825 173.219C46.494 172.813 45.178 172.24 44.0257 171.346C43.1945 170.704 42.7505 169.885 42.7631 168.811C42.7757 167.757 42.7348 166.702 42.7159 165.644C42.7096 165.389 42.6907 165.134 42.6781 164.854C39.0007 166.274 35.3989 167.665 31.7121 169.088C31.9293 169.224 32.0742 169.337 32.2347 169.413C34.1427 170.31 36.016 171.289 37.9712 172.073C43.9501 174.479 49.9479 176.837 55.9583 179.16C64.0466 182.283 72.1665 185.337 80.258 188.461C94.3158 193.889 108.235 199.669 122.387 204.858C123.118 205.125 123.716 205.069 124.349 204.688C127.859 202.572 131.345 200.412 134.893 198.363C140.33 195.22 145.768 192.072 151.287 189.078C158.513 185.161 165.845 181.437 173.09 177.558C181.688 172.955 190.243 168.263 198.825 163.629C203.803 160.94 208.806 158.305 213.787 155.622C218.575 153.044 223.352 150.437 228.134 147.84L228.14 147.833ZM227.832 74.8239C227.262 67.658 226.698 60.5677 226.129 53.3641C225.845 53.4743 225.666 53.5373 225.489 53.6097C221.056 55.4326 216.633 57.2713 212.194 59.0754C202.405 63.0519 192.651 67.126 182.8 70.945C173.175 74.6759 163.468 78.2085 153.749 81.7001C146.785 84.2031 139.745 86.4952 132.736 88.8817C132.242 89.0486 131.741 89.1997 131.178 89.376C131.338 95.95 131.496 102.48 131.656 109.101C131.933 108.978 132.103 108.906 132.267 108.824C138.932 105.597 145.554 102.282 152.272 99.1645C160.994 95.1188 169.957 91.6586 179.044 88.5134C187.875 85.4562 196.747 82.5187 205.812 80.2235C212.244 78.5957 218.711 77.0971 225.162 75.5323C226.04 75.3214 226.913 75.0695 227.832 74.8239ZM224.325 50.8611C224.24 50.795 224.205 50.754 224.161 50.7383C223.219 50.3825 222.275 50.0362 221.337 49.6741C214.961 47.2152 208.733 44.4225 202.66 41.2804C197.125 38.4216 191.826 35.2165 186.946 31.3376C183.823 28.8566 180.822 26.2497 178.36 23.0824C178.253 22.9438 177.998 22.8557 177.816 22.8588C177.337 22.8683 176.862 22.9627 176.386 22.9879C173.465 23.1359 170.543 23.3846 167.621 23.3972C160.068 23.435 152.512 23.4192 144.959 23.3311C138.366 23.2524 131.77 23.0477 125.18 22.8872C122.853 22.8305 120.527 22.7707 118.203 22.6699C114.563 22.5125 110.921 22.3299 107.281 22.1378C104.721 22.0024 102.155 21.8828 99.5989 21.6624C95.3485 21.294 91.1012 20.8722 86.8571 20.4251C82.7547 19.9937 78.6932 19.2822 74.6506 18.4699C73.8131 18.2999 72.9788 18.111 72.0153 17.9032C72.1192 18.2338 72.1665 18.4195 72.2326 18.5958C73.8446 22.9123 75.6675 27.1344 77.8777 31.1802C78.0604 31.5107 78.2776 31.5989 78.6113 31.6304C81.7944 31.92 84.4958 33.2455 86.7658 35.4746C87.9024 36.5892 88.8721 37.836 89.6592 39.2213C92.4645 44.1675 93.897 49.523 94.4008 55.1556C94.4575 55.7979 94.574 56.3866 94.8951 56.988C95.997 59.0565 97.3446 60.9424 98.8684 62.7055C104.895 69.6699 111.724 75.7464 119.299 80.9791C122.463 83.1641 125.797 85.0501 129.352 86.533C129.619 86.6432 129.846 86.7376 130.164 86.6306C131.458 86.1961 132.774 85.8309 134.068 85.3932C142.037 82.7076 150.009 80.0283 157.883 77.0751C165.172 74.3391 172.526 71.7699 179.793 68.9741C194.553 63.2975 209.114 57.1202 223.755 51.1445C223.94 51.0689 224.114 50.9681 224.318 50.8674L224.325 50.8611ZM218.528 82.1126C218.812 81.4042 219.111 80.7021 219.457 79.8677C213.645 81.2467 207.994 82.6226 202.358 84.1968C203.658 86.8636 204.565 89.5555 205.132 92.3608C205.305 93.214 205.78 93.7114 206.611 93.8877C207.128 93.9979 207.641 94.1144 208.164 94.1805C210.452 94.4734 212.647 94.1428 214.747 93.173C215.289 92.9212 215.575 92.5717 215.679 91.9546C216.239 88.5637 217.25 85.2988 218.531 82.1126H218.528ZM211.866 212.89C214.061 208.507 215.219 203.866 215.122 198.958C215.074 196.508 214.454 194.172 213.28 192C212.675 190.888 211.894 189.931 210.852 189.197C210.594 189.015 210.352 188.889 209.999 188.93C207.811 189.182 205.62 189.452 203.422 189.626C198.784 189.994 194.147 190.318 189.506 190.639C185.536 190.913 181.562 191.159 177.592 191.42C176.855 191.468 176.119 191.53 175.281 191.59C175.369 191.741 175.395 191.811 175.442 191.861C177.381 193.86 178.675 196.256 179.595 198.857C181.181 203.347 181.556 207.981 181.002 212.688C180.69 215.348 180.013 217.914 178.644 220.254C178.603 220.323 178.606 220.414 178.581 220.54C178.782 220.509 178.921 220.49 179.059 220.465C182.013 219.961 184.953 219.382 187.916 218.972C191.43 218.484 194.956 218.094 198.485 217.751C201.369 217.471 204.269 217.329 207.162 217.118C207.471 217.096 207.83 217.118 208.075 216.967C209.036 216.387 210.049 215.855 210.676 214.86C211.082 214.212 211.523 213.576 211.863 212.893L211.866 212.89ZM214.955 99.7124C215.081 98.5506 215.241 97.392 215.396 96.1672C215.2 96.2144 215.065 96.2365 214.939 96.2837C212.168 97.3195 209.341 97.521 206.454 96.8756C206.259 96.8315 206.051 96.8378 205.815 96.8189C205.522 105.735 204.968 114.567 204.159 123.379C203.35 132.211 202.44 141.033 201.196 149.892C201.605 150.05 201.933 150.201 202.276 150.298C205.626 151.265 208.866 150.865 212.042 149.543C212.49 149.357 212.543 149.042 212.553 148.633C212.694 142.16 212.83 135.683 212.996 129.21C213.081 125.901 213.176 122.592 213.355 119.286C213.566 115.382 213.84 111.484 214.152 107.587C214.36 104.958 214.675 102.338 214.955 99.7155V99.7124ZM202.896 95.6949C202.909 95.3707 202.824 95.0369 202.745 94.7158C202.569 93.9979 202.355 93.2895 202.185 92.5685C201.643 90.2765 200.938 88.0411 199.905 85.9159C199.76 85.6199 199.59 85.3366 199.43 85.0406C199.168 85.1067 198.961 85.154 198.756 85.2138C198.529 85.2799 198.303 85.3586 198.06 85.4405C198 85.6514 197.95 85.8624 197.874 86.0607C197.799 86.2622 197.704 86.4574 197.613 86.6526C195.708 90.6858 194.795 94.9362 194.83 99.3975C194.836 100.254 194.745 101.12 194.632 101.97C194.232 104.939 193.741 107.898 193.397 110.874C193.114 113.326 193.001 115.795 192.796 118.257C192.415 122.945 192.267 127.639 192.267 132.343C192.267 132.532 192.286 132.721 192.295 132.919C194.83 133.845 197.342 134.764 199.956 135.718C199.993 135.422 200.022 135.211 200.044 135C200.252 132.973 200.472 130.948 200.664 128.92C200.988 125.533 201.331 122.145 201.599 118.751C201.908 114.853 202.178 110.955 202.399 107.051C202.613 103.27 202.745 99.4825 202.899 95.6981L202.896 95.6949ZM192.698 91.9861C193.149 90.2009 193.715 88.4504 194.263 86.5676C187.995 88.4787 181.83 90.6858 175.618 92.8393C175.694 93.0188 175.738 93.151 175.804 93.2769C177.054 95.6383 177.976 98.1318 178.584 100.726C178.776 101.542 179.192 101.964 179.925 102.19C180.108 102.247 180.287 102.319 180.467 102.379C182.161 102.924 183.902 103.015 185.655 102.851C187.614 102.669 189.443 102.077 191.112 101C191.659 100.644 191.921 100.235 191.899 99.5392C191.82 96.989 192.075 94.4608 192.698 91.9861ZM190.907 107.206C191.058 106.289 191.162 105.364 191.304 104.319C189.342 105.147 187.431 105.707 185.403 105.839C183.37 105.975 181.392 105.72 179.352 105.131C179.336 105.42 179.324 105.609 179.318 105.798C179.185 108.6 179.088 111.406 178.911 114.205C178.76 116.597 178.53 118.984 178.316 121.374C178.023 124.645 177.743 127.919 177.394 131.184C176.972 135.142 176.478 139.09 176.031 143.044C175.35 149.077 174.255 155.04 173.084 160.991C172.898 161.935 172.718 161.863 173.776 162.511C173.858 162.562 173.943 162.606 174.028 162.65C176.925 164.085 179.941 164.876 183.2 164.328C185.583 163.928 187.749 163.031 189.657 161.529C190.025 161.239 190.199 160.912 190.17 160.427C190.082 159.013 190.032 157.603 189.969 156.189C189.805 152.332 189.638 148.475 189.487 144.619C189.241 138.312 189.245 132.006 189.43 125.7C189.518 122.655 189.764 119.62 189.959 116.579C190.161 113.446 190.397 110.313 190.904 107.209L190.907 107.206ZM178.304 208.941C178.282 206.892 178.118 204.984 177.728 203.098C177.132 200.223 176.103 197.538 174.384 195.135C173.581 194.015 172.564 193.168 171.298 192.632C170.53 192.308 169.749 192.214 168.909 192.362C167.347 192.636 166.229 193.58 165.184 194.66C164.661 195.202 164.281 195.831 164.048 196.555C162.665 200.847 162.212 205.223 162.936 209.684C163.339 212.162 164.107 214.524 165.427 216.687C166.535 218.506 167.961 219.989 169.888 220.95C170.496 221.252 171.132 221.444 171.818 221.456C173.581 221.491 174.796 220.543 175.785 219.224C176.421 218.371 176.83 217.395 177.17 216.394C178.005 213.935 178.282 211.397 178.304 208.945V208.941ZM176.314 103.32C176.314 103.062 176.26 102.798 176.182 102.552C176.04 102.099 175.832 101.664 175.703 101.205C175.055 98.9158 174.305 96.671 173.147 94.5804C173.024 94.3569 172.882 94.1396 172.74 93.9035C172.341 94.0452 172.007 94.1837 171.667 94.2782C171.084 94.445 170.622 94.6969 170.555 95.3895C170.536 95.5942 170.411 95.7925 170.322 95.9909C168.147 101 166.529 106.182 165.508 111.551C165.452 111.85 165.351 112.158 165.197 112.419C165.055 112.662 164.976 112.876 165.033 113.159C165.071 113.342 165.049 113.543 165.03 113.732C164.718 116.689 164.397 119.642 164.088 122.598C164.032 123.143 164.01 123.691 163.969 124.283C167.476 125.882 170.99 127.378 174.664 128.735C174.746 127.869 174.815 127.11 174.888 126.355C175.435 120.675 176.031 114.995 176.248 109.29C176.323 107.303 176.304 105.31 176.314 103.32ZM166.714 96.9543C166.806 96.7182 166.897 96.4821 167.042 96.1074C160.027 98.8434 153.283 101.781 146.624 105.099C146.678 105.25 146.703 105.342 146.744 105.424C147.805 107.495 148.648 109.658 149.388 111.862C149.495 112.18 149.681 112.407 149.974 112.545C150.298 112.697 150.616 112.867 150.956 112.97C152.153 113.333 153.371 113.575 154.627 113.584C157.357 113.61 159.882 112.92 162.19 111.45C162.476 111.267 162.631 111.05 162.681 110.713C162.763 110.168 162.867 109.627 162.987 109.092C163.918 104.948 165.165 100.902 166.711 96.948L166.714 96.9543ZM162.436 177.111C162.798 176.859 162.924 176.604 162.832 176.157C162.634 175.171 162.499 174.17 162.332 173.178C161.551 168.44 161.129 163.66 160.924 158.868C160.701 153.623 160.518 148.372 160.48 143.12C160.446 138.35 160.556 133.577 160.754 128.807C160.905 125.12 161.286 121.443 161.573 117.762C161.642 116.887 161.746 116.018 161.847 115.03C157.858 116.714 153.888 117.06 149.741 115.678C149.722 116.056 149.713 116.292 149.7 116.531C149.483 120.53 149.3 124.528 149.042 128.527C148.819 131.997 148.519 135.46 148.239 138.926C147.943 142.607 147.66 146.287 147.314 149.965C146.929 154.07 146.504 158.173 146.054 162.272C145.73 165.225 145.349 168.175 144.971 171.122C144.741 172.929 144.48 174.734 144.209 176.534C144.143 176.969 144.238 177.281 144.618 177.498C145.179 177.819 145.711 178.209 146.3 178.458C149.558 179.834 152.927 180.331 156.425 179.585C158.576 179.126 160.616 178.392 162.436 177.114V177.111ZM146.766 115.458C146.772 114.579 146.822 113.651 146.58 112.826C145.998 110.852 145.22 108.94 144.282 107.102C144.219 106.979 144.108 106.878 143.976 106.715C143.183 111.887 142.153 125.445 142.371 127.932C143.655 127.371 144.918 126.82 146.224 126.251C146.249 126.03 146.293 125.772 146.309 125.511C146.423 123.694 146.545 121.877 146.63 120.058C146.703 118.527 146.759 116.994 146.769 115.461L146.766 115.458ZM139.424 125.8C139.622 119.847 140.176 113.921 140.818 107.883C139.751 108.405 138.813 108.865 138 109.262C137.786 109.885 137.635 110.389 137.446 110.874C137.166 111.585 136.823 112.278 136.568 112.999C135.752 115.3 134.965 117.608 134.175 119.916C134.131 120.048 134.131 120.199 134.122 120.341C133.983 122.542 133.782 124.739 133.725 126.943C133.571 132.718 133.479 138.495 133.366 144.269C133.347 145.176 133.523 145.346 134.427 145.355C134.569 145.355 134.717 145.362 134.858 145.336C136.379 145.059 137.827 144.593 139.206 143.652C138.92 137.683 139.232 131.745 139.43 125.807L139.424 125.8ZM133.838 111.853C133.892 111.689 133.926 111.522 134.002 111.239C133.312 111.61 132.749 111.928 132.176 112.218C131.697 112.457 131.19 112.63 130.655 112.435C129.915 112.168 129.169 111.906 128.454 111.585C122.353 108.862 116.188 106.293 109.986 103.815C109.79 103.739 109.592 103.676 109.246 103.553C109.479 104.104 109.649 104.498 109.816 104.895C111.453 108.742 112.63 112.737 113.622 116.786C113.915 117.98 114.535 118.682 115.634 119.063C115.839 119.132 116.037 119.217 116.242 119.289C119.935 120.571 123.691 120.735 127.504 119.938C128.848 119.658 130.139 119.236 131.301 118.474C131.568 118.298 131.754 118.109 131.861 117.778C132.503 115.798 133.18 113.83 133.845 111.856L133.838 111.853ZM132.166 193.511C132.179 193.391 132.195 193.344 132.185 193.3C131.452 189.257 131.046 185.174 130.86 181.081C130.595 175.187 130.34 169.29 130.306 163.39C130.224 149.792 130.378 136.19 130.976 122.602C130.986 122.422 130.961 122.243 130.948 122.01C128.265 122.957 125.558 123.373 122.778 123.357C119.982 123.341 117.277 122.828 114.585 121.852C114.585 122.233 114.585 122.498 114.585 122.759C114.598 125.517 114.655 128.275 114.617 131.033C114.529 137.317 114.422 143.599 114.261 149.883C114.151 154.221 113.978 158.56 113.757 162.895C113.528 167.372 113.203 171.846 112.926 176.323C112.58 181.925 112.243 187.526 111.887 193.127C111.862 193.505 111.988 193.722 112.284 193.885C112.517 194.011 112.747 194.141 112.986 194.251C114.236 194.814 115.539 195.211 116.878 195.507C119.604 196.111 122.334 196.559 125.145 196.156C127.68 195.79 130.016 194.943 132.163 193.52L132.166 193.511ZM128.7 108.468C128.543 101.982 128.385 95.6162 128.231 89.2721C127.938 89.1399 127.721 89.0391 127.504 88.9415C124.887 87.7892 122.365 86.4606 119.957 84.9241C114.157 81.2184 108.818 76.9302 103.849 72.1729C100.695 69.1536 97.6405 66.0335 94.9707 62.5607C94.9234 62.5009 94.8353 62.4726 94.6999 62.3907C94.6999 62.7591 94.6999 63.0456 94.6999 63.3321C94.6999 63.6186 94.7188 63.9114 94.6842 64.1948C94.6432 64.5505 94.6086 64.9189 94.4827 65.2463C94.256 65.8351 93.6546 66.1562 93.0375 66.0933C92.411 66.0335 91.9261 65.6084 91.7876 64.9756C91.7403 64.7457 91.7278 64.5002 91.734 64.2609C91.8285 60.637 91.7152 57.0195 91.2492 53.4208C90.7517 49.5639 89.6813 45.8708 88.0031 42.3603C87.0429 40.3547 85.8496 38.5034 84.1337 37.0489C81.6275 34.9268 78.7278 34.0515 75.4944 34.6812C72.4561 35.2731 70.0476 36.86 68.5521 39.6621C68.0609 40.5783 67.7146 41.5354 67.4973 42.5555C67.3084 43.4371 66.6252 43.881 65.8098 43.7488C65.0352 43.6228 64.5409 42.9207 64.6322 42.0423C64.6669 41.7086 64.733 41.3748 64.8306 41.0568C64.9376 40.7137 64.9187 40.4083 64.7393 40.0934C63.9837 38.7868 63.2878 37.4456 62.4787 36.1704C61.4586 34.5679 60.0922 33.2865 58.4015 32.3986C56.2511 31.2715 54.1385 31.262 52.0983 32.7135C51.0278 33.4722 50.1085 34.3695 49.3812 35.4589C47.5488 38.2138 46.6326 41.2961 46.1918 44.539C45.7227 47.9897 45.8486 51.4278 46.4437 54.8533C46.5476 55.4421 46.6231 56.0434 46.6042 56.6385C46.5822 57.4382 45.9745 57.9955 45.2221 58.0207C44.4507 58.0458 43.8619 57.5452 43.7391 56.7424C43.5502 55.4862 43.3739 54.2268 43.1976 52.9706C43.1598 52.6966 43.1315 52.4227 43.0906 52.0544C39.9705 53.9623 36.7748 55.4547 33.3934 56.5755C30.0025 57.6995 26.5833 58.6755 22.9531 58.9935C24.266 65.3943 24.9744 71.7951 25.5411 78.2337C29.1178 78.6272 32.685 78.8445 36.2081 79.5308C36.7244 79.0428 37.1778 78.5832 37.6658 78.1581C38.0184 77.8527 38.4435 77.6733 38.9252 77.7457C39.4919 77.8307 39.9138 78.1392 40.0933 78.687C40.301 79.3167 40.1436 79.8929 39.6336 80.3117C38.7803 81.0106 38.2136 81.9142 37.6752 82.8587C35.21 87.169 36.2112 93.4816 41.2487 96.7025C45.5149 99.429 50.1557 100.855 55.2404 100.902C59.6608 100.947 63.9899 100.326 68.2781 99.3503C75.7651 97.647 82.9121 94.9645 89.845 91.6964C90.2795 91.4918 90.6856 91.2305 91.1201 91.0321C91.8159 90.7141 92.5715 90.9314 92.9651 91.5296C93.3618 92.1341 93.261 92.8991 92.6975 93.4218C92.5243 93.5823 92.3071 93.6988 92.1119 93.8374C91.9733 93.9381 91.838 94.0389 91.6427 94.1837C104.334 98.135 116.519 103.125 128.694 108.468H128.7ZM124.418 235.225C124.418 234.985 124.424 234.869 124.418 234.755C124.239 231.931 124.056 229.11 123.873 226.286C123.496 220.471 123.105 214.659 122.746 208.844C122.712 208.29 122.538 208.016 121.997 207.817C118.039 206.366 114.079 204.921 110.149 203.388C97.9208 198.618 85.7142 193.785 73.4825 189.024C64.1505 185.391 54.7933 181.83 45.4488 178.235C40.3073 176.254 35.1439 174.321 30.2764 171.708C30.1882 171.661 30.0749 171.657 29.9332 171.623C29.949 171.809 29.9521 171.925 29.9678 172.045C30.5346 176.538 31.1107 181.03 31.668 185.526C31.8443 186.931 31.9766 188.338 32.1371 189.742C32.1718 190.044 32.1875 190.337 32.5433 190.514C34.6213 191.549 36.6898 192.607 38.8402 193.7C39.0983 193.331 39.3124 193.017 39.5328 192.708C40.1405 191.848 40.7324 190.995 41.6832 190.438C44.2901 188.905 47.0797 187.954 50.1053 187.793C54.3022 187.57 58.1181 188.782 61.5814 191.087C63.3729 192.28 64.8369 193.848 65.8601 195.771C67.3714 198.605 67.8909 201.637 67.5477 204.82C67.4816 205.434 67.3934 206.045 67.3147 206.665C67.4564 206.747 67.5571 206.81 67.661 206.863C69.6194 207.877 71.5588 208.932 73.5392 209.895C81.5772 213.803 89.6655 217.603 97.6028 221.718C103.198 224.621 108.843 227.423 114.466 230.266C117.438 231.768 120.413 233.266 123.389 234.762C123.7 234.919 124.025 235.051 124.421 235.234L124.418 235.225ZM111.412 146.999C111.667 138.177 111.705 129.352 111.664 120.527C111.664 120.36 111.695 120.149 111.61 120.039C111.232 119.563 111.188 118.99 111.04 118.436C110.492 116.374 109.923 114.321 109.315 112.278C108.386 109.148 107.297 106.079 105.735 103.201C105.612 102.974 105.502 102.713 105.48 102.461C105.449 102.105 105.25 101.976 104.958 101.869C103.153 101.224 101.353 100.569 99.5485 99.9233C99.4068 99.8729 99.2462 99.8761 99.0447 99.8446C99.0605 100.144 99.0699 100.38 99.0857 100.616C99.3029 104.038 99.5359 107.458 99.7374 110.883C99.9232 114.066 100.074 117.252 100.241 120.435C100.414 123.763 100.591 127.091 100.754 130.422C100.915 133.703 101.047 136.987 101.223 140.267C101.475 144.94 101.545 149.615 101.397 154.291C101.378 154.876 101.557 155.216 101.985 155.553C103.556 156.797 105.373 157.411 107.319 157.716C108.534 157.908 109.746 157.959 111.025 157.619C111.047 157.323 111.075 157.086 111.081 156.85C111.195 153.567 111.314 150.286 111.412 146.999ZM98.3584 142.83C98.4056 140.11 96.3056 100.887 95.9782 98.6261C93.2422 97.7887 90.4999 96.9417 87.745 96.1231C87.1342 95.9405 86.9138 96.1483 86.939 96.8158C87.0838 100.984 87.2129 105.156 87.3986 109.321C87.5938 113.704 87.8457 118.084 88.0756 122.466C88.2298 125.41 88.3747 128.354 88.5541 131.298C88.8186 135.724 89.1051 140.151 89.3853 144.578C89.4262 145.195 89.4798 145.812 89.5301 146.498C92.5558 145.349 95.5027 144.184 98.3584 142.83ZM93.2705 175.369C93.7333 175.045 94.1458 174.649 94.596 174.271C90.015 161.715 85.4592 149.228 80.8719 136.659C80.6956 137.361 80.5413 138.01 80.3713 138.655C78.8821 144.307 77.374 149.955 75.91 155.616C74.6128 160.625 73.3786 165.65 72.0846 170.663C71.5809 172.611 70.9984 174.538 70.4506 176.475C70.2648 177.136 70.2648 177.155 70.8756 177.485C71.2345 177.677 71.6029 177.85 71.9807 177.998C76.1115 179.607 80.3524 179.925 84.6973 179.091C87.8331 178.486 90.6667 177.199 93.2673 175.369H93.2705ZM86.007 142.138C86.0669 142.314 86.1487 142.481 86.218 142.651C85.3868 127.614 84.4958 112.612 83.992 97.4675C78.9514 99.4731 73.8603 101.104 68.5993 102.316C68.6371 102.76 68.6559 103.138 68.6969 103.516C68.8165 104.611 68.955 105.707 69.0621 106.803C69.4242 110.549 69.7925 114.296 70.1294 118.043C70.4632 121.767 70.7654 125.495 71.0771 129.223C71.3857 132.925 71.6816 136.631 72.0027 140.334C72.368 144.515 72.7552 148.693 73.133 152.871C73.1582 153.135 73.1992 153.4 73.2338 153.664C73.4195 153.431 73.4825 153.204 73.5423 152.975C74.2413 150.283 74.9308 147.591 75.6423 144.905C76.738 140.759 77.9816 136.65 78.7688 132.428C78.9262 131.581 79.3071 130.998 80.0911 130.602C81.1364 130.07 82.0652 130.397 82.421 131.512C82.5815 132.015 82.7043 132.525 82.8743 133.026C83.9133 136.064 84.9586 139.099 86.0039 142.138H86.007ZM70.2018 33.6517C71.6312 32.7827 73.174 32.1656 74.7608 31.7721C73.7659 29.6217 72.7678 27.5532 71.8453 25.45C70.9165 23.3311 70.0664 21.1776 69.1786 19.0303C66.9117 23.2209 64.6543 27.3957 62.3748 31.6052C64.1631 33.1385 65.3942 35.1 66.5496 37.2031C67.617 35.7674 68.7504 34.5364 70.1987 33.6517H70.2018ZM70.1924 153.11C70.1829 152.861 70.1798 152.742 70.1703 152.625C69.8933 149.593 69.6099 146.561 69.3423 143.529C69.1282 141.118 68.9362 138.703 68.7315 136.291C68.4167 132.614 68.0987 128.936 67.787 125.256C67.5257 122.151 67.2958 119.041 67.0062 115.939C66.6598 112.24 66.2663 108.547 65.8916 104.851C65.8286 104.218 65.7373 103.585 65.6649 102.98C63.0486 103.295 60.5141 103.601 57.9796 103.906C57.6994 107.716 62.7715 153.189 63.7538 155.374C65.8885 154.628 68.0294 153.875 70.1987 153.116L70.1924 153.11ZM64.6858 203.734C64.7235 201.867 64.5063 200.428 64.119 199.162C63.3445 196.644 61.8081 194.663 59.6105 193.303C55.1617 190.548 50.4327 189.802 45.4676 191.826C44.0131 192.421 42.5081 193.013 41.7966 194.613C39.8666 197.163 38.9535 200.082 38.7615 203.23C38.5977 205.944 39.0165 208.542 40.7072 210.793C42.549 213.248 45.0143 214.813 47.9581 215.544C51.6732 216.469 55.2404 215.855 58.6156 214.117C59.8623 213.478 60.9171 212.556 61.7734 211.438C63.6373 209.007 64.7172 206.294 64.6889 203.728L64.6858 203.734ZM61.8427 168.997C62.825 168.345 62.7967 168.352 62.5952 167.218C62.1229 164.551 61.6444 161.885 61.2351 159.212C60.5581 154.804 59.9096 150.393 59.2988 145.979C58.8863 143.013 58.54 140.035 58.1937 137.059C57.8284 133.917 57.479 130.772 57.1515 127.623C56.7643 123.88 56.399 120.133 56.0401 116.387C55.7631 113.474 55.5049 110.562 55.2436 107.65C55.1334 106.412 55.0421 105.172 54.9476 103.994C52.7815 103.683 50.6657 103.453 48.5783 103.056C46.4594 102.656 44.4979 101.734 42.4672 100.808C42.5742 102.127 42.6844 103.343 42.7663 104.561C43.1409 110.134 43.5377 115.706 43.8714 121.282C44.1201 125.448 44.2996 129.616 44.4885 133.785C44.7152 138.791 44.9482 143.797 45.1245 148.806C45.3512 155.349 45.5275 161.894 45.7101 168.437C45.7195 168.818 45.8297 169.092 46.1698 169.249C46.9946 169.627 47.7975 170.074 48.6539 170.357C51.3017 171.229 54.0188 171.277 56.7611 170.883C58.5904 170.618 60.2937 170.027 61.8396 169.003L61.8427 168.997Z"
    fill="black" />
  <path
    d="M229.504 150.45C229.485 150.712 229.488 150.869 229.463 151.023C228.141 158.772 226.818 166.52 225.493 174.272C225.345 175.144 225.175 176.016 225.052 176.894C224.989 177.338 224.778 177.612 224.403 177.851C221.047 179.986 217.697 182.133 214.35 184.287C213.563 184.794 212.795 185.326 212.033 185.864C211.75 186.066 211.485 186.135 211.117 186.129C210.075 186.11 209.026 186.163 207.987 186.248C205.336 186.462 202.685 186.727 200.034 186.931C196.281 187.221 192.528 187.479 188.772 187.741C186.307 187.914 183.845 188.065 181.38 188.229C177.671 188.474 173.959 188.657 170.26 188.994C167.051 189.283 164.457 190.813 162.451 193.342C161.831 194.122 161.409 194.991 161.123 195.945C159.939 199.916 159.432 203.961 159.759 208.095C159.917 210.063 160.348 211.977 160.934 213.86C160.997 214.062 161.06 214.269 161.142 214.54C160.704 214.789 160.282 215.053 159.841 215.283C154.287 218.17 148.948 221.432 143.529 224.559C138.224 227.619 133.187 231.073 128.218 234.64C127.988 234.804 127.759 234.964 127.403 235.216C126.792 225.843 126.188 216.637 125.586 207.396C126.257 206.968 126.89 206.537 127.548 206.15C131.76 203.669 135.964 201.169 140.201 198.732C144.751 196.115 149.307 193.502 153.919 190.999C158.972 188.257 164.101 185.65 169.189 182.964C177.139 178.774 185.079 174.567 192.941 170.207C200.529 166.001 208.145 161.845 215.849 157.852C220.084 155.661 224.24 153.315 228.43 151.039C228.764 150.857 229.095 150.674 229.51 150.447L229.504 150.45Z"
    fill="#7A8125" />
  <path
    d="M228.676 147.475C228.474 147.61 228.317 147.739 228.141 147.837C223.361 150.434 218.585 153.041 213.793 155.62C208.812 158.302 203.81 160.941 198.832 163.626C190.249 168.261 181.695 172.952 173.096 177.555C165.849 181.434 158.519 185.162 151.293 189.075C145.774 192.066 140.337 195.218 134.9 198.36C131.351 200.409 127.866 202.569 124.355 204.685C123.723 205.066 123.124 205.123 122.394 204.855C108.242 199.666 94.3223 193.886 80.2645 188.458C72.173 185.335 64.0563 182.284 55.9648 179.157C49.9545 176.834 43.9567 174.476 37.9778 172.07C36.0257 171.286 34.1493 170.307 32.2413 169.41C32.0807 169.334 31.9359 169.221 31.7187 169.086C35.4023 167.662 39.0042 166.271 42.6847 164.851C42.7004 165.134 42.7193 165.386 42.7225 165.641C42.7414 166.696 42.7791 167.751 42.7697 168.808C42.7571 169.882 43.2042 170.701 44.0322 171.343C45.1877 172.237 46.5038 172.81 47.8891 173.216C51.7868 174.359 55.6972 174.318 59.6013 173.26C61.2133 172.823 62.6742 172.051 64.0217 171.066C64.1949 170.94 64.3523 170.786 64.5286 170.663C65.6872 169.847 65.8604 168.689 65.6369 167.411C65.2842 165.405 64.9033 163.403 64.5475 161.397C64.3743 160.405 64.2358 159.407 64.0752 158.352C66.1469 157.644 68.2217 156.936 70.3501 156.208C70.391 156.347 70.4666 156.492 70.476 156.643C70.6429 158.674 70.8098 160.708 70.9546 162.738C70.9735 163.015 70.9168 163.311 70.8444 163.585C69.755 167.684 68.694 171.79 67.5417 175.874C67.0977 177.448 67.6519 179.06 69.0939 179.875C70.5894 180.722 72.1856 181.302 73.8417 181.705C79.0083 182.964 84.1151 182.728 89.1211 180.902C91.3628 180.083 93.4376 178.931 95.3456 177.498C95.9375 177.054 96.5451 176.61 96.8191 175.864C96.8568 175.76 96.9576 175.672 97.0489 175.597C97.7069 175.058 97.7478 174.384 97.4865 173.644C96.7246 171.497 95.9816 169.347 95.1945 167.212C93.4345 162.445 91.6556 157.688 89.8767 152.928C89.7256 152.518 89.606 152.131 89.7508 151.678C89.8327 151.416 89.7728 151.108 89.7602 150.821C89.7414 150.44 89.7099 150.059 89.6784 149.656C92.6127 148.466 95.5093 147.289 98.4405 146.099C98.4625 146.281 98.4972 146.445 98.494 146.606C98.472 149.338 98.4688 152.074 98.409 154.804C98.3901 155.736 98.6515 156.485 99.3252 157.121C101.17 158.869 103.365 159.924 105.839 160.43C107.278 160.726 108.726 160.887 110.197 160.745C110.405 160.723 110.619 160.745 110.893 160.745C110.893 160.953 110.902 161.136 110.893 161.318C110.597 166.129 110.291 170.94 109.998 175.751C109.68 180.993 109.372 186.235 109.067 191.477C109.019 192.315 109 193.152 108.969 193.99C108.947 194.553 109.183 195.007 109.558 195.41C110.156 196.052 110.88 196.508 111.67 196.877C113.421 197.692 115.263 198.215 117.155 198.555C118.569 198.81 119.988 199.078 121.418 199.182C125.889 199.503 130.026 198.438 133.785 195.976C134.226 195.69 134.644 195.359 135.022 194.994C135.696 194.333 135.731 193.672 135.236 192.859C135.117 192.661 135.029 192.428 134.991 192.201C134.5 189.317 134.191 186.408 133.98 183.49C133.143 171.947 133.168 160.39 133.278 148.828C133.278 148.643 133.306 148.457 133.325 148.233C135.312 148.504 137.1 147.915 138.86 147.188C139.345 146.987 139.802 146.716 140.264 146.461C140.689 146.228 141.067 145.935 141.278 145.472C141.319 145.387 141.363 145.29 141.436 145.236C142.091 144.77 142.144 144.096 142.125 143.372C142.015 139.487 141.968 135.602 142.182 131.72C142.194 131.509 142.21 131.298 142.223 131.131C143.482 130.621 144.691 130.133 145.96 129.62C145.96 129.865 145.973 130.051 145.96 130.231C145.633 134.509 145.324 138.791 144.962 143.07C144.587 147.49 144.191 151.908 143.743 156.322C143.385 159.876 142.956 163.425 142.522 166.97C142.15 170.014 141.725 173.053 141.322 176.097C141.297 176.286 141.288 176.484 141.218 176.661C140.837 177.637 141.218 178.386 141.908 179.044C142.764 179.863 143.725 180.546 144.808 181.018C151.127 183.77 157.294 183.487 163.295 180.055C163.689 179.828 164.045 179.535 164.432 179.296C165.635 178.556 165.915 177.407 165.786 176.125C165.688 175.124 165.484 174.136 165.323 173.144C164.7 169.306 164.309 165.446 164.042 161.567C163.639 155.749 163.469 149.924 163.446 144.096C163.424 138.99 163.582 133.883 163.667 128.773C163.673 128.37 163.72 127.964 163.752 127.488C167.3 128.943 170.782 130.369 174.353 131.833C174.327 132.173 174.312 132.573 174.261 132.97C173.732 137.422 173.279 141.883 172.637 146.319C172.02 150.563 171.204 154.776 170.474 159.004C170.31 159.949 170.156 160.896 169.979 161.838C169.86 162.477 170.008 163.053 170.445 163.503C170.927 163.998 171.418 164.53 172.01 164.86C177.769 168.065 183.596 168.428 189.471 165.169C190.202 164.763 190.904 164.287 191.546 163.755C192.037 163.349 192.475 162.842 192.815 162.307C193.029 161.97 193.114 161.491 193.108 161.079C193.083 159.473 193.004 157.868 192.938 156.262C192.749 151.47 192.548 146.678 192.371 141.883C192.308 140.23 192.299 138.574 192.267 136.918C192.264 136.682 192.267 136.442 192.267 136.027C194.755 136.94 197.132 137.812 199.619 138.722C199.565 139.286 199.521 139.944 199.436 140.598C199.024 143.759 198.608 146.92 198.177 150.078C198.089 150.727 198.227 151.291 198.734 151.697C199.159 152.037 199.616 152.37 200.11 152.594C202.065 153.482 204.137 153.797 206.275 153.753C208.406 153.709 210.465 153.306 212.452 152.544C212.943 152.355 213.431 152.144 213.885 151.876C214.854 151.306 215.437 150.488 215.456 149.313C215.484 147.563 215.547 145.812 215.594 144.065C215.6 143.781 215.594 143.495 215.594 143.212C216.255 143.218 227.451 146.87 228.682 147.468L228.676 147.475Z"
    fill="#7A8125" />
  <path
    d="M226.128 53.3652C226.698 60.5657 227.262 67.6592 227.832 74.825C226.912 75.0706 226.04 75.3225 225.162 75.5334C218.711 77.0982 212.247 78.5937 205.812 80.2246C196.747 82.5198 187.878 85.4542 179.043 88.5145C169.957 91.6629 160.993 95.1199 152.272 99.1657C145.557 102.283 138.932 105.598 132.267 108.825C132.1 108.904 131.93 108.976 131.656 109.102C131.496 102.481 131.335 95.9511 131.178 89.3772C131.738 89.2008 132.242 89.0497 132.736 88.8829C139.745 86.4963 146.784 84.2043 153.749 81.7012C163.465 78.2096 173.172 74.6802 182.8 70.9462C192.651 67.1271 202.402 63.053 212.193 59.0765C216.633 57.2725 221.059 55.4338 225.489 53.6108C225.666 53.5384 225.845 53.4754 226.128 53.3652Z"
    fill="#7A8125" />
  <path
    d="M224.161 50.7418C224.202 50.7576 224.236 50.7953 224.325 50.8646C224.123 50.9654 223.947 51.0661 223.761 51.1417C209.121 57.1174 194.559 63.2947 179.799 68.9713C172.533 71.7671 165.178 74.3363 157.889 77.0723C150.015 80.0287 142.043 82.7048 134.074 85.3905C132.78 85.8281 131.464 86.1933 130.17 86.6278C129.852 86.7349 129.623 86.6435 129.358 86.5302C125.803 85.0473 122.469 83.1614 119.305 80.9763C111.727 75.7436 104.901 69.6703 98.8748 62.7028C97.3479 60.9396 96.0035 59.0506 94.9015 56.9852C94.5804 56.3838 94.4639 55.7951 94.4072 55.1528C93.9035 49.5202 92.4709 44.1647 89.6656 39.2185C88.8817 37.8332 87.9088 36.5864 86.7722 35.4719C84.5022 33.2396 81.8008 31.9173 78.6178 31.6276C78.284 31.5961 78.0668 31.508 77.8842 31.1774C75.6708 27.1285 73.851 22.9096 72.239 18.593C72.1729 18.4167 72.1257 18.231 72.0218 17.9004C72.9852 18.1082 73.8195 18.2971 74.657 18.4671C78.6996 19.2794 82.758 19.9941 86.8635 20.4223C91.1076 20.8694 95.3517 21.2881 99.6053 21.6596C102.162 21.88 104.725 21.9997 107.287 22.135C110.927 22.3271 114.567 22.5097 118.209 22.6671C120.533 22.7679 122.86 22.8277 125.186 22.8844C131.779 23.045 138.372 23.2496 144.965 23.3283C152.518 23.4196 160.074 23.4354 167.627 23.3944C170.549 23.3787 173.471 23.1331 176.393 22.9851C176.871 22.9599 177.347 22.8655 177.822 22.856C178.005 22.856 178.26 22.9442 178.367 23.0796C180.829 26.2469 183.829 28.8538 186.953 31.3348C191.833 35.2168 197.135 38.422 202.666 41.2776C208.743 44.4166 214.967 47.2093 221.343 49.6714C222.281 50.0334 223.226 50.3798 224.167 50.7355L224.161 50.7418Z"
    fill="#B4BD57" />
  <path
    d="M219.457 79.8691C219.111 80.7066 218.812 81.4056 218.528 82.114C217.25 85.3002 216.236 88.5651 215.676 91.956C215.572 92.5731 215.288 92.9257 214.744 93.1745C212.644 94.1442 210.449 94.4748 208.16 94.182C207.638 94.1159 207.125 93.9962 206.608 93.8892C205.774 93.7129 205.302 93.2154 205.128 92.3622C204.559 89.5601 203.652 86.865 202.355 84.1983C207.993 82.624 213.645 81.2482 219.454 79.8691H219.457Z"
    fill="#B4BD57" />
  <path
    d="M215.122 198.959C215.219 203.87 214.061 208.511 211.866 212.891C211.523 213.574 211.085 214.21 210.679 214.858C210.056 215.853 209.039 216.385 208.079 216.965C207.833 217.113 207.474 217.091 207.166 217.116C204.272 217.327 201.372 217.468 198.489 217.749C194.959 218.092 191.433 218.485 187.919 218.97C184.956 219.383 182.013 219.959 179.063 220.463C178.924 220.488 178.786 220.507 178.584 220.538C178.612 220.412 178.609 220.321 178.647 220.252C180.02 217.912 180.694 215.346 181.005 212.686C181.556 207.979 181.185 203.348 179.598 198.855C178.678 196.257 177.388 193.861 175.445 191.859C175.398 191.812 175.373 191.739 175.284 191.588C176.122 191.525 176.859 191.465 177.595 191.418C181.566 191.157 185.539 190.911 189.509 190.637C194.147 190.316 198.788 189.992 203.425 189.623C205.623 189.45 207.811 189.18 210.002 188.928C210.358 188.887 210.601 189.013 210.856 189.195C211.898 189.929 212.679 190.886 213.283 191.997C214.457 194.167 215.078 196.506 215.125 198.955L215.122 198.959Z"
    fill="#F96969" />
  <path
    d="M215.395 96.1672C215.241 97.3919 215.081 98.5506 214.955 99.7124C214.674 102.335 214.36 104.955 214.152 107.583C213.84 111.481 213.566 115.379 213.355 119.283C213.176 122.589 213.081 125.898 212.996 129.207C212.829 135.68 212.694 142.157 212.552 148.63C212.543 149.042 212.489 149.354 212.042 149.54C208.866 150.862 205.626 151.262 202.276 150.295C201.933 150.198 201.605 150.047 201.196 149.889C202.443 141.029 203.35 132.207 204.159 123.376C204.965 114.564 205.522 105.732 205.815 96.8158C206.054 96.8378 206.259 96.8315 206.454 96.8725C209.341 97.5179 212.168 97.3164 214.939 96.2806C215.062 96.2333 215.2 96.2144 215.395 96.1641V96.1672Z"
    fill="#B4BD57" />
  <path
    d="M194.263 86.5684C193.716 88.4511 193.149 90.2048 192.699 91.9868C192.075 94.4615 191.823 96.9897 191.899 99.54C191.921 100.236 191.66 100.645 191.112 101.001C189.446 102.078 187.614 102.67 185.656 102.852C183.902 103.016 182.161 102.921 180.467 102.38C180.284 102.32 180.108 102.248 179.925 102.191C179.192 101.964 178.776 101.546 178.584 100.727C177.977 98.1326 177.057 95.639 175.804 93.2777C175.738 93.1549 175.694 93.0195 175.618 92.8401C181.83 90.6897 187.995 88.4826 194.263 86.5684Z"
    fill="#B4BD57" />
  <path
    d="M191.304 104.316C191.162 105.364 191.058 106.287 190.907 107.203C190.397 110.307 190.164 113.44 189.962 116.573C189.764 119.611 189.522 122.649 189.433 125.694C189.248 131.997 189.245 138.306 189.49 144.613C189.641 148.469 189.808 152.326 189.972 156.183C190.032 157.597 190.085 159.01 190.173 160.421C190.205 160.906 190.029 161.233 189.66 161.523C187.752 163.025 185.583 163.922 183.203 164.322C179.944 164.867 176.928 164.079 174.031 162.644C173.946 162.603 173.861 162.556 173.779 162.505C172.722 161.86 172.901 161.929 173.087 160.985C174.258 155.034 175.354 149.071 176.034 143.038C176.481 139.084 176.975 135.136 177.397 131.178C177.746 127.913 178.024 124.639 178.319 121.368C178.534 118.978 178.763 116.591 178.915 114.199C179.091 111.4 179.188 108.594 179.321 105.792C179.33 105.603 179.34 105.414 179.355 105.125C181.395 105.714 183.373 105.969 185.407 105.833C187.434 105.698 189.345 105.137 191.307 104.312L191.304 104.316Z"
    fill="#B4BD57" />
  <path
    d="M177.727 203.098C178.118 204.984 178.285 206.892 178.304 208.942C178.282 211.395 178.005 213.932 177.17 216.391C176.83 217.396 176.421 218.372 175.785 219.222C174.796 220.541 173.581 221.492 171.818 221.454C171.131 221.441 170.499 221.249 169.888 220.947C167.958 219.987 166.535 218.504 165.426 216.684C164.107 214.521 163.336 212.16 162.936 209.682C162.212 205.221 162.662 200.844 164.047 196.553C164.28 195.829 164.661 195.199 165.184 194.657C166.229 193.578 167.347 192.633 168.909 192.359C169.749 192.211 170.53 192.306 171.298 192.63C172.564 193.168 173.584 194.012 174.384 195.133C176.103 197.535 177.129 200.224 177.727 203.095V203.098Z"
    fill="#DBA2A2" />
  <path
    d="M167.042 96.1074C166.897 96.4789 166.806 96.7151 166.714 96.9544C165.168 100.909 163.922 104.955 162.99 109.098C162.87 109.633 162.766 110.178 162.684 110.719C162.634 111.056 162.48 111.273 162.193 111.456C159.885 112.926 157.36 113.613 154.631 113.591C153.374 113.578 152.156 113.339 150.959 112.977C150.619 112.873 150.301 112.703 149.977 112.552C149.684 112.413 149.499 112.187 149.392 111.869C148.652 109.665 147.808 107.502 146.747 105.43C146.706 105.348 146.681 105.257 146.627 105.106C153.286 101.787 160.033 98.8529 167.045 96.1137L167.042 96.1074Z"
    fill="#B4BD57" />
  <path
    d="M162.832 176.158C162.923 176.605 162.794 176.86 162.435 177.112C160.616 178.387 158.575 179.123 156.425 179.583C152.927 180.332 149.558 179.835 146.3 178.456C145.711 178.207 145.179 177.817 144.618 177.496C144.237 177.275 144.143 176.967 144.209 176.532C144.48 174.731 144.738 172.927 144.971 171.12C145.349 168.173 145.73 165.223 146.054 162.27C146.504 158.17 146.929 154.068 147.313 149.962C147.66 146.285 147.94 142.605 148.239 138.924C148.519 135.458 148.818 131.994 149.042 128.525C149.3 124.529 149.486 120.528 149.7 116.529C149.712 116.293 149.722 116.054 149.741 115.676C153.887 117.058 157.861 116.712 161.847 115.027C161.746 116.016 161.642 116.888 161.573 117.76C161.286 121.441 160.905 125.118 160.754 128.805C160.556 133.572 160.449 138.345 160.48 143.118C160.518 148.369 160.701 153.621 160.924 158.866C161.129 163.658 161.547 168.434 162.331 173.176C162.495 174.168 162.631 175.166 162.832 176.154V176.158Z"
    fill="#B4BD57" />
  <path
    d="M140.818 107.879C140.176 113.918 139.622 119.847 139.424 125.797C139.225 131.738 138.913 137.676 139.2 143.643C137.824 144.584 136.373 145.05 134.852 145.327C134.713 145.352 134.565 145.349 134.421 145.346C133.517 145.34 133.341 145.166 133.36 144.26C133.473 138.485 133.564 132.708 133.719 126.934C133.775 124.73 133.977 122.532 134.115 120.331C134.125 120.19 134.125 120.039 134.169 119.906C134.959 117.599 135.749 115.291 136.562 112.989C136.817 112.268 137.16 111.579 137.44 110.864C137.632 110.379 137.78 109.879 137.994 109.252C138.806 108.855 139.745 108.396 140.812 107.873L140.818 107.879Z"
    fill="#7A8125" />
  <path
    d="M134.002 111.239C133.927 111.523 133.892 111.693 133.838 111.853C133.174 113.827 132.497 115.795 131.855 117.775C131.748 118.109 131.559 118.298 131.294 118.471C130.133 119.233 128.845 119.655 127.497 119.935C123.685 120.732 119.929 120.565 116.235 119.287C116.031 119.214 115.832 119.129 115.628 119.06C114.529 118.679 113.909 117.977 113.616 116.784C112.624 112.735 111.447 108.736 109.809 104.892C109.639 104.495 109.473 104.102 109.24 103.551C109.586 103.674 109.784 103.737 109.979 103.812C116.185 106.287 122.35 108.859 128.448 111.582C129.166 111.904 129.909 112.165 130.649 112.433C131.187 112.628 131.691 112.455 132.17 112.215C132.746 111.926 133.306 111.608 133.996 111.236L134.002 111.239Z"
    fill="#B4BD57" />
  <path
    d="M132.186 193.301C132.195 193.345 132.179 193.395 132.167 193.512C130.019 194.935 127.683 195.785 125.149 196.147C122.337 196.55 119.608 196.103 116.881 195.498C115.543 195.203 114.239 194.809 112.989 194.242C112.75 194.132 112.52 194.006 112.287 193.877C111.988 193.713 111.866 193.499 111.891 193.118C112.25 187.517 112.583 181.916 112.93 176.315C113.207 171.838 113.534 167.364 113.761 162.887C113.981 158.551 114.151 154.213 114.265 149.874C114.425 143.593 114.529 137.309 114.62 131.025C114.658 128.267 114.601 125.509 114.589 122.751C114.589 122.489 114.589 122.225 114.589 121.844C117.284 122.82 119.985 123.333 122.781 123.349C125.561 123.364 128.266 122.949 130.951 122.001C130.964 122.234 130.986 122.417 130.98 122.593C130.382 136.185 130.227 149.783 130.309 163.381C130.344 169.278 130.599 175.178 130.863 181.072C131.049 185.168 131.455 189.252 132.189 193.291L132.186 193.301Z"
    fill="#B4BD57" />
  <path
    d="M128.228 89.2732C128.382 95.6174 128.539 101.984 128.697 108.469C116.522 103.126 104.337 98.1361 91.6459 94.1848C91.8411 94.0431 91.9765 93.9392 92.115 93.8385C92.3102 93.7 92.5243 93.5835 92.7006 93.4229C93.2673 92.9003 93.3649 92.1352 92.9682 91.5307C92.5747 90.9325 91.819 90.7152 91.1232 91.0332C90.6888 91.2316 90.2826 91.4929 89.8481 91.6976C82.9152 94.9656 75.7683 97.6481 68.2813 99.3514C63.9931 100.327 59.664 100.945 55.2435 100.904C50.1588 100.853 45.518 99.4301 41.2519 96.7036C36.2112 93.4827 35.2131 87.1701 37.6784 82.8599C38.2168 81.9153 38.7835 81.0117 39.6367 80.3128C40.1499 79.894 40.3073 79.3179 40.0964 78.6882C39.9138 78.1403 39.4919 77.8318 38.9283 77.7468C38.4466 77.6744 38.0184 77.8538 37.6689 78.1592C37.1809 78.5811 36.7275 79.0408 36.2112 79.532C32.6881 78.8425 29.1209 78.6284 25.5443 78.2348C24.9775 71.7962 24.2691 65.3954 22.9562 58.9946C26.5864 58.6798 30.0056 57.7038 33.3965 56.5766C36.7748 55.4558 39.9736 53.9666 43.0937 52.0555C43.1346 52.4207 43.163 52.6978 43.2007 52.9717C43.3802 54.231 43.5565 55.4873 43.7423 56.7435C43.8619 57.5464 44.4538 58.047 45.2252 58.0218C45.9777 57.9966 46.5853 57.4393 46.6074 56.6396C46.6262 56.0477 46.5475 55.4432 46.4468 54.8544C45.8486 51.4258 45.7226 47.9908 46.1949 44.5401C46.6357 41.2972 47.5487 38.2149 49.3843 35.46C50.1116 34.3707 51.0309 33.4733 52.1014 32.7146C54.1447 31.2663 56.2573 31.2726 58.4046 32.3997C60.0953 33.2876 61.4617 34.569 62.4818 36.1716C63.291 37.4435 63.9899 38.7879 64.7424 40.0945C64.925 40.4094 64.9408 40.7148 64.8337 41.058C64.7361 41.3759 64.67 41.7097 64.6354 42.0434C64.5441 42.9218 65.0384 43.6271 65.8129 43.7499C66.6283 43.8821 67.3115 43.4382 67.5004 42.5566C67.7177 41.5397 68.064 40.5794 68.5552 39.6632C70.0538 36.8611 72.4624 35.2743 75.4975 34.6824C78.7278 34.0527 81.6275 34.9279 84.1368 37.05C85.8527 38.5046 87.046 40.3559 88.0063 42.3614C89.6844 45.8719 90.7517 49.5651 91.2523 53.4219C91.7183 57.0237 91.8316 60.6381 91.7372 64.262C91.7309 64.5013 91.7435 64.7437 91.7907 64.9767C91.9261 65.6095 92.4109 66.0314 93.0406 66.0944C93.6577 66.1542 94.2591 65.8331 94.4858 65.2475C94.6117 64.92 94.6463 64.5517 94.6873 64.1959C94.7188 63.9125 94.6999 63.6197 94.703 63.3332C94.703 63.0467 94.703 62.7602 94.703 62.3918C94.8384 62.4737 94.9266 62.502 94.9738 62.5618C97.6437 66.0346 100.695 69.1515 103.852 72.174C108.821 76.9282 114.16 81.2195 119.96 84.9252C122.368 86.4648 124.89 87.7903 127.507 88.9427C127.724 89.0403 127.941 89.141 128.234 89.2732H128.228ZM101.29 84.6293C101.702 84.0626 101.655 83.3227 101.151 82.7812C100.972 82.5891 100.757 82.4317 100.543 82.2774C99.9767 81.8744 99.4036 81.484 98.8306 81.0873C96.0537 79.1699 92.9997 77.8822 89.7001 77.1958C88.9791 77.0447 88.2267 76.988 87.4868 76.9691C86.8225 76.9502 86.3093 77.3595 86.1235 77.9483C85.9314 78.5591 86.0952 79.0817 86.5706 79.5068C86.6713 79.5981 86.7847 79.6673 87.0177 79.8405C86.1361 79.8846 85.4057 79.9444 84.6752 79.9602C81.1962 80.0357 77.7234 79.9413 74.2476 79.7461C68.7157 79.4344 63.2028 78.9463 57.7403 77.9829C52.9672 77.1391 48.2666 76.012 43.6919 74.3811C41.2676 73.5184 38.9409 72.4574 36.8346 70.9524C35.783 70.2 34.9329 69.2743 34.2466 68.1881C33.8656 67.5836 33.661 66.9319 33.6798 66.214C33.6893 65.7953 33.8026 65.4175 34.1741 65.1121C34.4953 65.216 34.807 65.3293 35.125 65.4175C36.016 65.6662 36.8125 65.301 37.0739 64.5328C37.3289 63.7834 36.9574 63.0404 36.1419 62.672C35.9467 62.5839 35.7452 62.4989 35.5374 62.4453C34.8196 62.2627 34.1017 62.0549 33.3744 61.9227C31.6995 61.6205 30.0308 61.7023 28.3873 62.1494C28.0221 62.2501 27.6569 62.3981 27.3389 62.6028C26.7785 62.9648 26.5801 63.6355 26.7816 64.2525C26.9768 64.8508 27.553 65.2475 28.233 65.2002C28.5164 65.1813 28.7935 65.0837 29.0705 65.0145C29.6687 64.8633 30.2606 64.6776 30.8998 64.7878C30.8935 64.8917 30.8998 64.961 30.8872 65.0271C30.5534 66.6233 30.799 68.122 31.6302 69.5293C32.4582 70.9273 33.4657 72.1803 34.8133 73.0997C36.0002 73.9057 37.1998 74.7274 38.4875 75.3477C40.2097 76.1757 42.0232 76.818 43.7989 77.5358C44.0099 77.6209 44.224 77.7027 44.4664 77.8003C43.2983 79.8216 42.7914 81.9783 42.5175 84.2043C42.0453 88.0454 43.7202 91.0238 47.2496 92.6232C47.4008 92.6925 47.5582 92.7554 47.7125 92.8184C49.9321 93.744 52.2557 94.2163 54.6485 94.2132C56.5627 94.2132 58.4864 94.1376 60.3881 93.9298C62.8407 93.6622 65.2965 93.3442 67.7114 92.853C73.1771 91.7416 78.4256 89.9124 83.5544 87.7431C86.4509 86.5184 89.2342 85.0606 91.8159 83.2471C92.5054 82.7623 93.1666 82.268 94.0639 82.2837C94.1331 82.2837 94.2119 82.2648 94.2685 82.227C94.6338 81.9815 94.9549 82.1357 95.2666 82.3404C96.4315 83.0992 97.5964 83.8579 98.7614 84.6136C99.0227 84.7836 99.2777 84.9725 99.5611 85.0921C100.2 85.366 100.912 85.1582 101.299 84.6261L101.29 84.6293ZM88.1039 54.9017C88.1165 53.5825 87.6914 51.8445 87.0491 50.1538C85.434 45.916 81.0104 42.6511 77.0686 42.3583C73.5738 42.0969 70.1074 43.9136 68.5048 47.0369C67.5319 48.9385 67.2391 50.9913 67.0597 53.0724C66.9589 54.2279 67.2045 55.3645 67.4847 56.4822C68.382 60.0462 70.2176 62.9995 73.2054 65.1876C76.8671 67.867 82.4209 67.5553 85.5127 63.2671C87.2003 60.9278 88.085 58.3114 88.0976 54.9048L88.1039 54.9017ZM67.491 73.8459C69.1408 72.1237 69.7516 70.1055 69.1502 67.7631C68.848 66.5855 68.3285 65.5151 67.6138 64.5359C66.304 62.7476 64.6668 61.3308 62.7305 60.254C62.4818 60.1155 62.2425 59.9644 61.9529 59.7944C62.6267 58.7963 63.0643 57.7447 63.3225 56.6144C63.6908 55.0213 63.9081 53.4093 63.9647 51.7753C64.0907 48.2427 63.4075 44.9148 61.4617 41.8986C60.6054 40.5699 59.5569 39.4365 58.2377 38.5612C56.3392 37.3019 52.8854 36.7824 50.3666 39.3232C49.4252 40.274 48.6885 41.3508 48.2036 42.6007C47.6904 43.9293 47.3693 45.3052 47.2748 46.7252C47.0324 50.4781 47.5519 54.0894 49.2804 57.4771C49.3654 57.6408 49.4347 57.814 49.5323 58.0249C49.2363 58.1162 48.9813 58.1666 48.7483 58.2705C47.873 58.6546 46.9317 58.9443 46.1477 59.4669C43.7612 61.0726 42.7505 63.3678 43.1346 66.2203C43.3456 67.804 44.0414 69.1326 45.1748 70.3196C46.0438 71.2327 46.9631 72.0513 48.0021 72.7345C50.7507 74.5417 53.789 75.5901 57.0224 76.1065C58.8296 76.3961 60.64 76.5378 62.4629 76.2576C64.3835 75.9616 66.1183 75.2753 67.4879 73.8459H67.491Z"
    fill="#B4BD57" />
  <path
    d="M124.418 234.755C124.428 234.872 124.418 234.985 124.418 235.224C124.018 235.045 123.697 234.91 123.385 234.752C120.41 233.257 117.435 231.761 114.463 230.256C108.84 227.413 103.194 224.611 97.5996 221.708C89.6655 217.593 81.574 213.793 73.5361 209.886C71.5525 208.922 69.6162 207.868 67.6579 206.854C67.554 206.8 67.4533 206.737 67.3116 206.655C67.3903 206.035 67.4784 205.421 67.5446 204.81C67.8877 201.624 67.3683 198.595 65.857 195.762C64.8338 193.841 63.3697 192.273 61.5783 191.077C58.1181 188.769 54.3022 187.557 50.1022 187.784C47.0765 187.944 44.2901 188.895 41.6801 190.428C40.7324 190.986 40.1373 191.839 39.5297 192.698C39.3125 193.01 39.0952 193.322 38.837 193.69C36.6866 192.598 34.6181 191.54 32.5401 190.504C32.1844 190.328 32.1686 190.035 32.134 189.733C31.9734 188.328 31.8412 186.918 31.6649 185.517C31.1045 181.021 30.5314 176.528 29.9647 172.035C29.949 171.919 29.9458 171.799 29.9301 171.613C30.0749 171.648 30.1851 171.651 30.2733 171.698C35.1439 174.312 40.3042 176.248 45.4456 178.225C54.7902 181.824 64.1505 185.385 73.4794 189.015C85.7111 193.778 97.9176 198.608 110.146 203.378C114.075 204.911 118.036 206.356 121.994 207.808C122.535 208.006 122.708 208.28 122.743 208.834C123.105 214.649 123.492 220.465 123.87 226.277C124.053 229.101 124.235 231.922 124.415 234.746L124.418 234.755Z"
    fill="#B4BD57" />
  <path
    d="M111.664 120.53C111.705 129.355 111.664 138.18 111.412 147.002C111.317 150.286 111.195 153.57 111.081 156.853C111.075 157.09 111.047 157.326 111.025 157.622C109.743 157.962 108.534 157.911 107.319 157.719C105.373 157.411 103.557 156.797 101.985 155.556C101.557 155.216 101.378 154.876 101.397 154.294C101.542 149.618 101.472 144.943 101.224 140.271C101.047 136.99 100.918 133.709 100.754 130.425C100.591 127.097 100.414 123.77 100.241 120.438C100.078 117.255 99.9264 114.069 99.7375 110.886C99.536 107.464 99.303 104.041 99.0857 100.619C99.07 100.383 99.0606 100.147 99.0448 99.8477C99.2463 99.8791 99.4069 99.876 99.5486 99.9264C101.353 100.572 103.154 101.227 104.958 101.872C105.25 101.976 105.446 102.108 105.48 102.464C105.502 102.716 105.612 102.977 105.735 103.204C107.3 106.085 108.386 109.154 109.315 112.281C109.923 114.324 110.493 116.38 111.04 118.439C111.188 118.993 111.232 119.566 111.61 120.042C111.695 120.152 111.664 120.366 111.664 120.53Z"
    fill="#7A8125" />
  <path
    d="M101.151 82.779C101.655 83.3174 101.702 84.0573 101.289 84.6271C100.905 85.1561 100.191 85.3639 99.5514 85.0931C99.2681 84.9735 99.013 84.7814 98.7517 84.6145C97.5868 83.8589 96.4219 83.1001 95.257 82.3414C94.9453 82.1399 94.6273 81.9824 94.2589 82.228C94.2022 82.2658 94.1235 82.2878 94.0542 82.2847C93.1601 82.2689 92.4989 82.7633 91.8063 83.2481C89.2277 85.0616 86.4413 86.5162 83.5447 87.7441C78.4159 89.9134 73.1675 91.7426 67.7018 92.854C65.2869 93.3452 62.8311 93.6632 60.3785 93.9308C58.4768 94.1354 56.5531 94.211 54.6389 94.2141C52.246 94.2141 49.9225 93.745 47.7028 92.8194C47.5486 92.7564 47.3911 92.6934 47.24 92.6242C43.7138 91.0248 42.0356 88.0432 42.5079 84.2052C42.7818 81.9793 43.2919 79.8226 44.4568 77.8013C44.2144 77.7068 44.0034 77.625 43.7893 77.5368C42.0136 76.8158 40.2001 76.1767 38.4779 75.3487C37.1902 74.7284 35.9938 73.9098 34.8036 73.1007C33.4561 72.1813 32.4455 70.9314 31.6206 69.5303C30.7894 68.1261 30.5438 66.6275 30.8775 65.0281C30.8901 64.9619 30.8838 64.8895 30.8901 64.7888C30.251 64.6754 29.6559 64.8643 29.0609 65.0155C28.7838 65.0847 28.5068 65.1823 28.2234 65.2012C27.5433 65.2453 26.9672 64.8486 26.772 64.2535C26.5705 63.6396 26.772 62.9658 27.3292 62.6038C27.6441 62.3991 28.0125 62.248 28.3777 62.1504C30.0212 61.7033 31.6898 61.6214 33.3648 61.9237C34.0953 62.0559 34.8099 62.2606 35.5278 62.4463C35.7356 62.4999 35.9371 62.5849 36.1323 62.673C36.9477 63.0414 37.3193 63.7876 37.0642 64.5337C36.8061 65.302 36.0064 65.6672 35.1153 65.4185C34.7974 65.3303 34.4857 65.217 34.1645 65.1131C33.793 65.4185 33.6797 65.7963 33.6702 66.215C33.6513 66.9329 33.856 67.5846 34.2369 68.1891C34.9233 69.2785 35.7702 70.2041 36.825 70.9534C38.9344 72.4552 41.258 73.5163 43.6823 74.3821C48.2538 76.013 52.9576 77.1401 57.7306 77.9839C63.1932 78.9505 68.7061 79.4353 74.2379 79.747C77.7107 79.9454 81.1865 80.0398 84.6656 79.9611C85.396 79.9454 86.1265 79.8887 87.008 79.8415C86.775 79.6683 86.6585 79.5991 86.5609 79.5078C86.0887 79.0827 85.9218 78.5601 86.1139 77.9493C86.2996 77.3637 86.8128 76.9512 87.4771 76.9701C88.217 76.989 88.9664 77.0457 89.6905 77.1968C92.9901 77.8832 96.0441 79.1709 98.821 81.0883C99.394 81.485 99.967 81.8754 100.534 82.2784C100.748 82.4295 100.965 82.5901 101.141 82.7821L101.151 82.779ZM86.5326 83.012C86.5169 82.9679 86.5043 82.9207 86.4917 82.8766C86.4004 82.8671 86.3059 82.8514 86.2146 82.8546C81.8981 82.9805 77.5879 82.9112 73.2777 82.6531C72.7109 82.6184 72.1159 82.631 71.5649 82.757C68.6117 83.4307 65.9953 84.772 63.7442 86.8153C63.549 86.9916 63.3632 87.1837 63.146 87.3285C62.5226 87.7472 61.8016 87.6811 61.301 87.19C60.7846 86.6831 60.7217 85.918 61.1656 85.2852C61.3167 85.0711 61.4962 84.8664 61.6977 84.7058C62.68 83.9408 63.6749 83.1946 64.6635 82.4421C64.8272 82.3193 65.0035 82.2091 65.2743 82.0202C64.484 81.9195 63.8197 81.8628 63.1648 81.74C62.3431 81.5857 61.6284 81.6707 60.8665 82.1241C59.6386 82.8546 58.4894 83.6606 57.5165 84.6964C56.5563 85.7228 55.8227 86.9003 55.4984 88.2888C55.3284 89.0129 55.5488 89.482 56.2099 89.8347C56.5027 89.9921 56.8239 90.1086 57.1419 90.1999C58.0455 90.4612 58.9743 90.5462 59.9157 90.5462C60.2714 90.5462 60.6524 90.5494 60.9735 90.6753C61.3545 90.8233 61.7134 90.8264 62.0975 90.7855C64.5029 90.5147 66.8832 90.096 69.2319 89.4883C74.855 88.0306 80.3207 86.1352 85.5314 83.5441C85.8683 83.3772 86.1957 83.1883 86.5263 83.0088L86.5326 83.012Z"
    fill="black" />
  <path
    d="M94.5992 174.27C94.149 174.644 93.7366 175.041 93.2737 175.368C90.6763 177.198 87.8427 178.488 84.7037 179.09C80.3588 179.927 76.1178 179.606 71.9871 177.997C71.6093 177.849 71.2378 177.676 70.882 177.484C70.2712 177.154 70.2712 177.135 70.4569 176.473C71.0016 174.537 71.5872 172.61 72.091 170.661C73.3818 165.649 74.6192 160.624 75.9163 155.615C77.3804 149.957 78.8916 144.309 80.3777 138.654C80.5477 138.009 80.702 137.36 80.8783 136.658C85.4624 149.227 90.0182 161.714 94.6024 174.27H94.5992Z"
    fill="#F96969" />
  <path
    d="M87.0495 50.1536C87.6949 51.8443 88.1199 53.5823 88.1042 54.9015C88.0916 58.3049 87.2069 60.9213 85.5193 63.2637C82.4275 67.5519 76.8737 67.8636 73.212 65.1843C70.2242 62.9993 68.3886 60.0429 67.4913 56.4788C67.208 55.3612 66.9655 54.2246 67.0663 53.0691C67.2457 50.9911 67.5385 48.9352 68.5114 47.0335C70.1108 43.9103 73.5804 42.0936 77.0752 42.3549C81.017 42.6477 85.4406 45.9127 87.0558 50.1505L87.0495 50.1536ZM83.2776 61.34C84.7731 59.1078 85.4626 56.6646 85.0502 53.9695C84.5338 50.5913 82.8746 47.9749 79.8773 46.2558C78.7722 45.623 77.5821 45.305 76.2471 45.2924C74.4714 45.1759 72.1353 46.3377 71.1057 48.4188C70.1769 50.3047 70.0416 52.3292 70.0919 54.3662C70.1108 55.0715 70.3312 55.7862 70.539 56.4694C71.3482 59.1172 72.8059 61.3149 75.1074 62.9143C77.4152 64.5168 81.1682 64.4853 83.2745 61.34H83.2776Z"
    fill="black" />
  <path
    d="M86.4919 82.8766C86.5077 82.9207 86.5203 82.9648 86.5329 83.012C86.2023 83.1915 85.8748 83.3772 85.538 83.5473C80.3273 86.1384 74.8616 88.0338 69.2385 89.4915C66.8929 90.0992 64.5126 90.5179 62.1041 90.7887C61.72 90.8296 61.361 90.8265 60.9801 90.6785C60.6589 90.5525 60.2748 90.5494 59.9222 90.5494C58.9808 90.5494 58.0552 90.4675 57.1484 90.2031C56.8273 90.1118 56.5093 89.9953 56.2165 89.8378C55.5553 89.4852 55.3349 89.0161 55.5049 88.292C55.8292 86.9035 56.5628 85.726 57.5231 84.6996C58.496 83.6637 59.6451 82.8577 60.873 82.1273C61.635 81.6739 62.3497 81.5921 63.1714 81.7432C63.8263 81.866 64.4906 81.9227 65.2809 82.0234C65.0069 82.2123 64.8338 82.3194 64.6701 82.4453C63.6783 83.1978 62.6834 83.944 61.7042 84.709C61.4996 84.8696 61.3201 85.0743 61.1721 85.2883C60.7282 85.918 60.7912 86.6863 61.3075 87.1932C61.8081 87.6843 62.5291 87.7504 63.1525 87.3317C63.3698 87.1869 63.5555 86.9948 63.7507 86.8185C65.9987 84.772 68.6182 83.4339 71.5715 82.7601C72.1224 82.6342 72.7143 82.6216 73.2842 82.6562C77.5944 82.9176 81.9047 82.9868 86.2212 82.8577C86.3125 82.8577 86.4069 82.8735 86.4982 82.8798L86.4919 82.8766Z"
    fill="#F96969" />
  <path
    d="M86.2182 142.65C86.1458 142.48 86.0671 142.313 86.0073 142.137C84.962 139.102 83.9167 136.067 82.8777 133.025C82.7077 132.528 82.5818 132.015 82.4243 131.511C82.0686 130.393 81.1398 130.069 80.0945 130.601C79.3137 130.998 78.9296 131.58 78.7721 132.427C77.985 136.649 76.7382 140.758 75.6457 144.904C74.9373 147.593 74.2447 150.285 73.5457 152.974C73.4859 153.201 73.4229 153.43 73.2372 153.663C73.2025 153.399 73.1585 153.134 73.1364 152.87C72.7555 148.692 72.3682 144.514 72.0061 140.333C71.685 136.63 71.389 132.925 71.0805 129.222C70.7688 125.494 70.4665 121.766 70.1328 118.042C69.7959 114.292 69.4275 110.549 69.0655 106.802C68.9584 105.703 68.8199 104.611 68.7003 103.515C68.6593 103.137 68.6373 102.759 68.6027 102.315C73.8637 101.106 78.9547 99.4724 83.9954 97.4668C84.5023 112.611 85.3902 127.613 86.2214 142.65H86.2182Z"
    fill="#7A8125" />
  <path
    d="M85.0502 53.9683C85.4626 56.6634 84.7731 59.1066 83.2776 61.3388C81.1713 64.481 77.4152 64.5156 75.1105 62.913C72.809 61.3168 71.3513 59.116 70.5421 56.4682C70.3343 55.785 70.1108 55.0703 70.095 54.365C70.0447 52.3248 70.1769 50.3004 71.1088 48.4176C72.1352 46.3365 74.4714 45.1747 76.2503 45.2912C77.5883 45.3038 78.7753 45.6218 79.8804 46.2546C82.8777 47.9737 84.5401 50.59 85.0533 53.9683H85.0502ZM81.8797 53.9053C81.7978 53.3984 81.7348 52.7026 81.5711 52.032C81.1902 50.4672 80.5353 49.041 79.2948 47.9548C77.6765 46.538 75.0035 45.9051 72.9948 48.3106C72.6768 48.6884 72.4154 49.1417 72.2297 49.6014C71.4835 51.459 71.3607 53.3764 71.8771 55.3127C72.384 57.2081 73.4041 58.7728 75.0948 59.8276C76.6973 60.8256 78.4101 60.6084 79.7576 59.2923C81.2185 57.8661 81.7537 56.0683 81.8797 53.9085V53.9053Z"
    fill="#F5DEBB" />
  <path
    d="M81.5677 52.033C81.7314 52.7036 81.7943 53.3994 81.8762 53.9063C81.7503 56.0662 81.215 57.8639 79.7542 59.2902C78.4066 60.6062 76.6939 60.8235 75.0913 59.8254C73.4006 58.7738 72.3805 57.2059 71.8736 55.3105C71.3573 53.3774 71.48 51.4568 72.2262 49.5993C72.412 49.1396 72.6733 48.6894 72.9913 48.3084C75 45.903 77.6699 46.5358 79.2913 47.9526C80.5318 49.0388 81.1867 50.4651 81.5677 52.0299V52.033Z"
    fill="black" />
  <path
    d="M74.7609 31.7711C73.1741 32.1646 71.6314 32.7817 70.202 33.6507C68.7505 34.5354 67.6202 35.7633 66.5529 37.2021C65.3974 35.099 64.1664 33.1375 62.3781 31.6042C64.6544 27.3947 66.915 23.2199 69.1819 19.0293C70.0697 21.1765 70.9198 23.3301 71.8486 25.449C72.7711 27.5521 73.7692 29.6207 74.7641 31.7711H74.7609Z"
    fill="#B4BD57" />
  <path
    d="M69.147 67.7626C69.7515 70.1051 69.1375 72.1232 67.4878 73.8454C66.1182 75.2748 64.3834 75.9612 62.4628 76.2571C60.6399 76.5373 58.8295 76.3957 57.0223 76.106C53.7889 75.5896 50.7506 74.5412 48.002 72.734C46.963 72.0508 46.0437 71.2322 45.1747 70.3191C44.0413 69.1322 43.3486 67.8004 43.1345 66.2199C42.7536 63.3642 43.7642 61.069 46.1476 59.4665C46.9284 58.9407 47.8729 58.651 48.7482 58.27C48.9812 58.1661 49.2362 58.1158 49.5322 58.0245C49.4346 57.8135 49.3653 57.6404 49.2803 57.4766C47.5486 54.0921 47.0323 50.4776 47.2747 46.7247C47.366 45.3048 47.6872 43.9289 48.2035 42.6002C48.6884 41.3503 49.4251 40.2735 50.3665 39.3227C52.8853 36.7851 56.3391 37.3046 58.2376 38.5608C59.56 39.4361 60.6052 40.5663 61.4616 41.8981C63.4074 44.9143 64.0906 48.2423 63.9646 51.7748C63.908 53.4089 63.6907 55.0209 63.3224 56.614C63.061 57.7443 62.6234 58.7958 61.9528 59.7939C62.2424 59.9671 62.4817 60.1182 62.7304 60.2536C64.6667 61.3303 66.3039 62.7471 67.6137 64.5355C68.3284 65.5115 68.8479 66.5851 69.1501 67.7626H69.147ZM65.797 71.292C66.3134 70.5868 66.5338 69.806 66.3795 68.9212C66.2347 68.1026 65.9324 67.3596 65.4916 66.6638C64.6825 65.3887 63.6183 64.356 62.3841 63.5059C59.9661 61.8404 57.2805 60.877 54.365 60.5968C52.3563 60.4047 50.398 60.6849 48.5278 61.4783C45.8201 62.6243 44.9638 65.9113 47.407 68.5182C48.5687 69.7587 50.0391 70.6592 51.5944 71.3928C54.2108 72.6238 56.9625 73.2787 59.837 73.455C61.0964 73.5306 62.3243 73.3731 63.5176 72.9701C64.4527 72.6553 65.2146 72.0854 65.797 71.292ZM60.4037 56.085C60.961 53.985 61.1216 51.8346 60.9894 49.6685C60.8414 47.2694 60.0858 45.0718 58.7162 43.0914C58.1243 42.235 57.4064 41.4983 56.506 40.963C55.0986 40.1319 53.515 40.346 52.3595 41.4951C51.5031 42.3484 50.993 43.3873 50.6499 44.5302C50.0768 46.4287 50.0831 48.3682 50.2595 50.3076C50.4421 52.3006 50.9175 54.2274 51.8463 56.0221C52.095 56.5038 52.3122 57.0044 52.5767 57.5585C52.6145 57.5616 52.7278 57.5868 52.8443 57.5868C54.724 57.5963 56.5689 57.8545 58.373 58.3928C58.9932 58.5786 59.242 58.5408 59.5757 57.9804C59.9252 57.3885 60.2306 56.7462 60.4069 56.0882L60.4037 56.085Z"
    fill="black" />
  <path
    d="M66.3798 68.9215C66.5341 69.8093 66.3137 70.587 65.7973 71.2923C65.2149 72.0857 64.4561 72.6555 63.5179 72.9704C62.3246 73.3734 61.0936 73.5308 59.8373 73.4552C56.9596 73.2789 54.2079 72.6241 51.5947 71.393C50.0394 70.6594 48.569 69.7558 47.4073 68.5185C44.9641 65.9116 45.8204 62.6246 48.5281 61.4786C50.3983 60.6883 52.3566 60.4049 54.3653 60.597C57.2808 60.8772 59.9664 61.8406 62.3844 63.5062C63.6186 64.3562 64.6828 65.3889 65.4919 66.664C65.9327 67.3567 66.2381 68.1029 66.3798 68.9215Z"
    fill="#F96969" />
  <path
    d="M64.1192 199.166C64.5064 200.432 64.7268 201.871 64.6859 203.738C64.7174 206.304 63.6343 209.018 61.7704 211.448C60.914 212.566 59.8593 213.485 58.6125 214.128C55.2374 215.866 51.6702 216.476 47.955 215.554C45.0113 214.82 42.5492 213.259 40.7042 210.803C39.0135 208.552 38.5979 205.954 38.7584 203.24C38.9473 200.092 39.8604 197.17 41.7935 194.623C42.5051 193.024 44.0132 192.429 45.4646 191.837C50.4297 189.809 55.1587 190.558 59.6074 193.313C61.8051 194.673 63.3446 196.654 64.116 199.173L64.1192 199.166Z"
    fill="#F96969" />
  <path
    d="M62.595 167.217C62.7965 168.351 62.8249 168.341 61.8426 168.996C60.2967 170.019 58.5934 170.614 56.7641 170.876C54.025 171.269 51.3079 171.225 48.6569 170.35C47.8005 170.067 46.9976 169.62 46.1727 169.242C45.8296 169.084 45.7225 168.81 45.7131 168.429C45.5273 161.887 45.3541 155.341 45.1275 148.799C44.9511 143.79 44.7182 138.784 44.4915 133.778C44.3026 129.609 44.1231 125.441 43.8744 121.275C43.5406 115.699 43.1471 110.126 42.7693 104.554C42.6874 103.335 42.5772 102.123 42.4702 100.801C44.5009 101.73 46.4624 102.649 48.5813 103.049C50.6687 103.442 52.7845 103.675 54.9506 103.987C55.0451 105.165 55.1364 106.405 55.2466 107.642C55.5079 110.555 55.7661 113.47 56.0431 116.379C56.402 120.126 56.7673 123.873 57.1545 127.616C57.482 130.765 57.8283 133.91 58.1967 137.052C58.543 140.027 58.8893 143.006 59.3018 145.972C59.9126 150.386 60.5611 154.797 61.2381 159.204C61.6474 161.881 62.1259 164.547 62.5982 167.211L62.595 167.217Z"
    fill="#7A8125" />
  <path
    d="M60.9896 49.6675C61.1218 51.8336 60.9613 53.984 60.404 56.084C60.2277 56.7452 59.9223 57.3875 59.5728 57.9762C59.2422 58.5398 58.9903 58.5744 58.3701 58.3887C56.566 57.8503 54.7211 57.5921 52.8414 57.5827C52.7249 57.5827 52.6116 57.5606 52.5738 57.5543C52.3125 57.0002 52.0953 56.4996 51.8434 56.0179C50.9114 54.2233 50.436 52.2996 50.2566 50.3035C50.0802 48.364 50.0739 46.4246 50.647 44.5261C50.9933 43.3832 51.5002 42.341 52.3566 41.491C53.512 40.3386 55.0957 40.1277 56.5031 40.9589C57.4067 41.491 58.1214 42.2277 58.7133 43.0872C60.0829 45.0676 60.8385 47.2652 60.9865 49.6643L60.9896 49.6675ZM58.8518 52.4412C59.45 50.8576 59.4972 49.2141 59.2202 47.5549C59.025 46.3836 58.6692 45.2754 57.9923 44.2868C57.5358 43.6193 56.9596 43.0872 56.2229 42.7503C55.0894 42.234 54.0347 42.3316 53.0965 43.2037C52.9737 43.3171 52.854 43.4398 52.7092 43.5186C52.1456 43.8271 51.8465 44.334 51.645 44.9133C51.3144 45.8484 51.1916 46.8213 51.1853 47.898C51.2168 49.7178 51.5789 51.5251 52.7281 53.1056C53.172 53.7132 53.6947 54.2359 54.3653 54.5885C55.6404 55.2591 57.01 55.0608 57.9608 53.9777C58.3449 53.5401 58.6503 52.9922 58.855 52.4444L58.8518 52.4412Z"
    fill="#F5DEBB" />
  <path
    d="M59.2202 47.5565C59.4973 49.2157 59.4501 50.8592 58.8519 52.4429C58.6472 52.9907 58.3418 53.5386 57.9577 53.9762C57.01 55.0593 55.6405 55.2576 54.3622 54.587C53.6916 54.2344 53.1689 53.7117 52.725 53.1041C51.5758 51.5235 51.2137 49.7163 51.1823 47.8965C51.1885 46.8198 51.3113 45.85 51.6419 44.9118C51.8434 44.3325 52.1425 43.8256 52.7061 43.5171C52.8509 43.4383 52.9706 43.3156 53.0934 43.2022C54.0316 42.3301 55.0863 42.2356 56.2198 42.7488C56.9565 43.0857 57.5327 43.6178 57.9892 44.2853C58.6661 45.2739 59.0219 46.3821 59.2171 47.5534L59.2202 47.5565Z"
    fill="black" />
</svg>
