<?xml version="1.0" encoding="UTF-8"?>
<svg id="Livello_1" data-name="Livello 1" xmlns="http://www.w3.org/2000/svg" viewBox="0 0 708.89 749.01">
  <defs>
    <style>
      .cls-1, .cls-2, .cls-3, .cls-4, .cls-5 {
        stroke-width: 0px;
      }

      .cls-2 {
        fill: #7a8019;
      }

      .cls-3 {
        fill: #dba2a2;
      }

      .cls-4 {
        fill: #b4bb4f;
      }

      .cls-5 {
        fill: #ffc2c2;
      }
    </style>
  </defs>
  <path class="cls-1" d="M707.39,465.6c1.33,10.72,1.55,21.49,1.49,32.28-.05,9.95-.64,19.88-1.62,29.78-1.09,10.98-2.82,21.87-5.54,32.57-2.82,11.12-6.38,22.01-10.61,32.69-4.22,10.68-9.28,20.96-14.97,30.92-4.89,8.54-10.72,16.41-17.25,23.77-5.43,6.11-11.17,11.89-17.4,17.17-5.5,4.65-11.33,8.87-17.28,12.92-7.03,4.78-14.54,8.66-22.11,12.46-3.43,1.73-7.01,2.96-10.73,3.93-2.51.66-4.89,1.81-7.33,2.74-5.44,2.06-11.06,3.48-16.77,4.48-8.87,1.56-17.82,2.38-26.83,1.95-4.64-.22-9.3-.56-13.89-1.27-5.59-.86-11.16-1.96-16.65-3.34-8.15-2.04-16.14-4.64-23.82-8.11-4.18-1.88-8.37-3.74-12.62-5.45-3.32-1.34-4.01-6.3-2.75-8.36,1.16-1.88,3.04-2.74,5.61-2.39,4.62.63,9.27.94,13.92.57,6.8-.54,13.53-1.58,20.21-3.02,5.29-1.14,10.59-2.23,15.85-3.48,3.41-.8,6.75-1.87,10.12-2.81,5.83-1.64,11.58-3.52,17.13-5.96,4.89-2.15,9.72-4.47,14.51-6.83,6.13-3.01,11.94-6.57,17.64-10.32,5.02-3.3,9.74-6.97,14.33-10.82,5.91-4.97,11.41-10.36,16.75-15.93,4.78-4.99,8.96-10.43,12.86-16.12,3.79-5.52,7.01-11.38,10.33-17.18.99-1.73,1.12-3.28.99-5.03-.73-9.73-1.98-19.4-3.75-28.99-1.56-8.39-3.52-16.7-5.84-24.92-2.53-8.96-5.47-17.78-8.9-26.42-2.84-7.17-5.98-14.21-9.62-21.01-3.66-6.85-7.35-13.69-11.25-20.41-3.04-5.23-6.32-10.33-9.68-15.36-3.93-5.88-7.98-11.68-12.13-17.4-3.63-5-7.39-9.9-11.22-14.75-4.34-5.5-8.74-10.96-13.27-16.3-4.99-5.88-10.09-11.66-15.26-17.38-5.35-5.9-10.79-11.73-16.28-17.49-5.41-5.67-10.9-11.27-16.44-16.81s-11.13-11.04-16.79-16.46c-5.02-4.81-10.12-9.52-15.23-14.23-5.72-5.26-11.44-10.53-17.27-15.67-5.97-5.27-12.04-10.44-18.14-15.55-5.42-4.54-10.9-9.01-16.44-13.4-6.14-4.86-12.36-9.64-18.6-14.37-5.49-4.15-11.03-8.22-16.61-12.25-2.84-2.06-5.79-3.94-8.71-5.89-.2-.13-.45-.17-.81-.31-1.45,2.35-2.88,4.67-4.3,6.99-3.32,5.44-6.63,10.87-9.94,16.32-3.21,5.28-6.4,10.57-9.61,15.84-3.68,6.04-7.37,12.07-11.05,18.11-3.21,5.28-6.42,10.56-9.62,15.84-3.21,5.28-6.42,10.55-9.64,15.83-2.42,3.98-4.85,7.93-7.25,11.92-1.35,2.26-3.35,3.23-5.79,2.7-2.45-.53-4.24-2.64-4.49-5.09-.69-7.04-1.44-14.08-2.15-21.11-.56-5.52-1.1-11.03-1.68-16.55-.57-5.45-1.17-10.89-1.74-16.34-.45-4.31-.87-8.62-1.31-12.94-.45-4.5-.91-9-1.37-13.51-.57-5.58-1.13-11.16-1.71-16.73-.7-6.85-1.43-13.69-2.14-20.54-.57-5.52-1.12-11.03-1.69-16.55-.45-4.37-.91-8.75-1.36-13.12-.57-5.58-1.13-11.16-1.7-16.74-.44-4.25-.87-8.5-1.31-12.74-.48-4.63-.98-9.25-1.46-13.88-.58-5.52-1.17-11.02-1.73-16.54-.55-5.45-1.07-10.91-1.62-16.36-.55-5.32-1.09-10.65-1.7-15.96-.28-2.52.75-4.59,3.13-5.53,3.25-1.28,6.54-2.48,9.84-3.65,5.04-1.78,10.09-3.52,15.14-5.28,6.07-2.12,12.14-4.22,18.21-6.36,8.11-2.85,16.2-5.72,24.31-8.57,6.79-2.38,13.59-4.73,20.37-7.11,5.82-2.05,11.63-4.12,17.46-6.17,5.82-2.05,11.66-4.06,17.48-6.1,7.45-2.62,14.88-5.27,22.33-7.87,6.73-2.36,13.47-4.68,20.19-7.04,4.99-1.75,9.96-3.54,14.95-5.29,5.95-2.08,11.9-4.13,17.85-6.22,5.82-2.05,11.64-4.11,17.46-6.17,6.61-2.32,13.22-4.63,19.82-6.95,1.98-.7,3.98-1.35,5.94-2.12,1.7-.66,3.38-.62,5.04-.02,3.05,1.12,4.28,4.72,2.46,7.42-3.39,5.01-6.87,9.96-10.32,14.94-3.51,5.08-7.03,10.16-10.53,15.25-3.54,5.14-7.08,10.29-10.62,15.43-3.54,5.14-7.1,10.27-10.64,15.41-3.51,5.08-7.01,10.18-10.52,15.26-4.05,5.88-8.11,11.74-12.16,17.61-1.56,2.25-3.11,4.51-4.77,6.92,1.01.76,1.95,1.48,2.89,2.19,7.66,5.7,15.43,11.27,22.96,17.14,5.57,4.35,10.87,9.04,16.22,13.67,5.3,4.59,10.54,9.24,15.73,13.96,4.62,4.2,9.18,8.47,13.67,12.81,5.68,5.49,11.34,11.01,16.89,16.64,5.68,5.76,11.3,11.59,16.78,17.54,5.39,5.86,10.65,11.85,15.85,17.89,4.61,5.36,9.11,10.82,13.55,16.32,5,6.19,9.97,12.42,14.82,18.74,5.86,7.63,11.72,15.27,17.3,23.09,5.62,7.87,11.12,15.86,16.29,24.04,6.26,9.9,12.27,19.97,18.1,30.13,5.22,9.12,9.89,18.54,13.87,28.28,3.34,8.19,6.64,16.41,9.69,24.72,3.34,9.08,6.12,18.36,8.54,27.74,2.44,9.44,4.54,18.96,6.19,28.56,1.33,7.77,2.27,15.62,3.24,23.44ZM698.85,500.36c.3-10.15,0-20.28-1.06-30.38-.72-6.78-1.46-13.56-2.49-20.29-.95-6.22-2.16-12.42-3.55-18.57-1.85-8.19-3.81-16.38-6.08-24.47-2.55-9.08-5.73-17.96-9.08-26.78-4.19-11.02-8.87-21.83-14.21-32.35-5.6-11.03-11.87-21.69-18.46-32.14-5.51-8.73-11.16-17.37-17.03-25.86-4.96-7.18-10.25-14.13-15.5-21.1-4.72-6.26-9.55-12.43-14.43-18.57-4.4-5.54-8.86-11.03-13.41-16.45-5.04-6-10.16-11.94-15.37-17.8-4.7-5.28-9.51-10.48-14.39-15.6-4.85-5.06-9.82-10.02-14.81-14.94-4.99-4.92-10.04-9.8-15.14-14.6-5.11-4.8-10.27-9.54-15.5-14.21-5.18-4.63-10.4-9.23-15.75-13.65-5.95-4.9-11.98-9.72-18.14-14.34-6.37-4.78-12.92-9.31-19.43-13.88-2.66-1.87-3.25-5.14-1.21-7.66.44-.54.93-1.05,1.33-1.62,4.35-6.29,8.68-12.59,13.02-18.88,5.43-7.86,10.9-15.7,16.32-23.57,4.49-6.5,8.93-13.04,13.42-19.54,5.9-8.54,11.82-17.07,17.73-25.62.59-.85,1.12-1.74,1.69-2.62-.09-.1-.17-.22-.25-.32-74.76,26.23-149.51,52.45-224.32,78.71.51,5.17.97,10.11,1.48,15.05.56,5.45,1.17,10.9,1.73,16.35.58,5.52,1.12,11.03,1.69,16.55.71,6.85,1.44,13.69,2.14,20.54.56,5.52,1.1,11.04,1.67,16.55.71,6.85,1.45,13.69,2.15,20.53.58,5.58,1.12,11.16,1.7,16.74.7,6.85,1.43,13.69,2.13,20.54.57,5.52,1.11,11.04,1.68,16.55.71,6.85,1.44,13.69,2.14,20.54.57,5.52,1.12,11.03,1.67,16.55.63,6.21,1.24,12.43,1.88,18.64.25,2.43.56,4.86.88,7.6.51-.67.85-1.03,1.11-1.45,2.29-3.75,4.56-7.51,6.84-11.27,3.64-5.99,7.27-11.98,10.91-17.96,3.68-6.04,7.39-12.06,11.07-18.1,4.5-7.4,8.97-14.82,13.48-22.22,4.11-6.75,8.28-13.45,12.33-20.24,1.06-1.77,2.32-3.15,4.41-3.21,1.94-.06,3.96-.71,5.82.41.06.03.11.07.16.1,6.38,4.32,12.85,8.53,19.11,13,5.75,4.11,11.33,8.47,16.92,12.8,6.29,4.88,12.57,9.77,18.77,14.78,6.14,4.97,12.23,10.01,18.23,15.15,6.1,5.22,12.1,10.57,18.06,15.95,5.82,5.25,11.55,10.6,17.28,15.96,5.17,4.84,10.33,9.67,15.38,14.63,6.23,6.13,12.4,12.31,18.46,18.59,7.22,7.47,14.47,14.92,21.42,22.64,8.1,9,15.93,18.24,23.78,27.46,7.85,9.22,15.09,18.92,22.13,28.77,6.64,9.28,12.95,18.77,18.78,28.59,4.95,8.33,9.61,16.81,13.87,25.51,4.29,8.76,8.07,17.74,11.31,26.94,2.73,7.76,5.27,15.58,7.2,23.57,1.88,7.74,3.66,15.5,5.03,23.34,1.35,7.72,2.3,15.52,3.1,23.32.66,6.46.8,12.95.58,19.46-.21,6.44-.73,12.85-1.77,19.21-.92,5.71-2.07,11.4-3.38,17.04-1.27,5.53-2.96,10.95-5.33,16.13-1.88,4.09-3.92,8.12-5.88,12.17l.09.19c1.67-1.47,3.35-2.92,4.99-4.42,4.59-4.17,8.87-8.63,12.83-13.38,3.34-4.01,6.58-8.13,9.52-12.43,2.8-4.09,5.24-8.44,7.71-12.75,3.51-6.14,6.55-12.53,9.35-19.03,2.98-6.91,5.58-13.95,7.93-21.1,2.41-7.33,4.56-14.74,6.15-22.28,2.14-10.11,3.63-20.34,4.34-30.66.48-6.93.89-13.87,1.09-20.81ZM636.78,624.46c1.73-7.46,3.05-14.98,3.79-23.06-.76,1.06-1.3,1.77-1.77,2.5-3.5,5.33-7.24,10.5-11.53,15.22-6.61,7.26-13.62,14.11-21.14,20.46-9.15,7.72-18.99,14.36-29.52,20.02-9.04,4.85-18.21,9.44-28,12.58-6.97,2.23-13.96,4.45-21.07,6.15-8.6,2.06-17.21,4.1-25.99,5.28-1.2.16-2.38.42-3.98.71.7.34.97.52,1.27.6,5.93,1.72,11.82,3.58,17.79,5.11,7.55,1.92,15.28,2.81,23.05,3.24,7.02.4,14.01-.1,20.97-1.03,6.14-.82,12.19-2.09,18.05-4.1,9.46-3.24,18.33-7.62,26.4-13.58,7.3-5.39,13.51-11.83,18.64-19.31,6.43-9.37,10.47-19.77,13.02-30.79Z"/>
  <path class="cls-4" d="M697.78,469.98c1.07,10.1,1.36,20.24,1.06,30.38-.2,6.94-.6,13.88-1.09,20.81-.71,10.32-2.2,20.54-4.34,30.66-1.59,7.54-3.74,14.95-6.15,22.28-2.35,7.15-4.95,14.19-7.93,21.1-2.8,6.5-5.84,12.88-9.35,19.03-2.46,4.31-4.9,8.66-7.71,12.75-2.95,4.3-6.19,8.42-9.52,12.43-3.96,4.75-8.25,9.22-12.83,13.38-1.64,1.49-3.32,2.95-4.99,4.42l-.09-.19c1.96-4.06,4-8.08,5.88-12.17,2.37-5.17,4.06-10.6,5.33-16.13,1.3-5.64,2.45-11.33,3.38-17.04,1.03-6.35,1.56-12.76,1.77-19.21.22-6.51.08-13.01-.58-19.46-.81-7.8-1.76-15.6-3.1-23.32-1.37-7.83-3.15-15.6-5.03-23.34-1.93-7.99-4.47-15.81-7.2-23.57-3.24-9.2-7.02-18.18-11.31-26.94-4.27-8.69-8.93-17.18-13.87-25.51-5.83-9.82-12.15-19.31-18.78-28.59-7.04-9.85-14.28-19.55-22.13-28.77-7.85-9.22-15.69-18.46-23.78-27.46-6.94-7.72-14.19-15.17-21.42-22.64-6.07-6.28-12.23-12.47-18.46-18.59-5.04-4.96-10.21-9.79-15.38-14.63-5.72-5.36-11.46-10.7-17.28-15.96-5.96-5.38-11.96-10.72-18.06-15.95-6-5.14-12.09-10.18-18.23-15.15-6.19-5.01-12.47-9.91-18.77-14.78-5.59-4.33-11.17-8.69-16.92-12.8-6.26-4.47-12.73-8.68-19.11-13-.05-.03-.1-.07-.16-.1-1.86-1.12-3.88-.46-5.82-.41-2.09.06-3.35,1.44-4.41,3.21-4.05,6.78-8.22,13.49-12.33,20.24-4.5,7.4-8.98,14.82-13.48,22.22-3.68,6.04-7.39,12.06-11.07,18.1-3.64,5.98-7.28,11.97-10.91,17.96-2.28,3.76-4.55,7.52-6.84,11.27-.26.42-.6.78-1.11,1.45-.31-2.74-.63-5.16-.88-7.6-.64-6.21-1.25-12.43-1.88-18.64-.55-5.52-1.1-11.04-1.67-16.55-.7-6.85-1.44-13.69-2.14-20.54-.57-5.52-1.11-11.04-1.68-16.55-.7-6.85-1.43-13.69-2.13-20.54-.58-5.58-1.12-11.16-1.7-16.74-.7-6.85-1.44-13.69-2.15-20.53-.57-5.52-1.1-11.04-1.67-16.55-.71-6.85-1.44-13.69-2.14-20.54-.57-5.52-1.11-11.03-1.69-16.55-.56-5.45-1.17-10.9-1.73-16.35-.51-4.94-.98-9.89-1.48-15.05,74.81-26.26,149.56-52.48,224.32-78.71.08.1.16.22.25.32-.56.87-1.1,1.76-1.69,2.62-5.91,8.54-11.83,17.07-17.73,25.62-4.49,6.5-8.93,13.04-13.42,19.54-5.43,7.87-10.89,15.71-16.32,23.57-4.35,6.29-8.68,12.59-13.02,18.88-.4.57-.88,1.08-1.33,1.62-2.05,2.52-1.45,5.79,1.21,7.66,6.51,4.57,13.06,9.11,19.43,13.88,6.17,4.62,12.2,9.43,18.14,14.34,5.35,4.42,10.57,9.03,15.75,13.65,5.23,4.67,10.4,9.41,15.5,14.21,5.11,4.8,10.15,9.68,15.14,14.6,4.99,4.92,9.96,9.88,14.81,14.94,4.89,5.11,9.69,10.32,14.39,15.6,5.21,5.86,10.32,11.8,15.37,17.8,4.55,5.42,9.01,10.91,13.41,16.45,4.88,6.14,9.71,12.31,14.43,18.57,5.26,6.96,10.55,13.92,15.5,21.1,5.86,8.49,11.52,17.13,17.03,25.86,6.59,10.45,12.85,21.11,18.46,32.14,5.34,10.51,10.02,21.32,14.21,32.35,3.35,8.82,6.54,17.71,9.08,26.78,2.27,8.09,4.23,16.28,6.08,24.47,1.39,6.15,2.6,12.35,3.55,18.57,1.03,6.74,1.77,13.52,2.49,20.29Z"/>
  <path class="cls-2" d="M640.58,601.4c-.75,8.08-2.06,15.6-3.79,23.06-2.55,11.02-6.58,21.43-13.02,30.79-5.13,7.47-11.34,13.91-18.64,19.31-8.07,5.96-16.95,10.34-26.4,13.58-5.86,2-11.91,3.28-18.05,4.1-6.96.93-13.95,1.43-20.97,1.03-7.77-.43-15.5-1.32-23.05-3.24-5.97-1.53-11.87-3.39-17.79-5.11-.3-.09-.56-.27-1.27-.6,1.59-.28,2.78-.55,3.98-.71,8.79-1.18,17.4-3.23,25.99-5.28,7.11-1.7,14.1-3.92,21.07-6.15,9.79-3.14,18.96-7.73,28-12.58,10.53-5.66,20.37-12.3,29.52-20.02,7.51-6.35,14.53-13.19,21.14-20.46,4.29-4.72,8.03-9.89,11.53-15.22.48-.73,1.02-1.44,1.77-2.5Z"/>
  <path class="cls-1" d="M426.55,658.28c.23,2.59-.87,4.5-3.3,5.43-3.92,1.51-7.87,2.93-11.83,4.34-4.32,1.53-8.66,3-12.99,4.51-6.07,2.12-12.14,4.23-18.21,6.36-5.04,1.77-10.08,3.58-15.12,5.35-5.89,2.06-11.78,4.1-17.67,6.17-6.61,2.32-13.2,4.67-19.81,6.99-7.51,2.64-15.02,5.25-22.53,7.88-4.99,1.75-9.96,3.53-14.95,5.28-5.95,2.08-11.9,4.14-17.85,6.23-5.04,1.77-10.08,3.56-15.13,5.33-5.89,2.06-11.78,4.11-17.66,6.17-6.61,2.32-13.22,4.65-19.82,6.97-7.57,2.66-15.14,5.29-22.71,7.96-4.99,1.75-9.98,3.49-14.94,5.3-1.71.63-3.38.62-5.04.02-3.06-1.12-4.3-4.71-2.48-7.4,3.35-4.96,6.79-9.87,10.19-14.8,3.58-5.18,7.17-10.37,10.76-15.56,4.02-5.82,8.03-11.64,12.05-17.46,3.54-5.14,7.08-10.28,10.63-15.42s7.1-10.27,10.65-15.41c3.51-5.08,7-10.18,10.51-15.27,1.2-1.73,2.41-3.45,3.59-5.18.39-.56.73-1.16,1.16-1.84-1.81-1.31-3.52-2.52-5.2-3.76-4.41-3.24-8.87-6.42-13.22-9.76-4.95-3.81-9.84-7.68-14.63-11.69-5.52-4.62-10.94-9.36-16.32-14.15-5.29-4.7-10.52-9.46-15.69-14.28-4.57-4.26-9.05-8.61-13.52-12.98-4.46-4.36-8.9-8.75-13.26-13.23-4.97-5.12-9.91-10.27-14.71-15.55-4.9-5.36-9.68-10.84-14.4-16.36-4.6-5.37-9.11-10.82-13.56-16.32-5-6.19-9.97-12.41-14.82-18.73-5.86-7.63-11.72-15.27-17.3-23.1-5.62-7.87-11.09-15.87-16.28-24.04-5.85-9.18-11.45-18.53-16.89-27.96-5.67-9.82-10.63-20.01-15.12-30.44-4.17-9.72-7.96-19.58-11.36-29.59-3.11-9.17-5.79-18.46-8.07-27.88-2.48-10.29-4.58-20.65-6.24-31.1-1.48-9.39-2.6-18.82-2.98-28.32-.28-7.25-.55-14.52-.48-21.77.06-6.31.53-12.6.95-18.9.3-4.58.69-9.15,1.23-13.71.53-4.55,1.14-9.1,2.03-13.6,1.21-6.18,2.55-12.34,4.12-18.44,1.39-5.36,3.03-10.66,4.85-15.89,2.09-6.01,4.38-11.96,6.79-17.85,2.77-6.79,5.97-13.38,9.56-19.77,2.22-3.94,4.46-7.86,6.81-11.73,2.95-4.85,6.33-9.41,10.06-13.69,3.56-4.08,7.12-8.17,10.94-11.99,3.96-3.95,8.15-7.71,12.42-11.33,5.69-4.82,11.79-9.13,18.1-13.09,4.58-2.87,9.39-5.38,14.15-7.95,2.52-1.37,5.1-2.62,7.73-3.76,2.03-.89,4.17-1.53,6.28-2.27,2.16-.75,4.36-1.38,6.49-2.22,6.25-2.45,12.69-4.21,19.29-5.36,8.88-1.56,17.83-2.4,26.84-1.92,5.53.3,11.04.96,16.53,1.68,6.58.86,12.99,2.52,19.35,4.4,6.96,2.07,13.79,4.49,20.4,7.52,3.42,1.56,6.83,3.15,10.34,4.46,3.3,1.23,4.37,6.19,2.96,8.41-1.19,1.86-2.82,2.7-5,2.51-1.46-.13-2.92-.27-4.38-.44-7.04-.85-13.99.06-20.93,1.12-9.39,1.44-18.65,3.52-27.84,5.86-12.17,3.1-24.02,7.15-35.26,12.9-7.5,3.83-14.86,7.86-21.87,12.51-5.64,3.74-10.93,7.93-16.03,12.37-6.36,5.52-12.33,11.44-17.96,17.71-3.54,3.95-6.63,8.23-9.64,12.59-3.81,5.51-7.09,11.33-10.31,17.2-.78,1.42-1.22,2.65-1.05,4.25.66,5.96.98,11.95,1.89,17.87,1.21,7.93,2.63,15.84,4.37,23.66,1.49,6.71,3.35,13.34,5.39,19.9,2.02,6.5,4.25,12.95,6.78,19.27,2.57,6.44,5.42,12.78,8.48,19,3.09,6.28,6.44,12.45,9.94,18.52,3.46,6.01,7.15,11.9,10.93,17.72,3.36,5.19,6.88,10.27,10.47,15.3,3.6,5.02,7.29,9.98,11.08,14.86,4.21,5.43,8.51,10.82,12.91,16.11,4.52,5.44,9.13,10.8,13.84,16.08,5.21,5.85,10.52,11.62,15.88,17.34,5.32,5.67,10.7,11.28,16.16,16.83,5.58,5.68,11.23,11.3,16.95,16.85,5.54,5.36,11.17,10.63,16.81,15.89,5.18,4.82,10.38,9.62,15.65,14.33,5.89,5.27,11.82,10.49,17.84,15.61,6.01,5.11,12.13,10.13,18.28,15.09,5.46,4.39,11,8.68,16.55,12.95,5.46,4.19,10.92,8.37,16.48,12.42,4.84,3.52,9.83,6.85,14.75,10.25.2.14.46.18.87.33,3.23-5.31,6.38-10.47,9.52-15.63,3.28-5.38,6.57-10.76,9.84-16.15,3.21-5.28,6.42-10.56,9.62-15.84,3.21-5.28,6.42-10.56,9.64-15.84,3.25-5.33,6.5-10.65,9.75-15.98s6.49-10.66,9.73-16c1.09-1.8,2.21-3.57,3.27-5.39,1.33-2.26,3.15-3.18,5.57-2.77,2.35.4,4.34,2.37,4.66,4.72.25,1.77.39,3.55.57,5.32.75,7.23,1.5,14.45,2.24,21.68.44,4.25.85,8.5,1.28,12.74.59,5.71,1.21,11.4,1.8,17.11.44,4.25.84,8.5,1.27,12.74.58,5.64,1.2,11.28,1.77,16.92.45,4.38.85,8.75,1.3,13.13.57,5.52,1.18,11.02,1.75,16.53.45,4.31.86,8.63,1.3,12.94.59,5.64,1.2,11.27,1.78,16.91.45,4.38.84,8.76,1.3,13.13.56,5.51,1.19,11.02,1.76,16.53.45,4.38.85,8.75,1.3,13.13.56,5.52,1.17,11.02,1.74,16.53.45,4.31.86,8.63,1.31,12.94.58,5.64,1.19,11.27,1.78,16.91.17,1.65.34,3.3.48,4.95ZM416.18,655.77c-.17-1.88-.29-3.59-.47-5.29-.58-5.52-1.18-11.02-1.75-16.53-.45-4.38-.85-8.76-1.3-13.13-.57-5.51-1.19-11.02-1.76-16.53-.7-6.85-1.35-13.7-2.06-20.55-.58-5.7-1.2-11.4-1.8-17.11-.44-4.25-.84-8.5-1.28-12.74-.58-5.52-1.19-11.02-1.76-16.54-.46-4.43-.87-8.87-1.33-13.31-.46-4.5-.97-9-1.44-13.5-.55-5.39-1.06-10.77-1.62-16.16-.72-6.97-1.49-13.94-2.21-20.92-.55-5.39-1.06-10.78-1.6-16.17-.63-6.21-1.29-12.42-1.95-18.64-.18-1.76-.4-3.5-.6-5.26-1.56,1.89-2.81,3.87-4.03,5.86-4.5,7.4-8.97,14.82-13.48,22.22-4.11,6.74-8.26,13.47-12.37,20.21-4.54,7.46-9.03,14.94-13.57,22.39-4.11,6.75-8.3,13.45-12.34,20.23-1.06,1.78-2.32,3.14-4.41,3.2-1.93.05-3.96.73-5.82-.41-.05-.03-.1-.07-.16-.1-5.08-3.39-10.23-6.69-15.24-10.2-4.49-3.14-8.84-6.46-13.21-9.77-4.98-3.77-9.93-7.58-14.83-11.44-5.61-4.42-11.19-8.86-16.71-13.38-5.47-4.49-10.88-9.04-16.23-13.67-5.25-4.55-10.41-9.2-15.56-13.87-5.89-5.36-11.77-10.73-17.57-16.2-5.76-5.42-11.46-10.89-17.09-16.43-5.68-5.58-11.29-11.25-16.85-16.95-4.98-5.12-9.89-10.3-14.76-15.53-4.29-4.62-8.55-9.28-12.73-14.01-4.68-5.31-9.31-10.65-13.85-16.08-3.96-4.74-7.85-9.55-11.64-14.43-3.86-4.98-7.65-10.03-11.33-15.15-4.12-5.74-8.26-11.49-12.06-17.44-4.74-7.4-9.23-14.96-13.67-22.55-4.49-7.64-8.45-15.56-12.11-23.64-4.68-10.33-8.61-20.96-11.93-31.81-2.85-9.33-5.27-18.76-7.16-28.32-2.26-11.45-3.88-22.98-4.63-34.64-.58-8.87-.42-17.72.53-26.55.77-7.23,2-14.39,3.61-21.48,2.32-10.18,5.64-19.96,10.88-29.04.42-.71.74-1.48,1.12-2.23-.65.16-1.08.44-1.44.78-3.82,3.66-7.74,7.22-11.41,11.01-4.26,4.39-8.18,9.09-11.84,14.01-3.55,4.77-6.73,9.77-9.5,15.01-3.22,6.08-6.33,12.22-9.25,18.45-3.28,6.98-5.93,14.23-8.37,21.54-2.66,7.98-5.03,16.05-6.78,24.29-2.32,10.92-3.84,21.96-4.54,33.1-.48,7.57-.87,15.14-.98,22.73-.13,7.83.13,15.68.95,23.48.73,7.03,1.46,14.07,2.47,21.07,1.45,10.16,3.47,20.23,6,30.17,1.91,7.53,4.02,15.02,6.33,22.43,1.99,6.38,4.26,12.68,6.68,18.91,2.84,7.3,5.83,14.55,9.01,21.7,3.47,7.8,7.37,15.41,11.7,22.77,4.81,8.18,9.63,16.35,14.63,24.43,3.68,5.96,7.54,11.81,11.53,17.57,4.49,6.49,9.15,12.87,13.85,19.22,4.21,5.68,8.54,11.27,12.9,16.85,4.32,5.52,8.66,11.02,13.12,16.44,4.93,6,9.93,11.97,15.03,17.84,5.18,5.96,10.44,11.87,15.82,17.66,4.68,5.04,9.52,9.95,14.39,14.81,6.09,6.08,12.19,12.15,18.45,18.06,6.3,5.95,12.72,11.79,19.21,17.52,7.03,6.2,14.05,12.42,21.35,18.28,9.89,7.93,20.03,15.55,30.66,22.5,2.56,1.67,3.07,4.95,1.23,7.37-1.11,1.48-2.24,2.93-3.3,4.45-4.95,7.11-9.88,14.23-14.8,21.37-4.96,7.18-9.88,14.39-14.84,21.58-4.95,7.18-9.94,14.35-14.9,21.53-4.13,5.97-8.25,11.95-12.37,17.93-1.19,1.72-2.35,3.46-3.52,5.18.07.12.14.23.22.34,74.75-26.23,149.5-52.45,224.44-78.74ZM211.28,64.73c-.79-.36-1.16-.58-1.56-.71-3.46-1.09-6.92-2.19-10.4-3.23-9.82-2.94-19.88-4.46-30.09-5.04-6.57-.37-13.1.09-19.64.88-9.43,1.14-18.49,3.5-27.22,7.28-10.95,4.73-20.74,11.11-29.02,19.75-9.75,10.18-16.12,22.21-19.9,35.69-1.87,6.63-3.18,13.38-4.17,20.2-.36,2.47-.62,4.96-.92,7.44.13.06.26.12.4.18.09-.16.16-.34.27-.49.36-.52.74-1.03,1.09-1.56,4.42-6.81,9.39-13.18,15.01-19.03,7.38-7.68,15.14-14.94,23.59-21.46,5.96-4.6,12.19-8.8,18.74-12.49,4.65-2.63,9.43-5.04,14.17-7.5,6.46-3.35,13.18-6.1,20.08-8.35,7.55-2.46,15.18-4.72,22.98-6.35,7.47-1.56,14.88-3.45,22.46-4.48,1.24-.17,2.48-.44,4.14-.73Z"/>
  <path class="cls-5" d="M415.71,650.48c.18,1.71.3,3.42.47,5.29-74.94,26.29-149.69,52.52-224.44,78.74-.08-.11-.15-.22-.22-.34,1.17-1.73,2.34-3.46,3.52-5.18,4.12-5.98,8.24-11.96,12.37-17.93,4.96-7.18,9.95-14.35,14.9-21.53,4.96-7.19,9.88-14.39,14.84-21.58,4.92-7.14,9.86-14.26,14.8-21.37,1.05-1.52,2.19-2.98,3.3-4.45,1.84-2.43,1.33-5.7-1.23-7.37-10.62-6.95-20.77-14.56-30.66-22.5-7.3-5.86-14.32-12.08-21.35-18.28-6.5-5.74-12.91-11.57-19.21-17.52-6.25-5.91-12.36-11.98-18.45-18.06-4.87-4.86-9.71-9.77-14.39-14.81-5.38-5.79-10.63-11.69-15.82-17.66-5.1-5.87-10.09-11.83-15.03-17.84-4.45-5.42-8.8-10.92-13.12-16.44-4.36-5.57-8.69-11.16-12.9-16.85-4.7-6.35-9.36-12.73-13.85-19.22-3.99-5.76-7.85-11.62-11.53-17.57-5-8.07-9.82-16.25-14.63-24.43-4.34-7.36-8.23-14.97-11.7-22.77-3.18-7.15-6.17-14.4-9.01-21.7-2.42-6.23-4.68-12.54-6.68-18.91-2.32-7.41-4.42-14.89-6.33-22.43-2.53-9.94-4.54-20.01-6-30.17-1.01-7-1.74-14.03-2.47-21.07-.82-7.8-1.08-15.65-.95-23.48.12-7.58.51-15.16.98-22.73.7-11.14,2.22-22.18,4.54-33.1,1.75-8.23,4.13-16.3,6.78-24.29,2.43-7.32,5.09-14.56,8.37-21.54,2.92-6.22,6.03-12.37,9.25-18.45,2.77-5.24,5.95-10.24,9.5-15.01,3.66-4.92,7.58-9.61,11.84-14.01,3.68-3.79,7.6-7.36,11.41-11.01.36-.34.79-.62,1.44-.78-.37.75-.7,1.52-1.12,2.23-5.24,9.08-8.57,18.86-10.88,29.04-1.62,7.1-2.84,14.26-3.61,21.48-.95,8.83-1.1,17.68-.53,26.55.76,11.65,2.37,23.19,4.63,34.64,1.89,9.57,4.31,18.99,7.16,28.32,3.31,10.86,7.25,21.48,11.93,31.81,3.66,8.07,7.62,15.99,12.11,23.64,4.45,7.58,8.93,15.14,13.67,22.55,3.81,5.95,7.94,11.7,12.06,17.44,3.68,5.12,7.46,10.17,11.33,15.15,3.79,4.88,7.68,9.69,11.64,14.43,4.54,5.43,9.17,10.77,13.85,16.08,4.18,4.73,8.43,9.39,12.73,14.01,4.87,5.22,9.77,10.41,14.76,15.53,5.56,5.71,11.17,11.37,16.85,16.95,5.63,5.54,11.33,11.02,17.09,16.43,5.8,5.46,11.68,10.84,17.57,16.2,5.14,4.67,10.31,9.32,15.56,13.87,5.35,4.63,10.76,9.18,16.23,13.67,5.52,4.53,11.1,8.97,16.71,13.38,4.9,3.86,9.85,7.67,14.83,11.44,4.36,3.31,8.72,6.63,13.21,9.77,5.01,3.5,10.16,6.81,15.24,10.2.06.03.11.07.16.1,1.86,1.14,3.89.46,5.82.41,2.09-.05,3.35-1.41,4.41-3.2,4.04-6.78,8.23-13.48,12.34-20.23,4.54-7.46,9.03-14.94,13.57-22.39,4.11-6.75,8.26-13.47,12.37-20.21,4.5-7.4,8.98-14.82,13.48-22.22,1.21-1.99,2.46-3.97,4.03-5.86.2,1.76.42,3.5.6,5.26.66,6.21,1.31,12.42,1.95,18.64.55,5.39,1.05,10.78,1.6,16.17.72,6.97,1.49,13.94,2.21,20.92.56,5.39,1.06,10.77,1.62,16.16.46,4.5.97,9,1.44,13.5.46,4.44.87,8.88,1.33,13.31.57,5.52,1.18,11.02,1.76,16.54.44,4.25.84,8.5,1.28,12.74.59,5.71,1.21,11.41,1.8,17.11.7,6.85,1.36,13.7,2.06,20.55.57,5.51,1.19,11.02,1.76,16.53.45,4.38.85,8.76,1.3,13.13.57,5.51,1.17,11.02,1.75,16.53Z"/>
  <path class="cls-3" d="M209.72,64.03c.4.13.77.35,1.56.71-1.66.3-2.89.56-4.14.73-7.58,1.03-14.99,2.92-22.46,4.48-7.8,1.63-15.42,3.89-22.98,6.35-6.9,2.25-13.62,5-20.08,8.35-4.74,2.46-9.51,4.87-14.17,7.5-6.56,3.69-12.78,7.89-18.74,12.49-8.45,6.52-16.21,13.78-23.59,21.46-5.63,5.85-10.59,12.23-15.01,19.03-.35.53-.73,1.04-1.09,1.56-.1.16-.18.33-.27.49-.13-.06-.26-.12-.4-.18.3-2.48.56-4.97.92-7.44.99-6.82,2.31-13.57,4.17-20.2,3.78-13.48,10.16-25.51,19.9-35.69,8.29-8.65,18.07-15.02,29.02-19.75,8.73-3.78,17.79-6.13,27.22-7.28,6.54-.79,13.08-1.25,19.64-.88,10.2.58,20.27,2.1,30.09,5.04,3.48,1.04,6.93,2.14,10.4,3.23Z"/>
</svg>