<?xml version="1.0" encoding="UTF-8"?>
<svg id="Livello_1" data-name="Livello 1" xmlns="http://www.w3.org/2000/svg" viewBox="0 0 692.68 738.18">
  <defs>
    <style>
      .cls-1, .cls-2, .cls-3 {
        stroke-width: 0px;
      }

      .cls-2 {
        fill: #dba2a2;
      }

      .cls-3 {
        fill: #ffc2c2;
      }
    </style>
  </defs>
  <path class="cls-1" d="M689.42,606.3c2.99,2.52,3.64,5.91,3.08,9.55-.16,1.07-.97,2.06-1.55,3.04-3.37,5.6-7.45,10.64-11.91,15.4-7.15,7.63-15.28,14.06-23.84,20-6.87,4.77-14.04,9.04-21.32,13.13-6.23,3.49-12.46,6.98-18.79,10.28-8.64,4.51-17.37,8.86-26.39,12.61-8.89,3.7-17.71,7.56-26.66,11.1-7.34,2.9-14.8,5.51-22.28,8.07-6.75,2.31-13.56,4.46-20.39,6.52-5,1.51-10.06,2.82-15.12,4.14-6.17,1.61-12.34,3.2-18.54,4.67-9.98,2.38-19.93,4.9-29.99,6.88-7.81,1.53-15.76,2.36-23.66,3.45-3.73.51-7.46.96-11.21,1.31-1.96.18-3.96.11-5.93.13-.38,0-.8-.05-1.12-.23-1.44-.82-2.97-.54-4.49-.4-3.87.34-7.74.79-11.62,1.05-6.36.41-12.73.79-19.11,1.01-5.36.18-10.73.19-16.09.14-6.44-.07-12.9-.17-19.33-.48-6.3-.31-12.61-.77-18.88-1.41-7.1-.73-14.2-1.55-21.25-2.67-7.17-1.14-14.32-2.49-21.4-4.11-7.76-1.78-15.47-3.8-23.1-6.07-6.84-2.03-13.57-4.43-20.28-6.85-5.87-2.12-11.7-4.38-17.46-6.77-5.83-2.42-11.6-4.97-17.31-7.64-5.66-2.65-11.27-5.41-16.79-8.32-5.58-2.94-11.09-6.04-16.54-9.22-4.68-2.73-9.29-5.59-13.82-8.55-5.33-3.49-10.62-7.07-15.79-10.79-5.17-3.72-10.26-7.57-15.24-11.56-4.88-3.91-9.67-7.93-14.3-12.12-5.39-4.88-10.68-9.88-15.79-15.04-4.45-4.48-8.68-9.18-12.86-13.91-3.67-4.16-7.24-8.41-10.65-12.78-3.8-4.88-7.49-9.85-11.02-14.93-3.6-5.18-7.05-10.48-10.33-15.86-3.32-5.44-6.52-10.96-9.46-16.61-3.73-7.18-7.31-14.45-10.63-21.83-2.9-6.44-5.53-13.03-7.93-19.68-2.68-7.43-5.14-14.96-7.35-22.54-2.06-7.09-3.79-14.29-5.45-21.48-1.4-6.08-2.58-12.22-3.7-18.36-.82-4.51-1.46-9.06-2.04-13.61-.8-6.26-1.55-12.53-2.18-18.8-.45-4.44-.76-8.9-.95-13.36-.31-7.27-.65-14.54-.66-21.81-.02-8.61.12-17.23.52-25.83.35-7.51,1.03-15.02,1.82-22.5.65-6.21,1.57-12.4,2.56-18.56.97-6.1,2.01-12.21,3.34-18.24,1.75-7.9,3.59-15.79,5.8-23.57,2.43-8.58,5.12-17.1,8.09-25.5,2.63-7.45,5.67-14.75,8.77-22.02,2.49-5.86,5.18-11.65,8.06-17.34,3.2-6.3,6.6-12.52,10.15-18.64,3.23-5.56,6.67-11.01,10.22-16.38,2.95-4.46,6.08-8.82,9.34-13.07,3.92-5.11,7.95-10.14,12.15-15.02,4.08-4.73,8.34-9.32,12.72-13.78,4.46-4.55,9.07-8.98,13.8-13.26,4.67-4.24,9.51-8.3,14.39-12.31,4.97-4.09,10.04-8.07,15.15-11.98,4.2-3.22,8.5-6.32,12.82-9.37,5.15-3.65,10.32-7.28,15.58-10.76,5.32-3.51,10.68-6.97,16.17-10.2,6.2-3.65,12.52-7.13,18.88-10.49,5.58-2.94,11.27-5.68,16.96-8.39,4.83-2.3,9.7-4.52,14.62-6.66,5.08-2.21,10.2-4.34,15.36-6.37,6.58-2.58,13.19-5.12,19.85-7.49,5.99-2.13,12.06-4.07,18.13-5.99,5.16-1.63,10.35-3.21,15.57-4.61,6.09-1.64,12.22-3.13,18.36-4.55,4.41-1.02,8.85-1.91,13.31-2.7,4.82-.86,9.67-1.63,14.52-2.29,5.05-.69,10.12-1.28,15.2-1.76C372.88.31,383.6-.03,394.33,0c9.01.02,18,.4,26.96,1.25,5.51.52,11.01,1.27,16.48,2.14,6.04.96,12.07,2.02,18.04,3.32,5.54,1.21,11.04,2.63,16.48,4.23,5.98,1.75,11.95,3.61,17.79,5.78,6.02,2.25,11.99,4.7,17.79,7.47,7.3,3.48,14.46,7.27,21.57,11.13,7.06,3.83,13.94,7.99,20.49,12.67,6.53,4.68,13.14,9.26,19.46,14.22,5.61,4.4,10.96,9.15,16.26,13.95,5.2,4.71,10.28,9.56,15.21,14.55,4.53,4.57,8.9,9.32,13.14,14.16,4.17,4.74,8.22,9.59,12.09,14.58,3.87,4.98,7.57,10.11,11.12,15.32,3.05,4.48,5.92,9.08,8.61,13.77,2.76,4.81,5.4,9.7,7.75,14.71,2.75,5.88,5.28,11.88,7.64,17.93,1.98,5.1,3.67,10.32,5.33,15.54,1.87,5.89,3.68,11.8,5.31,17.76,1.7,6.2,3.19,12.47,4.71,18.72,2.09,8.56,3.67,17.21,4.97,25.92,1.04,7.07,2.02,14.15,2.71,21.26.68,6.91,1.08,13.86,1.39,20.8.36,8.1,0,16.21-.6,24.29-.62,8.21-1.17,16.43-2.69,24.53-1.14,6.07-2.45,12.12-3.92,18.12-1.34,5.44-2.87,10.84-4.56,16.18-1.38,4.37-3,8.67-4.71,12.93-2.04,5.08-4.12,10.16-6.48,15.1-2.41,5.06-5.04,10.02-7.8,14.9-2.29,4.05-4.81,7.97-7.38,11.85-2.61,3.92-5.39,7.74-8.17,11.56-2.18,2.99-4.35,5.99-6.74,8.81-3.17,3.74-6.42,7.44-9.86,10.93-7.79,7.91-16.17,15.21-24.59,22.44-6,5.15-11.99,10.32-18.12,15.3-6.77,5.51-13.74,10.79-20.57,16.24-5.43,4.34-10.77,8.8-16.16,13.18-5.94,4.82-11.74,9.83-17.9,14.36-3.98,2.92-8.5,5.11-12.76,7.65-1.04.62-2.01,1.35-2.98,2.07-6.18,4.57-12.86,8.26-19.78,11.57-6.44,3.09-13.05,5.79-19.88,7.91-5.61,1.74-11.31,3.05-17.1,4.06-5.97,1.04-11.98,1.74-18.02,2.2-7.97.6-15.95.59-23.89-.39-5.84-.72-11.54-2.09-17.03-4.26-9.79-3.87-18.72-9.24-27.27-15.31-6.01-4.26-11.52-9.08-16.53-14.46-4.53-4.86-8.5-10.15-11.9-15.88-3.87-6.52-6.67-13.46-8.69-20.74-.15-.54-.25-1.1-.43-1.87-4.32,1.27-8.42,2.45-12.49,3.69-11.3,3.43-22.71,6.37-34.44,7.91-10.42,1.37-20.88,1.55-31.34,1.07-8.35-.38-16.62-1.6-24.78-3.53-7.97-1.89-15.7-4.43-23.13-7.83-4.35-1.99-8.56-4.26-12.53-6.94-.34-.23-.74-.35-1.35-.25,1.32,1.68,2.58,3.42,3.98,5.03,5.12,5.94,10.19,11.94,15.47,17.73,5.76,6.32,11.97,12.2,18.49,17.75,5.89,5,12.04,9.67,18.33,14.14,7.02,4.99,14.22,9.71,21.76,13.88,5.18,2.86,10.35,5.79,15.67,8.39,5.55,2.71,11.22,5.19,16.94,7.55,5.83,2.41,11.74,4.63,17.67,6.76,5.63,2.03,11.3,3.99,17.03,5.71,9.22,2.76,18.45,5.48,27.76,7.87,7.52,1.93,15.17,3.41,22.78,4.97,10.37,2.11,20.75,4.15,31.15,6.11,1.59.3,3.32.18,4.95-.03,9.68-1.26,19.3-2.92,28.75-5.33,8.33-2.12,16.6-4.53,24.78-7.17,7.27-2.35,14.42-5.08,21.55-7.84,7.2-2.78,14.13-6.17,20.99-9.71,9.7-5,18.97-10.73,28.28-16.41.76-.47,1.5-1,2.32-1.33.86-.35,1.88-.8,2.72-.65,1.79.32,3.43-.16,5.09-.5,10.42-2.15,20.84-4.34,31.25-6.54,8.6-1.82,17.2-3.68,25.81-5.51,5.61-1.19,11.22-2.38,16.83-3.54,2.61-.54,4.85.6,6.72,2.12,7.62,6.19,15.14,12.51,22.69,18.8,6.71,5.59,13.4,11.22,20.12,16.81,3.48,2.9,7.01,5.73,10.48,8.64ZM679.89,617.48c-1.02.13-1.63.22-2.25.29-3.99.45-7.97.91-11.97,1.36-5.26.58-10.52,1.15-15.78,1.73-3.61.4-7.22.81-10.83,1.22-5.45.62-10.89,1.24-16.34,1.85-2.66.3-5.33.58-7.99.86-1.07.12-1.79.63-2.46,1.53-3.04,4.1-6.06,8.21-9.32,12.13-5.14,6.18-10.86,11.83-16.72,17.34-6.52,6.12-13.35,11.86-20.45,17.28-7.7,5.88-15.52,11.61-23.65,16.89-7.6,4.93-15.39,9.54-23.36,13.83-2.07,1.11-4.13,2.22-6.2,3.33.06.1.13.2.19.3.79-.19,1.6-.34,2.38-.59,6.93-2.18,13.9-4.24,20.77-6.59,7.41-2.53,14.78-5.23,22.08-8.06,7.13-2.76,14.2-5.69,21.22-8.71,7.13-3.08,14.25-6.23,21.24-9.61,9.98-4.82,19.73-10.12,29.35-15.64,9.96-5.72,19.73-11.71,28.77-18.84,7.15-5.64,13.64-11.91,19.27-19.06.65-.83,1.22-1.72,2.02-2.86ZM675.61,312.79c.36-9.26-.05-18.51-.98-27.72-.61-6.09-1.19-12.19-2.05-18.25-1.45-10.17-3.17-20.29-5.53-30.29-1.6-6.76-3.26-13.51-5.09-20.21-1.65-6.02-3.45-12.01-5.42-17.94-2.14-6.47-4.4-12.91-6.89-19.26-3.71-9.45-8.27-18.51-13.44-27.25-4.42-7.48-9.19-14.72-14.48-21.6-4.27-5.56-8.61-11.09-13.18-16.41-4.53-5.27-9.27-10.37-14.11-15.37-4.26-4.4-8.73-8.6-13.18-12.82-5.61-5.31-11.36-10.46-17.51-15.15-5.48-4.18-11.03-8.26-16.61-12.3-6.26-4.53-12.77-8.69-19.52-12.44-6.86-3.81-13.81-7.45-20.78-11.03-6.18-3.18-12.55-5.98-19.13-8.24-6.57-2.26-13.15-4.5-19.82-6.44-5.69-1.65-11.46-3.08-17.26-4.24-6.93-1.39-13.92-2.55-20.92-3.51-6.06-.83-12.17-1.38-18.27-1.8-5.28-.36-10.59-.5-15.89-.48-7.53.02-15.07.11-22.59.49-6.43.33-12.85,1.02-19.24,1.76-5.89.68-11.77,1.48-17.59,2.55-6.89,1.26-13.74,2.82-20.58,4.35-9.34,2.09-18.53,4.71-27.63,7.64-7.46,2.4-14.88,4.95-22.28,7.52-3.96,1.38-7.85,2.95-11.78,4.44.02.13.05.25.07.38.5-.05,1.01-.05,1.49-.17,8.57-1.98,17.26-3.37,25.99-4.38,7.6-.88,15.25-1.47,22.89-1.82,6.95-.32,13.92-.3,20.88-.14,6.11.14,12.22.61,18.33,1.06,4.52.33,9.04.7,13.52,1.32,6.3.86,12.61,1.81,18.85,3.03,7.88,1.54,15.76,3.16,23.53,5.15,7.9,2.02,15.73,4.34,23.49,6.85,6.79,2.19,13.51,4.64,20.12,7.31,6.68,2.69,13.25,5.65,19.75,8.75,5.64,2.69,11.2,5.57,16.62,8.66,6.25,3.57,12.42,7.3,18.44,11.26,5.97,3.92,11.83,8.02,17.48,12.38,5.71,4.39,11.16,9.12,16.61,13.83,6.72,5.8,12.94,12.13,18.88,18.72,5.43,6.01,10.57,12.28,15.32,18.85,5.24,7.24,10.05,14.76,14.32,22.61,4.23,7.79,7.99,15.81,11.34,24.03,4.01,9.82,7.37,19.85,10.19,30.06,2.34,8.48,4.18,17.08,5.7,25.76,1.88,10.7,3.22,21.46,3.85,32.3.38,6.43.6,12.88.61,19.33,0,6.89-.18,13.79-.57,20.67-.37,6.55-1.02,13.1-1.74,19.63-.67,6.08-1.48,12.15-2.45,18.18-1,6.23-2.12,12.44-3.46,18.6-1.69,7.85-3.56,15.66-5.54,23.44-1.53,5.99-3.28,11.93-5.08,17.84-1.89,6.21-3.85,12.42-5.99,18.55-2.36,6.73-4.85,13.43-7.51,20.06-2.3,5.74-4.75,11.43-7.43,16.99-3.12,6.49-6.4,12.92-9.9,19.21-3.13,5.62-6.63,11.04-10.01,16.52-1.35,2.2-2.83,4.32-4.25,6.47,1.56-.83,2.88-1.88,4.2-2.92,6.91-5.45,13.87-10.85,20.72-16.38,5.36-4.32,10.66-8.74,15.86-13.26,7.12-6.2,14.18-12.48,21.17-18.83,9.06-8.24,16.78-17.64,23.81-27.65,4.04-5.74,8.04-11.51,11.5-17.62,2.64-4.66,5.24-9.34,7.57-14.16,2.33-4.82,4.4-9.76,6.39-14.73,1.89-4.73,3.71-9.51,5.21-14.38,1.84-5.96,3.41-12.02,4.93-18.08,1.05-4.2,1.98-8.44,2.67-12.72.86-5.35,1.59-10.73,2.07-16.12.61-6.8,1.04-13.62,1.3-20.44ZM675.04,607.89c.11-.19.22-.38.32-.57-.29-.15-.62-.25-.86-.45-7.38-6.09-14.75-12.19-22.12-18.3-6.92-5.74-13.86-11.46-20.72-17.28-1.17-.99-2.23-1.2-3.64-.88-5.47,1.22-10.96,2.39-16.45,3.55-6.67,1.4-13.35,2.75-20.02,4.15-8.17,1.71-16.34,3.44-24.5,5.17-1.04.22-2.07.48-3.19.74.2.31.26.52.4.61,2.93,2.05,5.87,4.07,8.8,6.11,5.76,4,11.52,8,17.27,12.01,5.7,3.98,11.39,7.97,17.08,11.96.76.53,1.54.79,2.5.64,1.76-.28,3.54-.47,5.31-.67,5.2-.56,10.4-1.08,15.6-1.67,7.15-.82,14.3-1.72,21.45-2.54,6.14-.7,12.3-1.33,18.45-2.01,1.44-.16,2.88-.39,4.31-.59ZM602.05,305.99c.07-6.76-.09-13.54-.49-20.29-.36-6.11-1.04-12.21-1.82-18.27-.79-6.13-1.63-12.27-2.88-18.31-1.58-7.68-3.51-15.29-5.47-22.88-2.13-8.22-5-16.21-8.12-24.1-2.89-7.29-6.14-14.43-9.78-21.39-3.58-6.85-7.51-13.48-11.85-19.87-3.91-5.76-8.1-11.3-12.58-16.63-4.93-5.87-10.04-11.59-15.62-16.83-5.58-5.24-11.3-10.33-17.09-15.33-6.53-5.63-13.52-10.67-20.65-15.5-7.71-5.23-15.68-10.04-23.84-14.53-8.28-4.55-16.74-8.73-25.41-12.45-10.9-4.68-22.03-8.75-33.39-12.18-10.87-3.28-21.85-6.1-32.98-8.36-10.82-2.2-21.7-3.96-32.69-4.98-6.1-.56-12.21-1.15-18.32-1.29-8.49-.2-16.99-.15-25.47.11-6.05.18-12.11.69-18.12,1.39-6.7.78-13.37,1.87-20.03,2.95-7.81,1.27-15.48,3.17-23.09,5.3-8.17,2.29-16.26,4.82-24.13,8-7.21,2.91-14.43,5.81-21.52,9-7.97,3.59-15.74,7.59-23.26,12.05-5.98,3.55-11.95,7.12-17.75,10.94-6.07,4-12.04,8.16-17.84,12.53-5.96,4.49-11.8,9.15-17.44,14.03-5.83,5.05-11.52,10.29-16.98,15.73-5.47,5.44-10.75,11.1-15.8,16.92-4.51,5.2-8.78,10.63-12.83,16.19-4.58,6.28-8.94,12.74-13.12,19.29-4.6,7.2-8.69,14.71-12.57,22.33-4.01,7.85-7.79,15.79-11.07,23.96-2.83,7.04-5.61,14.1-8.04,21.28-2.77,8.21-5.38,16.49-7.61,24.87-2.18,8.19-4,16.48-5.58,24.81-1.62,8.52-2.98,17.11-4.05,25.72-.96,7.72-1.43,15.5-2.03,23.26-.67,8.73-.92,17.47-.71,26.21.22,9.63.58,19.26,1.11,28.88.32,5.92.88,11.84,1.66,17.71,1.12,8.46,2.36,16.91,3.85,25.32,1.21,6.84,2.65,13.65,4.34,20.39,1.89,7.54,4.09,15.01,6.32,22.46,2.48,8.32,5.51,16.45,8.86,24.45,2.34,5.58,4.8,11.12,7.42,16.58,2.7,5.63,5.56,11.19,8.53,16.69,4.03,7.47,8.37,14.77,13.22,21.73,4.52,6.48,9.12,12.92,13.89,19.23,5.08,6.72,10.62,13.06,16.33,19.26,5.8,6.29,11.82,12.37,18.11,18.15,7.52,6.91,15.33,13.47,23.43,19.7,7.54,5.8,15.28,11.31,23.23,16.52,8.53,5.6,17.32,10.79,26.28,15.69,9.02,4.92,18.22,9.47,27.6,13.65,11.59,5.16,23.39,9.79,35.4,13.91,12.01,4.12,24.19,7.64,36.6,10.35,12.58,2.75,25.28,4.86,38.13,5.89,9.35.76,18.71,1.43,28.08,1.77,11.61.41,23.25.3,34.86-.34,6.5-.36,13-.81,19.46-1.48,6.71-.7,13.43-1.55,20.09-2.66,7.09-1.18,14.17-2.57,21.18-4.18,6.83-1.57,13.59-3.44,20.33-5.36,9.58-2.74,18.92-6.17,28.01-10.22,11.9-5.3,23.31-11.56,34.41-18.36,10.5-6.44,20.47-13.68,30.21-21.22,12.03-9.32,23.32-19.46,33.31-30.98,2.75-3.17,5.26-6.53,7.87-9.8-.27-.31-.38-.47-.53-.58-6.17-4.31-12.34-8.62-18.52-12.92-10.63-7.4-21.27-14.76-31.88-22.2-.89-.62-1.43-.62-2.35-.08-8.64,5.06-17.23,10.21-26,15.02-5.47,3-11.15,5.64-16.87,8.15-5.78,2.54-11.68,4.77-17.58,7.02-8.41,3.19-16.97,5.92-25.65,8.23-6.89,1.84-13.83,3.5-20.8,5.02-4.66,1.02-9.41,1.66-14.12,2.46-2.38.4-4.77.8-7.16,1.19-.87.14-1.75.27-2.64.34-.89.07-1.79,0-2.68.09-3.74.35-7.48.8-11.23,1.08-5.47.41-10.95.85-16.42,1-7.97.21-15.94.26-23.91.21-5.29-.03-10.6-.2-15.88-.56-6.36-.44-12.71-1.02-19.04-1.79-7.78-.95-15.54-2.02-23.27-3.31-6.41-1.08-12.76-2.52-19.12-3.88-9.42-2.01-18.74-4.41-27.93-7.27-8.52-2.65-17.01-5.42-25.39-8.49-6.7-2.45-13.25-5.31-19.78-8.19-6.65-2.93-13.12-6.26-19.34-10.04-4.69-2.84-9.34-5.77-13.8-8.95-4.52-3.22-8.91-6.63-13.12-10.23-4.84-4.14-9.61-8.41-14.1-12.94-5.02-5.08-9.86-10.36-14.43-15.84-4.61-5.53-9.02-11.26-13.11-17.17-4.1-5.92-7.79-12.12-11.51-18.29-3.8-6.28-7.05-12.87-9.98-19.59-2.83-6.48-5.56-13.02-8.03-19.64-2.28-6.08-4.28-12.28-6.18-18.5-2.3-7.5-4.18-15.12-5.62-22.83-1.01-5.38-2.11-10.76-2.85-16.18-.86-6.25-1.39-12.54-2.02-18.82-.82-8.21-.95-16.45-.72-24.68.2-7.08.62-14.15,1.13-21.21.34-4.7.82-9.41,1.55-14.07,1.13-7.25,2.32-14.49,3.85-21.66,1.46-6.85,3.2-13.66,5.16-20.39,1.99-6.85,4.24-13.64,6.66-20.35,2.42-6.71,5-13.38,7.84-19.93,2.88-6.67,5.99-13.25,9.31-19.71,3.29-6.41,6.79-12.71,10.51-18.88,3.69-6.11,7.59-12.11,11.71-17.93,4.13-5.82,8.5-11.49,13.04-16.99,4.05-4.91,8.36-9.64,12.79-14.22,4.34-4.5,8.86-8.83,13.48-13.03,5.52-5.02,11.33-9.73,17.51-13.93,5.26-3.58,10.61-7.08,16.14-10.24,5.53-3.16,11.29-5.91,17-8.74,3.02-1.49,6.11-2.9,9.25-4.12,2.96-1.15,6.05-1.98,9.06-3.01,7.24-2.48,14.62-4.43,22.1-6.05,10.3-2.23,20.69-3.72,31.18-4.57,5.4-.44,10.82-.83,16.23-1.02,8.23-.29,16.47-.12,24.68.6,3.43.3,6.88.5,10.29.97,5.48.76,10.96,1.58,16.4,2.61,6.38,1.21,12.74,2.56,19.06,4.07,5.26,1.25,10.48,2.73,15.67,4.28,5.31,1.59,10.6,3.27,15.81,5.13,5.16,1.84,10.29,3.8,15.31,6,6.59,2.9,13.16,5.87,19.55,9.19,6.33,3.29,12.54,6.86,18.57,10.66,6.14,3.87,12.12,8.04,17.96,12.35,5.13,3.78,10.1,7.8,14.92,11.97,4.82,4.17,9.51,8.53,13.99,13.05,4.44,4.48,8.71,9.15,12.78,13.97,4.06,4.82,7.89,9.86,11.61,14.96,4.28,5.88,8.24,11.99,11.63,18.43,2.93,5.58,5.81,11.22,8.33,16.99,3.27,7.49,5.5,15.34,7.13,23.37,1.85,9.1,2.88,18.28,3.2,27.54.33,9.57.32,19.14-.17,28.71-.32,6.26-.9,12.48-1.86,18.66-1.4,9.08-3.31,18.06-5.75,26.93-2.1,7.63-4.59,15.13-7.56,22.46-2.99,7.38-6.05,14.75-9.41,21.97-3.73,8.03-7.68,15.97-11.82,23.8-3.78,7.15-7.79,14.2-12.01,21.11-3.33,5.43-6.93,10.71-10.78,15.79-4.28,5.63-8.89,11.02-13.5,16.39-5.57,6.51-11.7,12.45-18.48,17.72-7.27,5.66-15.15,10.09-24.13,12.42-4.12,1.07-8.3,1.53-12.51,1.16-6.39-.56-12.27-2.57-17.55-6.39-5.96-4.31-10.3-9.85-13.14-16.56-2.8-6.63-4.2-13.64-4.97-20.75-.69-6.41-.86-12.84-.61-19.3.34-8.87,1.12-17.71,2.61-26.45,1.63-9.55,3.61-19.05,5.56-28.54,2.3-11.18,5.42-22.16,8.7-33.09,2.53-8.43,5.12-16.85,8.01-25.16,3.43-9.87,7.09-19.67,10.88-29.41,2.88-7.42,6.03-14.74,9.22-22.05,3.19-7.3,6.39-14.61,9.92-21.75,3.9-7.88,8.03-15.66,12.32-23.34,4.35-7.79,9-15.42,13.52-23.11,1.35-2.29,2.7-4.57,4.16-7.04-23.21-5.39-46.21-10.73-69.41-16.12-.32.88-.58,1.53-.78,2.19-3.53,11.39-7.06,22.77-10.6,34.16-.76,2.45-2.86,3.82-5.43,3.6-.7-.06-1.39-.23-2.09-.3-2.12-.22-3.48-1.39-4.31-3.31-.52-1.23-.98-2.53-1.73-3.62-2.33-3.42-4.69-6.83-7.22-10.11-3.61-4.66-7.73-8.82-12.48-12.35-5.11-3.8-10.72-6.62-16.65-8.89-8.67-3.31-17.68-4.97-26.9-5.43-5.87-.29-11.73-.06-17.59.61-6.8.78-13.49,2.07-20.1,3.82-9.7,2.58-19,6.25-27.98,10.72-7.73,3.85-15.02,8.41-22,13.47-6.16,4.46-11.98,9.32-17.56,14.48-6.29,5.82-12.2,11.99-17.72,18.53-5.47,6.49-10.57,13.27-15.31,20.31-4.89,7.25-9.56,14.64-13.66,22.36-3.55,6.7-6.93,13.49-10.24,20.32-3.82,7.87-7,16.01-9.83,24.28-3.23,9.42-5.82,19.01-7.62,28.82-1.53,8.37-2.48,16.79-2.81,25.27-.34,8.69.13,17.35,1.33,25.97,1.47,10.48,4.13,20.64,8.4,30.34,4.35,9.89,10.09,18.89,17.53,26.77,6.27,6.64,13.39,12.18,21.31,16.71,7.17,4.1,14.8,7.1,22.75,9.36,9.12,2.6,18.4,4.18,27.86,4.64,9.89.49,19.78.34,29.63-.91,7.67-.98,15.22-2.56,22.67-4.57,5.29-1.43,10.56-2.95,15.8-4.55,4.14-1.26,8.33-2.45,12.3-4.14,3.84-1.62,7.89,1.25,7.44,5.27-.13,1.12,0,2.3.21,3.42.95,4.91,2.61,9.6,4.73,14.11,5.85,12.45,14.66,22.49,25.4,30.92,6.09,4.78,12.62,8.9,19.44,12.54,5.76,3.07,11.75,5.56,18.18,6.9,9.47,1.98,19.02,2.04,28.6,1.23,5.01-.43,10.01-1.09,15-1.82,6.82-1,13.49-2.72,20.02-4.95,5.8-1.99,11.43-4.39,16.92-7.09,6.13-3.02,12.03-6.43,17.53-10.52,5.85-4.36,11.14-9.33,16.15-14.63,7.56-8,14.22-16.71,20.4-25.79,4.95-7.28,9.67-14.72,13.78-22.51,3.54-6.71,7.02-13.47,10.15-20.38,3.24-7.14,6.2-14.41,8.95-21.75,3-7.99,5.78-16.08,8.36-24.21,2.37-7.47,4.47-15.03,6.45-22.62s3.87-15.21,5.41-22.89c1.7-8.49,3.13-17.04,4.35-25.62,1.1-7.76,1.95-15.57,2.53-23.4.57-7.69.82-15.43.9-23.14ZM561.11,307.35c.11-8.3-.26-16.59-1.26-24.84-1.04-8.56-2.7-17-5.45-25.2-1.04-3.11-2.28-6.16-3.55-9.56-.41.56-.64.77-.76,1.03-2.51,5.58-5.02,11.16-7.5,16.75-2.51,5.65-4.99,11.31-7.47,16.98-2.47,5.67-4.99,11.32-7.35,17.03-2.66,6.42-5.24,12.87-7.75,19.35-2.51,6.48-5.05,12.95-7.31,19.51-2.81,8.14-5.4,16.35-7.97,24.56-2.93,9.37-5.36,18.88-7.42,28.48-2.25,10.54-4.21,21.13-5.02,31.89-.78,10.35-.75,20.66,1.99,30.78,1.15,4.25,2.32,8.5,4.63,12.31.98,1.62,1.91,3.3,3.54,4.64.33-.31.54-.47.69-.67,5.6-7.3,10.57-15.01,15.06-23.03,3.39-6.06,6.79-12.13,9.98-18.3,3.2-6.16,6.32-12.38,9.17-18.7,3.25-7.2,6.33-14.49,9.2-21.85,2.24-5.75,4.16-11.64,6.01-17.53,2.26-7.18,3.85-14.53,5.24-21.93,1.31-6.97,2.37-13.97,2.73-21.05.35-6.88.48-13.78.57-20.67ZM544.39,236.76c.39-.86.28-1.54-.19-2.32-2.41-3.98-4.74-8.01-7.17-11.98-1.12-1.84-2.43-3.56-3.6-5.27-2.72.38-5.24.7-7.75,1.09-7.24,1.1-14.47,2.26-21.72,3.33-.99.15-1.63.55-2.12,1.38-1.04,1.76-2.12,3.49-3.17,5.24-3.65,6.14-7.34,12.25-10.92,18.43-3.51,6.07-7.02,12.15-10.31,18.34-3.29,6.19-6.41,12.48-9.42,18.81-2.95,6.22-5.76,12.51-8.46,18.84-3.1,7.27-6.11,14.58-8.99,21.94-2.88,7.36-5.68,14.75-8.28,22.21-2.54,7.28-4.9,14.63-7.13,22.01-2.72,9.03-5.43,18.08-7.74,27.22-2.29,9.08-4.16,18.27-6.05,27.45-1.98,9.63-3.41,19.35-4.18,29.17-.74,9.56-.89,19.1.44,28.64.77,5.51,1.93,10.94,4.24,16.02,3.33,7.31,8.61,12.6,16.4,15.06,6.01,1.9,11.95,1.25,17.84-.75,8.19-2.77,15.11-7.6,21.57-13.18,4.65-4.01,8.89-8.42,12.97-13,1.82-2.04,3.57-4.15,5.44-6.34-3.67-3.73-6.35-7.82-8.19-12.42-1.04-2.6-1.93-5.27-2.73-7.95-1.34-4.46-2.28-9.04-2.72-13.66-.37-3.93-.46-7.89-.52-11.84-.1-6.77.38-13.52,1.4-20.21.92-6.05,1.79-12.12,3.04-18.11,1.64-7.85,3.49-15.68,5.53-23.44,1.83-6.96,3.9-13.87,6.1-20.72,2.44-7.58,5.07-15.11,7.78-22.6,2.38-6.59,4.92-13.13,7.53-19.64,3-7.45,6.11-14.86,9.25-22.25,2.75-6.45,5.6-12.85,8.43-19.27,2.57-5.83,5.19-11.64,7.77-17.47,1.88-4.25,3.71-8.53,5.61-12.78ZM526.53,208.06c-.35-.58-.55-1.04-.86-1.41-2.53-3.04-5.06-6.08-7.63-9.08-.34-.4-.91-.67-1.43-.85-2.17-.74-4.36-1.42-6.55-2.11-9.92-3.07-19.84-6.1-29.74-9.23-1.86-.59-3.5-.58-5.35.07-6.74,2.34-13.56,4.45-20.29,6.79-3.17,1.1-6.51,1.77-9.46,3.52-.58.34-1.34.37-2.02.55-1.47.38-2.93.76-4.4,1.14.02.13.05.26.07.38.36.14.7.31,1.06.4,2.05.47,4.1.89,6.15,1.37,7.75,1.82,15.5,3.66,23.25,5.47,8.74,2.04,17.49,4.01,26.22,6.1,2.77.66,5.46.95,8.3.37,3.25-.65,6.56-1.01,9.84-1.51,4.2-.64,8.4-1.29,12.81-1.97ZM502.3,181.74c-.62-.9-1.32-1.63-2.09-2.28-4.72-4-9.34-8.12-14.22-11.92-5.33-4.14-10.83-8.09-16.4-11.91-6.41-4.4-13.12-8.35-19.99-12.02-6.92-3.7-13.97-7.11-21.19-10.19-7.04-3.01-14.19-5.71-21.44-8.15-9.61-3.24-19.37-5.98-29.25-8.25-9.25-2.13-18.59-3.86-28.01-5.08-6.9-.89-13.83-1.56-20.77-1.73-5.99-.16-12.01-.07-18,.18-6.05.25-12.1.69-18.13,1.31-7.8.8-15.54,2.04-23.23,3.66-9.06,1.91-17.94,4.44-26.64,7.56-2.1.75-4.16,1.54-5.9,3.06-3.99,3.49-8.11,6.82-11.66,10.77-4.18,4.65-8.51,9.17-12.48,14-4.41,5.37-8.64,10.9-12.63,16.59-4.42,6.32-8.56,12.84-12.64,19.38-2.84,4.54-5.47,9.21-8.01,13.93-2.9,5.39-5.76,10.81-8.33,16.36-2.89,6.25-5.6,12.58-8.08,19-2.45,6.35-4.67,12.82-6.71,19.32-2.1,6.69-4.03,13.44-5.7,20.24-1.64,6.68-3.11,13.43-4.21,20.22s-1.87,13.65-2.43,20.51c-.58,7.11-1.07,14.26-1.03,21.4.06,11.29.6,22.57.95,33.86.04,1.13.14,2.26.22,3.38.12.01.23.02.35.03.07-.09.19-.18.21-.29,1.17-6.6,2.77-13.1,4.77-19.49,1.64-5.23,3.29-10.46,5.22-15.59,2.18-5.78,4.52-11.51,7.07-17.14,2.6-5.74,5.44-11.39,8.35-16.98,2.59-4.97,5.32-9.88,8.21-14.68,3.2-5.29,6.52-10.52,10.03-15.61,3.62-5.24,7.37-10.41,11.37-15.37,4.05-5,8.29-9.87,12.77-14.49,4.97-5.12,10.14-10.08,15.53-14.75,4.81-4.16,9.97-7.94,15.12-11.69,7.59-5.53,15.72-10.19,24.24-14.15,1.62-.75,3.33-1.38,4.8-2.36,4.9-3.26,10.08-6,15.36-8.53,4.82-2.32,9.75-4.41,14.67-6.51,7.4-3.15,14.97-5.83,22.68-8.05,9.25-2.66,18.57-5.03,28.03-6.85,9.59-1.85,19.21-3.34,28.98-3.78,6.96-.31,13.92-.22,20.82.64,7.59.95,15.09,2.41,22.29,5.18,4.72,1.82,9.25,3.96,13.46,6.76,1.9,1.26,3.73,2.63,5.63,3.97,10.49-3.51,20.99-7.05,31.52-10.5,1.03-.34,2.34-.4,3.37-.09,5.81,1.71,11.58,3.56,17.35,5.36,1.93.6,3.85,1.19,5.78,1.78ZM432.18,189.15c-.34-.32-.48-.53-.68-.63-2.91-1.44-5.75-3.07-8.76-4.27-10.27-4.09-21.05-5.53-32.02-5.76-10.3-.22-20.5.92-30.63,2.72-9.73,1.73-19.33,4.05-28.86,6.69-2.24.62-4.45,1.32-6.68,1.99.02.1.04.2.06.3.23,0,.47,0,.7,0,5.36-.09,10.71.04,16.06.65,5.4.62,10.71,1.62,15.93,3.13,6.44,1.86,12.65,4.33,18.52,7.61,5.15,2.87,9.87,6.32,14.13,10.39,3.98,3.79,7.51,7.98,10.77,12.4,1.01,1.36,2.07,2.68,3.2,4.14.22-.48.38-.76.47-1.05,1.07-3.4,2.14-6.8,3.19-10.21,2.05-6.64,4.09-13.28,6.14-19.91.5-1.64,1.6-2.75,3.23-3.28,2.55-.81,5.12-1.53,7.67-2.35,2.47-.79,4.9-1.66,7.55-2.56ZM376.45,627.48c.31,0,.61-.11.92-.16-2.21-.69-4.39-1.09-6.54-1.62-7.79-1.93-15.57-3.89-23.36-5.85-10.27-2.57-20.27-6.04-30.24-9.52-7.58-2.65-15.1-5.49-22.53-8.51-5.96-2.42-11.84-5.08-17.61-7.93-5.48-2.71-10.87-5.64-16.13-8.76-6.19-3.67-12.32-7.48-18.26-11.55-5.99-4.11-11.83-8.47-17.5-13.01-4.97-3.98-9.72-8.26-14.37-12.62-4-3.75-7.83-7.69-11.51-11.76-4.84-5.34-9.56-10.79-14.13-16.36-4-4.88-7.83-9.92-11.5-15.05-3.23-4.51-6.17-9.22-9.18-13.87-2.67-4.14-4.48-8.73-6.52-13.2-.26-.57-.47-1.23-.43-1.84.06-1.09-.34-1.98-.79-2.9-1.7-3.42-3.51-6.8-5.06-10.29-2.62-5.9-4.49-12.05-6.16-18.29-1.2-4.48-1.78-9.09-3.13-13.56-1.8-5.96-2.89-12.14-4.05-18.27-.89-4.69-1.48-9.44-2.07-14.18-.54-4.37-.97-8.75-1.32-13.14-.36-4.52-.63-9.04-.86-13.57-.36-7.26-.78-14.53-.92-21.8-.14-7.21-.01-14.42.11-21.63.06-3.64.22-7.28.6-10.89.75-7.16,1.54-14.32,2.57-21.45.79-5.48,1.82-10.94,3.04-16.34,1.4-6.15,3-12.26,4.75-18.32,1.97-6.79,4.07-13.55,6.39-20.23,2.07-5.96,4.48-11.8,6.8-17.66,2.99-7.54,6.48-14.85,10.34-21.96,3.8-7,7.79-13.91,11.77-20.81,4.02-6.97,8.45-13.67,13.23-20.13,5.16-6.97,10.5-13.79,15.76-20.68-.03,0-.18-.05-.27,0-6.26,3.95-12.33,8.18-18.1,12.82-6.01,4.84-11.86,9.9-17.2,15.49-5.33,5.58-10.64,11.19-15.68,17.03-5.62,6.52-10.74,13.45-15.58,20.58-4.81,7.07-9.39,14.29-13.46,21.81-3.7,6.84-7.16,13.81-10.58,20.8-4.2,8.6-7.73,17.5-11.01,26.48-2.89,7.91-5.56,15.89-7.69,24.03-1.77,6.79-3.59,13.57-4.94,20.45-1.48,7.56-2.68,15.21-3.57,22.86-.9,7.79-1.49,15.63-1.81,23.46-.5,12.51-.13,25.02,1.39,37.46.64,5.19,1.23,10.39,2.11,15.54,1.6,9.37,3.65,18.64,6.19,27.81,2.51,9.04,5.52,17.91,8.93,26.64,3.16,8.08,6.68,16,10.61,23.74,3.85,7.57,8.14,14.89,12.83,21.96,4.27,6.44,8.82,12.67,13.7,18.65,4.88,5.99,10.05,11.72,15.5,17.19,5.5,5.51,11.3,10.71,17.37,15.59,5.32,4.28,10.86,8.27,16.63,11.93,6.52,4.14,13.26,7.91,20.28,11.11,6.96,3.17,13.95,6.3,21.09,9.03,7.37,2.82,14.89,5.3,22.43,7.63,7.36,2.28,14.8,4.34,22.29,6.19,7.54,1.86,15.16,3.46,22.79,4.93,6.38,1.24,12.81,2.22,19.24,3.15,4.86.7,9.75,1.22,14.64,1.66,6.35.56,12.71,1.12,19.08,1.38,6.88.28,13.77.21,20.65.27Z"/>
  <path class="cls-2" d="M677.64,617.77c.62-.07,1.23-.16,2.25-.29-.81,1.14-1.37,2.03-2.02,2.86-5.63,7.15-12.12,13.42-19.27,19.06-9.04,7.13-18.81,13.12-28.77,18.84-9.62,5.53-19.37,10.82-29.35,15.64-7,3.38-14.11,6.53-21.24,9.61-7.02,3.03-14.09,5.95-21.22,8.71-7.3,2.83-14.67,5.53-22.08,8.06-6.87,2.35-13.84,4.41-20.77,6.59-.78.24-1.59.4-2.38.59-.07-.1-.13-.2-.19-.3,2.07-1.11,4.13-2.22,6.2-3.33,7.97-4.29,15.76-8.89,23.36-13.83,8.13-5.28,15.95-11.01,23.65-16.89,7.1-5.42,13.93-11.16,20.45-17.28,5.86-5.51,11.58-11.16,16.72-17.34,3.26-3.92,6.28-8.04,9.32-12.13.67-.9,1.39-1.41,2.46-1.53,2.66-.29,5.33-.57,7.99-.86,5.45-.61,10.89-1.23,16.34-1.85,3.61-.41,7.22-.83,10.83-1.22,5.26-.58,10.52-1.15,15.78-1.73,3.99-.45,7.98-.9,11.97-1.36Z"/>
  <path class="cls-2" d="M674.63,285.07c.93,9.22,1.34,18.47.98,27.72-.26,6.82-.69,13.65-1.3,20.44-.48,5.39-1.21,10.77-2.07,16.12-.69,4.27-1.62,8.52-2.67,12.72-1.51,6.06-3.08,12.12-4.93,18.08-1.5,4.87-3.32,9.65-5.21,14.38-1.98,4.97-4.06,9.92-6.39,14.73-2.33,4.82-4.93,9.51-7.57,14.16-3.47,6.1-7.47,11.87-11.5,17.62-7.03,10-14.75,19.41-23.81,27.65-6.98,6.35-14.04,12.63-21.17,18.83-5.2,4.52-10.5,8.93-15.86,13.26-6.85,5.53-13.81,10.92-20.72,16.38-1.32,1.04-2.64,2.1-4.2,2.92,1.42-2.16,2.89-4.28,4.25-6.47,3.38-5.48,6.89-10.9,10.01-16.52,3.5-6.29,6.78-12.72,9.9-19.21,2.68-5.57,5.13-11.26,7.43-16.99,2.66-6.62,5.15-13.32,7.51-20.06,2.14-6.13,4.1-12.33,5.99-18.55,1.8-5.92,3.55-11.85,5.08-17.84,1.98-7.78,3.85-15.6,5.54-23.44,1.33-6.16,2.45-12.38,3.46-18.6.97-6.04,1.78-12.11,2.45-18.18.72-6.53,1.37-13.07,1.74-19.63.39-6.88.58-13.78.57-20.67,0-6.44-.23-12.89-.61-19.33-.64-10.84-1.98-21.6-3.85-32.3-1.52-8.68-3.36-17.28-5.7-25.76-2.81-10.21-6.18-20.24-10.19-30.06-3.36-8.21-7.11-16.24-11.34-24.03-4.27-7.85-9.07-15.36-14.32-22.61-4.76-6.57-9.89-12.84-15.32-18.85-5.94-6.59-12.17-12.92-18.88-18.72-5.45-4.71-10.91-9.44-16.61-13.83-5.65-4.36-11.52-8.46-17.48-12.38-6.01-3.96-12.19-7.69-18.44-11.26-5.42-3.09-10.98-5.97-16.62-8.66-6.5-3.1-13.07-6.06-19.75-8.75-6.61-2.66-13.33-5.12-20.12-7.31-7.76-2.5-15.59-4.83-23.49-6.85-7.78-1.98-15.65-3.61-23.53-5.15-6.24-1.22-12.55-2.16-18.85-3.03-4.48-.62-9.01-.99-13.52-1.32-6.1-.44-12.21-.92-18.33-1.06-6.96-.16-13.93-.18-20.88.14-7.64.35-15.29.94-22.89,1.82-8.73,1.01-17.41,2.4-25.99,4.38-.49.11-1,.11-1.49.17-.02-.13-.05-.25-.07-.38,3.92-1.49,7.82-3.06,11.78-4.44,7.4-2.57,14.82-5.12,22.28-7.52,9.1-2.93,18.29-5.55,27.63-7.64,6.84-1.53,13.68-3.09,20.58-4.35,5.83-1.07,11.71-1.86,17.59-2.55,6.4-.74,12.82-1.42,19.24-1.76,7.52-.39,15.06-.47,22.59-.49,5.29-.02,10.6.12,15.89.48,6.1.42,12.21.97,18.27,1.8,7,.96,13.99,2.12,20.92,3.51,5.81,1.16,11.58,2.59,17.26,4.24,6.67,1.94,13.25,4.18,19.82,6.44,6.58,2.26,12.94,5.07,19.13,8.24,6.97,3.58,13.92,7.22,20.78,11.03,6.75,3.75,13.26,7.9,19.52,12.44,5.58,4.04,11.13,8.12,16.61,12.3,6.15,4.69,11.9,9.85,17.51,15.15,4.45,4.21,8.92,8.41,13.18,12.82,4.83,5,9.58,10.09,14.11,15.37,4.56,5.32,8.9,10.85,13.18,16.41,5.29,6.88,10.06,14.12,14.48,21.6,5.17,8.75,9.73,17.8,13.44,27.25,2.5,6.34,4.75,12.79,6.89,19.26,1.96,5.92,3.76,11.92,5.42,17.94,1.84,6.7,3.5,13.45,5.09,20.21,2.36,10,4.08,20.13,5.53,30.29.86,6.06,1.44,12.16,2.05,18.25Z"/>
  <path class="cls-2" d="M675.36,607.32c-.11.19-.21.38-.32.57-1.44.2-2.87.43-4.31.59-6.15.68-12.3,1.3-18.45,2.01-7.15.82-14.3,1.72-21.45,2.54-5.2.59-10.4,1.1-15.6,1.67-1.78.19-3.55.38-5.31.67-.96.15-1.75-.11-2.5-.64-5.69-3.99-11.38-7.98-17.08-11.96-5.75-4.01-11.51-8.01-17.27-12.01-2.93-2.04-5.87-4.07-8.8-6.11-.14-.1-.2-.31-.4-.61,1.12-.26,2.15-.52,3.19-.74,8.17-1.73,16.33-3.46,24.5-5.17,6.67-1.4,13.35-2.75,20.02-4.15,5.49-1.15,10.97-2.32,16.45-3.55,1.41-.31,2.47-.11,3.64.88,6.86,5.81,13.8,11.54,20.72,17.28,7.36,6.11,14.74,12.21,22.12,18.3.25.2.58.3.86.45Z"/>
  <path class="cls-3" d="M601.56,285.7c.4,6.75.56,13.53.49,20.29-.09,7.72-.34,15.45-.9,23.14-.58,7.82-1.43,15.63-2.53,23.4-1.21,8.58-2.65,17.13-4.35,25.62-1.54,7.69-3.43,15.31-5.41,22.89s-4.08,15.15-6.45,22.62c-2.58,8.14-5.36,16.22-8.36,24.21-2.75,7.34-5.72,14.61-8.95,21.75-3.13,6.91-6.61,13.66-10.15,20.38-4.11,7.79-8.83,15.23-13.78,22.51-6.17,9.08-12.84,17.79-20.4,25.79-5.01,5.3-10.3,10.27-16.15,14.63-5.5,4.09-11.4,7.5-17.53,10.52-5.5,2.71-11.13,5.11-16.92,7.09-6.53,2.24-13.2,3.95-20.02,4.95-4.99.73-9.99,1.39-15,1.82-9.58.81-19.13.75-28.6-1.23-6.43-1.34-12.42-3.83-18.18-6.9-6.82-3.64-13.35-7.76-19.44-12.54-10.74-8.43-19.55-18.47-25.4-30.92-2.12-4.51-3.78-9.21-4.73-14.11-.22-1.12-.34-2.3-.21-3.42.45-4.02-3.6-6.89-7.44-5.27-3.97,1.69-8.16,2.88-12.3,4.14-5.24,1.6-10.51,3.13-15.8,4.55-7.45,2.01-15,3.58-22.67,4.57-9.85,1.26-19.74,1.4-29.63.91-9.45-.46-18.74-2.05-27.86-4.64-7.95-2.26-15.58-5.26-22.75-9.36-7.91-4.53-15.03-10.08-21.31-16.71-7.44-7.88-13.18-16.88-17.53-26.77-4.27-9.7-6.93-19.86-8.4-30.34-1.2-8.62-1.67-17.28-1.33-25.97.33-8.48,1.28-16.9,2.81-25.27,1.8-9.81,4.39-19.4,7.62-28.82,2.83-8.27,6.01-16.41,9.83-24.28,3.31-6.82,6.69-13.62,10.24-20.32,4.1-7.72,8.77-15.11,13.66-22.36,4.75-7.04,9.84-13.82,15.31-20.31,5.52-6.54,11.43-12.71,17.72-18.53,5.58-5.17,11.41-10.02,17.56-14.48,6.98-5.06,14.27-9.62,22-13.47,8.98-4.47,18.28-8.14,27.98-10.72,6.61-1.75,13.3-3.04,20.1-3.82,5.86-.67,11.72-.9,17.59-.61,9.22.45,18.23,2.12,26.9,5.43,5.93,2.27,11.54,5.08,16.65,8.89,4.75,3.53,8.87,7.7,12.48,12.35,2.53,3.28,4.89,6.69,7.22,10.11.75,1.09,1.2,2.39,1.73,3.62.83,1.92,2.18,3.1,4.31,3.31.7.07,1.39.24,2.09.3,2.57.23,4.66-1.14,5.43-3.6,3.54-11.39,7.07-22.77,10.6-34.16.21-.67.47-1.31.78-2.19,23.2,5.38,46.2,10.73,69.41,16.12-1.46,2.47-2.81,4.75-4.16,7.04-4.52,7.7-9.17,15.32-13.52,23.11-4.28,7.68-8.42,15.46-12.32,23.34-3.53,7.14-6.73,14.45-9.92,21.75-3.19,7.3-6.34,14.62-9.22,22.05-3.79,9.74-7.45,19.54-10.88,29.41-2.89,8.31-5.48,16.73-8.01,25.16-3.28,10.93-6.4,21.91-8.7,33.09-1.95,9.49-3.93,18.99-5.56,28.54-1.49,8.74-2.28,17.57-2.61,26.45-.24,6.46-.07,12.89.61,19.3.77,7.11,2.17,14.12,4.97,20.75,2.84,6.71,7.18,12.26,13.14,16.56,5.28,3.82,11.16,5.83,17.55,6.39,4.21.37,8.4-.09,12.51-1.16,8.98-2.33,16.85-6.76,24.13-12.42,6.78-5.27,12.91-11.22,18.48-17.72,4.61-5.37,9.22-10.76,13.5-16.39,3.85-5.07,7.46-10.36,10.78-15.79,4.23-6.9,8.23-13.95,12.01-21.11,4.14-7.83,8.09-15.77,11.82-23.8,3.35-7.22,6.41-14.59,9.41-21.97,2.97-7.33,5.46-14.83,7.56-22.46,2.44-8.86,4.35-17.84,5.75-26.93.95-6.18,1.54-12.4,1.86-18.66.49-9.57.5-19.14.17-28.71-.32-9.26-1.35-18.44-3.2-27.54-1.63-8.03-3.86-15.88-7.13-23.37-2.52-5.78-5.4-11.41-8.33-16.99-3.38-6.44-7.34-12.55-11.63-18.43-3.72-5.1-7.54-10.14-11.61-14.96-4.07-4.82-8.34-9.49-12.78-13.97-4.48-4.53-9.17-8.88-13.99-13.05-4.82-4.17-9.79-8.19-14.92-11.97-5.85-4.31-11.82-8.47-17.96-12.35-6.03-3.8-12.24-7.37-18.57-10.66-6.38-3.32-12.96-6.29-19.55-9.19-5.02-2.2-10.15-4.16-15.31-6-5.22-1.86-10.5-3.54-15.81-5.13-5.18-1.55-10.41-3.02-15.67-4.28-6.32-1.51-12.68-2.86-19.06-4.07-5.44-1.03-10.92-1.85-16.4-2.61-3.41-.47-6.86-.67-10.29-.97-8.21-.72-16.45-.88-24.68-.6-5.42.19-10.83.58-16.23,1.02-10.49.85-20.89,2.35-31.18,4.57-7.48,1.62-14.86,3.57-22.1,6.05-3.01,1.03-6.1,1.86-9.06,3.01-3.15,1.22-6.23,2.62-9.25,4.12-5.71,2.83-11.47,5.58-17,8.74-5.53,3.16-10.87,6.66-16.14,10.24-6.17,4.2-11.99,8.91-17.51,13.93-4.62,4.2-9.14,8.53-13.48,13.03-4.43,4.59-8.73,9.31-12.79,14.22-4.54,5.51-8.91,11.17-13.04,16.99-4.12,5.82-8.03,11.82-11.71,17.93-3.72,6.17-7.22,12.48-10.51,18.88-3.32,6.46-6.43,13.04-9.31,19.71-2.83,6.55-5.42,13.21-7.84,19.93-2.41,6.71-4.66,13.5-6.66,20.35-1.96,6.73-3.7,13.54-5.16,20.39-1.53,7.17-2.72,14.42-3.85,21.66-.72,4.66-1.21,9.37-1.55,14.07-.5,7.06-.93,14.13-1.13,21.21-.23,8.23-.1,16.47.72,24.68.63,6.28,1.16,12.57,2.02,18.82.74,5.42,1.84,10.8,2.85,16.18,1.45,7.71,3.33,15.33,5.62,22.83,1.9,6.21,3.9,12.41,6.18,18.5,2.47,6.62,5.21,13.16,8.03,19.64,2.93,6.72,6.18,13.3,9.98,19.59,3.72,6.16,7.41,12.37,11.51,18.29,4.1,5.91,8.5,11.65,13.11,17.17,4.57,5.48,9.41,10.76,14.43,15.84,4.48,4.53,9.25,8.79,14.1,12.94,4.21,3.6,8.6,7.02,13.12,10.23,4.46,3.18,9.11,6.11,13.8,8.95,6.22,3.77,12.69,7.11,19.34,10.04,6.53,2.88,13.09,5.74,19.78,8.19,8.38,3.07,16.87,5.84,25.39,8.49,9.19,2.86,18.51,5.27,27.93,7.27,6.36,1.36,12.71,2.81,19.12,3.88,7.72,1.3,15.49,2.36,23.27,3.31,6.33.77,12.68,1.35,19.04,1.79,5.28.37,10.59.54,15.88.56,7.97.05,15.95,0,23.91-.21,5.48-.14,10.95-.59,16.42-1,3.74-.28,7.48-.73,11.23-1.08.89-.08,1.79-.02,2.68-.09.88-.07,1.76-.2,2.64-.34,2.39-.39,4.77-.78,7.16-1.19,4.71-.8,9.46-1.44,14.12-2.46,6.97-1.52,13.91-3.19,20.8-5.02,8.68-2.32,17.25-5.04,25.65-8.23,5.9-2.24,11.8-4.48,17.58-7.02,5.72-2.5,11.4-5.15,16.87-8.15,8.77-4.82,17.37-9.96,26-15.02.92-.54,1.46-.54,2.35.08,10.6,7.43,21.25,14.8,31.88,22.2,6.18,4.3,12.35,8.61,18.52,12.92.15.11.26.27.53.58-2.61,3.27-5.13,6.64-7.87,9.8-9.99,11.52-21.28,21.66-33.31,30.98-9.74,7.54-19.7,14.78-30.21,21.22-11.1,6.8-22.5,13.06-34.41,18.36-9.09,4.05-18.43,7.48-28.01,10.22-6.74,1.93-13.5,3.8-20.33,5.36-7.01,1.61-14.09,3-21.18,4.18-6.66,1.11-13.37,1.96-20.09,2.66-6.47.67-12.97,1.12-19.46,1.48-11.61.64-23.24.76-34.86.34-9.37-.34-18.74-1.01-28.08-1.77-12.84-1.03-25.54-3.14-38.13-5.89-12.4-2.71-24.58-6.23-36.6-10.35-12.01-4.12-23.81-8.75-35.4-13.91-9.38-4.18-18.58-8.73-27.6-13.65-8.96-4.9-17.74-10.09-26.28-15.69-7.95-5.21-15.69-10.72-23.23-16.52-8.1-6.23-15.91-12.8-23.43-19.7-6.3-5.79-12.31-11.86-18.11-18.15-5.71-6.2-11.25-12.54-16.33-19.26-4.77-6.31-9.37-12.74-13.89-19.23-4.85-6.97-9.19-14.27-13.22-21.73-2.97-5.49-5.83-11.05-8.53-16.69-2.62-5.46-5.08-11-7.42-16.58-3.35-8-6.38-16.13-8.86-24.45-2.22-7.45-4.42-14.92-6.32-22.46-1.69-6.74-3.13-13.55-4.34-20.39-1.49-8.41-2.74-16.85-3.85-25.32-.77-5.88-1.34-11.79-1.66-17.71-.52-9.62-.88-19.25-1.11-28.88-.21-8.74.05-17.49.71-26.21.59-7.76,1.06-15.54,2.03-23.26,1.07-8.61,2.43-17.19,4.05-25.72,1.58-8.32,3.4-16.62,5.58-24.81,2.23-8.37,4.83-16.66,7.61-24.87,2.43-7.18,5.21-14.25,8.04-21.28,3.29-8.17,7.07-16.11,11.07-23.96,3.89-7.61,7.97-15.13,12.57-22.33,4.19-6.55,8.55-13.01,13.12-19.29,4.05-5.56,8.32-10.99,12.83-16.19,5.06-5.83,10.33-11.48,15.8-16.92,5.47-5.44,11.15-10.69,16.98-15.73,5.64-4.88,11.48-9.54,17.44-14.03,5.8-4.37,11.77-8.53,17.84-12.53,5.8-3.82,11.77-7.4,17.75-10.94,7.52-4.46,15.29-8.46,23.26-12.05,7.09-3.19,14.31-6.08,21.52-9,7.87-3.18,15.97-5.71,24.13-8,7.61-2.14,15.28-4.03,23.09-5.3,6.66-1.08,13.33-2.17,20.03-2.95,6.01-.7,12.07-1.21,18.12-1.39,8.48-.25,16.99-.3,25.47-.11,6.11.14,12.22.72,18.32,1.29,10.99,1.02,21.87,2.78,32.69,4.98,11.13,2.26,22.11,5.08,32.98,8.36,11.36,3.43,22.49,7.5,33.39,12.18,8.68,3.73,17.14,7.9,25.41,12.45,8.16,4.49,16.13,9.3,23.84,14.53,7.13,4.83,14.12,9.87,20.65,15.5,5.8,4.99,11.52,10.09,17.09,15.33,5.58,5.24,10.69,10.96,15.62,16.83,4.48,5.33,8.67,10.87,12.58,16.63,4.34,6.39,8.28,13.02,11.85,19.87,3.64,6.96,6.89,14.1,9.78,21.39,3.12,7.89,5.99,15.88,8.12,24.1,1.97,7.59,3.89,15.2,5.47,22.88,1.25,6.04,2.09,12.19,2.88,18.31.77,6.07,1.46,12.17,1.82,18.27ZM379.13,333.59c-.34-4.96-.53-9.94-1.06-14.87-.6-5.58-1.76-11.07-3.29-16.49-2.4-8.52-5.65-16.63-10.65-24-5.83-8.61-13.02-15.66-22.53-20.13-4.9-2.3-10.05-3.61-15.46-3.85-3.83-.17-7.63.1-11.43.73-5.89.97-11.53,2.7-16.96,5.13-5.07,2.27-9.83,5.1-14.49,8.14-8.32,5.41-16.06,11.52-23.08,18.53-8.83,8.81-16.73,18.37-23.38,28.97-4.79,7.64-9.04,15.54-12.61,23.8-4.21,9.73-7.48,19.77-10.02,30.07-2.74,11.12-4.51,22.36-4.78,33.82-.18,7.73.29,15.41,2.12,22.98,2.13,8.81,5.28,17.16,10.4,24.7,3.35,4.94,7.33,9.31,11.76,13.29,4.3,3.85,9.03,7.05,14.16,9.71,5.29,2.75,10.8,4.87,16.58,6.26,6.42,1.55,12.93,2.05,19.53,1.77,5.85-.25,11.53-1.34,17.05-3.17,8.94-2.97,17.32-7.07,24.72-13.04,5.88-4.75,11.28-9.98,16.15-15.73,3.87-4.56,7.43-9.38,11.12-14.09.2-.25.38-.52.51-.81,2.1-4.79,4.36-9.51,6.23-14.38,2.89-7.56,5.62-15.18,8.22-22.84,2.61-7.67,4.7-15.5,6.13-23.48,1.16-6.46,2.22-12.94,3.1-19.44.97-7.14,1.69-14.32,1.96-21.56Z"/>
  <path class="cls-2" d="M544.2,234.44c.47.78.58,1.45.19,2.32-1.9,4.25-3.73,8.52-5.61,12.78-2.58,5.83-5.2,11.64-7.77,17.47-2.83,6.42-5.68,12.82-8.43,19.27-3.14,7.39-6.25,14.8-9.25,22.25-2.61,6.51-5.15,13.05-7.53,19.64-2.71,7.49-5.34,15.02-7.78,22.6-2.21,6.85-4.28,13.76-6.1,20.72-2.04,7.76-3.89,15.59-5.53,23.44-1.25,5.99-2.12,12.06-3.04,18.11-1.03,6.69-1.5,13.44-1.4,20.21.06,3.95.14,7.91.52,11.84.44,4.63,1.38,9.2,2.72,13.66.81,2.68,1.69,5.35,2.73,7.95,1.84,4.6,4.52,8.68,8.19,12.42-1.87,2.19-3.62,4.3-5.44,6.34-4.08,4.57-8.32,8.99-12.97,13-6.46,5.58-13.38,10.41-21.57,13.18-5.89,2-11.83,2.65-17.84.75-7.78-2.46-13.07-7.75-16.4-15.06-2.31-5.09-3.47-10.51-4.24-16.02-1.33-9.53-1.19-19.07-.44-28.64.76-9.82,2.2-19.53,4.18-29.17,1.89-9.18,3.76-18.36,6.05-27.45,2.3-9.14,5.02-18.19,7.74-27.22,2.22-7.38,4.59-14.73,7.13-22.01,2.6-7.46,5.4-14.86,8.28-22.21,2.88-7.36,5.89-14.67,8.99-21.94,2.7-6.33,5.51-12.62,8.46-18.84,3.01-6.33,6.13-12.62,9.42-18.81,3.29-6.19,6.8-12.27,10.31-18.34,3.58-6.18,7.27-12.29,10.92-18.43,1.04-1.75,2.13-3.48,3.17-5.24.49-.83,1.13-1.23,2.12-1.38,7.25-1.07,14.48-2.23,21.72-3.33,2.51-.38,5.03-.71,7.75-1.09,1.18,1.71,2.48,3.44,3.6,5.27,2.43,3.97,4.76,8,7.17,11.98Z"/>
  <path class="cls-2" d="M525.68,206.65c.31.38.51.84.86,1.41-4.41.68-8.6,1.33-12.81,1.97-3.28.5-6.59.85-9.84,1.51-2.84.58-5.54.29-8.3-.37-8.73-2.08-17.48-4.06-26.22-6.1-7.76-1.81-15.5-3.65-23.25-5.47-2.04-.48-4.1-.9-6.15-1.37-.36-.09-.71-.26-1.06-.4-.02-.13-.05-.25-.07-.38,1.46-.38,2.93-.76,4.4-1.14.67-.18,1.44-.21,2.02-.55,2.95-1.75,6.28-2.41,9.46-3.52,6.73-2.35,13.55-4.46,20.29-6.79,1.85-.64,3.49-.66,5.35-.07,9.89,3.13,19.82,6.16,29.74,9.23,2.19.68,4.37,1.37,6.55,2.11.52.17,1.08.45,1.43.85,2.57,3,5.1,6.04,7.63,9.08Z"/>
  <path class="cls-2" d="M431.5,188.52c.2.1.34.31.68.63-2.65.9-5.08,1.76-7.55,2.56-2.54.82-5.12,1.54-7.67,2.35-1.62.52-2.72,1.64-3.23,3.28-2.05,6.63-4.09,13.27-6.14,19.91-1.06,3.41-2.12,6.81-3.19,10.21-.09.29-.25.57-.47,1.05-1.13-1.46-2.19-2.77-3.2-4.14-3.26-4.42-6.79-8.61-10.77-12.4-4.27-4.07-8.98-7.52-14.13-10.39-5.87-3.28-12.08-5.74-18.52-7.61-5.22-1.5-10.53-2.51-15.93-3.13-5.34-.61-10.69-.74-16.06-.65-.23,0-.47,0-.7,0-.02-.1-.04-.2-.06-.3,2.22-.67,4.44-1.37,6.68-1.99,9.52-2.64,19.13-4.96,28.86-6.69,10.12-1.8,20.32-2.94,30.63-2.72,10.97.23,21.75,1.68,32.02,5.76,3.01,1.2,5.85,2.83,8.76,4.27Z"/>
  <path class="cls-1" d="M378.06,318.72c.53,4.94.72,9.91,1.06,14.87-.27,7.24-.99,14.42-1.96,21.56-.88,6.5-1.94,12.98-3.1,19.44-1.43,7.98-3.52,15.81-6.13,23.48-2.61,7.66-5.33,15.28-8.22,22.84-1.87,4.88-4.13,9.6-6.23,14.38-.13.29-.31.56-.51.81-3.69,4.71-7.25,9.53-11.12,14.09-4.87,5.74-10.27,10.98-16.15,15.73-7.4,5.97-15.77,10.06-24.72,13.04-5.51,1.84-11.2,2.92-17.05,3.17-6.61.29-13.12-.22-19.53-1.77-5.78-1.4-11.3-3.52-16.58-6.26-5.13-2.66-9.86-5.86-14.16-9.71-4.43-3.97-8.41-8.34-11.76-13.29-5.12-7.55-8.27-15.89-10.4-24.7-1.83-7.57-2.3-15.25-2.12-22.98.27-11.45,2.04-22.7,4.78-33.82,2.54-10.3,5.81-20.34,10.02-30.07,3.57-8.26,7.83-16.16,12.61-23.8,6.64-10.6,14.55-20.16,23.38-28.97,7.02-7,14.76-13.12,23.08-18.53,4.66-3.03,9.42-5.87,14.49-8.14,5.43-2.43,11.07-4.15,16.96-5.13,3.8-.63,7.6-.9,11.43-.73,5.41.24,10.57,1.55,15.46,3.85,9.51,4.47,16.7,11.52,22.53,20.13,5,7.37,8.25,15.48,10.65,24,1.53,5.42,2.68,10.91,3.29,16.49ZM368.68,339.02c.4-6.71.2-13.4-.65-20.06-.87-6.78-2.48-13.4-4.71-19.87-3.32-9.64-8.38-18.16-15.88-25.13-3.92-3.64-8.39-6.42-13.51-8.17-1.43,1.13-2.89,2.17-4.21,3.37-4.44,4.03-8.84,8.1-13.22,12.2-6.72,6.29-12.96,13.03-18.43,20.43-7.02,9.51-13.39,19.41-18.51,30.09-4.17,8.71-7.88,17.57-10.26,26.94-2.52,9.9-3.82,19.91-2.84,30.15.9,9.54,3.36,18.55,8.45,26.75,3.33,5.35,7.62,9.74,13.08,12.93,10.21,5.96,21.33,7.51,32.89,6.48,8.79-.78,16.78-4.11,24.36-8.51,1.03-.59,1.8-1.35,2.27-2.48,1.08-2.66,2.32-5.25,3.35-7.92,3.66-9.52,7.12-19.11,9.9-28.94,2.37-8.36,4.11-16.85,5.38-25.43,1.12-7.57,2.09-15.16,2.55-22.82ZM335.24,442.56c-.08-.1-.16-.2-.23-.29-1.58.46-3.14.98-4.73,1.37-5.67,1.41-11.42,1.89-17.26,1.73-9.04-.25-17.7-1.98-25.92-5.89-7.24-3.44-13.32-8.26-18.1-14.65-5.47-7.31-8.98-15.55-10.92-24.43-1.83-8.34-2.37-16.77-1.68-25.3.68-8.44,2.29-16.69,4.92-24.71,1.75-5.32,3.69-10.6,5.97-15.72,2.62-5.87,5.53-11.63,8.63-17.26,2.58-4.68,5.58-9.13,8.5-13.62,3.93-6.05,8.33-11.76,13.07-17.2,5.71-6.54,12.01-12.52,18.35-18.44,1.21-1.13,2.39-2.29,3.58-3.44-5.88.34-11.33,1.81-16.56,4.09-9.55,4.17-18.02,10.07-26.11,16.53-5.9,4.71-11.19,10.06-16.25,15.66-7.31,8.08-13.59,16.88-19,26.32-6.84,11.96-12.04,24.61-15.8,37.85-3.19,11.25-5.42,22.68-6.09,34.39-.65,11.2.19,22.18,4.08,32.81,1.96,5.36,4.4,10.47,7.87,15.03,6.01,7.9,13.35,14.2,22.32,18.54,6.95,3.36,14.22,5.58,21.96,6.1,5.11.34,10.19.19,15.24-.83,4.83-.97,9.48-2.52,13.97-4.54,5.37-2.41,10.44-5.3,15.01-9.07,4.1-3.38,7.85-7.11,11.52-10.92,1.28-1.32,2.45-2.75,3.67-4.12Z"/>
  <path class="cls-2" d="M377.37,627.32c-.31.05-.61.17-.92.16-6.88-.07-13.78,0-20.65-.27-6.37-.26-12.73-.82-19.08-1.38-4.89-.43-9.78-.96-14.64-1.66-6.43-.92-12.87-1.91-19.24-3.15-7.63-1.48-15.24-3.07-22.79-4.93-7.48-1.85-14.92-3.91-22.29-6.19-7.54-2.33-15.06-4.81-22.43-7.63-7.14-2.73-14.13-5.86-21.09-9.03-7.02-3.2-13.76-6.98-20.28-11.11-5.77-3.66-11.31-7.65-16.63-11.93-6.07-4.88-11.86-10.08-17.37-15.59-5.46-5.47-10.62-11.2-15.5-17.19-4.88-5.99-9.43-12.22-13.7-18.65-4.69-7.07-8.98-14.39-12.83-21.96-3.94-7.73-7.45-15.66-10.61-23.74-3.42-8.73-6.43-17.6-8.93-26.64-2.54-9.17-4.59-18.44-6.19-27.81-.88-5.15-1.47-10.35-2.11-15.54-1.53-12.45-1.9-24.95-1.39-37.46.32-7.83.91-15.67,1.81-23.46.88-7.66,2.09-15.3,3.57-22.86,1.35-6.88,3.17-13.66,4.94-20.45,2.12-8.15,4.8-16.13,7.69-24.03,3.28-8.99,6.81-17.88,11.01-26.48,3.41-6.99,6.88-13.96,10.58-20.8,4.07-7.52,8.65-14.74,13.46-21.81,4.84-7.13,9.96-14.06,15.58-20.58,5.04-5.84,10.36-11.45,15.68-17.03,5.34-5.59,11.18-10.65,17.2-15.49,5.77-4.64,11.84-8.87,18.1-12.82.09-.05.23,0,.27,0-5.26,6.89-10.6,13.72-15.76,20.68-4.78,6.46-9.22,13.17-13.23,20.13-3.98,6.9-7.97,13.8-11.77,20.81-3.86,7.12-7.35,14.43-10.34,21.96-2.33,5.87-4.73,11.71-6.8,17.66-2.32,6.68-4.42,13.44-6.39,20.23-1.76,6.06-3.36,12.17-4.75,18.32-1.22,5.4-2.25,10.86-3.04,16.34-1.03,7.13-1.82,14.29-2.57,21.45-.38,3.61-.54,7.26-.6,10.89-.13,7.21-.25,14.42-.11,21.63.14,7.27.56,14.53.92,21.8.22,4.52.49,9.05.86,13.57.36,4.38.78,8.77,1.32,13.14.59,4.74,1.18,9.49,2.07,14.18,1.16,6.13,2.26,12.31,4.05,18.27,1.35,4.48,1.93,9.08,3.13,13.56,1.67,6.23,3.54,12.39,6.16,18.29,1.55,3.49,3.35,6.87,5.06,10.29.45.92.85,1.82.79,2.9-.04.61.18,1.27.43,1.84,2.03,4.47,3.84,9.05,6.52,13.2,3.01,4.66,5.96,9.36,9.18,13.87,3.67,5.13,7.5,10.16,11.5,15.05,4.56,5.57,9.29,11.02,14.13,16.36,3.68,4.06,7.52,8,11.51,11.76,4.65,4.36,9.4,8.64,14.37,12.62,5.67,4.54,11.51,8.9,17.5,13.01,5.94,4.07,12.07,7.88,18.26,11.55,5.26,3.12,10.65,6.05,16.13,8.76,5.77,2.85,11.65,5.51,17.61,7.93,7.43,3.02,14.96,5.85,22.53,8.51,9.97,3.49,19.97,6.95,30.24,9.52,7.78,1.96,15.57,3.92,23.36,5.85,2.15.53,4.34.93,6.54,1.62Z"/>
  <path class="cls-2" d="M335.01,442.27c.07.09.15.19.23.29-1.22,1.38-2.39,2.8-3.67,4.12-3.67,3.81-7.42,7.54-11.52,10.92-4.57,3.77-9.63,6.66-15.01,9.07-4.49,2.02-9.14,3.56-13.97,4.54-5.04,1.02-10.13,1.17-15.24.83-7.74-.52-15.01-2.74-21.96-6.1-8.96-4.33-16.31-10.64-22.32-18.54-3.47-4.56-5.91-9.67-7.87-15.03-3.89-10.62-4.72-21.6-4.08-32.81.67-11.71,2.9-23.13,6.09-34.39,3.75-13.24,8.95-25.89,15.8-37.85,5.41-9.44,11.7-18.24,19-26.32,5.06-5.59,10.35-10.95,16.25-15.66,8.09-6.46,16.56-12.36,26.11-16.53,5.22-2.28,10.68-3.76,16.56-4.09-1.19,1.15-2.38,2.31-3.58,3.44-6.34,5.92-12.64,11.9-18.35,18.44-4.74,5.44-9.13,11.15-13.07,17.2-2.92,4.49-5.92,8.94-8.5,13.62-3.11,5.63-6.01,11.39-8.63,17.26-2.28,5.11-4.22,10.4-5.97,15.72-2.64,8.02-4.25,16.27-4.92,24.71-.68,8.53-.14,16.96,1.68,25.3,1.94,8.88,5.45,17.13,10.92,24.43,4.79,6.38,10.86,11.21,18.1,14.65,8.22,3.91,16.88,5.64,25.92,5.89,5.84.16,11.59-.32,17.26-1.73,1.59-.4,3.15-.91,4.73-1.37Z"/>
</svg>