<svg width="36" height="38" viewBox="0 0 36 38" fill="none" xmlns="http://www.w3.org/2000/svg">
<g clip-path="url(#clip0_4100_240903)">
<path d="M35.4899 31.2112C35.6438 31.3409 35.6773 31.5154 35.6485 31.7028C35.6402 31.7579 35.5985 31.8088 35.5687 31.8593C35.3952 32.1476 35.1852 32.407 34.9556 32.652C34.5875 33.0448 34.169 33.3758 33.7283 33.6816C33.3747 33.9272 33.0056 34.147 32.6308 34.3575C32.3101 34.5372 31.9894 34.7168 31.6636 34.8867C31.2188 35.1189 30.7694 35.3428 30.305 35.5358C29.8474 35.7263 29.3934 35.925 28.9326 36.1072C28.5548 36.2565 28.1708 36.3909 27.7857 36.5227C27.4382 36.6416 27.0877 36.7523 26.7361 36.8583C26.4787 36.936 26.2182 37.0035 25.9577 37.0714C25.6401 37.1543 25.3225 37.2362 25.0033 37.3118C24.4896 37.4343 23.9774 37.5641 23.4595 37.666C23.0575 37.7448 22.6482 37.7875 22.2415 37.8436C22.0495 37.8699 21.8575 37.893 21.6645 37.911C21.5636 37.9203 21.4606 37.9167 21.3592 37.9177C21.3396 37.9177 21.318 37.9152 21.3016 37.9059C21.2274 37.8637 21.1487 37.8781 21.0704 37.8853C20.8712 37.9028 20.672 37.926 20.4722 37.9394C20.1448 37.9605 19.8169 37.98 19.4885 37.9913C19.2126 38.0006 18.9361 38.0011 18.6602 37.9986C18.3287 37.9949 17.9962 37.9898 17.6651 37.9738C17.3408 37.9579 17.016 37.9342 16.6932 37.9013C16.3278 37.8637 15.9623 37.8215 15.5993 37.7638C15.2302 37.7051 14.8622 37.6356 14.4977 37.5522C14.0982 37.4606 13.7013 37.3566 13.3086 37.2398C12.9565 37.1353 12.61 37.0117 12.2646 36.8871C11.9624 36.778 11.6623 36.6617 11.3658 36.5386C11.0657 36.4141 10.7686 36.2828 10.4747 36.1453C10.1833 36.0089 9.89455 35.8668 9.61039 35.717C9.32315 35.5657 9.0395 35.4061 8.75895 35.2424C8.51803 35.1019 8.28072 34.9547 8.04752 34.8023C7.77314 34.6226 7.50083 34.4383 7.23468 34.2468C6.96854 34.0553 6.70652 33.8571 6.45016 33.6518C6.19895 33.4505 5.95237 33.2435 5.71403 33.0278C5.43656 32.7766 5.16424 32.5192 4.90119 32.2536C4.67211 32.023 4.45436 31.781 4.23918 31.5375C4.05026 31.3234 3.86648 31.1046 3.69094 30.8797C3.49533 30.6284 3.30537 30.3726 3.12366 30.1111C2.93833 29.8444 2.76074 29.5716 2.59189 29.2947C2.42098 29.0146 2.25625 28.7305 2.10491 28.4396C1.91289 28.07 1.7286 27.6958 1.5577 27.3158C1.40841 26.9843 1.27302 26.6451 1.14948 26.3028C1.01152 25.9203 0.884879 25.5326 0.771113 25.1424C0.665068 24.7775 0.576012 24.4068 0.490558 24.0367C0.418489 23.7237 0.357745 23.4076 0.30009 23.0916C0.257878 22.8594 0.224932 22.6252 0.195075 22.3909C0.153892 22.0687 0.115284 21.7459 0.0828527 21.4232C0.0596877 21.1946 0.0437295 20.965 0.0339487 20.7354C0.0179905 20.3612 0.000488009 19.9869 -2.67705e-05 19.6127C-0.00105633 19.1695 0.00615058 18.7257 0.0267418 18.283C0.0447591 17.8964 0.0797641 17.5098 0.120432 17.1248C0.153892 16.8051 0.201252 16.4864 0.252215 16.1693C0.302149 15.8553 0.355686 15.5408 0.424152 15.2304C0.514238 14.8237 0.608957 14.4175 0.722724 14.017C0.847815 13.5753 0.986291 13.1368 1.13918 12.7043C1.27457 12.3208 1.43106 11.945 1.59064 11.5708C1.71882 11.2691 1.8573 10.9711 2.00555 10.6782C2.17028 10.3539 2.34531 10.0337 2.52806 9.71862C2.69433 9.4324 2.87141 9.15184 3.05416 8.87541C3.20602 8.64582 3.36715 8.42137 3.53496 8.20259C3.73676 7.93954 3.94421 7.6806 4.16042 7.42939C4.37045 7.1859 4.58975 6.94962 4.81522 6.72003C5.04481 6.4858 5.28213 6.25775 5.52562 6.03743C5.76602 5.81916 6.01517 5.61016 6.26639 5.40373C6.52223 5.19319 6.78322 4.98831 7.04628 4.78703C7.26248 4.62127 7.48384 4.46169 7.70622 4.30468C7.97133 4.11679 8.23748 3.92992 8.50825 3.75078C8.78211 3.57009 9.05803 3.39198 9.34065 3.2257C9.65981 3.03781 9.98515 2.85866 10.3126 2.6857C10.5998 2.53435 10.8927 2.3933 11.1856 2.2538C11.4343 2.1354 11.685 2.02112 11.9382 1.91095C12.1997 1.79719 12.4633 1.68754 12.7289 1.58304C13.0677 1.45023 13.4079 1.31947 13.7508 1.19747C14.0591 1.08782 14.3716 0.987955 14.6841 0.889117C14.9497 0.805208 15.2169 0.723873 15.4856 0.651804C15.7991 0.56738 16.1146 0.490678 16.4307 0.417579C16.6577 0.365071 16.8863 0.319256 17.1159 0.278589C17.364 0.234317 17.6137 0.194679 17.8633 0.160704C18.1233 0.125184 18.3843 0.0948122 18.6458 0.0701028C19.1951 0.0160509 19.7469 -0.00145156 20.2993 9.27777e-05C20.7631 0.00112234 21.2259 0.020684 21.6871 0.0644402C21.9708 0.0912088 22.2539 0.129817 22.5355 0.174603C22.8464 0.224022 23.1568 0.278589 23.4641 0.34551C23.7493 0.407798 24.0325 0.480897 24.3125 0.563262C24.6203 0.653348 24.9277 0.749097 25.2283 0.860804C25.5382 0.97663 25.8455 1.10275 26.1441 1.24534C26.5199 1.42449 26.8885 1.61959 27.2545 1.81829C27.6179 2.01545 27.9721 2.2296 28.3092 2.47052C28.6454 2.71144 28.9857 2.94721 29.311 3.20254C29.5998 3.42904 29.8752 3.67356 30.148 3.92065C30.4157 4.16312 30.6772 4.41278 30.931 4.66966C31.1642 4.90491 31.3892 5.14943 31.6074 5.39859C31.8221 5.64259 32.0306 5.89226 32.2298 6.14913C32.429 6.40549 32.6195 6.66958 32.8022 6.93778C32.9593 7.1684 33.107 7.4052 33.2455 7.64663C33.3875 7.89424 33.5234 8.14596 33.6444 8.40387C33.786 8.70656 33.9162 9.01543 34.0377 9.32687C34.1396 9.58941 34.2266 9.85812 34.3121 10.1268C34.4084 10.43 34.5015 10.7343 34.5854 11.0411C34.673 11.3602 34.7497 11.683 34.8279 12.0048C34.9355 12.4454 35.0168 12.8907 35.0837 13.3391C35.1373 13.703 35.1877 14.0675 35.2232 14.4335C35.2583 14.7892 35.2788 15.147 35.2948 15.5042C35.3133 15.9212 35.2948 16.3387 35.2639 16.7546C35.232 17.1773 35.2037 17.6004 35.1254 18.0174C35.0668 18.3298 34.9993 18.6413 34.9236 18.9502C34.8547 19.2302 34.7759 19.5082 34.6889 19.7831C34.6179 20.008 34.5345 20.2294 34.4464 20.4487C34.3414 20.7102 34.2344 20.9717 34.1129 21.226C33.9888 21.4865 33.8534 21.7418 33.7113 21.993C33.5935 22.2015 33.4637 22.4033 33.3314 22.603C33.1971 22.8048 33.054 23.0015 32.9109 23.1981C32.7986 23.352 32.6869 23.5065 32.5639 23.6516C32.4007 23.8442 32.2334 24.0346 32.0563 24.2143C31.6553 24.6215 31.2239 24.9973 30.7905 25.3695C30.4816 25.6346 30.1733 25.9007 29.8577 26.1571C29.5092 26.4407 29.1504 26.7125 28.7988 26.9931C28.5193 27.2165 28.2444 27.4461 27.9669 27.6716C27.6611 27.9197 27.3626 28.1776 27.0455 28.4108C26.8406 28.5611 26.6079 28.6738 26.3886 28.8046C26.3351 28.8365 26.2851 28.8741 26.2352 28.9111C25.9171 29.1464 25.5732 29.3364 25.217 29.5067C24.8854 29.6658 24.5452 29.8048 24.1936 29.9139C23.9048 30.0035 23.6114 30.0709 23.3133 30.1229C23.006 30.1765 22.6966 30.2125 22.3857 30.2362C21.9754 30.2671 21.5646 30.2666 21.1559 30.2161C20.8552 30.179 20.5618 30.1085 20.2792 29.9968C19.7752 29.7976 19.3155 29.5212 18.8754 29.2087C18.566 28.9894 18.2824 28.7413 18.0245 28.4643C17.7913 28.2141 17.5869 27.9418 17.4119 27.6468C17.2127 27.3112 17.0685 26.954 16.9645 26.5792C16.9568 26.5514 16.9517 26.5226 16.9424 26.4829C16.72 26.5483 16.509 26.6091 16.2994 26.6729C15.7177 26.8495 15.1304 27.0008 14.5265 27.0801C13.9901 27.1506 13.4517 27.1599 12.9132 27.1352C12.4834 27.1156 12.0577 27.0528 11.6376 26.9534C11.2273 26.8561 10.8294 26.7254 10.4469 26.5504C10.223 26.4479 10.0063 26.3311 9.80189 26.1931C9.78439 26.1813 9.7638 26.1751 9.7324 26.1802C9.80035 26.2667 9.86521 26.3563 9.93728 26.4392C10.2008 26.745 10.4618 27.0538 10.7336 27.3519C11.0302 27.6772 11.3498 27.9799 11.6855 28.2656C11.9887 28.523 12.3053 28.7634 12.6291 28.9935C12.9904 29.2504 13.3611 29.4934 13.7492 29.708C14.0159 29.8552 14.282 30.0061 14.5559 30.1399C14.8416 30.2794 15.1335 30.4071 15.4279 30.5286C15.728 30.6526 16.0323 30.7669 16.3375 30.8766C16.6274 30.9811 16.9192 31.082 17.2142 31.1705C17.6888 31.3126 18.164 31.4526 18.6432 31.5756C19.0303 31.675 19.4242 31.7512 19.8159 31.8315C20.3497 31.9401 20.8841 32.0451 21.4194 32.146C21.5013 32.1615 21.5903 32.1553 21.6743 32.1445C22.1726 32.0796 22.6678 31.9942 23.1542 31.8701C23.5831 31.761 24.0088 31.6369 24.4299 31.501C24.8041 31.38 25.1722 31.2395 25.5392 31.0974C25.9099 30.9543 26.2666 30.7798 26.6197 30.5976C27.1191 30.3402 27.5963 30.0452 28.0755 29.7528C28.1147 29.7286 28.1528 29.7013 28.195 29.6843C28.2392 29.6663 28.2917 29.6432 28.335 29.6509C28.4271 29.6674 28.5116 29.6426 28.597 29.6251C29.1334 29.5145 29.6698 29.4017 30.2057 29.2885C30.6484 29.1948 31.0911 29.099 31.5343 29.0048C31.8231 28.9436 32.1119 28.8823 32.4007 28.8226C32.5351 28.7948 32.6504 28.8535 32.7466 28.9317C33.1389 29.2504 33.526 29.5757 33.9147 29.8995C34.2601 30.1873 34.6045 30.4771 34.9504 30.7649C35.1296 30.9142 35.3113 31.0598 35.4899 31.2096V31.2112ZM34.9993 31.7867C34.9468 31.7934 34.9154 31.798 34.8835 31.8016C34.6781 31.8248 34.4732 31.8485 34.2673 31.8716C33.9965 31.9015 33.7258 31.9308 33.455 31.9607C33.2691 31.9813 33.0833 32.0024 32.8975 32.0235C32.6169 32.0554 32.3369 32.0873 32.0563 32.1187C31.9194 32.1342 31.7819 32.1486 31.645 32.163C31.5899 32.1692 31.5529 32.1954 31.5184 32.2418C31.3619 32.4528 31.2064 32.6644 31.0386 32.8662C30.774 33.1843 30.4796 33.4752 30.1779 33.7588C29.8423 34.0739 29.4907 34.3694 29.1252 34.6484C28.7288 34.9511 28.3262 35.246 27.9077 35.5178C27.5165 35.7716 27.1155 36.0089 26.7052 36.2298C26.5986 36.2869 26.4926 36.344 26.386 36.4012C26.3891 36.4063 26.3927 36.4115 26.3958 36.4166C26.4365 36.4068 26.4782 36.3991 26.5183 36.3863C26.8751 36.274 27.2339 36.168 27.5875 36.047C27.969 35.9168 28.3484 35.7778 28.7242 35.6321C29.0912 35.49 29.4551 35.3392 29.8165 35.1837C30.1836 35.0252 30.5501 34.863 30.9099 34.689C31.4237 34.4409 31.9256 34.1681 32.4208 33.8839C32.9335 33.5895 33.4365 33.2811 33.9018 32.9141C34.2699 32.6237 34.604 32.301 34.8938 31.9329C34.9273 31.8902 34.9566 31.8444 34.9978 31.7857L34.9993 31.7867ZM34.779 16.1019C34.7975 15.6252 34.7764 15.149 34.7285 14.6749C34.6971 14.3614 34.6673 14.0474 34.623 13.7354C34.5484 13.2119 34.4598 12.691 34.3383 12.1762C34.256 11.8282 34.1705 11.4807 34.0763 11.1358C33.9914 10.8259 33.8987 10.5176 33.7973 10.2123C33.6871 9.87923 33.5708 9.54771 33.4426 9.22082C33.2516 8.73436 33.0169 8.26797 32.7508 7.81805C32.5232 7.43299 32.2777 7.06029 32.0054 6.70613C31.7856 6.41991 31.5621 6.13524 31.3269 5.86137C31.0937 5.59008 30.8497 5.32755 30.6005 5.07016C30.3812 4.84365 30.1511 4.62745 29.9221 4.41021C29.6333 4.13686 29.3373 3.87175 29.0207 3.63032C28.7386 3.41514 28.4529 3.20511 28.1656 2.99714C27.8434 2.76394 27.5082 2.5498 27.1608 2.35675C26.8076 2.16062 26.4499 1.97324 26.0911 1.78895C25.7729 1.62525 25.445 1.48111 25.1063 1.36477C24.7681 1.24843 24.4294 1.13312 24.086 1.03326C23.7931 0.948317 23.4961 0.874703 23.1975 0.814989C22.8407 0.743434 22.4809 0.68372 22.1206 0.634301C21.8086 0.591574 21.4941 0.563262 21.1801 0.541641C20.9083 0.523109 20.6349 0.515902 20.3621 0.516931C19.9745 0.517961 19.5863 0.522594 19.1992 0.542156C18.8682 0.559143 18.5377 0.594663 18.2088 0.632757C17.9056 0.667762 17.6029 0.708944 17.3033 0.764026C16.9486 0.828888 16.596 0.909194 16.2438 0.987955C15.763 1.09554 15.29 1.23042 14.8215 1.38125C14.4375 1.50479 14.0555 1.63606 13.6746 1.76836C13.4707 1.8394 13.2705 1.92022 13.0682 1.99692C13.0692 2.00361 13.0707 2.00979 13.0718 2.01648C13.0975 2.01391 13.1238 2.01391 13.1485 2.00773C13.5896 1.90581 14.037 1.83425 14.4864 1.78226C14.8776 1.73696 15.2714 1.70659 15.6647 1.68857C16.0225 1.6721 16.3813 1.67313 16.7396 1.68136C17.0541 1.68857 17.3686 1.71276 17.6832 1.73593C17.9158 1.75292 18.1485 1.77196 18.3791 1.80388C18.7035 1.84815 19.0283 1.89706 19.3495 1.95986C19.7552 2.03913 20.1608 2.12253 20.5608 2.22497C20.9675 2.32896 21.3705 2.44838 21.77 2.57759C22.1195 2.69033 22.4655 2.81645 22.8057 2.9539C23.1496 3.09237 23.4878 3.24475 23.8224 3.40433C24.1128 3.54281 24.399 3.69106 24.678 3.85013C24.9997 4.03391 25.3173 4.22592 25.6272 4.42977C25.9346 4.63156 26.2362 4.84262 26.5271 5.06707C26.821 5.29306 27.1016 5.53655 27.3821 5.77901C27.7281 6.07758 28.0483 6.40344 28.354 6.74268C28.6336 7.05206 28.8982 7.37483 29.1427 7.71304C29.4124 8.08574 29.66 8.47285 29.8798 8.87695C30.0976 9.27797 30.2911 9.69082 30.4636 10.114C30.67 10.6195 30.843 11.1358 30.9882 11.6614C31.1086 12.0979 31.2033 12.5406 31.2816 12.9875C31.3784 13.5383 31.4473 14.0922 31.4798 14.6502C31.4993 14.9812 31.5107 15.3132 31.5112 15.6453C31.5112 16 31.5019 16.3552 31.4818 16.7093C31.4628 17.0465 31.4293 17.3837 31.3923 17.7198C31.3578 18.0328 31.3161 18.3453 31.2661 18.6557C31.2147 18.9764 31.157 19.2961 31.088 19.6132C31.001 20.0173 30.9048 20.4193 30.8028 20.8198C30.7241 21.1282 30.634 21.434 30.5413 21.7382C30.444 22.0579 30.3431 22.3776 30.233 22.6931C30.1115 23.0396 29.9833 23.3845 29.8464 23.7258C29.728 24.0213 29.6019 24.3142 29.4639 24.6004C29.3033 24.9345 29.1344 25.2655 28.9543 25.5893C28.7931 25.8786 28.613 26.1576 28.439 26.4397C28.3695 26.5529 28.2933 26.6621 28.2202 26.7728C28.3005 26.73 28.3684 26.676 28.4364 26.6224C28.7921 26.3419 29.1504 26.0639 29.503 25.7792C29.7789 25.5568 30.0518 25.3293 30.3195 25.0966C30.686 24.7775 31.0494 24.4542 31.4092 24.1273C31.8756 23.7031 32.273 23.2192 32.6349 22.7039C32.8429 22.4084 33.0488 22.1114 33.2269 21.7969C33.3628 21.557 33.4967 21.3161 33.6166 21.068C33.7366 20.8198 33.8431 20.5655 33.9456 20.3097C34.0429 20.0662 34.1366 19.8201 34.2138 19.5694C34.3085 19.2626 34.3893 18.9507 34.4676 18.6387C34.5216 18.4225 34.5695 18.2042 34.605 17.9839C34.6493 17.7085 34.6868 17.4316 34.7116 17.1541C34.743 16.804 34.7651 16.453 34.7785 16.1019H34.779ZM34.7497 31.293C34.7553 31.2832 34.761 31.2735 34.7661 31.2637C34.7512 31.256 34.7342 31.2508 34.7219 31.2405C34.3419 30.927 33.9626 30.613 33.5832 30.2985C33.2269 30.003 32.8697 29.7085 32.5165 29.4089C32.4563 29.358 32.4017 29.3472 32.3292 29.3636C32.0476 29.4264 31.765 29.4867 31.4823 29.5464C31.139 29.6185 30.7951 29.6879 30.4518 29.76C30.0312 29.848 29.6106 29.9371 29.1905 30.0262C29.137 30.0375 29.084 30.0509 29.0263 30.0643C29.0366 30.0802 29.0397 30.091 29.0469 30.0957C29.1978 30.2012 29.3491 30.3052 29.4999 30.4102C29.7964 30.6161 30.093 30.822 30.389 31.0284C30.6824 31.2333 30.9753 31.4387 31.2682 31.6441C31.3073 31.6714 31.3475 31.6848 31.3969 31.6771C31.4875 31.6626 31.5791 31.6529 31.6702 31.6426C31.9379 31.6137 32.2056 31.587 32.4733 31.5566C32.8414 31.5144 33.2094 31.4681 33.5775 31.4258C33.8936 31.3898 34.2107 31.3574 34.5273 31.3224C34.6014 31.3141 34.6755 31.3023 34.7491 31.292L34.7497 31.293ZM30.9923 15.7518C30.9959 15.4038 30.9876 15.0548 30.9671 14.7073C30.9485 14.3928 30.9135 14.0788 30.8734 13.7668C30.8327 13.4513 30.7895 13.1352 30.7251 12.8243C30.6438 12.4289 30.5444 12.0372 30.4435 11.6465C30.3339 11.2233 30.1861 10.812 30.0255 10.4058C29.8768 10.0306 29.7094 9.66302 29.5221 9.30473C29.3378 8.95211 29.1355 8.61081 28.9121 8.28187C28.7108 7.98535 28.4951 7.70017 28.2645 7.42579C28.0107 7.12361 27.7476 6.82916 27.4604 6.55941C27.1731 6.28967 26.8787 6.02765 26.5806 5.77026C26.2445 5.48044 25.8846 5.22099 25.5176 4.97235C25.1207 4.70312 24.7104 4.45551 24.2904 4.22437C23.8641 3.99015 23.4286 3.77497 22.9823 3.58347C22.4212 3.34256 21.8482 3.13304 21.2635 2.95647C20.7039 2.78762 20.1387 2.64246 19.5657 2.52612C19.0087 2.41286 18.4486 2.32226 17.8829 2.26976C17.5689 2.24093 17.2544 2.21056 16.9398 2.20335C16.5028 2.19305 16.0652 2.19563 15.6287 2.20901C15.3172 2.21828 15.0053 2.24453 14.6959 2.28057C14.351 2.32072 14.0076 2.37683 13.6648 2.43243C13.2628 2.4978 12.8679 2.59561 12.4762 2.70526C12.0556 2.82314 11.6391 2.95338 11.234 3.11708C10.8629 3.26688 10.4912 3.41617 10.1262 3.58038C9.71592 3.76519 9.31594 3.9711 8.92882 4.20069C8.62099 4.38344 8.31366 4.56722 8.01509 4.76386C7.70262 4.96977 7.3953 5.18392 7.09672 5.40888C6.78992 5.64002 6.48928 5.8799 6.19895 6.13112C5.89883 6.39108 5.60592 6.66083 5.32485 6.94087C5.04327 7.22091 4.77147 7.51227 4.5115 7.81187C4.27934 8.07956 4.05953 8.35908 3.85104 8.6453C3.61527 8.96858 3.39083 9.30113 3.17565 9.63831C2.93885 10.009 2.7283 10.3956 2.52857 10.7878C2.32214 11.1919 2.12756 11.6007 1.95871 12.0212C1.81303 12.3836 1.66992 12.7471 1.54483 13.1167C1.40223 13.5393 1.26788 13.9655 1.15308 14.3969C1.04086 14.8185 0.947168 15.2453 0.865833 15.6741C0.782438 16.1127 0.712428 16.5549 0.657347 16.9981C0.607928 17.3955 0.583733 17.796 0.552846 18.1955C0.518356 18.6449 0.505487 19.0948 0.516297 19.5447C0.527622 20.0405 0.546154 20.5362 0.573438 21.0314C0.589911 21.3362 0.618738 21.6409 0.658891 21.9431C0.716546 22.3786 0.780379 22.8136 0.857081 23.2465C0.91937 23.5986 0.993498 23.9492 1.0805 24.2961C1.17779 24.6843 1.29104 25.0688 1.40584 25.4523C1.5335 25.8806 1.68948 26.2992 1.86193 26.711C1.98239 26.9982 2.10903 27.2834 2.2439 27.5645C2.38289 27.8543 2.53011 28.1405 2.683 28.4236C2.89046 28.8082 3.11387 29.184 3.36354 29.5423C3.59622 29.8758 3.83302 30.2074 4.07857 30.5322C4.34008 30.8781 4.62527 31.2045 4.91921 31.5237C5.21778 31.8474 5.52768 32.1604 5.85147 32.458C6.23859 32.8137 6.64063 33.1514 7.0576 33.4721C7.44574 33.7707 7.84418 34.0543 8.25343 34.3225C8.69254 34.6108 9.14503 34.878 9.60627 35.1302C10.0706 35.3835 10.5442 35.6177 11.0271 35.8329C11.6237 36.0985 12.2311 36.3368 12.8494 36.5489C13.4676 36.761 14.0946 36.9422 14.7335 37.0817C15.3811 37.2233 16.0348 37.3319 16.6963 37.3849C17.1777 37.4241 17.6595 37.4585 18.1418 37.476C18.7395 37.4972 19.3387 37.4915 19.9364 37.4585C20.271 37.44 20.6056 37.4168 20.9381 37.3824C21.2835 37.3463 21.6295 37.3026 21.9723 37.2454C22.3373 37.1847 22.7018 37.1131 23.0626 37.0303C23.4142 36.9494 23.7622 36.8532 24.1092 36.7543C24.6023 36.6133 25.0831 36.4367 25.5511 36.2282C26.1636 35.9554 26.751 35.6331 27.3224 35.2831C27.8629 34.9516 28.3762 34.5789 28.8776 34.1907C29.4968 33.7109 30.078 33.189 30.5923 32.5959C30.7339 32.4328 30.8631 32.2598 30.9974 32.0915C30.9835 32.0755 30.9779 32.0673 30.9701 32.0616C30.6525 31.8397 30.3349 31.6179 30.0168 31.3965C29.4696 31.0156 28.9218 30.6367 28.3757 30.2537C28.3298 30.2218 28.302 30.2218 28.2547 30.2496C27.8099 30.51 27.3677 30.7752 26.9163 31.0228C26.6347 31.1772 26.3423 31.3131 26.0478 31.4423C25.7503 31.5731 25.4466 31.6879 25.1428 31.8037C24.7099 31.9679 24.2693 32.1084 23.8224 32.2274C23.4677 32.3221 23.1105 32.4075 22.7517 32.4858C22.5118 32.5383 22.2673 32.5712 22.0248 32.6124C21.9023 32.633 21.7793 32.6536 21.6562 32.6737C21.6115 32.6809 21.5661 32.6876 21.5203 32.6912C21.4745 32.6948 21.4282 32.6912 21.3824 32.6958C21.1898 32.7138 20.9973 32.737 20.8043 32.7514C20.5227 32.7725 20.2406 32.7952 19.959 32.8029C19.5487 32.8137 19.1384 32.8163 18.7282 32.8137C18.4559 32.8121 18.1825 32.8034 17.9107 32.7849C17.5833 32.7622 17.2564 32.7324 16.9306 32.6927C16.5301 32.6438 16.1306 32.5887 15.7327 32.5223C15.4027 32.4667 15.0758 32.3926 14.7484 32.3226C14.2635 32.2191 13.7837 32.0956 13.3106 31.9483C12.872 31.8119 12.435 31.6693 12.0036 31.5113C11.6587 31.3852 11.3215 31.2379 10.9854 31.0897C10.643 30.9389 10.31 30.7674 9.98979 30.5729C9.74835 30.4267 9.50898 30.2758 9.27939 30.1121C9.04671 29.9464 8.82072 29.7708 8.604 29.5855C8.35485 29.3724 8.10929 29.1526 7.87816 28.9194C7.61974 28.6579 7.37059 28.3861 7.13533 28.104C6.89802 27.8193 6.671 27.5243 6.46046 27.2201C6.2494 26.9153 6.05944 26.5962 5.86795 26.2786C5.67233 25.9553 5.50503 25.616 5.3542 25.2701C5.20851 24.9365 5.06798 24.5999 4.94083 24.2591C4.82346 23.9461 4.7205 23.6269 4.62269 23.3067C4.50429 22.9207 4.40752 22.5284 4.33339 22.1315C4.28139 21.8545 4.22477 21.5776 4.18668 21.2986C4.1424 20.9768 4.11512 20.653 4.08269 20.3298C4.04048 19.9071 4.03379 19.483 4.04563 19.0593C4.05592 18.6948 4.07754 18.3309 4.1038 17.9674C4.1213 17.7255 4.14601 17.483 4.18359 17.2431C4.24176 16.8699 4.30302 16.4972 4.38178 16.1281C4.45693 15.7755 4.54651 15.4249 4.6474 15.0785C4.74984 14.7259 4.86567 14.3763 4.99025 14.0309C5.11482 13.6855 5.24764 13.3421 5.39383 13.005C5.54209 12.6616 5.70219 12.3229 5.87309 11.9903C6.04246 11.6604 6.22263 11.3361 6.41413 11.0184C6.60408 10.7039 6.80484 10.395 7.01693 10.0954C7.22954 9.79583 7.4545 9.50395 7.68821 9.22082C7.89669 8.96807 8.11856 8.72458 8.34661 8.48881C8.57002 8.25716 8.8027 8.03426 9.04053 7.81805C9.32469 7.55963 9.62378 7.31717 9.94191 7.10096C10.2127 6.91667 10.4881 6.7365 10.7728 6.57383C11.0574 6.41116 11.354 6.26959 11.6479 6.12391C11.8034 6.04721 11.9624 5.97462 12.1241 5.91182C12.2764 5.85262 12.4355 5.8099 12.5905 5.75687C12.9632 5.62921 13.3431 5.52883 13.7281 5.44543C14.2583 5.33064 14.7932 5.25393 15.3332 5.21018C15.6112 5.18753 15.8902 5.16745 16.1687 5.15767C16.5923 5.14274 17.0165 5.15149 17.4392 5.18856C17.6157 5.204 17.7933 5.21429 17.9689 5.23849C18.251 5.27761 18.5331 5.31983 18.8131 5.37285C19.1415 5.43514 19.4689 5.50463 19.7943 5.58236C20.0651 5.64671 20.3338 5.7229 20.6009 5.80269C20.8743 5.88454 21.1466 5.97102 21.4148 6.06677C21.6804 6.16149 21.9445 6.26239 22.2029 6.37564C22.5422 6.52492 22.8804 6.67781 23.2093 6.84872C23.5352 7.01808 23.8549 7.20186 24.1653 7.39748C24.4813 7.59669 24.7892 7.81136 25.0898 8.03323C25.3539 8.22781 25.6097 8.43476 25.8579 8.64942C26.106 8.86408 26.3474 9.08853 26.578 9.32121C26.8066 9.55183 27.0264 9.79223 27.2359 10.0404C27.4449 10.2885 27.6421 10.5479 27.8336 10.8105C28.0539 11.1132 28.2578 11.4277 28.4323 11.7592C28.5831 12.0464 28.7314 12.3368 28.8611 12.6338C29.0294 13.0194 29.1442 13.4235 29.2281 13.8369C29.3234 14.3053 29.3764 14.7779 29.3929 15.2546C29.4098 15.7472 29.4093 16.2398 29.3841 16.7325C29.3676 17.0547 29.3378 17.3749 29.2884 17.6931C29.2163 18.1605 29.118 18.6228 28.9924 19.0794C28.8843 19.4721 28.7561 19.8582 28.6032 20.2356C28.4493 20.6155 28.2917 20.9949 28.1188 21.3665C27.9268 21.7799 27.7234 22.1886 27.5103 22.5917C27.3157 22.9598 27.1093 23.3227 26.8921 23.6784C26.7206 23.9579 26.5353 24.2297 26.3371 24.4912C26.1168 24.7811 25.8795 25.0585 25.6422 25.335C25.3554 25.6701 25.0399 25.9759 24.6909 26.2472C24.3166 26.5385 23.911 26.7666 23.4487 26.8865C23.2366 26.9416 23.0214 26.9653 22.8047 26.9462C22.4758 26.9174 22.1731 26.8139 21.9013 26.6173C21.5945 26.3954 21.371 26.1102 21.2248 25.7648C21.0807 25.4235 21.0086 25.0627 20.969 24.6966C20.9335 24.3667 20.9247 24.0357 20.9376 23.7031C20.9551 23.2465 20.9953 22.7914 21.072 22.3415C21.1559 21.8499 21.2578 21.3609 21.3582 20.8723C21.4766 20.2968 21.6372 19.7316 21.806 19.1689C21.9363 18.735 22.0696 18.3015 22.2184 17.8738C22.3949 17.3657 22.5834 16.8612 22.7785 16.3598C22.9267 15.9778 23.0889 15.601 23.2531 15.2247C23.4173 14.8489 23.582 14.4726 23.7637 14.1051C23.9645 13.6994 24.1771 13.2989 24.398 12.9036C24.6219 12.5025 24.8613 12.1098 25.0939 11.7139C25.1634 11.596 25.2329 11.4786 25.3081 11.3515C24.1133 11.074 22.9293 10.7991 21.735 10.5217C21.7185 10.567 21.7051 10.6004 21.6948 10.6344C21.5131 11.2207 21.3314 11.8066 21.1492 12.3929C21.1101 12.519 21.002 12.5895 20.8697 12.5782C20.8336 12.5751 20.7981 12.5664 20.7621 12.5628C20.6529 12.5514 20.5829 12.4912 20.5402 12.3924C20.5134 12.3291 20.4897 12.2621 20.4511 12.206C20.3312 12.03 20.2097 11.8544 20.0795 11.6856C19.8936 11.4457 19.6815 11.2316 19.437 11.0498C19.174 10.8542 18.8852 10.7091 18.5799 10.5922C18.1336 10.4218 17.6698 10.3364 17.1952 10.3127C16.893 10.2977 16.5913 10.3096 16.2897 10.3441C15.9396 10.3842 15.5952 10.4506 15.255 10.5407C14.7556 10.6735 14.2769 10.8625 13.8146 11.0926C13.4167 11.2908 13.0414 11.5255 12.6821 11.786C12.365 12.0156 12.0654 12.2657 11.7781 12.5314C11.4543 12.831 11.1501 13.1486 10.8659 13.4853C10.5844 13.8194 10.3218 14.1684 10.0778 14.5308C9.82609 14.904 9.58568 15.2844 9.37462 15.6818C9.19188 16.0267 9.01788 16.3763 8.84749 16.7279C8.65084 17.133 8.48714 17.552 8.34146 17.9777C8.17519 18.4627 8.04186 18.9563 7.9492 19.4613C7.87044 19.8922 7.82153 20.3256 7.80455 20.7622C7.78704 21.2095 7.81124 21.6553 7.87301 22.0991C7.94868 22.6386 8.08562 23.1616 8.30543 23.6609C8.52936 24.17 8.82484 24.6333 9.20784 25.039C9.5306 25.3808 9.89712 25.666 10.3048 25.8992C10.6739 26.1102 11.0667 26.2647 11.476 26.381C11.9454 26.5148 12.4231 26.5962 12.9101 26.6199C13.4192 26.6451 13.9284 26.6374 14.4354 26.573C14.8303 26.5226 15.2189 26.4412 15.6024 26.3378C15.8747 26.2641 16.146 26.1859 16.4158 26.1035C16.6289 26.0387 16.8446 25.9774 17.049 25.8904C17.2466 25.807 17.4551 25.9548 17.432 26.1617C17.4253 26.2194 17.432 26.2801 17.4428 26.3378C17.4917 26.5905 17.5771 26.8319 17.6863 27.0641C17.9874 27.705 18.4409 28.2219 18.9938 28.6558C19.3073 28.9019 19.6434 29.114 19.9945 29.3013C20.291 29.4594 20.5994 29.5876 20.9304 29.6565C21.4179 29.7585 21.9095 29.7616 22.4027 29.7199C22.6606 29.6977 22.918 29.6638 23.1748 29.6262C23.5259 29.5747 23.8693 29.4862 24.2054 29.3714C24.504 29.2689 24.7938 29.1454 25.0764 29.0064C25.392 28.8509 25.6957 28.6754 25.9788 28.4648C26.28 28.2404 26.5523 27.9845 26.8102 27.7117C27.1994 27.2999 27.5422 26.8515 27.8604 26.3841C28.1152 26.0093 28.3581 25.6263 28.5697 25.2253C28.752 24.8799 28.9311 24.5319 29.0922 24.1762C29.259 23.8086 29.4114 23.4344 29.553 23.0566C29.7074 22.6452 29.8505 22.2288 29.9833 21.8103C30.1053 21.4257 30.2134 21.0366 30.3153 20.6458C30.4173 20.2551 30.5146 19.8629 30.5938 19.4675C30.6813 19.0305 30.755 18.5903 30.8178 18.1486C30.8744 17.7492 30.9181 17.3471 30.948 16.9441C30.9773 16.5482 30.9902 16.1498 30.9943 15.7529L30.9923 15.7518ZM28.8848 15.8218C28.8904 15.3946 28.8714 14.9678 28.8199 14.5431C28.7664 14.1025 28.6809 13.668 28.5394 13.2459C28.4858 13.0858 28.422 12.9288 28.3566 12.7538C28.3355 12.7826 28.3237 12.7934 28.3175 12.8068C28.1883 13.094 28.0591 13.3813 27.9314 13.669C27.8022 13.9599 27.6745 14.2513 27.5469 14.5431C27.4197 14.835 27.29 15.1259 27.1685 15.4198C27.0316 15.7503 26.8988 16.0823 26.7695 16.4159C26.6403 16.7495 26.5096 17.0825 26.3932 17.4202C26.2486 17.8393 26.1153 18.2619 25.983 18.6845C25.8321 19.1669 25.707 19.6564 25.601 20.1506C25.4852 20.6932 25.3843 21.2384 25.3426 21.7923C25.3024 22.3251 25.304 22.8558 25.445 23.3767C25.5042 23.5955 25.5644 23.8143 25.6834 24.0104C25.7338 24.0938 25.7817 24.1803 25.8656 24.2493C25.8826 24.2333 25.8934 24.2251 25.9011 24.2148C26.1894 23.839 26.4452 23.4421 26.6764 23.0293C26.8509 22.7173 27.0259 22.4048 27.1901 22.0872C27.3548 21.7701 27.5155 21.4499 27.6622 21.1246C27.8295 20.7539 27.988 20.3787 28.1358 19.9998C28.2511 19.7038 28.3499 19.4006 28.4451 19.0974C28.5615 18.7278 28.6433 18.3494 28.7149 17.9685C28.7823 17.6097 28.8369 17.2493 28.8554 16.8849C28.8734 16.5307 28.8801 16.1755 28.8848 15.8208V15.8218ZM28.0241 12.188C28.0441 12.1437 28.0385 12.1087 28.0143 12.0686C27.8902 11.8637 27.7703 11.6562 27.6452 11.4519C27.5875 11.3572 27.5201 11.2686 27.4599 11.1806C27.3198 11.2002 27.1901 11.2166 27.0609 11.2367C26.6882 11.2933 26.316 11.353 25.9428 11.4081C25.8918 11.4158 25.8589 11.4364 25.8337 11.4792C25.7801 11.5698 25.7245 11.6588 25.6705 11.7489C25.4826 12.065 25.2926 12.3795 25.1083 12.6976C24.9277 13.0101 24.747 13.3231 24.5776 13.6418C24.4082 13.9604 24.2476 14.2842 24.0927 14.6101C23.9408 14.9302 23.7962 15.254 23.6572 15.5799C23.4976 15.9541 23.3427 16.3304 23.1944 16.7093C23.0461 17.0882 22.902 17.4686 22.7682 17.8526C22.6374 18.2274 22.5159 18.6058 22.4011 18.9857C22.2611 19.4505 22.1216 19.9164 22.0027 20.3869C21.8848 20.8543 21.7885 21.3274 21.6912 21.8C21.5893 22.2957 21.5157 22.7961 21.4761 23.3016C21.438 23.7937 21.4302 24.2848 21.4987 24.7759C21.5384 25.0596 21.5981 25.3391 21.717 25.6006C21.8884 25.9769 22.1602 26.2492 22.5612 26.3759C22.8706 26.4737 23.1764 26.4402 23.4796 26.3372C23.9012 26.1947 24.2574 25.946 24.59 25.6588C24.8293 25.4523 25.0476 25.2253 25.2576 24.9896C25.3513 24.8845 25.4414 24.7759 25.5377 24.6632C25.3487 24.4712 25.2108 24.2606 25.1161 24.0238C25.0625 23.89 25.0167 23.7525 24.9755 23.6146C24.9066 23.385 24.8582 23.1492 24.8355 22.9114C24.8165 22.7091 24.8118 22.5052 24.8087 22.3019C24.8036 21.9534 24.8283 21.6059 24.8808 21.2615C24.9282 20.9501 24.973 20.6376 25.0373 20.3293C25.1217 19.9252 25.217 19.5221 25.322 19.1226C25.4162 18.7643 25.5227 18.4086 25.636 18.056C25.7616 17.6658 25.897 17.2782 26.0365 16.8926C26.159 16.5533 26.2898 16.2167 26.4241 15.8816C26.5786 15.498 26.7387 15.1166 26.9003 14.7362C27.0419 14.4041 27.1886 14.0747 27.3343 13.7442C27.4666 13.4441 27.6014 13.145 27.7342 12.8449C27.831 12.6261 27.9252 12.4058 28.023 12.187L28.0241 12.188ZM27.1047 10.7106C27.0866 10.6807 27.0763 10.6571 27.0604 10.638C26.9301 10.4815 26.7999 10.325 26.6676 10.1706C26.6501 10.15 26.6208 10.1361 26.594 10.1268C26.4823 10.0887 26.3696 10.0537 26.2568 10.0182C25.7462 9.86018 25.2355 9.7042 24.7259 9.54308C24.6301 9.5127 24.5457 9.51322 24.4505 9.54668C24.1035 9.66714 23.7524 9.77576 23.406 9.89622C23.2428 9.95284 23.0709 9.98733 22.919 10.0774C22.8891 10.0949 22.85 10.0965 22.815 10.1057C22.7393 10.1253 22.6642 10.1449 22.5885 10.1644C22.5895 10.1711 22.5911 10.1778 22.5921 10.184C22.6106 10.1912 22.6281 10.1999 22.6467 10.2046C22.7522 10.2288 22.8577 10.2504 22.9633 10.2751C23.3622 10.3688 23.7612 10.4635 24.1601 10.5567C24.61 10.6617 25.0605 10.7631 25.5099 10.8707C25.6525 10.9047 25.7909 10.9196 25.9371 10.8897C26.1044 10.8563 26.2748 10.8377 26.4437 10.812C26.6599 10.7791 26.8761 10.7456 27.1031 10.7106H27.1047ZM25.8574 9.3557C25.8254 9.30937 25.7894 9.27179 25.7498 9.23833C25.5068 9.03242 25.269 8.82033 25.0177 8.62471C24.7434 8.41159 24.4602 8.20825 24.1735 8.01161C23.8435 7.7851 23.4981 7.58177 23.1445 7.39284C22.7882 7.20237 22.4253 7.02683 22.0536 6.86828C21.6912 6.71333 21.3232 6.57434 20.95 6.44874C20.4553 6.28195 19.9528 6.1409 19.4442 6.02404C18.9681 5.91439 18.4873 5.82534 18.0023 5.76254C17.6471 5.71672 17.2904 5.68223 16.9331 5.67348C16.6248 5.66524 16.3149 5.66987 16.0065 5.68274C15.6951 5.69561 15.3836 5.71826 15.0732 5.75018C14.6717 5.79136 14.2733 5.8552 13.8774 5.93859C13.411 6.03691 12.9539 6.16715 12.506 6.32776C12.3979 6.36637 12.2919 6.40704 12.2023 6.48529C11.9969 6.66494 11.7848 6.83637 11.6021 7.0397C11.3869 7.27908 11.164 7.51176 10.9596 7.76039C10.7326 8.03683 10.5149 8.3215 10.3095 8.61441C10.0819 8.93975 9.86881 9.27539 9.65878 9.61206C9.51258 9.84577 9.3772 10.0862 9.24644 10.3291C9.09716 10.6066 8.94993 10.8856 8.81763 11.1713C8.66886 11.4931 8.52936 11.8189 8.40169 12.1494C8.27557 12.4763 8.16129 12.8094 8.05627 13.144C7.94817 13.4883 7.84882 13.8358 7.76285 14.1859C7.67843 14.5297 7.60275 14.8772 7.54613 15.2268C7.4895 15.5763 7.44986 15.9294 7.42104 16.2826C7.39118 16.6486 7.36595 17.0166 7.36801 17.3842C7.3711 17.9654 7.3989 18.5461 7.41692 19.1272C7.41898 19.1854 7.42412 19.2436 7.42824 19.3012C7.43442 19.3018 7.44008 19.3023 7.44626 19.3028C7.44986 19.2981 7.45604 19.2935 7.45707 19.2879C7.5173 18.9481 7.59966 18.6135 7.70262 18.2845C7.78704 18.0153 7.87198 17.7461 7.97133 17.482C8.08356 17.1845 8.20401 16.8895 8.33528 16.5997C8.46913 16.3042 8.61532 16.0133 8.76513 15.7256C8.89845 15.4697 9.03899 15.217 9.18776 14.9699C9.35249 14.6976 9.52339 14.4283 9.70408 14.1663C9.89043 13.8966 10.0835 13.6304 10.2894 13.3751C10.4979 13.1177 10.7161 12.867 10.9468 12.6292C11.2026 12.3656 11.4687 12.1103 11.7462 11.8699C11.9938 11.6557 12.2594 11.4611 12.5246 11.2681C12.9153 10.9834 13.3338 10.7435 13.7724 10.5397C13.8558 10.5011 13.9438 10.4687 14.0195 10.4182C14.2717 10.2504 14.5384 10.1093 14.8102 9.9791C15.0583 9.85967 15.3121 9.75208 15.5654 9.64397C15.9463 9.48182 16.336 9.34386 16.7329 9.22958C17.2091 9.09264 17.6888 8.97064 18.1758 8.87695C18.6695 8.78172 19.1647 8.70502 19.6676 8.68237C20.0259 8.66641 20.3842 8.67104 20.7394 8.71531C21.1301 8.76422 21.5162 8.83937 21.8869 8.98197C22.1298 9.07566 22.363 9.18582 22.5798 9.32996C22.6776 9.39482 22.7718 9.46535 22.8696 9.53433C23.4096 9.35364 23.9501 9.17141 24.4922 8.99381C24.5452 8.9763 24.6126 8.97322 24.6656 8.98917C24.9647 9.0772 25.2618 9.17243 25.5588 9.2651C25.6581 9.29598 25.757 9.32635 25.8563 9.35673L25.8574 9.3557ZM22.2477 9.73715C22.2302 9.72068 22.223 9.70987 22.2127 9.70472C22.0629 9.63059 21.9167 9.54668 21.7618 9.48491C21.2331 9.27436 20.6782 9.20023 20.1134 9.18839C19.5832 9.17707 19.0581 9.23575 18.5367 9.32841C18.0358 9.41747 17.5416 9.5369 17.051 9.6728C16.9357 9.70472 16.8219 9.74075 16.7071 9.77524C16.7082 9.78039 16.7092 9.78554 16.7102 9.79069C16.7221 9.79069 16.7344 9.79069 16.7463 9.79069C17.0222 9.78605 17.2976 9.79274 17.573 9.82415C17.851 9.85606 18.1243 9.90754 18.393 9.98527C18.7246 10.081 19.0442 10.2082 19.3464 10.377C19.6115 10.5248 19.8545 10.7024 20.0738 10.9119C20.2787 11.107 20.4604 11.3227 20.6282 11.5502C20.6802 11.6202 20.7348 11.6882 20.793 11.7633C20.8043 11.7386 20.8125 11.7242 20.8171 11.7093C20.8722 11.5342 20.9273 11.3592 20.9814 11.1837C21.0869 10.8419 21.1919 10.5001 21.2974 10.1588C21.3232 10.0743 21.3798 10.0172 21.4637 9.98991C21.595 9.94821 21.7273 9.91114 21.8585 9.86893C21.9857 9.82826 22.1108 9.78348 22.2472 9.73715H22.2477ZM19.3789 32.3015C19.3948 32.3015 19.4103 32.2958 19.4262 32.2932C19.3124 32.2577 19.2002 32.2371 19.0895 32.2099C18.6885 32.1105 18.288 32.0096 17.887 31.9087C17.3583 31.7764 16.8436 31.5978 16.3303 31.4186C15.9401 31.2822 15.553 31.136 15.1705 30.9806C14.8637 30.856 14.561 30.7191 14.264 30.5723C13.9819 30.4328 13.7044 30.282 13.4337 30.1214C13.115 29.9325 12.7995 29.7363 12.4937 29.5268C12.1853 29.3152 11.8847 29.0908 11.5928 28.8571C11.337 28.6522 11.0924 28.4319 10.8531 28.2074C10.6472 28.0144 10.45 27.8116 10.2606 27.6021C10.0114 27.3272 9.76843 27.0466 9.53318 26.7599C9.32726 26.5087 9.1301 26.2492 8.94118 25.9851C8.77491 25.753 8.62356 25.5105 8.46861 25.2711C8.33117 25.058 8.23799 24.8217 8.13298 24.5916C8.11959 24.5623 8.10878 24.5283 8.11084 24.4969C8.11393 24.4408 8.09334 24.395 8.07017 24.3476C7.98266 24.1716 7.88948 23.9976 7.80969 23.8179C7.67482 23.5142 7.57856 23.1976 7.49259 22.8764C7.43082 22.6458 7.40096 22.4084 7.33146 22.1783C7.2388 21.8715 7.18269 21.5534 7.12298 21.2378C7.07716 20.9964 7.04679 20.7519 7.01642 20.5079C6.98862 20.2829 6.96648 20.0574 6.94847 19.8315C6.92994 19.5988 6.91604 19.3661 6.9042 19.1329C6.88566 18.7592 6.86404 18.3849 6.85684 18.0107C6.84963 17.6395 6.85632 17.2684 6.8625 16.8972C6.86559 16.7098 6.87382 16.5225 6.89339 16.3366C6.93199 15.968 6.97266 15.5995 7.02568 15.2324C7.06635 14.9503 7.11937 14.6693 7.18218 14.3913C7.25425 14.0747 7.33661 13.7601 7.4267 13.4482C7.52811 13.0987 7.63621 12.7507 7.75564 12.4068C7.8622 12.1 7.98626 11.7994 8.10569 11.4977C8.25961 11.1096 8.43927 10.7332 8.63797 10.3672C8.83359 10.0069 9.03899 9.65118 9.24387 9.29598C9.45081 8.93718 9.67886 8.59228 9.92492 8.25973C10.1905 7.90093 10.4654 7.54985 10.7362 7.19517C10.7347 7.19517 10.7269 7.19259 10.7223 7.19517C10.4001 7.3985 10.0876 7.61626 9.79057 7.85511C9.48118 8.10427 9.18004 8.36475 8.90514 8.65251C8.63077 8.93975 8.35742 9.22855 8.09797 9.52918C7.80866 9.86481 7.5451 10.2216 7.29594 10.5886C7.04833 10.9525 6.81257 11.3242 6.60305 11.7113C6.41258 12.0634 6.23447 12.4222 6.05841 12.7821C5.84221 13.2248 5.66049 13.6829 5.49164 14.1452C5.34287 14.5524 5.20542 14.9632 5.09578 15.3822C5.00466 15.7318 4.91097 16.0808 4.84148 16.4349C4.76529 16.8241 4.70351 17.2179 4.6577 17.6117C4.61137 18.0127 4.581 18.4163 4.56452 18.8194C4.53878 19.4634 4.55783 20.1074 4.63608 20.7478C4.66902 21.0149 4.6994 21.2826 4.7447 21.5477C4.82706 22.0301 4.93259 22.5073 5.06335 22.9793C5.19255 23.4447 5.3475 23.9013 5.52304 24.3507C5.68571 24.7667 5.86692 25.1744 6.06922 25.5728C6.26741 25.9625 6.48825 26.3393 6.72969 26.7033C6.9495 27.0348 7.18372 27.3555 7.43493 27.6633C7.68615 27.9717 7.95229 28.2666 8.23284 28.5482C8.51597 28.8319 8.81454 29.0996 9.12702 29.3508C9.40088 29.5711 9.68606 29.7765 9.98309 29.9649C10.3187 30.178 10.6657 30.3721 11.0271 30.5368C11.3854 30.7 11.7452 30.8611 12.1127 31.0017C12.4921 31.1468 12.8792 31.2745 13.2674 31.3944C13.6463 31.5118 14.0293 31.6179 14.4148 31.7131C14.803 31.8088 15.1952 31.8912 15.588 31.9669C15.9164 32.0307 16.2474 32.0812 16.5784 32.129C16.8286 32.1651 17.0804 32.1918 17.3321 32.2145C17.659 32.2433 17.9864 32.2721 18.3143 32.2855C18.6685 32.2999 19.0231 32.2963 19.3773 32.2994L19.3789 32.3015Z" fill="black"/>
<path d="M34.8835 31.8011C34.9154 31.7975 34.9468 31.7928 34.9993 31.7861C34.9576 31.8448 34.9288 31.8906 34.8953 31.9334C34.6055 32.3014 34.2714 32.6242 33.9034 32.9145C33.438 33.2816 32.9351 33.5899 32.4223 33.8844C31.9271 34.169 31.4252 34.4414 30.9115 34.6895C30.5511 34.8635 30.1851 35.0256 29.8181 35.1842C29.4567 35.3402 29.0927 35.4905 28.7257 35.6326C28.3499 35.7783 27.9705 35.9172 27.5891 36.0475C27.2354 36.1685 26.8766 36.2745 26.5199 36.3867C26.4797 36.3991 26.438 36.4073 26.3974 36.4171C26.3938 36.4119 26.3907 36.4068 26.3876 36.4016C26.4941 36.3445 26.6002 36.2874 26.7067 36.2302C27.117 36.0094 27.518 35.7726 27.9093 35.5183C28.3278 35.2465 28.7303 34.9515 29.1267 34.6488C29.4922 34.3698 29.8438 34.0743 30.1794 33.7593C30.4811 33.4756 30.7756 33.1848 31.0402 32.8667C31.208 32.6649 31.3634 32.4528 31.5199 32.2422C31.5544 32.1959 31.5915 32.1696 31.6466 32.1635C31.7835 32.1485 31.9209 32.1341 32.0579 32.1192C32.3384 32.0878 32.6185 32.0559 32.899 32.024C33.0849 32.0029 33.2707 31.9812 33.4565 31.9612C33.7273 31.9313 33.9981 31.902 34.2689 31.8721C34.4742 31.8489 34.6796 31.8258 34.885 31.8021L34.8835 31.8011Z" fill="#DBA2A2"/>
<path d="M34.7286 14.6747C34.7765 15.1493 34.7976 15.6255 34.779 16.1017C34.7657 16.4527 34.7435 16.8043 34.7121 17.1539C34.6874 17.4313 34.6498 17.7083 34.6056 17.9837C34.57 18.2035 34.5222 18.4223 34.4681 18.6385C34.3904 18.9504 34.3096 19.2624 34.2143 19.5692C34.1371 19.8199 34.0434 20.066 33.9461 20.3095C33.8442 20.5653 33.7371 20.8201 33.6172 21.0677C33.4972 21.3159 33.3634 21.5573 33.2275 21.7967C33.0489 22.1107 32.843 22.4077 32.6355 22.7037C32.2736 23.2185 31.8762 23.7029 31.4098 24.1271C31.0505 24.4539 30.6871 24.7772 30.32 25.0964C30.0523 25.3291 29.7795 25.5561 29.5036 25.779C29.151 26.0637 28.7927 26.3411 28.437 26.6222C28.369 26.6757 28.3011 26.7303 28.2207 26.7725C28.2938 26.6613 28.3695 26.5522 28.4395 26.4395C28.6135 26.1574 28.7942 25.8783 28.9548 25.589C29.135 25.2652 29.3038 24.9342 29.4645 24.6001C29.6024 24.3134 29.7285 24.0205 29.8469 23.7255C29.9839 23.3848 30.112 23.0398 30.2335 22.6929C30.3437 22.3773 30.4446 22.0582 30.5419 21.738C30.6345 21.4332 30.7246 21.128 30.8034 20.8196C30.9053 20.4191 31.0016 20.0165 31.0886 19.613C31.157 19.2959 31.2147 18.9757 31.2667 18.6555C31.3166 18.3445 31.3583 18.0321 31.3928 17.7196C31.4299 17.3835 31.4633 17.0468 31.4824 16.7091C31.5025 16.3549 31.5122 15.9997 31.5117 15.645C31.5117 15.3135 31.4999 14.9815 31.4803 14.65C31.4474 14.0919 31.3784 13.538 31.2821 12.9872C31.2039 12.5404 31.1092 12.0977 30.9887 11.6612C30.8441 11.1356 30.6706 10.6192 30.4642 10.1137C30.2912 9.6911 30.0982 9.27773 29.8804 8.87672C29.6606 8.47262 29.4135 8.08602 29.1432 7.7128C28.8982 7.37459 28.6341 7.05182 28.3546 6.74244C28.0488 6.4032 27.7281 6.07735 27.3827 5.77877C27.1021 5.53631 26.8211 5.29282 26.5276 5.06683C26.2368 4.84239 25.9346 4.63133 25.6278 4.42954C25.3184 4.22568 25.0003 4.03367 24.6785 3.8499C24.3995 3.69083 24.1133 3.54257 23.823 3.4041C23.4884 3.24451 23.1502 3.09214 22.8063 2.95366C22.466 2.81673 22.1201 2.6901 21.7706 2.57736C21.3711 2.44867 20.968 2.32872 20.5613 2.22474C20.1608 2.12281 19.7557 2.0389 19.3501 1.95962C19.0288 1.89682 18.704 1.84843 18.3797 1.80365C18.1491 1.77173 17.9159 1.75268 17.6837 1.7357C17.3697 1.71305 17.0552 1.68834 16.7401 1.68113C16.3818 1.67289 16.023 1.67186 15.6653 1.68834C15.272 1.70635 14.8782 1.73672 14.4869 1.78203C14.0375 1.83402 13.5907 1.90557 13.149 2.0075C13.1238 2.01316 13.0976 2.01316 13.0723 2.01625C13.0713 2.00956 13.0698 2.00338 13.0687 1.99669C13.2705 1.91999 13.4713 1.83917 13.6751 1.76813C14.0561 1.63583 14.438 1.50456 14.8221 1.38101C15.2905 1.23018 15.7636 1.09531 16.2444 0.987721C16.5965 0.908959 16.9486 0.828654 17.3038 0.763792C17.6039 0.70871 17.9066 0.668043 18.2093 0.632523C18.5388 0.594429 18.8693 0.559424 19.1998 0.541922C19.5869 0.521845 19.975 0.517727 20.3626 0.516697C20.635 0.515668 20.9083 0.522875 21.1806 0.541407C21.4946 0.563028 21.8092 0.59134 22.1211 0.634067C22.4815 0.683486 22.8413 0.7432 23.198 0.814755C23.4971 0.874469 23.7942 0.948083 24.0866 1.03302C24.4299 1.13289 24.7686 1.2482 25.1068 1.36454C25.4456 1.48088 25.773 1.62553 26.0916 1.78872C26.4504 1.97301 26.8082 2.16039 27.1613 2.35652C27.5088 2.54956 27.8439 2.7632 28.1662 2.99691C28.4534 3.20488 28.7391 3.41491 29.0212 3.63008C29.3378 3.87152 29.6338 4.13714 29.9226 4.40998C30.1517 4.6267 30.3818 4.84291 30.6011 5.06992C30.8497 5.32731 31.0942 5.58934 31.3274 5.86114C31.5622 6.135 31.7856 6.41968 32.0059 6.70589C32.2782 7.06006 32.5238 7.43276 32.7513 7.81782C33.0175 8.26825 33.2522 8.73412 33.4432 9.22059C33.5719 9.54696 33.6877 9.87899 33.7979 10.2121C33.8988 10.5168 33.9914 10.8257 34.0769 11.1356C34.1716 11.4805 34.2571 11.8279 34.3389 12.1759C34.4604 12.6907 34.5489 13.2122 34.6236 13.7352C34.6678 14.0472 34.6977 14.3612 34.7291 14.6747H34.7286Z" fill="#DBA2A2"/>
<path d="M34.7661 31.2634C34.7605 31.2731 34.7553 31.2829 34.7497 31.2927C34.6755 31.303 34.6019 31.3148 34.5278 31.3231C34.2112 31.3581 33.8946 31.39 33.578 31.4265C33.21 31.4688 32.8419 31.5151 32.4738 31.5573C32.2061 31.5877 31.9384 31.6139 31.6708 31.6433C31.5791 31.653 31.488 31.6628 31.3974 31.6778C31.348 31.6855 31.3073 31.6721 31.2687 31.6448C30.9758 31.4394 30.6829 31.234 30.3895 31.0291C30.0935 30.8227 29.797 30.6168 29.5005 30.4109C29.3496 30.3059 29.1983 30.2014 29.0474 30.0964C29.0402 30.0912 29.0372 30.0804 29.0269 30.065C29.0845 30.0516 29.1375 30.0382 29.1911 30.0269C29.6116 29.9378 30.0317 29.8487 30.4523 29.7607C30.7956 29.6886 31.1395 29.6192 31.4829 29.5471C31.7655 29.4879 32.0476 29.4277 32.3297 29.3643C32.4023 29.3484 32.4568 29.3587 32.5171 29.4096C32.8702 29.7087 33.2275 30.0037 33.5837 30.2992C33.9626 30.6137 34.3425 30.9277 34.7224 31.2412C34.7352 31.2515 34.7522 31.2567 34.7666 31.2644L34.7661 31.2634Z" fill="#DBA2A2"/>
<path d="M30.9671 14.7073C30.9877 15.0547 30.9959 15.4038 30.9923 15.7517C30.9877 16.1492 30.9748 16.5471 30.946 16.9429C30.9161 17.3455 30.8724 17.7475 30.8158 18.1475C30.7535 18.5892 30.6793 19.0293 30.5918 19.4664C30.5126 19.8623 30.4153 20.2545 30.3133 20.6447C30.2114 21.0349 30.1033 21.4246 29.9813 21.8092C29.8485 22.2282 29.7054 22.6441 29.5509 23.0554C29.4094 23.4333 29.2565 23.8075 29.0902 24.1751C28.9291 24.5308 28.7499 24.8783 28.5677 25.2242C28.3561 25.6252 28.1132 26.0082 27.8583 26.383C27.5407 26.8504 27.1974 27.2988 26.8082 27.7106C26.5503 27.9834 26.278 28.2393 25.9768 28.4637C25.6937 28.6743 25.39 28.8498 25.0744 29.0053C24.7913 29.1448 24.5015 29.2683 24.2034 29.3702C23.8673 29.4855 23.5239 29.5736 23.1728 29.6251C22.9159 29.6626 22.6586 29.6966 22.4007 29.7187C21.9075 29.7604 21.4159 29.7574 20.9284 29.6554C20.5974 29.5864 20.289 29.4583 19.9925 29.3002C19.6414 29.1128 19.3053 28.9008 18.9918 28.6547C18.4389 28.2207 17.9854 27.7039 17.6842 27.063C17.5751 26.8308 17.4897 26.5889 17.4408 26.3366C17.4294 26.279 17.4233 26.2182 17.4299 26.1606C17.4531 25.9536 17.2446 25.8059 17.0469 25.8893C16.8426 25.9763 16.6269 26.0376 16.4138 26.1024C16.144 26.1848 15.8727 26.2635 15.6004 26.3366C15.2169 26.4401 14.8282 26.5209 14.4334 26.5719C13.9264 26.6368 13.4172 26.644 12.9081 26.6187C12.4217 26.5951 11.9434 26.5132 11.4739 26.3799C11.0647 26.2635 10.6719 26.1091 10.3028 25.898C9.89563 25.6649 9.52911 25.3792 9.20582 25.0379C8.82283 24.6322 8.52734 24.1689 8.30341 23.6598C8.0836 23.1604 7.94667 22.6374 7.871 22.0979C7.80923 21.6542 7.78503 21.2084 7.80253 20.7611C7.81952 20.3245 7.86843 19.8911 7.94719 19.4602C8.03985 18.9552 8.17318 18.4615 8.33945 17.9766C8.48513 17.5509 8.64883 17.1319 8.84548 16.7267C9.01587 16.3757 9.18987 16.0256 9.37261 15.6807C9.58367 15.2833 9.82407 14.9029 10.0758 14.5297C10.3203 14.1673 10.5823 13.8182 10.8639 13.4841C11.1481 13.1475 11.4523 12.8299 11.7761 12.5303C12.0634 12.2641 12.3635 12.0144 12.6801 11.7849C13.0394 11.5244 13.4147 11.2896 13.8126 11.0914C14.2749 10.8613 14.7536 10.6724 15.2529 10.5396C15.5932 10.4495 15.9376 10.3831 16.2876 10.343C16.5893 10.3085 16.891 10.2966 17.1931 10.3116C17.6678 10.3347 18.1316 10.4207 18.5779 10.5911C18.8832 10.7079 19.172 10.8526 19.435 11.0487C19.6795 11.2304 19.8916 11.4451 20.0775 11.6845C20.2077 11.8533 20.3292 12.0289 20.4491 12.2049C20.4877 12.261 20.5109 12.3279 20.5382 12.3913C20.5809 12.4901 20.6504 12.5508 20.7601 12.5617C20.7961 12.5653 20.8316 12.574 20.8676 12.5771C20.9999 12.5889 21.1075 12.5184 21.1472 12.3918C21.3294 11.8054 21.5111 11.2196 21.6928 10.6333C21.7036 10.5988 21.717 10.5659 21.733 10.5206C22.9273 10.7975 24.1113 11.0729 25.3061 11.3504C25.2309 11.4775 25.1614 11.5949 25.0919 11.7128C24.8592 12.1092 24.6199 12.5014 24.3959 12.9024C24.1756 13.2978 23.9625 13.6983 23.7617 14.1039C23.58 14.4715 23.4153 14.8478 23.2511 15.2236C23.0869 15.5994 22.9247 15.9762 22.7764 16.3587C22.5813 16.8601 22.3929 17.3645 22.2164 17.8726C22.0676 18.3004 21.9343 18.7339 21.804 19.1678C21.6352 19.7305 21.4746 20.2957 21.3562 20.8712C21.2558 21.3598 21.1539 21.8488 21.0699 22.3404C20.9932 22.7903 20.9526 23.2449 20.9356 23.702C20.9232 24.0345 20.932 24.3656 20.967 24.6955C21.0066 25.0615 21.0787 25.4224 21.2228 25.7637C21.369 26.1091 21.5925 26.3948 21.8993 26.6162C22.1711 26.8128 22.4738 26.9163 22.8027 26.9451C23.0194 26.9642 23.2351 26.9405 23.4467 26.8854C23.909 26.7655 24.3141 26.5374 24.6889 26.246C25.0379 25.9748 25.3534 25.6685 25.6402 25.3339C25.8775 25.0574 26.1148 24.7799 26.3351 24.4901C26.5333 24.2291 26.7191 23.9568 26.89 23.6773C27.1078 23.3221 27.3137 22.9592 27.5083 22.5906C27.7214 22.1875 27.9248 21.7788 28.1168 21.3654C28.2892 20.9937 28.4467 20.6144 28.6012 20.2344C28.7541 19.8571 28.8822 19.471 28.9903 19.0782C29.116 18.6222 29.2143 18.1599 29.2863 17.6919C29.3352 17.3738 29.3656 17.0536 29.3821 16.7314C29.4073 16.2387 29.4078 15.7461 29.3908 15.2534C29.3744 14.7768 29.3214 14.3042 29.2261 13.8357C29.1422 13.4224 29.0274 13.0183 28.8591 12.6327C28.7294 12.3352 28.5811 12.0453 28.4303 11.7581C28.2563 11.4266 28.0524 11.112 27.8316 10.8093C27.6401 10.5468 27.4434 10.2874 27.2339 10.0392C27.0244 9.79111 26.8046 9.55071 26.576 9.32009C26.3454 9.08689 26.104 8.86296 25.8559 8.6483C25.6077 8.43364 25.3519 8.2267 25.0878 8.03211C24.7867 7.81024 24.4793 7.59609 24.1633 7.39636C23.8528 7.20074 23.5332 7.01696 23.2073 6.8476C22.8789 6.6767 22.5402 6.52381 22.2009 6.37452C21.9425 6.26127 21.6784 6.16037 21.4128 6.06565C21.1441 5.9699 20.8723 5.88342 20.5989 5.80157C20.3323 5.72178 20.063 5.64611 19.7923 5.58124C19.4669 5.50351 19.1395 5.43402 18.8111 5.37173C18.5311 5.31871 18.249 5.27649 17.9669 5.23737C17.7913 5.21318 17.6137 5.20288 17.4371 5.18744C17.0145 5.15037 16.5903 5.14214 16.1667 5.15655C15.8877 5.16633 15.6092 5.18641 15.3312 5.20906C14.7912 5.25281 14.2558 5.33003 13.7261 5.44431C13.341 5.52771 12.9611 5.62809 12.5884 5.75575C12.4335 5.80878 12.2744 5.8515 12.122 5.9107C11.9599 5.97351 11.8013 6.04558 11.6459 6.12279C11.3519 6.26848 11.0554 6.41004 10.7708 6.57271C10.4861 6.73538 10.2112 6.91555 9.9399 7.09984C9.62228 7.31605 9.32268 7.55851 9.03852 7.81693C8.80069 8.03314 8.56801 8.25604 8.3446 8.48769C8.11655 8.72397 7.89519 8.96695 7.68619 9.21971C7.45248 9.50335 7.22753 9.79471 7.01492 10.0943C6.80283 10.3939 6.60155 10.7028 6.41211 11.0173C6.22062 11.3349 6.04044 11.6598 5.87108 11.9892C5.70017 12.3218 5.54008 12.6605 5.39182 13.0038C5.24614 13.341 5.11281 13.6839 4.98823 14.0298C4.86417 14.3752 4.74835 14.7248 4.64539 15.0774C4.54449 15.4238 4.45492 15.7744 4.37976 16.127C4.301 16.4961 4.23974 16.8693 4.18157 17.242C4.14451 17.4819 4.11929 17.7244 4.10178 17.9663C4.07604 18.3298 4.05391 18.6937 4.04361 19.0582C4.03177 19.4818 4.03847 19.906 4.08068 20.3286C4.11311 20.6519 4.14039 20.9757 4.18466 21.2975C4.22276 21.5765 4.27938 21.8534 4.33137 22.1304C4.40602 22.5273 4.5028 22.9195 4.62068 23.3056C4.71849 23.6253 4.82145 23.9445 4.93882 24.258C5.06597 24.5987 5.20702 24.9354 5.35218 25.269C5.50301 25.6149 5.67032 25.9536 5.86593 26.2774C6.05743 26.5945 6.24738 26.9142 6.45844 27.219C6.6695 27.5232 6.89601 27.8187 7.13332 28.1028C7.36858 28.3849 7.61773 28.6568 7.87615 28.9183C8.10677 29.1515 8.35232 29.3708 8.60199 29.5844C8.81871 29.7697 9.0447 29.9458 9.27738 30.111C9.50697 30.2747 9.74634 30.4255 9.98777 30.5717C10.308 30.7658 10.641 30.9377 10.9834 31.0886C11.3195 31.2368 11.6572 31.3841 12.0016 31.5102C12.433 31.6682 12.87 31.8108 13.3086 31.9472C13.7817 32.0945 14.2615 32.2185 14.7464 32.3215C15.0738 32.3915 15.4007 32.4661 15.7307 32.5212C16.1281 32.5881 16.528 32.6427 16.9285 32.6916C17.2544 32.7312 17.5813 32.7611 17.9087 32.7837C18.1805 32.8028 18.4538 32.8115 18.7262 32.8126C19.1364 32.8151 19.5472 32.8126 19.957 32.8018C20.2391 32.7946 20.5207 32.7714 20.8023 32.7503C20.9948 32.7359 21.1873 32.7127 21.3804 32.6947C21.4262 32.6906 21.4725 32.6937 21.5183 32.6901C21.5636 32.6865 21.6089 32.6798 21.6542 32.6726C21.7773 32.6525 21.8998 32.6324 22.0228 32.6113C22.2653 32.5701 22.5098 32.5372 22.7497 32.4847C23.1085 32.4064 23.4657 32.3204 23.8204 32.2262C24.2672 32.1068 24.7084 31.9668 25.1408 31.8026C25.4445 31.6873 25.7483 31.572 26.0458 31.4412C26.3403 31.3125 26.6327 31.1761 26.9142 31.0217C27.3657 30.7735 27.8084 30.5089 28.2527 30.2485C28.3 30.2207 28.3278 30.2207 28.3736 30.2526C28.9193 30.6351 29.4675 31.0144 30.0148 31.3954C30.3329 31.6167 30.6505 31.8386 30.9681 32.0605C30.9759 32.0661 30.9815 32.0744 30.9954 32.0903C30.8611 32.2587 30.7313 32.4321 30.5903 32.5948C30.076 33.1878 29.4948 33.7098 28.8756 34.1896C28.3742 34.5777 27.8614 34.9505 27.3204 35.282C26.749 35.632 26.1621 35.9543 25.549 36.2271C25.0811 36.4356 24.6003 36.6122 24.1071 36.7532C23.7602 36.8526 23.4122 36.9488 23.0606 37.0291C22.6997 37.112 22.3353 37.1836 21.9703 37.2443C21.6275 37.3014 21.282 37.3452 20.9361 37.3812C20.603 37.4157 20.2684 37.4389 19.9343 37.4574C19.3367 37.4904 18.738 37.4965 18.1398 37.4749C17.6575 37.4574 17.1751 37.4229 16.6943 37.3838C16.0333 37.3308 15.3796 37.2222 14.7315 37.0806C14.0931 36.9411 13.4661 36.7599 12.8474 36.5478C12.2291 36.3357 11.6217 36.0974 11.0251 35.8318C10.5422 35.6166 10.0686 35.3823 9.60426 35.1291C9.14302 34.8768 8.69104 34.6097 8.25142 34.3214C7.84217 34.0532 7.44373 33.7695 7.05559 33.471C6.63862 33.1503 6.23657 32.8121 5.84946 32.4569C5.52515 32.1588 5.21577 31.8463 4.91719 31.5225C4.62325 31.2034 4.33807 30.877 4.07656 30.5311C3.83101 30.2062 3.59421 29.8752 3.36153 29.5411C3.11186 29.1823 2.88845 28.8066 2.68099 28.4225C2.5281 28.1399 2.38087 27.8537 2.24188 27.5634C2.10701 27.2823 1.98038 26.9971 1.85992 26.7099C1.68747 26.298 1.53149 25.8795 1.40382 25.4512C1.28954 25.0677 1.17629 24.6832 1.07848 24.295C0.991485 23.9481 0.917356 23.5975 0.855068 23.2454C0.778366 22.8125 0.714018 22.378 0.656878 21.942C0.61724 21.6393 0.587897 21.335 0.571425 21.0303C0.544656 20.5351 0.526124 20.0393 0.514284 19.5436C0.503474 19.0937 0.516858 18.6433 0.550833 18.1944C0.581205 17.7949 0.6054 17.3944 0.655334 16.997C0.710415 16.5538 0.780425 16.1121 0.863819 15.673C0.945155 15.2447 1.03884 14.8174 1.15107 14.3958C1.26586 13.9649 1.3997 13.5382 1.54281 13.1156C1.66791 12.7459 1.81101 12.382 1.9567 12.0201C2.12606 11.5995 2.32065 11.1908 2.52656 10.7867C2.72681 10.3949 2.93684 10.0078 3.17364 9.63719C3.38933 9.30001 3.61377 8.96746 3.84903 8.64418C4.05751 8.35796 4.27732 8.07844 4.50949 7.81075C4.76997 7.51064 5.04126 7.21979 5.32284 6.93975C5.60442 6.65971 5.89682 6.38945 6.19694 6.13C6.48727 5.87879 6.7879 5.6389 7.09471 5.40776C7.39328 5.1828 7.70061 4.96866 8.01308 4.76274C8.31165 4.5661 8.61897 4.38181 8.92681 4.19958C9.31393 3.96998 9.71391 3.76407 10.1242 3.57927C10.4892 3.41505 10.8608 3.26628 11.232 3.11596C11.6371 2.95226 12.0541 2.82203 12.4742 2.70414C12.8659 2.59398 13.2607 2.49668 13.6628 2.43131C14.0056 2.37571 14.349 2.3196 14.6939 2.27945C15.0033 2.24341 15.3152 2.21716 15.6267 2.20789C16.0632 2.19502 16.5013 2.19245 16.9378 2.20223C17.2523 2.20944 17.5669 2.2393 17.8809 2.26864C18.4466 2.32115 19.0067 2.41175 19.5637 2.525C20.1367 2.64134 20.7019 2.78651 21.2614 2.95535C21.8462 3.13192 22.4192 3.34144 22.9803 3.58235C23.4271 3.77437 23.8626 3.98903 24.2884 4.22326C24.7084 4.45439 25.1187 4.702 25.5156 4.97123C25.8826 5.21987 26.2425 5.47932 26.5786 5.76914C26.8772 6.02601 27.1716 6.28855 27.4584 6.5583C27.7456 6.82804 28.0087 7.12249 28.2625 7.42467C28.4931 7.69905 28.7088 7.98424 28.91 8.28075C29.1335 8.60969 29.3363 8.95099 29.5201 9.30361C29.7074 9.6619 29.8747 10.0295 30.0235 10.4047C30.1841 10.8109 30.3319 11.2222 30.4415 11.6453C30.5429 12.0361 30.6418 12.4278 30.7231 12.8232C30.7874 13.1341 30.8307 13.4507 30.8714 13.7657C30.911 14.0782 30.9465 14.3922 30.965 14.7062L30.9671 14.7073ZM19.5169 17.1725C19.4994 16.9172 19.4896 16.6608 19.4623 16.4071C19.4314 16.1198 19.3717 15.8372 19.2929 15.5582C19.1694 15.1196 19.0021 14.7021 18.7447 14.3227C18.4446 13.8795 18.0744 13.5166 17.5849 13.2865C17.3326 13.1681 17.0675 13.1006 16.789 13.0883C16.5919 13.0795 16.3963 13.0934 16.2006 13.1259C15.8974 13.1758 15.6071 13.2648 15.3276 13.3899C15.0666 13.5068 14.8216 13.6525 14.5817 13.809C14.1534 14.0875 13.7549 14.402 13.3936 14.7629C12.939 15.2164 12.5323 15.7085 12.19 16.2542C11.9434 16.6475 11.7246 17.0541 11.5409 17.4793C11.3241 17.9802 11.1558 18.4971 11.0251 19.0273C10.884 19.5997 10.7929 20.1783 10.779 20.7683C10.7697 21.1662 10.7939 21.5615 10.8881 21.9512C10.9978 22.4048 11.1599 22.8346 11.4235 23.2227C11.5959 23.477 11.8008 23.702 12.0289 23.9069C12.2502 24.1051 12.4937 24.2698 12.7578 24.4067C13.0301 24.5483 13.3138 24.6574 13.6113 24.729C13.9418 24.8088 14.2769 24.8345 14.6167 24.8201C14.9178 24.8072 15.2102 24.7511 15.4944 24.6569C15.9546 24.504 16.386 24.293 16.7669 23.9856C17.0696 23.7411 17.3476 23.4719 17.5983 23.1759C17.7975 22.9412 17.9808 22.693 18.1707 22.4506C18.181 22.4377 18.1903 22.4238 18.197 22.4089C18.3051 22.1623 18.4214 21.9193 18.5177 21.6686C18.6664 21.2794 18.807 20.8872 18.9408 20.4929C19.0752 20.098 19.1828 19.695 19.2564 19.2842C19.3161 18.9516 19.3707 18.618 19.416 18.2834C19.4659 17.9159 19.503 17.5463 19.5169 17.1736V17.1725Z" fill="#FFC2C2"/>
<path d="M28.0143 12.0686C28.0385 12.1088 28.0442 12.1432 28.0241 12.188C27.9263 12.4068 27.8321 12.6266 27.7353 12.8459C27.6025 13.146 27.4677 13.4451 27.3354 13.7452C27.1897 14.0757 27.043 14.4052 26.9014 14.7372C26.7398 15.1176 26.5797 15.4991 26.4252 15.8826C26.2909 16.2177 26.1601 16.5544 26.0376 16.8936C25.8981 17.2792 25.7627 17.6668 25.6371 18.057C25.5233 18.4097 25.4168 18.7654 25.3231 19.1237C25.2181 19.5231 25.1228 19.9262 25.0384 20.3303C24.9741 20.6387 24.9293 20.9511 24.8819 21.2626C24.8289 21.607 24.8047 21.9544 24.8098 22.3029C24.8129 22.5063 24.817 22.7101 24.8366 22.9124C24.8593 23.1508 24.9077 23.386 24.9766 23.6156C25.0183 23.7536 25.0636 23.891 25.1172 24.0249C25.2119 24.2617 25.3498 24.4717 25.5388 24.6642C25.4425 24.777 25.3524 24.8856 25.2587 24.9906C25.0487 25.2259 24.8304 25.4534 24.5911 25.6598C24.2585 25.9471 23.9023 26.1957 23.4807 26.3383C23.1775 26.4413 22.8717 26.4747 22.5623 26.3769C22.1618 26.2503 21.8895 25.978 21.7181 25.6016C21.5992 25.3396 21.5394 25.0606 21.4998 24.777C21.4313 24.2864 21.4386 23.7953 21.4772 23.3026C21.5163 22.7971 21.5904 22.2973 21.6923 21.801C21.7896 21.3285 21.8859 20.8559 22.0038 20.388C22.1222 19.9174 22.2622 19.4516 22.4022 18.9867C22.5165 18.6068 22.6385 18.2285 22.7693 17.8537C22.9031 17.4697 23.0472 17.0887 23.1955 16.7104C23.3438 16.3315 23.4987 15.9552 23.6583 15.5809C23.7973 15.2551 23.9419 14.9313 24.0938 14.6111C24.2487 14.2852 24.4093 13.9614 24.5787 13.6428C24.7481 13.3242 24.9288 13.0112 25.1094 12.6987C25.2937 12.3806 25.4837 12.066 25.6716 11.75C25.7251 11.6599 25.7812 11.5708 25.8348 11.4802C25.86 11.4375 25.8929 11.4169 25.9439 11.4092C26.3171 11.3541 26.6893 11.2944 27.062 11.2378C27.1912 11.2182 27.3209 11.2012 27.461 11.1816C27.5217 11.2697 27.5886 11.3587 27.6463 11.4529C27.7714 11.6573 27.8913 11.8648 28.0154 12.0696L28.0143 12.0686Z" fill="#DBA2A2"/>
<path d="M27.0609 10.6384C27.0769 10.658 27.0872 10.6816 27.1052 10.711C26.8782 10.746 26.6625 10.7794 26.4458 10.8124C26.2769 10.8381 26.1065 10.8561 25.9392 10.8901C25.793 10.92 25.654 10.9051 25.512 10.8711C25.0625 10.764 24.6121 10.6621 24.1622 10.5571C23.7627 10.4639 23.3643 10.3692 22.9653 10.2755C22.8603 10.2508 22.7543 10.2291 22.6487 10.205C22.6302 10.2003 22.6122 10.1916 22.5942 10.1844C22.5932 10.1777 22.5916 10.1715 22.5906 10.1648C22.6657 10.1452 22.7414 10.1257 22.8171 10.1061C22.8516 10.0968 22.8912 10.0953 22.9211 10.0778C23.0729 9.98771 23.2443 9.95374 23.408 9.8966C23.7545 9.77562 24.1056 9.66701 24.4525 9.54706C24.5478 9.51412 24.6322 9.51309 24.7279 9.54346C25.2371 9.70458 25.7482 9.86056 26.2589 10.0186C26.3716 10.0536 26.4839 10.0891 26.5961 10.1272C26.6228 10.136 26.6517 10.1504 26.6697 10.171C26.802 10.3254 26.9322 10.4819 27.0625 10.6384H27.0609Z" fill="#DBA2A2"/>
<path d="M22.2127 9.70424C22.223 9.70939 22.2302 9.7202 22.2477 9.73667C22.1113 9.783 21.9862 9.82727 21.859 9.86846C21.7283 9.91067 21.5955 9.94773 21.4642 9.98943C21.3808 10.0162 21.3242 10.0739 21.2979 10.1583C21.1924 10.4996 21.0874 10.8414 20.9819 11.1832C20.9273 11.3587 20.8727 11.5338 20.8176 11.7088C20.813 11.7237 20.8048 11.7381 20.7934 11.7628C20.7353 11.6877 20.6807 11.6203 20.6287 11.5497C20.4609 11.3222 20.2792 11.1065 20.0743 10.9114C19.8545 10.7019 19.612 10.5243 19.3469 10.3765C19.0447 10.2077 18.7251 10.0811 18.3935 9.9848C18.1248 9.90758 17.8515 9.85559 17.5735 9.82367C17.2986 9.79227 17.0232 9.78558 16.7468 9.79021C16.7349 9.79021 16.7226 9.79021 16.7107 9.79021C16.7097 9.78506 16.7087 9.77991 16.7076 9.77477C16.8219 9.74028 16.9362 9.70424 17.0515 9.67232C17.5416 9.53642 18.0363 9.41699 18.5372 9.32794C19.0581 9.23528 19.5832 9.17659 20.1139 9.18792C20.6787 9.19976 21.2336 9.2744 21.7623 9.48443C21.9172 9.5462 22.0634 9.63011 22.2132 9.70424H22.2127Z" fill="#DBA2A2"/>
<path d="M19.4618 16.4073C19.489 16.6616 19.4988 16.9175 19.5163 17.1728C19.5024 17.5455 19.4654 17.9151 19.4154 18.2827C19.3701 18.6173 19.3156 18.9509 19.2558 19.2834C19.1822 19.6942 19.0746 20.0973 18.9403 20.4921C18.8059 20.8864 18.6659 21.2787 18.5171 21.6679C18.4209 21.9191 18.3045 22.1621 18.1964 22.4081C18.1897 22.4231 18.1805 22.437 18.1702 22.4498C17.9802 22.6923 17.797 22.9404 17.5977 23.1751C17.347 23.4706 17.0691 23.7404 16.7664 23.9849C16.3854 24.2922 15.9546 24.5028 15.4938 24.6562C15.2102 24.7509 14.9173 24.8065 14.6161 24.8194C14.2759 24.8343 13.9407 24.808 13.6108 24.7282C13.3132 24.6562 13.0291 24.547 12.7573 24.406C12.4932 24.2691 12.2497 24.1043 12.0283 23.9061C11.8003 23.7018 11.5954 23.4768 11.423 23.222C11.1594 22.8333 10.9972 22.404 10.8876 21.9505C10.7934 21.5608 10.7692 21.1654 10.7784 20.7675C10.7923 20.1781 10.8835 19.599 11.0245 19.0265C11.1553 18.4963 11.3236 17.9795 11.5403 17.4786C11.7241 17.0534 11.9434 16.6467 12.1895 16.2534C12.5313 15.7078 12.9385 15.2156 13.393 14.7621C13.7544 14.4018 14.1528 14.0867 14.5811 13.8082C14.821 13.6522 15.066 13.506 15.327 13.3892C15.6066 13.2641 15.8969 13.1756 16.2001 13.1251C16.3957 13.0927 16.5913 13.0788 16.7885 13.0875C17.067 13.0999 17.3326 13.1673 17.5843 13.2857C18.0739 13.5158 18.444 13.8787 18.7441 14.322C19.0015 14.7014 19.1688 15.1188 19.2924 15.5574C19.3711 15.8365 19.4303 16.1191 19.4618 16.4063V16.4073ZM18.9789 17.4523C18.9995 17.1069 18.9892 16.7625 18.9454 16.4197C18.9006 16.0707 18.8178 15.7299 18.703 15.3968C18.5321 14.9006 18.2716 14.462 17.8855 14.1032C17.6837 13.9158 17.4536 13.7727 17.19 13.6826C17.1164 13.7408 17.0413 13.7943 16.9733 13.8561C16.7447 14.0635 16.5182 14.2731 16.2928 14.4841C15.9468 14.8079 15.6256 15.1549 15.344 15.5358C14.9827 16.0254 14.6547 16.535 14.3912 17.0848C14.1765 17.5332 13.9855 17.9893 13.863 18.4716C13.7333 18.9812 13.6664 19.4965 13.7168 20.0237C13.7631 20.5148 13.8898 20.9786 14.1518 21.4007C14.3232 21.6761 14.5441 21.9021 14.8251 22.0663C15.3507 22.3731 15.9232 22.4529 16.5182 22.3999C16.9707 22.3597 17.382 22.1883 17.7722 21.9618C17.8253 21.9314 17.8649 21.8923 17.8891 21.8341C17.9447 21.6972 18.0085 21.5639 18.0615 21.4264C18.25 20.9364 18.4281 20.4427 18.5712 19.9367C18.6932 19.5063 18.7828 19.0693 18.8481 18.6276C18.9058 18.2379 18.9557 17.8472 18.9794 17.4529L18.9789 17.4523ZM17.2575 22.7824C17.2533 22.7772 17.2492 22.7721 17.2456 22.7674C17.1643 22.7911 17.084 22.8179 17.0021 22.838C16.7103 22.9106 16.4143 22.9353 16.1136 22.927C15.6483 22.9142 15.2025 22.8251 14.7793 22.6238C14.4066 22.4467 14.0936 22.1986 13.8476 21.8697C13.566 21.4934 13.3853 21.0692 13.2854 20.6121C13.1912 20.1827 13.1634 19.7488 13.1989 19.3097C13.2339 18.8752 13.3168 18.4505 13.4522 18.0376C13.5423 17.7638 13.6422 17.492 13.7595 17.2284C13.8944 16.9262 14.0442 16.6297 14.2038 16.3399C14.3366 16.099 14.491 15.8699 14.6414 15.6388C14.8437 15.3273 15.0702 15.0334 15.3142 14.7534C15.6081 14.4167 15.9324 14.1088 16.2588 13.8041C16.3211 13.7459 16.3818 13.6862 16.4431 13.627C16.1404 13.6445 15.8598 13.7202 15.5906 13.8376C15.099 14.0522 14.663 14.3559 14.2465 14.6885C13.9428 14.931 13.6705 15.2064 13.41 15.4946C13.0337 15.9106 12.7104 16.3636 12.4319 16.8495C12.0798 17.4652 11.8121 18.1164 11.6186 18.798C11.4544 19.3771 11.3396 19.9655 11.3051 20.5683C11.2716 21.1449 11.3148 21.7101 11.5151 22.2573C11.616 22.5332 11.7416 22.7963 11.9202 23.031C12.2296 23.4377 12.6075 23.762 13.0692 23.9854C13.427 24.1584 13.8012 24.2727 14.1997 24.2994C14.4627 24.3169 14.7242 24.3092 14.9842 24.2567C15.2328 24.2068 15.4722 24.127 15.7033 24.023C15.9798 23.8989 16.2408 23.7502 16.476 23.5561C16.6871 23.3821 16.8801 23.1901 17.0691 22.9939C17.1349 22.926 17.1952 22.8524 17.258 22.7819L17.2575 22.7824Z" fill="black"/>
<path d="M19.4263 32.2935C19.4103 32.296 19.3949 32.3022 19.3789 32.3017C19.0248 32.2981 18.6696 32.3017 18.3159 32.2878C17.988 32.2744 17.6606 32.2456 17.3337 32.2168C17.082 32.1946 16.8302 32.1673 16.5801 32.1313C16.2491 32.0839 15.9175 32.033 15.5896 31.9691C15.1969 31.893 14.8051 31.8111 14.4164 31.7154C14.0314 31.6201 13.6484 31.5141 13.269 31.3967C12.8809 31.2768 12.4937 31.1491 12.1144 31.0039C11.7468 30.8634 11.387 30.7023 11.0287 30.5391C10.6673 30.3744 10.3203 30.1798 9.98471 29.9672C9.68768 29.7788 9.40249 29.5734 9.12863 29.353C8.81616 29.1018 8.5181 28.8341 8.23446 28.5505C7.95339 28.2689 7.68776 27.9739 7.43655 27.6656C7.18534 27.3572 6.95111 27.0365 6.7313 26.7055C6.48987 26.3416 6.26903 25.9648 6.07084 25.5751C5.86801 25.1771 5.68733 24.7689 5.52466 24.353C5.3486 23.9036 5.19365 23.447 5.06496 22.9816C4.9342 22.5096 4.82867 22.0324 4.74631 21.55C4.70101 21.2849 4.67064 21.0172 4.63769 20.75C4.55893 20.1091 4.53988 19.4657 4.56614 18.8217C4.58261 18.4186 4.61298 18.015 4.65931 17.614C4.70461 17.2197 4.7669 16.8264 4.84309 16.4372C4.91258 16.083 5.00627 15.734 5.09739 15.3845C5.20652 14.9649 5.34448 14.5541 5.49325 14.1475C5.6621 13.6847 5.84382 13.227 6.06003 12.7843C6.23557 12.4245 6.4142 12.0657 6.60466 11.7136C6.81418 11.3265 7.04995 10.9548 7.29756 10.5909C7.54671 10.2238 7.81028 9.86708 8.09958 9.53144C8.35903 9.23081 8.6329 8.94202 8.90676 8.65477C9.18165 8.36701 9.48228 8.10653 9.79218 7.85738C10.0892 7.61852 10.4017 7.40077 10.7239 7.19743C10.7286 7.19486 10.7358 7.19743 10.7378 7.19743C10.4671 7.55212 10.1922 7.90371 9.92654 8.262C9.68047 8.59455 9.45191 8.93996 9.24548 9.29825C9.0406 9.65345 8.8352 10.0086 8.63959 10.3695C8.44088 10.736 8.26122 11.1123 8.10731 11.5C7.98736 11.8021 7.86382 12.1028 7.75726 12.4091C7.63783 12.7529 7.52972 13.1009 7.42831 13.4505C7.33771 13.7624 7.25535 14.0769 7.18379 14.3935C7.12099 14.6715 7.06797 14.9526 7.0273 15.2347C6.97428 15.6017 6.93361 15.9703 6.895 16.3389C6.87544 16.5247 6.8672 16.7126 6.86411 16.8995C6.85742 17.2706 6.85124 17.6418 6.85845 18.013C6.86566 18.3872 6.88728 18.7609 6.90581 19.1352C6.91714 19.3679 6.93103 19.601 6.95008 19.8337C6.96861 20.0592 6.99023 20.2852 7.01803 20.5101C7.0484 20.7542 7.07878 20.9987 7.12459 21.2401C7.18431 21.5557 7.24093 21.8738 7.33308 22.1806C7.40257 22.4112 7.43243 22.648 7.4942 22.8786C7.58017 23.1994 7.67644 23.5165 7.81131 23.8202C7.8911 23.9998 7.98376 24.1738 8.07179 24.3499C8.09495 24.3972 8.11554 24.4436 8.11245 24.4992C8.11039 24.5306 8.12172 24.5646 8.13459 24.5939C8.23909 24.824 8.33226 25.0598 8.47023 25.2734C8.62517 25.5133 8.77703 25.7552 8.94279 25.9874C9.13172 26.2515 9.32888 26.5104 9.53479 26.7621C9.76953 27.0489 10.013 27.3294 10.2622 27.6043C10.4516 27.8133 10.6493 28.0161 10.8547 28.2097C11.0941 28.4342 11.3386 28.6545 11.5944 28.8594C11.8863 29.0931 12.1869 29.3175 12.4953 29.5291C12.8011 29.7386 13.1166 29.9347 13.4353 30.1237C13.706 30.2843 13.9835 30.4351 14.2656 30.5746C14.5626 30.7213 14.8653 30.8582 15.1721 30.9828C15.5546 31.1383 15.9423 31.284 16.3319 31.4209C16.8452 31.6006 17.36 31.7787 17.8886 31.911C18.2891 32.0119 18.6901 32.1128 19.0912 32.2121C19.2018 32.2394 19.3146 32.26 19.4278 32.2955L19.4263 32.2935Z" fill="#DBA2A2"/>
<path d="M17.2457 22.7669C17.2493 22.7715 17.2534 22.7766 17.2575 22.7818C17.1947 22.8528 17.1345 22.9259 17.0686 22.9939C16.8797 23.19 16.6866 23.382 16.4756 23.556C16.2403 23.7501 15.9798 23.8989 15.7029 24.0229C15.4717 24.1269 15.2324 24.2062 14.9837 24.2566C14.7243 24.3091 14.4622 24.3169 14.1992 24.2994C13.8008 24.2726 13.4265 24.1583 13.0687 23.9853C12.6075 23.7624 12.2291 23.4376 11.9198 23.0309C11.7411 22.7962 11.6155 22.5332 11.5146 22.2572C11.3144 21.7105 11.2716 21.1453 11.3046 20.5682C11.3391 19.9654 11.4539 19.3776 11.6181 18.7979C11.8111 18.1163 12.0788 17.4651 12.4314 16.8495C12.7099 16.3635 13.0337 15.9105 13.4095 15.4946C13.67 15.2068 13.9423 14.9309 14.246 14.6884C14.6625 14.3559 15.0985 14.0522 15.5901 13.8375C15.8588 13.7201 16.1399 13.6439 16.4426 13.627C16.3813 13.6862 16.3201 13.7459 16.2583 13.804C15.9319 14.1088 15.6076 14.4166 15.3137 14.7533C15.0697 15.0333 14.8437 15.3273 14.6409 15.6387C14.4906 15.8698 14.3361 16.0989 14.2033 16.3398C14.0432 16.6297 13.8939 16.9262 13.7591 17.2284C13.6417 17.4914 13.5418 17.7637 13.4517 18.0376C13.3158 18.4504 13.233 18.8751 13.1985 19.3096C13.1635 19.7487 13.1913 20.1827 13.2849 20.612C13.3848 21.0691 13.5655 21.4938 13.8471 21.8696C14.0937 22.198 14.4061 22.4467 14.7788 22.6238C15.202 22.825 15.6478 22.9141 16.1131 22.927C16.4138 22.9352 16.7098 22.9105 17.0017 22.8379C17.0835 22.8173 17.1638 22.7911 17.2451 22.7674L17.2457 22.7669Z" fill="#DBA2A2"/>
</g>
<defs>
<clipPath id="clip0_4100_240903">
<rect width="35.6578" height="38" fill="white"/>
</clipPath>
</defs>
</svg>
