<svg width="624" height="273" viewBox="0 0 624 273" fill="none" xmlns="http://www.w3.org/2000/svg">
  <g filter="url(#filter0_d_368_41280)">
    <path fill-rule="evenodd" clip-rule="evenodd"
      d="M251.747 250.761C245.071 260.205 234.067 266.372 221.621 266.372C209.176 266.372 198.172 260.205 191.496 250.761C184.82 260.205 173.815 266.372 161.37 266.372C148.925 266.372 137.92 260.205 131.244 250.761C124.568 260.205 113.564 266.372 101.118 266.372C88.6733 266.372 77.6685 260.205 70.9927 250.761C64.3168 260.205 53.312 266.372 40.8669 266.372C20.5059 266.372 4 249.866 4 229.505C4 215.791 11.4874 203.827 22.5973 197.476C11.4874 191.125 4 179.16 4 165.447C4 152.005 11.1941 140.243 21.9422 133.801C11.1941 127.36 4 115.598 4 102.156C4 88.7143 11.1934 76.953 21.9405 70.5113C11.1934 64.0697 4 52.3083 4 38.8669C4 18.5059 20.5059 2 40.8669 2C53.312 2 64.3168 8.16646 70.9927 17.6106C77.6685 8.16646 88.6733 2 101.118 2C113.564 2 124.568 8.16646 131.244 17.6106C137.92 8.16646 148.925 2 161.37 2C173.815 2 184.82 8.16646 191.496 17.6106C198.172 8.16646 209.176 2 221.621 2C234.067 2 245.071 8.16647 251.747 17.6106C258.423 8.16647 269.428 2 281.873 2C294.318 2 305.323 8.16646 311.999 17.6106C318.675 8.16646 329.679 2 342.125 2C354.57 2 365.574 8.16646 372.25 17.6106C378.926 8.16646 389.931 2 402.376 2C414.821 2 425.826 8.16646 432.502 17.6106C439.178 8.16646 450.183 2 462.628 2C475.073 2 486.078 8.16646 492.753 17.6106C499.429 8.16646 510.434 2 522.879 2C535.324 2 546.329 8.16657 553.005 17.6109C559.681 8.16657 570.686 2 583.131 2C603.492 2 619.998 18.5059 619.998 38.8669C619.998 52.3079 612.805 64.069 602.058 70.5107C612.806 76.9522 620 88.7139 620 102.156C620 115.598 612.806 127.359 602.058 133.801C612.806 140.242 620 152.004 620 165.446C620 179.16 612.512 191.125 601.401 197.476C612.511 203.827 619.998 215.791 619.998 229.505C619.998 249.866 603.492 266.372 583.131 266.372C570.686 266.372 559.681 260.205 553.005 250.761C546.329 260.205 535.324 266.372 522.879 266.372C510.434 266.372 499.429 260.205 492.753 250.761C486.078 260.205 475.073 266.372 462.628 266.372C450.183 266.372 439.178 260.205 432.502 250.761C425.826 260.205 414.821 266.372 402.376 266.372C389.931 266.372 378.926 260.205 372.25 250.761C365.574 260.205 354.57 266.372 342.125 266.372C329.679 266.372 318.675 260.205 311.999 250.761C305.323 260.205 294.318 266.372 281.873 266.372C269.428 266.372 258.423 260.205 251.747 250.761ZM432.502 208.248C433.018 207.519 433.56 206.808 434.126 206.119C433.304 206.458 432.467 206.767 431.616 207.047C431.919 207.441 432.214 207.842 432.502 208.248Z"
      fill="url(#paint0_linear_368_41280)" />
  </g>
  <defs>
    <filter id="filter0_d_368_41280" x="0" y="0" width="624" height="272.372"
      filterUnits="userSpaceOnUse" color-interpolation-filters="sRGB">
      <feFlood flood-opacity="0" result="BackgroundImageFix" />
      <feColorMatrix in="SourceAlpha" type="matrix"
        values="0 0 0 0 0 0 0 0 0 0 0 0 0 0 0 0 0 0 127 0" result="hardAlpha" />
      <feOffset dy="2" />
      <feGaussianBlur stdDeviation="2" />
      <feComposite in2="hardAlpha" operator="out" />
      <feColorMatrix type="matrix"
        values="0 0 0 0 0.0980392 0 0 0 0 0.0980392 0 0 0 0 0.0980392 0 0 0 0.12 0" />
      <feBlend mode="normal" in2="BackgroundImageFix" result="effect1_dropShadow_368_41280" />
      <feBlend mode="normal" in="SourceGraphic" in2="effect1_dropShadow_368_41280" result="shape" />
    </filter>
    <linearGradient id="paint0_linear_368_41280" x1="312" y1="2" x2="312" y2="266.372"
      gradientUnits="userSpaceOnUse">
      <stop stop-color="#FFF2E2" />
      <stop offset="1" stop-color="#C4B7BA" />
    </linearGradient>
  </defs>
</svg>
