<svg width="835" height="363" viewBox="0 0 835 363" fill="none" xmlns="http://www.w3.org/2000/svg">
  <g filter="url(#filter0_d_234_56385)">
    <path fillRule="evenodd" clipRule="evenodd"
      d="M337.054 335.566C328.103 348.23 313.346 356.498 296.658 356.498C279.971 356.498 265.214 348.23 256.262 335.566C247.311 348.23 232.554 356.498 215.866 356.498C199.179 356.498 184.422 348.23 175.471 335.566C166.519 348.23 151.762 356.498 135.075 356.498C118.387 356.498 103.63 348.23 94.6787 335.566C85.727 348.23 70.9705 356.498 54.2828 356.498C26.9805 356.498 4.84766 334.365 4.84766 307.063C4.84766 288.675 14.8876 272.631 29.7849 264.115C14.8876 255.599 4.84766 239.556 4.84766 221.167C4.84766 203.143 14.4943 187.371 28.9065 178.734C14.4943 170.096 4.84766 154.325 4.84766 136.3C4.84766 118.276 14.4933 102.505 28.9042 93.8675C14.4933 85.2298 4.84766 69.4589 4.84766 51.4351C4.84766 24.1329 26.9805 2 54.2828 2C70.9705 2 85.727 10.2687 94.6787 22.9324C103.63 10.2687 118.387 2 135.075 2C151.762 2 166.519 10.2687 175.471 22.9324C184.422 10.2687 199.179 2 215.866 2C232.554 2 247.311 10.2687 256.262 22.9324C265.214 10.2687 279.971 2 296.658 2C313.346 2 328.103 10.2687 337.054 22.9324C346.006 10.2687 360.762 2 377.45 2C394.138 2 408.894 10.2687 417.846 22.9324C426.798 10.2687 441.554 2 458.242 2C474.93 2 489.686 10.2687 498.638 22.9324C507.59 10.2687 522.346 2 539.034 2C555.722 2 570.478 10.2687 579.43 22.9324C588.381 10.2687 603.138 2 619.826 2C636.513 2 651.27 10.2687 660.222 22.9324C669.173 10.2687 683.93 2 700.617 2C717.305 2 732.062 10.2688 741.014 22.9328C749.965 10.2688 764.722 2 781.41 2C808.712 2 830.845 24.1329 830.845 51.4351C830.845 69.4584 821.2 85.2289 806.79 93.8667C821.201 102.504 830.848 118.275 830.848 136.3C830.848 154.324 821.201 170.096 806.789 178.733C821.201 187.371 830.848 203.142 830.848 221.166C830.848 239.556 820.807 255.6 805.908 264.116C820.805 272.631 830.845 288.675 830.845 307.063C830.845 334.365 808.712 356.498 781.41 356.498C764.722 356.498 749.965 348.229 741.014 335.565C732.062 348.229 717.305 356.498 700.617 356.498C683.93 356.498 669.173 348.23 660.222 335.566C651.27 348.23 636.513 356.498 619.826 356.498C603.138 356.498 588.381 348.23 579.43 335.566C570.478 348.23 555.722 356.498 539.034 356.498C522.346 356.498 507.59 348.23 498.638 335.566C489.686 348.23 474.93 356.498 458.242 356.498C441.554 356.498 426.798 348.23 417.846 335.566C408.894 348.23 394.138 356.498 377.45 356.498C360.762 356.498 346.006 348.23 337.054 335.566ZM579.43 278.56C580.122 277.582 580.848 276.629 581.607 275.705C580.505 276.159 579.382 276.574 578.241 276.949C578.648 277.478 579.044 278.015 579.43 278.56Z"
      fill="url(#paint0_linear_234_56385)" />
  </g>
  <defs>
    <filter id="filter0_d_234_56385" x="0.847656" y="0" width="834" height="362.498"
      filterUnits="userSpaceOnUse" color-interpolation-filters="sRGB">
      <feFlood flood-opacity="0" result="BackgroundImageFix" />
      <feColorMatrix in="SourceAlpha" type="matrix"
        values="0 0 0 0 0 0 0 0 0 0 0 0 0 0 0 0 0 0 127 0" result="hardAlpha" />
      <feOffset dy="2" />
      <feGaussianBlur stdDeviation="2" />
      <feComposite in2="hardAlpha" operator="out" />
      <feColorMatrix type="matrix"
        values="0 0 0 0 0.0980392 0 0 0 0 0.0980392 0 0 0 0 0.0980392 0 0 0 0.12 0" />
      <feBlend mode="normal" in2="BackgroundImageFix" result="effect1_dropShadow_234_56385" />
      <feBlend mode="normal" in="SourceGraphic" in2="effect1_dropShadow_234_56385" result="shape" />
    </filter>
    <linearGradient id="paint0_linear_234_56385" x1="417.848" y1="2" x2="417.848" y2="356.498"
      gradientUnits="userSpaceOnUse">
      <stop stop-color="#FFF2E2" />
      <stop offset="1" stop-color="#C4B7BA" />
    </linearGradient>
  </defs>
</svg>
