<svg width="624" height="229" viewBox="0 0 624 229" fill="none" xmlns="http://www.w3.org/2000/svg">
  <g filter="url(#filter0_d_368_41282)">
    <path
      d="M604.809 59.1256C613.895 53.8064 619.998 43.9424 619.998 32.653C619.998 15.7238 606.275 2 589.345 2C578.895 2 569.665 7.23006 564.132 15.2156C558.599 7.23016 549.37 2.00017 538.919 2.00017C528.468 2.00017 519.239 7.23019 513.706 15.2157C508.172 7.23019 498.943 2.00017 488.492 2.00017C478.041 2.00017 468.812 7.23019 463.279 15.2157C457.746 7.23019 448.517 2.00017 438.066 2.00017C427.615 2.00017 418.386 7.23019 412.852 15.2157C407.319 7.23019 398.09 2.00017 387.639 2.00017C377.188 2.00017 367.959 7.23019 362.426 15.2157C356.893 7.23019 347.663 2.00017 337.213 2.00017C326.762 2.00017 317.532 7.23019 311.999 15.2157C306.466 7.23019 297.237 2.00017 286.786 2.00017C276.335 2.00017 267.106 7.23019 261.573 15.2157C256.039 7.23019 246.81 2.00017 236.359 2.00017C225.909 2.00017 216.679 7.23019 211.146 15.2157C205.613 7.23019 196.384 2.00017 185.933 2.00017C175.482 2.00017 166.253 7.23019 160.719 15.2157C155.186 7.23019 145.957 2.00017 135.506 2.00017C125.055 2.00017 115.826 7.23019 110.293 15.2157C104.76 7.23019 95.5304 2.00017 85.0796 2.00017C74.6288 2.00017 65.3995 7.23019 59.8663 15.2157C54.3331 7.23019 45.1038 2.00017 34.653 2.00017C17.7238 2.00017 4 15.724 4 32.6532C4 43.9428 10.1033 53.807 19.1905 59.1262C10.1033 64.4453 4 74.3095 4 85.5992C4 96.8888 10.1033 106.753 19.1905 112.072C10.1033 117.391 4 127.255 4 138.545C4 149.86 10.131 159.744 19.2523 165.054C10.131 170.365 4 180.248 4 191.563C4 208.493 17.7238 222.216 34.653 222.216C45.1038 222.216 54.3331 216.986 59.8663 209.001C65.3995 216.986 74.6288 222.216 85.0796 222.216C95.5304 222.216 104.76 216.986 110.293 209.001C115.826 216.986 125.055 222.216 135.506 222.216C145.957 222.216 155.186 216.986 160.719 209.001C166.253 216.986 175.482 222.216 185.933 222.216C196.384 222.216 205.613 216.986 211.146 209.001C216.679 216.986 225.909 222.216 236.359 222.216C246.81 222.216 256.039 216.986 261.573 209.001C267.106 216.986 276.335 222.216 286.786 222.216C297.237 222.216 306.466 216.986 311.999 209.001C317.532 216.986 326.762 222.216 337.213 222.216C347.663 222.216 356.893 216.986 362.426 209.001C367.959 216.986 377.188 222.216 387.639 222.216C398.09 222.216 407.319 216.986 412.852 209.001C418.386 216.986 427.615 222.216 438.066 222.216C448.517 222.216 457.746 216.986 463.279 209.001C468.812 216.986 478.041 222.216 488.492 222.216C498.943 222.216 508.172 216.986 513.706 209.001C519.239 216.986 528.468 222.216 538.919 222.216C549.37 222.216 558.599 216.986 564.132 209.001C569.665 216.986 578.895 222.216 589.345 222.216C606.275 222.216 619.998 208.492 619.998 191.563C619.998 180.248 613.868 170.365 604.747 165.054C613.868 159.744 620 149.861 620 138.545C620 127.255 613.896 117.391 604.809 112.072C613.896 106.753 620 96.8887 620 85.599C620 74.309 613.896 64.4446 604.809 59.1256Z"
      fill="url(#paint0_linear_368_41282)" />
  </g>
  <defs>
    <filter id="filter0_d_368_41282" x="0" y="0" width="624" height="228.216"
      filterUnits="userSpaceOnUse" color-interpolation-filters="sRGB">
      <feFlood flood-opacity="0" result="BackgroundImageFix" />
      <feColorMatrix in="SourceAlpha" type="matrix"
        values="0 0 0 0 0 0 0 0 0 0 0 0 0 0 0 0 0 0 127 0" result="hardAlpha" />
      <feOffset dy="2" />
      <feGaussianBlur stdDeviation="2" />
      <feComposite in2="hardAlpha" operator="out" />
      <feColorMatrix type="matrix"
        values="0 0 0 0 0.0980392 0 0 0 0 0.0980392 0 0 0 0 0.0980392 0 0 0 0.12 0" />
      <feBlend mode="normal" in2="BackgroundImageFix" result="effect1_dropShadow_368_41282" />
      <feBlend mode="normal" in="SourceGraphic" in2="effect1_dropShadow_368_41282" result="shape" />
    </filter>
    <linearGradient id="paint0_linear_368_41282" x1="312" y1="2" x2="312" y2="222.216"
      gradientUnits="userSpaceOnUse">
      <stop stop-color="#FFF2E2" />
      <stop offset="1" stop-color="#C4B7BA" />
    </linearGradient>
  </defs>
</svg>
