<svg width="304" height="401" viewBox="0 0 304 401" fill="none" xmlns="http://www.w3.org/2000/svg">
  <path
    d="M152 400.05C165.285 400.05 177.489 395.419 187.086 387.684C194.067 382.057 205.982 382.057 212.963 387.684C222.56 395.419 234.764 400.05 248.05 400.05C278.95 400.05 304 375 304 344.099C304 331.925 300.112 320.659 293.509 311.475C289.176 305.448 289.176 296.673 293.509 290.646C300.112 281.462 304 270.196 304 258.022C304 245.042 299.58 233.094 292.163 223.601C285.597 215.199 285.597 197.096 292.163 188.693C299.58 179.201 304 167.253 304 154.273C304 140.875 299.291 128.577 291.437 118.944C285.497 111.658 285.497 98.5655 291.437 91.2798C299.291 81.6466 304 69.3485 304 55.9505C304 25.0499 278.95 6.86646e-06 248.05 6.86646e-06C234.764 6.86646e-06 222.56 4.63058 212.963 12.3658C205.982 17.993 194.067 17.993 187.086 12.3658C177.489 4.63058 165.285 6.86646e-06 152 6.86646e-06C138.714 6.86646e-06 126.51 4.63055 116.914 12.3658C109.932 17.9928 98.0178 17.9928 91.0366 12.3658C81.44 4.63055 69.2359 0 55.9504 0C25.0498 0 0 25.0499 0 55.9505C0 69.2361 4.63055 81.4401 12.3658 91.0368C17.9928 98.018 17.9928 109.933 12.3658 116.914C4.63056 126.51 6.10332e-06 138.714 6.10332e-06 152C6.10332e-06 165.286 4.63068 177.49 12.3661 187.087C17.9935 194.068 17.9935 205.984 12.3661 212.965C4.63068 222.562 6.10332e-06 234.766 6.10332e-06 248.052C6.10332e-06 261.338 4.63056 273.542 12.3658 283.138C17.9928 290.12 17.9928 302.034 12.3658 309.015C4.63056 318.612 6.10332e-06 330.816 6.10332e-06 344.102C6.10332e-06 375.002 25.0498 400.052 55.9504 400.052C69.2365 400.052 81.4409 395.421 91.0378 387.685C98.0188 382.058 109.933 382.058 116.915 387.685C126.511 395.419 138.715 400.05 152 400.05Z"
    fill="url(#paint0_linear_2271_41632)" />
  <defs>
    <linearGradient id="paint0_linear_2271_41632" x1="152" y1="0" x2="152" y2="400.052"
      gradientUnits="userSpaceOnUse">
      <stop stop-color="#FFF2E2" />
      <stop offset="1" stop-color="#C4B7BA" />
    </linearGradient>
  </defs>
</svg>
