<svg width="730" height="730" viewBox="0 0 730 730" fill="none" xmlns="http://www.w3.org/2000/svg">
  <g filter="url(#filter0_d_368_41292)">
    <path
      d="M703.683 213.003C693.527 200.404 693.527 178.9 703.683 166.301C717.643 148.981 726 126.956 726 102.978C726 47.2094 680.791 2 625.022 2C601.044 2 579.019 10.3571 561.699 24.3175C549.099 34.4731 527.596 34.4731 514.997 24.3175C497.677 10.3571 475.651 2 451.674 2C427.696 2 405.671 10.3571 388.351 24.3174C375.752 34.4731 354.248 34.4731 341.649 24.3175C324.329 10.3571 302.304 2 278.326 2C254.349 2 232.323 10.3571 215.003 24.3174C202.404 34.473 180.9 34.4731 168.301 24.3174C150.981 10.3571 128.956 2 104.978 2C49.2094 2 4 47.2094 4 102.978C4 126.956 12.3571 148.981 26.3174 166.301C36.473 178.9 36.4731 200.404 26.3174 213.003C12.3571 230.323 4 252.349 4 276.326C4 300.304 12.3573 322.33 26.318 339.65C36.4742 352.25 36.4742 373.755 26.318 386.355C12.3573 403.675 4 425.701 4 449.679C4 473.656 12.3571 495.682 26.3175 513.001C36.4731 525.601 36.4731 547.104 26.3175 559.704C12.3571 577.023 4 599.049 4 623.026C4 678.795 49.2094 724.005 104.978 724.005C128.957 724.005 150.983 715.647 168.303 701.685C180.902 691.53 202.405 691.529 215.005 701.684C232.325 715.644 254.349 724 278.326 724C302.304 724 324.329 715.643 341.649 701.683C354.248 691.527 375.752 691.527 388.351 701.683C405.671 715.643 427.696 724 451.674 724C475.65 724 497.675 715.644 514.995 701.684C527.594 691.529 549.098 691.53 561.697 701.685C579.017 715.647 601.043 724.005 625.022 724.005C680.791 724.005 726 678.795 726 623.026C726 599.049 717.643 577.023 703.683 559.704C693.527 547.104 693.527 525.601 703.683 513.001C717.643 495.682 726 473.656 726 449.679C726 425.701 717.643 403.675 703.682 386.355C693.526 373.755 693.526 352.25 703.682 339.65C717.643 322.33 726 300.304 726 276.326C726 252.349 717.643 230.323 703.683 213.003Z"
      fill="url(#paint0_linear_368_41292)" />
  </g>
  <defs>
    <filter id="filter0_d_368_41292" x="0" y="0" width="730" height="730.004"
      filterUnits="userSpaceOnUse" color-interpolation-filters="sRGB">
      <feFlood flood-opacity="0" result="BackgroundImageFix" />
      <feColorMatrix in="SourceAlpha" type="matrix"
        values="0 0 0 0 0 0 0 0 0 0 0 0 0 0 0 0 0 0 127 0" result="hardAlpha" />
      <feOffset dy="2" />
      <feGaussianBlur stdDeviation="2" />
      <feComposite in2="hardAlpha" operator="out" />
      <feColorMatrix type="matrix"
        values="0 0 0 0 0.0980392 0 0 0 0 0.0980392 0 0 0 0 0.0980392 0 0 0 0.12 0" />
      <feBlend mode="normal" in2="BackgroundImageFix" result="effect1_dropShadow_368_41292" />
      <feBlend mode="normal" in="SourceGraphic" in2="effect1_dropShadow_368_41292" result="shape" />
    </filter>
    <linearGradient id="paint0_linear_368_41292" x1="365" y1="2" x2="365" y2="724.005"
      gradientUnits="userSpaceOnUse">
      <stop stop-color="#FFF2E2" />
      <stop offset="1" stop-color="#C4B7BA" />
    </linearGradient>
  </defs>
</svg>
