<svg width="834" height="446" viewBox="0 0 834 446" fill="none" xmlns="http://www.w3.org/2000/svg">
  <g filter="url(#filter0_d_181_47388)">
    <path
      d="M215.019 2C202.57 2 191.195 6.60173 182.504 14.197C178.171 17.9835 171.075 17.9835 166.742 14.197C158.051 6.60173 146.676 2 134.227 2C121.778 2 110.404 6.60175 101.712 14.197C97.3792 17.9835 90.2831 17.9835 85.9502 14.1971C77.2588 6.60175 65.8844 2 53.4351 2C26.1329 2 4 24.1329 4 51.4351C4 64.4651 9.04111 76.3176 17.2794 85.1488C21.5742 89.7527 21.5742 97.9823 17.2794 102.586C9.04111 111.417 4 123.27 4 136.3C4 149.33 9.04137 161.183 17.28 170.014C21.5752 174.618 21.5752 182.849 17.28 187.453C9.04137 196.284 4 208.137 4 221.167C4 234.197 9.04111 246.05 17.2794 254.881C21.5742 259.485 21.5742 267.714 17.2794 272.318C9.04111 281.15 4 293.002 4 306.032C4 318.893 8.91123 330.607 16.9605 339.401C21.0908 343.913 21.0908 351.742 16.9605 356.255C8.91123 365.048 4 376.762 4 389.623C4 416.926 26.1329 439.058 53.4351 439.058C65.885 439.058 77.2599 434.456 85.9514 426.86C90.2843 423.074 97.3804 423.073 101.714 426.86C110.405 434.454 121.779 439.056 134.227 439.056C146.676 439.056 158.051 434.454 166.742 426.859C171.075 423.072 178.171 423.072 182.504 426.859C191.196 434.454 202.57 439.056 215.019 439.056C227.468 439.056 238.842 434.454 247.533 426.86C251.866 423.073 258.962 423.074 263.295 426.86C271.986 434.456 283.361 439.058 295.811 439.058C308.26 439.058 319.635 434.457 328.326 426.861C332.659 423.075 339.755 423.075 344.088 426.861C352.779 434.457 364.154 439.058 376.603 439.058C389.053 439.058 400.428 434.456 409.119 426.86C413.452 423.074 420.548 423.073 424.881 426.86C433.572 434.454 444.946 439.056 457.395 439.056C469.844 439.056 481.218 434.454 489.91 426.859C494.243 423.072 501.339 423.072 505.672 426.859C514.363 434.454 525.737 439.056 538.187 439.056C550.635 439.056 562.009 434.454 570.7 426.86C575.033 423.073 582.129 423.074 586.462 426.86C595.154 434.456 606.529 439.058 618.978 439.058C631.428 439.058 642.802 434.457 651.493 426.861C655.826 423.075 662.922 423.075 667.255 426.861C675.947 434.457 687.321 439.058 699.77 439.058C712.219 439.058 723.594 434.457 732.285 426.861C736.618 423.075 743.714 423.075 748.047 426.861C756.739 434.457 768.113 439.058 780.562 439.058C807.865 439.058 829.998 416.926 829.998 389.623C829.998 376.763 825.087 365.049 817.038 356.255C812.908 351.743 812.908 343.913 817.038 339.401C825.088 330.607 830 318.893 830 306.031C830 293.001 824.959 281.149 816.721 272.317C812.426 267.714 812.426 259.484 816.721 254.88C824.959 246.049 830 234.196 830 221.166C830 208.136 824.959 196.283 816.72 187.452C812.425 182.848 812.425 174.618 816.72 170.014C824.959 161.183 830 149.33 830 136.3C830 123.269 824.958 111.416 816.72 102.585C812.425 97.9814 812.424 89.7518 816.719 85.1478C824.957 76.3167 829.998 64.4646 829.998 51.4351C829.998 24.1329 807.865 2 780.562 2C768.113 2 756.739 6.60176 748.047 14.1971C743.714 17.9836 736.618 17.9836 732.285 14.1971C723.594 6.60177 712.219 2 699.77 2C687.321 2 675.947 6.60174 667.255 14.197C662.922 17.9835 655.826 17.9835 651.493 14.197C642.802 6.60174 631.428 2 618.978 2C606.529 2 595.155 6.60174 586.463 14.197C582.13 17.9835 575.034 17.9835 570.701 14.197C562.01 6.60174 550.636 2 538.186 2C525.737 2 514.363 6.60174 505.672 14.197C501.339 17.9835 494.243 17.9835 489.91 14.197C481.218 6.60174 469.844 2 457.395 2C444.945 2 433.571 6.60173 424.88 14.197C420.547 17.9835 413.451 17.9835 409.118 14.197C400.426 6.60173 389.052 2 376.603 2C364.154 2 352.779 6.60173 344.088 14.197C339.755 17.9835 332.659 17.9835 328.326 14.197C319.634 6.60173 308.26 2 295.811 2C283.362 2 271.987 6.60173 263.296 14.197C258.963 17.9835 251.867 17.9835 247.534 14.197C238.843 6.60173 227.468 2 215.019 2Z"
      fill="url(#paint0_linear_181_47388)" />
  </g>
  <defs>
    <filter id="filter0_d_181_47388" x="0" y="0" width="834" height="445.059"
      filterUnits="userSpaceOnUse" color-interpolation-filters="sRGB">
      <feFlood flood-opacity="0" result="BackgroundImageFix" />
      <feColorMatrix in="SourceAlpha" type="matrix"
        values="0 0 0 0 0 0 0 0 0 0 0 0 0 0 0 0 0 0 127 0" result="hardAlpha" />
      <feOffset dy="2" />
      <feGaussianBlur stdDeviation="2" />
      <feComposite in2="hardAlpha" operator="out" />
      <feColorMatrix type="matrix"
        values="0 0 0 0 0.0980392 0 0 0 0 0.0980392 0 0 0 0 0.0980392 0 0 0 0.12 0" />
      <feBlend mode="normal" in2="BackgroundImageFix" result="effect1_dropShadow_181_47388" />
      <feBlend mode="normal" in="SourceGraphic" in2="effect1_dropShadow_181_47388" result="shape" />
    </filter>
    <linearGradient id="paint0_linear_181_47388" x1="417" y1="2" x2="417" y2="439.058"
      gradientUnits="userSpaceOnUse">
      <stop stop-color="#FFF2E2" />
      <stop offset="1" stop-color="#C4B7BA" />
    </linearGradient>
  </defs>
</svg>
