<svg width="308" height="308" viewBox="0 0 308 308" fill="none" xmlns="http://www.w3.org/2000/svg">
  <g filter="url(#filter0_d_368_39829)">
    <path
      d="M294.889 71.0075C291.943 67.849 291.943 62.2031 294.889 59.0445C300.541 52.9858 303.999 44.8544 303.999 35.9153C303.999 17.1844 288.815 2 270.084 2C261.436 2 253.543 5.23703 247.553 10.5656C244.537 13.2482 239.497 13.2482 236.481 10.5656C230.49 5.23716 222.598 2.0002 213.949 2.0002C204.954 2.0002 196.777 5.50214 190.706 11.2171C187.512 14.2238 181.708 14.2238 178.514 11.2171C172.444 5.50214 164.267 2.0002 155.271 2.0002C146.276 2.0002 138.099 5.50214 132.028 11.2171C128.834 14.2238 123.03 14.2238 119.836 11.217C113.766 5.50213 105.589 2.0002 96.5933 2.0002C87.598 2.0002 79.4207 5.50214 73.3502 11.217C70.1564 14.2238 64.3521 14.2238 61.1583 11.217C55.0879 5.50213 46.9105 2.0002 37.9153 2.0002C19.1844 2.0002 4 17.1846 4 35.9155C4 44.8548 7.45849 52.9863 13.1104 59.045C16.0569 62.2035 16.0569 67.8495 13.1104 71.008C7.45849 77.0667 4 85.1982 4 94.1375C4 103.077 7.45861 111.209 13.1107 117.267C16.0574 120.426 16.0574 126.072 13.1107 129.231C7.45861 135.29 4 143.421 4 152.361C4 161.3 7.45849 169.432 13.1104 175.49C16.0569 178.649 16.0569 184.295 13.1104 187.453C7.45849 193.512 4 201.644 4 210.583C4 219.406 7.36938 227.443 12.8917 233.476C15.7253 236.571 15.7253 241.943 12.8917 245.038C7.36938 251.071 4 259.108 4 267.931C4 286.662 19.1844 301.846 37.9153 301.846C46.855 301.846 54.9868 298.388 61.0456 292.735C64.204 289.789 69.85 289.788 73.0086 292.735C79.0672 298.386 87.1984 301.845 96.1373 301.845C105.077 301.845 113.208 298.386 119.267 292.734C122.425 289.788 128.071 289.788 131.23 292.734C137.289 298.386 145.42 301.845 154.359 301.845C163.298 301.845 171.429 298.386 177.488 292.735C180.647 289.788 186.293 289.789 189.451 292.735C195.51 298.388 203.642 301.846 212.581 301.846C221.426 301.846 229.48 298.461 235.518 292.915C238.624 290.061 244.042 290.061 247.148 292.915C253.186 298.461 261.24 301.846 270.085 301.846C288.816 301.846 304 286.662 304 267.931C304 259.108 300.631 251.071 295.108 245.038C292.274 241.943 292.274 236.571 295.108 233.475C300.631 227.442 304 219.406 304 210.582C304 201.643 300.542 193.512 294.89 187.453C291.943 184.294 291.943 178.648 294.89 175.49C300.542 169.431 304 161.3 304 152.36C304 143.421 300.541 135.289 294.889 129.231C291.943 126.072 291.943 120.426 294.889 117.267C300.541 111.208 304 103.077 304 94.1372C304 85.1978 300.541 77.0662 294.889 71.0075Z"
      fill="url(#paint0_linear_368_39829)" />
  </g>
  <defs>
    <filter id="filter0_d_368_39829" x="0" y="0" width="308" height="307.847"
      filterUnits="userSpaceOnUse" color-interpolation-filters="sRGB">
      <feFlood flood-opacity="0" result="BackgroundImageFix" />
      <feColorMatrix in="SourceAlpha" type="matrix"
        values="0 0 0 0 0 0 0 0 0 0 0 0 0 0 0 0 0 0 127 0" result="hardAlpha" />
      <feOffset dy="2" />
      <feGaussianBlur stdDeviation="2" />
      <feComposite in2="hardAlpha" operator="out" />
      <feColorMatrix type="matrix"
        values="0 0 0 0 0.0980392 0 0 0 0 0.0980392 0 0 0 0 0.0980392 0 0 0 0.12 0" />
      <feBlend mode="normal" in2="BackgroundImageFix" result="effect1_dropShadow_368_39829" />
      <feBlend mode="normal" in="SourceGraphic" in2="effect1_dropShadow_368_39829" result="shape" />
    </filter>
    <linearGradient id="paint0_linear_368_39829" x1="154" y1="2" x2="154" y2="301.846"
      gradientUnits="userSpaceOnUse">
      <stop stop-color="#FFF2E2" />
      <stop offset="1" stop-color="#C4B7BA" />
    </linearGradient>
  </defs>
</svg>
