<svg width="834" height="550" viewBox="0 0 834 550" fill="none" xmlns="http://www.w3.org/2000/svg">
  <g filter="url(#filter0_d_358_42795)">
    <path
      d="M228.747 530.493C221.597 524.943 210.266 524.943 203.115 530.493C192.769 538.524 179.775 543.305 165.664 543.305C151.554 543.305 138.56 538.525 128.214 530.494C121.063 524.944 109.733 524.944 102.582 530.495C92.236 538.527 79.2412 543.308 65.1296 543.308C31.3686 543.308 4 515.939 4 482.179C4 467.716 9.02265 454.426 17.4188 443.958C23.4683 436.417 23.4683 423.716 17.4188 416.174C9.02265 405.706 4 392.417 4 377.954C4 363.438 9.05919 350.105 17.5104 339.62C23.6584 331.992 23.6584 318.975 17.5104 311.347C9.05919 300.862 4 287.529 4 273.013C4 258.498 9.05932 245.164 17.5107 234.679C23.6591 227.051 23.6591 214.032 17.5107 206.405C9.05932 195.919 4 182.586 4 168.07C4 153.555 9.05919 140.221 17.5104 129.736C23.6584 122.109 23.6584 109.091 17.5104 101.464C9.05919 90.9787 4 77.6449 4 63.1296C4 29.3686 31.3686 2 65.1296 2C79.2406 2 92.2349 6.78124 102.581 14.8121C109.731 20.3626 121.062 20.3626 128.213 14.8121C138.559 6.78124 151.553 2 165.664 2C179.775 2 192.769 6.78125 203.115 14.8121C210.266 20.3626 221.597 20.3626 228.747 14.8121C239.093 6.78125 252.087 2 266.198 2C280.309 2 293.304 6.78122 303.65 14.812C310.8 20.3625 322.131 20.3625 329.281 14.812C339.627 6.78122 352.622 2 366.733 2C380.844 2 393.838 6.78124 404.184 14.8121C411.334 20.3626 422.665 20.3626 429.816 14.8121C440.162 6.78124 453.156 2 467.267 2C481.378 2 494.372 6.78125 504.718 14.8121C511.869 20.3626 523.2 20.3626 530.35 14.8121C540.696 6.78125 553.69 2 567.802 2C581.913 2 594.907 6.78127 605.253 14.8122C612.404 20.3627 623.734 20.3627 630.885 14.8121C641.231 6.78127 654.225 2 668.336 2C682.447 2 695.442 6.78122 705.787 14.812C712.938 20.3625 724.269 20.3625 731.419 14.812C741.765 6.78122 754.759 2 768.87 2C802.631 2 830 29.3686 830 63.1296C830 77.6449 824.941 90.9787 816.49 101.464C810.342 109.091 810.342 122.109 816.49 129.736C824.941 140.221 830 153.555 830 168.07C830 182.586 824.941 195.919 816.489 206.404C810.341 214.032 810.341 227.051 816.489 234.679C824.941 245.164 830 258.498 830 273.013C830 287.529 824.941 300.862 816.49 311.347C810.342 318.975 810.342 331.992 816.49 339.62C824.941 350.105 830 363.438 830 377.954C830 392.417 824.977 405.706 816.581 416.174C810.532 423.716 810.532 436.417 816.581 443.958C824.977 454.426 830 467.716 830 482.179C830 515.939 802.631 543.308 768.87 543.308C754.759 543.308 741.765 538.527 731.419 530.496C724.269 524.946 712.938 524.946 705.787 530.496C695.442 538.527 682.447 543.308 668.336 543.308C654.225 543.308 641.23 538.526 630.884 530.495C623.733 524.944 612.402 524.944 605.251 530.494C594.906 538.525 581.912 543.305 567.801 543.305C553.69 543.305 540.696 538.524 530.35 530.493C523.2 524.943 511.869 524.943 504.718 530.493C494.372 538.524 481.378 543.305 467.267 543.305C453.157 543.305 440.163 538.525 429.817 530.494C422.666 524.944 411.336 524.944 404.185 530.495C393.839 538.526 380.844 543.308 366.733 543.308C352.621 543.308 339.626 538.526 329.28 530.495C322.13 524.944 310.799 524.944 303.648 530.494C293.303 538.525 280.309 543.305 266.198 543.305C252.087 543.305 239.093 538.524 228.747 530.493Z"
      fill="url(#paint0_linear_358_42795)" />
  </g>
  <defs>
    <filter id="filter0_d_358_42795" x="0" y="0" width="834" height="549.308"
      filterUnits="userSpaceOnUse" color-interpolation-filters="sRGB">
      <feFlood flood-opacity="0" result="BackgroundImageFix" />
      <feColorMatrix in="SourceAlpha" type="matrix"
        values="0 0 0 0 0 0 0 0 0 0 0 0 0 0 0 0 0 0 127 0" result="hardAlpha" />
      <feOffset dy="2" />
      <feGaussianBlur stdDeviation="2" />
      <feComposite in2="hardAlpha" operator="out" />
      <feColorMatrix type="matrix"
        values="0 0 0 0 0.0980392 0 0 0 0 0.0980392 0 0 0 0 0.0980392 0 0 0 0.12 0" />
      <feBlend mode="normal" in2="BackgroundImageFix" result="effect1_dropShadow_358_42795" />
      <feBlend mode="normal" in="SourceGraphic" in2="effect1_dropShadow_358_42795" result="shape" />
    </filter>
    <linearGradient id="paint0_linear_358_42795" x1="417" y1="2" x2="417" y2="543.308"
      gradientUnits="userSpaceOnUse">
      <stop stop-color="#FFF2E2" />
      <stop offset="1" stop-color="#C4B7BA" />
    </linearGradient>
  </defs>
</svg>
