<svg width="834" height="446" viewBox="0 0 834 446" fill="none" xmlns="http://www.w3.org/2000/svg">
  <g filter="url(#filter0_d_181_47385)">
    <path
      d="M818.33 85.4077C814.869 81.8578 814.869 75.3426 818.329 71.7925C825.55 64.3858 829.998 54.2638 829.998 43.1029C829.998 20.4024 811.596 2 788.896 2C778.246 2 768.542 6.05041 761.24 12.6948C757.891 15.7426 752.283 15.7426 748.933 12.6949C741.632 6.05057 731.928 2.00023 721.278 2.00023C710.628 2.00023 700.924 6.05064 693.623 12.695C690.274 15.7428 684.665 15.7428 681.316 12.695C674.015 6.05064 664.311 2.00023 653.661 2.00023C643.011 2.00023 633.307 6.05064 626.005 12.695C622.656 15.7428 617.048 15.7428 613.698 12.695C606.397 6.05064 596.693 2.00023 586.043 2.00023C575.393 2.00023 565.689 6.05064 558.388 12.695C555.039 15.7428 549.43 15.7428 546.081 12.695C538.78 6.05064 529.076 2.00023 518.426 2.00023C507.776 2.00023 498.072 6.05064 490.77 12.695C487.421 15.7428 481.813 15.7428 478.463 12.695C471.162 6.05063 461.458 2.00023 450.808 2.00023C440.158 2.00023 430.454 6.05063 423.153 12.695C419.804 15.7428 414.195 15.7428 410.846 12.695C403.544 6.05063 393.841 2.00023 383.191 2.00023C372.541 2.00023 362.837 6.05063 355.535 12.695C352.186 15.7428 346.578 15.7428 343.228 12.695C335.927 6.05063 326.223 2.00023 315.573 2.00023C304.923 2.00023 295.219 6.05063 287.918 12.695C284.569 15.7428 278.96 15.7428 275.611 12.695C268.309 6.05063 258.606 2.00023 247.956 2.00023C237.306 2.00023 227.602 6.05063 220.3 12.695C216.951 15.7428 211.343 15.7428 207.993 12.695C200.692 6.05063 190.988 2.00023 180.338 2.00023C169.688 2.00023 159.984 6.05063 152.683 12.695C149.334 15.7428 143.725 15.7428 140.376 12.695C133.074 6.05063 123.371 2.00023 112.721 2.00023C102.071 2.00023 92.3667 6.05065 85.0652 12.6951C81.716 15.7428 76.1075 15.7428 72.7583 12.6951C65.4568 6.05065 55.7528 2.00023 45.1029 2.00023C22.4024 2.00023 4 20.4026 4 43.1031C4 54.2644 8.4487 64.3867 15.6697 71.7934C19.1306 75.3434 19.1306 81.8586 15.6697 85.4086C8.4487 92.8154 4 102.938 4 114.099C4 125.26 8.4487 135.382 15.6697 142.789C19.1306 146.339 19.1306 152.854 15.6697 156.404C8.4487 163.811 4 173.933 4 185.095C4 196.256 8.4487 206.378 15.6697 213.785C19.1306 217.335 19.1306 223.85 15.6697 227.4C8.4487 234.807 4 244.929 4 256.091C4 267.252 8.4487 277.374 15.6697 284.781C19.1306 288.331 19.1306 294.846 15.6697 298.396C8.4487 305.803 4 315.925 4 327.086C4 338.248 8.4486 348.37 15.6694 355.776C19.1302 359.326 19.1302 365.841 15.6694 369.391C8.4486 376.798 4 386.92 4 398.081C4 420.782 22.4024 439.184 45.1029 439.184C55.7534 439.184 65.4579 435.133 72.7595 428.488C76.1086 425.44 81.7171 425.44 85.0664 428.488C92.3677 435.131 102.071 439.181 112.721 439.181C123.371 439.181 133.074 435.131 140.376 428.487C143.725 425.439 149.334 425.439 152.683 428.487C159.984 435.131 169.688 439.181 180.338 439.181C190.988 439.181 200.691 435.131 207.993 428.487C211.342 425.44 216.95 425.44 220.299 428.488C227.601 435.133 237.305 439.183 247.956 439.183C258.606 439.183 268.309 435.133 275.611 428.488C278.96 425.441 284.569 425.441 287.918 428.488C295.219 435.133 304.923 439.183 315.573 439.183C326.223 439.183 335.927 435.133 343.228 428.489C346.577 425.441 352.186 425.441 355.535 428.489C362.836 435.134 372.54 439.184 383.191 439.184C393.841 439.184 403.546 435.133 410.847 428.488C414.196 425.44 419.805 425.44 423.154 428.488C430.455 435.131 440.159 439.181 450.808 439.181C461.458 439.181 471.162 435.131 478.463 428.487C481.813 425.439 487.421 425.439 490.77 428.487C498.072 435.131 507.776 439.181 518.426 439.181C529.075 439.181 538.779 435.131 546.08 428.487C549.429 425.44 555.038 425.44 558.387 428.488C565.689 435.133 575.393 439.183 586.043 439.183C596.693 439.183 606.397 435.133 613.698 428.488C617.048 425.441 622.656 425.441 626.005 428.488C633.307 435.133 643.011 439.183 653.661 439.183C664.31 439.183 674.014 435.133 681.316 428.489C684.665 425.441 690.273 425.441 693.622 428.489C700.924 435.134 710.628 439.184 721.278 439.184C731.928 439.184 741.632 435.134 748.934 428.489C752.283 425.442 757.891 425.442 761.24 428.489C768.542 435.134 778.246 439.184 788.896 439.184C811.596 439.184 829.998 420.782 829.998 398.081C829.998 386.92 825.55 376.798 818.33 369.392C814.869 365.842 814.869 359.327 818.33 355.777C825.551 348.37 830 338.248 830 327.086C830 315.925 825.551 305.803 818.33 298.396C814.869 294.846 814.869 288.331 818.33 284.781C825.551 277.374 830 267.252 830 256.09C830 244.929 825.551 234.807 818.33 227.4C814.869 223.85 814.869 217.335 818.33 213.785C825.551 206.378 830 196.256 830 185.094C830 173.933 825.551 163.811 818.33 156.404C814.869 152.854 814.869 146.339 818.33 142.789C825.551 135.382 830 125.26 830 114.099C830 102.937 825.551 92.8145 818.33 85.4077Z"
      fill="url(#paint0_linear_181_47385)" />
  </g>
  <defs>
    <filter id="filter0_d_181_47385" x="0" y="0" width="834" height="445.184"
      filterUnits="userSpaceOnUse" color-interpolation-filters="sRGB">
      <feFlood flood-opacity="0" result="BackgroundImageFix" />
      <feColorMatrix in="SourceAlpha" type="matrix"
        values="0 0 0 0 0 0 0 0 0 0 0 0 0 0 0 0 0 0 127 0" result="hardAlpha" />
      <feOffset dy="2" />
      <feGaussianBlur stdDeviation="2" />
      <feComposite in2="hardAlpha" operator="out" />
      <feColorMatrix type="matrix"
        values="0 0 0 0 0.0980392 0 0 0 0 0.0980392 0 0 0 0 0.0980392 0 0 0 0.12 0" />
      <feBlend mode="normal" in2="BackgroundImageFix" result="effect1_dropShadow_181_47385" />
      <feBlend mode="normal" in="SourceGraphic" in2="effect1_dropShadow_181_47385" result="shape" />
    </filter>
    <linearGradient id="paint0_linear_181_47385" x1="417" y1="2" x2="417" y2="439.184"
      gradientUnits="userSpaceOnUse">
      <stop stop-color="#FFF2E2" />
      <stop offset="1" stop-color="#C4B7BA" />
    </linearGradient>
  </defs>
</svg>
