<svg width="624" height="625" viewBox="0 0 624 625" fill="none" xmlns="http://www.w3.org/2000/svg">
  <g filter="url(#filter0_d_181_47386)">
    <path
      d="M260.767 618.014C276.408 618.014 290.602 611.813 301.023 601.736C305.984 596.938 314.971 596.939 319.932 601.737C330.353 611.815 344.547 618.016 360.19 618.016C376.222 618.016 390.732 611.503 401.218 600.977C406.407 595.77 416.511 595.77 421.7 600.977C432.187 611.503 446.697 618.016 462.728 618.016C478.36 618.016 492.546 611.823 502.965 601.757C507.922 596.968 516.888 596.968 521.845 601.757C532.265 611.825 546.451 618.018 562.084 618.018C594.07 618.018 620 592.088 620 560.102C620 544.375 613.732 530.112 603.557 519.676C598.68 514.673 598.68 505.493 603.557 500.491C613.731 490.055 620 475.792 620 460.065C620 444.338 613.731 430.075 603.556 419.639C598.68 414.637 598.68 405.456 603.556 400.454C613.731 390.018 620 375.755 620 360.028C620 344.301 613.731 330.038 603.556 319.602C598.68 314.599 598.68 305.419 603.556 300.417C613.731 289.98 620 275.717 620 259.991C620 244.264 613.731 230.001 603.556 219.564C598.68 214.562 598.68 205.382 603.556 200.38C613.731 189.943 620 175.68 620 159.953C620 144.226 613.731 129.964 603.557 119.527C598.68 114.525 598.68 105.345 603.557 100.343C613.731 89.9061 620 75.6433 620 59.9164C620 27.93 594.07 2 562.083 2C546.451 2 532.265 8.19332 521.846 18.2601C516.889 23.0494 507.923 23.0494 502.966 18.2601C492.546 8.19332 478.361 2 462.728 2C446.979 2 432.698 8.28622 422.258 18.4864C417.244 23.3844 408.01 23.3844 402.997 18.4864C392.556 8.28622 378.275 2 362.526 2C346.777 2 332.496 8.28635 322.055 18.4867C317.042 23.3849 307.807 23.3849 302.794 18.4867C292.353 8.28635 278.072 2 262.323 2C246.574 2 232.293 8.2862 221.852 18.4864C216.839 23.3843 207.605 23.3843 202.591 18.4864C192.151 8.2862 177.87 2 162.121 2C146.371 2 132.09 8.28648 121.65 18.4871C116.636 23.3853 107.401 23.3853 102.388 18.4871C91.9471 8.28648 77.6659 2 61.9164 2C29.93 2 4 27.93 4 59.9164C4 75.6433 10.2684 89.9061 20.4431 100.343C25.3198 105.345 25.3198 114.525 20.4431 119.527C10.2684 129.964 4 144.226 4 159.953C4 175.68 10.2685 189.943 20.4433 200.38C25.32 205.382 25.32 214.562 20.4433 219.564C10.2685 230.001 4 244.264 4 259.991C4 275.718 10.2685 289.98 20.4433 300.417C25.32 305.419 25.32 314.6 20.4433 319.602C10.2685 330.038 4 344.301 4 360.028C4 375.755 10.2685 390.018 20.4432 400.454C25.3199 405.457 25.32 414.637 20.4433 419.639C10.2685 430.076 4 444.339 4 460.065C4 475.792 10.2684 490.055 20.443 500.492C25.3196 505.494 25.3196 514.674 20.443 519.676C10.2684 530.112 4 544.375 4 560.102C4 592.088 29.93 618.018 61.9164 618.018C77.5594 618.018 91.754 611.817 102.175 601.738C107.137 596.939 116.123 596.939 121.085 601.737C131.506 611.813 145.699 618.014 161.34 618.014C176.983 618.014 191.177 611.812 201.598 601.734C206.56 596.936 215.548 596.936 220.509 601.734C230.931 611.812 245.125 618.014 260.767 618.014Z"
      fill="url(#paint0_linear_181_47386)" />
  </g>
  <defs>
    <filter id="filter0_d_181_47386" x="0" y="0" width="624" height="624.019"
      filterUnits="userSpaceOnUse" color-interpolation-filters="sRGB">
      <feFlood flood-opacity="0" result="BackgroundImageFix" />
      <feColorMatrix in="SourceAlpha" type="matrix"
        values="0 0 0 0 0 0 0 0 0 0 0 0 0 0 0 0 0 0 127 0" result="hardAlpha" />
      <feOffset dy="2" />
      <feGaussianBlur stdDeviation="2" />
      <feComposite in2="hardAlpha" operator="out" />
      <feColorMatrix type="matrix"
        values="0 0 0 0 0.0980392 0 0 0 0 0.0980392 0 0 0 0 0.0980392 0 0 0 0.12 0" />
      <feBlend mode="normal" in2="BackgroundImageFix" result="effect1_dropShadow_181_47386" />
      <feBlend mode="normal" in="SourceGraphic" in2="effect1_dropShadow_181_47386" result="shape" />
    </filter>
    <linearGradient id="paint0_linear_181_47386" x1="312" y1="2" x2="312" y2="618.018"
      gradientUnits="userSpaceOnUse">
      <stop stop-color="#FFF2E2" />
      <stop offset="1" stop-color="#C4B7BA" />
    </linearGradient>
  </defs>
</svg>
