<svg width="730" height="731" viewBox="0 0 730 731" fill="none" xmlns="http://www.w3.org/2000/svg">
  <g filter="url(#filter0_d_368_41296)">
    <path
      d="M304.951 724.016C323.284 724.016 339.919 716.749 352.134 704.938C357.949 699.314 368.482 699.314 374.297 704.938C386.512 716.751 403.148 724.019 421.482 724.019C440.273 724.019 457.28 716.385 469.571 704.048C475.652 697.944 487.495 697.944 493.577 704.048C505.868 716.384 522.875 724.019 541.665 724.019C559.987 724.019 576.614 716.76 588.826 704.962C594.636 699.349 605.145 699.349 610.955 704.962C623.167 716.762 639.795 724.021 658.117 724.021C695.608 724.021 726 693.629 726 656.139C726 637.706 718.653 620.989 706.727 608.756C701.011 602.893 701.011 592.133 706.727 586.271C718.653 574.038 726 557.321 726 538.888C726 520.455 718.653 503.738 706.727 491.505C701.011 485.642 701.011 474.882 706.727 469.019C718.653 456.787 726 440.07 726 421.637C726 403.203 718.652 386.486 706.727 374.254C701.011 368.391 701.011 357.631 706.727 351.768C718.652 339.535 726 322.818 726 304.385C726 285.952 718.652 269.235 706.727 257.002C701.011 251.139 701.011 240.379 706.727 234.516C718.653 222.284 726 205.567 726 187.133C726 168.7 718.653 151.983 706.727 139.751C701.011 133.888 701.011 123.128 706.727 117.265C718.653 105.033 726 88.3156 726 69.8825C726 32.392 695.608 2 658.117 2C639.795 2 623.168 9.25905 610.956 21.0581C605.145 26.6716 594.637 26.6716 588.827 21.0581C576.614 9.25905 559.987 2 541.665 2C523.206 2 506.468 9.36794 494.23 21.3234C488.354 27.0642 477.531 27.0642 471.655 21.3234C459.418 9.36794 442.68 2 424.221 2C405.761 2 389.023 9.36809 376.786 21.3237C370.909 27.0647 360.086 27.0647 354.21 21.3237C341.973 9.36809 325.234 2 306.775 2C288.315 2 271.577 9.36792 259.34 21.3233C253.464 27.0641 242.641 27.0641 236.765 21.3233C224.528 9.36792 207.789 2 189.33 2C170.87 2 154.132 9.36825 141.895 21.3241C136.018 27.0653 125.194 27.0653 119.318 21.3241C107.081 9.36825 90.3421 2 71.8825 2C34.392 2 4 32.392 4 69.8825C4 88.3156 11.3471 105.033 23.2726 117.265C28.9884 123.128 28.9884 133.888 23.2726 139.751C11.3471 151.983 4 168.7 4 187.134C4 205.567 11.3472 222.284 23.2728 234.516C28.9886 240.379 28.9886 251.139 23.2728 257.002C11.3472 269.235 4 285.952 4 304.385C4 322.818 11.3472 339.536 23.2728 351.768C28.9887 357.631 28.9887 368.391 23.2728 374.254C11.3472 386.486 4 403.204 4 421.637C4 440.07 11.3472 456.787 23.2728 469.02C28.9886 474.883 28.9886 485.643 23.2728 491.506C11.3472 503.738 4 520.455 4 538.888C4 557.321 11.3471 574.039 23.2725 586.271C28.9883 592.134 28.9882 602.894 23.2725 608.756C11.3471 620.989 4 637.706 4 656.139C4 693.629 34.392 724.021 71.8825 724.021C90.2174 724.021 106.854 716.753 119.069 704.939C124.884 699.315 135.417 699.315 141.233 704.938C153.447 716.749 170.083 724.016 188.415 724.016C206.749 724.016 223.386 716.748 235.601 704.935C241.416 699.311 251.95 699.311 257.766 704.935C269.98 716.748 286.617 724.016 304.951 724.016Z"
      fill="url(#paint0_linear_368_41296)" />
  </g>
  <defs>
    <filter id="filter0_d_368_41296" x="0" y="0" width="730" height="730.021"
      filterUnits="userSpaceOnUse" color-interpolation-filters="sRGB">
      <feFlood flood-opacity="0" result="BackgroundImageFix" />
      <feColorMatrix in="SourceAlpha" type="matrix"
        values="0 0 0 0 0 0 0 0 0 0 0 0 0 0 0 0 0 0 127 0" result="hardAlpha" />
      <feOffset dy="2" />
      <feGaussianBlur stdDeviation="2" />
      <feComposite in2="hardAlpha" operator="out" />
      <feColorMatrix type="matrix"
        values="0 0 0 0 0.0980392 0 0 0 0 0.0980392 0 0 0 0 0.0980392 0 0 0 0.12 0" />
      <feBlend mode="normal" in2="BackgroundImageFix" result="effect1_dropShadow_368_41296" />
      <feBlend mode="normal" in="SourceGraphic" in2="effect1_dropShadow_368_41296" result="shape" />
    </filter>
    <linearGradient id="paint0_linear_368_41296" x1="365" y1="2" x2="365" y2="724.021"
      gradientUnits="userSpaceOnUse">
      <stop stop-color="#FFF2E2" />
      <stop offset="1" stop-color="#C4B7BA" />
    </linearGradient>
  </defs>
</svg>
