<svg width="826" height="438" viewBox="0 0 826 438" fill="none" xmlns="http://www.w3.org/2000/svg">
  <path
    d="M814.33 83.4077C810.869 79.8578 810.869 73.3426 814.329 69.7925C821.55 62.3858 825.998 52.2638 825.998 41.1029C825.998 18.4024 807.596 0 784.895 0C774.246 0 764.542 4.05041 757.24 10.6948C753.891 13.7426 748.283 13.7426 744.933 10.6949C737.632 4.05057 727.928 0.000233253 717.278 0.000233253C706.628 0.000233253 696.924 4.05064 689.623 10.695C686.274 13.7428 680.665 13.7428 677.316 10.695C670.015 4.05064 660.311 0.000233253 649.661 0.000233253C639.011 0.000233253 629.307 4.05064 622.005 10.695C618.656 13.7428 613.048 13.7428 609.699 10.695C602.397 4.05064 592.693 0.000233253 582.043 0.000233253C571.393 0.000233253 561.689 4.05064 554.388 10.695C551.039 13.7428 545.43 13.7428 542.081 10.695C534.78 4.05064 525.076 0.000233253 514.426 0.000233253C503.776 0.000233253 494.072 4.05064 486.77 10.695C483.421 13.7428 477.813 13.7428 474.463 10.695C467.162 4.05063 457.458 0.000233253 446.808 0.000233253C436.158 0.000233253 426.454 4.05063 419.153 10.695C415.804 13.7428 410.195 13.7428 406.846 10.695C399.544 4.05063 389.841 0.000233253 379.191 0.000233253C368.541 0.000233253 358.837 4.05063 351.535 10.695C348.186 13.7428 342.578 13.7428 339.228 10.695C331.927 4.05063 322.223 0.000233253 311.573 0.000233253C300.923 0.000233253 291.219 4.05063 283.918 10.695C280.569 13.7428 274.96 13.7428 271.611 10.695C264.309 4.05063 254.606 0.000233253 243.956 0.000233253C233.306 0.000233253 223.602 4.05063 216.3 10.695C212.951 13.7428 207.343 13.7428 203.993 10.695C196.692 4.05063 186.988 0.000233253 176.338 0.000233253C165.688 0.000233253 155.984 4.05063 148.683 10.695C145.334 13.7428 139.725 13.7428 136.376 10.695C129.074 4.05063 119.371 0.000233253 108.721 0.000233253C98.0706 0.000233253 88.3667 4.05065 81.0652 10.6951C77.716 13.7428 72.1075 13.7428 68.7583 10.6951C61.4568 4.05065 51.7528 0.000233253 41.1029 0.000233253C18.4024 0.000233253 0 18.4026 0 41.1031C0 52.2644 4.4487 62.3867 11.6697 69.7934C15.1306 73.3434 15.1306 79.8586 11.6697 83.4086C4.4487 90.8154 0 100.938 0 112.099C0 123.26 4.4487 133.382 11.6697 140.789C15.1306 144.339 15.1306 150.854 11.6697 154.404C4.4487 161.811 0 171.933 0 183.095C0 194.256 4.4487 204.378 11.6697 211.785C15.1306 215.335 15.1306 221.85 11.6697 225.4C4.4487 232.807 0 242.929 0 254.091C0 265.252 4.4487 275.374 11.6697 282.781C15.1306 286.331 15.1306 292.846 11.6697 296.396C4.4487 303.803 0 313.925 0 325.086C0 336.248 4.4486 346.37 11.6694 353.776C15.1302 357.326 15.1302 363.841 11.6694 367.391C4.4486 374.798 0 384.92 0 396.081C0 418.782 18.4024 437.184 41.1029 437.184C51.7534 437.184 61.4579 433.133 68.7595 426.488C72.1086 423.44 77.7171 423.44 81.0664 426.488C88.3677 433.131 98.0712 437.181 108.721 437.181C119.371 437.181 129.074 433.131 136.376 426.487C139.725 423.439 145.334 423.439 148.683 426.487C155.984 433.131 165.688 437.181 176.338 437.181C186.988 437.181 196.691 433.131 203.993 426.487C207.342 423.44 212.95 423.44 216.299 426.488C223.601 433.133 233.305 437.183 243.956 437.183C254.606 437.183 264.309 433.133 271.611 426.488C274.96 423.441 280.569 423.441 283.918 426.488C291.219 433.133 300.923 437.183 311.573 437.183C322.223 437.183 331.927 433.133 339.228 426.489C342.577 423.441 348.186 423.441 351.535 426.489C358.836 433.134 368.541 437.184 379.191 437.184C389.841 437.184 399.546 433.133 406.847 426.488C410.196 423.44 415.805 423.44 419.154 426.488C426.455 433.131 436.159 437.181 446.808 437.181C457.458 437.181 467.162 433.131 474.463 426.487C477.813 423.439 483.421 423.439 486.77 426.487C494.072 433.131 503.776 437.181 514.426 437.181C525.075 437.181 534.779 433.131 542.08 426.487C545.429 423.44 551.038 423.44 554.387 426.488C561.689 433.133 571.393 437.183 582.043 437.183C592.693 437.183 602.397 433.133 609.699 426.488C613.048 423.441 618.656 423.441 622.005 426.488C629.307 433.133 639.011 437.183 649.661 437.183C660.31 437.183 670.014 433.133 677.316 426.489C680.665 423.441 686.273 423.441 689.622 426.489C696.924 433.134 706.628 437.184 717.278 437.184C727.928 437.184 737.632 433.134 744.934 426.489C748.283 423.442 753.891 423.442 757.24 426.489C764.542 433.134 774.246 437.184 784.895 437.184C807.596 437.184 825.998 418.782 825.998 396.081C825.998 384.92 821.55 374.798 814.33 367.392C810.869 363.842 810.869 357.327 814.33 353.777C821.551 346.37 826 336.248 826 325.086C826 313.925 821.551 303.803 814.33 296.396C810.869 292.846 810.869 286.331 814.33 282.781C821.551 275.374 826 265.252 826 254.09C826 242.929 821.551 232.807 814.33 225.4C810.869 221.85 810.869 215.335 814.33 211.785C821.551 204.378 826 194.256 826 183.095C826 171.933 821.551 161.811 814.33 154.404C810.869 150.854 810.869 144.339 814.33 140.789C821.551 133.382 826 123.26 826 112.099C826 100.937 821.551 90.8145 814.33 83.4077Z"
    fill="black" />
</svg>
