<svg width="827" height="542" viewBox="0 0 827 542" fill="none" xmlns="http://www.w3.org/2000/svg">
  <path
    d="M225.595 528.493C218.444 522.943 207.114 522.943 199.963 528.493C189.617 536.524 176.623 541.305 162.512 541.305C148.401 541.305 135.407 536.525 125.062 528.494C117.911 522.944 106.58 522.944 99.4298 528.495C89.0836 536.527 76.0888 541.308 61.9772 541.308C28.2163 541.308 0.847656 513.939 0.847656 480.179C0.847656 465.716 5.8703 452.426 14.2665 441.958C20.3159 434.417 20.3159 421.716 14.2665 414.174C5.8703 403.706 0.847656 390.417 0.847656 375.954C0.847656 361.438 5.90684 348.105 14.3581 337.62C20.506 329.992 20.506 316.975 14.3581 309.347C5.90684 298.862 0.847656 285.529 0.847656 271.013C0.847656 256.498 5.90697 243.164 14.3584 232.679C20.5067 225.051 20.5067 212.032 14.3584 204.405C5.90697 193.919 0.847656 180.586 0.847656 166.07C0.847656 151.555 5.90684 138.221 14.3581 127.736C20.506 120.109 20.506 107.091 14.3581 99.4636C5.90684 88.9787 0.847656 75.6449 0.847656 61.1296C0.847656 27.3686 28.2163 0 61.9772 0C76.0882 0 89.0825 4.78124 99.4285 12.8121C106.579 18.3626 117.91 18.3626 125.06 12.8121C135.406 4.78124 148.401 0 162.512 0C176.623 0 189.617 4.78125 199.963 12.8121C207.114 18.3626 218.444 18.3626 225.595 12.8121C235.941 4.78125 248.935 0 263.046 0C277.157 0 290.151 4.78122 300.497 12.812C307.648 18.3625 318.979 18.3625 326.129 12.812C336.475 4.78122 349.469 0 363.58 0C377.691 0 390.686 4.78124 401.031 12.8121C408.182 18.3626 419.513 18.3626 426.664 12.8121C437.009 4.78124 450.004 0 464.115 0C478.226 0 491.22 4.78125 501.566 12.8121C508.717 18.3626 520.047 18.3626 527.198 12.8121C537.544 4.78125 550.538 0 564.649 0C578.76 0 591.755 4.78127 602.101 12.8122C609.251 18.3627 620.582 18.3627 627.733 12.8121C638.079 4.78127 651.073 0 665.184 0C679.295 0 692.289 4.78122 702.635 12.812C709.786 18.3625 721.116 18.3625 728.267 12.812C738.613 4.78122 751.607 0 765.718 0C799.479 0 826.848 27.3686 826.848 61.1296C826.848 75.6449 821.788 88.9787 813.337 99.4636C807.189 107.091 807.189 120.109 813.337 127.736C821.788 138.221 826.848 151.555 826.848 166.07C826.848 180.586 821.788 193.919 813.337 204.404C807.189 212.032 807.189 225.051 813.337 232.679C821.788 243.164 826.848 256.498 826.848 271.013C826.848 285.529 821.788 298.862 813.337 309.347C807.189 316.975 807.189 329.992 813.337 337.62C821.788 348.105 826.848 361.438 826.848 375.954C826.848 390.417 821.825 403.706 813.429 414.174C807.379 421.716 807.379 434.417 813.429 441.958C821.825 452.426 826.848 465.716 826.848 480.179C826.848 513.939 799.479 541.308 765.718 541.308C751.607 541.308 738.613 536.527 728.267 528.496C721.116 522.946 709.786 522.946 702.635 528.496C692.289 536.527 679.295 541.308 665.184 541.308C651.072 541.308 638.077 536.526 627.731 528.495C620.581 522.944 609.25 522.944 602.099 528.494C591.753 536.525 578.76 541.305 564.649 541.305C550.538 541.305 537.544 536.524 527.198 528.493C520.047 522.943 508.716 522.943 501.566 528.493C491.22 536.524 478.226 541.305 464.115 541.305C450.004 541.305 437.01 536.525 426.665 528.494C419.514 522.944 408.183 522.944 401.033 528.495C390.687 536.526 377.692 541.308 363.58 541.308C349.469 541.308 336.474 536.527 326.128 528.495C318.977 522.944 307.647 522.944 300.496 528.494C290.15 536.525 277.157 541.305 263.046 541.305C248.935 541.305 235.941 536.524 225.595 528.493Z"
    fill="black" />
</svg>
