<svg width="616" height="248" viewBox="0 0 616 248" fill="none" xmlns="http://www.w3.org/2000/svg">
  <path
    d="M167.608 9.55477C162.275 13.6942 153.825 13.6942 148.493 9.55477C140.777 3.56567 131.086 0 120.563 0C110.039 0 100.349 3.56567 92.6332 9.55476C87.3006 13.6942 78.8505 13.6941 73.5178 9.55476C65.8022 3.56567 56.1116 0 45.5881 0C20.4105 0 0 20.4105 0 45.5881C0 56.4131 3.77295 66.3569 10.0756 74.1762C14.6605 79.8645 14.6605 89.5725 10.0756 95.2607C3.77295 103.08 0 113.024 0 123.849C0 134.674 3.77305 144.618 10.0758 152.437C14.661 158.126 14.661 167.835 10.0758 173.523C3.77305 181.342 0 191.286 0 202.112C0 227.289 20.4105 247.7 45.5881 247.7C56.112 247.7 65.8031 244.134 73.5188 238.144C78.8514 234.005 87.3014 234.004 92.6342 238.144C100.35 244.132 110.04 247.698 120.563 247.698C131.086 247.698 140.777 244.132 148.493 238.143C153.825 234.003 162.275 234.003 167.608 238.143C175.324 244.132 185.014 247.698 195.538 247.698C206.061 247.698 215.751 244.132 223.466 238.144C228.799 234.005 237.249 234.005 242.582 238.145C250.297 244.134 259.989 247.7 270.513 247.7C281.037 247.7 290.728 244.134 298.444 238.145C303.776 234.005 312.226 234.005 317.559 238.144C325.274 244.132 334.965 247.698 345.487 247.698C356.011 247.698 365.702 244.132 373.417 238.143C378.75 234.003 387.2 234.003 392.532 238.143C400.248 244.132 409.939 247.698 420.462 247.698C430.985 247.698 440.675 244.132 448.391 238.144C453.723 234.005 462.173 234.005 467.506 238.145C475.222 244.134 484.913 247.7 495.437 247.7C505.961 247.7 515.651 244.135 523.367 238.145C528.7 234.006 537.15 234.006 542.482 238.145C550.198 244.134 559.889 247.7 570.412 247.7C595.589 247.7 616 227.289 616 202.112C616 191.286 612.227 181.342 605.924 173.523C601.339 167.835 601.339 158.126 605.924 152.437C612.227 144.618 616 134.674 616 123.849C616 113.024 612.227 103.08 605.924 95.2607C601.339 89.5725 601.339 79.8645 605.924 74.1762C612.227 66.357 616 56.4132 616 45.5881C616 20.4105 595.589 0 570.412 0C559.888 0 550.198 3.56568 542.482 9.55478C537.149 13.6942 528.699 13.6942 523.367 9.55478C515.651 3.56568 505.96 0 495.437 0C484.914 0 475.223 3.56568 467.507 9.55478C462.175 13.6942 453.725 13.6942 448.392 9.55478C440.676 3.56568 430.986 0 420.462 0C409.939 0 400.248 3.56568 392.533 9.55478C387.2 13.6942 378.75 13.6942 373.417 9.55478C365.702 3.56568 356.011 0 345.487 0C334.964 0 325.273 3.56567 317.558 9.55475C312.225 13.6941 303.775 13.6941 298.442 9.55476C290.727 3.56567 281.036 0 270.513 0C259.989 0 250.298 3.56567 242.583 9.55475C237.25 13.6941 228.8 13.6941 223.467 9.55476C215.752 3.56567 206.061 0 195.538 0C185.014 0 175.324 3.56567 167.608 9.55477Z"
    fill="black" />
</svg>
