<svg width="827" height="333" viewBox="0 0 827 333" fill="none" xmlns="http://www.w3.org/2000/svg">
  <path
    d="M225.595 12.8121C218.444 18.3626 207.113 18.3626 199.963 12.8121C189.617 4.78124 176.623 0 162.512 0C148.401 0 135.406 4.78124 125.06 12.8121C117.91 18.3626 106.579 18.3626 99.4284 12.8121C89.0825 4.78124 76.0882 0 61.9772 0C28.2163 0 0.847656 27.3686 0.847656 61.1295C0.847656 75.6449 5.90684 88.9786 14.3581 99.4636C20.506 107.091 20.506 120.109 14.3581 127.736C5.90684 138.221 0.847656 151.555 0.847656 166.07C0.847656 180.586 5.90697 193.919 14.3584 204.404C20.5067 212.032 20.5067 225.051 14.3584 232.679C5.90697 243.164 0.847656 256.498 0.847656 271.013C0.847656 304.774 28.2163 332.143 61.9772 332.143C76.0888 332.143 89.0836 327.361 99.4297 319.33C106.58 313.779 117.911 313.779 125.062 319.329C135.407 327.359 148.401 332.14 162.512 332.14C176.623 332.14 189.617 327.359 199.963 319.328C207.113 313.777 218.444 313.777 225.595 319.328C235.941 327.359 248.935 332.14 263.046 332.14C277.156 332.14 290.15 327.359 300.495 319.329C307.646 313.779 318.977 313.779 326.127 319.33C336.474 327.362 349.469 332.144 363.58 332.144C377.692 332.144 390.687 327.362 401.033 319.33C408.184 313.779 419.515 313.779 426.665 319.329C437.011 327.359 450.005 332.14 464.115 332.14C478.226 332.14 491.22 327.359 501.566 319.328C508.717 313.777 520.047 313.777 527.198 319.328C537.544 327.359 550.538 332.14 564.649 332.14C578.759 332.14 591.753 327.359 602.099 319.329C609.25 313.779 620.58 313.779 627.731 319.33C638.077 327.362 651.072 332.144 665.184 332.144C679.295 332.144 692.289 327.362 702.635 319.331C709.786 313.781 721.117 313.78 728.267 319.331C738.613 327.362 751.607 332.143 765.718 332.143C799.479 332.143 826.848 304.774 826.848 271.013C826.848 256.498 821.788 243.164 813.337 232.679C807.189 225.051 807.189 212.032 813.337 204.404C821.788 193.919 826.848 180.586 826.848 166.07C826.848 151.555 821.788 138.221 813.337 127.736C807.189 120.109 807.189 107.091 813.337 99.4636C821.788 88.9786 826.848 75.6449 826.848 61.1295C826.848 27.3686 799.479 0 765.718 0C751.607 0 738.613 4.78125 728.267 12.8121C721.116 18.3626 709.786 18.3626 702.635 12.8121C692.289 4.78125 679.295 0 665.184 0C651.073 0 638.078 4.78125 627.732 12.8121C620.582 18.3626 609.251 18.3626 602.1 12.8121C591.755 4.78125 578.76 0 564.649 0C550.538 0 537.544 4.78125 527.198 12.8121C520.047 18.3626 508.717 18.3626 501.566 12.8121C491.22 4.78125 478.226 0 464.115 0C450.004 0 437.01 4.78124 426.664 12.8121C419.513 18.3626 408.182 18.3626 401.032 12.8121C390.686 4.78124 377.691 0 363.58 0C349.469 0 336.475 4.78124 326.129 12.8121C318.979 18.3626 307.648 18.3626 300.497 12.8121C290.151 4.78124 277.157 0 263.046 0C248.935 0 235.941 4.78125 225.595 12.8121Z"
    fill="black" />
</svg>
