<svg width="826" height="438" viewBox="0 0 826 438" fill="none" xmlns="http://www.w3.org/2000/svg">
  <path
    d="M211.019 0C198.57 0 187.195 4.60173 178.504 12.197C174.171 15.9835 167.075 15.9835 162.742 12.197C154.051 4.60173 142.676 0 130.227 0C117.778 0 106.404 4.60175 97.7122 12.197C93.3792 15.9835 86.2831 15.9835 81.9502 12.1971C73.2588 4.60175 61.8844 0 49.4351 0C22.1329 0 0 22.1329 0 49.4351C0 62.4651 5.04111 74.3176 13.2794 83.1488C17.5742 87.7527 17.5742 95.9823 13.2794 100.586C5.04111 109.417 0 121.27 0 134.3C0 147.33 5.04137 159.183 13.28 168.014C17.5752 172.618 17.5752 180.849 13.28 185.453C5.04137 194.284 0 206.137 0 219.167C0 232.197 5.04111 244.05 13.2794 252.881C17.5742 257.485 17.5742 265.714 13.2794 270.318C5.04111 279.15 0 291.002 0 304.032C0 316.893 4.91123 328.607 12.9605 337.401C17.0908 341.913 17.0908 349.742 12.9605 354.255C4.91123 363.048 0 374.762 0 387.623C0 414.926 22.1329 437.058 49.4351 437.058C61.885 437.058 73.2599 432.456 81.9514 424.86C86.2843 421.074 93.3804 421.073 97.7135 424.86C106.405 432.454 117.779 437.056 130.227 437.056C142.676 437.056 154.051 432.454 162.742 424.859C167.075 421.072 174.171 421.072 178.504 424.859C187.196 432.454 198.57 437.056 211.019 437.056C223.468 437.056 234.842 432.454 243.533 424.86C247.866 421.073 254.962 421.074 259.295 424.86C267.986 432.456 279.361 437.058 291.811 437.058C304.26 437.058 315.635 432.457 324.326 424.861C328.659 421.075 335.755 421.075 340.088 424.861C348.779 432.457 360.154 437.058 372.603 437.058C385.053 437.058 396.428 432.456 405.119 424.86C409.452 421.074 416.548 421.073 420.881 424.86C429.572 432.454 440.946 437.056 453.395 437.056C465.844 437.056 477.218 432.454 485.91 424.859C490.243 421.072 497.339 421.072 501.672 424.859C510.363 432.454 521.737 437.056 534.187 437.056C546.635 437.056 558.009 432.454 566.7 424.86C571.033 421.073 578.129 421.074 582.462 424.86C591.154 432.456 602.529 437.058 614.978 437.058C627.428 437.058 638.802 432.457 647.493 424.861C651.826 421.075 658.922 421.075 663.255 424.861C671.947 432.457 683.321 437.058 695.77 437.058C708.219 437.058 719.594 432.457 728.285 424.861C732.618 421.075 739.714 421.075 744.047 424.861C752.739 432.457 764.113 437.058 776.562 437.058C803.865 437.058 825.998 414.926 825.998 387.623C825.998 374.763 821.087 363.049 813.038 354.255C808.908 349.743 808.908 341.913 813.038 337.401C821.088 328.607 826 316.893 826 304.031C826 291.001 820.959 279.149 812.721 270.317C808.426 265.714 808.426 257.484 812.721 252.88C820.959 244.049 826 232.196 826 219.166C826 206.136 820.959 194.283 812.72 185.452C808.425 180.848 808.425 172.618 812.72 168.014C820.959 159.183 826 147.33 826 134.3C826 121.269 820.959 109.416 812.72 100.585C808.425 95.9814 808.424 87.7518 812.719 83.1478C820.957 74.3167 825.998 62.4646 825.998 49.4351C825.998 22.1329 803.865 0 776.562 0C764.113 0 752.739 4.60176 744.047 12.1971C739.714 15.9836 732.618 15.9836 728.285 12.1971C719.594 4.60177 708.219 0 695.77 0C683.321 0 671.947 4.60174 663.255 12.197C658.922 15.9835 651.826 15.9835 647.493 12.197C638.802 4.60174 627.428 0 614.978 0C602.529 0 591.155 4.60174 582.463 12.197C578.13 15.9835 571.034 15.9835 566.701 12.197C558.01 4.60174 546.636 0 534.186 0C521.737 0 510.363 4.60174 501.672 12.197C497.339 15.9835 490.243 15.9835 485.91 12.197C477.218 4.60174 465.844 0 453.395 0C440.945 0 429.571 4.60173 420.88 12.197C416.547 15.9835 409.451 15.9835 405.118 12.197C396.426 4.60173 385.052 0 372.603 0C360.154 0 348.779 4.60173 340.088 12.197C335.755 15.9835 328.659 15.9835 324.326 12.197C315.634 4.60173 304.26 0 291.811 0C279.362 0 267.987 4.60173 259.296 12.197C254.963 15.9835 247.867 15.9835 243.534 12.197C234.843 4.60173 223.468 0 211.019 0Z"
    fill="black" />
</svg>
