<svg width="616" height="469" viewBox="0 0 616 469" fill="none" xmlns="http://www.w3.org/2000/svg">
  <path
    d="M596.959 180.025C588.294 169.275 588.294 150.929 596.959 140.179C608.87 125.402 616 106.61 616 86.1531C616 38.5721 577.428 6.4439e-05 529.847 6.4439e-05C509.39 6.4439e-05 490.598 7.13024 475.821 19.041C465.071 27.7056 446.725 27.7056 435.975 19.041C421.198 7.13024 402.406 6.4439e-05 381.949 6.4439e-05C361.492 6.4439e-05 342.7 7.13024 327.923 19.041C317.173 27.7057 298.827 27.7057 288.077 19.041C273.3 7.13024 254.508 6.4439e-05 234.051 6.4439e-05C213.593 6.4439e-05 194.801 7.13022 180.024 19.041C169.275 27.7056 150.929 27.7056 140.179 19.0409C125.402 7.13017 106.61 0 86.1528 0C38.5718 0 -0.000244141 38.572 -0.000244141 86.153C-0.000244141 106.61 7.12994 125.402 19.0407 140.179C27.7053 150.929 27.7053 169.275 19.0408 180.025C7.13004 194.802 -9.15527e-05 213.594 -9.15527e-05 234.051C-9.15527e-05 254.508 7.13027 273.3 19.0413 288.078C27.7065 298.828 27.7065 317.176 19.0413 327.926C7.13027 342.703 -9.15527e-05 361.495 -9.15527e-05 381.953C-9.15527e-05 429.534 38.5719 468.106 86.1529 468.106C106.61 468.106 125.402 460.976 140.179 449.065C150.929 440.4 169.275 440.4 180.025 449.065C194.802 460.975 213.593 468.105 234.051 468.105C254.508 468.105 273.3 460.975 288.077 449.064C298.827 440.4 317.173 440.4 327.923 449.064C342.7 460.975 361.492 468.105 381.949 468.105C402.406 468.105 421.198 460.975 435.975 449.065C446.725 440.4 465.071 440.4 475.821 449.065C490.598 460.976 509.39 468.106 529.847 468.106C577.428 468.106 616 429.534 616 381.953C616 361.495 608.869 342.703 596.958 327.926C588.293 317.176 588.293 298.828 596.958 288.077C608.869 273.3 616 254.508 616 234.051C616 213.594 608.87 194.802 596.959 180.025Z"
    fill="black" />
</svg>
