<svg width="616" height="265" viewBox="0 0 616 265" fill="none" xmlns="http://www.w3.org/2000/svg">
  <path fill-rule="evenodd" clip-rule="evenodd"
    d="M247.747 248.761C241.071 258.205 230.067 264.372 217.621 264.372C205.176 264.372 194.172 258.205 187.496 248.761C180.82 258.205 169.815 264.372 157.37 264.372C144.925 264.372 133.92 258.205 127.244 248.761C120.568 258.205 109.564 264.372 97.1184 264.372C84.6733 264.372 73.6685 258.205 66.9927 248.761C60.3168 258.205 49.312 264.372 36.8669 264.372C16.5059 264.372 0 247.866 0 227.505C0 213.791 7.48745 201.827 18.5973 195.476C7.48745 189.125 0 177.16 0 163.447C0 150.005 7.19413 138.243 17.9422 131.801C7.19413 125.36 0 113.598 0 100.156C0 86.7143 7.19338 74.953 17.9405 68.5113C7.19338 62.0697 0 50.3083 0 36.8669C0 16.5059 16.5059 0 36.8669 0C49.312 0 60.3168 6.16646 66.9927 15.6106C73.6685 6.16646 84.6733 0 97.1184 0C109.564 0 120.568 6.16646 127.244 15.6106C133.92 6.16646 144.925 0 157.37 0C169.815 0 180.82 6.16646 187.496 15.6106C194.172 6.16646 205.176 0 217.621 0C230.067 0 241.071 6.16647 247.747 15.6106C254.423 6.16647 265.428 0 277.873 0C290.318 0 301.323 6.16646 307.999 15.6106C314.675 6.16646 325.679 0 338.125 0C350.57 0 361.575 6.16646 368.25 15.6106C374.926 6.16646 385.931 0 398.376 0C410.821 0 421.826 6.16646 428.502 15.6106C435.178 6.16646 446.183 0 458.628 0C471.073 0 482.078 6.16646 488.753 15.6106C495.429 6.16646 506.434 0 518.879 0C531.324 0 542.329 6.16657 549.005 15.6109C555.681 6.16657 566.686 0 579.131 0C599.492 0 615.998 16.5059 615.998 36.8669C615.998 50.3079 608.805 62.069 598.058 68.5107C608.806 74.9522 616 86.7139 616 100.156C616 113.598 608.806 125.359 598.058 131.801C608.806 138.242 616 150.004 616 163.446C616 177.16 608.512 189.125 597.401 195.476C608.511 201.827 615.998 213.791 615.998 227.505C615.998 247.866 599.492 264.372 579.131 264.372C566.686 264.372 555.681 258.205 549.005 248.761C542.329 258.205 531.324 264.372 518.879 264.372C506.434 264.372 495.429 258.205 488.753 248.761C482.078 258.205 471.073 264.372 458.628 264.372C446.183 264.372 435.178 258.205 428.502 248.761C421.826 258.205 410.821 264.372 398.376 264.372C385.931 264.372 374.926 258.205 368.25 248.761C361.575 258.205 350.57 264.372 338.125 264.372C325.679 264.372 314.675 258.205 307.999 248.761C301.323 258.205 290.318 264.372 277.873 264.372C265.428 264.372 254.423 258.205 247.747 248.761ZM428.502 206.248C429.018 205.519 429.56 204.808 430.126 204.119C429.304 204.458 428.467 204.767 427.616 205.047C427.919 205.441 428.214 205.842 428.502 206.248Z"
    fill="black" />
</svg>
