<svg width="827" height="355" viewBox="0 0 827 355" fill="none" xmlns="http://www.w3.org/2000/svg">
  <path fill-rule="evenodd" clip-rule="evenodd"
    d="M333.054 333.566C324.103 346.23 309.346 354.498 292.658 354.498C275.971 354.498 261.214 346.23 252.262 333.566C243.311 346.23 228.554 354.498 211.866 354.498C195.179 354.498 180.422 346.23 171.471 333.566C162.519 346.23 147.762 354.498 131.075 354.498C114.387 354.498 99.6304 346.23 90.6787 333.566C81.727 346.23 66.9705 354.498 50.2828 354.498C22.9805 354.498 0.847656 332.365 0.847656 305.063C0.847656 286.675 10.8876 270.631 25.7849 262.115C10.8876 253.599 0.847656 237.556 0.847656 219.167C0.847656 201.143 10.4943 185.371 24.9065 176.734C10.4943 168.096 0.847656 152.325 0.847656 134.3C0.847656 116.276 10.4933 100.505 24.9042 91.8675C10.4933 83.2298 0.847656 67.4589 0.847656 49.4351C0.847656 22.1329 22.9805 0 50.2828 0C66.9705 0 81.727 8.26867 90.6787 20.9324C99.6304 8.26867 114.387 0 131.075 0C147.762 0 162.519 8.26867 171.471 20.9324C180.422 8.26867 195.179 0 211.866 0C228.554 0 243.311 8.26867 252.262 20.9324C261.214 8.26867 275.971 0 292.658 0C309.346 0 324.103 8.26867 333.054 20.9324C342.006 8.26867 356.762 0 373.45 0C390.138 0 404.894 8.26867 413.846 20.9324C422.798 8.26867 437.554 0 454.242 0C470.93 0 485.686 8.26867 494.638 20.9324C503.59 8.26867 518.346 0 535.034 0C551.722 0 566.478 8.26867 575.43 20.9324C584.381 8.26867 599.138 0 615.826 0C632.513 0 647.27 8.26867 656.222 20.9324C665.173 8.26867 679.93 0 696.617 0C713.305 0 728.062 8.26881 737.014 20.9328C745.965 8.26881 760.722 0 777.41 0C804.712 0 826.845 22.1329 826.845 49.4351C826.845 67.4584 817.2 83.2288 802.79 91.8667C817.201 100.504 826.848 116.275 826.848 134.3C826.848 152.324 817.201 168.096 802.789 176.733C817.201 185.371 826.848 201.142 826.848 219.166C826.848 237.556 816.807 253.6 801.908 262.116C816.805 270.631 826.845 286.675 826.845 305.063C826.845 332.365 804.712 354.498 777.41 354.498C760.722 354.498 745.965 346.229 737.014 333.565C728.062 346.229 713.305 354.498 696.617 354.498C679.93 354.498 665.173 346.23 656.222 333.566C647.27 346.23 632.513 354.498 615.826 354.498C599.138 354.498 584.381 346.23 575.43 333.566C566.478 346.23 551.722 354.498 535.034 354.498C518.346 354.498 503.59 346.23 494.638 333.566C485.686 346.23 470.93 354.498 454.242 354.498C437.554 354.498 422.798 346.23 413.846 333.566C404.894 346.23 390.138 354.498 373.45 354.498C356.762 354.498 342.006 346.23 333.054 333.566ZM575.43 276.56C576.122 275.582 576.848 274.629 577.607 273.705C576.505 274.159 575.382 274.574 574.241 274.949C574.648 275.478 575.044 276.015 575.43 276.56Z"
    fill="black" />
</svg>
