<svg width="826" height="438" viewBox="0 0 826 438" fill="none" xmlns="http://www.w3.org/2000/svg">
  <path
    d="M362.733 437.083C348.621 437.083 335.626 432.302 325.28 424.27C318.13 418.72 306.799 418.719 299.648 424.27C289.303 432.3 276.309 437.081 262.198 437.081C248.087 437.081 235.093 432.299 224.747 424.269C217.597 418.718 206.266 418.718 199.115 424.269C188.769 432.299 175.775 437.081 161.664 437.081C147.554 437.081 134.56 432.3 124.214 424.27C117.063 418.719 105.733 418.719 98.5821 424.27C88.236 432.302 75.2412 437.083 61.1296 437.083C27.3686 437.083 0 409.715 0 375.954C0 361.438 5.05919 348.105 13.5104 337.62C19.6584 329.992 19.6584 316.975 13.5104 309.347C5.05919 298.862 0 285.529 0 271.013C0 256.498 5.05932 243.164 13.5107 232.679C19.6591 225.051 19.6591 212.032 13.5107 204.405C5.05932 193.92 0 180.586 0 166.07C0 151.555 5.05919 138.221 13.5104 127.736C19.6584 120.109 19.6584 107.091 13.5104 99.4636C5.05919 88.9787 0 75.6449 0 61.1296C0 27.3686 27.3686 0 61.1296 0C75.2406 0 88.2349 4.78124 98.5808 12.8121C105.731 18.3626 117.062 18.3626 124.213 12.8121C134.559 4.78124 147.553 0 161.664 0C175.775 0 188.769 4.78125 199.115 12.8121C206.266 18.3626 217.597 18.3626 224.747 12.8121C235.093 4.78125 248.087 0 262.198 0C276.309 0 289.304 4.78122 299.65 12.812C306.8 18.3625 318.131 18.3625 325.281 12.812C335.627 4.78122 348.622 0 362.733 0C376.844 0 389.838 4.78124 400.184 12.8121C407.334 18.3626 418.665 18.3626 425.816 12.8121C436.162 4.78124 449.156 0 463.267 0C477.378 0 490.372 4.78125 500.718 12.8121C507.869 18.3626 519.2 18.3626 526.35 12.8121C536.696 4.78125 549.69 0 563.802 0C577.913 0 590.907 4.78128 601.253 12.8122C608.404 18.3627 619.734 18.3627 626.885 12.8121C637.231 4.78127 650.225 0 664.336 0C678.447 0 691.442 4.78122 701.787 12.812C708.938 18.3625 720.269 18.3625 727.419 12.812C737.765 4.78122 750.759 0 764.87 0C798.631 0 826 27.3686 826 61.1296C826 75.6449 820.941 88.9787 812.49 99.4636C806.342 107.091 806.342 120.109 812.49 127.736C820.941 138.221 826 151.555 826 166.07C826 180.586 820.941 193.919 812.489 204.405C806.341 212.032 806.341 225.051 812.489 232.679C820.941 243.164 826 256.498 826 271.013C826 285.529 820.941 298.862 812.49 309.347C806.342 316.975 806.342 329.992 812.49 337.62C820.941 348.105 826 361.438 826 375.954C826 409.715 798.631 437.083 764.87 437.083C750.759 437.083 737.765 432.302 727.419 424.271C720.269 418.721 708.938 418.721 701.787 424.271C691.442 432.302 678.447 437.083 664.336 437.083C650.225 437.083 637.23 432.302 626.884 424.27C619.733 418.719 608.402 418.719 601.252 424.27C590.906 432.3 577.912 437.081 563.802 437.081C549.69 437.081 536.696 432.299 526.35 424.269C519.2 418.718 507.869 418.718 500.718 424.269C490.372 432.299 477.378 437.081 463.267 437.081C449.157 437.081 436.163 432.3 425.817 424.27C418.666 418.719 407.336 418.72 400.185 424.27C389.839 432.302 376.844 437.083 362.733 437.083Z"
    fill="black" />
</svg>
