<svg width="624" height="256" viewBox="0 0 624 256" fill="none" xmlns="http://www.w3.org/2000/svg">
  <g filter="url(#filter0_d_368_41278)">
    <path
      d="M171.608 11.5548C166.275 15.6942 157.825 15.6942 152.493 11.5548C144.777 5.56567 135.086 2 124.563 2C114.039 2 104.349 5.56567 96.6332 11.5548C91.3006 15.6942 82.8505 15.6941 77.5178 11.5548C69.8022 5.56567 60.1116 2 49.5881 2C24.4105 2 4 22.4105 4 47.5881C4 58.4131 7.77295 68.3569 14.0756 76.1762C18.6605 81.8645 18.6605 91.5724 14.0756 97.2607C7.77295 105.08 4 115.024 4 125.849C4 136.674 7.77305 146.618 14.0758 154.437C18.661 160.126 18.661 169.835 14.0758 175.523C7.77305 183.342 4 193.286 4 204.111C4 229.289 24.4105 249.7 49.5881 249.7C60.112 249.7 69.8031 246.134 77.5188 240.144C82.8514 236.005 91.3014 236.004 96.6342 240.144C104.35 246.132 114.04 249.698 124.563 249.698C135.086 249.698 144.777 246.132 152.493 240.143C157.825 236.003 166.275 236.003 171.608 240.143C179.324 246.132 189.014 249.698 199.538 249.698C210.061 249.698 219.751 246.132 227.466 240.144C232.799 236.005 241.249 236.005 246.582 240.145C254.297 246.134 263.989 249.7 274.513 249.7C285.037 249.7 294.728 246.134 302.444 240.145C307.776 236.005 316.226 236.005 321.559 240.144C329.274 246.132 338.965 249.698 349.487 249.698C360.011 249.698 369.702 246.132 377.417 240.143C382.75 236.003 391.2 236.003 396.532 240.143C404.248 246.132 413.939 249.698 424.462 249.698C434.985 249.698 444.675 246.132 452.391 240.144C457.723 236.005 466.173 236.005 471.506 240.145C479.222 246.134 488.913 249.7 499.437 249.7C509.961 249.7 519.651 246.135 527.367 240.145C532.7 236.006 541.15 236.006 546.482 240.145C554.198 246.134 563.889 249.7 574.412 249.7C599.589 249.7 620 229.289 620 204.111C620 193.286 616.227 183.342 609.924 175.523C605.339 169.835 605.339 160.126 609.924 154.437C616.227 146.618 620 136.674 620 125.849C620 115.024 616.227 105.08 609.924 97.2607C605.339 91.5725 605.339 81.8645 609.924 76.1762C616.227 68.357 620 58.4132 620 47.5881C620 22.4105 599.589 2 574.412 2C563.888 2 554.198 5.56568 546.482 11.5548C541.149 15.6942 532.699 15.6942 527.367 11.5548C519.651 5.56568 509.96 2 499.437 2C488.914 2 479.223 5.56568 471.507 11.5548C466.175 15.6942 457.725 15.6942 452.392 11.5548C444.676 5.56568 434.986 2 424.462 2C413.939 2 404.248 5.56568 396.533 11.5548C391.2 15.6942 382.75 15.6942 377.417 11.5548C369.702 5.56568 360.011 2 349.487 2C338.964 2 329.273 5.56567 321.558 11.5548C316.225 15.6941 307.775 15.6941 302.442 11.5548C294.727 5.56567 285.036 2 274.513 2C263.989 2 254.298 5.56567 246.583 11.5548C241.25 15.6941 232.8 15.6941 227.467 11.5548C219.752 5.56567 210.061 2 199.538 2C189.014 2 179.324 5.56567 171.608 11.5548Z"
      fill="url(#paint0_linear_368_41278)" />
  </g>
  <defs>
    <filter id="filter0_d_368_41278" x="0" y="0" width="624" height="255.7"
      filterUnits="userSpaceOnUse" color-interpolation-filters="sRGB">
      <feFlood flood-opacity="0" result="BackgroundImageFix" />
      <feColorMatrix in="SourceAlpha" type="matrix"
        values="0 0 0 0 0 0 0 0 0 0 0 0 0 0 0 0 0 0 127 0" result="hardAlpha" />
      <feOffset dy="2" />
      <feGaussianBlur stdDeviation="2" />
      <feComposite in2="hardAlpha" operator="out" />
      <feColorMatrix type="matrix"
        values="0 0 0 0 0.0980392 0 0 0 0 0.0980392 0 0 0 0 0.0980392 0 0 0 0.12 0" />
      <feBlend mode="normal" in2="BackgroundImageFix" result="effect1_dropShadow_368_41278" />
      <feBlend mode="normal" in="SourceGraphic" in2="effect1_dropShadow_368_41278" result="shape" />
    </filter>
    <linearGradient id="paint0_linear_368_41278" x1="312" y1="2" x2="312" y2="249.7"
      gradientUnits="userSpaceOnUse">
      <stop stop-color="#FFF2E2" />
      <stop offset="1" stop-color="#C4B7BA" />
    </linearGradient>
  </defs>
</svg>
