<svg width="617" height="221" viewBox="0 0 617 221" fill="none" xmlns="http://www.w3.org/2000/svg">
  <path
    d="M601.299 57.1256C610.386 51.8064 616.489 41.9424 616.489 30.653C616.489 13.7238 602.765 0 585.836 0C575.385 0 566.156 5.23006 560.622 13.2156C555.089 5.23016 545.86 0.00016868 535.409 0.00016868C524.958 0.00016868 515.729 5.23019 510.196 13.2157C504.663 5.23019 495.433 0.00016868 484.983 0.00016868C474.532 0.00016868 465.302 5.23019 459.769 13.2157C454.236 5.23019 445.007 0.00016868 434.556 0.00016868C424.105 0.00016868 414.876 5.23019 409.343 13.2157C403.809 5.23019 394.58 0.00016868 384.129 0.00016868C373.679 0.00016868 364.449 5.23019 358.916 13.2157C353.383 5.23019 344.154 0.00016868 333.703 0.00016868C323.252 0.00016868 314.023 5.23019 308.489 13.2157C302.956 5.23019 293.727 0.00016868 283.276 0.00016868C272.825 0.00016868 263.596 5.23019 258.063 13.2157C252.53 5.23019 243.3 0.00016868 232.85 0.00016868C222.399 0.00016868 213.169 5.23019 207.636 13.2157C202.103 5.23019 192.874 0.00016868 182.423 0.00016868C171.972 0.00016868 162.743 5.23019 157.21 13.2157C151.676 5.23019 142.447 0.00016868 131.996 0.00016868C121.546 0.00016868 112.316 5.23019 106.783 13.2157C101.25 5.23019 92.0206 0.00016868 81.5698 0.00016868C71.119 0.00016868 61.8897 5.23019 56.3565 13.2157C50.8233 5.23019 41.594 0.00016868 31.1432 0.00016868C14.214 0.00016868 0.490234 13.724 0.490234 30.6532C0.490234 41.9428 6.59356 51.807 15.6807 57.1262C6.59356 62.4453 0.490234 72.3095 0.490234 83.5992C0.490234 94.8888 6.59357 104.753 15.6807 110.072C6.59357 115.391 0.490234 125.255 0.490234 136.545C0.490234 147.86 6.62126 157.744 15.7425 163.054C6.62126 168.365 0.490234 178.248 0.490234 189.563C0.490234 206.493 14.214 220.216 31.1432 220.216C41.594 220.216 50.8233 214.986 56.3565 207.001C61.8897 214.986 71.119 220.216 81.5698 220.216C92.0206 220.216 101.25 214.986 106.783 207.001C112.316 214.986 121.546 220.216 131.996 220.216C142.447 220.216 151.676 214.986 157.21 207.001C162.743 214.986 171.972 220.216 182.423 220.216C192.874 220.216 202.103 214.986 207.636 207.001C213.169 214.986 222.399 220.216 232.85 220.216C243.3 220.216 252.53 214.986 258.063 207.001C263.596 214.986 272.825 220.216 283.276 220.216C293.727 220.216 302.956 214.986 308.489 207.001C314.023 214.986 323.252 220.216 333.703 220.216C344.154 220.216 353.383 214.986 358.916 207.001C364.449 214.986 373.679 220.216 384.129 220.216C394.58 220.216 403.809 214.986 409.343 207.001C414.876 214.986 424.105 220.216 434.556 220.216C445.007 220.216 454.236 214.986 459.769 207.001C465.302 214.986 474.532 220.216 484.983 220.216C495.433 220.216 504.663 214.986 510.196 207.001C515.729 214.986 524.958 220.216 535.409 220.216C545.86 220.216 555.089 214.986 560.622 207.001C566.156 214.986 575.385 220.216 585.836 220.216C602.765 220.216 616.489 206.492 616.489 189.563C616.489 178.248 610.358 168.365 601.237 163.054C610.359 157.744 616.49 147.861 616.49 136.545C616.49 125.255 610.387 115.391 601.3 110.072C610.387 104.753 616.49 94.8887 616.49 83.599C616.49 72.309 610.386 62.4446 601.299 57.1256Z"
    fill="black" />
</svg>
