<svg width="827" height="296" viewBox="0 0 827 296" fill="none" xmlns="http://www.w3.org/2000/svg">
  <path
    d="M805.968 76.6002C818.152 69.4676 826.336 56.2409 826.336 41.1029C826.336 18.4024 807.933 0 785.233 0C771.219 0 758.844 7.01304 751.424 17.7209C744.005 7.01317 731.629 0.000226185 717.616 0.000226185C703.602 0.000226185 691.226 7.01322 683.807 17.7211C676.387 7.01322 664.012 0.000226185 649.998 0.000226185C635.984 0.000226185 623.609 7.01322 616.189 17.7211C608.77 7.01322 596.394 0.000226185 582.381 0.000226185C568.367 0.000226185 555.991 7.01322 548.572 17.7211C541.152 7.01322 528.777 0.000226185 514.763 0.000226185C500.75 0.000226185 488.374 7.01321 480.954 17.721C473.535 7.01321 461.159 0.000226185 447.146 0.000226185C433.132 0.000226185 420.756 7.01321 413.337 17.721C405.917 7.01321 393.542 0.000226185 379.528 0.000226185C365.515 0.000226185 353.139 7.01321 345.719 17.721C338.3 7.01321 325.924 0.000226185 311.911 0.000226185C297.897 0.000226185 285.521 7.01321 278.102 17.721C270.682 7.01321 258.307 0.000226185 244.293 0.000226185C230.28 0.000226185 217.904 7.01321 210.484 17.721C203.065 7.01321 190.689 0.000226185 176.676 0.000226185C162.662 0.000226185 150.286 7.01321 142.867 17.721C135.447 7.01321 123.072 0.000226185 109.058 0.000226185C95.0446 0.000226185 82.669 7.01321 75.2495 17.721C67.83 7.01321 55.4543 0.000226185 41.4408 0.000226185C18.7403 0.000226185 0.337891 18.4026 0.337891 41.1031C0.337891 56.2415 8.5219 69.4685 20.7069 76.601C8.5219 83.7335 0.337891 96.9604 0.337891 112.099C0.337891 127.237 8.52191 140.464 20.7069 147.597C8.52191 154.729 0.337891 167.956 0.337891 183.095C0.337891 198.267 8.55905 211.52 20.7898 218.641C8.55905 225.762 0.337891 239.014 0.337891 254.187C0.337891 276.888 18.7403 295.29 41.4408 295.29C55.4543 295.29 67.83 288.277 75.2495 277.569C82.669 288.277 95.0446 295.29 109.058 295.29C123.072 295.29 135.447 288.277 142.867 277.569C150.286 288.277 162.662 295.29 176.676 295.29C190.689 295.29 203.065 288.277 210.484 277.569C217.904 288.277 230.28 295.29 244.293 295.29C258.307 295.29 270.682 288.277 278.102 277.569C285.521 288.277 297.897 295.29 311.911 295.29C325.924 295.29 338.3 288.277 345.719 277.569C353.139 288.277 365.515 295.29 379.528 295.29C393.542 295.29 405.917 288.277 413.337 277.569C420.756 288.277 433.132 295.29 447.146 295.29C461.159 295.29 473.535 288.277 480.954 277.569C488.374 288.277 500.75 295.29 514.763 295.29C528.777 295.29 541.152 288.277 548.572 277.569C555.991 288.277 568.367 295.29 582.381 295.29C596.394 295.29 608.77 288.277 616.189 277.569C623.609 288.277 635.984 295.29 649.998 295.29C664.012 295.29 676.387 288.277 683.807 277.569C691.226 288.277 703.602 295.29 717.616 295.29C731.629 295.29 744.005 288.277 751.424 277.569C758.844 288.277 771.219 295.29 785.233 295.29C807.933 295.29 826.336 276.887 826.336 254.187C826.336 239.015 818.115 225.762 805.885 218.641C818.116 211.52 826.338 198.268 826.338 183.094C826.338 167.956 818.154 154.729 805.969 147.597C818.154 140.464 826.338 127.237 826.338 112.099C826.338 96.9598 818.153 83.7326 805.968 76.6002Z"
    fill="black" />
</svg>
