<svg width="300" height="300" viewBox="0 0 300 300" fill="none" xmlns="http://www.w3.org/2000/svg">
  <path
    d="M125.049 300.007C132.666 300.007 139.579 296.987 144.654 292.079C147.07 289.743 151.447 289.743 153.863 292.08C158.938 296.988 165.851 300.008 173.469 300.008C181.277 300.008 188.343 296.836 193.451 291.71C195.977 289.174 200.898 289.174 203.425 291.71C208.532 296.836 215.599 300.008 223.407 300.008C231.02 300.008 237.928 296.992 243.003 292.089C245.417 289.757 249.783 289.757 252.197 292.09C257.272 296.992 264.181 300.009 271.794 300.009C287.372 300.009 300 287.381 300 271.803C300 264.144 296.947 257.197 291.992 252.115C289.617 249.679 289.617 245.208 291.992 242.772C296.947 237.689 300 230.743 300 223.084C300 215.424 296.947 208.478 291.992 203.396C289.617 200.959 289.617 196.488 291.992 194.052C296.947 188.97 300 182.023 300 174.364C300 166.705 296.947 159.759 291.992 154.676C289.617 152.24 289.617 147.769 291.992 145.333C296.947 140.25 300 133.304 300 125.645C300 117.986 296.947 111.039 291.992 105.957C289.617 103.52 289.617 99.0495 291.992 96.6134C296.947 91.5307 300 84.5845 300 76.9253C300 69.2661 296.947 62.3199 291.992 57.2372C289.617 54.8011 289.617 50.3302 291.992 47.8941C296.947 42.8114 300 35.8652 300 28.206C300 12.6283 287.372 0 271.794 0C264.181 0 257.272 3.01623 252.198 7.91888C249.783 10.2513 245.417 10.2513 243.003 7.91888C237.928 3.01623 231.02 0 223.407 0C215.737 0 208.782 3.06147 203.697 8.0291C201.255 10.4145 196.758 10.4145 194.317 8.0291C189.232 3.06147 182.277 0 174.607 0C166.937 0 159.982 3.06153 154.897 8.02925C152.455 10.4147 147.958 10.4147 145.516 8.02925C140.432 3.06153 133.477 0 125.807 0C118.137 0 111.182 3.06146 106.097 8.02908C103.655 10.4145 99.1582 10.4145 96.7166 8.02908C91.632 3.06146 84.677 0 77.0069 0C69.3367 0 62.3816 3.0616 57.2969 8.02941C54.8553 10.4149 50.3577 10.4149 47.916 8.02941C42.8314 3.0616 35.8762 0 28.206 0C12.6283 0 0 12.6283 0 28.206C0 35.8652 3.05281 42.8114 8.00802 47.8941C10.383 50.3302 10.383 54.8011 8.00802 57.2372C3.05281 62.3199 0 69.2661 0 76.9253C0 84.5845 3.05284 91.5307 8.00808 96.6135C10.3831 99.0496 10.3831 103.521 8.00808 105.957C3.05284 111.039 0 117.986 0 125.645C0 133.304 3.05284 140.25 8.00808 145.333C10.3831 147.769 10.3831 152.24 8.00809 154.676C3.05284 159.759 0 166.705 0 174.364C0 182.024 3.05283 188.97 8.00807 194.052C10.3831 196.489 10.3831 200.96 8.00808 203.396C3.05284 208.478 0 215.425 0 223.084C0 230.743 3.05279 237.689 8.00797 242.772C10.3829 245.208 10.3829 249.679 8.00797 252.115C3.05279 257.198 0 264.144 0 271.803C0 287.381 12.6283 300.009 28.206 300.009C35.8244 300.009 42.7373 296.989 47.8127 292.08C50.2289 289.743 54.6056 289.743 57.022 292.08C62.0972 296.987 69.0094 300.007 76.6268 300.007C84.2449 300.007 91.1576 296.987 96.2329 292.078C98.6494 289.741 103.026 289.741 105.443 292.078C110.518 296.987 117.431 300.007 125.049 300.007Z"
    fill="black" />
</svg>
