<svg width="300" height="300" viewBox="0 0 300 300" fill="none" xmlns="http://www.w3.org/2000/svg">
  <path
    d="M290.727 87.6744C286.507 82.4392 286.507 73.5043 290.727 68.2691C296.528 61.0725 300 51.9206 300 41.9577C300 18.7851 281.215 0 258.042 0C248.079 0 238.927 3.47249 231.731 9.27319C226.496 13.493 217.561 13.493 212.326 9.27319C205.129 3.47249 195.977 0 186.014 0C176.051 0 166.899 3.47248 159.703 9.27318C154.467 13.493 145.533 13.493 140.297 9.27318C133.101 3.47248 123.949 0 113.986 0C104.023 0 94.871 3.47248 87.6744 9.27317C82.4392 13.493 73.5043 13.493 68.2691 9.27318C61.0725 3.47248 51.9206 0 41.9577 0C18.7851 0 0 18.7851 0 41.9577C0 51.9206 3.47248 61.0725 9.27317 68.2691C13.493 73.5043 13.493 82.4392 9.27318 87.6744C3.47248 94.871 0 104.023 0 113.986C0 123.949 3.47258 133.101 9.27341 140.298C13.4935 145.533 13.4935 154.469 9.27341 159.704C3.47258 166.901 0 176.053 0 186.016C0 195.979 3.47249 205.131 9.27319 212.327C13.493 217.563 13.493 226.498 9.27319 231.733C3.47249 238.929 0 248.081 0 258.044C0 281.217 18.7851 300.002 41.9577 300.002C51.921 300.002 61.0732 296.529 68.27 290.728C73.5051 286.508 82.4399 286.508 87.6753 290.728C94.8718 296.528 104.023 300 113.986 300C123.949 300 133.101 296.528 140.297 290.727C145.533 286.507 154.467 286.507 159.703 290.727C166.899 296.528 176.051 300 186.014 300C195.977 300 205.128 296.528 212.325 290.728C217.56 286.508 226.495 286.508 231.73 290.728C238.927 296.529 248.079 300.002 258.042 300.002C281.215 300.002 300 281.217 300 258.044C300 248.081 296.528 238.929 290.727 231.733C286.507 226.498 286.507 217.563 290.727 212.327C296.528 205.131 300 195.979 300 186.016C300 176.053 296.527 166.901 290.727 159.704C286.507 154.469 286.507 145.533 290.727 140.298C296.527 133.101 300 123.949 300 113.986C300 104.023 296.528 94.871 290.727 87.6744Z"
    fill="black" />
</svg>
