<svg width="722" height="723" viewBox="0 0 722 723" fill="none" xmlns="http://www.w3.org/2000/svg">
  <path
    d="M300.951 722.016C319.284 722.016 335.919 714.749 348.134 702.938C353.949 697.314 364.482 697.314 370.297 702.938C382.512 714.751 399.148 722.019 417.482 722.019C436.273 722.019 453.28 714.385 465.571 702.048C471.652 695.944 483.495 695.944 489.577 702.048C501.868 714.384 518.875 722.019 537.665 722.019C555.987 722.019 572.614 714.76 584.826 702.962C590.636 697.349 601.145 697.349 606.955 702.962C619.167 714.762 635.795 722.021 654.118 722.021C691.608 722.021 722 691.629 722 654.139C722 635.706 714.653 618.989 702.727 606.756C697.011 600.893 697.011 590.133 702.727 584.271C714.653 572.038 722 555.321 722 536.888C722 518.455 714.653 501.738 702.727 489.505C697.011 483.642 697.011 472.882 702.727 467.019C714.653 454.787 722 438.07 722 419.637C722 401.203 714.652 384.486 702.727 372.254C697.011 366.391 697.011 355.631 702.727 349.768C714.652 337.535 722 320.818 722 302.385C722 283.952 714.652 267.235 702.727 255.002C697.011 249.139 697.011 238.379 702.727 232.516C714.653 220.284 722 203.567 722 185.134C722 166.7 714.653 149.983 702.727 137.751C697.011 131.888 697.011 121.128 702.727 115.265C714.653 103.033 722 86.3156 722 67.8825C722 30.392 691.608 0 654.117 0C635.795 0 619.168 7.25905 606.955 19.0581C601.145 24.6716 590.637 24.6716 584.827 19.0581C572.614 7.25905 555.987 0 537.665 0C519.206 0 502.468 7.36794 490.231 19.3234C484.354 25.0642 473.531 25.0642 467.655 19.3234C455.418 7.36794 438.68 0 420.221 0C401.761 0 385.023 7.36809 372.786 19.3237C366.909 25.0647 356.086 25.0647 350.21 19.3237C337.973 7.36809 321.234 0 302.775 0C284.315 0 267.577 7.36792 255.34 19.3233C249.464 25.0641 238.641 25.0641 232.765 19.3233C220.528 7.36792 203.789 0 185.33 0C166.87 0 150.132 7.36825 137.895 19.3241C132.018 25.0653 121.194 25.0653 115.318 19.3241C103.081 7.36825 86.3421 0 67.8825 0C30.392 0 0 30.392 0 67.8825C0 86.3156 7.3471 103.033 19.2726 115.265C24.9884 121.128 24.9884 131.888 19.2726 137.751C7.3471 149.983 0 166.7 0 185.134C0 203.567 7.34716 220.284 19.2728 232.516C24.9886 238.379 24.9886 249.139 19.2728 255.002C7.34716 267.235 0 283.952 0 302.385C0 320.818 7.34716 337.536 19.2728 349.768C24.9887 355.631 24.9887 366.391 19.2728 372.254C7.34717 384.486 0 401.204 0 419.637C0 438.07 7.34716 454.787 19.2728 467.02C24.9886 472.883 24.9886 483.643 19.2728 489.506C7.34716 501.738 0 518.455 0 536.888C0 555.321 7.34705 572.038 19.2725 584.271C24.9883 590.134 24.9882 600.894 19.2725 606.756C7.34705 618.989 0 635.706 0 654.139C0 691.629 30.392 722.021 67.8825 722.021C86.2174 722.021 102.854 714.752 115.069 702.939C120.884 697.315 131.417 697.315 137.233 702.938C149.447 714.749 166.083 722.016 184.415 722.016C202.749 722.016 219.386 714.748 231.601 702.935C237.416 697.311 247.95 697.311 253.766 702.935C265.98 714.748 282.617 722.016 300.951 722.016Z"
    fill="black" />
</svg>
