<svg width="308" height="308" viewBox="0 0 308 308" fill="none" xmlns="http://www.w3.org/2000/svg">
  <g filter="url(#filter0_d_368_39827)">
    <path
      d="M294.727 89.6744C290.507 84.4392 290.507 75.5043 294.727 70.2691C300.528 63.0725 304 53.9206 304 43.9577C304 20.7851 285.215 2 262.042 2C252.079 2 242.927 5.47249 235.731 11.2732C230.496 15.493 221.561 15.493 216.326 11.2732C209.129 5.47249 199.977 2 190.014 2C180.051 2 170.899 5.47248 163.703 11.2732C158.467 15.493 149.533 15.493 144.297 11.2732C137.101 5.47248 127.949 2 117.986 2C108.023 2 98.871 5.47248 91.6744 11.2732C86.4392 15.493 77.5043 15.493 72.2691 11.2732C65.0725 5.47248 55.9206 2 45.9577 2C22.7851 2 4 20.7851 4 43.9577C4 53.9206 7.47248 63.0725 13.2732 70.2691C17.493 75.5043 17.493 84.4392 13.2732 89.6744C7.47248 96.871 4 106.023 4 115.986C4 125.949 7.47258 135.101 13.2734 142.298C17.4935 147.533 17.4935 156.469 13.2734 161.704C7.47258 168.901 4 178.053 4 188.016C4 197.979 7.47249 207.131 13.2732 214.327C17.493 219.563 17.493 228.498 13.2732 233.733C7.47249 240.929 4 250.081 4 260.044C4 283.217 22.7851 302.002 45.9577 302.002C55.921 302.002 65.0732 298.529 72.27 292.728C77.5051 288.508 86.4399 288.508 91.6753 292.728C98.8718 298.528 108.023 302 117.986 302C127.949 302 137.101 298.527 144.297 292.727C149.533 288.507 158.467 288.507 163.703 292.727C170.899 298.527 180.051 302 190.014 302C199.977 302 209.128 298.528 216.325 292.728C221.56 288.508 230.495 288.508 235.73 292.728C242.927 298.529 252.079 302.002 262.042 302.002C285.215 302.002 304 283.217 304 260.044C304 250.081 300.528 240.929 294.727 233.733C290.507 228.498 290.507 219.563 294.727 214.327C300.528 207.131 304 197.979 304 188.016C304 178.053 300.527 168.901 294.727 161.704C290.507 156.469 290.507 147.533 294.727 142.298C300.527 135.101 304 125.949 304 115.986C304 106.023 300.528 96.871 294.727 89.6744Z"
      fill="url(#paint0_linear_368_39827)" />
  </g>
  <defs>
    <filter id="filter0_d_368_39827" x="0" y="0" width="308" height="308.002"
      filterUnits="userSpaceOnUse" color-interpolation-filters="sRGB">
      <feFlood flood-opacity="0" result="BackgroundImageFix" />
      <feColorMatrix in="SourceAlpha" type="matrix"
        values="0 0 0 0 0 0 0 0 0 0 0 0 0 0 0 0 0 0 127 0" result="hardAlpha" />
      <feOffset dy="2" />
      <feGaussianBlur stdDeviation="2" />
      <feComposite in2="hardAlpha" operator="out" />
      <feColorMatrix type="matrix"
        values="0 0 0 0 0.0980392 0 0 0 0 0.0980392 0 0 0 0 0.0980392 0 0 0 0.12 0" />
      <feBlend mode="normal" in2="BackgroundImageFix" result="effect1_dropShadow_368_39827" />
      <feBlend mode="normal" in="SourceGraphic" in2="effect1_dropShadow_368_39827" result="shape" />
    </filter>
    <linearGradient id="paint0_linear_368_39827" x1="154" y1="2" x2="154" y2="302.002"
      gradientUnits="userSpaceOnUse">
      <stop stop-color="#FFF2E2" />
      <stop offset="1" stop-color="#C4B7BA" />
    </linearGradient>
  </defs>
</svg>
