<svg width="616" height="616" viewBox="0 0 616 616" fill="none" xmlns="http://www.w3.org/2000/svg">
  <path
    d="M597.293 141.695C591.243 135.21 591.243 123.617 597.293 117.131C608.898 104.691 615.999 87.9944 615.999 69.6394C615.999 31.1786 584.82 0 546.359 0C528.601 0 512.396 6.6467 500.095 17.588C493.902 23.0963 483.553 23.0963 477.36 17.5881C465.059 6.64697 448.854 0.000403147 431.096 0.000403147C412.626 0.000403147 395.835 7.19106 383.37 18.9257C376.812 25.0995 364.894 25.0995 358.336 18.9257C345.871 7.19106 329.081 0.000403147 310.61 0.000403147C292.14 0.000403147 275.349 7.19105 262.885 18.9257C256.327 25.0994 244.408 25.0994 237.851 18.9257C225.386 7.19105 208.595 0.000403147 190.125 0.000403147C171.655 0.000403147 154.864 7.19105 142.399 18.9257C135.841 25.0994 123.923 25.0994 117.365 18.9257C104.9 7.19105 88.1096 0.000403147 69.6394 0.000403147C31.1786 0.000403147 0 31.179 0 69.6398C0 87.9951 7.10143 104.692 18.7067 117.132C24.7568 123.618 24.7568 135.211 18.7067 141.696C7.10143 154.137 0 170.834 0 189.189C0 207.545 7.10168 224.242 18.7073 236.682C24.7578 243.168 24.7578 254.762 18.7074 261.248C7.10169 273.688 0 290.385 0 308.741C0 327.096 7.10143 343.793 18.7067 356.233C24.7568 362.719 24.7568 374.312 18.7067 380.797C7.10142 393.238 0 409.935 0 428.29C0 446.407 6.91847 462.909 18.2576 475.296C24.0759 481.653 24.0759 492.682 18.2576 499.039C6.91847 511.427 0 527.928 0 546.045C0 584.506 31.1786 615.685 69.6394 615.685C87.9955 615.685 104.693 608.583 117.134 596.976C123.619 590.926 135.212 590.926 141.698 596.976C154.138 608.58 170.834 615.681 189.189 615.681C207.544 615.681 224.241 608.579 236.681 596.974C243.167 590.924 254.76 590.924 261.245 596.974C273.686 608.579 290.382 615.681 308.738 615.681C327.092 615.681 343.788 608.58 356.229 596.976C362.714 590.926 374.307 590.926 380.793 596.976C393.234 608.583 409.931 615.685 428.287 615.685C446.448 615.685 462.985 608.733 475.383 597.345C481.762 591.486 492.886 591.486 499.264 597.345C511.662 608.733 528.2 615.685 546.361 615.685C584.821 615.685 616 584.506 616 546.045C616 527.928 609.081 511.426 597.742 499.039C591.924 492.682 591.924 481.652 597.742 475.296C609.081 462.908 616 446.407 616 428.289C616 409.934 608.899 393.237 597.293 380.797C591.243 374.311 591.243 362.718 597.293 356.233C608.899 343.792 616 327.095 616 308.74C616 290.384 608.898 273.687 597.293 261.247C591.242 254.761 591.242 243.167 597.293 236.682C608.898 224.241 616 207.544 616 189.188C616 170.833 608.898 154.136 597.293 141.695Z"
    fill="black" />
</svg>
