<svg width="616" height="617" viewBox="0 0 616 617" fill="none" xmlns="http://www.w3.org/2000/svg">
  <path
    d="M256.767 616.014C272.408 616.014 286.602 609.813 297.023 599.736C301.984 594.938 310.971 594.939 315.932 599.737C326.353 609.815 340.547 616.016 356.19 616.016C372.222 616.016 386.732 609.503 397.218 598.977C402.407 593.77 412.511 593.77 417.7 598.977C428.187 609.503 442.697 616.016 458.728 616.016C474.36 616.016 488.546 609.823 498.965 599.757C503.922 594.968 512.888 594.968 517.845 599.757C528.265 609.825 542.451 616.018 558.084 616.018C590.07 616.018 616 590.088 616 558.102C616 542.375 609.732 528.112 599.557 517.676C594.68 512.673 594.68 503.493 599.557 498.491C609.731 488.055 616 473.792 616 458.065C616 442.338 609.731 428.075 599.556 417.639C594.68 412.637 594.68 403.456 599.556 398.454C609.731 388.018 616 373.755 616 358.028C616 342.301 609.731 328.038 599.556 317.602C594.68 312.599 594.68 303.419 599.556 298.417C609.731 287.98 616 273.717 616 257.991C616 242.264 609.731 228.001 599.556 217.564C594.68 212.562 594.68 203.382 599.556 198.38C609.731 187.943 616 173.68 616 157.953C616 142.226 609.731 127.964 599.557 117.527C594.68 112.525 594.68 103.345 599.557 98.3426C609.731 87.906 616 73.6433 616 57.9164C616 25.9301 590.07 0 558.083 0C542.451 0 528.265 6.19332 517.846 16.2601C512.889 21.0494 503.923 21.0494 498.966 16.2601C488.546 6.19332 474.361 0 458.728 0C442.979 0 428.698 6.28622 418.258 16.4864C413.244 21.3844 404.01 21.3844 398.997 16.4864C388.556 6.28622 374.275 0 358.526 0C342.777 0 328.496 6.28635 318.055 16.4867C313.042 21.3849 303.807 21.3849 298.794 16.4867C288.353 6.28635 274.072 0 258.323 0C242.574 0 228.293 6.2862 217.852 16.4864C212.839 21.3844 203.605 21.3843 198.591 16.4864C188.151 6.2862 173.87 0 158.121 0C142.371 0 128.09 6.28648 117.65 16.4871C112.636 21.3853 103.401 21.3854 98.3876 16.4871C87.9471 6.28648 73.6659 0 57.9164 0C25.93 0 0 25.9301 0 57.9164C0 73.6433 6.26844 87.9061 16.4431 98.3426C21.3198 103.345 21.3198 112.525 16.4431 117.527C6.26844 127.964 0 142.226 0 157.953C0 173.68 6.26849 187.943 16.4433 198.38C21.32 203.382 21.32 212.562 16.4433 217.564C6.26849 228.001 0 242.264 0 257.991C0 273.718 6.26849 287.98 16.4433 298.417C21.32 303.419 21.32 312.6 16.4433 317.602C6.2685 328.038 0 342.301 0 358.028C0 373.755 6.26849 388.018 16.4432 398.454C21.3199 403.457 21.3199 412.637 16.4433 417.639C6.26849 428.076 0 442.338 0 458.065C0 473.792 6.2684 488.055 16.443 498.492C21.3196 503.494 21.3196 512.674 16.443 517.676C6.2684 528.112 0 542.375 0 558.102C0 590.088 25.93 616.018 57.9164 616.018C73.5594 616.018 87.754 609.817 98.1754 599.738C103.137 594.939 112.123 594.939 117.085 599.737C127.506 609.813 141.699 616.014 157.34 616.014C172.983 616.014 187.177 609.812 197.598 599.734C202.56 594.936 211.548 594.936 216.509 599.734C226.931 609.812 241.125 616.014 256.767 616.014Z"
    fill="black" />
</svg>
