<svg width="624" height="624" viewBox="0 0 624 624" fill="none" xmlns="http://www.w3.org/2000/svg">
  <g filter="url(#filter0_d_181_47387)">
    <path
      d="M601.293 143.695C595.243 137.21 595.243 125.617 601.293 119.131C612.898 106.691 619.999 89.9944 619.999 71.6394C619.999 33.1786 588.82 2 550.359 2C532.601 2 516.396 8.6467 504.095 19.588C497.902 25.0963 487.553 25.0963 481.36 19.5881C469.059 8.64697 452.854 2.0004 435.096 2.0004C416.626 2.0004 399.835 9.19106 387.37 20.9257C380.812 27.0995 368.894 27.0995 362.336 20.9257C349.871 9.19106 333.081 2.0004 314.61 2.0004C296.14 2.0004 279.349 9.19105 266.885 20.9257C260.327 27.0994 248.408 27.0994 241.851 20.9257C229.386 9.19105 212.595 2.0004 194.125 2.0004C175.655 2.0004 158.864 9.19105 146.399 20.9257C139.841 27.0994 127.923 27.0994 121.365 20.9257C108.9 9.19105 92.1096 2.0004 73.6394 2.0004C35.1786 2.0004 4 33.179 4 71.6398C4 89.9951 11.1014 106.692 22.7067 119.132C28.7568 125.618 28.7568 137.211 22.7067 143.696C11.1014 156.137 4 172.834 4 191.189C4 209.545 11.1017 226.242 22.7073 238.682C28.7578 245.168 28.7578 256.762 22.7073 263.248C11.1017 275.688 4 292.385 4 310.741C4 329.096 11.1014 345.793 22.7067 358.233C28.7568 364.719 28.7568 376.312 22.7067 382.797C11.1014 395.238 4 411.935 4 430.29C4 448.407 10.9185 464.909 22.2576 477.296C28.0759 483.653 28.0759 494.682 22.2576 501.039C10.9185 513.427 4 529.928 4 548.045C4 586.506 35.1786 617.685 73.6394 617.685C91.9955 617.685 108.693 610.583 121.134 598.976C127.619 592.926 139.212 592.926 145.698 598.976C158.138 610.58 174.834 617.681 193.189 617.681C211.544 617.681 228.241 610.579 240.681 598.974C247.167 592.924 258.76 592.924 265.245 598.974C277.686 610.579 294.382 617.681 312.738 617.681C331.092 617.681 347.788 610.58 360.229 598.976C366.714 592.926 378.307 592.926 384.793 598.976C397.234 610.583 413.931 617.685 432.287 617.685C450.448 617.685 466.985 610.733 479.383 599.345C485.762 593.486 496.886 593.486 503.264 599.345C515.662 610.733 532.2 617.685 550.361 617.685C588.821 617.685 620 586.506 620 548.045C620 529.928 613.081 513.426 601.742 501.039C595.924 494.682 595.924 483.652 601.742 477.296C613.081 464.908 620 448.407 620 430.289C620 411.934 612.899 395.237 601.293 382.797C595.243 376.311 595.243 364.718 601.293 358.233C612.899 345.792 620 329.095 620 310.74C620 292.384 612.898 275.687 601.293 263.247C595.242 256.761 595.242 245.167 601.293 238.682C612.898 226.241 620 209.544 620 191.188C620 172.833 612.898 156.136 601.293 143.695Z"
      fill="url(#paint0_linear_181_47387)" />
  </g>
  <defs>
    <filter id="filter0_d_181_47387" x="0" y="0" width="624" height="623.685"
      filterUnits="userSpaceOnUse" color-interpolation-filters="sRGB">
      <feFlood flood-opacity="0" result="BackgroundImageFix" />
      <feColorMatrix in="SourceAlpha" type="matrix"
        values="0 0 0 0 0 0 0 0 0 0 0 0 0 0 0 0 0 0 127 0" result="hardAlpha" />
      <feOffset dy="2" />
      <feGaussianBlur stdDeviation="2" />
      <feComposite in2="hardAlpha" operator="out" />
      <feColorMatrix type="matrix"
        values="0 0 0 0 0.0980392 0 0 0 0 0.0980392 0 0 0 0 0.0980392 0 0 0 0.12 0" />
      <feBlend mode="normal" in2="BackgroundImageFix" result="effect1_dropShadow_181_47387" />
      <feBlend mode="normal" in="SourceGraphic" in2="effect1_dropShadow_181_47387" result="shape" />
    </filter>
    <linearGradient id="paint0_linear_181_47387" x1="312" y1="2" x2="312" y2="617.685"
      gradientUnits="userSpaceOnUse">
      <stop stop-color="#FFF2E2" />
      <stop offset="1" stop-color="#C4B7BA" />
    </linearGradient>
  </defs>
</svg>
