<svg width="300" height="300" viewBox="0 0 300 300" fill="none" xmlns="http://www.w3.org/2000/svg">
  <path
    d="M290.889 69.0075C287.943 65.849 287.943 60.2031 290.889 57.0445C296.541 50.9858 299.999 42.8544 299.999 33.9153C299.999 15.1844 284.815 0 266.084 0C257.436 0 249.543 3.23703 243.553 8.56558C240.537 11.2482 235.497 11.2482 232.481 8.56562C226.49 3.23716 218.598 0.000196338 209.949 0.000196338C200.954 0.000196338 192.777 3.50214 186.706 9.21706C183.512 12.2238 177.708 12.2238 174.514 9.21706C168.444 3.50214 160.267 0.000196338 151.271 0.000196338C142.276 0.000196338 134.099 3.50214 128.028 9.21705C124.834 12.2238 119.03 12.2238 115.836 9.21705C109.766 3.50213 101.589 0.000196338 92.5933 0.000196338C83.598 0.000196338 75.4207 3.50214 69.3502 9.21705C66.1564 12.2238 60.3521 12.2238 57.1583 9.21705C51.0879 3.50213 42.9105 0.000196338 33.9153 0.000196338C15.1844 0.000196338 0 15.1846 0 33.9155C0 42.8548 3.45849 50.9863 9.11042 57.045C12.0569 60.2035 12.0569 65.8495 9.11042 69.008C3.45849 75.0667 0 83.1982 0 92.1375C0 101.077 3.45861 109.209 9.11072 115.267C12.0574 118.426 12.0574 124.072 9.11072 127.231C3.45861 133.29 0 141.421 0 150.361C0 159.3 3.45849 167.432 9.11041 173.49C12.0569 176.649 12.0569 182.295 9.11041 185.453C3.45849 191.512 0 199.644 0 208.583C0 217.406 3.36938 225.443 8.89168 231.476C11.7253 234.571 11.7253 239.943 8.89168 243.038C3.36938 249.071 0 257.108 0 265.931C0 284.662 15.1844 299.846 33.9153 299.846C42.855 299.846 50.9868 296.388 57.0456 290.735C60.204 287.789 65.85 287.788 69.0086 290.735C75.0672 296.386 83.1984 299.845 92.1373 299.845C101.077 299.845 109.208 296.386 115.267 290.734C118.425 287.788 124.071 287.788 127.23 290.734C133.289 296.386 141.42 299.845 150.359 299.845C159.298 299.845 167.429 296.386 173.488 290.735C176.647 287.788 182.293 287.789 185.451 290.735C191.51 296.388 199.642 299.846 208.581 299.846C217.426 299.846 225.48 296.461 231.518 290.915C234.624 288.061 240.042 288.061 243.148 290.915C249.186 296.461 257.24 299.846 266.085 299.846C284.816 299.846 300 284.662 300 265.931C300 257.108 296.631 249.071 291.108 243.038C288.274 239.943 288.274 234.571 291.108 231.475C296.631 225.442 300 217.406 300 208.582C300 199.643 296.542 191.512 290.89 185.453C287.943 182.294 287.943 176.648 290.89 173.49C296.542 167.431 300 159.3 300 150.36C300 141.421 296.541 133.289 290.889 127.231C287.943 124.072 287.943 118.426 290.889 115.267C296.541 109.208 300 101.077 300 92.1372C300 83.1978 296.541 75.0662 290.889 69.0075Z"
    fill="black" />
</svg>
