<svg width="616" height="616" viewBox="0 0 616 616" fill="none" xmlns="http://www.w3.org/2000/svg">
  <path
    d="M596.959 180.025C588.294 169.275 588.294 150.929 596.959 140.179C608.87 125.402 616 106.61 616 86.1531C616 38.572 577.428 0 529.847 0C509.39 0 490.598 7.13017 475.821 19.0409C465.071 27.7056 446.725 27.7056 435.975 19.0409C421.198 7.13018 402.406 0 381.949 0C361.492 0 342.7 7.13017 327.923 19.0409C317.173 27.7055 298.827 27.7056 288.077 19.0409C273.3 7.13017 254.508 0 234.051 0C213.594 0 194.802 7.13017 180.025 19.0409C169.275 27.7055 150.929 27.7055 140.179 19.0409C125.402 7.13017 106.61 0 86.1531 0C38.572 0 0 38.572 0 86.1531C0 106.61 7.13017 125.402 19.0409 140.179C27.7055 150.929 27.7055 169.275 19.0409 180.025C7.13017 194.802 0 213.594 0 234.051C0 254.509 7.13035 273.301 19.0414 288.078C27.7066 298.828 27.7066 317.176 19.0414 327.926C7.13035 342.703 0 361.495 0 381.953C0 402.41 7.13018 421.202 19.041 435.979C27.7056 446.729 27.7056 465.075 19.0409 475.825C7.13018 490.602 0 509.394 0 529.851C0 577.432 38.572 616.004 86.1531 616.004C106.611 616.004 125.404 608.873 140.181 596.962C150.93 588.297 169.277 588.296 180.027 596.961C194.803 608.87 213.595 616 234.051 616C254.508 616 273.3 608.87 288.077 596.959C298.827 588.294 317.173 588.294 327.923 596.959C342.7 608.87 361.492 616 381.949 616C402.405 616 421.197 608.87 435.973 596.961C446.723 588.296 465.07 588.297 475.819 596.962C490.596 608.873 509.389 616.004 529.847 616.004C577.428 616.004 616 577.432 616 529.851C616 509.394 608.87 490.602 596.959 475.825C588.294 465.075 588.294 446.729 596.959 435.979C608.87 421.202 616 402.41 616 381.953C616 361.495 608.87 342.703 596.959 327.926C588.293 317.176 588.293 298.828 596.959 288.078C608.87 273.301 616 254.509 616 234.051C616 213.594 608.87 194.802 596.959 180.025Z"
    fill="black" />
</svg>
