<svg width="722" height="722" viewBox="0 0 722 722" fill="none" xmlns="http://www.w3.org/2000/svg">
  <path
    d="M700.074 166.078C692.982 158.477 692.982 144.889 700.073 137.287C713.675 122.706 721.999 103.136 721.999 81.6228C721.999 36.5438 685.455 0 640.376 0C619.562 0 600.568 7.79045 586.15 20.6145C578.892 27.0706 566.762 27.0707 559.503 20.6146C545.085 7.79077 526.091 0.00047252 505.278 0.00047252C483.629 0.00047252 463.949 8.42848 449.34 22.1824C441.653 29.4185 427.684 29.4185 419.998 22.1824C405.388 8.42848 385.708 0.00047252 364.06 0.00047252C342.411 0.00047252 322.731 8.42847 308.121 22.1824C300.435 29.4185 286.466 29.4185 278.779 22.1824C264.17 8.42847 244.49 0.00047252 222.841 0.00047252C201.193 0.00047252 181.512 8.42847 166.903 22.1824C159.217 29.4185 145.247 29.4185 137.561 22.1824C122.952 8.42847 103.271 0.00047252 81.6228 0.00047252C36.5438 0.00047252 0 36.5442 0 81.6232C0 103.137 8.32343 122.707 21.9257 137.288C29.0169 144.89 29.0169 158.478 21.9257 166.079C8.32343 180.66 0 200.23 0 221.744C0 243.258 8.32373 262.829 21.9265 277.41C29.0181 285.012 29.0181 298.601 21.9265 306.202C8.32373 320.784 0 340.354 0 361.868C0 383.382 8.32342 402.952 21.9257 417.533C29.0169 425.135 29.0169 438.723 21.9257 446.324C8.32342 460.906 0 480.475 0 501.989C0 523.224 8.10899 542.565 21.3993 557.085C28.2189 564.535 28.2189 577.462 21.3993 584.912C8.10899 599.432 0 618.773 0 640.008C0 685.087 36.5438 721.63 81.6228 721.63C103.138 721.63 122.708 713.306 137.29 699.703C144.891 692.611 158.479 692.611 166.081 699.702C180.662 713.303 200.231 721.626 221.744 721.626C243.258 721.626 262.827 713.302 277.409 699.7C285.01 692.609 298.598 692.609 306.2 699.7C320.781 713.302 340.351 721.626 361.865 721.626C383.378 721.626 402.947 713.303 417.528 699.702C425.13 692.611 438.718 692.611 446.319 699.703C460.9 713.306 480.471 721.63 501.986 721.63C523.272 721.63 542.655 713.482 557.186 700.135C564.662 693.268 577.701 693.268 585.177 700.135C599.708 713.482 619.091 721.631 640.377 721.631C685.456 721.631 722 685.087 722 640.008C722 618.773 713.891 599.432 700.6 584.912C693.781 577.462 693.781 564.534 700.6 557.084C713.891 542.564 722 523.223 722 501.988C722 480.474 713.677 460.904 700.074 446.323C692.983 438.722 692.983 425.134 700.074 417.532C713.677 402.951 722 383.381 722 361.867C722 340.353 713.676 320.783 700.074 306.202C692.982 298.6 692.982 285.011 700.074 277.409C713.676 262.828 722 243.258 722 221.744C722 200.229 713.676 180.659 700.074 166.078Z"
    fill="black" />
</svg>
