<svg width="246" height="64" viewBox="0 0 246 64" fill="none" xmlns="http://www.w3.org/2000/svg">
<path d="M23.8364 54.606C23.9246 54.3369 25.0132 51.2433 25.0986 50.9661C24.0497 50.2609 22.9375 49.688 21.8171 49.118C20.6484 51.5454 18.4822 56.8053 17.3024 59.2275C16.7481 60.3574 16.7423 60.6519 17.4435 61.3347C17.7106 61.596 18.042 61.7797 18.3864 61.9222C19.031 62.1862 19.7365 62.1818 20.4703 62.0759C21.5777 61.9101 21.698 61.7575 22.0745 60.4625C22.6471 58.5034 23.247 56.5437 23.8417 54.595L23.8335 54.5979L23.8364 54.606Z" fill="#F5DDB8"/>
<path d="M22.8447 59.789C23.3281 57.8891 25.2013 52.9163 25.8573 51.0372C25.7245 50.9474 25.6386 50.8865 25.5058 50.7967C25.4698 50.773 25.264 50.5811 25.217 50.5522C25.1183 50.8433 23.7922 54.2774 23.715 54.5517C23.1233 56.5085 22.6447 58.5256 22.0802 60.4818C21.7038 61.7768 21.5916 61.9265 20.476 62.0952C19.7422 62.2011 19.0339 62.1974 18.3922 61.9414C18.0507 61.8071 17.7164 61.6153 17.4492 61.3539C16.7481 60.6712 16.7648 60.3818 17.3082 59.2468C18.4879 56.8246 20.6192 52.5278 21.7879 50.1005C21.6085 50.0089 21.3327 49.8786 21.1423 49.7819C19.836 52.4685 17.6578 57.0471 16.3595 59.7309C16.196 60.0725 16.1404 60.1746 16.1596 60.6431C16.1721 60.8855 16.3644 61.0912 16.4771 61.2796C17.5836 63.0796 19.3341 63.0961 21.275 62.5877C21.8712 62.4302 22.2352 61.9806 22.4261 61.3276C22.5757 60.8172 22.7061 60.3046 22.8365 59.7919L22.8447 59.789Z" fill="black"/>
<path d="M42.3725 0.0861382C42.2186 0.0404075 41.9975 0.219701 41.8023 0.31664C41.7371 0.339868 41.7035 0.452381 41.6637 0.521406C40.9117 1.76736 40.0796 2.9687 39.4241 4.25345C38.2131 6.61356 37.1015 9.0206 35.9539 11.4039C35.785 11.7565 35.6105 12.0929 35.4493 12.4154C32.7511 12.6267 30.4222 13.6207 28.3451 15.2471C27.2823 16.0827 26.3946 17.0753 25.6518 18.2174C24.5626 19.8851 24.4533 21.597 25.3622 23.3576L25.3867 23.3489C25.5622 23.6886 25.7867 24.0109 25.9867 24.3419C26.0797 24.5007 26.1699 24.6514 26.2826 24.8398C24.1187 25.5739 22.783 27.0643 21.9625 29.0751C21.1319 31.1352 21.2403 33.0986 22.6101 34.9419C22.1976 35.1254 21.861 35.2635 21.53 35.4179C18.9983 36.539 17.1379 38.3625 16.0009 40.8791C14.9583 43.1701 15.4399 45.668 17.237 47.3956C18.1271 48.2488 19.1132 48.958 20.2489 49.4677C20.6983 49.6733 21.1319 49.912 21.634 50.1628C21.634 50.1628 21.6287 50.1739 21.6235 50.1849C21.8642 50.1906 22.1002 50.2345 22.3179 50.3307C22.3784 50.3457 22.4469 50.3579 22.5103 50.381C23.4848 50.5916 24.5308 50.8224 25.6948 51.0752C25.6948 51.0752 25.6948 51.0752 25.6895 51.0862C25.6895 51.0862 25.6895 51.0862 25.6977 51.0833C25.8536 51.0827 26.0181 51.1064 26.1691 51.144C26.325 51.1433 26.4703 51.1647 26.6214 51.2023C27.1116 51.238 27.6156 51.287 28.111 51.3117C29.6602 51.3817 31.1973 51.2365 32.5986 50.5272C35.2661 49.1933 37.5288 46.3032 35.8405 42.3702C35.4439 41.4328 34.841 40.587 34.3005 39.71C33.9825 39.2016 33.605 38.7327 33.2069 38.1797C33.547 38.0769 33.781 38.0118 34.0122 37.9386C35.0217 37.6522 35.9493 37.2122 36.7804 36.578C37.9031 35.7302 38.5755 34.6223 38.8191 33.2374C39.0747 31.7569 38.7447 30.4118 38.0276 29.1405C37.6775 28.5156 37.2516 27.9359 36.819 27.2855C37.1293 27.2024 37.4262 27.1333 37.7202 27.056C39.3944 26.6243 40.9267 25.8958 42.2725 24.8223C45.9591 21.8822 45.7709 16.638 41.8765 13.9934C41.2122 13.5444 40.4895 13.1893 39.7188 12.7507C39.9355 12.0153 40.1978 11.2272 40.3997 10.4239C41.1382 7.48245 41.8657 4.53575 42.574 1.58674C42.6531 1.26603 42.7044 0.918661 42.6824 0.597423C42.6709 0.409551 42.5183 0.134772 42.3644 0.0890411L42.3725 0.0861382ZM34.7676 41.701C34.9643 41.9966 35.0799 42.3486 35.217 42.6837C36.537 45.8885 35.0138 48.3781 32.4706 49.7775C31.1541 50.4931 29.7105 50.669 28.2429 50.57C26.2387 50.4336 24.2934 50.0751 22.3572 49.4574C20.8666 48.9826 19.5424 48.3298 18.3223 47.3748C15.7492 45.375 15.7755 42.678 17.0243 40.4506C18.3926 38.0162 20.4615 36.3927 23.1602 35.587C25.8216 37.7839 28.8982 38.5623 32.3964 38.2763C33.1652 39.3829 33.9758 40.5295 34.7676 41.701ZM38.0493 31.1439C38.4949 32.9964 37.8364 34.8946 36.2921 36.0297C34.6212 37.2738 32.6861 37.643 30.6698 37.6023C28.4594 37.5576 26.3659 37.0142 24.5352 35.7098C22.2173 34.0671 21.5769 31.7172 22.7289 29.113C23.4602 27.4721 24.5839 26.2127 26.3426 25.6046C26.4975 25.5495 26.6409 25.4618 26.8687 25.3533C29.3104 27.1896 32.1098 27.6005 35.0421 27.4795C35.6569 27.4525 36.1452 27.69 36.4919 28.1242C37.1998 29.0331 37.7667 30.0104 38.0411 31.1468L38.0493 31.1439ZM42.6441 23.4101C40.8764 25.3652 38.5585 26.3644 35.9063 26.5501C35.6387 26.5723 35.373 26.7035 35.1025 26.7175C32.6652 26.8359 30.306 26.5791 28.1612 25.2952C26.8317 24.498 26.0149 23.3079 25.6168 21.8225C25.4149 21.0717 25.4758 20.337 25.7722 19.6189C26.1736 18.6532 26.7659 17.8115 27.4689 17.0492L27.4747 17.0655C29.3211 15.0732 31.591 13.8352 34.2393 13.276C34.4791 13.2272 34.7252 13.2218 35.1429 13.1828C34.8518 13.8898 34.6183 14.4483 34.4475 14.8473C33.8562 14.9665 33.4145 15.0416 32.9819 15.1682C32.9085 15.1943 32.9191 15.4831 32.8821 15.7156C34.4974 15.5061 35.2504 16.4903 35.872 17.6219C36.0557 17.9587 36.1473 18.3466 36.3094 18.7002C36.415 18.946 36.5032 19.2985 36.873 19.176C37.2562 19.0395 37.1032 18.7375 37.0082 18.4696C36.9132 18.2018 36.8969 18.2076 36.8701 18.08C36.812 17.735 37.1434 17.4525 37.4259 17.6536C37.7166 17.8517 37.8695 17.8429 38.1448 17.6352C38.3122 17.5116 38.611 17.5515 38.8489 17.549C39.1059 17.5489 39.4105 17.605 39.4762 17.2982C39.5596 16.912 39.2417 16.8698 38.9481 16.8189C38.811 16.7946 38.6844 16.7483 38.4508 16.6852C38.7961 15.639 39.1255 14.6258 39.4468 13.6155C43.6741 14.8159 45.9111 19.7785 42.636 23.413L42.6441 23.4101ZM41.1348 4.96059C40.2467 8.72325 39.0756 12.413 37.8906 16.0894C37.7582 16.4931 37.5856 16.7831 37.13 16.8448C36.9199 16.8739 36.7223 16.99 36.543 17.0538C36.0461 16.4812 35.5717 15.9462 35.036 15.3417C37.0358 10.8814 38.8687 6.26124 41.5654 2.08305C41.6287 2.10621 41.692 2.12937 41.7553 2.15253C41.5448 3.08681 41.3482 4.03443 41.1348 4.96059Z" fill="black"/>
<path d="M35.2188 42.6603C36.5388 45.8651 35.0156 48.3547 32.4723 49.7541C31.1559 50.4698 29.7123 50.6456 28.2447 50.5466C26.2404 50.4102 24.2952 50.0517 22.359 49.434C20.8684 48.9593 19.5442 48.3064 18.3241 47.3514C15.751 45.3516 15.7773 42.6546 17.0261 40.4273C18.3943 37.9929 20.4633 36.3693 23.162 35.5636C25.8233 37.7606 28.9 38.5389 32.3982 38.253C33.167 39.3596 33.9776 40.5061 34.7694 41.6776C34.9661 41.9733 35.0817 42.3252 35.2188 42.6603Z" fill="#B5BE56"/>
<path d="M39.4727 13.6164C43.7029 14.825 45.948 19.7846 42.6619 23.414C40.8941 25.3691 38.5762 26.3682 35.924 26.554C35.6564 26.5761 35.3907 26.7073 35.1202 26.7214C32.6829 26.8398 30.3156 26.5858 28.179 25.299C26.8495 24.5018 26.0327 23.3118 25.6346 21.8263C25.4327 21.0755 25.4935 20.3408 25.7899 19.6228C26.1913 18.6571 26.7836 17.8154 27.4867 17.0531C29.3331 15.0608 31.603 13.8228 34.2513 13.2636C34.4911 13.2148 34.7372 13.2094 35.1549 13.1704C34.8638 13.8774 34.6302 14.4359 34.4595 14.8349C33.8682 14.9541 33.4265 15.0291 32.9968 15.1639C32.9234 15.19 32.9339 15.4788 32.897 15.7113C34.5204 15.4989 35.2653 16.486 35.8869 17.6176C36.0735 17.9625 36.1703 18.3394 36.3243 18.6959C36.4298 18.9417 36.5181 19.2943 36.8878 19.1717C37.271 19.0352 37.118 18.7332 37.0231 18.4654C36.9281 18.1975 36.9118 18.2033 36.8849 18.0758C36.8269 17.7308 37.1583 17.4482 37.4408 17.6493C37.7314 17.8474 37.8844 17.8387 38.1597 17.6309C38.3271 17.5073 38.6259 17.5472 38.8638 17.5447C39.1208 17.5446 39.4254 17.6007 39.4911 17.2939C39.5745 16.9077 39.2565 16.8655 38.963 16.8146C38.8259 16.7903 38.6992 16.744 38.4575 16.6838C38.8028 15.6376 39.1323 14.6244 39.4536 13.6141L39.4727 13.6164Z" fill="#ED6A6C"/>
<path d="M38.0475 31.1289C38.4931 32.9813 37.8346 34.8796 36.2985 36.0117C34.6276 37.2558 32.6924 37.625 30.6762 37.5843C28.4657 37.5396 26.3723 36.9962 24.5497 35.689C22.2289 34.0381 21.5804 31.6911 22.7434 29.0921C23.4748 27.4513 24.5984 26.1918 26.36 25.5919C26.5149 25.5367 26.6583 25.4491 26.8861 25.3405C29.3249 27.1688 32.1272 27.5877 35.0595 27.4668C35.6743 27.4398 36.1626 27.6773 36.5093 28.1114C37.2144 29.0122 37.7813 29.9896 38.0556 31.126L38.0475 31.1289Z" fill="#F5DDB8"/>
<path d="M37.8959 16.0781C37.7636 16.4817 37.5909 16.7718 37.1353 16.8335C36.9252 16.8626 36.7276 16.9786 36.5401 17.0454C36.0461 16.4809 35.5689 15.9378 35.0332 15.3333C37.033 10.873 38.8659 6.25283 41.5707 2.07173C41.634 2.09489 41.6973 2.11806 41.7607 2.14122C41.5501 3.0755 41.3535 4.02311 41.1401 4.94927C40.252 8.71193 39.078 12.3936 37.8959 16.0781Z" fill="#F5DDB8"/>
<path d="M162.325 41.8267C160.852 43.6067 159.214 42.6446 159.986 40.4719C161.607 35.8888 163.044 32.3793 164.554 28.0375C167.687 18.8495 166.431 12.227 159.396 12.227C155.823 12.227 151.643 14.9365 147.329 19.9088C146.335 21.0582 145.119 20.597 145.248 19.1125C145.341 17.9992 145.284 17.1272 144.972 15.9382C144.4 13.7114 142.522 12.227 139.704 12.227C136.353 12.227 132.927 14.2123 128.32 21.6564C126.164 25.1262 130.548 27.8934 132.816 24.3479C134.032 22.4563 135.763 23.2345 135.173 25.4973C132.905 34.1268 130.752 41.3655 128.063 50.2545C127.161 53.2054 128.799 54.8557 132.115 54.3764L132.63 54.3008C135.044 53.9477 135.555 51.7353 135.992 50.1824C136.378 48.6619 136.653 47.4909 137.337 45.3938C141.686 31.4173 151.199 19.9485 156.027 19.9485C158.202 19.9485 158.341 22.3229 156.074 29.1725C154.675 33.4026 152.869 38.0254 151.378 42.4068C149.5 48.0493 148.66 54.5242 154.353 54.5242C157.229 54.5242 161.796 52.6145 166.492 44.947C168.409 41.7366 164.464 39.2505 162.329 41.8303L162.325 41.8267Z" fill="#302723"/>
<path d="M122.126 41.6611C120.137 44.0932 117.476 42.8393 118.048 40.8144C119.669 35.1358 122.516 28.2034 126.142 16.8823C126.786 14.897 126.106 13.3945 123.968 12.836C112.344 9.96072 93.571 19.7973 88.5782 37.186C85.9065 46.6334 88.3028 54.5207 94.4186 54.5207C99.043 54.5207 103.26 51.3103 107.019 46.8749C107.941 45.7975 109.282 45.9849 109.175 47.6531C109.139 48.3954 109.122 48.8602 109.157 49.2854C109.472 52.6831 111.793 54.5171 114.554 54.5171C118.238 54.5171 121.922 52.2904 126.253 44.8463C128.02 41.8016 124.078 39.2794 122.126 41.6539V41.6611ZM116.457 23.4941C115.867 25.5551 115.037 27.5548 113.86 29.9113C109.107 39.6542 101.972 46.7812 98.621 46.7632C95.9672 46.7451 95.2984 42.5619 97.455 35.1034C100.806 23.5049 108.088 18.7019 113.724 18.7019C116.249 18.7019 117.473 20.2837 116.457 23.4941Z" fill="#302723"/>
<path d="M233.276 11.9857C223.669 11.9857 214.36 19.8622 210.966 31.6552C207.758 42.8754 210.837 54.5604 222.471 54.5604C231.838 54.5604 241.241 46.9253 244.781 34.7215C248.065 23.4473 244.874 11.9857 233.276 11.9857ZM235.579 33.7198C232.721 43.805 228.462 49.5628 223.687 49.5628C218.469 49.5628 217.178 42.8394 220.24 32.2894C223.079 22.4636 227.264 16.9833 232.038 16.9833C237.128 16.9833 238.53 23.0582 235.579 33.7198Z" fill="#302723"/>
<path d="M68.7001 12.9548C63.5107 12.9801 58.8612 12.9801 55.8713 12.9548C52.9707 12.9693 51.508 16.1508 53.475 17.8587C55.907 19.2928 56.0787 19.6855 54.9378 24.0813C53.332 30.1454 51.8191 35.7159 50.199 41.5962C48.8149 46.5901 48.1925 47.2675 45.0452 48.4313C42.2484 49.7609 42.8064 53.6991 45.8356 53.7135C49.3191 53.6487 53.8613 53.5946 59.6731 53.6631C72.8238 53.8468 82.6771 46.4388 85.8995 34.8043C89.5368 21.7105 82.7808 12.9188 68.6966 12.9585L68.7001 12.9548ZM77.3338 32.9847C75.145 41.1602 70.0842 47.5269 62.9527 47.9701C58.525 48.1899 57.0873 46.8748 58.3426 41.9853C59.8841 36.1951 61.0357 31.7092 63.7789 21.5231C64.4906 18.9144 65.163 18.3019 68.7252 18.4064C75.9747 18.6298 80.0519 22.8779 77.3338 32.9883V32.9847Z" fill="#302723"/>
<path d="M204.543 13.9854C201.202 12.746 197.475 12.1983 194.317 12.1983C180.519 12.1983 172.504 22.6834 170.044 31.8894C166.653 44.6301 172.955 54.3982 184.761 54.3982C189.239 54.3982 193.795 53.0543 197.293 51.1914C198.795 50.3951 199.907 49.3538 200.451 47.473L201.692 43.1564C202.522 40.2883 203.026 39.438 205.369 38.476C207.919 37.132 207.103 33.2334 204.088 33.1433C200.387 33.1181 196.928 33.1181 193.083 33.1433C189.872 33.2334 189.085 36.8474 191.413 38.321C194.092 39.4704 194.221 39.9136 193.691 42.1692C193.134 44.3455 192.965 44.8427 192.787 45.4156C192.515 46.5254 191.971 47.0983 190.78 47.7757C189.5 48.4783 188.062 48.8458 186.12 48.8458C179.117 48.8458 176.049 43.1745 179.024 32.5704C181.496 23.8184 186.22 17.8588 193.173 17.8588C197.497 17.8588 200.408 20.0747 200.526 24.6399C200.63 28.6574 205.898 28.1494 206.456 24.5751C206.728 22.4889 207 20.572 207.286 18.4209C207.583 16.3203 206.821 14.8214 204.543 13.9854Z" fill="#302723"/>
</svg>
