<svg width="187" height="198" viewBox="0 0 187 198" fill="none" xmlns="http://www.w3.org/2000/svg">
<path d="M185.591 115.683C186.446 115.862 186.848 116.384 186.749 117.253C186.688 117.792 186.578 118.329 186.488 118.865C185.492 124.685 184.496 130.505 183.498 136.325C183.039 139.006 182.574 141.688 182.123 144.372C182.01 145.043 181.658 145.517 181.097 145.874C178.698 147.412 176.308 148.957 173.913 150.503C172.804 151.218 171.693 151.93 170.587 152.648C170.436 152.747 170.299 152.871 170.15 152.984C170.197 153.072 170.216 153.135 170.255 153.179C171.946 155.115 172.826 157.418 173.324 159.898C173.75 162.022 173.684 164.153 173.415 166.279C173.008 169.481 172.13 172.553 170.692 175.449C170.293 176.252 169.817 177.022 169.336 177.781C168.681 178.81 167.768 179.575 166.698 180.15C166.624 180.188 166.533 180.21 166.478 180.268C165.92 180.856 165.18 180.876 164.446 180.933C160.645 181.231 156.838 181.467 153.048 181.852C148.381 182.325 143.746 183.054 139.15 184.006C137.533 184.341 135.902 184.627 134.277 184.927C133.839 185.007 133.402 185.032 132.987 184.812C132.896 184.765 132.791 184.735 132.687 184.724C130.555 184.479 128.908 183.324 127.414 181.902C126.559 181.087 125.891 180.119 125.294 179.104C125.187 178.926 125.079 178.75 124.947 178.53C124.733 178.642 124.535 178.75 124.337 178.854C119.499 181.357 114.853 184.204 110.131 186.913C105.235 189.721 100.603 192.922 96.0241 196.209C95.7683 196.393 95.4877 196.542 95.2539 196.751C94.4178 197.499 93.4442 197.469 92.4788 197.183C91.6399 196.935 90.8148 196.605 90.0309 196.217C87.1595 194.801 84.3046 193.349 81.4442 191.902C76.5484 189.427 71.6362 186.984 66.7653 184.465C60.1423 181.038 53.4038 177.859 46.6928 174.616C45.0536 173.824 43.4528 172.952 41.8329 172.116C41.6101 172.003 41.3818 171.896 41.1067 171.758C41.0132 171.923 40.9225 172.077 40.84 172.237C39.8718 174.118 38.6781 175.815 36.9619 177.11C35.1796 178.453 33.1553 179.203 30.9963 179.627C28.2486 180.166 25.5312 180.062 22.8963 179.049C20.2312 178.026 18.0061 176.417 16.3586 174.049C15.0852 172.217 14.5351 170.16 14.4113 167.968C14.2628 165.355 14.7276 162.839 15.6848 160.407C15.7068 160.352 15.7205 160.292 15.7508 160.193C15.616 160.11 15.484 160.017 15.341 159.942C13.5312 159.021 11.7297 158.083 9.90618 157.189C9.17457 156.829 8.80326 156.312 8.71525 155.495C8.3687 152.247 8.01665 148.999 7.60134 145.756C7.24104 142.953 6.80372 140.159 6.36916 137.367C6.27564 136.759 6.3444 136.198 6.55068 135.643C6.74596 135.115 7.15302 134.812 7.6921 134.655C11.0146 133.69 14.2051 132.361 17.4258 131.118C18.3994 130.741 19.3401 130.279 20.311 129.847C20.311 129.509 20.3192 129.218 20.311 128.926C20.1019 122.771 19.9176 116.613 19.6674 110.457C19.4858 105.957 19.2163 101.461 18.9825 96.9609C18.801 93.5092 18.636 90.0546 18.4187 86.6056C18.2757 84.3063 18.0666 82.0097 17.8741 79.7131C17.7586 78.3352 17.6073 76.96 17.489 75.582C17.4615 75.263 17.3433 75.0595 17.082 74.8642C14.051 72.5951 12.5218 69.5284 12.3348 65.7741C12.2578 64.2256 12.5438 62.7294 13.1076 61.2854C13.1902 61.0709 13.2754 60.8591 13.3854 60.5758C13.0416 60.5043 12.7253 60.4136 12.4035 60.3778C10.3627 60.1523 8.32469 59.9322 6.28114 59.7177C5.78057 59.6655 5.28 59.6214 4.77942 59.5912C4.22934 59.5582 3.77828 59.3409 3.37672 58.9669C3.03292 58.6478 2.86514 58.2737 2.83764 57.8089C2.49659 52.0716 1.78148 46.3838 0.640067 40.7509C0.554805 40.3356 0.510798 39.9313 0.651069 39.5105C0.703326 39.3482 0.65932 39.1474 0.626315 38.9687C0.475043 38.0885 1.12964 37.2937 1.99327 37.4724C3.48948 37.786 4.92245 37.478 6.3389 37.1479C10.0574 36.2788 13.6852 35.1236 17.0682 33.3083C18.1546 32.7253 19.1695 32.0156 20.2229 31.3776C20.5667 31.1685 20.6713 30.8825 20.6768 30.4919C20.7125 28.2613 21.0041 26.0638 21.5899 23.913C22.195 21.6906 23.1026 19.6086 24.4751 17.7466C25.4322 16.4429 26.6341 15.4115 28.0451 14.6276C30.2042 13.4257 32.4072 13.4862 34.6433 14.3883C34.7781 14.4433 34.9101 14.5066 35.0449 14.5671C35.1576 14.6166 35.2704 14.6689 35.4299 14.7404C35.5482 14.5561 35.6665 14.3911 35.7682 14.215C37.908 10.5157 39.9158 6.74495 41.8136 2.91638C42.1299 2.27829 42.4132 1.6292 42.9578 1.13137C43.5711 0.575792 44.2505 0.56204 44.8583 1.11212C45.0343 1.27164 45.2599 1.40366 45.4881 1.47517C47.5509 2.12427 49.677 2.49007 51.7976 2.88063C56.3742 3.7195 60.9894 4.27783 65.6238 4.66289C69.1939 4.95993 72.7666 5.22397 76.3422 5.41925C81.0069 5.67504 85.6743 5.88407 90.3417 6.04634C95.43 6.22237 100.518 6.32138 105.609 6.4424C113.066 6.61843 120.525 6.7532 127.984 6.61843C130.83 6.56892 133.674 6.39565 136.521 6.26363C137.085 6.23612 137.646 6.15636 138.207 6.0876C138.611 6.04084 138.999 6.06285 139.373 6.24437C139.502 6.30763 139.648 6.35439 139.791 6.37364C140.19 6.42865 140.501 6.63218 140.732 6.94573C142.814 9.77864 145.463 12.023 148.196 14.1875C152.187 17.345 156.511 19.9634 161.022 22.3095C166.267 25.0379 171.644 27.4555 177.15 29.6035C178.786 30.2416 180.406 30.9237 182.04 31.5646C182.656 31.8066 182.989 32.2219 183.041 32.8738C183.154 34.2737 183.275 35.6709 183.388 37.0709C183.627 40.0578 183.864 43.042 184.1 46.029C184.32 48.8069 184.543 51.5848 184.763 54.3599C184.769 54.4232 184.771 54.4837 184.774 54.547C184.81 55.5178 184.507 56.0074 183.58 56.2825C182.197 56.6923 180.8 57.0553 179.405 57.4349C178.982 57.5504 178.462 57.5366 178.157 57.7897C177.829 58.0592 177.692 58.5653 177.488 58.9778C176.176 61.6375 175.214 64.4236 174.51 67.3006C174.397 67.7599 174.424 68.2522 174.367 68.728C174.138 70.6203 173.893 72.5098 173.676 74.4021C173.382 76.9627 173.063 79.5179 172.843 82.084C172.557 85.401 172.317 88.7262 172.125 92.0487C171.968 94.7468 171.888 97.4505 171.809 100.151C171.71 103.501 171.649 106.854 171.572 110.207C171.567 110.435 171.572 110.666 171.572 110.96C171.891 111.079 172.161 111.191 172.439 111.282C175.599 112.322 178.764 113.351 181.922 114.396C182.953 114.737 183.971 115.125 185 115.488C185.195 115.556 185.398 115.614 185.602 115.658L185.591 115.683ZM183.561 120.656C183.583 120.521 183.583 120.383 183.597 120.155C183.237 120.353 182.945 120.513 182.654 120.672C178.993 122.661 175.362 124.71 171.663 126.624C164.933 130.112 158.279 133.742 151.651 137.417C144.786 141.226 137.847 144.898 130.902 148.561C126.457 150.905 121.977 153.182 117.562 155.58C113.533 157.767 109.556 160.05 105.579 162.335C101.874 164.464 98.2051 166.648 94.5251 168.815C93.9502 169.153 93.3974 169.53 92.8116 169.904C93.3397 177.977 93.865 186.019 94.3986 194.207C94.7094 193.99 94.9101 193.849 95.1109 193.704C99.4511 190.59 103.854 187.57 108.486 184.897C113.22 182.166 117.884 179.316 122.736 176.794C123.121 176.593 123.49 176.362 123.872 176.145C123.8 175.906 123.745 175.727 123.69 175.551C123.176 173.906 122.802 172.231 122.664 170.515C122.378 166.904 122.821 163.369 123.855 159.901C124.106 159.065 124.474 158.309 125.016 157.627C126.768 155.415 129.034 154.081 131.837 153.828C135.069 153.534 138.314 153.377 141.551 153.16C143.705 153.017 145.856 152.885 148.009 152.734C151.291 152.505 154.569 152.28 157.848 152.027C160.163 151.848 162.479 151.617 164.795 151.43C165.703 151.358 166.619 151.312 167.529 151.325C167.851 151.331 168.079 151.27 168.329 151.094C168.998 150.624 169.666 150.156 170.354 149.716C173.277 147.835 176.204 145.959 179.136 144.095C179.463 143.886 179.647 143.646 179.702 143.258C179.81 142.491 179.955 141.729 180.087 140.967C181.245 134.199 182.4 127.43 183.556 120.658L183.561 120.656ZM182.409 117.869C182.563 117.787 182.7 117.674 182.876 117.553C181.801 117.031 172.02 113.84 171.443 113.835C171.443 114.082 171.448 114.332 171.443 114.58C171.402 116.109 171.347 117.638 171.322 119.165C171.305 120.194 170.797 120.909 169.949 121.404C169.553 121.635 169.127 121.822 168.698 121.987C166.962 122.652 165.164 123.004 163.302 123.043C161.434 123.081 159.624 122.806 157.916 122.031C157.485 121.836 157.086 121.544 156.714 121.247C156.272 120.892 156.151 120.403 156.228 119.833C156.604 117.075 156.967 114.313 157.328 111.552C157.402 110.98 157.441 110.405 157.487 109.913C155.314 109.115 153.241 108.356 151.065 107.558C151.065 107.921 151.062 108.13 151.065 108.337C151.093 109.783 151.101 111.227 151.156 112.674C151.313 116.86 151.486 121.046 151.651 125.235C151.706 126.638 151.777 128.038 151.799 129.443C151.805 129.803 151.733 130.222 151.544 130.516C151.244 130.986 150.864 131.429 150.435 131.781C149.874 132.246 149.261 132.661 148.623 133.016C143.491 135.863 138.397 135.546 133.369 132.746C132.852 132.458 132.42 131.993 132.002 131.561C131.62 131.168 131.491 130.664 131.595 130.106C131.749 129.284 131.884 128.456 132.027 127.631C132.665 123.937 133.377 120.257 133.916 116.549C134.477 112.674 134.874 108.777 135.336 104.888C135.377 104.541 135.391 104.192 135.415 103.895C132.296 102.616 129.254 101.367 126.155 100.099C126.124 100.514 126.086 100.866 126.08 101.221C126.006 105.682 125.871 110.144 125.888 114.607C125.91 119.698 126.058 124.787 126.408 129.869C126.642 133.258 126.985 136.63 127.527 139.983C127.667 140.852 127.846 141.715 127.931 142.587C128.041 143.707 127.799 144.711 126.749 145.357C126.411 145.566 126.1 145.822 125.756 146.02C120.516 149.018 115.126 149.265 109.606 146.861C108.657 146.449 107.821 145.852 107.072 145.137C106.47 144.562 106.137 143.908 106.47 143.055C106.531 142.901 106.539 142.728 106.561 142.563C106.913 139.906 107.284 137.252 107.609 134.589C107.988 131.492 108.36 128.393 108.676 125.287C109.066 121.431 109.413 117.572 109.74 113.711C110.057 109.976 110.323 106.235 110.612 102.495C110.623 102.335 110.612 102.173 110.612 101.961C109.504 102.409 108.445 102.839 107.347 103.281C107.336 103.427 107.323 103.611 107.312 103.796C107.125 107.187 107.166 110.581 107.262 113.975C107.279 114.605 107.229 115.193 106.66 115.603C106.597 115.647 106.555 115.735 106.522 115.809C106.341 116.214 106.011 116.467 105.637 116.673C105.232 116.896 104.834 117.132 104.41 117.308C102.875 117.941 101.31 118.458 99.5748 118.222C99.5583 118.414 99.5363 118.576 99.5336 118.741C99.4373 128.841 99.4153 138.938 100.147 149.021C100.331 151.57 100.601 154.112 101.03 156.631C101.066 156.829 101.14 157.032 101.244 157.206C101.676 157.918 101.646 158.496 101.057 159.071C100.73 159.39 100.361 159.678 99.9764 159.929C96.6924 162.079 93.0784 163.012 89.1728 162.729C87.9241 162.638 86.6837 162.404 85.4488 162.181C83.7958 161.884 82.1868 161.428 80.6576 160.715C79.9672 160.393 79.3374 159.995 78.812 159.434C78.4847 159.082 78.2785 158.688 78.2977 158.193C78.3252 157.462 78.3417 156.73 78.383 155.998C78.6498 151.419 78.9193 146.837 79.1971 142.26C79.4501 138.057 79.7197 133.855 79.9782 129.652C79.9892 129.493 79.9782 129.333 79.9782 129.152C79.7362 129.152 79.5519 129.135 79.3704 129.152C78.0859 129.278 76.8207 129.135 75.5638 128.877C73.402 128.434 71.485 127.512 69.8732 125.986C69.2846 125.43 69.0564 124.773 69.0729 123.962C69.1251 121.574 69.1279 119.187 69.1471 116.8C69.1471 116.657 69.1169 116.514 69.1004 116.357C66.5397 117.396 64.0094 118.425 61.446 119.465C61.4707 119.817 61.501 120.15 61.5175 120.482C61.5285 120.733 61.5835 121.002 61.5092 121.23C61.3827 121.627 61.4845 121.965 61.6193 122.322C63.1705 126.481 64.7272 130.637 66.2647 134.801C66.9523 136.666 67.6014 138.547 68.267 140.42C68.4953 141.066 68.4623 141.658 67.8847 142.125C67.8049 142.189 67.7169 142.268 67.6839 142.359C67.4446 143.008 66.9138 143.396 66.3967 143.787C64.7272 145.038 62.9147 146.045 60.9592 146.76C56.5888 148.355 52.1276 148.561 47.6115 147.461C46.1647 147.109 44.7703 146.6 43.4638 145.863C42.2042 145.151 41.7228 143.745 42.1079 142.367C43.1145 138.8 44.0414 135.214 44.9931 131.632C45.0563 131.393 45.1058 131.135 45.0893 130.893C44.9628 129.116 44.817 127.342 44.6713 125.568C44.6603 125.436 44.597 125.309 44.5613 125.188C42.702 125.824 40.8895 126.442 39.0797 127.061C39.2227 127.985 39.341 128.857 39.4923 129.721C39.8003 131.473 40.1331 133.222 40.4439 134.974C40.6392 136.091 40.4879 137.103 39.4758 137.815C39.3217 137.923 39.1842 138.057 39.0329 138.167C37.8558 139.028 36.5796 139.705 35.1714 140.084C31.7609 141.009 28.3449 141.044 24.9399 140.046C23.727 139.691 22.5773 139.191 21.5706 138.409C20.8445 137.848 20.4567 137.133 20.4677 136.195C20.4787 135.274 20.443 134.353 20.4265 133.428C20.421 133.206 20.4045 132.983 20.3935 132.738C17.181 133.979 14.0345 135.194 10.8138 136.437C11.0036 136.556 11.1301 136.655 11.2704 136.721C12.9371 137.505 14.5736 138.36 16.2816 139.045C21.5046 141.146 26.7441 143.206 31.9947 145.236C39.0605 147.964 46.1537 150.632 53.2223 153.361C65.5028 158.102 77.6624 163.152 90.0254 167.685C90.6635 167.919 91.1861 167.869 91.7389 167.536C94.8056 165.688 97.8503 163.801 100.95 162.011C105.7 159.266 110.45 156.515 115.271 153.9C121.584 150.478 127.989 147.225 134.318 143.836C141.829 139.815 149.302 135.717 156.8 131.668C161.148 129.319 165.519 127.017 169.87 124.674C174.053 122.421 178.225 120.144 182.403 117.875L182.409 117.869ZM182.139 54.0904C181.641 47.8305 181.149 41.6366 180.651 35.3436C180.404 35.4399 180.247 35.4949 180.093 35.5582C176.22 37.1507 172.356 38.7569 168.478 40.3329C159.927 43.8066 151.406 47.3657 142.8 50.7019C134.392 53.9611 125.913 57.0471 117.422 60.0973C111.338 62.2838 105.188 64.2861 99.066 66.3709C98.6342 66.5167 98.1969 66.6487 97.7046 66.8027C97.8448 72.5456 97.9823 78.2499 98.1226 84.034C98.3647 83.9268 98.5132 83.8635 98.6562 83.792C104.479 80.9728 110.263 78.0766 116.132 75.3537C123.751 71.8195 131.581 68.7968 139.519 66.0491C147.234 63.3785 154.984 60.8124 162.903 58.8073C168.522 57.3854 174.171 56.0762 179.807 54.7092C180.574 54.5249 181.336 54.3049 182.139 54.0904ZM179.075 33.1571C179.001 33.0993 178.971 33.0636 178.932 33.0498C178.11 32.739 177.285 32.4365 176.465 32.1202C170.896 29.9721 165.455 27.5325 160.15 24.7876C155.314 22.2902 150.686 19.4903 146.422 16.1018C143.694 13.9345 141.073 11.6572 138.922 8.89026C138.829 8.76924 138.606 8.69223 138.446 8.69498C138.028 8.70323 137.613 8.78574 137.198 8.80775C134.645 8.93702 132.093 9.1543 129.54 9.1653C122.942 9.19831 116.341 9.18455 109.743 9.10754C103.984 9.03878 98.2216 8.86001 92.465 8.71974C90.4325 8.67023 88.3999 8.61797 86.3701 8.52996C83.1907 8.39244 80.0085 8.23291 76.829 8.06514C74.5929 7.94687 72.3513 7.84236 70.118 7.64983C66.405 7.32803 62.6947 6.95948 58.9871 6.56892C55.4033 6.19211 51.8553 5.57052 48.3238 4.86092C47.5922 4.7124 46.8633 4.54737 46.0217 4.36585C46.1125 4.65464 46.1537 4.81691 46.2115 4.97094C47.6197 8.74174 49.2122 12.43 51.143 15.9643C51.3025 16.2531 51.4923 16.3301 51.7838 16.3576C54.5645 16.6106 56.9243 17.7686 58.9074 19.7158C59.9003 20.6895 60.7474 21.7786 61.435 22.9888C63.8856 27.3097 65.137 31.9881 65.5771 36.9086C65.6266 37.4697 65.7284 37.984 66.0089 38.5093C66.9715 40.3164 68.1487 41.9639 69.4799 43.5041C74.7442 49.588 80.7098 54.8963 87.3273 59.4674C90.0914 61.3762 93.0041 63.0237 96.1093 64.3191C96.3431 64.4154 96.5411 64.4979 96.8189 64.4044C97.9493 64.0248 99.099 63.7058 100.229 63.3235C107.191 60.9774 114.155 58.6368 121.033 56.0569C127.401 53.6668 133.826 51.4225 140.174 48.9801C153.067 44.0212 165.788 38.6249 178.577 33.4046C178.74 33.3386 178.891 33.2506 179.07 33.1626L179.075 33.1571ZM174.012 60.4576C174.259 59.8387 174.521 59.2254 174.823 58.4965C169.746 59.7012 164.809 60.9031 159.886 62.2783C161.022 64.6079 161.814 66.9595 162.309 69.4101C162.46 70.1555 162.875 70.59 163.601 70.7441C164.053 70.8403 164.501 70.9421 164.957 70.9999C166.957 71.2557 168.874 70.9669 170.709 70.1197C171.182 69.8997 171.432 69.5944 171.523 69.0553C172.012 66.0931 172.895 63.241 174.014 60.4576H174.012ZM168.192 174.701C170.109 170.872 171.121 166.818 171.036 162.531C170.995 160.391 170.453 158.35 169.427 156.452C168.899 155.481 168.217 154.645 167.306 154.004C167.081 153.845 166.869 153.735 166.561 153.77C164.649 153.991 162.735 154.227 160.815 154.378C156.764 154.7 152.713 154.983 148.659 155.264C145.19 155.503 141.719 155.718 138.251 155.946C137.607 155.987 136.964 156.042 136.232 156.095C136.309 156.227 136.331 156.287 136.372 156.331C138.067 158.078 139.197 160.171 140 162.443C141.386 166.365 141.714 170.413 141.23 174.525C140.957 176.849 140.366 179.091 139.17 181.134C139.134 181.195 139.137 181.275 139.115 181.385C139.291 181.357 139.412 181.341 139.533 181.319C142.113 180.878 144.681 180.372 147.27 180.015C150.339 179.589 153.419 179.247 156.503 178.948C159.022 178.703 161.555 178.579 164.083 178.395C164.352 178.376 164.666 178.395 164.88 178.263C165.719 177.757 166.605 177.292 167.152 176.423C167.507 175.856 167.892 175.301 168.189 174.704L168.192 174.701ZM170.89 75.8323C171 74.8174 171.14 73.8053 171.275 72.7354C171.105 72.7766 170.986 72.7959 170.876 72.8371C168.456 73.742 165.986 73.918 163.464 73.3542C163.293 73.3157 163.112 73.3212 162.906 73.3047C162.65 81.0938 162.166 88.8087 161.459 96.5071C160.752 104.222 159.957 111.929 158.871 119.668C159.228 119.806 159.514 119.938 159.814 120.023C162.741 120.867 165.571 120.518 168.346 119.363C168.736 119.201 168.783 118.926 168.791 118.568C168.915 112.913 169.034 107.256 169.179 101.601C169.254 98.7102 169.336 95.8195 169.493 92.9316C169.677 89.5211 169.916 86.1161 170.189 82.7111C170.37 80.4145 170.645 78.1262 170.89 75.8351V75.8323ZM160.356 72.3228C160.367 72.0395 160.293 71.748 160.224 71.4674C160.07 70.8403 159.883 70.2215 159.734 69.5917C159.261 67.5894 158.645 65.6366 157.743 63.7801C157.617 63.5215 157.468 63.274 157.328 63.0154C157.1 63.0732 156.918 63.1145 156.739 63.1667C156.541 63.2245 156.343 63.2932 156.131 63.3647C156.079 63.549 156.035 63.7333 155.969 63.9066C155.903 64.0826 155.821 64.2531 155.741 64.4236C154.077 67.9469 153.279 71.66 153.309 75.5573C153.315 76.3054 153.235 77.0617 153.136 77.8044C152.787 80.398 152.358 82.9834 152.058 85.5825C151.81 87.7251 151.711 89.8814 151.533 92.0322C151.2 96.1275 151.071 100.228 151.071 104.337C151.071 104.503 151.087 104.668 151.095 104.841C153.309 105.649 155.504 106.453 157.787 107.286C157.82 107.027 157.845 106.843 157.864 106.659C158.046 104.888 158.238 103.119 158.406 101.348C158.689 98.3884 158.989 95.4289 159.223 92.464C159.492 89.059 159.729 85.654 159.921 82.2435C160.108 78.9403 160.224 75.6315 160.359 72.3256L160.356 72.3228ZM151.447 69.0828C151.841 67.5234 152.336 65.9941 152.814 64.3494C147.338 66.0189 141.953 67.9469 136.526 69.8282C136.592 69.985 136.631 70.1005 136.689 70.2105C137.781 72.2733 138.587 74.4516 139.117 76.7179C139.285 77.4303 139.648 77.7989 140.289 77.9969C140.449 78.0464 140.605 78.1096 140.762 78.1619C142.242 78.6377 143.763 78.7175 145.295 78.5745C147.006 78.4149 148.604 77.8979 150.061 76.9572C150.54 76.6464 150.768 76.2889 150.749 75.681C150.68 73.4532 150.903 71.2447 151.447 69.0828ZM149.882 82.3783C150.014 81.5779 150.105 80.7693 150.229 79.8562C148.516 80.5795 146.846 81.0691 145.075 81.1846C143.298 81.3029 141.571 81.0801 139.788 80.5658C139.775 80.8188 139.764 80.9838 139.758 81.1488C139.643 83.5967 139.557 86.0473 139.403 88.4924C139.271 90.5827 139.071 92.6675 138.884 94.7551C138.628 97.6128 138.383 100.473 138.078 103.325C137.709 106.783 137.277 110.232 136.887 113.686C136.293 118.956 135.336 124.165 134.312 129.363C134.15 130.189 133.993 130.125 134.918 130.692C134.989 130.736 135.063 130.774 135.138 130.813C137.668 132.067 140.303 132.757 143.149 132.279C145.232 131.93 147.124 131.146 148.791 129.834C149.112 129.581 149.264 129.295 149.239 128.871C149.162 127.636 149.118 126.404 149.063 125.169C148.92 121.8 148.774 118.431 148.642 115.061C148.427 109.552 148.43 104.043 148.593 98.5341C148.67 95.8745 148.884 93.2231 149.055 90.5662C149.231 87.8296 149.437 85.0929 149.88 82.381L149.882 82.3783ZM138.873 171.252C138.853 169.462 138.71 167.795 138.369 166.147C137.849 163.636 136.95 161.29 135.448 159.192C134.747 158.212 133.859 157.473 132.753 157.005C132.082 156.722 131.4 156.639 130.665 156.768C129.301 157.008 128.325 157.833 127.412 158.776C126.955 159.249 126.622 159.799 126.419 160.432C125.211 164.181 124.815 168.004 125.448 171.901C125.8 174.066 126.471 176.129 127.623 178.018C128.592 179.608 129.838 180.903 131.521 181.742C132.052 182.006 132.607 182.174 133.207 182.185C134.747 182.215 135.809 181.387 136.672 180.235C137.228 179.49 137.585 178.637 137.882 177.762C138.611 175.614 138.853 173.397 138.873 171.255V171.252ZM137.134 78.9843C137.134 78.7587 137.088 78.5277 137.019 78.3132C136.895 77.9171 136.714 77.5376 136.601 77.136C136.034 75.1365 135.38 73.1754 134.367 71.3492C134.26 71.1539 134.136 70.9641 134.013 70.7578C133.663 70.8816 133.372 71.0026 133.075 71.0851C132.566 71.2309 132.162 71.4509 132.104 72.056C132.087 72.2348 131.977 72.4081 131.9 72.5813C130 76.9572 128.586 81.4844 127.695 86.1738C127.645 86.4351 127.557 86.7047 127.423 86.9329C127.299 87.1447 127.23 87.3317 127.28 87.5793C127.313 87.7388 127.293 87.9148 127.277 88.0799C127.005 90.6625 126.724 93.2424 126.455 95.825C126.405 96.3008 126.386 96.7794 126.35 97.2965C129.414 98.6937 132.483 100 135.693 101.186C135.765 100.429 135.825 99.7663 135.888 99.1062C136.367 94.1445 136.887 89.1828 137.077 84.199C137.143 82.4635 137.126 80.7225 137.134 78.9843ZM128.748 73.423C128.828 73.2167 128.908 73.0104 129.034 72.6831C122.906 75.0732 117.015 77.6393 111.198 80.5383C111.245 80.6703 111.267 80.75 111.303 80.8215C112.229 82.6313 112.967 84.5208 113.613 86.4461C113.706 86.7239 113.869 86.9219 114.124 87.043C114.408 87.175 114.686 87.3235 114.983 87.4143C116.028 87.7306 117.092 87.9423 118.19 87.9506C120.574 87.9726 122.78 87.3703 124.796 86.0858C125.046 85.9263 125.181 85.7365 125.225 85.4422C125.297 84.9664 125.387 84.4933 125.492 84.0258C126.306 80.4062 127.395 76.872 128.746 73.4175L128.748 73.423ZM125.011 143.445C125.327 143.225 125.437 143.003 125.357 142.612C125.184 141.751 125.066 140.877 124.92 140.01C124.238 135.871 123.869 131.696 123.69 127.51C123.495 122.927 123.336 118.34 123.303 113.752C123.272 109.585 123.369 105.416 123.542 101.249C123.674 98.0281 124.007 94.8156 124.257 91.6004C124.317 90.8358 124.408 90.0767 124.496 89.213C121.011 90.6845 117.543 90.987 113.921 89.7796C113.904 90.1097 113.896 90.3159 113.885 90.525C113.695 94.018 113.536 97.511 113.31 101.004C113.115 104.035 112.854 107.06 112.609 110.089C112.35 113.304 112.103 116.519 111.8 119.731C111.465 123.318 111.094 126.902 110.7 130.483C110.417 133.063 110.084 135.64 109.754 138.214C109.553 139.793 109.325 141.369 109.088 142.942C109.031 143.322 109.113 143.594 109.446 143.784C109.936 144.064 110.4 144.405 110.915 144.623C113.761 145.825 116.704 146.259 119.76 145.607C121.639 145.206 123.421 144.565 125.011 143.448V143.445ZM111.322 89.5871C111.327 88.8197 111.371 88.0083 111.16 87.2877C110.651 85.5632 109.971 83.8937 109.152 82.2875C109.097 82.1802 109 82.0922 108.885 81.9492C108.192 86.4681 107.292 98.3114 107.482 100.484C108.604 99.9946 109.707 99.5133 110.849 99.0155C110.871 98.8229 110.909 98.5974 110.923 98.3691C111.022 96.7821 111.129 95.1952 111.204 93.6054C111.267 92.2687 111.316 90.9293 111.325 89.5898L111.322 89.5871ZM104.908 98.6222C105.081 93.4211 105.565 88.2449 106.126 82.9696C105.194 83.4262 104.374 83.8277 103.665 84.1743C103.478 84.7189 103.346 85.1589 103.181 85.5825C102.936 86.2041 102.636 86.8092 102.413 87.439C101.701 89.4496 101.013 91.4656 100.323 93.4817C100.284 93.5972 100.284 93.7292 100.276 93.853C100.155 95.7755 99.9791 97.6953 99.9296 99.6205C99.7949 104.665 99.7151 109.712 99.6161 114.756C99.5996 115.548 99.7536 115.697 100.543 115.705C100.667 115.705 100.796 115.71 100.92 115.688C102.248 115.446 103.513 115.039 104.718 114.217C104.468 109.002 104.74 103.815 104.913 98.6277L104.908 98.6222ZM100.029 86.4379C100.075 86.2948 100.106 86.1491 100.172 85.9015C99.5693 86.2261 99.077 86.5039 98.5764 86.7569C98.1584 86.966 97.7156 87.1172 97.248 86.9467C96.6016 86.7129 95.9498 86.4846 95.3255 86.2041C89.9952 83.825 84.6099 81.5807 79.1916 79.4161C79.0211 79.3501 78.8478 79.2951 78.5452 79.1878C78.7488 79.6691 78.8973 80.0129 79.0431 80.3595C80.4733 83.7205 81.5019 87.2107 82.3683 90.7477C82.6241 91.7902 83.1659 92.4035 84.1258 92.7363C84.3046 92.7968 84.4779 92.8711 84.6566 92.9343C87.8829 94.0537 91.1641 94.1968 94.4948 93.5009C95.6693 93.2561 96.7969 92.8876 97.8118 92.222C98.0456 92.0679 98.2079 91.9029 98.3014 91.6141C98.8625 89.8841 99.4538 88.1651 100.034 86.4406L100.029 86.4379ZM98.5682 157.772C98.5792 157.668 98.5929 157.627 98.5847 157.588C97.9438 154.057 97.589 150.489 97.4268 146.914C97.1957 141.765 96.9729 136.613 96.9427 131.459C96.8712 119.58 97.006 107.698 97.5285 95.8278C97.5368 95.671 97.5148 95.5142 97.5038 95.3107C95.1604 96.1385 92.7951 96.5016 90.3665 96.4878C87.9241 96.4741 85.5615 96.0258 83.2099 95.1731C83.2099 95.506 83.2099 95.737 83.2099 95.9653C83.2209 98.3746 83.2704 100.784 83.2374 103.193C83.1604 108.683 83.0669 114.17 82.9266 119.66C82.8304 123.45 82.6791 127.24 82.4866 131.027C82.2858 134.938 82.0025 138.847 81.7605 142.758C81.4579 147.651 81.1636 152.544 80.8528 157.437C80.8308 157.767 80.9408 157.957 81.1994 158.1C81.4029 158.21 81.6037 158.322 81.8127 158.419C82.9046 158.911 84.0433 159.258 85.2122 159.516C87.5941 160.044 89.9787 160.435 92.4348 160.083C94.6488 159.764 96.6897 159.024 98.5654 157.781L98.5682 157.772ZM95.54 83.4812C95.4025 77.8154 95.2649 72.254 95.1302 66.712C94.8744 66.5965 94.6846 66.5085 94.4948 66.4232C92.2093 65.4165 90.0062 64.2559 87.9021 62.9137C82.8359 59.6765 78.1712 55.9304 73.8311 51.7745C71.0751 49.1369 68.4073 46.4113 66.0749 43.3776C66.0337 43.3253 65.9566 43.3006 65.8384 43.229C65.8384 43.5508 65.8384 43.8011 65.8384 44.0514C65.8384 44.3017 65.8549 44.5575 65.8246 44.805C65.7889 45.1158 65.7586 45.4376 65.6486 45.7237C65.4506 46.238 64.9252 46.5185 64.3862 46.4635C63.8388 46.4113 63.4153 46.04 63.2943 45.4871C63.253 45.2863 63.242 45.0718 63.2475 44.8628C63.33 41.6971 63.231 38.5369 62.8239 35.3931C62.3894 32.0239 61.4542 28.7977 59.9883 25.731C59.1494 23.979 58.107 22.3617 56.608 21.091C54.4187 19.2373 51.8856 18.4727 49.0609 19.0227C46.4068 19.5398 44.3027 20.926 42.9963 23.3739C42.5672 24.1742 42.2647 25.0104 42.0749 25.9015C41.9099 26.6716 41.313 27.0594 40.6007 26.9439C39.9241 26.8339 39.4923 26.2205 39.572 25.4532C39.6023 25.1616 39.66 24.8701 39.7453 24.5923C39.8388 24.2925 39.8223 24.0257 39.6655 23.7507C39.0054 22.6093 38.3976 21.4376 37.6907 20.3237C36.7996 18.9237 35.6059 17.8043 34.129 17.0287C32.2505 16.0441 30.4049 16.0358 28.6227 17.3037C27.6875 17.9666 26.8844 18.7505 26.2491 19.7021C24.6483 22.1087 23.848 24.8013 23.4629 27.6343C23.0531 30.6487 23.1631 33.6521 23.6829 36.6446C23.7737 37.1589 23.8397 37.6842 23.8232 38.2041C23.804 38.9027 23.2731 39.3895 22.6158 39.4115C21.9419 39.4335 21.4276 38.9962 21.3203 38.2948C21.1553 37.1974 21.0013 36.0972 20.8473 34.9998C20.8143 34.7605 20.7895 34.5213 20.7538 34.1995C18.0281 35.8662 15.2365 37.1699 12.2825 38.149C9.32034 39.1309 6.3334 39.9836 3.16219 40.2614C4.3091 45.8529 4.92795 51.4445 5.42302 57.0691C8.54748 57.4129 11.6637 57.6026 14.7414 58.2022C15.1925 57.7759 15.5885 57.3744 16.0148 57.0031C16.3229 56.7363 16.6942 56.5795 17.115 56.6428C17.6101 56.717 17.9786 56.9866 18.1354 57.4651C18.3169 58.0152 18.1794 58.5185 17.7338 58.8843C16.9885 59.4949 16.4934 60.2843 16.0231 61.1094C13.8695 64.8747 14.7441 70.3893 19.1448 73.2029C22.8716 75.5848 26.9257 76.8307 31.3676 76.872C35.2291 76.9105 39.0109 76.3686 42.757 75.516C49.2975 74.0281 55.5409 71.6847 61.5973 68.8298C61.9768 68.651 62.3316 68.4227 62.7112 68.2495C63.319 67.9717 63.9791 68.1614 64.3229 68.684C64.6695 69.2121 64.5814 69.8804 64.0891 70.337C63.9379 70.4773 63.7481 70.579 63.5775 70.7001C63.4565 70.7881 63.3383 70.8761 63.1677 71.0026C74.2546 74.4544 84.8987 78.8138 95.5345 83.4812H95.54ZM91.7994 194.212C91.7994 194.003 91.8049 193.902 91.7994 193.803C91.6427 191.335 91.4831 188.871 91.3236 186.404C90.9936 181.324 90.6525 176.247 90.339 171.167C90.3087 170.683 90.1574 170.443 89.6844 170.27C86.2271 169.002 82.7671 167.74 79.3346 166.4C68.652 162.233 57.9887 158.012 47.3034 153.853C39.1512 150.679 30.977 147.568 22.8138 144.427C18.3224 142.697 13.8117 141.009 9.55962 138.726C9.48261 138.685 9.3836 138.682 9.25983 138.652C9.27358 138.814 9.27633 138.916 9.29009 139.02C9.78516 142.945 10.2885 146.87 10.7753 150.797C10.9293 152.024 11.0448 153.253 11.1851 154.48C11.2154 154.744 11.2291 155 11.5399 155.154C13.3552 156.059 15.1622 156.983 17.0407 157.937C17.2663 157.616 17.4533 157.34 17.6458 157.071C18.1766 156.32 18.6937 155.575 19.5243 155.088C21.8017 153.748 24.2385 152.918 26.8817 152.778C30.548 152.582 33.8814 153.641 36.9069 155.655C38.4719 156.697 39.7508 158.067 40.6447 159.747C41.9649 162.222 42.4187 164.871 42.1189 167.652C42.0611 168.188 41.9841 168.722 41.9154 169.264C42.0391 169.335 42.1272 169.39 42.2179 169.437C43.9287 170.322 45.6229 171.244 47.3529 172.085C54.3747 175.499 61.4405 178.818 68.3743 182.413C73.2617 184.949 78.1932 187.397 83.1054 189.881C85.7018 191.192 88.3009 192.502 90.9001 193.808C91.1723 193.946 91.4556 194.061 91.8022 194.221L91.7994 194.212ZM80.4375 117.141C80.6603 109.434 80.6933 101.725 80.6576 94.0152C80.6576 93.8695 80.6851 93.6852 80.6108 93.5889C80.2807 93.1736 80.2422 92.673 80.113 92.189C79.6344 90.3875 79.1366 88.5942 78.6058 86.8092C77.7944 84.0753 76.8427 81.3936 75.4785 78.8798C75.3713 78.6817 75.275 78.4535 75.2558 78.2334C75.2283 77.9226 75.055 77.8099 74.7992 77.7163C73.2232 77.1525 71.65 76.5804 70.074 76.0166C69.9502 75.9726 69.81 75.9753 69.6339 75.9478C69.6477 76.2091 69.6559 76.4154 69.6697 76.6217C69.8595 79.6114 70.063 82.5983 70.239 85.5907C70.4013 88.3714 70.5333 91.1548 70.6791 93.9355C70.8304 96.8426 70.9844 99.7498 71.1274 102.66C71.2677 105.526 71.3832 108.394 71.5372 111.26C71.7572 115.342 71.8178 119.426 71.6885 123.511C71.672 124.022 71.8288 124.319 72.2028 124.613C73.5753 125.7 75.1622 126.236 76.862 126.503C77.9237 126.671 78.9826 126.715 80.0992 126.418C80.1185 126.159 80.1432 125.953 80.1487 125.747C80.2477 122.878 80.3523 120.012 80.4375 117.141ZM69.0343 113.499C69.0756 111.123 67.2411 76.8582 66.955 74.8834C64.5649 74.1518 62.1693 73.412 59.7627 72.6969C59.2292 72.5373 59.0366 72.7189 59.0586 73.3019C59.1852 76.9435 59.2979 80.5878 59.4602 84.2265C59.6307 88.0551 59.8507 91.8809 60.0515 95.7095C60.1863 98.2811 60.3128 100.853 60.4696 103.424C60.7006 107.291 60.9509 111.158 61.1957 115.026C61.2315 115.565 61.2782 116.104 61.3222 116.703C63.9654 115.699 66.5397 114.682 69.0343 113.499ZM64.5897 141.924C64.994 141.641 65.3543 141.295 65.7476 140.965C61.7458 129.996 57.7659 119.088 53.7586 108.108C53.6046 108.722 53.4698 109.288 53.3213 109.852C52.0203 114.789 50.7029 119.723 49.424 124.668C48.2908 129.044 47.2126 133.434 46.0822 137.813C45.6422 139.515 45.1333 141.198 44.6548 142.89C44.4925 143.467 44.4925 143.484 45.0261 143.773C45.3396 143.941 45.6614 144.092 45.9915 144.221C49.6 145.627 53.3048 145.904 57.1003 145.175C59.8397 144.647 62.3151 143.522 64.5869 141.924H64.5897ZM58.2445 112.894C58.2968 113.048 58.3683 113.194 58.4288 113.342C57.7027 100.206 56.9243 87.1007 56.4843 73.8713C52.0809 75.6233 47.6335 77.048 43.0375 78.1069C43.0705 78.4947 43.087 78.8248 43.1228 79.1548C43.2273 80.1119 43.3483 81.0691 43.4418 82.0262C43.7581 85.2992 44.0799 88.5722 44.3742 91.8452C44.6658 95.0989 44.9298 98.3554 45.2021 101.612C45.4716 104.846 45.7302 108.084 46.0107 111.318C46.3298 114.971 46.6681 118.62 46.9981 122.27C47.0201 122.501 47.0559 122.732 47.0861 122.963C47.2484 122.76 47.3034 122.562 47.3557 122.361C47.9663 120.009 48.5686 117.658 49.1902 115.312C50.1473 111.689 51.2337 108.1 51.9213 104.412C52.0589 103.672 52.3917 103.163 53.0765 102.817C53.9896 102.352 54.801 102.638 55.1118 103.611C55.2521 104.051 55.3593 104.497 55.5079 104.934C56.4155 107.588 57.3286 110.24 58.2418 112.894H58.2445ZM44.4375 18.1234C45.6862 17.3643 47.0339 16.8252 48.4201 16.4814C47.5509 14.6028 46.6791 12.7958 45.8732 10.9586C45.0618 9.10754 44.3192 7.22627 43.5436 5.35049C41.5633 9.01128 39.5913 12.6583 37.6 16.3356C39.1622 17.675 40.2376 19.3885 41.247 21.2258C42.1794 19.9716 43.1696 18.8962 44.4347 18.1234H44.4375ZM44.4292 122.479C44.421 122.262 44.4182 122.157 44.41 122.056C44.1679 119.407 43.9204 116.758 43.6866 114.11C43.4996 112.003 43.3318 109.893 43.153 107.786C42.878 104.574 42.6002 101.362 42.3279 98.1463C42.0996 95.4344 41.8989 92.717 41.6458 90.0079C41.3433 86.7762 40.9995 83.5499 40.6722 80.321C40.6172 79.7681 40.5374 79.2153 40.4742 78.6872C38.1886 78.9623 35.9745 79.2291 33.7604 79.4959C33.5156 82.8238 37.9465 122.548 38.8047 124.457C40.6694 123.805 42.5397 123.147 44.4347 122.485L44.4292 122.479ZM39.6188 166.703C39.6518 165.072 39.462 163.815 39.1237 162.709C38.4471 160.509 37.1049 158.779 35.1851 157.591C31.2988 155.184 27.1677 154.532 22.8303 156.301C21.5596 156.821 20.2449 157.338 19.6234 158.735C17.9374 160.963 17.1397 163.512 16.972 166.263C16.8289 168.634 17.1947 170.903 18.6717 172.869C20.2807 175.015 22.4343 176.382 25.0059 177.02C28.2514 177.828 31.3676 177.292 34.316 175.774C35.4052 175.215 36.3265 174.41 37.0747 173.433C38.7029 171.31 39.6463 168.939 39.6215 166.697L39.6188 166.703ZM37.1352 136.358C37.9933 135.788 37.9685 135.794 37.7925 134.804C37.38 132.474 36.9619 130.145 36.6043 127.809C36.013 123.959 35.4464 120.106 34.9128 116.249C34.5525 113.659 34.25 111.057 33.9475 108.458C33.6284 105.713 33.3231 102.965 33.0371 100.215C32.6988 96.9444 32.3797 93.6714 32.0662 90.3984C31.8241 87.8543 31.5986 85.3102 31.3703 82.7661C31.2741 81.6852 31.1943 80.6015 31.1118 79.5729C29.2195 79.3006 27.3712 79.0998 25.5477 78.7532C23.6967 78.4039 21.9832 77.5981 20.2092 76.7895C20.3027 77.9419 20.399 79.0035 20.4705 80.0679C20.7978 84.9361 21.1443 89.8044 21.4359 94.6753C21.6531 98.3141 21.8099 101.956 21.9749 105.597C22.173 109.97 22.3765 114.343 22.5305 118.719C22.7286 124.435 22.8826 130.153 23.0421 135.868C23.0504 136.201 23.1466 136.44 23.4437 136.578C24.1643 136.908 24.8656 137.298 25.6137 137.546C27.9268 138.308 30.3004 138.349 32.696 138.005C34.294 137.774 35.782 137.257 37.1324 136.363L37.1352 136.358Z" fill="black"/>
<path d="M183.599 120.154C183.583 120.383 183.586 120.52 183.563 120.655C182.408 127.424 181.253 134.192 180.095 140.964C179.966 141.726 179.817 142.488 179.71 143.255C179.655 143.643 179.471 143.882 179.144 144.091C176.212 145.956 173.285 147.832 170.362 149.713C169.674 150.156 169.003 150.621 168.337 151.091C168.09 151.267 167.859 151.327 167.537 151.322C166.627 151.305 165.711 151.352 164.803 151.426C162.487 151.613 160.171 151.845 157.855 152.023C154.577 152.276 151.299 152.502 148.017 152.73C145.864 152.881 143.713 153.013 141.559 153.156C138.319 153.371 135.077 153.53 131.845 153.825C129.042 154.078 126.776 155.415 125.024 157.623C124.482 158.305 124.114 159.064 123.863 159.898C122.829 163.366 122.386 166.9 122.672 170.511C122.81 172.23 123.187 173.903 123.698 175.547C123.753 175.723 123.808 175.905 123.88 176.142C123.497 176.359 123.129 176.59 122.744 176.791C117.892 179.313 113.227 182.162 108.494 184.893C103.86 187.567 99.4589 190.584 95.1188 193.7C94.918 193.843 94.7172 193.983 94.4064 194.203C93.8729 186.016 93.3448 177.973 92.8195 169.901C93.4053 169.527 93.9581 169.15 94.533 168.812C98.213 166.644 101.885 164.461 105.587 162.332C109.561 160.046 113.541 157.763 117.57 155.577C121.985 153.181 126.465 150.904 130.91 148.558C137.855 144.897 144.791 141.222 151.659 137.413C158.287 133.739 164.941 130.108 171.671 126.621C175.37 124.706 179.001 122.657 182.661 120.669C182.953 120.509 183.242 120.35 183.605 120.152L183.599 120.154Z" fill="#7A8125"/>
<path d="M182.876 117.556C182.7 117.674 182.563 117.787 182.409 117.872C178.234 120.141 174.061 122.418 169.875 124.671C165.524 127.014 161.154 129.319 156.805 131.665C149.308 135.714 141.835 139.812 134.323 143.833C127.992 147.222 121.589 150.478 115.277 153.897C110.455 156.51 105.705 159.263 100.955 162.008C97.8557 163.798 94.811 165.685 91.7443 167.533C91.1915 167.866 90.6689 167.916 90.0308 167.682C77.6678 163.149 65.5082 158.099 53.2277 153.358C46.1591 150.629 39.0686 147.964 32.0001 145.233C26.7495 143.203 21.51 141.143 16.287 139.042C14.5818 138.357 12.9425 137.502 11.2758 136.718C11.1355 136.652 11.009 136.553 10.8192 136.435C14.0372 135.191 17.1836 133.976 20.3989 132.735C20.4126 132.983 20.4291 133.203 20.4319 133.426C20.4484 134.347 20.4814 135.268 20.4731 136.192C20.4621 137.13 20.8527 137.845 21.576 138.407C22.5854 139.188 23.7351 139.688 24.9453 140.043C28.3503 141.041 31.7663 141.006 35.1768 140.082C36.585 139.699 37.8612 139.025 39.0384 138.165C39.1896 138.055 39.3271 137.92 39.4812 137.812C40.4933 137.1 40.6446 136.088 40.4493 134.971C40.1413 133.219 39.8085 131.47 39.4977 129.718C39.3464 128.852 39.2254 127.98 39.0851 127.058C40.8949 126.44 42.7074 125.821 44.5667 125.185C44.6024 125.306 44.6684 125.433 44.6767 125.565C44.8225 127.339 44.9682 129.116 45.0947 130.89C45.1112 131.132 45.0617 131.39 44.9985 131.63C44.0468 135.211 43.1199 138.797 42.1133 142.364C41.7255 143.74 42.2096 145.148 43.4693 145.86C44.7757 146.6 46.1702 147.106 47.6169 147.458C52.1303 148.558 56.5914 148.352 60.9646 146.757C62.9229 146.042 64.7354 145.035 66.4021 143.784C66.9192 143.396 67.45 143.008 67.6893 142.356C67.7223 142.265 67.8103 142.188 67.8901 142.122C68.4649 141.652 68.5007 141.063 68.2724 140.417C67.6068 138.541 66.9577 136.663 66.2701 134.798C64.7326 130.634 63.1786 126.478 61.6247 122.319C61.4926 121.962 61.3881 121.624 61.5146 121.228C61.5862 120.999 61.5339 120.73 61.5229 120.479C61.5064 120.147 61.4789 119.814 61.4514 119.462C64.0148 118.422 66.5451 117.393 69.1058 116.354C69.125 116.513 69.1553 116.656 69.1525 116.797C69.1333 119.184 69.1305 121.574 69.0783 123.959C69.0618 124.773 69.29 125.427 69.8786 125.983C71.4904 127.509 73.4074 128.431 75.5692 128.874C76.8261 129.132 78.0913 129.272 79.3758 129.149C79.5573 129.129 79.7443 129.149 79.9836 129.149C79.9836 129.33 79.9919 129.49 79.9836 129.649C79.7251 133.852 79.4583 138.055 79.2025 142.257C78.9247 146.837 78.6552 151.416 78.3884 155.995C78.3471 156.727 78.3306 157.459 78.3031 158.19C78.2839 158.683 78.4901 159.079 78.8174 159.431C79.34 159.992 79.9726 160.391 80.663 160.712C82.1922 161.425 83.8012 161.881 85.4542 162.178C86.6891 162.401 87.9295 162.635 89.1782 162.726C93.0838 163.006 96.6978 162.077 99.9818 159.926C100.367 159.675 100.733 159.387 101.063 159.068C101.651 158.49 101.682 157.912 101.25 157.203C101.145 157.03 101.068 156.826 101.035 156.628C100.606 154.109 100.337 151.567 100.152 149.018C99.4207 138.935 99.4427 128.838 99.539 118.738C99.539 118.576 99.5637 118.414 99.5802 118.219C101.316 118.455 102.878 117.941 104.415 117.305C104.839 117.129 105.238 116.893 105.642 116.67C106.013 116.467 106.343 116.211 106.528 115.806C106.564 115.732 106.602 115.647 106.665 115.6C107.237 115.193 107.284 114.605 107.268 113.972C107.171 110.578 107.13 107.184 107.317 103.793C107.328 103.608 107.342 103.424 107.353 103.278C108.453 102.833 109.509 102.407 110.618 101.958C110.618 102.173 110.629 102.335 110.618 102.492C110.332 106.23 110.062 109.97 109.746 113.708C109.418 117.569 109.072 121.428 108.681 125.284C108.368 128.39 107.994 131.489 107.614 134.586C107.29 137.246 106.918 139.9 106.566 142.56C106.544 142.725 106.536 142.898 106.475 143.052C106.143 143.905 106.475 144.559 107.078 145.134C107.826 145.849 108.665 146.446 109.611 146.859C115.131 149.262 120.519 149.015 125.761 146.017C126.105 145.819 126.416 145.563 126.754 145.354C127.805 144.708 128.05 143.704 127.937 142.584C127.852 141.71 127.673 140.846 127.533 139.98C126.988 136.627 126.647 133.255 126.413 129.867C126.061 124.784 125.913 119.696 125.893 114.605C125.874 110.143 126.012 105.682 126.086 101.218C126.091 100.866 126.133 100.512 126.16 100.096C129.26 101.367 132.302 102.613 135.421 103.892C135.399 104.189 135.385 104.538 135.341 104.885C134.879 108.774 134.483 112.671 133.922 116.546C133.383 120.254 132.67 123.934 132.032 127.628C131.889 128.453 131.754 129.281 131.6 130.103C131.496 130.661 131.625 131.165 132.007 131.558C132.428 131.99 132.857 132.455 133.374 132.743C138.405 135.543 143.496 135.86 148.628 133.013C149.266 132.658 149.88 132.243 150.441 131.778C150.87 131.423 151.252 130.98 151.549 130.513C151.736 130.219 151.81 129.801 151.805 129.44C151.783 128.038 151.714 126.635 151.656 125.232C151.491 121.046 151.315 116.86 151.161 112.671C151.106 111.227 151.098 109.78 151.071 108.334C151.068 108.127 151.071 107.918 151.071 107.555C153.243 108.353 155.32 109.115 157.493 109.91C157.446 110.402 157.407 110.977 157.333 111.549C156.973 114.31 156.61 117.072 156.233 119.83C156.156 120.397 156.277 120.889 156.72 121.244C157.091 121.541 157.49 121.833 157.922 122.028C159.63 122.804 161.44 123.079 163.307 123.04C165.169 123.002 166.968 122.649 168.703 121.984C169.132 121.819 169.559 121.635 169.955 121.401C170.802 120.903 171.311 120.188 171.327 119.162C171.352 117.633 171.407 116.104 171.448 114.577C171.454 114.33 171.448 114.079 171.448 113.832C172.026 113.837 181.806 117.028 182.882 117.55L182.876 117.556Z" fill="#7A8125"/>
<path d="M180.651 35.3435C181.149 41.6337 181.641 47.8303 182.139 54.0903C181.336 54.3048 180.574 54.5248 179.807 54.7091C174.171 56.076 168.525 57.3825 162.903 58.8072C154.984 60.8122 147.237 63.3756 139.519 66.049C131.581 68.7994 123.751 71.8194 116.132 75.3536C110.266 78.0765 104.479 80.9727 98.6562 83.7919C98.5105 83.8606 98.3619 83.9239 98.1227 84.0339C97.9824 78.2498 97.8421 72.5455 97.7046 66.8026C98.1942 66.6486 98.6342 66.5166 99.066 66.3708C105.188 64.286 111.338 62.2837 117.422 60.0971C125.91 57.0469 134.389 53.9637 142.8 50.7018C151.406 47.3655 159.924 43.8065 168.478 40.3327C172.356 38.7568 176.223 37.1505 180.093 35.558C180.247 35.4948 180.404 35.4398 180.651 35.3435Z" fill="#7A8125"/>
<path d="M178.932 33.0525C178.968 33.0662 178.998 33.0992 179.075 33.1598C178.899 33.2478 178.745 33.3358 178.583 33.4018C165.793 38.6221 153.073 44.0183 140.179 48.9773C133.831 51.4197 127.406 53.664 121.039 56.0541C114.16 58.6367 107.196 60.9746 100.235 63.3207C99.1044 63.703 97.9547 64.022 96.8243 64.4016C96.5465 64.4951 96.3457 64.4153 96.1147 64.3163C93.0095 63.0209 90.0968 61.3734 87.3326 59.4646C80.7124 54.8934 74.7496 49.5879 69.4853 43.5013C68.1513 41.961 66.9769 40.3108 66.0143 38.5065C65.7337 37.9812 65.632 37.4669 65.5825 36.9058C65.1424 31.9853 63.891 27.3069 61.4404 22.986C60.7555 21.7758 59.9056 20.6867 58.9127 19.713C56.9297 17.763 54.5698 16.6078 51.7892 16.3548C51.4977 16.3273 51.3079 16.2503 51.1483 15.9615C49.2148 12.4245 47.6251 8.73893 46.2169 4.96813C46.1591 4.8141 46.1179 4.65183 46.0271 4.36304C46.8687 4.54456 47.5976 4.70959 48.3292 4.85811C51.8607 5.56771 55.406 6.19205 58.9925 6.56611C62.7 6.95667 66.4076 7.32247 70.1234 7.64702C72.3567 7.83955 74.5955 7.94406 76.8344 8.06233C80.0138 8.2301 83.1933 8.38963 86.3755 8.52715C88.4053 8.61516 90.4379 8.66742 92.4704 8.71693C98.2297 8.8572 103.989 9.03597 109.748 9.10473C116.347 9.18449 122.948 9.19825 129.546 9.16249C132.098 9.14874 134.651 8.93421 137.203 8.80494C137.621 8.78294 138.036 8.70042 138.452 8.69217C138.611 8.69217 138.834 8.76918 138.927 8.88745C141.078 11.6544 143.699 13.9317 146.428 16.099C150.691 19.4903 155.323 22.2902 160.155 24.7848C165.463 27.5269 170.901 29.9665 176.47 32.1174C177.29 32.4337 178.115 32.7362 178.938 33.047L178.932 33.0525Z" fill="#B4BD57"/>
<path d="M174.823 58.4966C174.52 59.2282 174.259 59.8388 174.011 60.4576C172.895 63.241 172.009 66.0932 171.52 69.0554C171.429 69.5945 171.181 69.9025 170.705 70.1198C168.871 70.9669 166.954 71.2557 164.954 70.9999C164.498 70.9422 164.049 70.8376 163.598 70.7441C162.869 70.5901 162.457 70.1555 162.306 69.4102C161.808 66.9623 161.016 64.608 159.883 62.2784C164.809 60.9032 169.746 59.7013 174.82 58.4966H174.823Z" fill="#B4BD57"/>
<path d="M171.036 162.53C171.121 166.821 170.109 170.875 168.192 174.701C167.892 175.298 167.51 175.853 167.155 176.42C166.61 177.289 165.722 177.754 164.883 178.26C164.669 178.389 164.355 178.37 164.085 178.392C161.558 178.576 159.025 178.7 156.505 178.945C153.422 179.245 150.342 179.588 147.272 180.012C144.684 180.372 142.112 180.875 139.535 181.316C139.414 181.338 139.293 181.354 139.117 181.382C139.142 181.272 139.139 181.192 139.172 181.131C140.371 179.088 140.96 176.846 141.232 174.522C141.714 170.41 141.389 166.364 140.003 162.44C139.2 160.17 138.072 158.077 136.375 156.328C136.334 156.287 136.312 156.224 136.235 156.092C136.966 156.037 137.61 155.984 138.254 155.943C141.722 155.715 145.193 155.5 148.661 155.261C152.713 154.98 156.767 154.697 160.818 154.375C162.738 154.224 164.649 153.988 166.564 153.768C166.874 153.732 167.086 153.842 167.309 154.001C168.219 154.642 168.901 155.478 169.429 156.449C170.455 158.344 170.997 160.388 171.038 162.528L171.036 162.53Z" fill="#F96969"/>
<path d="M171.275 72.7352C171.14 73.8051 171 74.8172 170.89 75.8321C170.645 78.1232 170.37 80.4115 170.188 82.7081C169.916 86.1131 169.677 89.5181 169.493 92.9286C169.336 95.8166 169.253 98.7072 169.179 101.598C169.033 107.253 168.915 112.91 168.791 118.565C168.783 118.925 168.736 119.198 168.346 119.36C165.57 120.515 162.74 120.864 159.814 120.02C159.514 119.935 159.228 119.803 158.87 119.665C159.96 111.926 160.752 104.219 161.459 96.5042C162.163 88.8058 162.65 81.0909 162.905 73.3017C163.114 73.321 163.293 73.3155 163.464 73.3513C165.986 73.9151 168.456 73.7391 170.876 72.8342C170.983 72.7929 171.104 72.7764 171.275 72.7324V72.7352Z" fill="#B4BD57"/>
<path d="M152.814 64.3496C152.335 65.9944 151.84 67.5263 151.447 69.0831C150.902 71.2449 150.682 73.4534 150.748 75.6813C150.768 76.2891 150.539 76.6467 150.061 76.9575C148.606 77.8981 147.005 78.4152 145.294 78.5747C143.762 78.7177 142.241 78.6352 140.762 78.1621C140.602 78.1099 140.448 78.0466 140.289 77.9971C139.648 77.7991 139.285 77.4333 139.117 76.7182C138.586 74.4518 137.783 72.2735 136.688 70.2107C136.631 70.1035 136.592 69.9852 136.526 69.8284C141.953 67.9499 147.338 66.0219 152.814 64.3496Z" fill="#B4BD57"/>
<path d="M150.229 79.8531C150.105 80.769 150.014 81.5748 149.882 82.3752C149.437 85.0871 149.233 87.8238 149.057 90.5604C148.884 93.2145 148.672 95.8687 148.595 98.5283C148.433 104.035 148.43 109.546 148.645 115.056C148.777 118.425 148.922 121.794 149.065 125.163C149.118 126.398 149.164 127.633 149.241 128.865C149.269 129.289 149.115 129.575 148.793 129.828C147.126 131.14 145.231 131.924 143.152 132.273C140.305 132.749 137.671 132.061 135.14 130.807C135.066 130.771 134.992 130.73 134.92 130.686C133.996 130.122 134.153 130.183 134.315 129.358C135.338 124.159 136.295 118.95 136.889 113.68C137.28 110.226 137.712 106.777 138.08 103.32C138.386 100.467 138.628 97.6069 138.886 94.7493C139.073 92.6617 139.274 90.5769 139.406 88.4866C139.56 86.0415 139.645 83.5909 139.761 81.143C139.769 80.978 139.777 80.813 139.791 80.5599C141.573 81.0743 143.301 81.2971 145.077 81.1788C146.849 81.0605 148.518 80.5709 150.232 79.8503L150.229 79.8531Z" fill="#B4BD57"/>
<path d="M138.369 166.147C138.71 167.795 138.856 169.461 138.872 171.252C138.853 173.394 138.611 175.611 137.882 177.759C137.585 178.637 137.227 179.489 136.672 180.232C135.808 181.384 134.747 182.215 133.206 182.182C132.607 182.171 132.054 182.003 131.52 181.739C129.834 180.9 128.591 179.605 127.623 178.015C126.471 176.126 125.797 174.063 125.447 171.898C124.815 168.001 125.208 164.178 126.418 160.429C126.622 159.796 126.955 159.246 127.411 158.773C128.324 157.83 129.301 157.005 130.665 156.766C131.399 156.636 132.081 156.719 132.753 157.002C133.858 157.472 134.749 158.21 135.448 159.189C136.95 161.287 137.846 163.636 138.369 166.144V166.147Z" fill="#DBA2A2"/>
<path d="M129.034 72.6824C128.908 73.0069 128.828 73.2132 128.748 73.4222C127.398 76.8767 126.308 80.411 125.494 84.0305C125.39 84.4981 125.299 84.9739 125.227 85.447C125.183 85.7413 125.049 85.9311 124.798 86.0906C122.782 87.375 120.577 87.9746 118.192 87.9554C117.095 87.9444 116.03 87.7353 114.985 87.419C114.688 87.3283 114.41 87.1798 114.127 87.0477C113.871 86.9267 113.709 86.7287 113.615 86.4509C112.969 84.5256 112.232 82.6361 111.305 80.8263C111.269 80.7548 111.247 80.675 111.2 80.543C117.018 77.6441 122.912 75.0807 129.037 72.6879L129.034 72.6824Z" fill="#B4BD57"/>
<path d="M125.357 142.611C125.437 143.002 125.324 143.225 125.011 143.445C123.421 144.559 121.639 145.202 119.76 145.604C116.704 146.258 113.761 145.824 110.915 144.619C110.4 144.402 109.936 144.061 109.446 143.78C109.113 143.588 109.031 143.318 109.089 142.939C109.325 141.365 109.551 139.789 109.754 138.211C110.084 135.636 110.417 133.059 110.7 130.479C111.094 126.898 111.465 123.314 111.8 119.728C112.103 116.515 112.348 113.3 112.609 110.085C112.854 107.057 113.115 104.031 113.31 101C113.536 97.5102 113.698 94.0144 113.885 90.5214C113.896 90.3151 113.904 90.1061 113.921 89.7761C117.543 90.9835 121.014 90.6809 124.496 89.2095C124.408 90.0731 124.317 90.835 124.257 91.5968C124.007 94.812 123.674 98.0245 123.542 101.245C123.369 105.409 123.275 109.579 123.303 113.749C123.336 118.336 123.495 122.924 123.69 127.506C123.869 131.692 124.235 135.865 124.92 140.007C125.063 140.873 125.181 141.745 125.357 142.609V142.611Z" fill="#B4BD57"/>
<path d="M106.126 82.9667C105.565 88.242 105.081 93.421 104.908 98.6192C104.735 103.809 104.462 108.996 104.713 114.209C103.511 115.031 102.243 115.438 100.914 115.68C100.793 115.702 100.664 115.699 100.538 115.696C99.7482 115.691 99.5941 115.54 99.6106 114.748C99.7097 109.703 99.7894 104.656 99.9242 99.6121C99.9737 97.6868 100.15 95.7671 100.271 93.8445C100.279 93.7208 100.279 93.5887 100.317 93.4732C101.008 91.4572 101.698 89.4411 102.408 87.4306C102.631 86.8007 102.93 86.1984 103.175 85.5741C103.343 85.1505 103.472 84.7132 103.659 84.1659C104.369 83.8193 105.188 83.4177 106.121 82.9612L106.126 82.9667Z" fill="#7A8125"/>
<path d="M100.171 85.9018C100.105 86.1493 100.075 86.2978 100.028 86.4381C99.448 88.1626 98.8567 89.8816 98.2956 91.6116C98.2021 91.9032 98.037 92.0682 97.806 92.2195C96.7911 92.8851 95.6662 93.2536 94.489 93.4984C91.1583 94.1943 87.877 94.0485 84.6508 92.9318C84.472 92.8686 84.2988 92.7943 84.12 92.7338C83.1601 92.401 82.6183 91.7876 82.3625 90.7452C81.4961 87.2082 80.4675 83.7152 79.0373 80.357C78.8887 80.0104 78.743 79.6666 78.5394 79.1853C78.842 79.2926 79.0153 79.3476 79.1858 79.4136C84.6068 81.5754 89.9921 83.8225 95.3196 86.2016C95.9467 86.4821 96.5958 86.7104 97.2422 86.9442C97.7125 87.1147 98.1525 86.9634 98.5706 86.7544C99.0739 86.5014 99.5635 86.2236 100.166 85.899L100.171 85.9018Z" fill="#B4BD57"/>
<path d="M98.5843 157.588C98.5926 157.627 98.5788 157.671 98.5678 157.772C96.692 159.016 94.6512 159.758 92.4372 160.075C89.981 160.427 87.5964 160.036 85.2146 159.508C84.0457 159.249 82.907 158.906 81.8151 158.411C81.6061 158.314 81.4053 158.204 81.2018 158.092C80.9405 157.948 80.8332 157.761 80.8552 157.429C81.1688 152.536 81.4603 147.643 81.7628 142.75C82.0049 138.839 82.2909 134.93 82.489 131.019C82.6815 127.232 82.83 123.442 82.929 119.652C83.0693 114.165 83.16 108.675 83.2398 103.185C83.2728 100.776 83.2233 98.3665 83.2123 95.9572C83.2123 95.7289 83.2123 95.4978 83.2123 95.165C85.5666 96.0177 87.9265 96.466 90.3689 96.4797C92.7975 96.4935 95.1601 96.1304 97.5061 95.3026C97.5171 95.5061 97.5364 95.6656 97.5309 95.8196C97.0083 107.693 96.8736 119.572 96.9451 131.451C96.9753 136.603 97.1981 141.757 97.4291 146.906C97.5914 150.484 97.9462 154.051 98.5871 157.58L98.5843 157.588Z" fill="#B4BD57"/>
<path d="M95.1273 66.7118C95.262 72.2539 95.3996 77.8152 95.5371 83.481C84.9013 78.8136 74.2572 74.4542 63.1703 71.0024C63.3409 70.8787 63.4591 70.7879 63.5802 70.6999C63.7507 70.5789 63.9377 70.4771 64.0917 70.3368C64.5868 69.8803 64.6721 69.2119 64.3255 68.6839C63.9817 68.1613 63.3216 67.9715 62.7138 68.2493C62.3342 68.4226 61.9794 68.6509 61.5999 68.8296C55.5435 71.6845 49.3001 74.0279 42.7596 75.5159C39.0136 76.3685 35.2317 76.9076 31.3702 76.8718C26.9283 76.8278 22.8742 75.5846 19.1474 73.2028C14.744 70.3891 13.8721 64.8745 16.0257 61.1092C16.496 60.2841 16.9911 59.4948 17.7364 58.8842C18.1847 58.5184 18.3223 58.015 18.138 57.465C17.9785 56.9864 17.6099 56.7169 17.1176 56.6426C16.6968 56.5793 16.3227 56.7361 16.0174 57.0029C15.5911 57.3715 15.1951 57.773 14.744 58.2021C11.6663 57.5997 8.55008 57.4127 5.42563 57.0689C4.93055 51.4443 4.31171 45.8528 3.16479 40.2612C6.33601 39.9861 9.32295 39.1335 12.2851 38.1489C15.2363 37.1697 18.0307 35.8688 20.7564 34.1993C20.7921 34.5184 20.8169 34.7604 20.8499 34.9997C21.0067 36.0998 21.1607 37.1972 21.323 38.2947C21.4275 38.996 21.9445 39.4333 22.6184 39.4113C23.2757 39.3893 23.8066 38.9025 23.8258 38.2039C23.8423 37.6868 23.7736 37.1587 23.6856 36.6444C23.163 33.6492 23.053 30.6485 23.4655 27.6341C23.8506 24.8012 24.6482 22.1085 26.2517 19.7019C26.887 18.7503 27.6901 17.9664 28.6253 17.3036C30.4103 16.0384 32.2558 16.0439 34.1316 17.0285C35.6086 17.8042 36.8022 18.9236 37.6934 20.3235C38.4002 21.4347 39.0108 22.6091 39.6681 23.7505C39.8277 24.0256 39.8414 24.2924 39.7479 24.5921C39.6627 24.8699 39.6049 25.1615 39.5746 25.453C39.4949 26.2204 39.9267 26.8365 40.6033 26.9437C41.3156 27.0593 41.9125 26.6714 42.0775 25.9013C42.2673 25.013 42.5698 24.1741 42.9989 23.3737C44.3081 20.9259 46.4121 19.5397 49.0635 19.0226C51.8854 18.4725 54.4186 19.2371 56.6106 21.0909C58.1096 22.3616 59.152 23.9788 59.9909 25.7308C61.4568 28.7975 62.3892 32.0237 62.8265 35.393C63.2336 38.5394 63.3326 41.6969 63.2501 44.8626C63.2446 45.0716 63.2556 45.2834 63.2969 45.487C63.4151 46.0398 63.8387 46.4083 64.3888 46.4634C64.9279 46.5156 65.4532 46.2351 65.6512 45.7235C65.7612 45.4374 65.7915 45.1157 65.8272 44.8049C65.8547 44.5573 65.8382 44.3015 65.841 44.0512C65.841 43.801 65.841 43.5507 65.841 43.2289C65.9593 43.3004 66.0363 43.3251 66.0775 43.3774C68.4099 46.4111 71.075 49.134 73.8337 51.7744C78.1738 55.9275 82.8385 59.6763 87.9047 62.9135C90.0088 64.2585 92.2118 65.4164 94.4974 66.423C94.6872 66.5083 94.877 66.5963 95.1328 66.7118H95.1273ZM71.5948 62.655C71.9551 62.1599 71.9139 61.5136 71.4738 61.0405C71.317 60.8727 71.13 60.7352 70.943 60.6004C70.4479 60.2484 69.9473 59.9073 69.4468 59.5608C67.0209 57.8858 64.353 56.7609 61.4706 56.1613C60.8408 56.0293 60.1834 55.9797 59.5371 55.9632C58.9567 55.9467 58.5084 56.3043 58.3461 56.8186C58.1784 57.3522 58.3214 57.8088 58.7367 58.1801C58.8247 58.2598 58.9237 58.3203 59.1273 58.4716C58.3571 58.5101 57.719 58.5624 57.081 58.5761C54.0418 58.6421 51.0081 58.5596 47.9716 58.3891C43.1392 58.1168 38.3232 57.6905 33.5512 56.8489C29.3816 56.1118 25.2753 55.1271 21.279 53.7024C19.1611 52.9488 17.1286 52.0219 15.2886 50.7072C14.3699 50.0499 13.6273 49.2413 13.0277 48.2924C12.6949 47.7643 12.5162 47.195 12.5327 46.5679C12.5409 46.2021 12.6399 45.872 12.9645 45.6052C13.245 45.696 13.5173 45.795 13.7951 45.872C14.5735 46.0893 15.2693 45.7703 15.4976 45.0992C15.7204 44.4446 15.3958 43.7955 14.6835 43.4737C14.513 43.3967 14.3369 43.3224 14.1554 43.2756C13.5283 43.1161 12.9012 42.9346 12.2659 42.8191C10.8027 42.555 9.34495 42.6265 7.90924 43.0171C7.59019 43.1051 7.27115 43.2344 6.99336 43.4132C6.50378 43.7295 6.33051 44.3153 6.50653 44.8544C6.67706 45.3769 7.18038 45.7235 7.77447 45.6822C8.02201 45.6657 8.26404 45.5805 8.50608 45.52C9.02865 45.3879 9.54573 45.2257 10.1041 45.3219C10.0986 45.4127 10.1041 45.4732 10.0931 45.531C9.80152 46.9254 10.016 48.2346 10.7422 49.464C11.4655 50.6852 12.3456 51.7799 13.5228 52.583C14.5597 53.2871 15.6076 54.005 16.7325 54.5468C18.237 55.2701 19.8212 55.8312 21.3725 56.4583C21.5567 56.5326 21.7438 56.6041 21.9556 56.6894C20.9352 58.4551 20.4923 60.3391 20.2531 62.2837C19.8405 65.6392 21.3037 68.241 24.3869 69.6382C24.5189 69.6988 24.6564 69.7538 24.7912 69.8088C26.7303 70.6174 28.76 71.0299 30.8504 71.0272C32.5226 71.0272 34.2031 70.9612 35.8643 70.7797C38.0069 70.5459 40.1522 70.2681 42.2618 69.839C47.0365 68.8681 51.6214 67.2701 56.1018 65.3751C58.6322 64.3052 61.0635 63.0318 63.3189 61.4475C63.9212 61.024 64.4988 60.5922 65.2827 60.6059C65.3432 60.6059 65.4119 60.5894 65.4614 60.5564C65.7805 60.3419 66.061 60.4767 66.3333 60.6554C67.351 61.3183 68.3686 61.9811 69.3863 62.6412C69.6145 62.7897 69.8373 62.9548 70.0849 63.0593C70.6432 63.2986 71.2648 63.117 71.6031 62.6522L71.5948 62.655ZM60.0761 36.6857C60.0871 35.5332 59.7158 34.015 59.1548 32.5381C57.7438 28.836 53.8795 25.9838 50.436 25.7281C47.383 25.4998 44.3548 27.0868 42.9549 29.8152C42.105 31.4764 41.8492 33.2697 41.6924 35.0877C41.6044 36.0971 41.819 37.09 42.0638 38.0664C42.8476 41.1798 44.4511 43.7597 47.0612 45.6712C50.26 48.0118 55.1117 47.7395 57.8126 43.9935C59.2868 41.9499 60.0596 39.6644 60.0706 36.6884L60.0761 36.6857ZM42.0692 53.2348C43.5105 51.7304 44.044 49.9674 43.5187 47.9211C43.2547 46.8924 42.8009 45.9573 42.1765 45.1019C41.0324 43.5397 39.6021 42.302 37.9106 41.3614C37.6934 41.2403 37.4843 41.1083 37.2313 40.9598C37.8199 40.0879 38.2022 39.1693 38.4277 38.1819C38.7495 36.7902 38.9393 35.382 38.9888 33.9545C39.0988 30.8686 38.502 27.9614 36.8022 25.3265C36.0541 24.1658 35.1382 23.1757 33.9858 22.4111C32.3273 21.3109 29.3101 20.8571 27.1098 23.0767C26.2874 23.9073 25.6438 24.8479 25.2203 25.9398C24.772 27.1005 24.4914 28.3024 24.4089 29.5429C24.1971 32.8214 24.6509 35.9761 26.1609 38.9355C26.2352 39.0785 26.2957 39.2298 26.381 39.4141C26.1224 39.4938 25.8996 39.5378 25.6961 39.6286C24.9315 39.9641 24.1091 40.2172 23.4243 40.6737C21.3395 42.0765 20.4566 44.0815 20.7921 46.5734C20.9764 47.9568 21.5842 49.1175 22.5744 50.1544C23.3335 50.952 24.1366 51.6671 25.0443 52.264C27.4454 53.8427 30.0995 54.7586 32.9242 55.2096C34.5029 55.4627 36.0844 55.5864 37.6769 55.3417C39.3546 55.0831 40.8701 54.4835 42.0665 53.2348H42.0692Z" fill="#B4BD57"/>
<path d="M91.7994 193.802C91.8077 193.904 91.7994 194.003 91.7994 194.212C91.4501 194.055 91.1696 193.937 90.8973 193.8C88.2982 192.493 85.699 191.187 83.1027 189.872C78.1904 187.388 73.259 184.941 68.3715 182.405C61.4405 178.81 54.3719 175.49 47.3502 172.077C45.6174 171.235 43.9259 170.314 42.2152 169.428C42.1244 169.382 42.0364 169.327 41.9126 169.255C41.9814 168.713 42.0584 168.177 42.1161 167.643C42.4159 164.86 41.9621 162.214 40.6419 159.739C39.7481 158.061 38.4691 156.691 36.9041 155.646C33.8814 153.63 30.548 152.571 26.8789 152.769C24.2358 152.909 21.8017 153.74 19.5216 155.079C18.6937 155.566 18.1739 156.312 17.6431 157.063C17.4533 157.335 17.2635 157.607 17.038 157.929C15.1594 156.975 13.3524 156.05 11.5372 155.145C11.2264 154.991 11.2126 154.736 11.1824 154.472C11.0421 153.245 10.9266 152.013 10.7726 150.789C10.283 146.861 9.78241 142.936 9.28733 139.012C9.27358 138.91 9.27083 138.805 9.25708 138.643C9.3836 138.673 9.47986 138.676 9.55687 138.717C13.8117 141 18.3197 142.692 22.8111 144.419C30.9743 147.563 39.1512 150.673 47.3007 153.845C57.986 158.006 68.6493 162.225 79.3319 166.392C82.7644 167.731 86.2244 168.994 89.6816 170.262C90.1547 170.435 90.306 170.674 90.3362 171.158C90.6525 176.238 90.9908 181.318 91.3209 186.396C91.4804 188.863 91.6399 191.327 91.7967 193.794L91.7994 193.802Z" fill="#B4BD57"/>
<path d="M80.6574 94.0174C80.6932 101.727 80.6574 109.436 80.4374 117.143C80.3549 120.011 80.2476 122.88 80.1486 125.749C80.1431 125.955 80.1183 126.161 80.0991 126.42C78.9797 126.717 77.9235 126.673 76.8618 126.505C75.1621 126.236 73.5751 125.699 72.2027 124.616C71.8286 124.319 71.6718 124.022 71.6883 123.513C71.8149 119.428 71.7544 115.344 71.5371 111.262C71.383 108.396 71.2703 105.531 71.1273 102.662C70.9842 99.7547 70.8302 96.8475 70.6789 93.9376C70.5359 91.1569 70.4039 88.3735 70.2389 85.5929C70.0629 82.6032 69.8593 79.6135 69.6695 76.6238C69.6558 76.4175 69.6475 76.2112 69.6338 75.95C69.8098 75.9775 69.9501 75.9747 70.0739 76.0187C71.6498 76.5825 73.2231 77.1546 74.799 77.7185C75.0548 77.8092 75.2254 77.9247 75.2556 78.2355C75.2749 78.4556 75.3711 78.6839 75.4784 78.8819C76.8453 81.3985 77.7942 84.0801 78.6056 86.8113C79.1364 88.5963 79.6343 90.3923 80.1128 92.1911C80.2421 92.6752 80.2806 93.1757 80.6106 93.591C80.6849 93.6873 80.6574 93.8743 80.6574 94.0174Z" fill="#7A8125"/>
<path d="M71.4736 61.0408C71.9137 61.5111 71.9549 62.1575 71.5946 62.6553C71.2591 63.1174 70.6347 63.2989 70.0764 63.0623C69.8288 62.9578 69.6061 62.7901 69.3778 62.6443C68.3601 61.9842 67.3425 61.3213 66.3248 60.6585C66.0525 60.4825 65.7747 60.3449 65.453 60.5595C65.4034 60.5925 65.3347 60.6117 65.2742 60.609C64.4931 60.5952 63.9155 61.0271 63.3104 61.4506C61.0578 63.0348 58.6237 64.3055 56.0933 65.3782C51.6129 67.2732 47.028 68.8712 42.2533 69.8421C40.1437 70.2712 37.9984 70.5489 35.8559 70.7827C34.1946 70.9615 32.5141 71.0275 30.8419 71.0303C28.7516 71.0303 26.7218 70.6205 24.7827 69.8118C24.648 69.7568 24.5105 69.7018 24.3784 69.6413C21.298 68.2441 19.832 65.6395 20.2446 62.2867C20.4839 60.3422 20.9294 58.4582 21.9471 56.6924C21.7353 56.6099 21.551 56.5384 21.364 56.4614C19.8128 55.8315 18.2285 55.2732 16.7241 54.5498C15.5991 54.008 14.554 53.2929 13.5143 52.5861C12.3372 51.7829 11.4543 50.691 10.7337 49.4671C10.0076 48.2404 9.79305 46.9312 10.0846 45.534C10.0956 45.4763 10.0901 45.413 10.0956 45.325C9.53726 45.226 9.01743 45.391 8.49761 45.523C8.25557 45.5835 8.01354 45.6688 7.766 45.6853C7.17191 45.7238 6.66859 45.3773 6.49807 44.8574C6.32204 44.3211 6.49807 43.7325 6.98489 43.4162C7.25993 43.2374 7.58172 43.1054 7.90077 43.0202C9.33648 42.6296 10.7942 42.5581 12.2574 42.8221C12.8955 42.9376 13.5198 43.1164 14.1469 43.2787C14.3285 43.3255 14.5045 43.3997 14.675 43.4767C15.3874 43.7985 15.7119 44.4504 15.4891 45.1022C15.2636 45.7733 14.565 46.0924 13.7866 45.8751C13.5088 45.7981 13.2366 45.6991 12.956 45.6083C12.6315 45.8751 12.5324 46.2051 12.5242 46.5709C12.5077 47.198 12.6865 47.7674 13.0193 48.2954C13.6189 49.2471 14.3587 50.0557 15.2801 50.7103C17.1229 52.0222 19.1527 52.9491 21.2705 53.7055C25.2641 55.1302 29.3732 56.1148 33.5428 56.8519C38.3147 57.6963 43.1307 58.1199 47.9631 58.3922C50.9968 58.5654 54.0333 58.648 57.0725 58.5792C57.7106 58.5654 58.3487 58.5159 59.1188 58.4747C58.9152 58.3234 58.8135 58.2629 58.7282 58.1831C58.3157 57.8118 58.1699 57.3553 58.3377 56.8217C58.4999 56.3101 58.9482 55.9498 59.5286 55.9663C60.1749 55.9828 60.8295 56.0323 61.4621 56.1643C64.3445 56.7639 67.0124 57.8888 69.4383 59.5638C69.9389 59.9104 70.4394 60.2514 70.9345 60.6035C71.1215 60.7355 71.3113 60.8758 71.4653 61.0435L71.4736 61.0408ZM58.7035 61.2443C58.6897 61.2058 58.6787 61.1646 58.6677 61.1261C58.5879 61.1178 58.5054 61.1041 58.4257 61.1068C54.6549 61.2168 50.8896 61.1563 47.1243 60.9308C46.6292 60.9005 46.1094 60.9115 45.628 61.0215C43.0482 61.6101 40.7626 62.7818 38.796 64.5668C38.6255 64.7208 38.4632 64.8886 38.2735 65.0151C37.7289 65.3809 37.0991 65.3232 36.6617 64.8941C36.2107 64.4513 36.1557 63.783 36.5435 63.2301C36.6755 63.0431 36.8323 62.8643 37.0083 62.724C37.8664 62.0557 38.7355 61.4039 39.5992 60.7465C39.7422 60.6392 39.8962 60.543 40.1327 60.378C39.4424 60.2899 38.8621 60.2404 38.29 60.1332C37.5721 59.9984 36.9478 60.0727 36.2822 60.4687C35.2095 61.1068 34.2056 61.8109 33.3557 62.7158C32.5169 63.6124 31.876 64.6411 31.5927 65.854C31.4442 66.4866 31.6367 66.8964 32.2143 67.2045C32.4701 67.342 32.7507 67.4437 33.0285 67.5235C33.8178 67.7518 34.6292 67.826 35.4516 67.826C35.7624 67.826 36.0951 67.8288 36.3757 67.9388C36.7085 68.0681 37.022 68.0708 37.3576 68.0351C39.4589 67.7985 41.5382 67.4327 43.59 66.9019C48.5022 65.6285 53.2769 63.9727 57.8288 61.7092C58.1231 61.5634 58.4092 61.3984 58.698 61.2416L58.7035 61.2443Z" fill="black"/>
<path d="M65.7504 140.964C65.3571 141.291 64.9968 141.638 64.5925 141.924C62.3234 143.522 59.848 144.65 57.1059 145.175C53.3103 145.906 49.6055 145.626 45.997 144.22C45.6669 144.091 45.3424 143.94 45.0316 143.772C44.498 143.483 44.498 143.467 44.6603 142.889C45.1361 141.198 45.6477 139.515 46.0877 137.812C47.2154 133.433 48.2963 129.044 49.4295 124.668C50.7084 119.725 52.0286 114.791 53.3268 109.851C53.4753 109.288 53.6101 108.721 53.7641 108.108C57.7687 119.087 61.7485 129.995 65.7531 140.964H65.7504Z" fill="#F96969"/>
<path d="M59.1546 32.5376C59.7184 34.0145 60.0897 35.5328 60.076 36.6852C60.065 39.6584 59.2921 41.944 57.8179 43.9903C55.117 47.7363 50.2653 48.0086 47.0666 45.668C44.4565 43.7592 42.853 41.1766 42.0691 38.0631C41.8216 37.0867 41.6098 36.0938 41.6978 35.0845C41.8546 33.2692 42.1104 31.4732 42.9602 29.8119C44.3574 27.0835 47.3884 25.4965 50.4413 25.7248C53.8848 25.9806 57.7492 28.8328 59.1601 32.5348L59.1546 32.5376ZM55.8596 42.3098C57.1661 40.3597 57.7684 38.2254 57.4081 35.8711C56.957 32.9199 55.5076 30.6343 52.8892 29.1326C51.9238 28.5797 50.8841 28.302 49.718 28.291C48.1667 28.1892 46.1259 29.2041 45.2266 31.0221C44.4152 32.6696 44.2969 34.4381 44.3409 36.2176C44.3574 36.8337 44.55 37.458 44.7315 38.0549C45.4383 40.368 46.7118 42.2878 48.7223 43.685C50.7384 45.0849 54.0169 45.0574 55.8569 42.3098H55.8596Z" fill="black"/>
<path d="M58.6679 61.1257C58.6817 61.1642 58.6927 61.2027 58.7037 61.244C58.4149 61.4007 58.1289 61.563 57.8346 61.7115C53.2827 63.9751 48.508 65.6309 43.5957 66.9043C41.5467 67.4351 39.4674 67.8009 37.3633 68.0375C37.0278 68.0732 36.7142 68.0705 36.3814 67.9412C36.1009 67.8312 35.7653 67.8284 35.4573 67.8284C34.6349 67.8284 33.8263 67.7569 33.0342 67.5259C32.7536 67.4461 32.4759 67.3444 32.2201 67.2068C31.6425 66.8988 31.45 66.489 31.5985 65.8564C31.8818 64.6435 32.5226 63.6148 33.3615 62.7182C34.2114 61.8133 35.2153 61.1092 36.2879 60.4711C36.9535 60.075 37.5779 60.0035 38.2957 60.1356C38.8678 60.2428 39.4481 60.2923 40.1385 60.3803C39.8992 60.5454 39.7479 60.6389 39.6049 60.7489C38.7385 61.4062 37.8694 62.0581 37.014 62.7264C36.8352 62.8667 36.6785 63.0455 36.5492 63.2325C36.1614 63.7826 36.2164 64.4537 36.6675 64.8965C37.1048 65.3256 37.7346 65.3833 38.2792 65.0175C38.469 64.891 38.6313 64.7232 38.8018 64.5692C40.7656 62.7814 43.0539 61.6125 45.6338 61.0239C46.1151 60.9139 46.6322 60.9029 47.13 60.9332C50.8953 61.1614 54.6606 61.222 58.4314 61.1092C58.5112 61.1092 58.5937 61.1229 58.6734 61.1284L58.6679 61.1257Z" fill="#F96969"/>
<path d="M58.4289 113.343C58.3657 113.194 58.2969 113.049 58.2446 112.895C57.3315 110.243 56.4184 107.592 55.5107 104.935C55.3622 104.5 55.2522 104.052 55.1147 103.612C54.8039 102.636 53.9925 102.352 53.0794 102.817C52.3973 103.164 52.0617 103.672 51.9242 104.412C51.2366 108.101 50.1474 111.69 49.1931 115.312C48.5742 117.661 47.9691 120.013 47.3585 122.361C47.3063 122.559 47.2513 122.76 47.089 122.964C47.0587 122.733 47.0202 122.502 47.001 122.271C46.6682 118.621 46.3299 114.971 46.0136 111.319C45.733 108.084 45.4745 104.847 45.205 101.612C44.9327 98.3559 44.6686 95.0994 44.3771 91.8457C44.0828 88.57 43.761 85.2998 43.4447 82.0268C43.3512 81.0669 43.2302 80.1125 43.1257 79.1554C43.0899 78.8253 43.0707 78.4953 43.0404 78.1074C47.6363 77.0513 52.0837 75.6238 56.4871 73.8718C56.9299 87.1013 57.7056 100.207 58.4317 113.343H58.4289Z" fill="#7A8125"/>
<path d="M57.4079 35.872C57.7682 38.2264 57.1659 40.3607 55.8594 42.3107C54.0194 45.0556 50.7382 45.0859 48.7249 43.6859C46.7143 42.2914 45.4409 40.3689 44.734 38.0558C44.5525 37.459 44.3572 36.8347 44.3435 36.2186C44.2995 34.4363 44.415 32.6678 45.2291 31.023C46.1257 29.205 48.1665 28.1901 49.7205 28.2919C50.8894 28.3029 51.9263 28.5807 52.8917 29.1335C55.5101 30.6352 56.9623 32.9208 57.4107 35.872H57.4079ZM54.6382 35.817C54.5667 35.3742 54.5117 34.7663 54.3687 34.1805C54.0359 32.8136 53.4638 31.5676 52.3802 30.6187C50.9665 29.3811 48.6314 28.8282 46.8766 30.9295C46.5988 31.2596 46.3705 31.6556 46.2083 32.0572C45.5564 33.6799 45.4491 35.3549 45.9002 37.0464C46.343 38.7022 47.2342 40.0691 48.7111 40.9905C50.1111 41.8624 51.6073 41.6726 52.7845 40.5229C54.0607 39.277 54.5282 37.7065 54.6382 35.8198V35.817Z" fill="#F5DEBB"/>
<path d="M54.3664 34.1802C54.5094 34.766 54.5644 35.3739 54.6359 35.8167C54.5259 37.7035 54.0583 39.274 52.7821 40.5199C51.605 41.6696 50.1087 41.8593 48.7088 40.9875C47.2318 40.0688 46.3407 38.6991 45.8979 37.0434C45.4468 35.3546 45.5541 33.6769 46.2059 32.0542C46.3682 31.6526 46.5965 31.2593 46.8743 30.9265C48.629 28.8252 50.9614 29.378 52.3778 30.6157C53.4615 31.5646 54.0336 32.8105 54.3664 34.1775V34.1802Z" fill="black"/>
<path d="M48.4198 16.482C47.0336 16.8258 45.6859 17.3648 44.4372 18.1239C43.1692 18.8968 42.1818 19.9695 41.2495 21.2264C40.2401 19.3891 39.1646 17.6756 37.6024 16.3362C39.591 12.6589 41.5657 9.01186 43.546 5.35107C44.3217 7.22685 45.0643 9.10812 45.8756 10.9591C46.6815 12.7964 47.5534 14.6034 48.4225 16.482H48.4198Z" fill="#B4BD57"/>
<path d="M43.5162 47.9218C44.0443 49.9681 43.5079 51.7311 42.0667 53.2356C40.8703 54.4843 39.3548 55.0838 37.6771 55.3424C36.0846 55.5872 34.5031 55.4634 32.9244 55.2104C30.0997 54.7593 27.4456 53.8434 25.0445 52.2647C24.1369 51.6678 23.3337 50.9527 22.5746 50.1551C21.5845 49.1182 20.9794 47.9548 20.7924 46.5741C20.4596 44.0795 21.3425 42.0744 23.4245 40.6745C24.1066 40.2152 24.9317 39.9621 25.6963 39.6293C25.8999 39.5386 26.1227 39.4946 26.3812 39.4148C26.2959 39.2305 26.2354 39.0792 26.1612 38.9362C24.6484 35.9795 24.1974 32.8221 24.4092 29.5436C24.4889 28.3032 24.7695 27.1012 25.2205 25.9406C25.6441 24.8487 26.2877 23.908 27.11 23.0774C29.3104 20.8606 32.3276 21.3144 33.9861 22.4118C35.1412 23.1764 36.0544 24.1638 36.8025 25.3272C38.5022 27.9621 39.0991 30.8693 38.989 33.9552C38.9395 35.3827 38.7498 36.7909 38.428 38.1826C38.1997 39.17 37.8174 40.0886 37.2315 40.9605C37.4846 41.1118 37.6936 41.2438 37.9109 41.3621C39.6024 42.3027 41.0326 43.5404 42.1768 45.1026C42.8011 45.9553 43.2549 46.8931 43.5189 47.9218H43.5162ZM40.5898 51.005C41.0408 50.3889 41.2334 49.7068 41.0986 48.9339C40.9721 48.2188 40.708 47.5697 40.323 46.9619C39.6161 45.848 38.6865 44.9459 37.6083 44.2032C35.496 42.7483 33.1499 41.9067 30.6031 41.6619C28.8483 41.4941 27.1375 41.7389 25.5038 42.432C23.1385 43.4331 22.3904 46.3046 24.5247 48.5819C25.5396 49.6656 26.824 50.4522 28.1827 51.093C30.4683 52.1684 32.8721 52.7405 35.3833 52.8945C36.4834 52.9605 37.5561 52.823 38.5985 52.471C39.4153 52.1959 40.0809 51.6981 40.5898 51.005ZM35.8783 37.7206C36.3652 35.886 36.5054 34.0075 36.3899 32.1152C36.2606 30.0194 35.6005 28.0996 34.4041 26.3696C33.887 25.6215 33.2599 24.9779 32.4733 24.5104C31.2439 23.7843 29.8604 23.9713 28.8511 24.9752C28.1029 25.7205 27.6574 26.6282 27.3576 27.6266C26.857 29.2851 26.8625 30.9793 27.0165 32.6736C27.1761 34.4146 27.5914 36.0978 28.4027 37.6655C28.62 38.0864 28.8098 38.5237 29.0408 39.0077C29.0738 39.0105 29.1728 39.0325 29.2746 39.0325C30.9166 39.0407 32.5283 39.2663 34.1043 39.7366C34.6462 39.8989 34.8634 39.8659 35.155 39.3763C35.4603 38.8592 35.7271 38.2981 35.8811 37.7233L35.8783 37.7206Z" fill="black"/>
<path d="M41.0982 48.9338C41.233 49.7094 41.0404 50.3887 40.5894 51.0048C40.0805 51.6979 39.4177 52.1957 38.5981 52.4708C37.5557 52.8228 36.4803 52.9603 35.3829 52.8943C32.869 52.7403 30.4651 52.1682 28.1823 51.0928C26.8236 50.452 25.5392 49.6626 24.5243 48.5817C22.39 46.3044 23.1381 43.4329 25.5034 42.4318C27.1371 41.7415 28.8479 41.4939 30.6027 41.6617C33.1495 41.9065 35.4956 42.7481 37.6079 44.2031C38.6861 44.9457 39.6157 45.8478 40.3226 46.9617C40.7076 47.5668 40.9744 48.2186 41.0982 48.9338Z" fill="#F96969"/>
<path d="M39.1234 162.712C39.4617 163.818 39.6542 165.075 39.6185 166.706C39.646 168.947 38.6998 171.318 37.0716 173.442C36.3235 174.418 35.4021 175.221 34.3129 175.782C31.3645 177.3 28.2483 177.834 25.0028 177.028C22.4312 176.387 20.2804 175.023 18.6686 172.878C17.1917 170.911 16.8286 168.642 16.9689 166.271C17.1339 163.521 17.9315 160.968 19.6203 158.743C20.2419 157.346 21.5593 156.826 22.8272 156.309C27.1646 154.538 31.2957 155.193 35.1821 157.599C37.1018 158.787 38.4468 160.517 39.1206 162.718L39.1234 162.712Z" fill="#F96969"/>
<path d="M37.7926 134.803C37.9686 135.793 37.9934 135.785 37.1353 136.357C35.7848 137.251 34.2969 137.771 32.6989 137.999C30.306 138.343 27.9324 138.304 25.6166 137.54C24.8685 137.292 24.1671 136.902 23.4465 136.572C23.1467 136.434 23.0532 136.195 23.045 135.862C22.8827 130.147 22.7314 124.429 22.5334 118.713C22.3794 114.337 22.1758 109.964 21.9778 105.591C21.8128 101.95 21.656 98.3081 21.4387 94.6693C21.1472 89.7984 20.8034 84.9301 20.4733 80.0619C20.4018 78.9975 20.3055 77.9386 20.212 76.7834C21.986 77.5948 23.6995 78.3979 25.5506 78.7472C27.3741 79.091 29.2224 79.2946 31.1146 79.5669C31.1971 80.5955 31.2769 81.6792 31.3732 82.7601C31.6015 85.3042 31.827 87.8511 32.069 90.3924C32.3826 93.6654 32.7016 96.9384 33.0399 100.209C33.326 102.959 33.6285 105.707 33.9503 108.452C34.2528 111.051 34.5554 113.653 34.9157 116.243C35.4493 120.1 36.0159 123.953 36.6072 127.803C36.9647 130.141 37.3828 132.471 37.7954 134.798L37.7926 134.803Z" fill="#7A8125"/>
<path d="M36.3894 32.1139C36.5049 34.0062 36.3647 35.8847 35.8779 37.7192C35.7238 38.2968 35.457 38.8579 35.1517 39.3722C34.863 39.8645 34.6429 39.8948 34.1011 39.7325C32.5251 39.2622 30.9134 39.0366 29.2714 39.0284C29.1696 39.0284 29.0706 39.0091 29.0376 39.0036C28.8093 38.5196 28.6195 38.0823 28.3995 37.6614C27.5854 36.0937 27.1701 34.4132 27.0133 32.6695C26.8593 30.9752 26.8538 29.281 27.3544 27.6225C27.6569 26.6241 28.0997 25.7137 28.8478 24.9711C29.8572 23.9644 31.2407 23.7802 32.4701 24.5063C33.2595 24.9711 33.8838 25.6147 34.4009 26.3655C35.5973 28.0955 36.2574 30.0153 36.3867 32.1111L36.3894 32.1139ZM34.5219 34.537C35.0445 33.1535 35.0857 31.7178 34.8437 30.2684C34.6732 29.2452 34.3624 28.2771 33.771 27.4134C33.3722 26.8304 32.8689 26.3655 32.2253 26.0712C31.2352 25.6202 30.3138 25.7054 29.4942 26.4673C29.3869 26.5663 29.2824 26.6736 29.1559 26.7423C28.6635 27.0119 28.4023 27.4547 28.2262 27.9608C27.9374 28.7776 27.8302 29.6275 27.8247 30.5681C27.8522 32.1579 28.1685 33.7366 29.1724 35.1173C29.5602 35.6481 30.0167 36.1047 30.6026 36.4128C31.7165 36.9986 32.9129 36.8253 33.7435 35.8792C34.0791 35.4969 34.3459 35.0183 34.5247 34.5397L34.5219 34.537Z" fill="#F5DEBB"/>
<path d="M34.844 30.269C35.0861 31.7184 35.0448 33.1541 34.5222 34.5376C34.3435 35.0161 34.0767 35.4947 33.7411 35.877C32.9133 36.8232 31.7168 36.9964 30.6002 36.4106C30.0143 36.1026 29.5578 35.646 29.17 35.1152C28.1661 33.7345 27.8498 32.1557 27.8223 30.566C27.8278 29.6254 27.935 28.7782 28.2238 27.9586C28.3999 27.4525 28.6611 27.0097 29.1535 26.7402C29.28 26.6714 29.3845 26.5642 29.4918 26.4651C30.3114 25.7033 31.2328 25.6208 32.2229 26.0691C32.8665 26.3634 33.3698 26.8282 33.7686 27.4113C34.36 28.2749 34.6708 29.2431 34.8413 30.2662L34.844 30.269Z" fill="black"/>
</svg>
