<svg width="421" height="110" viewBox="0 0 421 110" fill="none" xmlns="http://www.w3.org/2000/svg">
<path d="M41.0337 93.5216C41.1846 93.0607 43.0465 87.7625 43.1925 87.2877C41.3985 86.08 39.4963 85.0988 37.5802 84.1225C35.5813 88.2798 31.8765 97.2883 29.8587 101.437C28.9106 103.372 28.9007 103.876 30.1 105.045C30.5569 105.493 31.1237 105.808 31.7126 106.052C32.8151 106.504 34.0217 106.496 35.2767 106.315C37.1706 106.031 37.3765 105.77 38.0204 103.552C38.9997 100.196 40.0257 96.8402 41.0427 93.5028L41.0288 93.5077L41.0337 93.5216Z" fill="#F5DDB8"/>
<path d="M39.3374 102.398C40.1642 99.1444 43.3679 90.6277 44.4899 87.4094C44.2627 87.2556 44.1159 87.1514 43.8887 86.9976C43.8271 86.9569 43.4752 86.6283 43.3949 86.5787C43.2259 87.0773 40.958 92.9588 40.826 93.4286C39.8139 96.7799 38.9953 100.234 38.03 103.585C37.3861 105.803 37.1942 106.059 35.2863 106.348C34.0313 106.529 32.8198 106.523 31.7223 106.085C31.1382 105.855 30.5665 105.526 30.1096 105.078C28.9104 103.909 28.939 103.414 29.8684 101.47C31.8861 97.3213 35.5311 89.9623 37.53 85.8051C37.2232 85.6483 36.7515 85.4251 36.4259 85.2595C34.1916 89.8607 30.4662 97.7024 28.2459 102.299C27.9662 102.884 27.8711 103.059 27.9039 103.861C27.9252 104.276 28.2542 104.629 28.4469 104.951C30.3394 108.034 33.3333 108.062 36.6529 107.191C37.6724 106.922 38.295 106.152 38.6214 105.033C38.8773 104.159 39.1004 103.281 39.3235 102.403L39.3374 102.398Z" fill="black"/>
<path d="M72.7355 0.147643C72.4722 0.0693201 72.0941 0.376391 71.7603 0.542414C71.6487 0.582197 71.5913 0.774892 71.5232 0.893109C70.2371 3.027 68.814 5.08449 67.6928 7.28483C65.6217 11.3269 63.7205 15.4493 61.7577 19.5311C61.469 20.1351 61.1704 20.7112 60.8948 21.2635C56.2801 21.6254 52.2969 23.3277 48.7444 26.1133C46.9268 27.5443 45.4085 29.2443 44.138 31.2004C42.2753 34.0566 42.0883 36.9884 43.6428 40.0037L43.6846 39.9888C43.9849 40.5706 44.3688 41.1226 44.7108 41.6895C44.87 41.9615 45.0242 42.2196 45.2169 42.5423C41.516 43.7995 39.2316 46.352 37.8282 49.7959C36.4076 53.3242 36.5931 56.6868 38.9358 59.8438C38.2304 60.1579 37.6546 60.3946 37.0886 60.6591C32.7586 62.579 29.5768 65.702 27.6321 70.0122C25.849 73.9359 26.6726 78.2139 29.7462 81.1728C31.2687 82.6339 32.9551 83.8486 34.8975 84.7216C35.6661 85.0737 36.4077 85.4825 37.2665 85.9121C37.2665 85.9121 37.2575 85.931 37.2484 85.9498C37.6602 85.9596 38.0638 86.0348 38.4362 86.1995C38.5395 86.2253 38.6568 86.2461 38.7651 86.2857C40.4319 86.6464 42.2209 87.0417 44.2117 87.4747C44.2117 87.4747 44.2117 87.4747 44.2026 87.4935C44.2026 87.4935 44.2026 87.4935 44.2166 87.4886C44.4832 87.4874 44.7645 87.528 45.0229 87.5924C45.2895 87.5913 45.538 87.6279 45.7964 87.6923C46.6347 87.7535 47.4968 87.8375 48.3441 87.8797C50.9936 87.9995 53.6225 87.7509 56.0193 86.536C60.5815 84.2515 64.4513 79.3018 61.5638 72.5659C60.8855 70.9604 59.8543 69.512 58.9299 68.0098C58.386 67.1391 57.7405 66.336 57.0596 65.389C57.6412 65.2129 58.0415 65.1014 58.4368 64.9761C60.1635 64.4856 61.7498 63.732 63.1713 62.6458C65.0915 61.1938 66.2414 59.2964 66.6581 56.9246C67.0952 54.3889 66.5308 52.0852 65.3045 49.9079C64.7056 48.8376 63.9772 47.8449 63.2373 46.731C63.768 46.5887 64.2758 46.4702 64.7786 46.3379C67.6421 45.5985 70.2628 44.3508 72.5644 42.5123C78.8696 37.477 78.5478 28.4953 71.8872 23.9661C70.7511 23.1971 69.515 22.5889 68.1968 21.8378C68.5675 20.5783 69.0162 19.2284 69.3614 17.8528C70.6245 12.815 71.8687 7.76832 73.0801 2.71766C73.2154 2.1684 73.3032 1.57347 73.2654 1.0233C73.2458 0.701539 72.9849 0.230935 72.7216 0.152615L72.7355 0.147643ZM59.7289 71.4198C60.0652 71.9261 60.2629 72.5289 60.4975 73.1028C62.755 78.5916 60.15 82.8554 55.8002 85.2521C53.5486 86.4777 51.0797 86.7789 48.5697 86.6094C45.1418 86.3758 41.8148 85.7618 38.5034 84.7038C35.954 83.8908 33.6893 82.7727 31.6025 81.1371C27.2017 77.7121 27.2467 73.0931 29.3825 69.2784C31.7226 65.109 35.2611 62.3284 39.8767 60.9486C44.4284 64.7112 49.6904 66.0442 55.6734 65.5545C56.9883 67.4497 58.3746 69.4134 59.7289 71.4198ZM65.3415 53.3391C66.1036 56.5117 64.9774 59.7628 62.3362 61.7067C59.4785 63.8374 56.1688 64.4698 52.7204 64.4001C48.9398 64.3235 45.3594 63.3928 42.2284 61.1589C38.264 58.3455 37.1689 54.3209 39.139 49.8608C40.3898 47.0506 42.3116 44.8935 45.3195 43.8522C45.5844 43.7577 45.8297 43.6076 46.2193 43.4217C50.3953 46.5668 55.1832 47.2704 60.1983 47.0632C61.2498 47.017 62.0849 47.4238 62.6779 48.1673C63.8887 49.7239 64.8583 51.3978 65.3275 53.3441L65.3415 53.3391ZM73.2 40.0938C70.1766 43.4421 66.2124 45.1534 61.6763 45.4715C61.2186 45.5095 60.7642 45.7341 60.3016 45.7582C56.133 45.961 52.0982 45.5211 48.4299 43.3222C46.1561 41.9569 44.7592 39.9187 44.0783 37.3747C43.7329 36.0888 43.8371 34.8304 44.344 33.6007C45.0305 31.9468 46.0434 30.5052 47.2459 29.1997L47.2558 29.2275C50.4137 25.8155 54.2959 23.6951 58.8253 22.7374C59.2355 22.6538 59.6563 22.6446 60.3707 22.5777C59.8728 23.7886 59.4734 24.7452 59.1814 25.4286C58.17 25.6327 57.4146 25.7612 56.6747 25.9781C56.5492 26.0228 56.5673 26.5174 56.5041 26.9157C59.2667 26.5567 60.5546 28.2424 61.6177 30.1804C61.9319 30.7573 62.0886 31.4216 62.3658 32.0272C62.5463 32.4482 62.6972 33.052 63.3296 32.8421C63.985 32.6084 63.7234 32.0911 63.5609 31.6324C63.3985 31.1736 63.3706 31.1836 63.3247 30.9651C63.2254 30.3742 63.7922 29.8903 64.2753 30.2347C64.7724 30.5741 65.0341 30.559 65.5049 30.2032C65.7912 29.9916 66.3022 30.0598 66.709 30.0557C67.1487 30.0554 67.6696 30.1515 67.7819 29.6261C67.9246 28.9646 67.3808 28.8924 66.8788 28.8052C66.6442 28.7636 66.4277 28.6843 66.0282 28.5763C66.6187 26.7844 67.1822 25.0491 67.7317 23.3188C74.9615 25.3748 78.7875 33.8739 73.1861 40.0987L73.2 40.0938ZM70.6187 8.49593C69.0997 14.9401 67.0968 21.2594 65.0701 27.5558C64.8437 28.2471 64.5484 28.7439 63.7692 28.8495C63.4099 28.8994 63.072 29.0982 62.7652 29.2076C61.9154 28.2268 61.1041 27.3106 60.1879 26.2752C63.6082 18.6363 66.743 10.7235 71.3551 3.56767C71.4634 3.60734 71.5717 3.64701 71.6799 3.68668C71.3199 5.28678 70.9836 6.90972 70.6187 8.49593Z" fill="black"/>
<path d="M60.5012 73.0628C62.7587 78.5516 60.1537 82.8154 55.8039 85.2121C53.5523 86.4378 51.0834 86.7389 48.5734 86.5694C45.1455 86.3358 41.8185 85.7218 38.5071 84.6638C35.9577 83.8508 33.693 82.7327 31.6062 81.0971C27.2054 77.6721 27.2504 73.0531 29.3862 69.2384C31.7263 65.069 35.2649 62.2885 39.8804 60.9086C44.4321 64.6712 49.6941 66.0042 55.6771 65.5145C56.992 67.4097 58.3783 69.3734 59.7326 71.3798C60.0689 71.8861 60.2666 72.4889 60.5012 73.0628Z" fill="#B5BE56"/>
<path d="M67.7761 23.3203C75.0108 25.3903 78.8507 33.8845 73.2304 40.1003C70.207 43.4487 66.2428 45.1599 61.7067 45.4781C61.249 45.516 60.7946 45.7407 60.332 45.7648C56.1634 45.9675 52.1146 45.5326 48.4603 43.3288C46.1865 41.9634 44.7896 39.9253 44.1087 37.3812C43.7633 36.0953 43.8675 34.837 44.3744 33.6072C45.0609 31.9533 46.0738 30.5118 47.2763 29.2062C50.4342 25.7942 54.3165 23.6739 58.8459 22.7162C59.256 22.6325 59.6768 22.6234 60.3913 22.5565C59.8934 23.7673 59.494 24.7239 59.202 25.4073C58.1906 25.6114 57.4351 25.7399 56.7002 25.9707C56.5747 26.0155 56.5928 26.51 56.5296 26.9083C59.3062 26.5444 60.5801 28.235 61.6432 30.1731C61.9623 30.7638 62.128 31.4093 62.3913 32.0199C62.5718 32.4409 62.7227 33.0446 63.3551 32.8348C64.0105 32.601 63.7488 32.0837 63.5864 31.625C63.424 31.1663 63.3961 31.1762 63.3502 30.9578C63.2509 30.3669 63.8177 29.883 64.3008 30.2273C64.7979 30.5667 65.0596 30.5517 65.5304 30.1959C65.8166 29.9842 66.3277 30.0525 66.7345 30.0483C67.1742 30.0481 67.6951 30.1441 67.8074 29.6187C67.9501 28.9572 67.4063 28.885 66.9043 28.7979C66.6697 28.7563 66.4531 28.6769 66.0397 28.5739C66.6303 26.782 67.1937 25.0467 67.7433 23.3164L67.7761 23.3203Z" fill="#ED6A6C"/>
<path d="M65.3388 53.3132C66.1009 56.4858 64.9747 59.7369 62.3475 61.6758C59.4898 63.8065 56.18 64.4389 52.7317 64.3692C48.9511 64.2926 45.3706 63.3619 42.2536 61.1231C38.2843 58.2957 37.1752 54.2761 39.1642 49.8249C40.415 47.0147 42.3368 44.8577 45.3496 43.8302C45.6146 43.7357 45.8598 43.5856 46.2494 43.3997C50.4205 46.5309 55.2133 47.2484 60.2284 47.0413C61.28 46.995 62.115 47.4018 62.7081 48.1453C63.9139 49.688 64.8835 51.3619 65.3527 53.3082L65.3388 53.3132Z" fill="#F5DDB8"/>
<path d="M65.0796 27.5362C64.8533 28.2275 64.558 28.7243 63.7787 28.8299C63.4195 28.8798 63.0815 29.0786 62.7608 29.1929C61.9159 28.2261 61.0997 27.2959 60.1835 26.2606C63.6038 18.6217 66.7386 10.7089 71.3647 3.54807C71.4729 3.58774 71.5812 3.62741 71.6895 3.66708C71.3294 5.26719 70.9932 6.89012 70.6282 8.47633C69.1092 14.9205 67.1014 21.2259 65.0796 27.5362Z" fill="#F5DDB8"/>
<path d="M277.891 71.6351C275.371 74.6836 272.569 73.0359 273.891 69.3148C276.662 61.4654 279.121 55.4549 281.702 48.0189C287.06 32.283 284.913 20.9407 272.881 20.9407C266.771 20.9407 259.62 25.5813 252.243 34.0972C250.543 36.0657 248.463 35.2759 248.683 32.7334C248.842 30.8266 248.744 29.3332 248.212 27.2968C247.233 23.4832 244.022 20.9407 239.202 20.9407C233.47 20.9407 227.61 24.3409 219.732 37.0901C216.043 43.0328 223.543 47.772 227.421 41.6998C229.5 38.4601 232.461 39.793 231.452 43.6684C227.574 58.4478 223.891 70.8452 219.291 86.069C217.75 91.123 220.552 93.9493 226.222 93.1285L227.103 92.999C231.232 92.3942 232.106 88.6052 232.853 85.9456C233.513 83.3414 233.984 81.3359 235.152 77.7444C242.591 53.8072 258.861 34.1651 267.119 34.1651C270.838 34.1651 271.077 38.2318 267.199 49.9627C264.807 57.2074 261.718 65.1248 259.167 72.6286C255.956 82.2924 254.518 93.3816 264.257 93.3816C269.174 93.3816 276.986 90.111 285.017 76.9792C288.296 71.4808 281.549 67.2229 277.897 71.6413L277.891 71.6351Z" fill="currentColor"/>
<path d="M209.137 71.3515C205.736 75.5169 201.185 73.3694 202.164 69.9013C204.935 60.1759 209.804 48.303 216.007 28.9139C217.108 25.5137 215.945 22.9404 212.288 21.9839C192.408 17.0595 160.3 33.9062 151.761 63.6872C147.192 79.8674 151.29 93.3756 161.75 93.3756C169.659 93.3756 176.871 87.8773 183.3 80.2809C184.878 78.4358 187.172 78.7566 186.988 81.6138C186.927 82.885 186.896 83.6811 186.958 84.4092C187.496 90.2284 191.466 93.3695 196.188 93.3695C202.488 93.3695 208.789 89.5558 216.196 76.8066C219.218 71.5922 212.477 67.2725 209.137 71.3392V71.3515ZM199.442 40.2376C198.433 43.7673 197.014 47.1922 195.001 51.228C186.872 67.9143 174.669 80.1204 168.937 80.0896C164.399 80.0587 163.255 72.8942 166.943 60.1204C172.675 40.2561 185.129 32.0302 194.769 32.0302C199.087 32.0302 201.179 34.7392 199.442 40.2376Z" fill="currentColor"/>
<path d="M399.237 20.5276C382.807 20.5276 366.885 34.0173 361.08 54.2148C355.593 73.4312 360.86 93.4436 380.758 93.4436C396.778 93.4436 412.86 80.3673 418.915 59.4663C424.531 40.1574 419.074 20.5276 399.237 20.5276ZM403.176 57.7508C398.289 75.0233 391.004 84.8845 382.838 84.8845C373.913 84.8845 371.705 73.3695 376.941 55.3009C381.798 38.4727 388.955 29.0867 397.121 29.0867C405.825 29.0867 408.223 39.4909 403.176 57.7508Z" fill="currentColor"/>
<path d="M117.764 22.1874C108.888 22.2306 100.936 22.2306 95.8225 22.1874C90.8617 22.2121 88.3599 27.661 91.7242 30.586C95.8837 33.0421 96.1773 33.7147 94.226 41.2433C91.4795 51.629 88.8921 61.1693 86.1212 71.2403C83.7539 79.7932 82.6896 80.9534 77.3068 82.9466C72.5234 85.2237 73.4776 91.9685 78.6586 91.9932C84.6164 91.8821 92.3848 91.7896 102.325 91.9068C124.816 92.2215 141.668 79.534 147.18 59.608C153.401 37.1828 141.846 22.1257 117.758 22.1936L117.764 22.1874ZM132.53 56.4917C128.786 70.4936 120.131 81.3977 107.934 82.1567C100.361 82.5331 97.9023 80.2807 100.049 71.9067C102.686 61.99 104.655 54.3072 109.347 36.8619C110.564 32.3941 111.714 31.3451 117.807 31.524C130.205 31.9066 137.179 39.1822 132.53 56.4979V56.4917Z" fill="currentColor"/>
<path d="M350.095 23.9525C344.382 21.8296 338.008 20.8917 332.607 20.8917C309.008 20.8917 295.3 38.8491 291.091 54.6159C285.293 76.4364 296.071 93.1659 316.262 93.1659C323.921 93.1659 331.714 90.8641 337.696 87.6737C340.265 86.3099 342.167 84.5265 343.097 81.3053L345.22 73.9125C346.639 69.0004 347.501 67.5441 351.508 65.8964C355.869 63.5947 354.474 56.9177 349.318 56.7634C342.987 56.7202 337.072 56.7202 330.496 56.7634C325.003 56.9177 323.658 63.1071 327.64 65.6311C332.221 67.5996 332.441 68.3586 331.536 72.2216C330.582 75.9489 330.294 76.8005 329.989 77.7817C329.524 79.6823 328.594 80.6635 326.557 81.8237C324.367 83.027 321.908 83.6564 318.587 83.6564C306.61 83.6564 301.362 73.9433 306.451 55.7822C310.678 40.793 318.758 30.5862 330.649 30.5862C338.045 30.5862 343.024 34.3814 343.225 42.2C343.403 49.0806 352.413 48.2105 353.367 42.0889C353.832 38.5159 354.297 35.233 354.786 31.5489C355.294 27.9512 353.991 25.3841 350.095 23.9525Z" fill="currentColor"/>
</svg>
