<svg width="24" height="28" viewBox="0 0 24 28" fill="none" xmlns="http://www.w3.org/2000/svg">
  <path fillRule="evenodd" clipRule="evenodd"
    d="M16.7613 7.88439C16.7613 11.0107 15.0033 12.7688 11.877 12.7688C8.75061 12.7688 6.99256 11.0107 6.99256 7.88439C6.99256 4.75805 8.75061 3 11.877 3C15.0033 3 16.7613 4.75805 16.7613 7.88439ZM11.877 24.5609C15.7289 24.5609 21.2539 24.5609 21.2539 21.9488C21.2539 20 19.3624 18.2344 17.6774 17.0071C15.9924 15.7797 13.9615 15.1185 11.877 15.1185C9.79236 15.1185 7.76149 15.7797 6.07652 17.0071C4.39154 18.2344 2.5 20 2.5 21.9488C2.5 24.5609 8.025 24.5609 11.877 24.5609Z"
    fill="#D4882C" />
</svg>
