<?xml version="1.0" encoding="UTF-8"?>
<svg id="Livello_1" data-name="Livello 1" xmlns="http://www.w3.org/2000/svg" viewBox="0 0 771.11 778.51">
  <defs>
    <style>
      .cls-1, .cls-2, .cls-3, .cls-4, .cls-5, .cls-6, .cls-7, .cls-8 {
        stroke-width: 0px;
      }

      .cls-2 {
        fill: #f7bfc2;
      }

      .cls-3 {
        fill: #c19c65;
      }

      .cls-4 {
        fill: #b5bc4f;
      }

      .cls-5 {
        fill: #7c812c;
      }

      .cls-6 {
        fill: #eabf7d;
      }

      .cls-7 {
        fill: #ed6a6b;
      }

      .cls-8 {
        fill: #f5ddb9;
      }
    </style>
  </defs>
  <path class="cls-1" d="M770.86,357.5v1.16c-1.54,1.44-2.97,2.99-4.63,4.29-10.27,8.03-20.29,16.33-29.99,24.97-10.32,9.18-19.92,18.98-28.45,29.71-8.85,11.13-15.58,23.38-21.1,36.27-3.14,7.34-6.19,14.73-8.31,22.41-.67,2.42-1.11,4.91-1.63,7.37-.21,1.01-.37,1.97-1.1,2.85-.6.73-.82,1.76-1.24,2.63-6.63,13.63-11.06,27.97-14.95,42.47-6.19,23.03-12.31,46.08-18.2,69.19-4.76,18.66-8.99,37.44-12.25,56.4-1.85,10.75-3.4,21.54-5.05,32.32-.48,3.12-.84,6.27-1.27,9.4-.23,1.7-.92,2.31-2.89,2.7-15.57,3.06-31.19,5.94-46.71,9.23-17.7,3.75-35.35,7.74-52.96,11.86-19,4.45-37.77,9.67-56.4,15.37-.81.25-1.53.75-2.3,1.12-.29.15-.62.42-.89.38-2.07-.3-3.84.7-5.66,1.28-31.32,9.89-61.87,21.68-92.01,34.44-1.21.51-2.5.92-3.42,1.98-.43.49-1.27.66-1.92.97h-.41c-2.91-3.05-5.92-6.02-8.71-9.17-14.95-16.78-29.46-33.9-43.77-51.18-12.75-15.4-25.77-30.6-39.28-45.42-.66-.72-1.29-1.47-2.13-2.44-2.97,3.36-5.92,6.56-8.69,9.88-6.33,7.61-11.56,15.91-16.62,24.3-1.52,2.51-3.01,5.05-4.5,7.58-1.01,1.71-2.5,1.86-3.9.42-.09-.1-.16-.2-.24-.31-5.1-6.82-11.44-12.57-17.61-18.46-23.37-22.29-47.57-43.77-71.67-65.33-29.69-26.55-59.47-53.02-89.17-79.55-6.18-5.52-12.19-11.21-18.31-16.78-.76-.69-1.7-1.23-2.59-1.76-1.11-.66-1.3-1.77-.24-2.52.81-.57,1.75-.98,2.67-1.38,14.62-6.26,28.62-13.58,41.68-22.44,4.68-3.18,9.05-6.78,13.54-10.21.68-.52,1.23-1.2,1.89-1.76.76-.64.9-1.36.54-2.25-.99-2.4-1.91-4.81-2.92-7.2-1.43-3.41-3.09-6.74-4.33-10.21-1.61-4.48-2.19-9.14-1.99-13.91.35-8.43,4.83-14.27,12.34-18.29,5.07-2.71,10.6-3.42,16.31-3.15,2.09.1,4.16.37,6.63.61-.63-.93-1.11-1.66-1.6-2.38-5.91-8.67-10.37-17.94-13.01-27.99-1.77-6.74-2.62-13.55-1.92-20.51.94-9.19,5.8-15.79,14.42-19.89,5.37-2.55,11.12-4.02,17.07-4.79,9.29-1.2,18.61-1.76,27.99-1.48.2,0,.4-.05.92-.11-1.65-2.01-3.48-3.8-3.49-6.56-.69-.14-1.33-.28-1.97-.39-4.23-.7-8.34-1.8-12.15-3.67-2.13-1.05-4.06-2.48-6.16-3.79-.15.25-.36.63-.6,1.01-1.58,2.55-3.95,3.58-6.88,2.64-1.77-.56-3.51-1.39-5.06-2.38-4.2-2.68-7.08-6.52-9.72-10.53-.35-.53-.71-1.07-1.16-1.76-.45.66-.78,1.19-1.17,1.69-1.34,1.7-3.23,2.03-4.95.69-1.09-.84-2.04-1.89-2.89-2.96-3.48-4.39-5.55-9.44-7.33-14.6-.82-2.38-1.37-4.85-2.05-7.28-.14-.49-.28-.97-.47-1.64-.47.52-.79.92-1.16,1.28-1.5,1.46-3.2,1.41-4.49-.23-.6-.76-1.07-1.64-1.46-2.53-1.32-3.01-1.83-6.19-2.19-9.4-.96-8.53-.31-17.01,1.04-25.45.65-4.07,1.55-8.11,2.36-12.33-.4.04-.84.03-1.25.13-4.65,1.14-9.27,2.43-13.96,3.41-4.1.85-8.31,1.4-12.52,1.03-14.16-1.26-24.7-7.59-30.49-20.24-2.81-6.14-3.6-12.64-3.15-19.31.54-8.07,2.55-15.78,5.91-23.19.14-.29.25-.6.35-.9.03-.11-.02-.25-.05-.49-1.01-.18-2.08-.27-3.09-.57-1.41-.42-2.85-.85-4.14-1.53-2.36-1.24-3.56-3.28-3.76-5.84-.24-2.92.59-5.62,1.94-8.2,2.36-4.49,5.98-7.94,10.11-10.95,7.52-5.47,16.05-8.18,25.49-8.34.4,0,.8,0,1.36,0-.08-.51-.14-.93-.21-1.34-.5-2.46.39-4.29,2.74-5.45,1.9-.94,3.98-1.21,6.1-1.31,7-.29,13.73,1.06,20.37,3.01,12.97,3.81,24.42,10.12,34.37,18.9,1.33,1.18,2.63,2.37,4.03,3.64.24-.29.51-.56.72-.87,3.37-5.2,7.65-9.69,12.04-14.09,16.43-16.48,34.85-30.6,55.37-42.21,7.75-4.39,15.77-8.29,24.3-11.16,4.93-1.66,9.94-3.06,15.16-3.49,2.47-.2,4.99.07,7.48.2.66.03,1.32.29,1.93.57,2.06.95,2.88,2.69,1.86,4.65-.92,1.77-2.22,3.37-3.41,5.01-.57.77-1.28,1.46-2.23,2.53,9.14-.93,17.81-2.22,26.56-1.89.18-.37.33-.6.39-.84,2.93-11.65,9.02-21.77,16.71-31.09,5.74-6.96,12.34-13.02,20.43-17.5,4.95-2.75,10.11-5.01,15.85-5.72,1.91-.24,3.89.03,5.84.13.52.03,1.05.28,1.53.5,3.25,1.5,3.77,3.71,1.47,6.35-1.08,1.24-2.22,2.44-3.32,3.66-.03.03,0,.11.03.41,1.15-.06,2.33-.11,3.5-.18,4.44-.24,8.82.13,13.05,1.45,8.02,2.5,13.84,7.41,17.53,14.62,3.29,6.41,5.02,13.19,5.13,20.33.02.95-.12,1.95-.45,2.84-.61,1.66-2.24,2.36-3.94,1.64-1.15-.49-2.18-1.27-3.21-1.99-.71-.5-1.32-1.11-1.97-1.68-.63-.55-1.24-1.13-2.1-1.54.45,1.27.9,2.53,1.33,3.8,2.76,8.11,4.22,16.4,3.8,24.94-.39,7.95-2.47,15.53-5.77,22.81-1.16,2.57-3.12,4.5-5.87,6.08.69.54,1.23.98,1.79,1.4,5.13,3.73,10,7.72,14.25,12.36,4.5,4.91,8.16,10.3,10.18,16.58.92,2.85,1.61,5.75,1.27,8.75-.16,1.38-.49,2.82-1.1,4.07-1.2,2.47-3.41,3.37-6.22,2.84-2.44-.46-4.55-1.62-6.66-2.79-.61-.34-1.23-.68-1.86-1.02.53,4.97,1.03,9.75,1.57,14.74.09.01.46.08.84.12,2.9.32,4.69,1.83,5.34,4.53.62,2.57.49,5.13-.18,7.66-.23.87-.46,1.74-.64,2.46,2.31.7,4.53,1.36,6.78,2.04,1.38-1.65,2.81-3.53,4.42-5.26,3.69-3.96,8.13-6.81,13.69-7.82,4.89-.89,9.55-.05,14.12,1.64,8.71,3.21,15.71,8.55,21.5,15.42,3.1,3.68,5.92,7.54,7.97,11.87.13.28.33.53.68,1.08.36-1.04.63-1.82.9-2.59,3.24-9.23,7.51-17.98,13.6-25.83,5.55-7.15,12.23-13.09,20.72-17.04,5-2.33,10.25-3.72,15.81-3.94,8.78-.34,15.7,2.79,20.36,10.05,2.53,3.94,4.24,8.19,5.55,12.62,1.45,4.9,2.73,9.85,5.18,14.43.53.99,1.21,1.78,2.06,2.56,4.54,4.16,9.86,7.22,15.35,10.06,20.47,10.61,41.11,20.87,62.11,30.5,38.48,17.64,78.03,32.79,118.25,46.41,16.4,5.55,32.92,10.72,49.73,15.01,1.49.38,3,.72,4.49,1.15.42.12.78.46,1.16.7ZM764.18,360.63c.54-.42,1.05-.89,1.6-1.35-84.87-24.05-165.58-56.84-242.33-98.35,1.31,2.6,2.76,5.16,3.91,7.83,1.65,3.83,1.87,7.8.29,11.71-2.53,6.25-7.04,10.82-13.47,13.53-3.96,1.67-8.14,2.31-12.51,1.75-5.87-.76-11.03-3.07-15.74-6.34-6.74-4.67-11.67-10.71-14.58-18.19-.82-2.11-1.59-4.23-2.54-6.75-.72.79-1.19,1.33-1.71,1.84-7.56,7.52-14.22,15.74-20.81,24.03-10.79,13.58-20.02,28.03-27.1,43.71-3.75,8.3-6.39,16.84-7.03,25.89-.23,3.2-.24,3.25,2.79,4.44,7.88,3.09,15.77,6.19,23.46,9.71,21.49,9.82,43.1,19.39,64.56,29.28,28.64,13.19,57.12,26.74,85.8,39.87,27.77,12.71,55.71,25.07,83.57,37.58.41.18.84.32,1.4.53.31-1.27.58-2.39.86-3.5,1.86-7.35,4.64-14.41,7.53-21.43,5.04-12.28,11.01-24.13,18.87-35.03,8.58-11.92,18.69-22.6,29.61-32.59,10.75-9.84,21.99-19.17,33.54-28.16ZM670.73,489.53c.13-.27.2-.56.42-1.21-1.1.59-1.86.98-2.59,1.4-16.52,9.43-33.62,17.79-51.34,25-26.41,10.74-53,21.02-79.79,30.86-30.77,11.3-61.67,22.22-93.16,31.6-21.52,6.41-43.19,12.3-65.32,16.52-7.89,1.51-15.81,2.94-23.72,4.35-3.24.58-6.52.99-9.85,1.5,0,1.09-.06,2.05.01,3,.42,5.66.89,11.32,1.32,16.98.63,8.3,1.27,16.59,1.86,24.89.5,7.01.91,14.04,1.41,21.05.6,8.49,1.23,16.99,1.87,25.47.57,7.46,1.15,14.92,1.79,22.38.72,8.48,1.44,16.97,2.27,25.45.93,9.5,1.98,18.99,3.01,28.48.21,1.96.52,3.9.77,5.76,16.53-6.53,32.85-13.12,49.28-19.46,16.48-6.36,33.27-11.97,50.2-17.27.33-3.42.64-6.7.98-9.96.75-7.51,1.53-15.02,2.27-22.53.75-7.51,1.46-15.03,2.2-22.54.89-8.92,1.8-17.85,2.69-26.77.87-8.8,1.72-17.6,2.59-26.39.07-.64.1-1.32.36-1.89.19-.39.73-.83,1.16-.88.42-.05,1.02.28,1.34.62.34.36.47.92.65,1.4,1.28,3.33,2.54,6.67,3.81,10,.17.45.42.86.71,1.45.44-.53.73-.87,1.01-1.23.98-1.31,1.94-2.64,2.94-3.95.58-.76,1-1.79,2.27-1.67,1.39.12,1.53,1.31,1.94,2.22.51,1.13.95,2.28,1.43,3.42.57,1.36,1.16,2.71,1.8,4.22.59-.45,1.02-.75,1.4-1.08,1.49-1.32,2.96-2.66,4.45-3.98,1.09-.97,2.15-1.97,3.29-2.88,1.4-1.11,2.23-.92,2.99.62.34.7.61,1.44.92,2.15.88,2.06,1.77,4.13,2.75,6.42.6-.62,1.02-1.01,1.39-1.44,1.32-1.55,2.63-3.12,3.94-4.68,4.48-5.35,8.97-10.69,13.45-16.03.57-.68,1.16-1.32,2.2-.98.81.26,1.07.95.89,2.3-1.05,7.87-2.08,15.74-3.14,23.6-1.56,11.57-3.14,23.15-4.71,34.72-1.63,12.09-3.25,24.17-4.87,36.26-.18,1.33-.31,2.66-.48,4.14.66-.1,1.11-.14,1.54-.24,3.74-.89,7.48-1.81,11.22-2.7,19.76-4.7,39.61-9.06,59.57-12.93,10.61-2.06,21.22-4.11,31.83-6.18.5-.1.98-.31,1.42-.45.85-5.84,1.58-11.53,2.53-17.2,2.31-13.75,4.34-27.55,7.18-41.21,3.5-16.81,7.45-33.55,11.68-50.21,5.4-21.3,11.22-42.5,16.97-63.72,3.38-12.49,7.37-24.81,13.01-36.58ZM669.09,485.85c.89-.5,1.68-1.16,2.71-1.87-1.79-.82-3.24-1.51-4.71-2.15-32.97-14.45-65.75-29.28-98.35-44.51-35.57-16.61-71.29-32.92-106.98-49.29-15.74-7.22-31.4-14.6-47.68-20.68-.74-.28-1.48-.56-2.31-.88-.07.49-.14.8-.16,1.12-.28,5.8-.79,11.6-.79,17.39.03,19.8.12,39.6.41,59.4.31,21.22.86,42.43,1.34,63.65.07,3.03.36,6.05.45,9.08.04,1.31.57,2.03,1.83,2.66,10,5.02,19.96,10.13,29.93,15.21,15.23,7.76,30.46,15.51,45.66,23.32.8.41,1.4.25,2.09.02,3.56-1.23,7.13-2.45,10.68-3.71,26.46-9.35,52.79-19.04,78.9-29.27,16.97-6.65,33.97-13.2,50.56-20.69,12.5-5.64,24.51-12.13,36.42-18.81ZM525.08,277.71c.88-3.28.12-6.43-1.42-9.37-1.75-3.35-3.66-6.62-5.57-9.88-3.32-5.65-6.09-11.5-7.76-17.81-.54-2.06-1.18-4.1-1.88-6.12-1.4-4-3.15-7.83-5.93-11.17-2.68-3.22-6.15-5.18-10.38-5.95-3.46-.63-6.89-.38-10.3.21-6.05,1.05-11.44,3.57-16.39,6.95-6.71,4.59-11.95,10.47-16.23,17.14-6.14,9.56-10.19,19.9-12.74,30.81-2.15,9.23-3,18.6-3.23,28.03-.01.47,0,.94,0,1.42,9.23-12.31,18.71-24.22,29.23-35.54-.32-.67-.59-1.19-.83-1.72-2.71-5.97-4.03-12.16-3.24-18.66.14-1.21.45-2.41.84-3.58.26-.76,1.01-1,1.84-.8.76.19,1.11.7,1.1,1.43,0,.32-.03.65-.11.96-1.4,5.59-.42,11.02,1.31,16.38.37,1.14.94,2.23,1.39,3.28,1.14-1.05,2.15-1.97,3.26-2.99-.28-1.73-.62-3.63-.92-5.54-.88-5.62-.72-11.19,1-16.66.38-1.21.97-2.4,1.66-3.5.6-.97,1.45-1.12,2.24-.69.86.47.95,1.21.45,2.36-.62,1.42-1.29,2.85-1.67,4.33-.78,3.08-1.12,6.23-.89,9.41.58,7.78,2.24,15.32,5.74,22.42,4.22,8.55,11,14.58,20.12,18.25,2.38.95,4.87,1.62,7.46,1.71,9.1.32,15.72-3.61,20.22-10.95.77-1.26,1.25-2.72,1.64-4.14ZM517.19,673.84c1.97-13.51,6.27-46.29,5.96-47.66-.51.58-.99,1.11-1.45,1.67-4.87,5.79-9.79,11.54-14.55,17.42-1.95,2.41-3.46,2.33-4.56-.71-.92-2.55-2.1-5.02-3.24-7.72-.64.54-1.16.93-1.64,1.36-2.48,2.2-4.93,4.43-7.43,6.61-1.29,1.12-2.26.92-3.05-.53-.19-.34-.31-.71-.46-1.07-.82-1.98-1.63-3.96-2.47-5.93-.16-.37-.45-.69-.77-1.18-1.42,1.91-2.7,3.65-4.01,5.37-.58.76-1.01,1.83-2.27,1.67-1.27-.15-1.37-1.31-1.71-2.18-.97-2.46-1.89-4.94-2.83-7.41h-.46c-3.36,33.85-6.72,67.71-10.09,101.59,16.34-4.54,32.47-9.04,48.58-13.51,2.14-15.95,4.14-31.89,6.45-47.78ZM434.1,267.62c-.49-.9-1.12-1.89-1.6-2.95-2.54-5.49-6.16-10.28-10.32-14.76-5.36-5.78-11.83-9.99-19.48-12.53-3.65-1.21-7.38-1.72-11.19-.88-7.1,1.58-11.7,6.18-15.43,11.77-.42.63-.44,1.3-.09,2.02,1.26,2.62,1.32,5.36.81,8.15-.68,3.71-1.94,7.23-3.53,10.67-4.22,9.08-9.65,17.46-16.19,25.18-4.25,5.02-8.75,9.84-13.14,14.75-.47.53-.98.95-.96,1.81.13,7.43-.51,14.82-1.24,22.21-1.06,10.67-2.72,21.24-5.43,31.65-.65,2.5-1.55,4.94-2.44,7.37-.35.95-1.32,1.28-2.14.92-.85-.38-1.15-1.05-.86-1.92.1-.31.22-.61.32-.92.91-3.1,1.91-6.18,2.71-9.31,2.14-8.41,3.47-16.96,4.32-25.56.64-6.48,1-12.99,1.46-19.48.05-.59-.04-1.18-.07-1.9-6.86,6.4-13.49,12.57-20.14,18.77.29.58.74,1.23.95,1.94,2.16,7.23,3.58,14.56,3.33,22.12-.2,5.87-1.31,11.53-3.99,16.86-3.92,7.8-10.09,13.15-18.96,15.47-3.89,1.01-7.87,1.38-11.88,1.25-5.7-.18-11.34-.82-16.91-2.01-14.75-3.16-28.58-8.37-40.96-16.79-.93-.63-1.85-.9-3.01-.84-4.8.26-9.61.44-14.42.66-.31.01-.6.09-1.27.2.84.53,1.37.89,1.92,1.21,16.96,9.7,35.07,16.74,54.32,21.11,2.5.57,5.03,1.01,7.53,1.59,1.1.26,1.54.99,1.33,1.84-.2.83-.94,1.27-2.05,1.1-1.27-.2-2.53-.44-3.79-.71-19.59-4.1-38.11-10.83-55.51-20.35-3.46-1.89-6.92-3.8-10.41-5.66-.57-.3-1.27-.5-1.91-.52-6.31-.16-12.55-.95-18.76-2.01-6.01-1.02-11.95-2.26-17.59-4.59-1.38-.58-2.68-1.57-4.38-.85-.33.14-.8-.03-1.2-.05-2.1-.11-4.19-.28-6.29-.31-8.35-.1-16.66.42-24.93,1.58-5.53.77-10.87,2.2-15.84,4.65-5.68,2.8-9.7,7.02-11.28,13.01-.58,2.18-.88,4.44-.99,6.68-.44,8.31,1.39,16.29,4.22,24.08,2.85,7.84,6.87,15.14,11.75,22.01.62.87.95,1.92,1.56,3.18,7.66,2.46,14.65,6.87,21.67,11.56,4.23-4.93,8.54-9.66,12.49-14.65,4.07-5.15,7.79-10.54,11.63-15.85,1.08-1.49,1.62-1.68,3.56-1.14.45.12.93.18,1.4.18,2.98.03,5.97.2,8.95.05,9.81-.5,19.61-1.08,29.42-1.69,2.67-.16,5.32-.49,8.33-.78-.75-.66-1.21-1.1-1.71-1.51-3.09-2.53-6.18-5.04-9.26-7.56-9.29-7.59-19.3-14.21-29.98-19.87-3.6-1.9-7.46-3.35-11.21-5-.37-.16-.77-.27-1.13-.44-1.12-.54-1.52-1.31-1.15-2.15.37-.83,1.21-1.1,2.41-.66,2.27.84,4.58,1.63,6.76,2.65,12.96,6.07,24.76,13.82,35.81,22.64,4.51,3.61,9,7.25,13.51,10.86.33.27.8.55,1.19.55,1.13-.03,2.25-.2,3.58-.34-.37-.58-.58-1.04-.92-1.41-2.24-2.5-4.39-5.09-6.78-7.45-7.26-7.18-15.34-13.47-23.66-19.48-.49-.35-.99-.69-1.41-1.1-.59-.58-.66-1.27-.12-1.92.52-.65,1.23-.78,1.99-.42.42.2.81.47,1.18.75,4.34,3.3,8.79,6.48,13,9.93,7.5,6.16,14.8,12.53,20.39,20.42.07.1.21.16.44.32,1.76-.2,3.63-.4,5.73-.64-.44-.76-.73-1.33-1.09-1.86-1.79-2.66-3.59-5.31-5.4-7.96-.22-.33-.5-.62-.68-.96-.44-.85-.25-1.59.46-2.05.75-.48,1.45-.32,2.02.24.46.46.86.99,1.23,1.54,2.39,3.5,4.77,7.02,7.2,10.62.2,0,.47.03.73,0,4.09-.55,8.2-.99,12.26-1.68,8.46-1.42,16.91-2.93,25.35-4.48,10.63-1.96,21.28-3.86,31.85-6.05,17.01-3.52,33.71-8.17,50.09-13.79,6.93-2.38,13.69-5.23,20.54-7.83,1.15-.44,1.68-1.15,1.89-2.25.28-1.46.64-2.9.93-4.36,1.96-10.04,2.62-20.21,3.18-30.39.51-9.28.5-18.56.15-27.85-.39-10.34-1.7-20.56-3.94-30.68-.38-1.7-.85-3.38-1.27-5.07-.32-1.31.02-2.1,1.02-2.36.9-.24,1.65.24,2.08,1.4.2.54.33,1.11.47,1.68,2.61,10.37,4.19,20.89,4.77,31.54.7,12.9.46,25.79-.41,38.67-.07,1.09-.19,2.18-.29,3.26.29-.18.42-.4.49-.63.36-1.24.75-2.48,1.04-3.74,2.28-9.71,3.74-19.53,4.4-29.46.54-8.05.58-16.12-.26-24.16-.36-3.4-.88-6.78-1.3-10.18-.2-1.66.15-2.3,1.21-2.45,1.09-.15,1.69.42,2.01,1.94.01.06.03.12.03.19.57,5,1.36,9.98,1.65,15,.8,13.97-.27,27.84-2.84,41.61-1.27,6.8-2.82,13.53-5.45,19.99-.29.7-.64,1.5-1.22,1.94-.68.51-.85,1.07-.97,1.79-.57,3.57-1.18,7.13-1.77,10.69-.06.33-.06.67-.11,1.13.45-.16.71-.22.94-.33,7.26-3.66,14.42-7.43,20.18-13.19,1.02-1.02,1.52-1.92,1.59-3.28.36-7.13,1.84-14.06,4.41-20.77,2.67-6.97,5.8-13.76,9.53-20.28,2.11-3.68,4.35-7.29,6.48-10.96.34-.58.65-1.29.63-1.94-.21-8.01.21-15.99,1.36-23.93.73-5.03,1.81-10.02,2.75-15.09ZM409.68,517.2c0-.62.02-1.12,0-1.63-.15-3.54-.36-7.09-.46-10.63-.28-10.06-.59-20.12-.76-30.18-.5-28.64-1.23-57.27-.96-85.91.06-6.51.47-13.01.72-19.52.02-.49,0-.98,0-1.73-.51.37-.82.58-1.12.81-1.92,1.43-3.78,2.93-5.76,4.28-5.37,3.64-11.23,6.49-17.13,9.24-12.13,5.67-24.89,9.79-37.75,13.66-15.7,4.72-31.6,8.67-47.78,11.59-13.1,2.36-26.17,4.87-39.28,7.15-6.45,1.12-12.97,1.98-19.48,2.78-5.64.7-11.31,1.19-16.97,1.7-8.57.76-17.13,1.56-25.71,2.15-7.98.55-15.96,1.11-23.97.88-.24-.01-.49.05-1.07.11,39.96,42.1,80.69,83.18,121.29,124.53,38.83-9.78,77.48-19.51,116.21-29.26ZM372.69,261.64c.77-2.48,1.34-5.01,1.05-7.62-.4-3.58-3.25-6.06-6.93-6.02-1.68.01-1.65.03-2.36,1.54-1.5,3.18-3.03,6.33-4.57,9.49-.25.52-.56,1.14-1.03,1.4-.5.28-1.29.37-1.85.21-.72-.2-.92-.93-.71-1.61.15-.49.46-.93.7-1.39,2.64-5.02,5.12-10.11,6.72-15.53.69-2.32,1.02-4.68.35-7.06-.49-1.73-1.23-2.24-3.07-2.12-.47.03-.94.13-1.39.24-4.67,1.18-8.77,3.38-12.52,6.22-1.98,1.5-3.69,3.18-4.27,5.67-.19.8-.65,1.55-1,2.32-.13.29-.27.6-.46.86-.49.66-1.15.88-1.95.57-.8-.3-1.12-1.02-.85-1.92.13-.43.37-.83.53-1.25.78-2.06,1.64-4.1,2.29-6.19.36-1.15.52-2.42.46-3.62-.08-1.99-1.06-2.72-3.07-2.17-1.93.53-3.85,1.24-5.62,2.16-4.49,2.33-8.44,5.41-12.14,8.72-8.68,7.74-15.6,16.8-21.51,26.58-.1.15-.09.36-.14.58,1.44,1.94,2.34,4.05,2.22,6.49-.1,2.12-.85,4.02-1.97,5.83-2.84,4.64-7.14,7.68-12.04,10.09-5.97,2.94-12.32,4.7-18.99,5.28-5.42.48-10.85.27-16.08-1.42-2.02-.65-4.29-.97-5.63-2.83-1.07-1.49-2.64-2.15-4.38-2.58-1.11-.28-2.22-.58-3.34-.82-4.98-1.04-10.06-1.27-15.12-1.65-7.56-.58-15.03-.13-22.44,1.31-5.4,1.05-10.63,2.61-15.37,5.36-1.49.86-2.9,1.92-4.13,3.1-1.63,1.57-1.64,3.22-.04,4.79,1.16,1.14,2.61,2.02,3.95,2.99.49.35,1.15.53,1.51.96.33.4.6,1.09.46,1.53s-.79.79-1.28,1.02c-.33.15-.8.02-1.2.02-2.44-.03-4.88-.06-7.32-.1-7.62-.1-14.74,1.83-21.5,5.01-1.79.84-3.51,1.99-4.95,3.32-3.68,3.4-3.97,7.33-1.05,11.34,1.6,2.2,3.65,3.97,5.89,5.57,3.66,2.61,7.71,4.54,11.83,6.36.73.32,1.51.63,2.14,1.1.72.54,1.6,1.12,1.4,2.19-.21,1.12-1.25,1.23-2.17,1.43-.27.06-.54.07-.8.14-2.76.75-5.42,1.71-7.66,3.45-1.9,1.47-2.2,3.27-.68,5.09,1.07,1.29,2.4,2.46,3.81,3.42,2.66,1.82,5.7,2.97,8.83,3.86,14.37,4.07,29.08,5.3,44.01,4.82,7.45-.24,14.86-.9,22.25-1.78,1.71-.2,3.41-.51,5.06-.77-.94-2.27-1.99-4.31-2.63-6.46-3.06-10.39-1.68-20.56,1.87-30.6.37-1.04,1.07-1.45,1.97-1.24.86.2,1.32.88,1.1,1.99-.24,1.2-.6,2.38-.99,3.54-2.33,6.87-2.88,13.89-1.83,21.02.69,4.68,2.23,9.03,5.63,12.62,2.64,2.79,5.91,4.13,9.8,3.67,1.92-.22,3.85-.75,5.65-1.46,4.61-1.82,8.27-4.9,11.48-8.45,9.71-10.73,16.84-22.89,21.87-36.18,1.35-3.57,2.45-7.23,3.7-10.84.43-1.25,1.25-1.73,2.23-1.41.89.29,1.2,1.05.92,2.26-.03.12-.09.24-.13.37-2.81,9.32-6.27,18.39-11.22,26.9-2.03,3.49-4.2,6.91-6.31,10.36.06.07.11.15.17.23.61-.37,1.24-.72,1.83-1.12,9.8-6.61,19.17-13.74,28.21-21.25,10.54-8.76,20.04-18.51,29.23-28.53,6.29-6.86,12.19-14.01,17.06-21.88,3.44-5.57,6.59-11.27,8.53-17.5ZM371.9,213.07c.28-1.76.27-3.62-.03-5.37-.95-5.66-3.59-10.64-7.11-15.23-4.89-6.37-11-11.56-17.6-16.25-16.74-11.88-34.9-21.19-54.8-27.36-3.35-1.03-6.72-2.09-9.85-3.57-1.97-.94-3.51-.7-5.35.01.13.25.17.45.3.57,5.45,5.27,9.89,11.28,14.03,17.5.25.38.53.76.72,1.17.48.98.29,1.76-.53,2.18-.87.45-1.57.16-2.14-.51-.29-.36-.52-.76-.78-1.14-1.42-2.04-2.77-4.14-4.27-6.12-3.46-4.55-6.91-9.13-11.49-12.75-4.02-3.18-8.14-6.18-13.35-7.53-6.15-1.6-11.21-.1-15.38,4.41-2.84,3.08-4.55,6.7-5.5,10.65-1.15,4.75-1.41,9.57-1.01,14.42.19,2.31.47,4.62.73,6.93.15,1.37-.21,2.11-1.19,2.32-1.03.22-1.72-.4-1.99-1.9-.22-1.21-.39-2.42-.52-3.64-.64-6.06-.71-12.12.63-18.11,1.22-5.48,3.63-10.4,8.01-14.27,4.18-3.7,9.06-5.24,14.77-4.26,3.87.67,7.41,2.02,10.63,4.14,1.77,1.16,3.52,2.37,5.14,3.46.84-.23,1.48-.41,2.13-.57,5.54-1.36,10.88-3.18,15.64-6.27.62-.4,1.21-.84,1.71-1.36.79-.81.79-1.42-.06-2.18-.63-.57-1.38-1.08-2.17-1.41-1.73-.71-3.49-1.42-5.31-1.89-8.93-2.28-18.05-2.8-27.22-2.18-9.8.66-19.55,1.83-29.17,3.79-4.16.85-8.26,1.97-12.36,3.07-1.29.34-2.46,1.06-3.71,1.55-.77.29-1.49.13-1.97-.55-.46-.65-.27-1.49.47-2.05.37-.28.8-.51,1.23-.68,1.63-.63,3.22-1.42,4.92-1.81,5.38-1.25,10.8-2.36,16.21-3.53.71-.16,1.65-.2,2.06-.65,2.38-2.55,4.64-5.2,6.9-7.85.4-.46.55-1.11.97-1.96-1.24-.27-2.19-.59-3.16-.66-2.92-.21-5.81-.01-8.7.53-6.75,1.26-13.18,3.44-19.4,6.18-13.16,5.8-25.27,13.22-36.89,21.44-14.26,10.08-27.26,21.46-38.92,34.2-2.61,2.85-4.78,6.07-7.11,9.07.49.85.88,1.45,1.18,2.09.46.97.23,1.83-.5,2.22-.76.4-1.64.14-2.28-.68-.08-.1-.14-.22-.2-.33-1.74-2.81-4.01-5.19-6.51-7.39-10.04-8.82-21.62-15.02-34.75-18.6-5.96-1.63-11.99-2.75-18.23-2.31-1.14.08-2.29.28-3.37.62-1.98.64-2.41,1.8-1.22,3.4.59.81,1.74,1.27,2.29,2.1,1.36,2.01,3.53,2.95,5.47,4.21.5.33,1.05.62,1.47,1.02.53.5.64,1.14.19,1.76-.47.66-1.11.94-1.93.61-.31-.12-.62-.27-.89-.46-2.06-1.36-4.15-2.68-6.13-4.14-.85-.62-1.63-1-2.72-1.05-7.35-.36-14.3,1.07-20.77,4.36-5.02,2.55-9.37,5.92-12.74,10.33-1.83,2.38-3.1,4.99-3.44,7.96-.33,2.86.83,4.68,3.71,5.67.95.32,1.94.59,2.94.7,3.08.32,2.61.92,4.1-2.05.32-.64.65-1.29,1.1-1.84.51-.63,1.26-.74,2-.32.66.37.93.95.7,1.65-.16.49-.41.95-.64,1.42-1.12,2.28-2.32,4.52-3.36,6.83-4.41,9.82-6.89,20-5.49,30.72,1.68,12.79,8.6,21.85,21.6,26.37,6.21,2.16,12.49,1.86,18.85.93,4.9-.72,9.65-2.02,14.37-3.39,1.36-.4,3.06-.47,3.94-1.32.89-.85.96-2.48,1.37-3.76.33-1.05.65-2.11,1.06-3.45-1.08.57-1.76.99-2.5,1.3-2.7,1.13-4.96.14-5.53-2.62-.32-1.55-.34-3.22-.12-4.79.34-2.35,1.01-4.65,1.55-7.09-2.58-.86-4.89-2.27-6.6-4.45-1.76-2.24-3.13-4.69-3.75-7.44-1.86-8.22-.46-16.01,3.55-23.43.32-.59.67-1.18,1.11-1.96-4.04-.06-7.27,1.05-10.04,3.35-2.89,2.4-4.83,5.41-5.95,8.85-2.71,8.34-2.21,16.54,1.44,24.55.24.53.53,1.05.77,1.58.4.83.18,1.53-.6,2.02-.76.47-1.63.21-2.25-.66-.27-.37-.45-.79-.66-1.2-3.6-7.24-4.37-14.83-3.04-22.67.75-4.39,2.43-8.44,5.33-11.99,5.09-6.2,12.61-8.45,20.3-5.86,7.86,2.65,13.81,7.76,18.88,13.89.31.37.59.98.5,1.41-.32,1.54-.6,3.03-2.07,4.2-1.8,1.44-3.41,3.14-4.88,4.9-4.92,5.91-8.06,12.66-9.95,19.94-.44,1.67-.46,3.44-.57,5.17-.03.51.25,1.04.46,1.8.9-.47,1.58-.74,2.17-1.14,1.04-.72,2.01-1.53,3.04-2.27,1.17-.84,1.91-1.92,2.45-3.23,2.15-5.26,5-10.15,8.69-14.58.29-.36.58-.72.92-1.04.66-.62,1.42-.73,2.2-.21.7.46.8,1.24.29,2.07-.24.38-.56.73-.85,1.08-3.2,3.89-5.69,8.14-7.75,12.67-2.96,6.53-4.89,13.36-6.74,20.21-1.96,7.27-3.11,14.67-3.57,22.15-.4,6.45-.44,12.9,1.1,19.26.39,1.6.78,3.22,1.94,4.85,1.2-2.33,2.32-4.42,2.1-6.93-.42-4.77-.4-9.54.38-14.28.32-1.9.73-3.8,1.24-5.67.32-1.15,1.2-1.62,2.08-1.37.91.26,1.28,1.06,1.01,2.2-.19.81-.46,1.62-.61,2.44-1.08,5.87-1.27,11.71-.6,17.69.9,7.98,2.93,15.6,6.48,22.84,1.19,2.44,2.9,4.64,4.44,6.91.37.55.99.94,1.7,1.58,1.08-2.31,1.97-4.18.89-6.5-.95-2.06-1.7-4.23-2.19-6.42-.75-3.33-1.27-6.72-1.75-10.1-.19-1.26.57-2.04,1.58-2.05.93,0,1.5.62,1.66,1.83.02.13.01.26.02.39.5,4.83,1.45,9.56,3.22,14.13,2.24,5.81,5.41,11.1,9.88,15.64,1.77,1.81,3.79,3.32,6.2,4.29,2.75,1.11,4.26.37,4.96-2.36.05-.19.06-.38.11-.57.77-3.57.27-7.08-.68-10.53-.72-2.62-1.68-5.17-2.51-7.76-.38-1.18-.06-1.98.82-2.29.91-.32,1.77.06,2.2,1.18,1.93,4.97,3.64,10.01,3.76,15.38.03,1.67.58,3.06,1.76,4.16,1.1,1.03,2.31,2.02,3.63,2.76,4.27,2.38,8.98,3.56,13.83,4.26.5.07,1.26-.15,1.58-.51,1.8-1.96,4.11-3.12,6.55-4.12.48-.19.93-.46,1.6-.79-.86-.41-1.5-.74-2.15-1.03-3.68-1.68-7.15-3.68-10.35-6.1-2.29-1.74-4.33-3.71-5.89-6.09-3.16-4.81-2.69-9.83,1.31-14.05,1.93-2.05,4.28-3.55,6.89-4.71,7.28-3.22,14.86-5.18,22.95-5.09.55,0,1.09-.08,1.87-.14-.44-.5-.66-.75-.87-.99-2.85-3.33-2.73-6.61.58-9.58,1.41-1.28,3.03-2.38,4.71-3.33,3.62-2.06,7.56-3.44,11.62-4.53,13-3.46,26.15-2.99,39.32-1.32,2.54.32,5.03.92,7.61,1.4.1-.27.14-.32.14-.38,0-.26,0-.52-.03-.77-.34-3.68.72-7,2.83-10.08,3.65-5.33,8.75-8.94,14.88-11.25,7.93-2.97,16.13-3.8,24.54-2.28,3.28.59,6.48,1.4,9.26,3.28.54.36,1.09.71,1.76,1.14,1.53-2.35,3-4.61,4.5-6.92-3.53-1.84-7.17-2.55-10.84-3.15-6.06-.98-12.13-1.06-18.19.06-9.42,1.73-17.9,5.5-25.55,10.92-4.03,2.85-7.83,6-10.26,10.32-.13.23-.28.55-.49.6-.61.14-1.34.38-1.85.18-.4-.15-.71-.9-.74-1.41-.03-.46.27-1.01.57-1.41,1.27-1.67,2.45-3.42,3.92-4.91,6.23-6.33,13.82-10.76,22.18-14.02,14.35-5.59,28.71-5.6,43.22.06,1.36-1.71,2.82-3.55,4.3-5.39,5.61-6.94,11.94-13.21,19.55-18.2,2.55-1.67,5.34-3.03,8.1-4.38,1.11-.54,2.44-.81,3.7-.95,3.35-.39,5.46,1.19,6.03,4.34.1.55.21,1.1.34,1.79.59-.38,1.02-.7,1.48-.94,2.72-1.45,5.33-3.15,8.2-4.21,2.04-.76,2.51-1.89,2.49-3.62-.01-.84.01-1.68-.06-2.51-.76-9.08-2.97-17.81-7.11-26.05-3.96-7.88-9.32-14.81-15.62-21.12-.84-.84-1.69-1.68-2.46-2.57-.73-.85-.73-1.66-.12-2.26.67-.66,1.56-.59,2.5.21.2.17.38.37.56.56,1.96,2.06,3.96,4.08,5.86,6.18,7.39,8.17,13.04,17.27,16.24,27.64.55,1.8,1.38,3.09,3.13,3.94,2.41,1.16,4.68,2.6,7.17,3.59,2.54,1.01,3.9.24,4.32-2.37ZM362.78,116.54c.02-.51.04-1.03.01-1.55-.34-6.8-2.02-13.26-5.44-19.26-2.66-4.65-6.37-8.27-11.49-10.58-6.32-2.84-12.93-3.24-19.67-2.24-5.09.76-10.09,1.93-14.65,4.38-1.21.65-2.12.41-2.59-.51-.42-.81-.12-1.56,1.07-2.17,1.49-.75,3.02-1.47,4.59-2.03,1.9-.67,3.88-1.14,5.82-1.71.43-.13.95-.26,1.22-.55,1.86-2.04,3.68-4.11,5.5-6.19.37-.43.7-.9,1.07-1.38-.94-.98-2.06-1.32-3.21-1.26-2.02.11-4.07.21-6.02.65-7,1.57-13.07,4.96-18.64,9.15-8.67,6.52-15.48,14.6-20.92,23.72-3.11,5.22-5.89,10.6-7.5,16.46-.2.72-.32,1.46-.51,2.33,2.24.24,4.25.42,6.25.68,4.5.59,9,1.27,13.19,3.03,1.59.67,3.2,1.45,4.54,2.5,2.61,2.05,2.66,4.86.14,7-1.55,1.31-3.37,2.38-5.18,3.38-1.68.94-3.51,1.65-5.63,2.63,3.68,1.25,7.08,2.4,10.44,3.54.21-.21.34-.29.38-.4.19-.55.36-1.11.51-1.67,2.54-8.81,6.57-16.91,12.51-24.12,2.52-3.06,5.32-5.86,8.61-8.18,2.41-1.7,4.98-3.11,7.85-3.99,6.13-1.88,12.03,1.97,12.44,8.09.05.8-.27,1.39-1.07,1.68-.79.28-1.6-.08-1.99-.89-.2-.41-.24-.88-.45-1.28-.59-1.15-1.12-2.35-1.86-3.41-.79-1.12-2.02-1.83-3.46-1.72-3.09.24-5.76,1.49-8.43,3.34,3.83,1.96,5.53,5.15,6.88,8.57,1.52,3.84,2.12,7.86,2.33,11.93.39,7.92-.83,15.69-2.6,23.4-.14.6-.21,1.22-.28,1.63,6.29,3.8,12.34,7.46,18.4,11.14,3.14-1.22,5.11-3.44,6.37-6.39,5.54-12.92,6.47-26.12,2.76-39.62-1.64-5.95-3.68-11.74-7.54-16.79-.08-.1-.15-.21-.21-.33-.37-.63-.35-1.25.18-1.79.59-.59,1.31-.66,2.03-.25.46.27.89.58,1.29.93,2.33,2.07,4.63,4.16,6.96,6.24,1.48,1.33,2.96,2.66,4.48,3.94.36.3.86.45,1.37.7.08-.41.15-.6.16-.79ZM355.96,772.59c.21-.83.15-1.46.07-2.1-.47-3.77-.99-7.54-1.39-11.33-.76-7.31-1.49-14.63-2.16-21.95-.93-10.22-1.84-20.43-2.67-30.65-.8-9.7-1.51-19.42-2.21-29.13-.92-12.73-1.77-25.47-2.69-38.21-.71-9.78-1.46-19.55-2.22-29.32-.18-2.37-.4-4.75-.64-7.54-.83.73-1.33,1.15-1.8,1.59-3.16,2.91-6.22,5.94-9.51,8.72-13.02,11.01-26.13,21.92-39.16,32.93-8.01,6.76-15.94,13.61-23.9,20.43-.64.55-1.21,1.16-1.96,1.88.83,1.04,1.53,1.98,2.29,2.85,9.79,11.21,19.7,22.33,29.36,33.63,12.05,14.11,23.84,28.43,35.87,42.56,6.96,8.17,14.17,16.13,21.28,24.17.45.51.96.97,1.45,1.45ZM339.36,600.42c.57-.54,1.11-1.1,1.77-1.76-58.6-58.22-116.08-117.06-173.08-176.32-.16.14-.29.2-.36.31-6.04,9.06-12.95,17.5-20.26,25.65-4.58,5.1-9.11,10.25-13.71,15.32-1.49,1.63-2.95,3.35-5.31,4.17.38.64.7,1.19,1.02,1.75,4.49,7.71,7.22,15.82,6.42,24.78-.4,4.55-1.5,8.91-3.81,12.93-4.07,7.07-9.82,12.35-18.17,14.49-7.11,1.83-13.45.55-18.4-5-2.4-2.68-3.67-5.89-4.05-9.35-.36-3.33-.36-6.69-.53-10.04-.03-.68-.09-1.35-.16-2.46-8.61,7.41-17.69,13.47-27.16,19.01-9.46,5.54-19.32,10.37-29.55,14.88.51.53.9.96,1.33,1.36,3.99,3.68,7.94,7.41,11.99,11.03,28.99,25.95,57.96,51.91,87,77.79,27.66,24.65,55.35,49.27,82.16,74.77,4.94,4.7,9.87,9.41,14.09,14.73.15.19.38.31.67.55,1.72-2.83,3.42-5.53,5.03-8.29,9.95-17.09,22.52-32.14,38.11-44.93,13.14-10.78,26.02-21.85,39.12-32.69,8.85-7.33,17.6-14.76,25.84-22.7ZM324.76,151.96c1.28-7.14,2.04-14.31.98-21.55-.52-3.53-1.37-6.98-3.32-10.07-.59-.93-1.31-1.81-2.11-2.58-.92-.88-3.41-1.3-4.13-.72-1.74,1.42-3.25,3.05-4.49,4.59,5.15,10.52,4.45,21.02,1.63,31.64,3.34,1.6,6.58,3.16,9.95,4.77.18-.46.35-.8.44-1.16.36-1.64.75-3.27,1.05-4.92ZM320.44,357.39c.35-7.49-.99-14.76-3.18-21.92-.08-.27-.26-.51-.46-.9-1.61,1.25-3.07,2.39-4.54,3.52-7.79,6.01-15.56,12.05-23.96,17.28-1.41.88-2.98,1.5-4.44,2.32-.73.41-1.44.93-2.02,1.52-2.05,2.06-3.94,4.26-6.07,6.23-3.12,2.91-6.68,5.29-10.84,6.67-6.28,2.1-12.14,1.66-17.1-3.03-.61-.58-1.18-.69-1.99-.57-3.54.54-7.09,1.02-11.06,1.58.8.54,1.32.92,1.86,1.27,9.64,6.09,20.25,10.06,31.38,12.84,8.95,2.23,18.01,3.68,27.31,2.72,8.23-.85,14.77-4.44,19.35-11.04,3.88-5.59,5.45-11.87,5.76-18.49ZM310.68,150.41c1.64-6.13,2.05-12.34.97-18.58-.35-2.02-1.03-3.99-1.6-5.97-.11-.38-.44-.7-.76-1.18-5.33,7.04-8.56,14.73-10.73,22.96,3.88,1.41,7.59,2.77,11.58,4.23.19-.51.4-.98.53-1.47ZM297.31,281.5c1.67-3.05,1.34-5.81-.99-8.43-2.18-2.44-4.92-4.12-8.18-4.75-3.3-.64-6.67-1.16-10.03-1.28-5.75-.21-11.31,1.01-16.59,3.15-5.09,2.07-9.31,5.22-12.38,9.67-1.69,2.45-2.56,5.1-2.28,8.05.17,1.79.61,3.66,2.11,4.67,1.94,1.31,3.96,2.68,6.48,2.98,2.94.34,5.88.76,8.73,1.13,3.24-.4,6.35-.62,9.39-1.2,6.57-1.25,12.69-3.61,18.08-7.49,2.42-1.75,4.26-3.96,5.65-6.5ZM139.51,452.55c-.64-.49-1.13-.93-1.68-1.26-3.79-2.25-7.52-4.61-11.4-6.71-5.18-2.81-10.79-4.48-16.78-4.8-6.48-.36-12.56.72-17.88,4.5-4.06,2.89-6.83,6.58-7.57,11.48-.5,3.22-.39,6.42.14,9.63.79,4.89,2.62,9.45,4.79,13.92,1.16,2.4,2.33,4.8,3.23,7.3.62,1.73,1.5,3.4,1.51,5.35.03,4.13.26,8.25.45,12.38.12,2.73.66,5.39,1.94,7.85,2.25,4.33,5.87,6.86,11,7.17,5.89.36,10.91-1.76,15.18-5.41,8.98-7.67,11.82-17.51,9.72-28.46-2.25-11.78-8.56-21.47-18.82-28.65-1.43-1-1.77-1.84-1.12-2.68.66-.86,1.52-.8,3.02.16,3.97,2.56,7.25,5.8,10.13,9.43.48.6.97,1.21,1.5,1.88,4.88-3.82,8.47-8.59,12.65-13.06ZM100.72,214.26c-2.61-2.85-5.06-5.62-8.28-7.97-1.77,4.24-2.88,8.32-2.51,12.63.14,1.66.62,3.26,1.95,4.73,1.5-1.79,2.77-3.45,4.21-4.97,1.42-1.51,3.01-2.88,4.63-4.42ZM87.55,210.69c.45-2.11,1.31-4.15,2.06-6.43-2.26-1.07-4.53-2.16-6.96-3.31-4.88,6.76-6.4,13.94-5.71,21.6.29,3.27,1.57,6.25,3.69,8.86,1.34,1.65,3.01,2.88,5.25,3.31,1.4-2.81,2.75-5.52,4.08-8.19-2.37-3.08-3.42-5.32-3.35-8.39.07-2.49.41-5,.93-7.45Z"/>
  <path class="cls-6" d="M765.78,359.28c-.55.46-1.06.93-1.6,1.35-11.56,8.98-22.79,18.31-33.54,28.16-10.92,9.99-21.03,20.67-29.61,32.59-7.85,10.91-13.83,22.75-18.87,35.03-2.89,7.02-5.67,14.08-7.53,21.43-.28,1.11-.55,2.23-.86,3.5-.55-.21-.98-.35-1.4-.53-27.86-12.51-55.81-24.87-83.57-37.58-28.68-13.13-57.16-26.67-85.8-39.87-21.46-9.89-43.07-19.46-64.56-29.28-7.7-3.52-15.58-6.62-23.46-9.71-3.03-1.19-3.02-1.24-2.79-4.44.64-9.05,3.28-17.6,7.03-25.89,7.07-15.68,16.3-30.12,27.1-43.71,6.58-8.28,13.25-16.51,20.81-24.03.51-.51.98-1.06,1.71-1.84.94,2.52,1.72,4.64,2.54,6.75,2.9,7.48,7.84,13.52,14.58,18.19,4.71,3.27,9.87,5.58,15.74,6.34,4.36.56,8.54-.08,12.51-1.75,6.43-2.71,10.95-7.28,13.47-13.53,1.58-3.91,1.36-7.88-.29-11.71-1.15-2.67-2.6-5.23-3.91-7.83,76.75,41.5,157.45,74.3,242.33,98.35Z"/>
  <path class="cls-6" d="M671.15,488.32c-.23.66-.29.95-.42,1.21-5.64,11.78-9.63,24.09-13.01,36.58-5.75,21.22-11.57,42.42-16.97,63.72-4.23,16.66-8.18,33.4-11.68,50.21-2.84,13.65-4.88,27.46-7.18,41.21-.95,5.66-1.67,11.36-2.53,17.2-.44.14-.92.36-1.42.45-10.61,2.07-21.21,4.13-31.83,6.18-19.96,3.87-39.81,8.24-59.57,12.93-3.75.89-7.48,1.8-11.22,2.7-.44.11-.89.14-1.54.24.17-1.49.3-2.81.48-4.14,1.62-12.09,3.24-24.17,4.87-36.26,1.57-11.57,3.15-23.15,4.71-34.72,1.06-7.87,2.1-15.74,3.14-23.6.18-1.35-.07-2.04-.89-2.3-1.05-.34-1.64.3-2.2.98-4.48,5.35-8.97,10.69-13.45,16.03-1.31,1.57-2.62,3.13-3.94,4.68-.37.43-.79.82-1.39,1.44-.98-2.29-1.86-4.36-2.75-6.42-.31-.72-.57-1.45-.92-2.15-.76-1.54-1.6-1.73-2.99-.62-1.15.91-2.2,1.91-3.29,2.88-1.49,1.32-2.96,2.66-4.45,3.98-.38.33-.81.63-1.4,1.08-.64-1.51-1.23-2.86-1.8-4.22-.48-1.14-.92-2.29-1.43-3.42-.41-.92-.55-2.1-1.94-2.22-1.27-.11-1.68.92-2.27,1.67-.99,1.31-1.96,2.64-2.94,3.95-.27.36-.57.7-1.01,1.23-.29-.59-.54-1.01-.71-1.45-1.28-3.33-2.54-6.66-3.81-10-.18-.48-.31-1.03-.65-1.4-.32-.34-.92-.66-1.34-.62-.43.05-.97.49-1.16.88-.27.57-.29,1.25-.36,1.89-.87,8.79-1.72,17.59-2.59,26.39-.89,8.92-1.8,17.85-2.69,26.77-.75,7.51-1.46,15.03-2.2,22.54-.75,7.51-1.52,15.02-2.27,22.53-.33,3.27-.64,6.54-.98,9.96-16.93,5.3-33.72,10.91-50.2,17.27-16.43,6.34-32.75,12.92-49.28,19.46-.25-1.86-.57-3.81-.77-5.76-1.02-9.49-2.07-18.98-3.01-28.48-.83-8.48-1.55-16.96-2.27-25.45-.63-7.46-1.21-14.92-1.79-22.38-.64-8.49-1.27-16.98-1.87-25.47-.5-7.01-.91-14.04-1.41-21.05-.59-8.3-1.23-16.6-1.86-24.89-.43-5.66-.9-11.32-1.32-16.98-.07-.95-.01-1.91-.01-3,3.34-.5,6.61-.92,9.85-1.5,7.92-1.41,15.83-2.84,23.72-4.35,22.13-4.22,43.8-10.11,65.32-16.52,31.49-9.38,62.39-20.3,93.16-31.6,26.79-9.84,53.39-20.12,79.79-30.86,17.72-7.21,34.82-15.57,51.34-25,.73-.42,1.49-.81,2.59-1.4ZM616.95,618.38c2.11-.37,2.58-1.5,1.29-3.15-.68-.88-1.49-1.68-2.24-2.5-7.23-7.87-13.2-16.51-17.55-26.12-4.57-10.08-7.97-20.53-11.05-31.1-.34-1.18-.71-2.35-1.16-3.49-.3-.75-.91-1.47-1.81-1.27-.63.14-1.33.68-1.66,1.22-.52.89-.8,1.91-1.1,2.89-2.27,7.36-4.19,14.82-6.83,22.05-4.37,11.99-9.1,23.85-13.87,35.71-3.53,8.78-6.99,17.6-12.45,25.54-.29.42-.27,1.36.04,1.73.31.38,1.16.5,1.77.49.49-.01.98-.39,1.47-.62,5.96-2.78,11.91-5.56,17.87-8.34.66-.31,1.33-.59,2.25-1-.31,1.89-.57,3.53-.85,5.16-1.98,11.71-3.96,23.41-5.94,35.12-.52,3.05-.98,6.11-1.54,9.16-.21,1.15,0,2.05,1.05,2.68.88.54,1.37.31,2.7-.59,1.65-1.11,3.34-2.21,5.14-3.06,6.05-2.87,12.57-4.38,19.18-5.5,2.66-.45,5.38-.57,8.06-.93,2.29-.31,2.74-1.02,2.2-3.14-.06-.25-.14-.5-.19-.75-2.89-14.82-5.78-29.64-8.67-44.47-.11-.54-.16-1.09-.25-1.75,4.87-.81,9.6-1.6,14.32-2.38,3.27-.54,6.54-1.04,9.8-1.6Z"/>
  <path class="cls-3" d="M671.8,483.98c-1.03.71-1.83,1.37-2.71,1.87-11.91,6.68-23.92,13.17-36.42,18.81-16.59,7.49-33.59,14.04-50.56,20.69-26.11,10.22-52.43,19.91-78.9,29.27-3.55,1.25-7.12,2.48-10.68,3.71-.68.24-1.28.4-2.09-.02-15.2-7.8-30.43-15.56-45.66-23.32-9.97-5.09-19.93-10.19-29.93-15.21-1.25-.63-1.79-1.35-1.83-2.66-.09-3.03-.38-6.05-.45-9.08-.48-21.22-1.03-42.43-1.34-63.65-.29-19.79-.38-39.59-.41-59.4,0-5.8.51-11.6.79-17.39.02-.32.09-.63.16-1.12.83.32,1.57.6,2.31.88,16.28,6.09,31.94,13.47,47.68,20.68,35.69,16.36,71.41,32.68,106.98,49.29,32.59,15.22,65.37,30.06,98.35,44.51,1.47.64,2.93,1.33,4.71,2.15Z"/>
  <path class="cls-1" d="M639.45,206.27c-.15.21-.37.7-.76,1-.46.36-1.04.59-1.58.85-21.91,10.71-43.83,21.43-65.74,32.14-.54.27-1.08.55-1.63.78-1.21.5-1.98.32-2.44-.53-.43-.81-.1-1.51,1.07-2.16.47-.26.95-.49,1.44-.72,22.09-10.8,44.19-21.6,66.29-32.4.47-.23.97-.49,1.49-.59.96-.18,1.8.47,1.86,1.63Z"/>
  <path class="cls-1" d="M618.24,615.22c1.29,1.66.82,2.79-1.29,3.15-3.27.57-6.54,1.07-9.8,1.6-4.72.78-9.45,1.57-14.32,2.38.09.66.14,1.2.25,1.75,2.89,14.82,5.78,29.64,8.67,44.47.05.25.13.5.19.75.54,2.12.1,2.83-2.2,3.14-2.68.36-5.4.49-8.06.93-6.61,1.12-13.13,2.63-19.18,5.5-1.8.85-3.49,1.95-5.14,3.06-1.33.9-1.81,1.12-2.7.59-1.05-.63-1.27-1.54-1.05-2.68.56-3.05,1.02-6.11,1.54-9.16,1.98-11.71,3.96-23.41,5.94-35.12.28-1.64.54-3.28.85-5.16-.92.41-1.59.7-2.25,1-5.96,2.78-11.92,5.56-17.87,8.34-.49.23-.98.6-1.47.62-.61.01-1.46-.11-1.77-.49-.31-.38-.33-1.32-.04-1.73,5.46-7.94,8.92-16.76,12.45-25.54,4.76-11.86,9.49-23.72,13.87-35.71,2.64-7.23,4.57-14.7,6.83-22.05.31-.98.58-2.01,1.1-2.89.32-.54,1.03-1.08,1.66-1.22.9-.2,1.51.52,1.81,1.27.46,1.14.83,2.32,1.16,3.49,3.08,10.56,6.49,21.02,11.05,31.1,4.35,9.61,10.32,18.26,17.55,26.12.76.83,1.57,1.62,2.24,2.5Z"/>
  <path class="cls-1" d="M544.68,154.19c.4.16.62.75.98,1.24-.5.68-.89,1.27-1.34,1.81-4.4,5.16-8.8,10.31-13.21,15.46-8.18,9.55-16.35,19.1-24.53,28.65-.38.45-.77.9-1.23,1.28-.57.47-1.24.51-1.86.05-.67-.5-.89-1.15-.44-1.87.31-.5.7-.95,1.08-1.4,12.53-14.65,25.07-29.3,37.62-43.95.38-.45.75-1,1.25-1.23.47-.22,1.19-.23,1.67-.04Z"/>
  <path class="cls-4" d="M523.65,268.34c1.54,2.94,2.31,6.09,1.42,9.37-.38,1.42-.86,2.88-1.64,4.14-4.5,7.34-11.12,11.27-20.22,10.95-2.59-.09-5.08-.75-7.46-1.71-9.13-3.67-15.91-9.7-20.12-18.25-3.5-7.1-5.15-14.64-5.74-22.42-.24-3.18.11-6.33.89-9.41.37-1.49,1.05-2.91,1.67-4.33.5-1.14.42-1.88-.45-2.36-.79-.43-1.63-.28-2.24.69-.69,1.1-1.28,2.28-1.66,3.5-1.72,5.47-1.88,11.05-1,16.66.3,1.91.63,3.81.92,5.54-1.11,1.02-2.12,1.94-3.26,2.99-.45-1.05-1.02-2.14-1.39-3.28-1.73-5.36-2.71-10.79-1.31-16.38.08-.31.11-.64.11-.96.01-.73-.33-1.24-1.1-1.43-.83-.2-1.58.04-1.84.8-.38,1.16-.7,2.37-.84,3.58-.79,6.5.54,12.7,3.24,18.66.24.53.51,1.05.83,1.72-10.52,11.31-19.99,23.22-29.23,35.54,0-.47-.01-.95,0-1.42.23-9.43,1.08-18.8,3.23-28.03,2.54-10.91,6.6-21.25,12.74-30.81,4.28-6.67,9.53-12.55,16.23-17.14,4.95-3.38,10.34-5.91,16.39-6.95,3.41-.59,6.84-.85,10.3-.21,4.23.77,7.7,2.73,10.38,5.95,2.77,3.34,4.53,7.17,5.93,11.17.71,2.02,1.34,4.06,1.88,6.12,1.67,6.31,4.44,12.16,7.76,17.81,1.92,3.27,3.82,6.54,5.57,9.88Z"/>
  <path class="cls-8" d="M523.15,626.19c.32,1.37-3.99,34.15-5.96,47.66-2.31,15.9-4.31,31.83-6.45,47.78-16.1,4.48-32.24,8.97-48.58,13.51,3.37-33.88,6.73-67.74,10.09-101.59h.46c.94,2.48,1.86,4.96,2.83,7.41.34.87.44,2.03,1.71,2.18,1.26.15,1.69-.91,2.27-1.67,1.31-1.72,2.59-3.46,4.01-5.37.32.49.61.81.77,1.18.84,1.97,1.65,3.95,2.47,5.93.15.36.28.73.46,1.07.79,1.45,1.75,1.64,3.05.53,2.5-2.18,4.95-4.41,7.43-6.61.48-.43.99-.83,1.64-1.36,1.15,2.7,2.32,5.16,3.24,7.72,1.1,3.05,2.61,3.12,4.56.71,4.76-5.88,9.69-11.62,14.55-17.42.46-.55.94-1.08,1.45-1.67Z"/>
  <path class="cls-7" d="M432.49,264.67c.49,1.06,1.11,2.05,1.6,2.95-.94,5.07-2.02,10.06-2.75,15.09-1.15,7.93-1.58,15.92-1.36,23.93.02.64-.29,1.36-.63,1.94-2.14,3.67-4.37,7.28-6.48,10.96-3.73,6.52-6.86,13.31-9.53,20.28-2.57,6.71-4.05,13.64-4.41,20.77-.07,1.36-.57,2.25-1.59,3.28-5.76,5.77-12.92,9.54-20.18,13.19-.23.11-.49.18-.94.33.05-.46.05-.8.11-1.13.59-3.57,1.2-7.13,1.77-10.69.12-.72.29-1.28.97-1.79.58-.44.93-1.24,1.22-1.94,2.63-6.46,4.18-13.19,5.45-19.99,2.57-13.77,3.63-27.64,2.84-41.61-.29-5.01-1.08-10-1.65-15,0-.06-.02-.12-.03-.19-.32-1.52-.92-2.1-2.01-1.94-1.06.15-1.41.79-1.21,2.45.42,3.4.94,6.78,1.3,10.18.84,8.04.8,16.1.26,24.16-.66,9.93-2.12,19.76-4.4,29.46-.29,1.25-.68,2.49-1.04,3.74-.07.24-.2.45-.49.63.1-1.08.21-2.17.29-3.26.88-12.88,1.11-25.78.41-38.67-.58-10.65-2.16-21.17-4.77-31.54-.14-.57-.27-1.14-.47-1.68-.43-1.15-1.18-1.63-2.08-1.4-.99.26-1.34,1.05-1.02,2.36.42,1.69.89,3.37,1.27,5.07,2.24,10.11,3.55,20.34,3.94,30.68.35,9.29.37,18.57-.15,27.85-.56,10.18-1.22,20.35-3.18,30.39-.28,1.46-.65,2.9-.93,4.36-.21,1.1-.75,1.82-1.89,2.25-6.85,2.59-13.61,5.45-20.54,7.83-16.38,5.62-33.07,10.27-50.09,13.79-10.58,2.19-21.22,4.09-31.85,6.05-8.44,1.55-16.88,3.06-25.35,4.48-4.06.68-8.17,1.13-12.26,1.68-.26.03-.53,0-.73,0-2.43-3.59-4.81-7.11-7.2-10.62-.37-.54-.76-1.07-1.23-1.54-.57-.56-1.27-.72-2.02-.24-.72.46-.9,1.2-.46,2.05.18.34.46.63.68.96,1.8,2.65,3.61,5.3,5.4,7.96.36.53.65,1.1,1.09,1.86-2.1.24-3.97.44-5.73.64-.23-.16-.36-.21-.44-.32-5.59-7.89-12.89-14.26-20.39-20.42-4.2-3.45-8.66-6.63-13-9.93-.37-.28-.76-.55-1.18-.75-.76-.36-1.47-.23-1.99.42-.53.65-.47,1.34.12,1.92.42.41.93.75,1.41,1.1,8.32,6.02,16.4,12.3,23.66,19.48,2.39,2.37,4.54,4.95,6.78,7.45.33.37.55.83.92,1.41-1.33.14-2.45.31-3.58.34-.4,0-.86-.28-1.19-.55-4.51-3.61-9-7.26-13.51-10.86-11.05-8.82-22.85-16.57-35.81-22.64-2.18-1.02-4.49-1.81-6.76-2.65-1.2-.45-2.04-.18-2.41.66-.37.84.03,1.6,1.15,2.15.36.18.76.28,1.13.44,3.74,1.65,7.61,3.1,11.21,5,10.69,5.66,20.69,12.28,29.98,19.87,3.09,2.52,6.18,5.03,9.26,7.56.49.41.96.85,1.71,1.51-3.01.29-5.66.62-8.33.78-9.8.6-19.61,1.19-29.42,1.69-2.97.15-5.97-.02-8.95-.05-.47,0-.95-.06-1.4-.18-1.94-.54-2.48-.34-3.56,1.14-3.85,5.31-7.57,10.7-11.63,15.85-3.94,5-8.26,9.72-12.49,14.65-7.02-4.69-14.01-9.09-21.67-11.56-.61-1.27-.94-2.31-1.56-3.18-4.88-6.87-8.89-14.17-11.75-22.01-2.83-7.79-4.66-15.77-4.22-24.08.12-2.24.42-4.51.99-6.68,1.59-6,5.6-10.21,11.28-13.01,4.98-2.45,10.32-3.88,15.84-4.65,8.26-1.16,16.57-1.68,24.93-1.58,2.1.02,4.19.2,6.29.31.41.02.88.19,1.2.05,1.7-.72,2.99.27,4.38.85,5.63,2.33,11.58,3.57,17.59,4.59,6.21,1.06,12.45,1.85,18.76,2.01.64.02,1.34.22,1.91.52,3.49,1.85,6.94,3.76,10.41,5.66,17.4,9.52,35.92,16.25,55.51,20.35,1.26.27,2.52.51,3.79.71,1.11.17,1.85-.27,2.05-1.1.2-.85-.23-1.58-1.33-1.84-2.5-.58-5.03-1.02-7.53-1.59-19.25-4.37-37.36-11.41-54.32-21.11-.55-.32-1.08-.68-1.92-1.21.67-.11.97-.19,1.27-.2,4.81-.22,9.62-.4,14.42-.66,1.15-.06,2.08.21,3.01.84,12.38,8.42,26.2,13.63,40.96,16.79,5.57,1.19,11.22,1.83,16.91,2.01,4.01.12,7.99-.24,11.88-1.25,8.87-2.32,15.04-7.66,18.96-15.47,2.68-5.32,3.79-10.99,3.99-16.86.25-7.56-1.16-14.89-3.33-22.12-.21-.72-.67-1.37-.95-1.94,6.65-6.2,13.28-12.38,20.14-18.77.03.72.12,1.32.07,1.9-.46,6.5-.82,13-1.46,19.48-.85,8.61-2.19,17.16-4.32,25.56-.8,3.13-1.8,6.21-2.71,9.31-.1.31-.21.62-.32.92-.28.87.01,1.54.86,1.92.82.36,1.79.03,2.14-.92.89-2.43,1.79-4.87,2.44-7.37,2.71-10.41,4.37-20.98,5.43-31.65.73-7.39,1.37-14.78,1.24-22.21-.02-.85.49-1.28.96-1.81,4.39-4.91,8.89-9.74,13.14-14.75,6.54-7.72,11.97-16.1,16.19-25.18,1.59-3.44,2.84-6.96,3.53-10.67.51-2.79.45-5.53-.81-8.15-.34-.72-.33-1.4.09-2.02,3.74-5.59,8.33-10.19,15.43-11.77,3.81-.84,7.54-.34,11.19.88,7.66,2.54,14.12,6.75,19.48,12.53,4.15,4.48,7.78,9.27,10.32,14.76Z"/>
  <path class="cls-1" d="M426.79,121.83c.02.45-.05.9-.11,1.34-.75,6.2-1.49,12.41-2.25,18.61-.87,7.17-1.76,14.32-2.63,21.48-.71,5.89-1.41,11.77-2.12,17.66-.04.32-.1.64-.2.94-.28.76-.85,1.16-1.71,1.05-.87-.12-1.27-.67-1.31-1.47-.01-.25,0-.51,0-.49.49-4.12.94-7.96,1.41-11.8.89-7.35,1.8-14.71,2.7-22.06.99-8.19,1.98-16.38,2.97-24.56.05-.38.12-.76.23-1.14.22-.79.76-1.2,1.63-1.16.86.05,1.36.6,1.39,1.59Z"/>
  <path class="cls-3" d="M409.67,515.57c.02.5,0,1.01,0,1.63-38.73,9.75-77.38,19.48-116.21,29.26-40.6-41.35-81.33-82.43-121.29-124.53.58-.06.83-.12,1.07-.11,8.01.24,15.99-.33,23.97-.88,8.58-.59,17.14-1.38,25.71-2.15,5.66-.5,11.33-1,16.97-1.7,6.51-.8,13.03-1.66,19.48-2.78,13.12-2.28,26.19-4.79,39.28-7.15,16.18-2.92,32.09-6.87,47.78-11.59,12.86-3.87,25.61-7.98,37.75-13.66,5.9-2.76,11.76-5.6,17.13-9.24,1.98-1.34,3.84-2.85,5.76-4.28.3-.23.61-.44,1.12-.81,0,.76.02,1.25,0,1.73-.25,6.51-.67,13.01-.72,19.52-.27,28.64.46,57.28.96,85.91.17,10.06.47,20.12.76,30.18.1,3.54.31,7.09.46,10.63Z"/>
  <path class="cls-5" d="M373.74,254.02c.29,2.62-.28,5.14-1.05,7.62-1.94,6.23-5.1,11.93-8.53,17.5-4.87,7.87-10.77,15.02-17.06,21.88-9.18,10.02-18.68,19.77-29.23,28.53-9.04,7.51-18.42,14.64-28.21,21.25-.59.4-1.21.75-1.83,1.12-.06-.08-.11-.16-.17-.23,2.11-3.45,4.28-6.87,6.31-10.36,4.95-8.51,8.41-17.59,11.22-26.9.04-.12.1-.24.13-.37.28-1.21-.03-1.97-.92-2.26-.98-.32-1.8.16-2.23,1.41-1.24,3.61-2.35,7.27-3.7,10.84-5.03,13.29-12.17,25.45-21.87,36.18-3.21,3.54-6.88,6.63-11.48,8.45-1.79.71-3.73,1.24-5.65,1.46-3.89.45-7.17-.89-9.8-3.67-3.4-3.59-4.94-7.94-5.63-12.62-1.05-7.13-.5-14.15,1.83-21.02.4-1.16.75-2.35.99-3.54.22-1.11-.23-1.79-1.1-1.99-.9-.21-1.6.2-1.97,1.24-3.55,10.04-4.93,20.21-1.87,30.6.63,2.15,1.69,4.19,2.63,6.46-1.66.25-3.35.57-5.06.77-7.39.88-14.8,1.54-22.25,1.78-14.92.48-29.64-.75-44.01-4.82-3.13-.89-6.16-2.04-8.83-3.86-1.41-.96-2.74-2.12-3.81-3.42-1.51-1.83-1.21-3.62.68-5.09,2.24-1.74,4.9-2.71,7.66-3.45.26-.07.54-.08.8-.14.92-.2,1.96-.31,2.17-1.43.2-1.07-.68-1.65-1.4-2.19-.63-.47-1.4-.77-2.14-1.1-4.13-1.82-8.18-3.75-11.83-6.36-2.24-1.6-4.29-3.37-5.89-5.57-2.92-4-2.64-7.94,1.05-11.34,1.44-1.32,3.16-2.48,4.95-3.32,6.76-3.18,13.88-5.1,21.5-5.01,2.44.03,4.88.06,7.32.1.41,0,.88.14,1.2-.02.5-.23,1.14-.59,1.28-1.02s-.13-1.13-.46-1.53c-.36-.43-1.02-.61-1.51-.96-1.34-.97-2.79-1.85-3.95-2.99-1.6-1.58-1.59-3.23.04-4.79,1.23-1.18,2.64-2.24,4.13-3.1,4.74-2.75,9.97-4.32,15.37-5.36,7.41-1.44,14.88-1.89,22.44-1.31,5.06.38,10.14.61,15.12,1.65,1.12.24,2.23.54,3.34.82,1.74.43,3.32,1.08,4.38,2.58,1.34,1.86,3.61,2.18,5.63,2.83,5.23,1.69,10.65,1.9,16.08,1.42,6.67-.59,13.03-2.35,18.99-5.28,4.9-2.41,9.21-5.45,12.04-10.09,1.11-1.81,1.86-3.71,1.97-5.83.12-2.44-.78-4.55-2.22-6.49.05-.21.04-.42.14-.58,5.92-9.78,12.83-18.83,21.51-26.58,3.71-3.31,7.65-6.4,12.14-8.72,1.76-.92,3.68-1.63,5.62-2.16,2.01-.55,2.98.18,3.07,2.17.06,1.2-.1,2.47-.46,3.62-.65,2.1-1.51,4.14-2.29,6.19-.16.42-.4.83-.53,1.25-.27.9.06,1.62.85,1.92.8.31,1.46.08,1.95-.57.19-.26.33-.57.46-.86.35-.77.81-1.52,1-2.32.58-2.49,2.29-4.17,4.27-5.67,3.75-2.83,7.85-5.04,12.52-6.22.45-.11.92-.21,1.39-.24,1.84-.12,2.58.39,3.07,2.12.67,2.38.34,4.74-.35,7.06-1.6,5.42-4.08,10.51-6.72,15.53-.24.46-.54.9-.7,1.39-.21.68-.01,1.41.71,1.61.56.16,1.34.06,1.85-.21.47-.27.77-.88,1.03-1.4,1.54-3.15,3.07-6.31,4.57-9.49.71-1.51.67-1.53,2.36-1.54,3.68-.03,6.54,2.44,6.93,6.02ZM289.95,318.11c.26-1.63.23-3.35.03-5-.4-3.36-3.36-6.85-8.36-5.67-4.84,1.14-8.85,3.49-12.38,6.7-7.63,6.96-11.77,15.62-13.45,25.43-.46,2.69-.5,5.39.31,8.05.6,1.97,1.6,3.71,3.28,5.01.66.51,1.49.89,2.29,1.15.7.22,1.34-.11,1.68-.77.35-.66.19-1.27-.38-1.74-.3-.25-.68-.41-1.01-.64-1.33-.88-2.19-2.05-2.62-3.94,2.41,1.03,4.58,1.26,6.83.81,2.42-.49,4.63-1.47,6.62-2.82,9.66-6.54,15.38-15.42,17.14-26.56Z"/>
  <path class="cls-4" d="M371.87,207.7c.29,1.75.31,3.62.03,5.37-.41,2.61-1.77,3.38-4.32,2.37-2.48-.99-4.76-2.43-7.17-3.59-1.75-.85-2.58-2.14-3.13-3.94-3.2-10.37-8.85-19.48-16.24-27.64-1.9-2.1-3.9-4.12-5.86-6.18-.18-.19-.36-.39-.56-.56-.94-.8-1.83-.88-2.5-.21-.61.6-.61,1.41.12,2.26.77.89,1.62,1.73,2.46,2.57,6.3,6.31,11.66,13.24,15.62,21.12,4.14,8.24,6.35,16.97,7.11,26.05.07.84.05,1.68.06,2.51.02,1.73-.45,2.86-2.49,3.62-2.88,1.06-5.49,2.76-8.2,4.21-.46.25-.89.57-1.48.94-.13-.69-.24-1.24-.34-1.79-.57-3.15-2.68-4.73-6.03-4.34-1.26.14-2.58.41-3.7.95-2.76,1.35-5.55,2.71-8.1,4.38-7.61,4.99-13.94,11.26-19.55,18.2-1.48,1.84-2.94,3.68-4.3,5.39-14.51-5.66-28.86-5.65-43.22-.06-8.37,3.26-15.96,7.69-22.18,14.02-1.47,1.49-2.66,3.24-3.92,4.91-.31.4-.6.95-.57,1.41.03.5.34,1.25.74,1.41.51.2,1.24-.04,1.85-.18.2-.05.36-.37.49-.6,2.44-4.32,6.23-7.47,10.26-10.32,7.66-5.41,16.13-9.18,25.55-10.92,6.06-1.12,12.13-1.03,18.19-.06,3.68.59,7.32,1.31,10.84,3.15-1.5,2.31-2.97,4.57-4.5,6.92-.67-.44-1.23-.78-1.76-1.14-2.78-1.88-5.97-2.69-9.26-3.28-8.41-1.52-16.61-.69-24.54,2.28-6.13,2.31-11.23,5.92-14.88,11.25-2.11,3.07-3.18,6.39-2.83,10.08.03.25.03.51.03.77,0,.06-.04.11-.14.38-2.57-.48-5.07-1.07-7.61-1.4-13.18-1.67-26.33-2.14-39.32,1.32-4.06,1.08-8,2.46-11.62,4.53-1.67.95-3.29,2.06-4.71,3.33-3.31,2.97-3.43,6.26-.58,9.58.21.25.43.49.87.99-.78.06-1.32.15-1.87.14-8.09-.1-15.68,1.86-22.95,5.09-2.61,1.15-4.96,2.66-6.89,4.71-4,4.23-4.46,9.24-1.31,14.05,1.57,2.38,3.6,4.35,5.89,6.09,3.2,2.42,6.67,4.41,10.35,6.1.65.29,1.29.62,2.15,1.03-.67.33-1.12.6-1.6.79-2.45.99-4.76,2.16-6.55,4.12-.32.36-1.08.58-1.58.51-4.85-.7-9.56-1.88-13.83-4.26-1.33-.74-2.53-1.73-3.63-2.76-1.19-1.11-1.73-2.49-1.76-4.16-.12-5.36-1.84-10.4-3.76-15.38-.43-1.12-1.29-1.49-2.2-1.18-.88.31-1.2,1.11-.82,2.29.83,2.59,1.79,5.14,2.51,7.76.94,3.45,1.45,6.96.68,10.53-.05.19-.06.38-.11.57-.7,2.73-2.2,3.46-4.96,2.36-2.41-.97-4.44-2.49-6.2-4.29-4.46-4.54-7.63-9.83-9.88-15.64-1.77-4.57-2.72-9.31-3.22-14.13-.01-.13,0-.26-.02-.39-.16-1.21-.72-1.84-1.66-1.83-1.01,0-1.76.79-1.58,2.05.49,3.38,1,6.77,1.75,10.1.49,2.19,1.24,4.37,2.19,6.42,1.07,2.32.19,4.2-.89,6.5-.7-.64-1.33-1.03-1.7-1.58-1.54-2.27-3.25-4.48-4.44-6.91-3.54-7.24-5.57-14.86-6.48-22.84-.67-5.98-.48-11.82.6-17.69.15-.83.42-1.63.61-2.44.28-1.15-.1-1.94-1.01-2.2-.88-.25-1.76.22-2.08,1.37-.5,1.86-.92,3.76-1.24,5.67-.78,4.74-.8,9.51-.38,14.28.22,2.5-.9,4.6-2.1,6.93-1.16-1.63-1.55-3.24-1.94-4.85-1.54-6.36-1.5-12.81-1.1-19.26.46-7.48,1.62-14.88,3.57-22.15,1.84-6.85,3.78-13.68,6.74-20.21,2.06-4.53,4.55-8.78,7.75-12.67.29-.35.62-.7.85-1.08.51-.83.4-1.6-.29-2.07-.78-.52-1.54-.4-2.2.21-.34.32-.62.68-.92,1.04-3.69,4.43-6.54,9.33-8.69,14.58-.54,1.31-1.28,2.38-2.45,3.23-1.03.73-2,1.55-3.04,2.27-.59.4-1.27.67-2.17,1.14-.21-.76-.49-1.29-.46-1.8.11-1.73.14-3.5.57-5.17,1.89-7.28,5.02-14.04,9.95-19.94,1.46-1.76,3.08-3.46,4.88-4.9,1.47-1.17,1.75-2.66,2.07-4.2.09-.43-.19-1.03-.5-1.41-5.07-6.13-11.02-11.24-18.88-13.89-7.69-2.59-15.21-.34-20.3,5.86-2.9,3.54-4.59,7.59-5.33,11.99-1.33,7.83-.56,15.43,3.04,22.67.2.41.39.83.66,1.2.62.87,1.49,1.12,2.25.66.79-.49,1.01-1.19.6-2.02-.25-.53-.53-1.05-.77-1.58-3.65-8.01-4.15-16.21-1.44-24.55,1.12-3.45,3.06-6.46,5.95-8.85,2.77-2.29,6-3.4,10.04-3.35-.45.79-.79,1.37-1.11,1.96-4.01,7.42-5.41,15.21-3.55,23.43.62,2.75,1.99,5.2,3.75,7.44,1.71,2.18,4.02,3.58,6.6,4.45-.55,2.44-1.21,4.74-1.55,7.09-.22,1.57-.2,3.24.12,4.79.57,2.76,2.84,3.75,5.53,2.62.73-.31,1.41-.73,2.5-1.3-.41,1.34-.72,2.4-1.06,3.45-.41,1.29-.49,2.92-1.37,3.76-.88.85-2.59.93-3.94,1.32-4.72,1.37-9.47,2.67-14.37,3.39-6.36.94-12.64,1.23-18.85-.93-13-4.52-19.92-13.58-21.6-26.37-1.41-10.72,1.07-20.9,5.49-30.72,1.04-2.31,2.24-4.55,3.36-6.83.23-.46.49-.93.64-1.42.23-.7-.05-1.28-.7-1.65-.74-.42-1.49-.31-2,.32-.45.55-.78,1.2-1.1,1.84-1.5,2.96-1.02,2.36-4.1,2.05-1-.1-1.99-.37-2.94-.7-2.89-.98-4.04-2.8-3.71-5.67.34-2.97,1.62-5.58,3.44-7.96,3.37-4.41,7.72-7.78,12.74-10.33,6.48-3.29,13.42-4.72,20.77-4.36,1.08.05,1.87.43,2.72,1.05,1.98,1.46,4.07,2.77,6.13,4.14.27.19.58.33.89.46.82.33,1.46.05,1.93-.61.45-.62.33-1.26-.19-1.76-.43-.41-.97-.7-1.47-1.02-1.94-1.26-4.11-2.2-5.47-4.21-.55-.83-1.7-1.28-2.29-2.1-1.19-1.6-.76-2.76,1.22-3.4,1.08-.34,2.24-.54,3.37-.62,6.24-.44,12.27.68,18.23,2.31,13.13,3.58,24.71,9.79,34.75,18.6,2.5,2.2,4.77,4.58,6.51,7.39.07.11.12.23.2.33.64.82,1.52,1.08,2.28.68.73-.4.96-1.25.5-2.22-.3-.64-.7-1.24-1.18-2.09,2.33-3,4.5-6.22,7.11-9.07,11.66-12.74,24.66-24.12,38.92-34.2,11.62-8.22,23.73-15.64,36.89-21.44,6.23-2.74,12.65-4.92,19.4-6.18,2.88-.54,5.78-.74,8.7-.53.97.07,1.92.39,3.16.66-.41.85-.57,1.5-.97,1.96-2.25,2.65-4.52,5.29-6.9,7.85-.41.45-1.35.49-2.06.65-5.41,1.18-10.83,2.28-16.21,3.53-1.7.4-3.29,1.18-4.92,1.81-.43.17-.86.4-1.23.68-.75.55-.93,1.4-.47,2.05.49.68,1.2.85,1.97.55,1.25-.49,2.42-1.2,3.71-1.55,4.1-1.1,8.2-2.22,12.36-3.07,9.62-1.96,19.37-3.12,29.17-3.79,9.17-.62,18.29-.1,27.22,2.18,1.82.46,3.58,1.18,5.31,1.89.79.32,1.54.84,2.17,1.41.85.76.85,1.36.06,2.18-.5.51-1.1.96-1.71,1.36-4.76,3.1-10.1,4.92-15.64,6.27-.65.16-1.29.34-2.13.57-1.62-1.09-3.37-2.29-5.14-3.46-3.23-2.12-6.77-3.47-10.63-4.14-5.71-.98-10.58.57-14.77,4.26-4.38,3.88-6.79,8.79-8.01,14.27-1.33,5.99-1.27,12.04-.63,18.11.13,1.21.3,2.43.52,3.64.27,1.5.96,2.12,1.99,1.9.97-.21,1.34-.95,1.19-2.32-.25-2.31-.54-4.62-.73-6.93-.4-4.85-.14-9.67,1.01-14.42.95-3.96,2.66-7.57,5.5-10.65,4.16-4.51,9.23-6.01,15.38-4.41,5.2,1.35,9.32,4.36,13.35,7.53,4.58,3.62,8.03,8.2,11.49,12.75,1.5,1.98,2.85,4.08,4.27,6.12.26.38.49.78.78,1.14.57.68,1.27.97,2.14.51.81-.42,1.01-1.19.53-2.18-.19-.41-.46-.79-.72-1.17-4.14-6.22-8.58-12.23-14.03-17.5-.13-.12-.17-.32-.3-.57,1.83-.71,3.37-.95,5.35-.01,3.13,1.49,6.51,2.54,9.85,3.57,19.9,6.17,38.06,15.48,54.8,27.36,6.6,4.68,12.71,9.87,17.6,16.25,3.52,4.59,6.16,9.58,7.11,15.23ZM328.43,208.73c-.27-1.86-.46-4.57-1.05-7.2-1.49-6.62-5.12-11.88-11.46-15.19-2.61-1.36-5.32-2.54-7.98-3.79-.3-.14-.68-.37-.94-.29-.59.18-1.27.41-1.66.83-.51.56-.23,1.27.34,1.71.46.36,1.04.59,1.58.84,2.3,1.09,4.64,2.11,6.9,3.27,4.7,2.41,7.83,6.14,9.36,10.96.73,2.32,1.24,4.77,1.38,7.19.51,8.48-1.59,16.47-5.35,24.12-.75,1.53-.65,2.41.34,2.83.99.43,1.83-.02,2.59-1.51,3.71-7.23,5.5-14.9,5.94-23.76ZM304.88,242.89c9.9-9.56,14.08-21.29,13.09-34.55-.54-7.31-5.5-16.3-17.65-18.52-6.41-1.16-12.87-1.77-19.4-1.08-3.71.39-7.39.95-10.87,2.29-3.44,1.33-6.54,3.14-8.72,6.1-.87,1.18-1.54,2.43-1.58,3.91-.03,1.1.43,1.77,1.28,1.93.83.16,1.63-.33,1.83-1.39.51-2.63,2.3-4.33,4.48-5.74,3.72-2.4,7.94-3.33,12.42-3.58-.5.3-.99.6-1.5.9-3.42,2.03-6.44,4.5-8.98,7.49-5.84,6.84-8.87,14.71-9.36,23.47-.36,6.37.97,12.43,4.09,18.12,4.39,8.04,14.31,11.7,22.31,10.08,7.13-1.45,13.47-4.51,18.57-9.44ZM245.5,255.47c2.72-5.49,4.51-11.26,4.06-17.38-.71-9.48-5.4-16.91-13.76-22.11-6.04-3.75-12.69-5.1-19.8-3.59-4.81,1.03-9.23,2.97-13.21,5.76-1.63,1.14-3.2,2.37-5.16,3.84,3.39-6.4,10.02-13.05,16.17-16.47,2.25-1.24,4.62-2.15,7.15-2.66.59-.12,1.21-.16,1.8-.31,1.1-.28,1.62-.93,1.49-1.76-.14-.85-.8-1.34-1.96-1.24-1.07.1-2.14.31-3.19.58-6.35,1.61-11.59,5.02-15.96,9.54-10.26,10.65-16.55,23.2-18.77,37.47-1.03,6.66-.19,13.22,2.6,19.52,3.61,8.18,13.86,16.2,26.98,13.95,7.72-1.33,14.36-4.97,20.04-10.04,4.82-4.32,8.67-9.4,11.5-15.11ZM226.77,182.05c.83-.42,1.12-1.34.47-2.35-1.36-2.07-2.64-4.24-4.32-6.06-3.5-3.81-8.01-5.84-13.12-6-5.5.07-10.02,2.03-14.15,4.89-5.58,3.85-9.83,8.85-13.33,14.44-5,7.97-7.85,16.67-9.49,25.77-.06.32-.08.64-.1.96-.06.88.29,1.52,1.24,1.74.88.2,1.58-.29,1.92-1.32.12-.37.15-.76.22-1.14.93-4.96,2.2-9.83,4.07-14.55,3.02-7.65,7.31-14.53,13.47-20.28,3.14-2.92,6.67-5.27,10.87-6.61,2.01-.64,4.06-1.02,6.2-.76,4.79.58,8.49,2.88,11.25,6.58.9,1.2,1.62,2.53,2.46,3.79.67,1.01,1.54,1.32,2.36.9ZM186.08,276.95c.74-.44.89-1.15.55-1.86-.27-.58-.68-1.11-1.05-1.65-3.33-4.9-6-10.08-7.29-15.85-1.63-7.25-.99-14.22,2.59-20.87.12-.23.28-.45.36-.7.26-.8-.05-1.41-.77-1.81-.67-.36-1.35-.24-1.85.3-.4.43-.74.93-1,1.44-2.32,4.61-3.46,9.48-3.49,14.78.14,1.41.23,3.02.46,4.62,1.07,7.58,4.4,14.3,8.84,20.57.19.27.38.54.62.77.6.57,1.32.68,2.03.25Z"/>
  <path class="cls-4" d="M362.79,114.99c.03.51,0,1.03-.01,1.55-.01.19-.07.38-.16.79-.51-.25-1.01-.4-1.37-.7-1.52-1.29-2.99-2.62-4.48-3.94-2.32-2.07-4.63-4.16-6.96-6.24-.4-.35-.83-.67-1.29-.93-.72-.41-1.45-.34-2.03.25-.53.53-.54,1.15-.18,1.79.06.11.14.23.21.33,3.86,5.05,5.9,10.84,7.54,16.79,3.71,13.49,2.78,26.69-2.76,39.62-1.26,2.95-3.23,5.17-6.37,6.39-6.06-3.67-12.11-7.33-18.4-11.14.07-.41.14-1.03.28-1.63,1.77-7.71,2.99-15.48,2.6-23.4-.2-4.07-.81-8.09-2.33-11.93-1.36-3.42-3.06-6.61-6.88-8.57,2.67-1.85,5.34-3.1,8.43-3.34,1.44-.11,2.67.6,3.46,1.72.75,1.06,1.28,2.25,1.86,3.41.2.4.25.88.45,1.28.39.81,1.2,1.17,1.99.89.8-.29,1.12-.88,1.07-1.68-.41-6.12-6.32-9.97-12.44-8.09-2.87.88-5.45,2.29-7.85,3.99-3.29,2.32-6.09,5.12-8.61,8.18-5.94,7.21-9.97,15.31-12.51,24.12-.16.56-.33,1.11-.51,1.67-.04.11-.17.19-.38.4-3.36-1.14-6.76-2.29-10.44-3.54,2.12-.98,3.94-1.7,5.63-2.63,1.81-1.01,3.62-2.07,5.18-3.38,2.53-2.14,2.47-4.96-.14-7-1.33-1.05-2.94-1.83-4.54-2.5-4.19-1.76-8.69-2.44-13.19-3.03-2-.26-4.01-.44-6.25-.68.19-.86.31-1.6.51-2.33,1.6-5.85,4.38-11.23,7.5-16.46,5.44-9.12,12.25-17.2,20.92-23.72,5.57-4.19,11.64-7.59,18.64-9.15,1.96-.44,4.01-.54,6.02-.65,1.15-.06,2.27.28,3.21,1.26-.38.49-.7.95-1.07,1.38-1.82,2.07-3.64,4.15-5.5,6.19-.27.29-.79.42-1.22.55-1.94.58-3.92,1.05-5.82,1.71-1.58.55-3.1,1.28-4.59,2.03-1.2.61-1.49,1.36-1.07,2.17.47.92,1.38,1.16,2.59.51,4.57-2.45,9.57-3.62,14.65-4.38,6.74-1.01,13.35-.6,19.67,2.24,5.13,2.31,8.84,5.93,11.49,10.58,3.42,6,5.1,12.46,5.44,19.26Z"/>
  <path class="cls-3" d="M356.03,770.49c.08.63.15,1.27-.07,2.1-.49-.48-1-.94-1.45-1.45-7.11-8.05-14.32-16.01-21.28-24.17-12.03-14.13-23.82-28.45-35.87-42.56-9.66-11.31-19.56-22.42-29.36-33.63-.76-.88-1.46-1.81-2.29-2.85.75-.72,1.32-1.33,1.96-1.88,7.96-6.82,15.88-13.67,23.9-20.43,13.03-11,26.14-21.91,39.16-32.93,3.29-2.78,6.35-5.81,9.51-8.72.47-.44.97-.86,1.8-1.59.24,2.79.46,5.16.64,7.54.75,9.78,1.51,19.55,2.22,29.32.92,12.74,1.77,25.48,2.69,38.21.7,9.71,1.41,19.43,2.21,29.13.84,10.22,1.74,20.43,2.67,30.65.67,7.32,1.4,14.64,2.16,21.95.4,3.79.92,7.56,1.39,11.33Z"/>
  <path class="cls-6" d="M341.13,598.67c-.66.66-1.2,1.21-1.77,1.76-8.24,7.94-16.99,15.38-25.84,22.7-13.1,10.84-25.98,21.91-39.12,32.69-15.59,12.79-28.16,27.84-38.11,44.93-1.6,2.76-3.31,5.46-5.03,8.29-.29-.24-.53-.37-.67-.55-4.23-5.32-9.15-10.03-14.09-14.73-26.81-25.5-54.5-50.12-82.16-74.77-29.04-25.89-58.02-51.85-87-77.79-4.05-3.62-8-7.35-11.99-11.03-.42-.4-.81-.83-1.33-1.36,10.23-4.5,20.09-9.34,29.55-14.88,9.47-5.54,18.56-11.6,27.16-19.01.07,1.11.13,1.78.16,2.46.17,3.35.17,6.71.53,10.04.38,3.45,1.66,6.66,4.05,9.35,4.95,5.55,11.29,6.83,18.4,5,8.36-2.15,14.1-7.43,18.17-14.49,2.31-4.02,3.41-8.38,3.81-12.93.8-8.96-1.94-17.07-6.42-24.78-.32-.55-.64-1.11-1.02-1.75,2.36-.82,3.82-2.54,5.31-4.17,4.61-5.07,9.13-10.22,13.71-15.32,7.31-8.15,14.23-16.58,20.26-25.65.07-.11.2-.18.36-.31,57,59.26,114.48,118.1,173.08,176.32Z"/>
  <path class="cls-1" d="M327.38,201.53c.59,2.63.78,5.34,1.05,7.2-.44,8.85-2.23,16.53-5.94,23.76-.77,1.49-1.6,1.94-2.59,1.51-.99-.42-1.1-1.3-.34-2.83,3.76-7.65,5.87-15.64,5.35-24.12-.15-2.42-.65-4.87-1.38-7.19-1.53-4.82-4.66-8.54-9.36-10.96-2.26-1.16-4.6-2.18-6.9-3.27-.54-.25-1.12-.48-1.58-.84-.57-.44-.85-1.15-.34-1.71.38-.42,1.06-.65,1.66-.83.26-.08.64.15.94.29,2.67,1.25,5.38,2.43,7.98,3.79,6.34,3.32,9.97,8.58,11.46,15.19Z"/>
  <path class="cls-2" d="M325.74,130.41c1.06,7.24.3,14.41-.98,21.55-.3,1.65-.68,3.28-1.05,4.92-.08.36-.26.7-.44,1.16-3.37-1.61-6.61-3.16-9.95-4.77,2.82-10.62,3.51-21.12-1.63-31.64,1.23-1.54,2.75-3.17,4.49-4.59.72-.58,3.2-.16,4.13.72.8.77,1.53,1.65,2.11,2.58,1.96,3.09,2.8,6.54,3.32,10.07Z"/>
  <path class="cls-4" d="M317.26,335.47c2.19,7.16,3.53,14.43,3.18,21.92-.31,6.62-1.88,12.9-5.76,18.49-4.58,6.6-11.13,10.19-19.35,11.04-9.3.96-18.36-.49-27.31-2.72-11.13-2.78-21.74-6.75-31.38-12.84-.54-.34-1.06-.72-1.86-1.27,3.97-.56,7.52-1.04,11.06-1.58.81-.12,1.38-.01,1.99.57,4.97,4.7,10.82,5.14,17.1,3.03,4.16-1.38,7.71-3.76,10.84-6.67,2.13-1.98,4.03-4.18,6.07-6.23.59-.59,1.29-1.11,2.02-1.52,1.45-.82,3.03-1.44,4.44-2.32,8.4-5.23,16.18-11.27,23.96-17.28,1.47-1.13,2.93-2.27,4.54-3.52.2.38.37.63.46.9Z"/>
  <path class="cls-1" d="M317.97,208.35c.99,13.26-3.19,24.99-13.09,34.55-5.1,4.93-11.45,7.99-18.57,9.44-8,1.62-17.92-2.05-22.31-10.08-3.12-5.7-4.44-11.75-4.09-18.12.49-8.75,3.51-16.63,9.36-23.47,2.55-2.98,5.56-5.46,8.98-7.49.5-.29,1-.6,1.5-.9-4.48.25-8.7,1.18-12.42,3.58-2.18,1.4-3.96,3.1-4.48,5.74-.2,1.06-1,1.55-1.83,1.39-.85-.16-1.31-.83-1.28-1.93.04-1.48.71-2.73,1.58-3.91,2.18-2.97,5.28-4.77,8.72-6.1,3.49-1.34,7.17-1.9,10.87-2.29,6.53-.7,13-.08,19.4,1.08,12.15,2.22,17.11,11.21,17.65,18.52ZM311.3,228.26c2.67-6.29,4.24-12.77,3.49-19.62-.88-7.92-6.41-13.87-14.56-15.7-4.16-.93-8.32-.92-12.49-.11-5.96,1.15-10.71,4.27-14.71,8.45-6.53,6.82-9.63,14.97-9.87,24.14-.14,5.31.98,10.37,3.58,15.11,1.65,2.99,3.92,5.4,7.12,6.94.37.18.8.26,1.33.43-.57-2.14-1.14-4.06-1.55-6-.46-2.15-.14-2.59,2-3.29,1.98-.65,3.97-1.29,5.95-1.94,1.01-.33,1.99-.7,3.32-1.15-.89-.46-1.45-.78-2.03-1.05-3.09-1.47-6.19-2.92-9.28-4.38-1.9-.89-2.05-1.25-1.31-3.18,2.06-5.33,5.46-9.76,10.08-13.34,2.38-1.84,5.01-3.31,7.98-4.11,4.72-1.27,8.62.01,11.31,3.91.95,1.38,1.66,2.97,2.17,4.55,1.4,4.31,1.57,8.76,1.01,13.21-.35,2.8-.9,5.58-1.37,8.37.1.04.2.08.31.12.49-.51,1.01-1.01,1.47-1.54,2.58-2.96,4.54-6.27,6.04-9.8Z"/>
  <path class="cls-1" d="M307.8,1.43c7.63,2.15,11.22,8.13,9.2,15.45-.75,2.71-1.96,5.36-3.33,7.85-4.24,7.71-10.1,14.32-16.14,20.79-13.86,14.87-29.91,27.31-47.35,38.14-17.82,11.06-35.96,21.63-54.9,30.9-1.01.49-1.93,1.2-2.77,1.93-13.97,12-28.93,22.77-44.65,32.58-7.3,4.56-15.17,7.96-23.65,10.01-.59.14-1.19.28-1.8.33-1.68.13-3.54-.19-5,.41-1.55.64-3.01,1.33-4.71,1.55-6.09.76-11.22-.86-15.31-5.33-3.44-3.75-5.25-8.07-5.52-13.01-.06-1.15,0-2.31,0-3.62-1.99-.6-3.1-1.87-3.97-3.38-1.74-3.06-2.54-6.37-2.98-9.79-1.26-9.85.12-19.45,3.53-28.75,1.86-5.1,4.27-10.02,6.45-15.01.33-.77.74-1.5,1.12-2.27-4.77-1.63-7.24-5.06-7.4-10.26-.14-4.51.81-8.85,2.64-13,1.83-4.12,4.12-8,7.13-11.45,3.48-4,7.67-7.05,13-8.56,6.18-1.76,12.76,1.09,14.7,7.02.1.31.27.59.45,1.01.56-.36,1.06-.66,1.53-.98,7.91-5.47,16.67-9.06,26.29-10.7,5.02-.85,10.09-1.24,15.14-.15,1.25.27,2.48.66,3.69,1.05,1.12.36,2.11.41,3.29-.09,3.72-1.58,7.6-2.67,11.71-2.97,8.95-.65,15.35,3.16,20,10.15.29.44.54.89.82,1.33.03.05.1.08.27.22.44-.31.94-.6,1.39-.96,13.6-10.62,28.06-20.04,43.48-28.12,8.56-4.48,17.37-8.43,26.82-10.95,6.36-1.69,12.83-2.8,19.45-2.52,2.48.11,5.01.47,7.38,1.14ZM313.65,16.97c2.11-6.45-.71-11.13-7.47-12.86-5.15-1.32-10.35-.88-15.53-.17-8.18,1.12-15.9,3.7-23.37,6.97-15.96,6.99-30.66,15.97-44.69,25.95-20.09,14.3-38.17,30.75-55.89,47.57-.2.19-.33.43-.5.64.86-.29,1.53-.74,2.19-1.19,8.64-5.82,17.57-11.18,27.26-15.32,4.52-1.93,9.13-3.61,14.06-4.31,2.71-.38,5.41-.38,8.02.54,3.87,1.37,5.96,4.31,5.76,8.21-.06,1.09-.25,2.18-.5,3.25-.82,3.57-2.49,6.81-4.38,9.95-4.23,7.02-9.42,13.39-14.95,19.51-.42.46-.81.94-1.21,1.41l.19.22c.4-.2.8-.38,1.19-.59,18.18-9.64,36.01-19.84,53.08-31.18,14.69-9.75,28.03-20.95,39.82-33.8,4.77-5.21,9.4-10.54,12.98-16.57,1.55-2.62,3-5.38,3.94-8.24ZM206.68,44.88c-.64-1.03-1.14-1.94-1.75-2.79-4.08-5.64-9.5-8.61-16.92-7.89-4.61.45-8.83,1.92-12.91,3.84-11.69,5.49-20.76,13.9-28.67,23.57-.49.59-.88,1.26-1.39,2.02,2.85,1.17,4.53,3.23,5.87,5.59.71,1.25,1.45,2.49,1.97,3.81,1.8,4.51,3.5,9.06,5.24,13.6.15.39.33.77.52,1.21,15.47-14.94,31.08-29.52,48.04-42.97ZM170.54,36.64c-.46-.18-.69-.3-.94-.36-3.6-.81-7.21-.86-10.89-.49-10.13,1.04-19.3,4.44-27.64,9.91-6.91,4.53-12.88,10.05-18.35,16.08-8.96,9.89-15.26,21.24-20.06,33.4-3.44,8.72-5.36,17.7-4.88,27.06.2,3.88.74,7.71,2.43,11.3.4.83.98,1.59,1.64,2.66.8-3.49,1.42-6.57,2.23-9.6,3.83-14.38,10.94-27.26,19.75-39.39,5.36-7.39,11.88-13.71,19.19-19.34,2.22-1.71,4.53-3.32,7.32-4.06.92-.24,1.28-.88,1.72-1.51,7.21-10.13,16.33-18.36,27.25-24.81.37-.21.71-.47,1.22-.83ZM154.89,91.89c.92-.76.95-1.58.64-2.61-1.72-5.71-3.7-11.32-6.44-16.67-.71-1.38-1.58-2.7-2.48-3.99-.72-1.05-1.71-1.83-3.2-2.05-.71.61-1.51,1.1-2.66.65-.4-.15-1.06.08-1.49.32-1.17.65-2.34,1.32-3.41,2.11-5.14,3.82-10,7.97-14.09,12.8-10.93,12.87-19.31,27.07-24.02,43.09-1.67,5.67-2.97,11.39-2.64,17.34.28,5.24,2.49,9.61,6.71,12.97,3.53,2.81,7.61,3.12,12.15,2.18-2.41-2.92-2.58-6-1.92-9.21.2-.95.44-1.89.73-2.81,1.85-5.71,4.69-10.98,8.09-15.97,5.76-8.48,12.68-16.1,20-23.37,3.75-3.72,7.78-7.18,11.66-10.79.45-.42,1.1-1.01,1.07-1.49-.06-1.14.52-1.87,1.28-2.5ZM123.69,47.12c-.25-.84-.44-1.59-.71-2.31-1.44-3.87-5.19-5.9-9.48-5.17-4.24.72-7.72,2.84-10.6,5.72-5.9,5.94-9.85,12.88-10.93,21.11-.34,2.63-.29,5.27,1.01,7.75,1.15,2.19,2.08,3,4.9,2.57,6.53-11.33,15.21-21.11,25.8-29.66Z"/>
  <path class="cls-8" d="M314.78,208.65c.76,6.85-.81,13.33-3.49,19.62-1.5,3.54-3.46,6.85-6.04,9.8-.47.53-.98,1.03-1.47,1.54-.11-.04-.21-.08-.31-.12.46-2.79,1.02-5.57,1.37-8.37.56-4.45.38-8.9-1.01-13.21-.51-1.58-1.22-3.17-2.17-4.55-2.69-3.9-6.59-5.18-11.31-3.91-2.98.8-5.61,2.27-7.98,4.11-4.62,3.57-8.02,8-10.08,13.34-.75,1.93-.59,2.29,1.31,3.18,3.09,1.46,6.19,2.92,9.28,4.38.58.27,1.14.59,2.03,1.05-1.32.46-2.31.82-3.32,1.15-1.98.66-3.97,1.29-5.95,1.94-2.14.7-2.46,1.14-2,3.29.42,1.94.99,3.86,1.55,6-.53-.17-.95-.25-1.33-.43-3.2-1.54-5.47-3.94-7.12-6.94-2.61-4.74-3.72-9.8-3.58-15.11.24-9.17,3.33-17.32,9.87-24.14,4-4.18,8.75-7.3,14.71-8.45,4.17-.8,8.33-.81,12.49.11,8.15,1.83,13.69,7.78,14.56,15.7Z"/>
  <path class="cls-7" d="M306.18,4.11c6.76,1.73,9.58,6.41,7.47,12.86-.94,2.86-2.39,5.62-3.94,8.24-3.58,6.04-8.2,11.36-12.98,16.57-11.79,12.85-25.13,24.04-39.82,33.8-17.07,11.34-34.9,21.54-53.08,31.18-.39.21-.8.4-1.19.59l-.19-.22c.4-.47.8-.95,1.21-1.41,5.53-6.13,10.72-12.49,14.95-19.51,1.89-3.14,3.57-6.39,4.38-9.95.25-1.07.44-2.16.5-3.25.2-3.9-1.89-6.84-5.76-8.21-2.62-.93-5.32-.93-8.02-.54-4.93.71-9.54,2.38-14.06,4.31-9.69,4.14-18.62,9.5-27.26,15.32-.66.45-1.32.89-2.19,1.19.16-.21.3-.46.5-.64,17.72-16.82,35.8-33.27,55.89-47.57,14.03-9.98,28.73-18.96,44.69-25.95,7.47-3.28,15.19-5.85,23.37-6.97,5.18-.71,10.39-1.15,15.53.17Z"/>
  <path class="cls-2" d="M311.65,131.83c1.07,6.24.67,12.45-.97,18.58-.14.49-.34.95-.53,1.47-3.99-1.46-7.7-2.81-11.58-4.23,2.18-8.24,5.4-15.92,10.73-22.96.32.48.65.8.76,1.18.57,1.98,1.25,3.95,1.6,5.97Z"/>
  <path class="cls-7" d="M296.32,273.08c2.34,2.62,2.67,5.38.99,8.43-1.4,2.54-3.23,4.75-5.65,6.5-5.39,3.88-11.51,6.23-18.08,7.49-3.04.58-6.15.8-9.39,1.2-2.85-.37-5.79-.79-8.73-1.13-2.53-.29-4.54-1.67-6.48-2.98-1.5-1.01-1.94-2.88-2.11-4.67-.28-2.95.59-5.59,2.28-8.05,3.06-4.46,7.29-7.61,12.38-9.67,5.28-2.15,10.84-3.37,16.59-3.15,3.36.12,6.73.64,10.03,1.28,3.26.63,6.01,2.32,8.18,4.75Z"/>
  <path class="cls-1" d="M289.98,313.11c.19,1.65.23,3.37-.03,5-1.76,11.14-7.48,20.03-17.14,26.56-1.99,1.35-4.2,2.33-6.62,2.82-2.25.45-4.42.22-6.83-.81.43,1.89,1.29,3.06,2.62,3.94.33.23.71.38,1.01.64.57.47.73,1.08.38,1.74-.34.66-.99.99-1.68.77-.81-.27-1.64-.64-2.29-1.15-1.67-1.31-2.68-3.04-3.28-5.01-.81-2.66-.77-5.36-.31-8.05,1.68-9.81,5.82-18.47,13.45-25.43,3.52-3.2,7.54-5.55,12.38-6.7,5-1.18,7.97,2.31,8.36,5.67ZM279.54,334.26c.33-.41.5-1.08.44-1.59-.8-6.16-5.03-9.66-11.09-11.47-1.13-.33-2.09-.1-2.7,1.05-.51.97-1.18,1.86-1.76,2.76,1.88,2.09,3.61,3.97,5.28,5.9.55.64,1.02,1.37,1.42,2.11.53.95.33,1.77-.4,2.23-.74.46-1.6.27-2.28-.57-.33-.41-.59-.87-.89-1.29-1.31-1.88-2.83-3.58-4.74-5.25-2.26,4.5-3.57,9.02-3.99,13.7.48.42.89.68,1.16,1.03,1.42,1.79,3.33,2.09,5.45,1.61,1.05-.24,2.1-.54,3.05-1,4.5-2.17,8.03-5.42,11.04-9.21Z"/>
  <path class="cls-7" d="M279.97,332.66c.07.51-.11,1.19-.44,1.59-3.01,3.79-6.54,7.04-11.04,9.21-.95.46-2.01.76-3.05,1-2.12.47-4.03.18-5.45-1.61-.28-.35-.68-.61-1.16-1.03.42-4.68,1.73-9.2,3.99-13.7,1.91,1.67,3.43,3.37,4.74,5.25.3.42.55.89.89,1.29.68.83,1.54,1.02,2.28.57.73-.45.93-1.27.4-2.23-.41-.74-.87-1.47-1.42-2.11-1.68-1.93-3.41-3.81-5.28-5.9.58-.89,1.24-1.79,1.76-2.76.61-1.14,1.57-1.38,2.7-1.05,6.06,1.8,10.28,5.31,11.09,11.47Z"/>
  <path class="cls-1" d="M249.57,238.1c.45,6.11-1.34,11.88-4.06,17.38-2.84,5.71-6.68,10.79-11.5,15.11-5.67,5.07-12.32,8.71-20.04,10.04-13.12,2.25-23.37-5.77-26.98-13.95-2.79-6.3-3.63-12.87-2.6-19.52,2.22-14.27,8.5-26.82,18.77-37.47,4.37-4.53,9.61-7.93,15.96-9.54,1.05-.27,2.11-.47,3.19-.58,1.16-.11,1.83.38,1.96,1.24.13.83-.39,1.48-1.49,1.76-.58.15-1.2.18-1.8.31-2.53.51-4.9,1.42-7.15,2.66-6.15,3.42-12.78,10.06-16.17,16.47,1.96-1.46,3.53-2.7,5.16-3.84,3.98-2.79,8.4-4.73,13.21-5.76,7.11-1.51,13.76-.16,19.8,3.59,8.36,5.2,13.05,12.63,13.76,22.11ZM245.84,244.67c2.67-12.65-5.23-24.73-17.43-28.69-5.58-1.81-11.12-1.36-16.46.88-12.96,5.42-20.82,14.93-23.93,27.94-1.25,5.25-1.07,10.63.28,15.93,1.63,6.38,5.1,11.47,11.27,14.7.44.23.92.37,1.66.67-.32-.82-.57-1.33-.73-1.88-.58-1.98-1.19-3.96-1.66-5.97-.27-1.15.11-2.02,1.4-2.66,1.39-.7,2.84-.77,4.29-.97,1.86-.26,3.74-.44,5.61-.66.03-.13.07-.26.11-.39-.55-.34-1.1-.71-1.67-1.03-2.43-1.42-4.88-2.8-7.28-4.24-1.52-.92-1.77-1.65-1.31-3.27.12-.44.29-.86.49-1.27,3.63-7.36,9.4-12.68,17.14-16.07.73-.32,1.52-.54,2.3-.75,6.39-1.67,12.34.71,15.19,6.57.65,1.34,1.14,2.76,1.55,4.18,1.12,3.78,1.02,7.66.89,11.53-.02.74,0,1.48,0,2.59.5-.56.77-.81.99-1.11,3.58-4.87,6.06-10.18,7.3-16.03Z"/>
  <path class="cls-8" d="M228.42,215.98c12.19,3.96,20.09,16.04,17.43,28.69-1.24,5.84-3.71,11.16-7.3,16.03-.21.29-.49.55-.99,1.11,0-1.11-.02-1.85,0-2.59.13-3.88.23-7.75-.89-11.53-.42-1.42-.9-2.84-1.55-4.18-2.86-5.85-8.8-8.23-15.19-6.57-.78.2-1.57.43-2.3.75-7.75,3.39-13.51,8.71-17.14,16.07-.2.41-.36.84-.49,1.27-.47,1.62-.21,2.36,1.31,3.27,2.4,1.45,4.85,2.83,7.28,4.24.57.33,1.11.69,1.67,1.03-.03.13-.07.26-.11.39-1.87.21-3.75.4-5.61.66-1.45.2-2.9.28-4.29.97-1.28.64-1.67,1.5-1.4,2.66.47,2.01,1.08,3.99,1.66,5.97.16.54.41,1.06.73,1.88-.73-.3-1.22-.45-1.66-.67-6.16-3.23-9.64-8.32-11.27-14.7-1.34-5.29-1.53-10.68-.28-15.93,3.11-13,10.97-22.52,23.93-27.94,5.34-2.23,10.87-2.69,16.46-.88Z"/>
  <path class="cls-1" d="M227.24,179.7c.65,1.01.36,1.93-.47,2.35-.82.42-1.69.11-2.36-.9-.84-1.25-1.55-2.58-2.46-3.79-2.76-3.7-6.46-6-11.25-6.58-2.14-.26-4.19.12-6.2.76-4.2,1.33-7.74,3.69-10.87,6.61-6.16,5.75-10.45,12.64-13.47,20.28-1.87,4.72-3.14,9.59-4.07,14.55-.07.38-.1.77-.22,1.14-.33,1.03-1.04,1.51-1.92,1.32-.95-.22-1.29-.86-1.24-1.74.02-.32.05-.64.1-.96,1.64-9.1,4.49-17.8,9.49-25.77,3.5-5.59,7.75-10.6,13.33-14.44,4.13-2.85,8.65-4.81,14.15-4.89,5.11.15,9.62,2.19,13.12,6,1.68,1.83,2.97,3.99,4.32,6.06Z"/>
  <path class="cls-8" d="M204.93,42.09c.61.84,1.11,1.76,1.75,2.79-16.96,13.45-32.57,28.03-48.04,42.97-.19-.44-.37-.82-.52-1.21-1.74-4.54-3.45-9.09-5.24-13.6-.52-1.32-1.26-2.57-1.97-3.81-1.33-2.36-3.02-4.42-5.87-5.59.51-.76.9-1.42,1.39-2.02,7.91-9.67,16.97-18.08,28.67-23.57,4.08-1.92,8.31-3.39,12.91-3.84,7.41-.72,12.84,2.25,16.92,7.89Z"/>
  <path class="cls-1" d="M186.64,275.08c.33.72.19,1.42-.55,1.86-.72.43-1.44.31-2.03-.25-.24-.23-.42-.5-.62-.77-4.44-6.28-7.77-12.99-8.84-20.57-.23-1.6-.32-3.21-.46-4.62.03-5.31,1.17-10.17,3.49-14.78.26-.51.6-1.01,1-1.44.5-.54,1.18-.66,1.85-.3.72.4,1.03,1.01.77,1.81-.08.24-.23.46-.36.7-3.58,6.65-4.22,13.62-2.59,20.87,1.29,5.77,3.96,10.95,7.29,15.85.37.54.78,1.07,1.05,1.65Z"/>
  <path class="cls-8" d="M169.6,36.28c.25.06.48.18.94.36-.51.35-.85.61-1.22.83-10.92,6.45-20.04,14.68-27.25,24.81-.45.63-.81,1.27-1.72,1.51-2.8.75-5.1,2.36-7.32,4.06-7.31,5.63-13.83,11.96-19.19,19.34-8.81,12.13-15.92,25.01-19.75,39.39-.81,3.03-1.42,6.11-2.23,9.6-.67-1.07-1.25-1.83-1.64-2.66-1.69-3.59-2.23-7.41-2.43-11.3-.48-9.36,1.44-18.34,4.88-27.06,4.8-12.16,11.1-23.51,20.06-33.4,5.46-6.02,11.44-11.55,18.35-16.08,8.34-5.46,17.51-8.87,27.64-9.91,3.68-.38,7.3-.33,10.89.49Z"/>
  <path class="cls-8" d="M155.53,89.28c.31,1.02.27,1.84-.64,2.61-.76.63-1.34,1.37-1.28,2.5.02.48-.62,1.06-1.07,1.49-3.88,3.61-7.92,7.06-11.66,10.79-7.32,7.27-14.24,14.88-20,23.37-3.4,5-6.24,10.26-8.09,15.97-.3.93-.54,1.86-.73,2.81-.66,3.21-.49,6.29,1.92,9.21-4.54.94-8.62.63-12.15-2.18-4.22-3.36-6.42-7.73-6.71-12.97-.32-5.94.98-11.67,2.64-17.34,4.71-16.03,13.09-30.22,24.02-43.09,4.1-4.83,8.95-8.98,14.09-12.8,1.07-.79,2.24-1.46,3.41-2.11.43-.24,1.1-.47,1.49-.32,1.15.45,1.95-.04,2.66-.65,1.49.21,2.48,1,3.2,2.05.89,1.29,1.76,2.61,2.48,3.99,2.74,5.35,4.71,10.96,6.44,16.67ZM125.23,113.31c2.78-3.25,3.96-7,3.23-11.19-.5-2.88-1.99-5.18-4.64-6.72-2.66-1.54-4.85-1.43-7.33.37-1.68,1.23-2.73,2.89-3.22,4.8-.58,2.31-.94,4.66-1.4,7,.14,2.07.44,4.03,1.53,5.81,1.85,3.03,5.32,4.08,8.55,2.44,1.22-.62,2.41-1.5,3.28-2.52ZM112.35,133.87c2.08-2.35,2.94-5.16,3.06-7.84-.02-3.19-1.12-5.72-3.09-7.48-2.19-1.95-5.06-2.15-7.36-.37-.86.67-1.64,1.56-2.16,2.5-1.6,2.9-2.37,6.01-2.01,9.31.2,1.83.81,3.51,2.15,4.89,1.71,1.77,4.2,2.35,6.45,1.24,1.11-.54,2.16-1.35,2.97-2.26Z"/>
  <path class="cls-4" d="M137.82,451.29c.55.33,1.04.77,1.68,1.26-4.18,4.47-7.78,9.24-12.65,13.06-.53-.66-1.02-1.27-1.5-1.88-2.88-3.63-6.15-6.87-10.13-9.43-1.5-.97-2.36-1.02-3.02-.16-.64.85-.31,1.68,1.12,2.68,10.26,7.18,16.56,16.87,18.82,28.65,2.1,10.95-.74,20.78-9.72,28.46-4.28,3.65-9.3,5.77-15.18,5.41-5.13-.31-8.74-2.84-11-7.17-1.28-2.46-1.82-5.12-1.94-7.85-.19-4.13-.42-8.25-.45-12.38-.01-1.95-.89-3.62-1.51-5.35-.89-2.49-2.06-4.9-3.23-7.3-2.16-4.46-4-9.02-4.79-13.92-.53-3.2-.63-6.41-.14-9.63.75-4.89,3.51-8.58,7.57-11.48,5.32-3.79,11.4-4.86,17.88-4.5,5.99.33,11.6,1.99,16.78,4.8,3.88,2.1,7.61,4.45,11.4,6.71Z"/>
  <path class="cls-1" d="M128.46,102.12c.73,4.19-.45,7.94-3.23,11.19-.88,1.02-2.06,1.9-3.28,2.52-3.23,1.64-6.7.59-8.55-2.44-1.09-1.79-1.39-3.75-1.53-5.81.46-2.33.83-4.69,1.4-7,.48-1.92,1.54-3.58,3.22-4.8,2.48-1.8,4.67-1.92,7.33-.37,2.66,1.54,4.15,3.84,4.64,6.72ZM122.19,111.91c2.2-2.17,3.35-4.85,3.19-7.86-.07-1.37-.54-2.8-1.2-4.02-.79-1.45-2.16-2.67-4.01-2.53-1.96.16-3.05,1.64-3.53,3.32-.64,2.22-1.03,4.49-1.53,6.75.07.02.14.03.21.05.04.71.02,1.42.14,2.11.27,1.58.85,3.03,2.59,3.62s3.05-.39,4.12-1.45Z"/>
  <path class="cls-5" d="M125.39,104.05c.16,3.01-.99,5.69-3.19,7.86-1.07,1.06-2.38,2.03-4.12,1.45s-2.33-2.04-2.59-3.62c-.12-.7-.1-1.41-.14-2.11-.07-.02-.14-.03-.21-.05.5-2.25.89-4.53,1.53-6.75.48-1.68,1.57-3.16,3.53-3.32,1.84-.15,3.22,1.07,4.01,2.53.66,1.21,1.12,2.65,1.2,4.02Z"/>
  <path class="cls-7" d="M122.99,44.81c.27.72.45,1.47.71,2.31-10.59,8.55-19.27,18.33-25.8,29.66-2.83.43-3.76-.38-4.9-2.57-1.29-2.48-1.35-5.11-1.01-7.75,1.08-8.23,5.03-15.17,10.93-21.11,2.87-2.88,6.36-5,10.6-5.72,4.29-.73,8.04,1.31,9.48,5.17Z"/>
  <path class="cls-1" d="M115.41,126.04c-.12,2.67-.98,5.49-3.06,7.84-.8.91-1.86,1.72-2.97,2.26-2.25,1.1-4.74.53-6.45-1.24-1.34-1.38-1.94-3.06-2.15-4.89-.36-3.31.41-6.41,2.01-9.31.52-.94,1.3-1.83,2.16-2.5,2.3-1.78,5.18-1.58,7.36.37,1.97,1.76,3.07,4.28,3.09,7.48ZM109.62,132.21c1.9-2.18,2.75-4.71,2.42-7.53-.17-1.5-.75-2.87-1.98-3.9-1.03-.86-2.28-.9-3.29-.03-.49.42-.91.97-1.19,1.53-1,1.99-1.47,4.12-1.61,6.54.1.62.15,1.46.38,2.26.32,1.16.95,2.18,2.31,2.44,1.28.25,2.22-.46,2.97-1.31Z"/>
  <path class="cls-5" d="M112.04,124.68c.32,2.82-.52,5.35-2.42,7.53-.75.85-1.68,1.57-2.97,1.31-1.35-.27-1.98-1.28-2.31-2.44-.23-.8-.28-1.64-.38-2.26.14-2.42.61-4.54,1.61-6.54.28-.57.71-1.11,1.19-1.53,1.01-.88,2.25-.84,3.29.03,1.23,1.03,1.81,2.41,1.98,3.9Z"/>
  <path class="cls-2" d="M92.44,206.29c3.22,2.35,5.67,5.11,8.28,7.97-1.63,1.54-3.21,2.91-4.63,4.42-1.44,1.53-2.71,3.19-4.21,4.97-1.33-1.47-1.81-3.07-1.95-4.73-.36-4.31.74-8.39,2.51-12.63Z"/>
  <path class="cls-2" d="M89.61,204.25c-.75,2.28-1.61,4.32-2.06,6.43-.52,2.45-.86,4.96-.93,7.45-.08,3.07.97,5.31,3.35,8.39-1.33,2.67-2.68,5.38-4.08,8.19-2.24-.42-3.9-1.66-5.25-3.31-2.12-2.61-3.4-5.59-3.69-8.86-.7-7.66.83-14.84,5.71-21.6,2.42,1.15,4.7,2.24,6.96,3.31Z"/>
  <path class="cls-1" d="M73.07,370.97c.5.55.49,1.2,0,1.77-.47.56-1.11.78-1.81.45-.48-.22-.92-.54-1.35-.84-16.55-11.77-33.09-23.54-49.62-35.31-.54-.38-1.19-.73-1.52-1.25-.27-.42-.29-1.12-.11-1.59.15-.38.76-.59,1.26-.94.75.44,1.4.76,1.98,1.17,6.08,4.31,12.15,8.63,18.23,12.95,10.52,7.49,21.04,14.98,31.55,22.47.49.34.99.69,1.39,1.12Z"/>
  <path class="cls-1" d="M64.24,425.27c1.01.09,1.58.63,1.58,1.43,0,.95-.63,1.39-1.51,1.52-.6.08-1.21.06-1.83.07-9.89.11-19.78.21-29.67.31-9.82.13-19.64.27-29.46.38-.67,0-1.36-.01-2.01-.15-.74-.15-1.13-.68-1.1-1.42.04-.73.47-1.21,1.21-1.34.46-.09.94-.07,1.42-.08,19.84-.25,39.69-.49,59.53-.74.61,0,1.23-.04,1.83.02Z"/>
</svg>