<?xml version="1.0" encoding="UTF-8" standalone="no"?>
<!DOCTYPE svg PUBLIC "-//W3C//DTD SVG 1.1//EN"
 "http://www.w3.org/Graphics/SVG/1.1/DTD/svg11.dtd">
<!-- Generated by graphviz version 12.2.0 (20241103.1931)
 -->
<!-- Title: G Pages: 1 -->
<svg width="1033pt" height="404pt"
 viewBox="0.00 0.00 1033.18 404.00" xmlns="http://www.w3.org/2000/svg" xmlns:xlink="http://www.w3.org/1999/xlink">
<g id="graph0" class="graph" transform="scale(1 1) rotate(0) translate(4 400)">
<title>G</title>
<polygon fill="white" stroke="none" points="-4,4 -4,-400 1029.18,-400 1029.18,4 -4,4"/>
<!-- account -->
<g id="node1" class="node">
<title>account</title>
<ellipse fill="yellow" stroke="black" cx="83.53" cy="-234" rx="41.11" ry="18"/>
<text text-anchor="middle" x="83.53" y="-228.2" font-family="Helvetica,sans-Serif" font-size="14.00">account</text>
</g>
<!-- ffi -->
<g id="node2" class="node">
<title>ffi</title>
<ellipse fill="yellow" stroke="black" cx="116.53" cy="-90" rx="27" ry="18"/>
<text text-anchor="middle" x="116.53" y="-84.2" font-family="Helvetica,sans-Serif" font-size="14.00">ffi</text>
</g>
<!-- account&#45;&gt;ffi -->
<g id="edge1" class="edge">
<title>account&#45;&gt;ffi</title>
<path fill="none" stroke="black" d="M86.93,-215.88C90.56,-197.92 96.59,-168.9 102.53,-144 104.46,-135.91 106.7,-127.18 108.82,-119.17"/>
<polygon fill="black" stroke="black" points="112.18,-120.16 111.39,-109.6 105.42,-118.35 112.18,-120.16"/>
</g>
<!-- storage -->
<g id="node3" class="node">
<title>storage</title>
<ellipse fill="yellow" stroke="black" cx="314.53" cy="-90" rx="39.65" ry="18"/>
<text text-anchor="middle" x="314.53" y="-84.2" font-family="Helvetica,sans-Serif" font-size="14.00">storage</text>
</g>
<!-- account&#45;&gt;storage -->
<g id="edge2" class="edge">
<title>account&#45;&gt;storage</title>
<path fill="none" stroke="black" d="M116.2,-222.73C142.93,-213.58 181.13,-198.75 211.53,-180 241.49,-161.52 271.46,-134.42 291.28,-114.98"/>
<polygon fill="black" stroke="black" points="293.7,-117.51 298.31,-107.97 288.76,-112.55 293.7,-117.51"/>
</g>
<!-- types -->
<g id="node4" class="node">
<title>types</title>
<ellipse fill="yellow" stroke="black" cx="405.53" cy="-18" rx="31.36" ry="18"/>
<text text-anchor="middle" x="405.53" y="-12.2" font-family="Helvetica,sans-Serif" font-size="14.00">types</text>
</g>
<!-- account&#45;&gt;types -->
<g id="edge3" class="edge">
<title>account&#45;&gt;types</title>
<path fill="none" stroke="black" d="M76.73,-216.02C65.03,-183.74 45.58,-113.11 80.53,-72 116.26,-29.97 282.85,-21.19 362.67,-19.41"/>
<polygon fill="black" stroke="black" points="362.35,-22.92 372.28,-19.23 362.21,-15.92 362.35,-22.92"/>
</g>
<!-- ffi&#45;&gt;types -->
<g id="edge29" class="edge">
<title>ffi&#45;&gt;types</title>
<path fill="none" stroke="black" d="M140.2,-80.73C149.04,-77.79 159.19,-74.57 168.53,-72 236.89,-53.23 317.69,-36.25 365.1,-26.81"/>
<polygon fill="black" stroke="black" points="365.5,-30.3 374.63,-24.93 364.14,-23.43 365.5,-30.3"/>
</g>
<!-- storage&#45;&gt;types -->
<g id="edge38" class="edge">
<title>storage&#45;&gt;types</title>
<path fill="none" stroke="black" d="M333.83,-74.15C346.75,-64.21 363.96,-50.98 378.27,-39.97"/>
<polygon fill="black" stroke="black" points="380.2,-42.9 385.99,-34.03 375.93,-37.35 380.2,-42.9"/>
</g>
<!-- bank -->
<g id="node5" class="node">
<title>bank</title>
<ellipse fill="yellow" stroke="black" cx="173.53" cy="-162" rx="29.41" ry="18"/>
<text text-anchor="middle" x="173.53" y="-156.2" font-family="Helvetica,sans-Serif" font-size="14.00">bank</text>
</g>
<!-- bank&#45;&gt;ffi -->
<g id="edge4" class="edge">
<title>bank&#45;&gt;ffi</title>
<path fill="none" stroke="black" d="M160.88,-145.46C153.55,-136.46 144.16,-124.93 135.92,-114.81"/>
<polygon fill="black" stroke="black" points="138.74,-112.73 129.71,-107.19 133.31,-117.15 138.74,-112.73"/>
</g>
<!-- bank&#45;&gt;storage -->
<g id="edge5" class="edge">
<title>bank&#45;&gt;storage</title>
<path fill="none" stroke="black" d="M195.87,-149.91C217.98,-138.93 252.21,-121.94 278.23,-109.02"/>
<polygon fill="black" stroke="black" points="279.7,-112.2 287.1,-104.62 276.59,-105.93 279.7,-112.2"/>
</g>
<!-- bank&#45;&gt;types -->
<g id="edge6" class="edge">
<title>bank&#45;&gt;types</title>
<path fill="none" stroke="black" d="M177.26,-143.96C182.54,-123.83 194.16,-90.73 216.53,-72 258.12,-37.18 321.05,-25.17 362.71,-21.07"/>
<polygon fill="black" stroke="black" points="362.95,-24.56 372.62,-20.22 362.35,-17.58 362.95,-24.56"/>
</g>
<!-- taxman -->
<g id="node6" class="node">
<title>taxman</title>
<ellipse fill="yellow" stroke="black" cx="220.53" cy="-234" rx="39.65" ry="18"/>
<text text-anchor="middle" x="220.53" y="-228.2" font-family="Helvetica,sans-Serif" font-size="14.00">taxman</text>
</g>
<!-- taxman&#45;&gt;ffi -->
<g id="edge8" class="edge">
<title>taxman&#45;&gt;ffi</title>
<path fill="none" stroke="black" d="M190.96,-221.74C172.25,-213.11 149.11,-199.36 135.53,-180 123.17,-162.39 118.59,-138.33 117,-119.67"/>
<polygon fill="black" stroke="black" points="120.5,-119.6 116.43,-109.82 113.51,-120 120.5,-119.6"/>
</g>
<!-- taxman&#45;&gt;storage -->
<g id="edge9" class="edge">
<title>taxman&#45;&gt;storage</title>
<path fill="none" stroke="black" d="M242.6,-218.57C255.76,-208.99 271.91,-195.38 282.53,-180 295.22,-161.62 303.46,-137.66 308.39,-119.22"/>
<polygon fill="black" stroke="black" points="311.73,-120.31 310.74,-109.76 304.94,-118.62 311.73,-120.31"/>
</g>
<!-- taxman&#45;&gt;types -->
<g id="edge10" class="edge">
<title>taxman&#45;&gt;types</title>
<path fill="none" stroke="black" d="M220.51,-215.55C221.42,-183.12 227.93,-113.12 265.53,-72 290.99,-44.16 332.6,-30.85 363.85,-24.54"/>
<polygon fill="black" stroke="black" points="364.15,-28.05 373.36,-22.8 362.89,-21.16 364.15,-28.05"/>
</g>
<!-- taxman&#45;&gt;bank -->
<g id="edge7" class="edge">
<title>taxman&#45;&gt;bank</title>
<path fill="none" stroke="black" d="M209.39,-216.41C203.75,-208.01 196.78,-197.63 190.49,-188.26"/>
<polygon fill="black" stroke="black" points="193.59,-186.6 185.11,-180.24 187.78,-190.5 193.59,-186.6"/>
</g>
<!-- testing -->
<g id="node7" class="node">
<title>testing</title>
<ellipse fill="yellow" stroke="black" cx="262.53" cy="-306" rx="36.23" ry="18"/>
<text text-anchor="middle" x="262.53" y="-300.2" font-family="Helvetica,sans-Serif" font-size="14.00">testing</text>
</g>
<!-- testing&#45;&gt;account -->
<g id="edge12" class="edge">
<title>testing&#45;&gt;account</title>
<path fill="none" stroke="black" d="M234.56,-294.06C204.84,-282.44 157.57,-263.95 123.83,-250.76"/>
<polygon fill="black" stroke="black" points="125.39,-247.61 114.8,-247.23 122.84,-254.13 125.39,-247.61"/>
</g>
<!-- testing&#45;&gt;types -->
<g id="edge17" class="edge">
<title>testing&#45;&gt;types</title>
<path fill="none" stroke="black" d="M226.76,-302.03C168.52,-296.38 57.27,-281.87 33.53,-252 1.75,-212.03 -32.12,-161.24 59.53,-72 101.9,-30.74 279.85,-21.58 362.72,-19.56"/>
<polygon fill="black" stroke="black" points="362.56,-23.07 372.49,-19.35 362.41,-16.07 362.56,-23.07"/>
</g>
<!-- testing&#45;&gt;bank -->
<g id="edge13" class="edge">
<title>testing&#45;&gt;bank</title>
<path fill="none" stroke="black" d="M231.72,-296.05C210.68,-288.16 184.38,-274.35 171.53,-252 161.04,-233.75 162.28,-209.74 165.73,-191.25"/>
<polygon fill="black" stroke="black" points="169.15,-192.02 167.89,-181.5 162.31,-190.5 169.15,-192.02"/>
</g>
<!-- testing&#45;&gt;taxman -->
<g id="edge16" class="edge">
<title>testing&#45;&gt;taxman</title>
<path fill="none" stroke="black" d="M252.58,-288.41C247.71,-280.3 241.74,-270.35 236.28,-261.25"/>
<polygon fill="black" stroke="black" points="239.34,-259.54 231.19,-252.77 233.33,-263.14 239.34,-259.54"/>
</g>
<!-- app -->
<g id="node8" class="node">
<title>app</title>
<ellipse fill="yellow" stroke="black" cx="437.53" cy="-162" rx="27" ry="18"/>
<text text-anchor="middle" x="437.53" y="-156.2" font-family="Helvetica,sans-Serif" font-size="14.00">app</text>
</g>
<!-- testing&#45;&gt;app -->
<g id="edge11" class="edge">
<title>testing&#45;&gt;app</title>
<path fill="none" stroke="black" d="M275.09,-288.85C290.36,-269.89 317.58,-238.21 345.53,-216 364.11,-201.24 387.27,-187.92 405.7,-178.33"/>
<polygon fill="black" stroke="black" points="407.26,-181.46 414.59,-173.81 404.09,-175.22 407.26,-181.46"/>
</g>
<!-- crypto -->
<g id="node9" class="node">
<title>crypto</title>
<ellipse fill="yellow" stroke="black" cx="669.53" cy="-162" rx="34.28" ry="18"/>
<text text-anchor="middle" x="669.53" y="-156.2" font-family="Helvetica,sans-Serif" font-size="14.00">crypto</text>
</g>
<!-- testing&#45;&gt;crypto -->
<g id="edge14" class="edge">
<title>testing&#45;&gt;crypto</title>
<path fill="none" stroke="black" d="M298.73,-304.04C411.09,-300.69 748.27,-287.73 780.53,-252 791.25,-240.12 789.07,-229.53 780.53,-216 765.66,-192.43 737.1,-179.11 712.68,-171.73"/>
<polygon fill="black" stroke="black" points="713.84,-168.42 703.27,-169.14 711.98,-175.17 713.84,-168.42"/>
</g>
<!-- db/memory -->
<g id="node10" class="node">
<title>db/memory</title>
<ellipse fill="yellow" stroke="black" cx="503.53" cy="-234" rx="55.25" ry="18"/>
<text text-anchor="middle" x="503.53" y="-228.2" font-family="Helvetica,sans-Serif" font-size="14.00">db/memory</text>
</g>
<!-- testing&#45;&gt;db/memory -->
<g id="edge15" class="edge">
<title>testing&#45;&gt;db/memory</title>
<path fill="none" stroke="black" d="M293.05,-296.13C333.12,-284.5 404.03,-263.9 452.37,-249.86"/>
<polygon fill="black" stroke="black" points="453.15,-253.28 461.78,-247.13 451.2,-246.56 453.15,-253.28"/>
</g>
<!-- vm/rust -->
<g id="node11" class="node">
<title>vm/rust</title>
<ellipse fill="yellow" stroke="black" cx="731.53" cy="-234" rx="39.65" ry="18"/>
<text text-anchor="middle" x="731.53" y="-228.2" font-family="Helvetica,sans-Serif" font-size="14.00">vm/rust</text>
</g>
<!-- testing&#45;&gt;vm/rust -->
<g id="edge18" class="edge">
<title>testing&#45;&gt;vm/rust</title>
<path fill="none" stroke="black" d="M298.65,-302.98C371.9,-298.34 542.8,-284.68 682.53,-252 685.33,-251.35 688.19,-250.59 691.06,-249.77"/>
<polygon fill="black" stroke="black" points="692.08,-253.12 700.58,-246.8 689.99,-246.44 692.08,-253.12"/>
</g>
<!-- app&#45;&gt;storage -->
<g id="edge19" class="edge">
<title>app&#45;&gt;storage</title>
<path fill="none" stroke="black" d="M417.49,-149.6C398.72,-138.91 370.3,-122.74 348.07,-110.09"/>
<polygon fill="black" stroke="black" points="350.09,-107.21 339.67,-105.31 346.63,-113.29 350.09,-107.21"/>
</g>
<!-- app&#45;&gt;types -->
<g id="edge20" class="edge">
<title>app&#45;&gt;types</title>
<path fill="none" stroke="black" d="M433.67,-143.87C428.26,-119.88 418.37,-75.99 411.88,-47.16"/>
<polygon fill="black" stroke="black" points="415.35,-46.65 409.74,-37.67 408.52,-48.19 415.35,-46.65"/>
</g>
<!-- db/memory&#45;&gt;types -->
<g id="edge28" class="edge">
<title>db/memory&#45;&gt;types</title>
<path fill="none" stroke="black" d="M521.26,-216.69C530.42,-207.03 540.67,-193.97 545.53,-180 550.79,-164.89 551.75,-158.74 545.53,-144 524.59,-94.41 472.38,-56.77 437.98,-36.31"/>
<polygon fill="black" stroke="black" points="440.08,-33.48 429.67,-31.51 436.58,-39.54 440.08,-33.48"/>
</g>
<!-- db/memory&#45;&gt;app -->
<g id="edge26" class="edge">
<title>db/memory&#45;&gt;app</title>
<path fill="none" stroke="black" d="M487.89,-216.41C479.28,-207.28 468.47,-195.81 459.07,-185.85"/>
<polygon fill="black" stroke="black" points="461.71,-183.55 452.31,-178.67 456.62,-188.35 461.71,-183.55"/>
</g>
<!-- jmt -->
<g id="node13" class="node">
<title>jmt</title>
<ellipse fill="yellow" stroke="black" cx="509.53" cy="-162" rx="27" ry="18"/>
<text text-anchor="middle" x="509.53" y="-156.2" font-family="Helvetica,sans-Serif" font-size="14.00">jmt</text>
</g>
<!-- db/memory&#45;&gt;jmt -->
<g id="edge27" class="edge">
<title>db/memory&#45;&gt;jmt</title>
<path fill="none" stroke="black" d="M505.01,-215.7C505.64,-208.41 506.38,-199.73 507.08,-191.54"/>
<polygon fill="black" stroke="black" points="510.57,-191.87 507.93,-181.61 503.59,-191.28 510.57,-191.87"/>
</g>
<!-- vm/rust&#45;&gt;types -->
<g id="edge41" class="edge">
<title>vm/rust&#45;&gt;types</title>
<path fill="none" stroke="black" d="M732.26,-215.65C732.16,-196.14 729.13,-164.51 712.53,-144 645.6,-61.28 515.2,-32.84 447.93,-23.43"/>
<polygon fill="black" stroke="black" points="448.4,-19.96 438.03,-22.13 447.48,-26.9 448.4,-19.96"/>
</g>
<!-- vm/rust&#45;&gt;app -->
<g id="edge39" class="edge">
<title>vm/rust&#45;&gt;app</title>
<path fill="none" stroke="black" d="M701.71,-221.79C695.43,-219.67 688.81,-217.62 682.53,-216 591.26,-192.47 563.41,-208.38 473.53,-180 471.92,-179.49 470.3,-178.93 468.67,-178.32"/>
<polygon fill="black" stroke="black" points="470.05,-175.11 459.48,-174.46 467.34,-181.56 470.05,-175.11"/>
</g>
<!-- vm/rust&#45;&gt;crypto -->
<g id="edge40" class="edge">
<title>vm/rust&#45;&gt;crypto</title>
<path fill="none" stroke="black" d="M717.15,-216.76C709.37,-207.98 699.61,-196.96 690.96,-187.19"/>
<polygon fill="black" stroke="black" points="693.66,-184.96 684.41,-179.8 688.42,-189.61 693.66,-184.96"/>
</g>
<!-- client -->
<g id="node12" class="node">
<title>client</title>
<ellipse fill="yellow" stroke="black" cx="858.53" cy="-234" rx="30.87" ry="18"/>
<text text-anchor="middle" x="858.53" y="-228.2" font-family="Helvetica,sans-Serif" font-size="14.00">client</text>
</g>
<!-- client&#45;&gt;types -->
<g id="edge22" class="edge">
<title>client&#45;&gt;types</title>
<path fill="none" stroke="black" d="M844.93,-217.75C815.15,-185.36 740.48,-109.62 661.53,-72 591.44,-38.6 500.71,-26.17 448.23,-21.6"/>
<polygon fill="black" stroke="black" points="448.76,-18.13 438.51,-20.82 448.19,-25.11 448.76,-18.13"/>
</g>
<!-- client&#45;&gt;jmt -->
<g id="edge21" class="edge">
<title>client&#45;&gt;jmt</title>
<path fill="none" stroke="black" d="M830.04,-226.64C815.28,-223.38 796.95,-219.4 780.53,-216 696.95,-198.72 598.55,-179.84 546.37,-169.95"/>
<polygon fill="black" stroke="black" points="547.31,-166.56 536.84,-168.14 546.01,-173.44 547.31,-166.56"/>
</g>
<!-- jmt&#45;&gt;storage -->
<g id="edge30" class="edge">
<title>jmt&#45;&gt;storage</title>
<path fill="none" stroke="black" d="M488.4,-150.51C483.56,-148.25 478.41,-145.96 473.53,-144 435.12,-128.59 390.31,-113.95 358.07,-103.97"/>
<polygon fill="black" stroke="black" points="359.25,-100.67 348.67,-101.09 357.2,-107.37 359.25,-100.67"/>
</g>
<!-- jmt&#45;&gt;types -->
<g id="edge31" class="edge">
<title>jmt&#45;&gt;types</title>
<path fill="none" stroke="black" d="M498,-145.26C480.04,-120.74 445.22,-73.2 423.81,-43.96"/>
<polygon fill="black" stroke="black" points="426.74,-42.03 418,-36.03 421.09,-46.17 426.74,-42.03"/>
</g>
<!-- db/disk -->
<g id="node14" class="node">
<title>db/disk</title>
<ellipse fill="yellow" stroke="black" cx="392.53" cy="-234" rx="38.18" ry="18"/>
<text text-anchor="middle" x="392.53" y="-228.2" font-family="Helvetica,sans-Serif" font-size="14.00">db/disk</text>
</g>
<!-- db/disk&#45;&gt;types -->
<g id="edge25" class="edge">
<title>db/disk&#45;&gt;types</title>
<path fill="none" stroke="black" d="M393.57,-215.85C395.8,-179.14 401.06,-92.66 403.8,-47.53"/>
<polygon fill="black" stroke="black" points="407.28,-47.94 404.39,-37.74 400.29,-47.51 407.28,-47.94"/>
</g>
<!-- db/disk&#45;&gt;app -->
<g id="edge23" class="edge">
<title>db/disk&#45;&gt;app</title>
<path fill="none" stroke="black" d="M403.19,-216.41C408.54,-208.1 415.13,-197.85 421.1,-188.56"/>
<polygon fill="black" stroke="black" points="423.97,-190.57 426.43,-180.26 418.08,-186.78 423.97,-190.57"/>
</g>
<!-- db/disk&#45;&gt;jmt -->
<g id="edge24" class="edge">
<title>db/disk&#45;&gt;jmt</title>
<path fill="none" stroke="black" d="M415.65,-219.17C434.13,-208.11 460.17,-192.53 480.14,-180.58"/>
<polygon fill="black" stroke="black" points="481.87,-183.63 488.66,-175.49 478.28,-177.62 481.87,-183.63"/>
</g>
<!-- std -->
<g id="node15" class="node">
<title>std</title>
<ellipse fill="yellow" stroke="black" cx="592.53" cy="-378" rx="27" ry="18"/>
<text text-anchor="middle" x="592.53" y="-372.2" font-family="Helvetica,sans-Serif" font-size="14.00">std</text>
</g>
<!-- std&#45;&gt;ffi -->
<g id="edge33" class="edge">
<title>std&#45;&gt;ffi</title>
<path fill="none" stroke="black" d="M565.43,-375.6C462.04,-369.6 95.06,-342.15 33.53,-252 1.33,-204.83 56.59,-143.56 91.42,-111.93"/>
<polygon fill="black" stroke="black" points="93.46,-114.8 98.64,-105.56 88.82,-109.56 93.46,-114.8"/>
</g>
<!-- std&#45;&gt;storage -->
<g id="edge35" class="edge">
<title>std&#45;&gt;storage</title>
<path fill="none" stroke="black" d="M566.75,-371.83C515.74,-360.18 401.97,-326.82 345.53,-252 316.24,-213.17 312.24,-154.46 312.82,-119.7"/>
<polygon fill="black" stroke="black" points="316.31,-120.09 313.13,-109.99 309.31,-119.87 316.31,-120.09"/>
</g>
<!-- std&#45;&gt;types -->
<g id="edge37" class="edge">
<title>std&#45;&gt;types</title>
<path fill="none" stroke="black" d="M619.96,-377.42C698.31,-377.05 917.53,-364.46 917.53,-235 917.53,-235 917.53,-235 917.53,-161 917.53,-63.82 570.69,-30.41 447.95,-21.64"/>
<polygon fill="black" stroke="black" points="448.52,-18.17 438.3,-20.97 448.03,-25.15 448.52,-18.17"/>
</g>
<!-- std&#45;&gt;testing -->
<g id="edge36" class="edge">
<title>std&#45;&gt;testing</title>
<path fill="none" stroke="black" d="M566,-373.25C515.96,-365.9 404.39,-348.18 312.53,-324 309.03,-323.08 305.42,-322.04 301.81,-320.93"/>
<polygon fill="black" stroke="black" points="303.17,-317.69 292.58,-317.96 301.03,-324.36 303.17,-317.69"/>
</g>
<!-- std&#45;&gt;client -->
<g id="edge32" class="edge">
<title>std&#45;&gt;client</title>
<path fill="none" stroke="black" d="M612.96,-366.09C658.91,-341.57 770.68,-281.9 826.17,-252.27"/>
<polygon fill="black" stroke="black" points="827.66,-255.45 834.83,-247.65 824.36,-249.27 827.66,-255.45"/>
</g>
<!-- macros -->
<g id="node16" class="node">
<title>macros</title>
<ellipse fill="yellow" stroke="black" cx="985.53" cy="-306" rx="39.65" ry="18"/>
<text text-anchor="middle" x="985.53" y="-300.2" font-family="Helvetica,sans-Serif" font-size="14.00">macros</text>
</g>
<!-- std&#45;&gt;macros -->
<g id="edge34" class="edge">
<title>std&#45;&gt;macros</title>
<path fill="none" stroke="black" d="M619.16,-374.21C676.7,-367.89 816.69,-350.89 931.53,-324 935.55,-323.06 939.7,-321.97 943.83,-320.81"/>
<polygon fill="black" stroke="black" points="944.58,-324.23 953.17,-318.03 942.59,-317.52 944.58,-324.23"/>
</g>
<!-- vm/wasm -->
<g id="node17" class="node">
<title>vm/wasm</title>
<ellipse fill="yellow" stroke="black" cx="625.53" cy="-234" rx="48.42" ry="18"/>
<text text-anchor="middle" x="625.53" y="-228.2" font-family="Helvetica,sans-Serif" font-size="14.00">vm/wasm</text>
</g>
<!-- vm/wasm&#45;&gt;types -->
<g id="edge44" class="edge">
<title>vm/wasm&#45;&gt;types</title>
<path fill="none" stroke="black" d="M618.44,-216.2C604.2,-184.23 569.27,-114.1 520.53,-72 498.27,-52.77 467.86,-39.17 443.9,-30.56"/>
<polygon fill="black" stroke="black" points="445.09,-27.26 434.5,-27.33 442.82,-33.88 445.09,-27.26"/>
</g>
<!-- vm/wasm&#45;&gt;app -->
<g id="edge42" class="edge">
<title>vm/wasm&#45;&gt;app</title>
<path fill="none" stroke="black" d="M589.51,-221.63C558.45,-211.55 512.59,-195.98 473.53,-180 472.01,-179.38 470.46,-178.73 468.91,-178.05"/>
<polygon fill="black" stroke="black" points="470.62,-174.99 460.06,-174.07 467.74,-181.37 470.62,-174.99"/>
</g>
<!-- vm/wasm&#45;&gt;crypto -->
<g id="edge43" class="edge">
<title>vm/wasm&#45;&gt;crypto</title>
<path fill="none" stroke="black" d="M636.18,-216.05C641.28,-207.94 647.5,-198.04 653.18,-189.01"/>
<polygon fill="black" stroke="black" points="656.12,-190.92 658.47,-180.59 650.19,-187.19 656.12,-190.92"/>
</g>
</g>
</svg>
