<svg width="200" height="205" viewBox="0 0 200 205" fill="none" xmlns="http://www.w3.org/2000/svg">
<path d="M199.769 94.9449C199.876 98.0776 199.334 101.12 198.523 104.126C196.889 110.16 194.903 116.068 192.224 121.726C189.908 126.616 187.21 131.297 184.377 135.904C179.476 143.875 173.772 151.229 167.465 158.127C158.405 168.037 148.57 177.091 137.684 184.974C132.725 188.563 127.595 191.883 122.182 194.76C114.954 198.599 107.399 201.573 99.4669 203.578C98.2292 203.891 96.9833 204.191 95.7236 204.375C94.6509 204.535 93.5535 204.598 92.4699 204.565C89.8075 204.485 88.1627 202.323 88.6963 199.705C89.0291 198.085 89.8295 196.693 90.8059 195.395C92.4864 193.165 94.5354 191.327 96.8155 189.724C99.874 187.57 103.117 185.744 106.505 184.171C106.788 184.039 107.069 183.901 107.451 183.717C107.157 183.596 106.942 183.502 106.728 183.42C105.014 182.76 103.92 181.478 103.24 179.831C102.77 178.686 102.88 177.531 103.444 176.426C103.936 175.46 104.61 174.635 105.427 173.931C109.22 170.669 113.502 168.405 118.478 167.58C120.004 167.327 121.544 167.143 123.076 166.923C123.239 166.901 123.395 166.862 123.582 166.827C123.569 166.629 123.569 166.464 123.544 166.301C123.294 164.736 123.637 163.301 124.526 162C125.711 160.261 127.26 158.892 128.987 157.715C131.974 155.679 135.283 154.431 138.814 153.729C138.954 153.699 139.095 153.66 139.257 153.622C139.293 153.196 139.298 152.78 139.367 152.373C139.595 151.023 140.206 149.837 140.987 148.729C142.486 146.603 144.447 144.986 146.639 143.627C146.812 143.52 146.98 143.404 147.178 143.275C145.619 141.49 144.662 139.43 143.938 137.252C143.212 135.073 143.025 132.834 143.358 130.53C142.535 130.752 141.782 130.994 141.012 131.157C139.623 131.445 138.22 131.577 136.875 130.981C136.289 130.722 135.75 130.362 135.115 130.004C134.972 130.109 134.738 130.279 134.504 130.447C132.62 131.789 130.634 132.95 128.434 133.698C126.679 134.295 124.894 134.372 123.118 133.858C122.466 133.668 121.836 133.338 121.253 132.98C120.331 132.416 119.696 131.591 119.363 130.552C119.319 130.414 119.267 130.282 119.212 130.117C116.561 130.829 114.245 130.499 112.592 127.952C111.871 128.868 111.129 129.696 110.513 130.612C109.203 132.559 107.916 134.52 106.698 136.525C102.55 143.349 99.4119 150.613 97.3876 158.344C96.3727 162.22 95.6988 166.161 95.2835 170.146C94.9095 173.716 94.7582 177.292 94.9342 180.878C94.959 181.376 94.8737 181.833 94.6564 182.276C94.3236 182.952 93.6856 183.227 92.9815 182.966C92.7284 182.873 92.4836 182.738 92.2636 182.581C89.9863 180.942 87.6704 179.352 85.4481 177.639C81.5535 174.627 77.7167 171.538 73.8579 168.482C73.4013 168.119 72.9448 167.759 72.4552 167.368C72.2544 167.547 72.0811 167.693 71.9161 167.847C69.8423 169.77 67.7768 171.703 65.692 173.615C64.7816 174.451 63.8272 175.24 62.9086 176.065C62.3667 176.552 61.7864 176.698 61.1235 176.36C60.7165 176.151 60.2819 175.972 59.9216 175.697C54.3355 171.48 48.6725 167.374 42.9489 163.347C39.2138 160.721 35.5585 157.981 31.8262 155.349C28.7458 153.179 25.6048 151.092 22.4886 148.968C22.2631 148.814 22.0348 148.663 21.823 148.492C21.1602 147.953 21.1024 147.12 21.7048 146.518C21.9248 146.298 22.1916 146.116 22.4639 145.968C23.014 145.665 23.5723 145.371 24.1471 145.12C27.3266 143.737 30.297 141.971 33.2289 140.142C34.7912 139.169 36.2874 138.088 37.8111 137.051C37.9981 136.922 38.1687 136.768 38.4135 136.569C37.6186 136.08 36.9282 135.601 36.1911 135.211C34.6207 134.383 33.4875 133.12 32.5056 131.688C30.462 128.703 29.0923 125.447 28.589 121.855C28.149 118.719 28.1435 115.587 28.8035 112.476C28.9383 111.846 29.1639 111.23 29.4169 110.636C29.8294 109.665 30.7811 109.31 31.7217 110.036C32.9979 111.021 34.2961 111.981 35.586 112.946C35.7648 113.078 35.9601 113.194 36.2516 113.386C36.2214 112.927 36.1939 112.583 36.1746 112.239C36.1004 110.795 35.9876 109.354 35.9711 107.91C35.9243 103.54 36.8127 99.34 38.3777 95.2722C38.452 95.0769 38.5372 94.8816 38.6472 94.7056C39.0378 94.0757 39.7227 93.8667 40.3937 94.1748C40.6 94.271 40.7898 94.4085 40.9768 94.5406C48.0454 99.5655 55.1139 104.591 62.1824 109.616C62.4025 109.772 62.628 109.926 62.892 110.111C63.0928 109.959 63.2964 109.822 63.4834 109.66C64.8888 108.452 66.077 107.038 67.2047 105.581C69.174 103.023 71.025 100.38 72.7467 97.6485C72.8017 97.5605 72.8485 97.4697 72.9393 97.3102C72.1581 97.1562 71.8749 96.5511 71.5833 95.9405C70.8187 94.3453 70.3044 92.6703 69.9853 90.8825C69.7956 90.8825 69.6113 90.866 69.4353 90.8825C68.3296 91.0063 67.3725 90.6597 66.5171 89.9749C65.1639 88.8912 64.182 87.5188 63.4531 85.9648C62.2595 83.4097 61.6379 80.706 61.4893 77.8951C61.4426 76.9985 61.4811 76.0963 61.4811 75.2217C61.4041 75.1557 61.3628 75.1007 61.3051 75.076C59.6768 74.3993 58.6812 73.1177 57.9468 71.5802C57.3445 70.3177 57.0639 68.9673 56.8384 67.6004C56.7806 67.2511 56.7284 66.9018 56.6706 66.5249C56.5084 66.5167 56.3653 66.5002 56.2251 66.5057C54.341 66.5882 52.6853 65.9914 51.2193 64.8224C50.2787 64.0716 49.4976 63.1695 48.7797 62.2123C48.656 62.0473 48.5267 61.885 48.3424 61.6485C48.2599 61.874 48.1911 62.0335 48.1444 62.1986C47.6713 63.8131 47.0442 65.3615 46.1448 66.7917C45.592 67.6691 44.9347 68.4447 44.0903 69.0608C42.8939 69.9354 41.5764 70.2655 40.116 70.029C40.0142 70.0125 39.9097 70.0097 39.7309 69.996C39.7171 70.227 39.6951 70.4498 39.6896 70.6698C39.6264 73.4862 39.0736 76.2009 37.9706 78.7945C37.2665 80.453 36.2571 81.919 35.0112 83.2089C33.8973 84.3641 32.5688 85.1727 30.9351 85.39C30.1898 85.489 29.4746 85.3625 28.7678 85.1507C28.5918 85.0984 28.4212 85.0352 28.2067 84.9609C28.0609 85.4257 27.9207 85.863 27.7859 86.3003C27.1176 88.4264 26.2814 90.4755 25.0713 92.3595C24.1471 93.7952 23.1707 95.1759 21.5535 96.0203C22.0128 96.5896 22.0266 97.2497 22.1008 97.885C22.7912 103.787 22.1366 109.55 20.258 115.174C19.7465 116.706 19.1029 118.191 18.2062 119.542C17.7579 120.216 17.2161 120.843 16.655 121.428C15.9564 122.155 15.0928 122.617 14.0586 122.696C13.9981 122.702 13.9376 122.727 13.8799 122.746C13.8606 122.751 13.8496 122.771 13.8469 122.773C13.6681 124.237 13.5361 125.694 13.3023 127.133C13.0685 128.58 12.6834 129.993 11.9463 131.316C12.5047 131.696 12.7082 132.265 12.9365 132.832C14.8975 137.7 16.0802 142.763 16.7045 147.967C16.9576 150.09 17.1363 152.219 17.1006 154.362C17.0786 155.644 16.9878 156.917 16.6083 158.152C16.3552 158.98 15.9949 159.758 15.4448 160.432C14.3199 161.815 12.7935 162.099 11.2367 161.227C10.3428 160.726 9.64149 160.011 9.0089 159.219C7.78222 157.687 6.82508 155.996 6.05771 154.197C4.51474 150.58 3.43658 146.823 2.65822 142.975C1.5168 137.334 0.974971 131.63 0.741186 125.884C0.551408 121.247 0.76869 116.626 1.12074 112.008C1.81384 102.907 3.25505 93.919 5.22159 85.0132C6.15673 80.7803 7.09462 76.5502 8.30204 72.3833C10.8654 63.5573 14.0531 54.965 18.099 46.7083C22.5464 37.6347 27.8107 29.0617 34.0953 21.1295C36.5184 18.0738 38.9553 15.0346 41.7387 12.2925C44.7504 9.32206 48.0179 6.68442 51.7502 4.65738C54.9901 2.89712 58.3924 1.56592 62.0312 0.911327C64.4653 0.474013 66.8994 0.402503 69.3197 1.06535C70.8215 1.47791 72.1526 2.19577 73.3298 3.20516C75.4614 5.03418 76.7486 7.35552 77.3289 10.0867C77.8982 12.7683 77.9863 15.4857 77.879 18.2169C77.7002 22.821 76.8696 27.3262 75.8877 31.8121C75.8299 32.0789 75.7722 32.3429 75.7172 32.6097C75.7117 32.6455 75.7364 32.6895 75.7557 32.7665C76.2095 32.541 76.6523 32.3209 77.0979 32.1009C80.3296 30.5002 83.7566 29.6338 87.3486 29.3698C88.8558 29.2597 90.3603 29.235 91.8675 29.3698C93.0502 29.4743 94.1531 29.7576 95.1928 30.3874C97.3959 31.7186 99.6457 32.9783 101.876 34.2655C102.052 34.3672 102.237 34.4525 102.479 34.579C102.514 33.7291 102.377 32.9728 102.209 32.2274C102.179 32.0899 101.964 31.9661 101.81 31.8836C99.6924 30.7835 97.5719 29.6888 95.4486 28.5941C91.0012 26.3003 86.551 24.0092 82.1064 21.7126C81.8671 21.5889 81.6278 21.4403 81.4408 21.2506C81.0915 20.893 80.9897 20.4392 81.1795 19.9716C81.4298 19.3445 81.7736 18.7862 82.3374 18.3654C83.7786 17.2955 85.3353 16.4401 87.0158 15.8268C89.6122 14.8779 92.2498 14.0555 94.992 13.6182C98.0862 13.1259 101.169 13.1919 104.239 13.8245C104.577 13.8932 104.904 14.0748 105.207 14.2535C107.234 15.4362 109.253 16.6299 111.272 17.8208C111.431 17.9143 111.596 17.9968 111.816 18.1151C111.849 17.9391 111.89 17.8071 111.896 17.675C112.094 14.2095 111.877 10.766 111.404 7.33352C111.34 6.87695 111.219 6.43139 111.162 5.97207C111.052 5.05619 111.703 4.35208 112.564 4.5006C112.85 4.55011 113.117 4.76189 113.367 4.93517C113.62 5.11119 113.827 5.36148 114.085 5.5265C123.002 11.2171 131.922 16.9022 140.838 22.59C147.285 26.7019 153.724 30.8192 160.182 34.9146C160.96 35.4069 161.238 36.0642 161.172 36.9251C160.721 42.8192 159.679 48.5951 157.63 54.1619C156.871 56.2247 156.084 58.2765 155.311 60.3338C155.253 60.4878 155.196 60.6446 155.116 60.8591C155.44 61.1507 155.748 61.4615 156.089 61.7282C159.049 64.0303 162.011 66.3269 164.979 68.6208C165.193 68.7858 165.422 68.9426 165.664 69.0581C166.64 69.5229 167.297 70.282 167.726 71.2529C168.37 72.7133 168.483 74.2536 168.307 75.813C168.034 78.2472 167.347 80.5713 166.335 82.7963C165.71 84.1688 165.048 85.522 164.396 86.8807C164.297 87.087 164.181 87.2877 164.052 87.4803C163.436 88.3769 162.242 88.4512 161.524 87.6315C161.18 87.2382 160.875 86.8064 160.526 86.4186C158.326 83.9955 156.029 81.6742 153.435 79.6636C153.287 79.5481 153.136 79.4326 152.984 79.3253C152.954 79.3033 152.904 79.3033 152.808 79.2813C152.638 79.4821 152.448 79.6994 152.269 79.9249C150.019 82.7386 147.805 85.5852 145.511 88.3631C142.241 92.321 138.916 96.2293 135.613 100.16C133.63 102.517 131.674 104.896 129.655 107.223C127.857 109.294 125.992 111.31 124.146 113.342C123.912 113.598 123.621 113.799 123.241 114.121C123.659 114.178 123.954 114.239 124.251 114.255C127.202 114.396 130.109 114.099 132.959 113.312C137.205 112.14 141.185 110.364 144.953 108.086C148.226 106.109 151.249 103.787 154.227 101.406C158.529 97.9621 162.811 94.4965 167.11 91.0475C169.63 89.026 172.221 87.1035 175.081 85.5797C178.398 83.8112 181.924 82.7468 185.703 82.6616C189.422 82.5763 192.774 83.6104 195.629 86.0666C198.347 88.4044 199.664 91.3941 199.788 94.9504L199.769 94.9449ZM196.265 102.558C196.96 99.8048 197.417 97.0187 197.139 94.1637C196.936 92.0734 196.149 90.2307 194.678 88.7179C191.935 85.8988 188.517 84.9334 184.699 85.2717C181.157 85.5825 177.889 86.7707 174.866 88.6409C172.776 89.9336 170.796 91.3721 168.882 92.9068C164.222 96.6419 159.571 100.385 154.912 104.12C151.87 106.56 148.743 108.881 145.344 110.815C139.549 114.11 133.473 116.547 126.704 116.844C124.449 116.943 122.221 116.753 120.04 116.186C118.524 115.793 117.023 115.325 115.703 114.354C114.974 115.592 114.624 116.852 114.88 118.238C114.996 118.879 115.364 119.344 115.942 119.635C116.563 119.952 117.221 120.147 117.928 120.169C119.088 120.207 120.224 120.051 121.36 119.831C121.696 119.767 121.855 119.605 121.973 119.302C122.094 118.994 122.24 118.678 122.449 118.425C123.079 117.663 124.262 117.872 124.592 118.78C124.729 119.157 124.672 119.52 124.523 119.88C124.402 120.169 124.273 120.458 124.185 120.76C123.783 122.155 124.526 123.483 125.931 123.799C126.495 123.926 127.095 123.97 127.672 123.934C128.748 123.865 129.765 123.527 130.747 123.095C133.899 121.704 136.705 119.781 139.29 117.52C139.744 117.124 140.272 116.783 140.214 116.065C140.209 116.007 140.253 115.947 140.277 115.889C140.525 115.323 141.039 115.026 141.642 115.111C142.219 115.191 142.64 115.642 142.7 116.263C142.714 116.387 142.7 116.514 142.711 116.64C142.783 117.561 143.341 118.158 144.26 118.252C144.587 118.285 144.931 118.266 145.258 118.216C146.422 118.043 147.448 117.526 148.413 116.879C150.259 115.644 151.716 114.038 152.808 112.118C153.479 110.938 154.029 109.69 154.629 108.469C154.673 108.378 154.676 108.268 154.692 108.163C154.868 107.088 155.57 106.684 156.598 107.049C156.931 107.168 157.272 107.297 157.619 107.349C159.871 107.685 161.918 107.129 163.7 105.746C164.704 104.965 165.609 104.051 166.522 103.16C166.934 102.756 167.325 102.365 167.966 102.321C168.001 102.104 168.034 101.961 168.051 101.815C168.238 100.077 168.876 98.4901 169.687 96.9637C169.825 96.7079 169.982 96.4521 170.174 96.2348C170.628 95.7287 171.285 95.6435 171.822 95.99C172.35 96.3311 172.531 96.9802 172.27 97.599C172.212 97.7338 172.127 97.8548 172.064 97.9868C171.723 98.7267 171.338 99.4528 171.054 100.215C170.617 101.384 170.422 102.605 170.587 103.856C170.829 105.677 172.047 106.675 173.863 106.596C174.36 106.574 174.704 106.406 175.023 106.001C176.66 103.928 178.629 102.211 180.807 100.729C181.082 100.542 181.377 100.366 181.685 100.248C182.251 100.028 182.856 100.248 183.175 100.734C183.494 101.221 183.439 101.859 183.016 102.297C182.859 102.459 182.656 102.58 182.474 102.72C181.445 103.512 180.378 104.258 179.399 105.105C177.79 106.502 176.445 108.128 175.425 110.012C174.861 111.054 174.459 112.149 174.303 113.323C174.239 113.791 174.176 114.272 174.382 114.767C174.52 114.696 174.633 114.649 174.732 114.583C177.031 113.062 179.512 111.896 182.062 110.872C182.543 110.68 183.052 110.52 183.56 110.43C184.218 110.311 184.787 110.707 184.966 111.318C185.145 111.926 184.861 112.536 184.256 112.828C184.124 112.891 183.981 112.93 183.844 112.979C183.412 113.136 182.966 113.268 182.546 113.45C179.817 114.632 177.089 115.82 174.795 117.787C174.083 118.398 173.279 118.912 172.597 119.555C169.979 122.028 167.861 124.867 166.538 128.247C166.073 129.44 165.746 130.675 165.672 131.963C165.642 132.513 165.688 133.052 165.961 133.55C166.395 134.344 166.888 134.471 167.605 133.943C169.935 132.235 172.446 130.865 175.172 129.908C175.639 129.743 176.14 129.619 176.629 129.589C177.215 129.553 177.669 129.969 177.807 130.527C177.941 131.071 177.702 131.627 177.196 131.916C177.053 131.998 176.891 132.051 176.731 132.103C174.652 132.779 172.647 133.635 170.84 134.872C169.25 135.959 167.682 137.084 166.167 138.272C164.079 139.914 162.283 141.845 160.883 144.119C160.122 145.357 159.503 146.661 159.222 148.099C159.06 148.933 159.063 149.758 159.591 150.522C160.152 150.387 160.694 150.239 161.246 150.129C161.676 150.044 162.113 149.956 162.547 149.953C163.136 149.953 163.593 150.374 163.703 150.921C163.821 151.515 163.554 152.068 163.004 152.324C162.836 152.404 162.649 152.448 162.465 152.486C160.127 152.987 157.852 153.699 155.622 154.56C151.227 156.262 147.14 158.548 143.182 161.081C140.775 162.621 138.501 164.327 136.496 166.376C134.757 168.152 133.228 170.086 132.095 172.308C131.812 172.864 131.578 173.461 131.44 174.066C131.234 174.973 131.303 175.881 131.768 176.736C132.551 176.668 133.28 176.577 134.009 176.544C134.507 176.522 135.019 176.525 135.505 176.621C136.108 176.742 136.457 177.275 136.435 177.872C136.416 178.444 136.058 178.893 135.472 179.041C135.272 179.091 135.06 179.088 134.851 179.102C133.891 179.173 132.92 179.173 131.971 179.322C129.988 179.635 128.011 179.996 126.041 180.389C121.146 181.368 116.354 182.71 111.742 184.647C107.176 186.564 102.732 188.703 98.6583 191.553C96.656 192.953 94.7995 194.504 93.2537 196.41C92.5909 197.227 91.9886 198.085 91.5815 199.059C91.3972 199.499 91.2542 199.966 91.1744 200.437C91.0424 201.212 91.4082 201.735 92.1673 201.938C92.3874 201.996 92.6266 202.026 92.8494 202.007C93.8698 201.922 94.893 201.859 95.9024 201.699C96.9145 201.54 97.9157 201.303 98.9086 201.053C106.945 199.015 114.575 195.945 121.863 191.996C126.957 189.234 131.77 186.046 136.465 182.663C142.544 178.285 148.223 173.428 153.719 168.339C159.725 162.778 165.369 156.878 170.609 150.594C175.529 144.697 179.952 138.44 183.838 131.809C186.171 127.831 188.445 123.821 190.346 119.621C192.838 114.115 194.771 108.408 196.254 102.55L196.265 102.558ZM172.727 109.657C172.79 109.514 172.828 109.36 172.886 109.186C172.584 109.126 172.336 109.087 172.097 109.024C170.342 108.568 169.203 107.415 168.477 105.803C168.389 105.605 168.307 105.405 168.213 105.182C167.46 105.878 166.775 106.524 166.071 107.148C164.72 108.35 163.18 109.219 161.422 109.668C159.921 110.053 158.405 110.116 156.805 109.838C156.546 110.405 156.304 110.938 156.059 111.467C154.8 114.189 153.078 116.558 150.685 118.398C149.532 119.283 148.298 120.029 146.895 120.452C146.416 120.598 145.924 120.719 145.429 120.777C143.79 120.969 142.296 120.664 141.135 119.368C141.034 119.434 140.957 119.467 140.896 119.522C139.298 120.983 137.516 122.199 135.698 123.362C134.122 124.369 132.477 125.241 130.709 125.857C128.987 126.453 127.235 126.819 125.411 126.33C125.134 126.255 124.958 126.357 124.749 126.544C123.97 127.24 123.167 127.911 122.367 128.58C122.163 128.75 121.921 128.877 121.712 129.011C121.698 130.048 122.243 130.67 123.063 131.077C124.493 131.789 125.984 131.767 127.466 131.286C128.277 131.022 129.069 130.673 129.834 130.288C132.521 128.934 134.834 127.083 136.842 124.85C137.037 124.633 137.23 124.404 137.458 124.223C137.984 123.805 138.657 123.832 139.125 124.261C139.576 124.677 139.659 125.307 139.326 125.868C139.229 126.027 139.108 126.176 138.982 126.313C138.539 126.789 138.091 127.257 137.645 127.73C137.505 127.878 137.37 128.029 137.18 128.238C137.409 128.371 137.574 128.489 137.755 128.566C138.33 128.805 138.924 128.855 139.543 128.783C141.856 128.514 143.891 127.598 145.698 126.156C147.868 124.429 149.874 122.534 151.65 120.397C152.008 119.965 152.434 119.588 152.816 119.176C152.926 119.058 153.012 118.906 153.075 118.755C154.247 116.04 156.197 113.969 158.51 112.206C158.741 112.03 159.005 111.885 159.277 111.788C159.846 111.588 160.452 111.821 160.754 112.316C161.059 112.817 160.982 113.439 160.553 113.873C160.465 113.961 160.358 114.03 160.262 114.112C159.412 114.858 158.518 115.556 157.726 116.36C156.428 117.674 155.484 119.231 155.003 121.03C154.882 121.484 154.893 121.979 154.901 122.454C154.907 122.751 155.055 123.024 155.383 123.125C155.751 123.241 156.408 122.985 156.656 122.661C157.253 121.88 157.828 121.076 158.471 120.337C159.728 118.893 161.222 117.704 162.707 116.505C164.055 115.419 165.523 114.544 167.132 113.909C167.46 113.78 167.806 113.661 168.153 113.628C168.755 113.576 169.269 113.972 169.429 114.533C169.583 115.064 169.36 115.633 168.862 115.944C168.706 116.043 168.519 116.095 168.351 116.181C167.366 116.687 166.329 117.116 165.413 117.726C163.736 118.838 162.209 120.158 160.801 121.599C159.398 123.032 158.273 124.668 157.456 126.506C157.173 127.144 156.967 127.804 157.033 128.514C157.071 128.948 157.14 129.385 157.602 129.641C157.72 129.534 157.833 129.446 157.932 129.341C160.122 127.034 162.787 125.37 165.521 123.813C165.892 123.601 166.137 123.351 166.359 123.021C167.916 120.697 169.676 118.543 171.857 116.767C171.984 116.662 172.133 116.585 172.248 116.508C171.621 115.232 171.599 114.005 171.781 112.765C171.94 111.681 172.273 110.647 172.727 109.651V109.657ZM165.669 76.0936C165.842 74.9632 165.873 73.8438 165.534 72.7381C165.177 71.5692 164.629 71.1896 163.414 71.2116C162.443 71.2309 161.576 71.5829 160.743 72.0312C158.37 73.3129 156.466 75.1585 154.667 77.1277C154.643 77.1553 154.637 77.202 154.596 77.3065C157.487 79.4876 160.036 82.0675 162.536 84.7931C162.666 84.5538 162.762 84.3998 162.839 84.2348C163.251 83.3409 163.667 82.4525 164.063 81.5532C164.827 79.8011 165.383 77.9886 165.672 76.0936H165.669ZM164.374 136.402C164.486 136.294 164.596 136.182 164.723 136.052C163.593 135.032 163.095 133.767 163.111 132.323C163.119 131.511 163.257 130.7 163.397 129.897C163.516 129.223 163.722 128.569 163.898 127.87C163.796 127.9 163.733 127.906 163.689 127.936C161.442 129.438 159.431 131.195 157.888 133.437C156.827 134.98 155.946 136.619 155.468 138.445C155.358 138.866 155.251 139.298 155.394 139.807C155.52 139.793 155.603 139.796 155.68 139.776C157.577 139.328 159.503 139.039 161.447 138.902C161.714 138.883 161.854 138.729 162.022 138.575C162.803 137.846 163.59 137.125 164.374 136.399V136.402ZM161.015 69.0966C161.087 69.0691 161.147 69.0058 161.249 68.9343C158.906 66.9925 156.505 65.191 154.018 63.4197C153.908 63.6508 153.82 63.8351 153.73 64.0221C153.028 65.4963 152.374 66.9953 151.617 68.442C149.296 72.8811 146.65 77.1277 143.897 81.3084C141.075 85.5962 137.995 89.7026 134.845 93.7512C131.427 98.1491 127.991 102.533 124.545 106.912C123.783 107.88 123.054 108.881 122.02 109.671C122.243 110.122 122.46 110.559 122.713 111.076C123.269 110.485 123.775 109.987 124.234 109.453C127.13 106.087 130.024 102.723 132.904 99.34C136.122 95.5582 139.35 91.7902 142.511 87.9643C145.151 84.7684 147.684 81.4816 150.292 78.2582C152.03 76.1046 153.867 74.039 155.979 72.2375C157.5 70.9393 159.118 69.7924 161.015 69.0966ZM157.632 144.832C158.094 143.806 158.672 142.835 159.255 141.735C158.719 141.817 158.224 141.883 157.734 141.974C154.082 142.651 150.754 144.144 147.61 146.061C145.938 147.082 144.464 148.349 143.284 149.934C142.744 150.66 142.269 151.422 142.016 152.299C141.919 152.632 141.812 152.97 141.897 153.341C142.04 153.355 142.145 153.372 142.244 153.372C144.37 153.336 146.381 153.944 148.383 154.541C148.831 154.675 149.147 154.656 149.543 154.461C151.813 153.333 154.137 152.338 156.524 151.488C156.697 151.427 156.865 151.356 157.066 151.276C156.452 149.991 156.433 148.685 156.763 147.379C156.986 146.512 157.261 145.646 157.63 144.832H157.632ZM158.227 40.3494C158.342 39.2272 158.447 38.1023 158.559 36.9471C143.938 27.6232 129.334 18.3159 114.732 9.00576C114.591 8.915 114.44 8.84349 114.294 8.76373C114.281 8.75548 114.253 8.76373 114.234 8.77198C114.217 8.78023 114.206 8.79673 114.182 8.81874C114.182 8.89025 114.173 8.97276 114.182 9.05527C114.523 12.0807 114.638 15.1144 114.415 18.1536C114.382 18.6047 114.308 19.053 114.248 19.5646C114.435 19.6773 114.682 19.8286 114.932 19.9771C124.24 25.4697 133.544 30.9622 142.852 36.4548C143.377 36.7656 143.916 37.0571 144.114 37.7007C144.136 37.775 144.213 37.8327 144.274 37.8932C145.888 39.4912 146.796 41.477 147.362 43.6333C148.201 46.8266 148.218 50.05 147.659 53.2928C147.071 56.7088 146.147 60.0367 144.986 63.2932C143.35 67.8754 141.226 72.2568 138.938 76.5392C136.265 81.5476 133.283 86.3801 130.236 91.1713C127.931 94.7963 125.59 98.3939 122.994 101.821C122.072 103.039 121.162 104.26 120.227 105.506C120.45 106.034 120.598 106.615 120.97 107.159C121.146 106.97 121.297 106.827 121.426 106.667C122.006 105.952 122.59 105.237 123.156 104.511C125.337 101.722 127.491 98.9109 129.694 96.1385C135.142 89.2763 140.39 82.2793 145.003 74.8119C148.562 69.0526 151.579 63.0457 153.969 56.7143C155.971 51.4087 157.643 46.0207 158.227 40.3466V40.3494ZM155.311 132.661C155.512 132.345 155.718 132.034 155.922 131.723C154.101 129.955 154.208 127.908 154.973 125.719C153.721 125.428 152.893 124.663 152.473 123.428C152.343 123.541 152.261 123.604 152.192 123.678C150.525 125.485 148.683 127.097 146.749 128.61C146.554 128.764 146.397 129.022 146.317 129.267C145.899 130.532 145.726 131.836 145.786 133.167C145.905 135.838 146.865 138.231 148.262 140.461C148.622 141.036 149.123 141.526 149.554 142.048C150.721 141.545 151.81 141.075 152.924 140.593C152.555 139.325 152.833 138.126 153.229 136.946C153.738 135.428 154.458 134.012 155.317 132.664L155.311 132.661ZM144.386 56.3512C145.036 53.6806 145.586 50.9962 145.456 48.221C145.363 46.1995 145.03 44.2274 144.216 42.3572C143.528 40.7729 142.522 39.4775 140.965 38.6551C140.596 38.4598 140.242 38.2316 139.87 38.0418C137.406 36.7903 134.801 36.1908 132.037 36.4658C129.394 36.7326 126.946 37.6237 124.65 38.9384C123.558 39.5627 122.504 40.2448 121.566 41.0947C120.86 41.7356 120.246 41.7136 119.564 41.1057C119.443 40.9957 119.303 40.8967 119.157 40.8224C114.638 38.4901 110.116 36.1605 105.592 33.8309C105.43 33.7484 105.262 33.6824 105.072 33.5999V36.1C105.248 36.2073 105.422 36.32 105.603 36.4218C114.069 41.3148 122.535 46.205 130.998 51.1034C131.718 51.5187 132.51 51.8405 133.005 52.5667C133.06 52.6492 133.17 52.6932 133.253 52.7564C134.078 53.3588 134.744 54.1096 135.244 54.9925C136.072 56.453 136.548 58.0262 136.663 59.7039C136.839 62.2151 136.537 64.6767 135.97 67.119C134.991 71.3492 133.382 75.3372 131.377 79.174C127.986 85.6595 124.19 91.8974 120.114 97.9703C119.52 98.8532 118.915 99.7278 118.277 100.663C119.028 101.037 118.962 101.821 119.231 102.495C119.339 102.385 119.416 102.319 119.473 102.239C121.462 99.4638 123.533 96.7464 125.411 93.8997C128.11 89.8126 130.698 85.6513 133.195 81.4321C135.511 77.5156 137.659 73.5247 139.604 69.4129C141.598 65.1965 143.284 60.8811 144.386 56.3457V56.3512ZM145.159 156.865C145.324 156.76 145.484 156.645 145.712 156.488C144.012 155.938 142.37 155.85 140.723 156.042C137.975 156.361 135.362 157.164 132.89 158.399C130.967 159.359 129.188 160.536 127.725 162.129C127.232 162.665 126.778 163.254 126.41 163.878C125.89 164.756 125.967 165.704 126.27 166.681C128.341 166.629 130.365 166.681 132.348 167.17C132.441 167.071 132.516 166.997 132.582 166.92C134.603 164.406 136.955 162.233 139.609 160.413C141.419 159.172 143.308 158.042 145.159 156.862V156.865ZM133.327 67.1135C133.874 64.9077 134.221 62.6799 134.138 60.3998C134.083 58.9338 133.745 57.5394 133.003 56.2604C132.315 55.075 131.286 54.3352 129.955 54.0189C128.849 53.7576 127.744 53.8318 126.657 54.1069C123.085 55.02 120.001 56.7968 117.402 59.4069C116.973 59.8387 116.574 60.2953 116.145 60.7271C115.67 61.2057 115.114 61.3349 114.481 61.0461C114.176 60.9059 113.865 60.7821 113.563 60.6391C110.746 59.2996 107.933 57.9547 105.116 56.6125C100.771 54.5387 96.425 52.4676 92.0793 50.3966C91.906 50.3141 91.7218 50.2536 91.5705 50.1931C91.4302 52.1898 91.323 54.1096 91.1524 56.0267C90.8471 59.4729 90.3053 62.8834 89.4417 66.2362C88.149 71.2556 86.3915 76.1128 84.3424 80.8683C84.2544 81.0718 84.1664 81.2754 84.0976 81.4376C94.728 87.527 105.35 93.4871 116.335 98.9109C116.484 98.7047 116.607 98.5369 116.726 98.3664C119.119 94.9751 121.319 91.4628 123.467 87.9148C125.516 84.5263 127.505 81.1076 129.306 77.5816C131.017 74.2316 132.422 70.7688 133.33 67.1108L133.327 67.1135ZM133.052 33.7594C132.893 33.5971 132.73 33.4789 132.557 33.3771C131.135 32.5327 129.71 31.6938 128.286 30.8522C120.263 26.116 112.243 21.3771 104.217 16.6436C103.953 16.4869 103.656 16.3246 103.361 16.2861C101.992 16.1128 100.619 15.8873 99.2441 15.8625C96.3947 15.8103 93.625 16.3631 90.9131 17.2185C89.0759 17.7988 87.2304 18.3544 85.5499 19.328C85.1923 19.5343 84.8403 19.7543 84.4084 20.0129C96.48 26.2343 108.458 32.4062 120.483 38.6056C122.342 37.2194 124.287 36.0835 126.402 35.2419C128.536 34.3947 130.747 33.9217 133.052 33.7566V33.7594ZM130.362 170.133C130.458 169.932 130.571 169.737 130.736 169.429C129.768 169.363 128.899 169.258 128.027 169.25C124.96 169.214 121.927 169.572 118.909 170.097C114.523 170.861 110.719 172.825 107.336 175.669C106.706 176.2 106.159 176.8 105.765 177.531C105.466 178.092 105.477 178.653 105.774 179.212C106.299 180.202 107.05 180.917 108.164 181.189C108.59 181.294 109.019 181.423 109.454 181.448C110.072 181.484 110.606 181.632 110.95 182.188C111.197 182.091 111.39 182.017 111.585 181.946C112.762 181.508 113.931 181.049 115.117 180.636C119.539 179.102 124.102 178.128 128.684 177.24C128.819 177.212 128.946 177.154 129.086 177.108C129.039 176.882 129.001 176.701 128.959 176.519C128.668 175.221 128.682 173.928 129.163 172.685C129.501 171.81 129.955 170.98 130.362 170.133ZM126.448 51.4665C126.195 51.3097 126.039 51.2107 125.876 51.1172C115.257 44.97 104.632 38.8311 94.0211 32.6675C93.2097 32.1972 92.3736 31.9689 91.466 31.9111C88.1737 31.7021 84.9475 32.0486 81.7818 32.992C79.5952 33.6439 77.5874 34.6753 75.6154 35.7809C74.6693 36.3118 73.7864 36.9581 72.8815 37.5632C72.6807 37.698 72.5074 37.8822 72.2544 38.0995C86.496 44.8875 100.655 51.637 114.809 58.3838C118.005 54.888 121.877 52.6629 126.448 51.4665ZM122.727 124.955C122.295 124.118 121.885 123.326 121.454 122.493C120.496 122.575 119.501 122.694 118.5 122.74C117.477 122.79 116.467 122.636 115.529 122.276C115.037 123.09 114.715 124.107 114.685 125.095C114.616 127.207 115.626 128.123 117.672 127.801C119.704 127.482 121.355 126.379 122.727 124.955ZM120.628 113.276C120.686 113.191 120.736 113.1 120.802 112.993C119.141 109.808 117.73 106.519 116.638 102.982C116.39 103.323 116.217 103.556 116.049 103.796C112.938 108.216 109.726 112.561 106.373 116.8C105.933 117.352 105.523 117.93 105.1 118.497C105.144 119.228 105.19 119.957 105.237 120.689C105.245 120.793 105.262 120.898 105.278 120.999C105.694 123.876 106.643 126.605 107.633 129.319C107.688 129.468 107.779 129.6 107.886 129.803C109.209 127.991 110.565 126.299 112.135 124.652C112.259 123.376 112.636 122.058 113.345 120.823C112.243 119.514 112.132 117.988 112.292 116.409C112.416 115.18 112.911 114.074 113.486 112.993C113.824 112.358 114.248 111.893 114.946 111.621C115.59 111.37 116.096 111.395 116.624 111.846C117.716 112.778 119.031 113.235 120.4 113.612C120.488 113.485 120.562 113.384 120.628 113.282V113.276ZM102.385 117.515C103.769 116.227 113.684 103.056 114.792 101.029C104.005 95.6627 93.4793 89.8099 82.9947 83.7535C80.3626 89.9391 77.1419 95.781 73.3491 101.395C73.7561 101.653 74.0862 101.873 74.4245 102.077C75.0901 102.475 75.7612 102.861 76.4268 103.259C81.306 106.202 86.2897 108.958 91.3285 111.612C94.794 113.436 98.2347 115.303 101.684 117.152C101.92 117.278 102.16 117.399 102.385 117.512V117.515ZM106.285 132.309C106.126 132.13 105.98 131.968 105.812 131.778C105.482 132.155 105.204 132.466 104.932 132.785C101.728 136.55 98.5813 140.365 95.3055 144.07C92.1288 147.662 88.8944 151.213 85.5499 154.651C82.0871 158.207 78.4648 161.606 74.9086 165.072C74.7463 165.231 74.5537 165.358 74.3255 165.542C80.2251 170.353 86.0724 175.031 92.2801 179.503C92.1178 162.253 96.9365 146.619 106.285 132.309ZM104.478 129.413C104.594 129.281 104.75 129.075 104.717 128.945C104.594 128.434 104.462 127.917 104.167 127.408C104.049 127.545 103.967 127.639 103.89 127.735C102.853 128.998 101.863 130.301 100.771 131.514C96.0261 136.776 91.1002 141.856 85.7286 146.493C83.6988 148.245 81.7048 150.038 79.5045 151.581C77.5709 152.94 75.5109 154.032 73.1758 154.538C71.2753 154.95 69.4325 154.887 67.6943 153.905C67.6035 153.856 67.4935 153.787 67.4055 153.801C66.7371 153.908 66.242 153.539 65.725 153.223C57.5563 148.237 49.3876 143.253 41.2216 138.266C41.0318 138.151 40.8311 138.049 40.688 137.969C40.259 138.341 39.9014 138.696 39.5026 138.99C35.1405 142.202 30.5115 144.969 25.6076 147.277C25.4426 147.354 25.283 147.439 24.9942 147.585C37.4921 156.004 49.5498 164.863 61.6626 173.719C61.9707 173.458 62.2925 173.197 62.6005 172.916C65.2079 170.52 67.8015 168.111 70.4171 165.727C79.367 157.58 87.8217 148.955 95.6548 139.724C97.3216 137.76 98.9773 135.786 100.652 133.827C101.918 132.348 103.213 130.89 104.486 129.416L104.478 129.413ZM103.293 124.319C103.103 123.376 102.902 122.38 102.688 121.302C102.495 121.514 102.355 121.662 102.223 121.814C100.088 124.231 97.9817 126.676 95.8144 129.064C93.1382 132.009 90.3686 134.87 87.3486 137.472C85.2528 139.279 83.091 141 80.6459 142.323C79.6117 142.884 78.5501 143.393 77.3812 143.589C76.6633 143.71 75.9179 143.674 75.2028 143.8C74.4905 143.927 73.8772 143.743 73.2748 143.426C72.4772 143.011 71.6686 142.609 70.8985 142.147C69.3555 141.22 67.8345 140.258 66.3025 139.312C66.1348 139.207 65.9587 139.119 65.7745 139.017C65.725 139.138 65.6865 139.193 65.681 139.251C65.4059 141.699 65.3812 144.141 65.967 146.556C66.275 147.827 66.7068 149.048 67.4302 150.143C68.1921 151.298 69.218 152.098 70.6509 152.17C71.2918 152.203 71.9519 152.145 72.579 152.018C74.694 151.592 76.5505 150.583 78.2475 149.293C79.7795 148.129 81.2867 146.925 82.739 145.66C85.3766 143.363 88.0527 141.108 90.4841 138.586C91.6475 137.381 92.8439 136.206 94.0101 135.004C96.9448 131.985 99.819 128.907 102.336 125.518C102.633 125.12 102.954 124.74 103.295 124.314L103.293 124.319ZM100.476 119.888C100.553 119.795 100.617 119.693 100.707 119.566C100.52 119.456 100.364 119.357 100.199 119.269C96.6532 117.377 93.1162 115.468 89.5599 113.595C83.6851 110.501 77.923 107.212 72.2544 103.757C72.1499 103.694 72.0426 103.636 71.8859 103.548C69.8203 106.422 67.774 109.283 65.0951 111.689C66.11 112.41 67.0892 113.103 68.0325 113.774C68.1288 113.73 68.1508 113.727 68.1673 113.714C68.2746 113.615 68.3791 113.51 68.4864 113.411C70.4887 111.574 72.898 110.782 75.5439 111.092C79.7713 111.588 82.5162 114.027 83.8281 118.048C84.689 120.686 84.4827 123.34 83.7786 125.978C83.1625 128.285 82.0981 130.348 80.3681 132.034C78.6849 133.676 76.6798 134.38 74.3447 134.003C73.6709 133.896 73.0163 133.66 72.3039 133.47C72.1471 134.57 72.1581 135.654 72.2737 136.743C72.3809 137.738 72.6807 138.665 73.1978 139.521C74.0724 140.973 75.2138 141.449 76.8723 141.08C78.2035 140.786 79.3725 140.131 80.5111 139.424C82.8517 137.972 84.9695 136.223 86.9801 134.353C91.8208 129.85 96.2269 124.944 100.479 119.888H100.476ZM88.7321 54.4342C88.9053 52.5804 88.9659 50.7239 88.7926 48.8344C83.7236 46.4168 78.6491 43.9991 73.5691 41.5788C73.5086 41.6861 73.4618 41.7356 73.4536 41.7906C73.2281 43.0888 72.9668 44.3815 72.7962 45.6879C72.4799 48.1 72.3947 50.5259 72.4194 52.9572C72.4607 56.9645 73.1015 60.8646 74.3035 64.6904C75.7997 69.4596 78.7949 73.0434 82.8847 75.7911C83.0662 75.9121 83.267 76.0056 83.4596 76.1129C83.5283 76.0028 83.5723 75.9561 83.5943 75.8983C85.2611 71.5554 86.7188 67.152 87.6292 62.5781C88.1627 59.8855 88.479 57.1626 88.7321 54.4314V54.4342ZM82.5409 78.6212C82.3704 78.5085 82.2714 78.4369 82.1669 78.3737C79.8593 76.9985 77.868 75.2465 76.1132 73.2249C74.507 71.3712 73.2748 69.2919 72.4057 66.9953C70.9452 63.142 70.1256 59.1511 69.9193 55.0475C69.6828 50.3416 69.9578 45.6659 70.9727 41.048C71.0195 40.8307 71.0305 40.6051 71.0607 40.3851C70.6097 40.1678 70.2109 39.9891 69.8231 39.7828C68.9292 39.307 68.7367 38.5341 69.295 37.687C69.8396 36.8563 70.4969 36.1275 71.2973 35.5334C71.8501 35.1208 72.4139 34.722 73.03 34.2765C72.8237 33.7566 72.8925 33.2726 73.0108 32.772C74.0614 28.2833 74.9718 23.7672 75.2468 19.1493C75.4036 16.5089 75.3954 13.8712 74.9361 11.2556C74.5097 8.82424 73.5058 6.71193 71.5806 5.10019C70.6317 4.30808 69.5645 3.769 68.3598 3.47195C66.4263 2.99613 64.49 3.08965 62.5592 3.4252C59.8611 3.89276 57.3032 4.8059 54.8279 5.96657C51.2468 7.64431 48.0784 9.92165 45.1629 12.573C42.2998 15.1749 39.8024 18.1041 37.3711 21.1048C31.0259 28.9352 25.6378 37.3762 21.1162 46.3727C16.6908 55.174 13.2528 64.3604 10.5491 73.83C9.3362 78.0821 8.40656 82.4003 7.46867 86.7184C5.5984 95.3464 4.2672 104.054 3.61261 112.864C3.24955 117.759 3.12304 122.655 3.37332 127.562C3.64011 132.757 4.20394 137.914 5.2766 143.011C6.03296 146.606 7.06161 150.118 8.54133 153.484C9.23443 155.066 10.0898 156.554 11.223 157.863C11.575 158.27 11.9958 158.633 12.4332 158.947C12.8787 159.266 13.1538 159.225 13.4425 158.768C13.7478 158.278 14.0009 157.737 14.1797 157.186C14.4712 156.282 14.485 155.33 14.4987 154.387C14.5372 151.633 14.2402 148.911 13.8414 146.19C13.2115 141.88 12.1031 137.703 10.4721 133.665C10.4281 133.555 10.3621 133.456 10.2906 133.324C9.6855 133.72 9.06941 133.957 8.3708 133.899C7.6337 133.838 7.11112 133.362 7.06711 132.694C7.02311 132.031 7.49067 131.459 8.23053 131.377C8.60734 131.335 8.84662 131.157 9.07216 130.901C9.64974 130.244 10.032 129.482 10.2851 128.651C10.6921 127.303 10.9809 125.925 11.0497 124.52C11.1377 122.721 11.2037 120.92 11.168 119.118C11.1075 115.884 10.7031 112.685 9.90278 109.547C9.58373 108.295 9.15467 107.069 8.78336 105.861C8.50832 105.812 8.3213 105.784 8.13977 105.743C7.74921 105.652 7.46317 105.418 7.2899 105.058C6.95435 104.354 7.29815 103.562 8.10677 103.317C8.74211 103.127 9.24818 102.781 9.63324 102.272C10.1256 101.623 10.6179 100.965 11.0277 100.264C12.1774 98.3031 13.0437 96.2128 13.6791 94.0372C15.2606 88.6382 15.8354 83.1209 15.5466 77.5073C15.5301 77.1773 15.4888 76.85 15.4641 76.5502C15.3486 76.4924 15.2936 76.4622 15.2358 76.4374C14.4767 76.1266 14.1356 75.6068 14.2649 74.9604C14.4024 74.2728 14.9525 73.9235 15.7721 73.9318C16.0939 73.9345 16.4405 73.8713 16.732 73.7393C17.5461 73.379 18.2282 72.8261 18.8471 72.188C20.6679 70.3232 22.0843 68.1862 23.1652 65.8236C25.107 61.577 26.2814 57.1213 26.7435 52.4759C26.8343 51.5628 26.8783 50.6441 26.9443 49.753C26.628 49.5522 26.3447 49.4119 26.1082 49.2139C25.5883 48.7848 25.4701 48.1137 25.7836 47.5719C26.0972 47.0301 26.7572 46.7743 27.3651 47.0603C28.0252 47.3711 28.6633 47.3051 29.3234 47.1401C30.396 46.8733 31.3477 46.359 32.2416 45.7209C34.7719 43.9139 36.6642 41.5843 37.9679 38.7651C38.1934 38.2783 38.4602 37.8107 38.7243 37.3019C38.1852 36.5538 37.7671 35.6902 37.4481 34.777C36.5597 32.2384 36.5404 29.642 36.9007 27.0182C36.9365 26.7514 36.997 26.4791 37.096 26.2288C37.3243 25.654 37.8799 25.3459 38.452 25.4394C39.0625 25.5384 39.4861 26.0115 39.5136 26.6579C39.5219 26.8641 39.4834 27.0732 39.4641 27.2822C39.4009 27.9285 39.3046 28.5721 39.2771 29.2185C39.2001 31.0145 39.3541 32.783 40.0857 34.4497C40.303 34.9421 40.5643 35.4344 40.8998 35.8552C41.5572 36.6831 42.5253 36.9306 43.499 36.5263C43.9528 36.3365 44.3873 36.0505 44.7614 35.7259C45.1822 35.3574 45.5425 34.9091 45.8973 34.4717C46.2659 34.0207 46.5959 33.5394 46.959 33.047C45.9331 31.2208 45.5288 29.202 45.3445 27.1172C45.1409 24.7876 45.2537 22.4717 45.5535 20.1586C45.6883 19.119 45.8615 18.0848 46.2686 17.1085C46.3869 16.8224 46.5271 16.5281 46.7224 16.2916C47.0717 15.8653 47.6603 15.758 48.1554 15.9725C48.634 16.1816 48.953 16.7041 48.8925 17.246C48.8677 17.4715 48.7742 17.6888 48.7137 17.9088C48.5624 18.4534 48.3727 18.9897 48.2682 19.5426C47.9299 21.3386 47.8061 23.1593 47.8171 24.9829C47.8281 26.4516 47.9381 27.9148 48.2792 29.3477C48.5239 30.3736 48.8705 31.3583 49.5168 32.2109C50.4437 33.4321 51.5164 33.6631 52.8036 32.8408C53.4169 32.4502 53.9752 31.9634 54.5088 31.4656C54.8251 31.1685 55.0396 30.767 55.3009 30.4122C55.3587 30.4617 55.4165 30.5112 55.4742 30.5607C55.4467 30.4397 55.4302 30.3159 55.3944 30.1976C55.0369 29.0067 54.8664 27.7883 54.7921 26.5506C54.6931 24.9334 54.7591 23.3244 54.9434 21.7181C55.2267 19.24 55.631 16.7812 56.3488 14.3856C56.4974 13.885 56.6706 13.3872 56.9017 12.9196C57.2482 12.2182 57.9468 11.9652 58.5822 12.2457C59.2175 12.5235 59.476 13.1974 59.2258 13.94C59.0992 14.3168 58.9507 14.6853 58.8325 15.0649C58.2109 17.0507 57.8753 19.097 57.5948 21.1515C57.3115 23.2556 57.196 25.3652 57.4517 27.4802C57.6333 28.9929 58.0513 30.4314 58.86 31.7406C59.6961 33.091 60.9503 33.5009 62.441 33.3716C62.7545 32.0926 63.0406 30.8247 63.3734 29.5733C64.534 25.2111 66.3851 21.1405 68.7064 17.2817C68.8879 16.9792 69.1025 16.6821 69.361 16.4484C69.7791 16.0688 70.4309 16.066 70.8792 16.3823C71.3358 16.7041 71.5283 17.29 71.3275 17.8318C71.2423 18.0656 71.1103 18.2829 70.9782 18.4974C69.339 21.1873 67.9418 24.001 66.8911 26.9714C64.6358 33.3551 63.7859 39.945 64.1435 46.6945C64.2617 48.9609 64.6578 51.1887 65.3784 53.3478C65.4334 53.51 65.5132 53.6613 65.6039 53.8786C65.7277 53.6531 65.7992 53.5018 65.89 53.367C66.2338 52.8554 66.8279 52.6492 67.3725 52.8389C67.9445 53.0397 68.2773 53.6008 68.1976 54.2361C68.1811 54.3599 68.1591 54.4837 68.1233 54.6047C67.4935 56.871 67.0644 59.1704 66.8279 61.511C66.4758 65.0067 66.4428 68.4942 67.0149 71.9735C67.3202 73.8245 67.8428 75.6068 68.6981 77.2818C69.0997 78.0711 69.592 78.7945 70.2961 79.3583C70.6867 79.6719 71.1075 79.7791 71.5861 79.6114C71.9381 79.4876 72.2874 79.3638 72.6615 79.2318C72.6615 78.9705 72.6505 78.7422 72.6615 78.5167C72.7055 77.7851 72.7357 77.0535 72.8127 76.3246C72.876 75.7278 73.14 75.2327 73.7671 75.0484C74.694 74.7734 75.4971 75.516 75.3651 76.5529C75.2276 77.6393 75.1973 78.723 75.3074 79.8121C75.5301 82.0097 76.1655 84.0753 77.3372 85.9621C77.6452 86.4571 77.9973 86.9219 78.5776 87.2795C79.9033 84.3833 81.218 81.5174 82.5382 78.6322L82.5409 78.6212ZM78.6711 130.103C81.361 127.477 82.3539 122.248 81.5013 119.234C80.9099 117.143 79.8263 115.444 77.8652 114.423C75.5384 113.213 73.2336 113.345 70.9947 114.682C70.7224 114.844 70.4969 115.083 70.2521 115.287C70.3346 115.383 70.3594 115.422 70.3896 115.446C72.2517 116.761 74.1109 118.081 75.9812 119.388C76.5258 119.767 76.7486 120.26 76.5753 120.9C76.5148 121.12 76.413 121.329 76.325 121.541C75.6319 123.156 74.9251 124.765 74.243 126.385C73.6764 127.735 73.1675 129.108 72.8072 130.593C73.3931 131.124 74.0614 131.39 74.804 131.484C76.3223 131.674 77.5764 131.176 78.6711 130.106V130.103ZM77.4114 89.5596C76.3883 89.0287 75.7089 88.1871 75.1203 87.2602C74.1879 85.797 73.5994 84.1908 73.1648 82.524C73.1125 82.326 73.0548 82.128 72.9888 81.8969C72.7165 81.9657 72.4744 82.0262 72.2379 82.0895C70.9122 82.4415 69.713 82.2105 68.6459 81.3276C67.994 80.7885 67.4467 80.1642 66.9929 79.4518C66.176 78.1702 65.6122 76.7785 65.1556 75.3372C65.1006 75.164 65.0374 74.9962 64.9714 74.8092C64.7981 74.9054 64.6798 75.0072 64.5423 75.0429C64.0912 75.1585 63.973 75.461 63.995 75.8873C64.0445 76.8472 64.0307 77.8153 64.127 78.7697C64.358 81.0581 64.9328 83.2556 65.9862 85.313C66.4896 86.2921 67.1387 87.1612 67.994 87.8598C68.2443 88.0634 68.5551 88.2421 68.8687 88.3164C69.3802 88.4402 69.6195 88.1926 69.6608 87.6673C69.7213 86.9384 69.8011 86.2123 69.8918 85.4835C69.9166 85.2799 69.9743 85.0709 70.0568 84.8811C70.3099 84.3008 70.9122 83.99 71.4871 84.1193C72.0811 84.254 72.4964 84.7656 72.4689 85.4037C72.4497 85.863 72.3342 86.3141 72.3039 86.7734C72.1141 89.6806 72.7412 92.4255 74.0037 95.0356C74.0367 95.1044 74.0862 95.1621 74.1824 95.3079C75.3239 93.3744 76.4405 91.5206 77.4142 89.5596H77.4114ZM73.4756 121.616C73.5581 121.409 73.6379 121.203 73.7231 120.98C62.5978 113.07 51.5219 105.196 40.4378 97.3157C40.3717 97.4037 40.325 97.4477 40.303 97.5027C40.226 97.698 40.1572 97.896 40.0912 98.0941C38.6885 102.313 38.2869 106.642 38.6527 111.057C38.7738 112.514 38.9553 113.969 39.1121 115.427C39.2523 115.534 39.3816 115.644 39.5164 115.738C42.6326 117.894 45.746 120.059 48.8732 122.204C52.7953 124.894 56.8632 127.358 60.9173 129.839C62.507 130.813 64.094 131.789 65.6947 132.746C66.2778 133.096 66.5528 133.588 66.5308 134.251C66.5226 134.498 66.4731 134.749 66.4263 134.996C66.3465 135.423 66.253 135.843 66.1705 136.239C67.4467 137.015 68.6569 137.755 69.9331 138.533C69.9056 138.294 69.8863 138.134 69.8698 137.975C69.7928 137.227 69.6773 136.479 69.6443 135.731C69.5343 133.123 69.9743 130.585 70.8545 128.145C71.6493 125.942 72.5927 123.791 73.4728 121.618L73.4756 121.616ZM64.7238 57.9794C64.7513 57.7512 64.7871 57.5476 64.5945 57.3414C63.8849 56.574 63.4614 55.6389 63.1148 54.6707C62.485 52.9132 62.0642 51.1007 61.6956 49.2222C61.6351 49.3432 61.5664 49.4642 61.5196 49.5907C61.3353 50.1023 61.1428 50.6111 60.986 51.1309C60.1856 53.7356 59.6218 56.3925 59.3028 59.1016C58.9617 62.0088 58.9452 64.905 59.4733 67.7929C59.7071 69.0773 60.0481 70.3205 60.7962 71.4207C61.1703 71.968 61.6159 72.4411 62.2512 72.6611C62.5537 72.7684 62.9003 72.8041 63.2221 72.7849C63.6292 72.7601 64.0335 72.6418 64.479 72.5566C64.4708 72.4411 64.4708 72.3008 64.4488 72.1633C63.984 69.2781 63.8629 66.3737 64.0995 63.4637C64.2507 61.632 64.512 59.8085 64.7266 57.9794H64.7238ZM63.1231 148.622C63.3844 148.781 63.6512 148.938 63.9124 149.095C63.1918 146.716 62.8673 144.323 62.9168 141.883C62.9663 139.452 63.3184 137.054 63.8767 134.619C52.611 128.057 41.879 120.73 31.3119 112.999C31.2542 113.282 31.2046 113.483 31.1716 113.689C30.7838 116.018 30.7866 118.356 31.0314 120.702C31.4302 124.556 32.8989 127.974 35.2202 131.047C35.7676 131.77 36.4304 132.364 37.2198 132.834C39.2688 134.056 41.3014 135.31 43.3394 136.553C49.9349 140.577 56.5276 144.601 63.1231 148.627V148.622ZM62.0449 35.9295C59.6328 36.0202 57.8863 34.9696 56.6569 33.0993C55.8318 33.7456 55.0919 34.4002 54.2805 34.9476C53.1336 35.7204 51.8492 36.1055 50.463 35.7837C49.8469 35.6407 49.2638 35.3381 48.6312 35.0933C48.5597 35.1924 48.4634 35.3244 48.3699 35.4591C47.7456 36.331 47.08 37.1671 46.2521 37.8547C44.9677 38.9219 43.51 39.45 41.8267 39.1997C41.4582 39.1447 41.1006 39.0374 40.7128 38.9494C40.578 39.2492 40.4515 39.5352 40.3195 39.8185C38.7408 43.251 36.4002 46.0372 33.262 48.1468C32.2608 48.8206 31.1799 49.3047 30.022 49.6292C29.8652 49.6732 29.7139 49.731 29.5187 49.797C29.2546 56.0597 27.8574 62.0335 25.0547 67.8671C25.2528 68.0102 25.4536 68.1614 25.6598 68.3017C26.3859 68.794 27.1891 69.0856 28.0664 69.1186C29.2271 69.1626 30.176 68.7033 30.9681 67.8671C32.4313 66.3159 33.2757 64.4374 33.8093 62.4076C34.6399 59.2364 34.8792 56.0129 34.5299 52.7482C34.4996 52.4621 34.4914 52.1596 34.5519 51.8791C34.6702 51.3345 35.1322 50.9742 35.6741 50.9384C36.1746 50.9027 36.6752 51.1942 36.887 51.6783C36.9777 51.8846 37.0383 52.1183 37.0603 52.3439C37.1263 53.0315 37.184 53.7218 37.217 54.4122C37.2555 55.2786 37.3656 55.4133 38.2237 55.4876C38.3695 55.5013 38.518 55.4931 38.661 55.4766C40.281 55.2703 41.5572 54.4892 42.3575 53.07C42.7838 52.3109 43.0974 51.4747 43.3642 50.6414C43.8785 49.0324 43.994 47.3574 44.0408 45.6769C44.049 45.3853 44.0683 45.0856 44.1453 44.8078C44.2828 44.2962 44.7366 43.9661 45.2565 43.9359C45.8065 43.9029 46.3126 44.1999 46.4914 44.7198C46.5849 44.9893 46.6262 45.2946 46.6152 45.5806C46.5712 46.5213 46.5079 47.4619 46.4226 48.3998C46.3841 48.8261 46.3181 49.2222 46.7417 49.5192C46.8654 49.6072 46.9205 49.797 47.0085 49.94C47.5255 50.7761 48.5047 51.1557 49.4563 50.8944C50.1109 50.7156 50.6032 50.3058 51.0296 49.7997C51.2578 49.5275 51.4999 49.2662 51.7062 48.9774C51.7914 48.8591 51.8519 48.6803 51.8409 48.5346C51.7392 47.0466 51.7639 45.5614 51.9344 44.0817C52.105 42.5827 52.325 41.0892 52.7981 39.6508C52.9026 39.3345 53.0263 39.0154 53.2079 38.7404C53.5517 38.2233 54.1595 38.0583 54.7013 38.2756C55.2322 38.4901 55.5292 38.9797 55.4742 39.582C55.4577 39.747 55.4137 39.9093 55.3614 40.0688C54.6161 42.3214 54.3713 44.6482 54.3465 47.0026C54.33 48.4163 54.5308 49.8107 55.1992 51.0842C55.4495 51.5573 55.8043 51.9808 56.1426 52.4016C56.3186 52.6189 56.5716 52.7234 56.8742 52.6574C57.2152 52.5804 57.5618 52.5254 57.8533 52.4731C58.3539 51.0017 58.8242 49.5495 59.3385 48.1137C59.7923 46.8486 60.3947 45.6494 61.1785 44.552C61.3848 44.2632 61.4701 43.9881 61.4866 43.6361C61.5856 41.7548 61.7039 39.8735 61.8331 37.995C61.8799 37.3184 61.9762 36.6446 62.0532 35.935L62.0449 35.9295ZM57.2812 55.273C57.1189 55.273 57.0199 55.2675 56.9209 55.273C56.0353 55.3391 55.2789 55.02 54.6023 54.4809C53.9202 53.9364 53.4169 53.2433 53.0098 52.4786C52.9053 52.2806 52.7926 52.0881 52.6825 51.8873C49.8221 54.0161 48.59 54.0904 45.5508 52.3136C44.8989 54.0436 44.0353 55.6223 42.4538 56.6923C40.8696 57.7649 39.1561 58.2957 37.239 57.9519C37.1978 58.04 37.1593 58.0922 37.151 58.15C37.1235 58.337 37.1098 58.524 37.0905 58.7111C36.8705 60.8426 36.4799 62.9439 35.6961 64.9435C34.6427 67.6279 33.2014 70.018 30.4813 71.3161C30.3163 75.0374 29.7139 78.6872 28.9026 82.3123C29.6039 82.8733 30.363 82.9696 31.1661 82.7111C32.0023 82.4415 32.7009 81.9437 33.284 81.2919C34.3676 80.0817 35.3083 78.767 35.8226 77.213C36.2214 76.0028 36.5569 74.7679 36.8292 73.5247C37.173 71.9597 37.1153 70.359 37.107 68.7665C37.107 68.4117 37.0988 68.0487 37.1758 67.7049C37.3656 66.8495 38.1687 66.4617 38.9718 66.8082C39.1451 66.8825 39.3018 66.987 39.4669 67.0833C40.5643 67.7241 41.7855 67.6829 42.8389 66.7752C43.4549 66.2444 43.8868 65.5788 44.2773 64.8857C45.5343 62.6524 46.1256 60.2293 46.2604 57.6852C46.2714 57.4844 46.1916 57.2781 46.1531 57.0746C46.0788 56.684 45.9523 56.2962 45.9413 55.9056C45.9193 55.1795 46.4171 54.624 47.08 54.5524C47.7126 54.4837 48.2599 54.9017 48.4442 55.5976C48.5239 55.9001 48.5817 56.2109 48.678 56.508C49.3161 58.491 50.3557 60.2458 51.7474 61.7915C52.325 62.4324 52.9603 63.0127 53.7332 63.4115C54.5858 63.8516 55.4825 64.0551 56.4974 63.9011C56.4313 60.9856 56.7559 58.1445 57.2895 55.2703L57.2812 55.273ZM27.7639 73.3955C27.8217 72.8426 27.8519 72.287 27.8959 71.7012C26.3529 71.5527 25.0135 71.0659 23.7923 70.128C22.1613 72.4053 20.5523 74.6276 18.0247 76.0083C18.5088 81.985 17.9697 87.8763 16.457 93.7209C16.8833 93.8832 17.2409 94.0867 17.6204 94.1527C19.0589 94.4058 20.3131 93.9822 21.3582 92.9811C21.7323 92.6208 22.0458 92.1945 22.3511 91.7681C23.5833 90.0519 24.4497 88.1541 25.1125 86.1546C26.4877 82.0042 27.3128 77.7383 27.7611 73.3927L27.7639 73.3955ZM19.774 102.679C19.7932 100.71 19.6365 98.7569 19.3367 96.7629C18.7178 96.7629 18.1045 96.8234 17.5131 96.7464C16.9026 96.6666 16.3112 96.4493 15.7309 96.2981C15.0763 97.7475 14.4519 99.208 13.7616 100.635C13.0575 102.09 12.1774 103.438 10.9919 104.582C12.9942 109.583 13.6488 114.795 13.7918 120.086C14.2622 120.106 14.5345 119.866 14.7985 119.63C15.4943 119.008 16.0582 118.274 16.4542 117.435C16.9466 116.395 17.4554 115.356 17.8239 114.269C19.1001 110.515 19.7355 106.645 19.774 102.676V102.679Z" fill="black"/>
<path d="M197.139 94.164C197.417 97.0189 196.963 99.8051 196.264 102.558C194.782 108.417 192.848 114.124 190.357 119.63C188.456 123.833 186.181 127.84 183.849 131.817C179.963 138.448 175.537 144.703 170.62 150.602C165.38 156.884 159.736 162.787 153.729 168.348C148.234 173.436 142.555 178.291 136.476 182.672C131.781 186.052 126.968 189.243 121.874 192.004C114.586 195.956 106.956 199.023 98.9194 201.061C97.9265 201.311 96.9226 201.548 95.9132 201.708C94.9038 201.867 93.8807 201.93 92.8603 202.016C92.6347 202.035 92.3982 202.005 92.1782 201.947C91.4163 201.743 91.0532 201.218 91.1853 200.445C91.265 199.975 91.4108 199.507 91.5923 199.067C91.9994 198.093 92.6017 197.235 93.2646 196.418C94.8103 194.515 96.6668 192.964 98.6691 191.561C102.745 188.712 107.19 186.572 111.753 184.655C116.365 182.719 121.156 181.377 126.052 180.397C128.021 180.004 129.999 179.644 131.982 179.33C132.931 179.182 133.902 179.182 134.862 179.11C135.071 179.096 135.282 179.099 135.483 179.05C136.069 178.901 136.427 178.453 136.446 177.881C136.468 177.284 136.119 176.75 135.516 176.629C135.032 176.533 134.518 176.53 134.02 176.552C133.291 176.585 132.562 176.673 131.778 176.745C131.314 175.892 131.245 174.985 131.451 174.074C131.589 173.469 131.822 172.87 132.106 172.317C133.239 170.094 134.768 168.161 136.506 166.384C138.511 164.335 140.786 162.63 143.193 161.09C147.15 158.556 151.238 156.271 155.633 154.568C157.863 153.705 160.135 152.995 162.476 152.495C162.657 152.456 162.847 152.412 163.015 152.332C163.565 152.076 163.832 151.521 163.713 150.93C163.603 150.382 163.147 149.959 162.558 149.961C162.124 149.961 161.686 150.049 161.257 150.137C160.704 150.247 160.16 150.396 159.602 150.531C159.073 149.766 159.071 148.941 159.233 148.108C159.511 146.669 160.13 145.366 160.894 144.128C162.294 141.856 164.09 139.925 166.178 138.28C167.69 137.09 169.261 135.967 170.851 134.881C172.658 133.643 174.663 132.791 176.742 132.111C176.902 132.059 177.061 132.007 177.207 131.924C177.716 131.638 177.952 131.08 177.817 130.535C177.68 129.977 177.223 129.559 176.64 129.597C176.148 129.63 175.65 129.754 175.183 129.916C172.457 130.874 169.946 132.243 167.616 133.951C166.898 134.477 166.406 134.353 165.971 133.558C165.699 133.06 165.652 132.521 165.683 131.971C165.754 130.684 166.081 129.449 166.549 128.255C167.869 124.875 169.987 122.037 172.608 119.564C173.29 118.92 174.091 118.406 174.806 117.795C177.1 115.829 179.825 114.641 182.556 113.458C182.977 113.277 183.42 113.142 183.855 112.988C183.992 112.938 184.135 112.9 184.267 112.836C184.872 112.545 185.156 111.934 184.977 111.327C184.798 110.716 184.229 110.32 183.571 110.438C183.06 110.529 182.554 110.688 182.072 110.881C179.523 111.904 177.042 113.07 174.743 114.591C174.641 114.657 174.528 114.704 174.393 114.776C174.187 114.28 174.25 113.799 174.313 113.332C174.473 112.157 174.872 111.06 175.436 110.02C176.456 108.136 177.801 106.511 179.41 105.113C180.389 104.263 181.456 103.518 182.485 102.729C182.666 102.588 182.87 102.467 183.027 102.305C183.448 101.868 183.503 101.23 183.186 100.743C182.867 100.256 182.262 100.039 181.696 100.256C181.387 100.374 181.093 100.55 180.818 100.737C178.64 102.22 176.671 103.936 175.034 106.01C174.715 106.414 174.371 106.582 173.873 106.604C172.058 106.684 170.84 105.685 170.598 103.865C170.433 102.613 170.628 101.392 171.065 100.223C171.349 99.4613 171.734 98.7352 172.075 97.9953C172.135 97.8633 172.223 97.7423 172.281 97.6075C172.542 96.9887 172.361 96.3396 171.833 95.9985C171.296 95.652 170.639 95.7372 170.185 96.2433C169.993 96.4578 169.833 96.7136 169.698 96.9722C168.887 98.4986 168.249 100.086 168.062 101.824C168.045 101.97 168.015 102.113 167.977 102.33C167.336 102.377 166.948 102.767 166.533 103.169C165.619 104.06 164.715 104.973 163.711 105.754C161.931 107.138 159.882 107.693 157.63 107.358C157.283 107.305 156.945 107.176 156.609 107.058C155.58 106.689 154.879 107.096 154.703 108.172C154.687 108.274 154.684 108.386 154.64 108.477C154.04 109.698 153.49 110.947 152.819 112.127C151.727 114.047 150.269 115.653 148.424 116.888C147.459 117.534 146.433 118.051 145.269 118.225C144.942 118.274 144.598 118.293 144.271 118.26C143.352 118.167 142.794 117.57 142.722 116.649C142.711 116.525 142.722 116.398 142.711 116.272C142.648 115.653 142.23 115.199 141.652 115.119C141.05 115.037 140.536 115.331 140.288 115.898C140.263 115.955 140.219 116.016 140.225 116.074C140.283 116.794 139.755 117.133 139.301 117.529C136.715 119.79 133.91 121.709 130.758 123.104C129.776 123.538 128.759 123.877 127.683 123.943C127.106 123.978 126.506 123.934 125.942 123.808C124.537 123.489 123.794 122.163 124.196 120.769C124.284 120.469 124.413 120.18 124.534 119.889C124.685 119.528 124.74 119.165 124.603 118.788C124.275 117.881 123.09 117.674 122.46 118.434C122.251 118.687 122.105 119.003 121.984 119.311C121.866 119.613 121.706 119.773 121.371 119.839C120.235 120.059 119.099 120.216 117.938 120.177C117.232 120.153 116.577 119.96 115.953 119.644C115.378 119.349 115.009 118.887 114.891 118.247C114.638 116.86 114.985 115.601 115.713 114.363C117.034 115.334 118.538 115.801 120.051 116.195C122.232 116.764 124.46 116.951 126.715 116.852C133.486 116.555 139.559 114.118 145.354 110.823C148.751 108.89 151.878 106.568 154.923 104.129C159.58 100.394 164.233 96.6504 168.892 92.9153C170.807 91.3806 172.787 89.9421 174.877 88.6494C177.9 86.7792 181.167 85.591 184.71 85.2802C188.528 84.9447 191.944 85.9073 194.688 88.7265C196.16 90.2392 196.947 92.0847 197.15 94.1722L197.139 94.164Z" fill="#F5DEBB"/>
<path d="M172.886 109.189C172.828 109.363 172.79 109.517 172.726 109.66C172.273 110.655 171.94 111.692 171.78 112.773C171.599 114.013 171.621 115.24 172.248 116.516C172.132 116.593 171.987 116.673 171.857 116.775C169.676 118.552 167.916 120.702 166.359 123.029C166.137 123.359 165.892 123.61 165.52 123.821C162.787 125.378 160.124 127.042 157.932 129.35C157.833 129.454 157.718 129.545 157.602 129.65C157.14 129.394 157.071 128.956 157.033 128.522C156.967 127.812 157.173 127.152 157.456 126.514C158.273 124.677 159.398 123.04 160.801 121.607C162.212 120.166 163.735 118.849 165.413 117.735C166.329 117.127 167.366 116.698 168.351 116.189C168.518 116.104 168.705 116.052 168.862 115.953C169.36 115.642 169.58 115.07 169.429 114.542C169.266 113.98 168.755 113.582 168.153 113.637C167.806 113.667 167.459 113.788 167.132 113.917C165.523 114.553 164.054 115.427 162.707 116.514C161.222 117.71 159.728 118.901 158.471 120.345C157.825 121.085 157.253 121.888 156.656 122.669C156.408 122.994 155.751 123.249 155.382 123.134C155.055 123.032 154.907 122.76 154.901 122.463C154.893 121.987 154.879 121.489 155.003 121.038C155.484 119.239 156.43 117.683 157.726 116.368C158.518 115.565 159.412 114.866 160.262 114.121C160.355 114.038 160.465 113.969 160.553 113.881C160.982 113.447 161.059 112.825 160.754 112.325C160.451 111.83 159.849 111.596 159.277 111.797C159.005 111.893 158.738 112.039 158.51 112.215C156.197 113.978 154.247 116.049 153.075 118.763C153.009 118.915 152.924 119.066 152.816 119.184C152.434 119.597 152.01 119.974 151.65 120.405C149.873 122.54 147.868 124.438 145.698 126.165C143.891 127.606 141.853 128.519 139.543 128.791C138.927 128.863 138.33 128.813 137.755 128.574C137.574 128.497 137.409 128.379 137.18 128.247C137.37 128.038 137.505 127.887 137.645 127.738C138.091 127.268 138.542 126.797 138.982 126.322C139.108 126.184 139.229 126.035 139.326 125.876C139.658 125.318 139.573 124.685 139.125 124.27C138.66 123.838 137.983 123.81 137.458 124.231C137.23 124.413 137.037 124.638 136.842 124.858C134.834 127.092 132.521 128.943 129.834 130.296C129.069 130.681 128.277 131.03 127.466 131.294C125.986 131.776 124.493 131.795 123.062 131.085C122.243 130.678 121.698 130.057 121.712 129.02C121.921 128.882 122.16 128.758 122.367 128.588C123.17 127.92 123.97 127.248 124.748 126.553C124.957 126.366 125.134 126.264 125.411 126.338C127.232 126.825 128.987 126.462 130.709 125.865C132.477 125.252 134.122 124.377 135.698 123.37C137.516 122.207 139.298 120.994 140.896 119.531C140.957 119.476 141.034 119.443 141.135 119.377C142.296 120.672 143.79 120.978 145.429 120.785C145.924 120.727 146.416 120.603 146.895 120.46C148.297 120.037 149.532 119.292 150.685 118.406C153.078 116.566 154.799 114.198 156.059 111.475C156.304 110.944 156.546 110.413 156.804 109.847C158.405 110.124 159.923 110.064 161.422 109.676C163.18 109.225 164.72 108.359 166.071 107.157C166.775 106.532 167.457 105.883 168.213 105.19C168.307 105.413 168.389 105.614 168.477 105.812C169.203 107.424 170.342 108.576 172.097 109.032C172.339 109.096 172.583 109.134 172.886 109.195V109.189Z" fill="#F5DEBB"/>
<path d="M165.534 72.738C165.872 73.8437 165.842 74.9631 165.669 76.0935C165.377 77.9886 164.825 79.8011 164.06 81.5531C163.667 82.4525 163.249 83.3436 162.836 84.2347C162.759 84.3998 162.663 84.5565 162.533 84.7931C160.033 82.0674 157.484 79.4875 154.593 77.3065C154.634 77.1992 154.64 77.1552 154.665 77.1277C156.466 75.1611 158.367 73.3129 160.74 72.0312C161.574 71.5829 162.44 71.2281 163.411 71.2116C164.624 71.1868 165.174 71.5691 165.531 72.738H165.534Z" fill="#B4BD57"/>
<path d="M164.723 136.055C164.596 136.184 164.486 136.297 164.374 136.404C163.59 137.131 162.803 137.851 162.022 138.58C161.854 138.737 161.711 138.891 161.447 138.907C159.503 139.045 157.577 139.334 155.679 139.782C155.602 139.801 155.52 139.798 155.393 139.812C155.25 139.303 155.358 138.872 155.468 138.451C155.944 136.625 156.826 134.988 157.888 133.442C159.431 131.201 161.442 129.443 163.689 127.941C163.735 127.911 163.799 127.906 163.898 127.875C163.722 128.571 163.513 129.229 163.397 129.903C163.257 130.706 163.119 131.517 163.111 132.328C163.095 133.772 163.592 135.038 164.723 136.058V136.055Z" fill="#F5DEBB"/>
<path d="M161.249 68.9342C161.147 69.0057 161.09 69.069 161.015 69.0965C159.118 69.7951 157.5 70.9393 155.979 72.2375C153.867 74.039 152.03 76.1045 150.291 78.2581C147.684 81.4843 145.151 84.7683 142.511 87.9643C139.35 91.7901 136.119 95.5609 132.903 99.3399C130.027 102.72 127.13 106.087 124.234 109.453C123.772 109.99 123.269 110.487 122.713 111.076C122.46 110.562 122.243 110.122 122.02 109.67C123.054 108.881 123.786 107.877 124.545 106.912C127.988 102.533 131.424 98.149 134.845 93.7511C137.997 89.6998 141.075 85.5934 143.897 81.3083C146.65 77.1277 149.299 72.8811 151.617 68.4419C152.374 66.9952 153.028 65.499 153.729 64.022C153.817 63.835 153.906 63.6507 154.018 63.4197C156.505 65.1909 158.906 66.9952 161.249 68.9342Z" fill="#7A8125"/>
<path d="M159.258 141.735C158.672 142.835 158.095 143.809 157.635 144.832C157.269 145.646 156.992 146.512 156.769 147.379C156.436 148.685 156.458 149.992 157.071 151.276C156.868 151.356 156.7 151.427 156.53 151.488C154.142 152.338 151.818 153.333 149.549 154.461C149.156 154.656 148.837 154.676 148.388 154.541C146.386 153.944 144.376 153.339 142.249 153.372C142.148 153.372 142.046 153.355 141.903 153.342C141.818 152.97 141.925 152.632 142.021 152.299C142.274 151.422 142.75 150.66 143.289 149.934C144.466 148.35 145.943 147.079 147.616 146.061C150.762 144.144 154.09 142.653 157.74 141.974C158.229 141.883 158.724 141.817 159.261 141.735H159.258Z" fill="#F5DEBB"/>
<path d="M158.562 36.9475C158.45 38.1026 158.345 39.2276 158.229 40.3497C157.646 46.0238 155.974 51.4118 153.972 56.7174C151.582 63.046 148.565 69.0529 145.006 74.815C140.393 82.2824 135.145 89.2794 129.697 96.1416C127.496 98.914 125.34 101.725 123.159 104.514C122.592 105.24 122.009 105.955 121.429 106.67C121.3 106.83 121.149 106.973 120.973 107.163C120.601 106.618 120.453 106.035 120.23 105.51C121.165 104.264 122.078 103.042 122.997 101.824C125.59 98.397 127.931 94.7994 130.239 91.1744C133.286 86.3832 136.268 81.5508 138.941 76.5423C141.229 72.2571 143.353 67.8785 144.989 63.2963C146.15 60.0399 147.074 56.7119 147.662 53.2959C148.221 50.0531 148.204 46.8297 147.365 43.6365C146.799 41.4801 145.891 39.4943 144.277 37.8964C144.219 37.8386 144.142 37.7781 144.117 37.7038C143.919 37.0575 143.38 36.7687 142.855 36.4579C133.547 30.9654 124.24 25.4755 114.935 19.9802C114.685 19.8317 114.438 19.6804 114.251 19.5677C114.314 19.0534 114.385 18.6078 114.418 18.1567C114.641 15.1175 114.526 12.0838 114.185 9.05839C114.176 8.97588 114.185 8.89336 114.185 8.82185C114.209 8.7971 114.22 8.7806 114.237 8.7751C114.256 8.76685 114.284 8.75859 114.297 8.76685C114.443 8.84386 114.594 8.91812 114.735 9.00888C129.339 18.319 143.941 27.6291 158.562 36.9502V36.9475Z" fill="#7A8125"/>
<path d="M155.922 131.723C155.718 132.034 155.512 132.344 155.311 132.661C154.453 134.008 153.732 135.425 153.223 136.943C152.827 138.123 152.55 139.319 152.918 140.59C151.804 141.071 150.715 141.542 149.549 142.045C149.117 141.522 148.617 141.036 148.256 140.458C146.859 138.227 145.899 135.835 145.781 133.164C145.72 131.833 145.894 130.529 146.312 129.264C146.391 129.022 146.548 128.761 146.744 128.607C148.677 127.091 150.52 125.479 152.187 123.675C152.255 123.601 152.341 123.538 152.467 123.425C152.888 124.66 153.716 125.424 154.967 125.716C154.203 127.905 154.095 129.952 155.916 131.72L155.922 131.723Z" fill="#F5DEBB"/>
<path d="M145.457 48.2211C145.586 50.9935 145.036 53.6779 144.387 56.3513C143.284 60.8867 141.598 65.1994 139.604 69.4185C137.659 73.5303 135.511 77.5239 133.195 81.4377C130.698 85.6568 128.11 89.8182 125.412 93.9053C123.533 96.752 121.462 99.4721 119.473 102.245C119.416 102.324 119.339 102.39 119.231 102.5C118.962 101.826 119.028 101.043 118.277 100.669C118.915 99.7334 119.523 98.8588 120.114 97.9759C124.19 91.903 127.986 85.6623 131.377 79.1796C133.385 75.3428 134.991 71.3548 135.97 67.1246C136.537 64.6823 136.837 62.2179 136.663 59.7095C136.548 58.0318 136.072 56.4586 135.244 54.9981C134.744 54.1125 134.081 53.3616 133.253 52.762C133.168 52.7015 133.06 52.6548 133.005 52.5723C132.51 51.8434 131.716 51.5243 130.998 51.109C122.535 46.2133 114.069 41.3204 105.603 36.4274C105.424 36.3229 105.248 36.2128 105.072 36.1056V33.6055C105.259 33.688 105.43 33.7512 105.592 33.8365C110.114 36.1633 114.636 38.4929 119.157 40.828C119.303 40.9023 119.44 41.0013 119.564 41.1113C120.246 41.7192 120.86 41.7412 121.567 41.1003C122.504 40.2504 123.558 39.5711 124.65 38.944C126.946 37.6293 129.394 36.7382 132.037 36.4714C134.804 36.1936 137.406 36.7959 139.87 38.0474C140.245 38.2371 140.597 38.4654 140.965 38.6607C142.522 39.4803 143.526 40.7758 144.216 42.3628C145.03 44.2358 145.363 46.2078 145.457 48.2266V48.2211Z" fill="#7A8125"/>
<path d="M145.712 156.491C145.484 156.647 145.324 156.76 145.159 156.868C143.308 158.047 141.419 159.178 139.609 160.418C136.955 162.239 134.606 164.412 132.582 166.926C132.516 167.006 132.441 167.077 132.348 167.176C130.368 166.689 128.343 166.634 126.269 166.686C125.967 165.71 125.89 164.761 126.41 163.884C126.778 163.259 127.232 162.671 127.724 162.135C129.188 160.539 130.964 159.365 132.89 158.405C135.362 157.17 137.975 156.367 140.723 156.048C142.373 155.855 144.012 155.941 145.712 156.493V156.491Z" fill="#F5DEBB"/>
<path d="M134.135 60.3995C134.221 62.6796 133.871 64.9075 133.324 67.1133C132.419 70.7713 131.011 74.2341 129.3 77.5841C127.499 81.1128 125.51 84.5316 123.461 87.9173C121.313 91.4654 119.113 94.9776 116.72 98.3689C116.602 98.5394 116.478 98.7072 116.329 98.9134C105.344 93.4897 94.7222 87.5295 84.0919 81.4401C84.1606 81.2779 84.2487 81.0743 84.3367 80.8708C86.3885 76.1154 88.146 71.2581 89.4359 66.2387C90.2995 62.8859 90.8414 59.4754 91.1467 56.0292C91.3172 54.1121 91.4245 52.1923 91.5647 50.1956C91.716 50.2561 91.9003 50.3166 92.0736 50.3991C96.4192 52.4701 100.765 54.5439 105.11 56.615C107.924 57.9572 110.741 59.2994 113.557 60.6416C113.86 60.7846 114.17 60.9084 114.476 61.0486C115.108 61.3402 115.664 61.2109 116.14 60.7296C116.569 60.2978 116.967 59.8412 117.397 59.4094C119.998 56.7993 123.082 55.0225 126.652 54.1094C127.738 53.8316 128.844 53.7573 129.949 54.0214C131.278 54.3377 132.306 55.0775 132.997 56.2629C133.739 57.5419 134.078 58.9336 134.133 60.4023L134.135 60.3995ZM113.923 81.8554C116.233 78.7667 117.105 75.337 116.145 71.5497C115.303 68.2299 113.282 65.7683 110.364 64.0438C108.21 62.7731 105.911 62.0333 103.361 62.3166C101.705 62.4981 100.231 63.1059 99.0568 64.2831C96.2872 67.0583 95.0275 70.477 94.8762 74.3881C94.923 74.9409 94.945 75.5268 95.0275 76.1043C95.5858 80.0539 97.6541 82.9721 101.144 84.8561C103.529 86.1433 106.059 86.4376 108.68 85.662C110.878 85.0129 112.572 83.657 113.923 81.8527V81.8554Z" fill="#7A8125"/>
<path d="M132.557 33.3773C132.73 33.4791 132.892 33.5973 133.052 33.7596C130.747 33.9246 128.536 34.3977 126.402 35.2448C124.286 36.0837 122.342 37.2196 120.483 38.6086C108.458 32.4091 96.4799 26.2372 84.4084 20.0158C84.8429 19.7545 85.1922 19.5373 85.5498 19.331C87.2303 18.3573 89.0758 17.8018 90.9131 17.2214C93.625 16.366 96.3946 15.8132 99.244 15.8655C100.619 15.8902 101.992 16.1158 103.361 16.289C103.658 16.3248 103.953 16.4898 104.217 16.6466C112.242 21.3773 120.263 26.1162 128.286 30.8552C129.71 31.6968 131.135 32.5357 132.557 33.38V33.3773Z" fill="#B4BD57"/>
<path d="M130.736 169.428C130.571 169.736 130.458 169.932 130.362 170.132C129.955 170.98 129.501 171.81 129.163 172.685C128.682 173.928 128.668 175.223 128.959 176.519C129.001 176.7 129.039 176.882 129.086 177.107C128.946 177.154 128.819 177.212 128.684 177.239C124.102 178.128 119.537 179.101 115.117 180.636C113.931 181.049 112.762 181.505 111.585 181.945C111.39 182.017 111.197 182.094 110.95 182.187C110.606 181.632 110.072 181.481 109.454 181.448C109.019 181.423 108.59 181.291 108.164 181.189C107.05 180.919 106.296 180.202 105.774 179.211C105.477 178.653 105.466 178.089 105.765 177.531C106.156 176.799 106.706 176.2 107.336 175.669C110.719 172.825 114.523 170.861 118.91 170.097C121.927 169.571 124.96 169.214 128.027 169.25C128.899 169.261 129.768 169.362 130.736 169.428Z" fill="#F5DEBB"/>
<path d="M125.876 51.1176C126.039 51.2111 126.195 51.3101 126.448 51.4669C121.877 52.6633 118.005 54.8912 114.809 58.3842C100.655 51.6374 86.4961 44.8879 72.2545 38.0999C72.5103 37.8799 72.6808 37.6984 72.8816 37.5636C73.7865 36.9585 74.6694 36.3149 75.6155 35.7814C77.5875 34.6757 79.5953 33.6415 81.7819 32.9924C84.9504 32.0491 88.1766 31.6998 91.4661 31.9115C92.371 31.9693 93.2098 32.1976 94.0212 32.6679C104.632 38.8316 115.257 44.9705 125.876 51.1176Z" fill="#B4BD57"/>
<path d="M121.454 122.49C121.885 123.324 122.292 124.116 122.727 124.952C121.355 126.377 119.704 127.477 117.672 127.799C115.623 128.12 114.616 127.204 114.685 125.092C114.718 124.105 115.037 123.087 115.529 122.273C116.47 122.633 117.477 122.79 118.5 122.738C119.501 122.688 120.496 122.573 121.454 122.49Z" fill="#F5DEBB"/>
<path d="M120.802 112.994C120.736 113.104 120.686 113.192 120.628 113.277C120.56 113.381 120.488 113.48 120.4 113.607C119.033 113.23 117.716 112.774 116.624 111.841C116.096 111.39 115.59 111.365 114.946 111.616C114.248 111.888 113.824 112.353 113.486 112.988C112.911 114.069 112.416 115.172 112.292 116.404C112.132 117.983 112.242 119.509 113.345 120.818C112.636 122.056 112.259 123.374 112.135 124.647C110.565 126.294 109.209 127.986 107.886 129.798C107.779 129.595 107.688 129.463 107.633 129.314C106.64 126.6 105.691 123.871 105.278 120.994C105.262 120.89 105.245 120.788 105.237 120.684C105.19 119.952 105.146 119.223 105.1 118.492C105.523 117.925 105.933 117.35 106.373 116.795C109.726 112.556 112.936 108.211 116.049 103.791C116.217 103.554 116.39 103.32 116.638 102.977C117.73 106.514 119.14 109.803 120.802 112.988V112.994Z" fill="#F96969"/>
<path d="M116.145 71.5501C117.105 75.3374 116.236 78.7644 113.923 81.8558C112.573 83.6601 110.878 85.0161 108.681 85.6651C106.057 86.4408 103.529 86.1465 101.145 84.8593C97.6517 82.978 95.5834 80.0598 95.0278 76.1075C94.9453 75.5299 94.9233 74.9413 94.8766 74.3912C95.0278 70.4774 96.2875 67.0614 99.0572 64.2863C100.232 63.1091 101.706 62.5013 103.362 62.3197C105.911 62.0364 108.213 62.7763 110.364 64.047C113.285 65.7715 115.304 68.2331 116.145 71.5528V71.5501ZM113.959 74.4985C113.934 74.0859 113.926 73.7064 113.885 73.3323C113.849 73.0215 113.783 72.7135 113.709 72.4082C112.908 69.1215 110.793 66.9679 107.787 65.612C106.695 65.1196 105.548 64.8171 104.324 64.8281C102.646 64.8446 101.271 65.4827 100.232 66.7809C98.1963 69.325 97.1814 72.2212 97.5499 75.4887C97.979 79.2815 100.061 81.8696 103.653 83.1238C105.881 83.9021 108.084 83.6133 109.979 82.1721C112.504 80.2551 113.846 77.6615 113.959 74.4958V74.4985Z" fill="black"/>
<path d="M113.885 73.3324C113.926 73.7064 113.934 74.0832 113.959 74.4985C113.846 77.6615 112.504 80.2579 109.979 82.1749C108.084 83.6134 105.878 83.9049 103.653 83.1265C100.061 81.8696 97.979 79.2842 97.55 75.4914C97.1814 72.2239 98.1963 69.3278 100.232 66.7836C101.271 65.4827 102.646 64.8446 104.324 64.8309C105.548 64.8199 106.695 65.1224 107.787 65.6147C110.793 66.9707 112.908 69.127 113.709 72.411C113.783 72.7163 113.846 73.0243 113.885 73.3351V73.3324Z" fill="#B4BD57"/>
<path d="M114.792 101.029C113.687 103.053 103.769 116.228 102.385 117.515C102.162 117.399 101.923 117.281 101.684 117.154C98.2321 115.306 94.7914 113.439 91.3286 111.615C86.2871 108.961 81.3062 106.205 76.4269 103.262C75.7641 102.863 75.0902 102.478 74.4247 102.08C74.0864 101.876 73.7563 101.656 73.3492 101.397C77.142 95.7811 80.3628 89.942 82.9949 83.7563C93.4794 89.8155 104.005 95.6656 114.792 101.032V101.029Z" fill="#F96969"/>
<path d="M105.812 131.778C105.983 131.968 106.126 132.128 106.285 132.309C96.9364 146.619 92.1177 162.256 92.28 179.503C86.0724 175.031 80.2277 170.353 74.3254 165.542C74.5537 165.361 74.7462 165.231 74.9085 165.072C78.4647 161.606 82.0898 158.207 85.5498 154.651C88.8943 151.213 92.1287 147.662 95.3055 144.07C98.5812 140.365 101.728 136.55 104.932 132.785C105.201 132.466 105.482 132.155 105.812 131.778Z" fill="#7A8125"/>
<path d="M104.715 128.942C104.748 129.072 104.591 129.278 104.476 129.41C103.202 130.884 101.909 132.342 100.642 133.822C98.9665 135.777 97.3108 137.755 95.644 139.718C87.8109 148.949 79.3589 157.577 70.4063 165.721C67.7879 168.103 65.1943 170.515 62.5897 172.91C62.2816 173.191 61.9599 173.452 61.6518 173.713C49.539 164.857 37.484 156.001 24.9834 147.579C25.275 147.433 25.4345 147.348 25.5968 147.271C30.498 144.961 35.1297 142.194 39.4918 138.984C39.8934 138.69 40.2509 138.335 40.6772 137.964C40.8203 138.043 41.021 138.145 41.2108 138.261C49.3795 143.244 57.5482 148.231 65.7141 153.217C66.2312 153.534 66.729 153.902 67.3946 153.795C67.4827 153.781 67.5954 153.85 67.6834 153.899C69.4217 154.881 71.2645 154.942 73.165 154.532C75.5001 154.026 77.5601 152.934 79.4937 151.575C81.6912 150.032 83.688 148.239 85.7178 146.487C91.0894 141.85 96.0153 136.773 100.76 131.508C101.852 130.296 102.842 128.992 103.879 127.729C103.956 127.633 104.038 127.542 104.157 127.402C104.451 127.911 104.583 128.428 104.707 128.94L104.715 128.942Z" fill="#7A8125"/>
<path d="M102.688 121.302C102.905 122.383 103.103 123.379 103.293 124.319C102.954 124.743 102.63 125.125 102.333 125.524C99.8162 128.912 96.942 131.987 94.0074 135.01C92.8412 136.212 91.642 137.386 90.4813 138.591C88.0472 141.113 85.3711 143.368 82.7362 145.665C81.284 146.928 79.7795 148.132 78.2448 149.298C76.5478 150.588 74.6913 151.598 72.5762 152.024C71.9464 152.151 71.2863 152.206 70.6482 152.175C69.2152 152.104 68.1893 151.303 67.4275 150.148C66.7041 149.051 66.2723 147.83 65.9642 146.562C65.3784 144.147 65.4004 141.704 65.6782 139.257C65.6837 139.199 65.7222 139.144 65.7717 139.023C65.956 139.127 66.132 139.215 66.2998 139.317C67.8318 140.263 69.3527 141.226 70.8957 142.153C71.6658 142.615 72.4744 143.016 73.2721 143.432C73.8744 143.748 74.4905 143.932 75.2001 143.806C75.9152 143.679 76.6606 143.715 77.3784 143.594C78.5473 143.396 79.6062 142.887 80.6431 142.329C83.091 141.006 85.2501 139.281 87.3459 137.477C90.3658 134.875 93.1327 132.015 95.8116 129.069C97.9789 126.682 100.086 124.239 102.22 121.819C102.355 121.668 102.492 121.519 102.685 121.307L102.688 121.302Z" fill="#7A8125"/>
<path d="M100.707 119.567C100.616 119.691 100.553 119.795 100.476 119.889C96.2267 124.944 91.8178 129.851 86.9771 134.353C84.9666 136.223 82.8488 137.97 80.5082 139.425C79.3695 140.132 78.2006 140.786 76.8694 141.081C75.2109 141.446 74.0695 140.971 73.1949 139.521C72.6778 138.666 72.378 137.736 72.2707 136.743C72.1552 135.657 72.1442 134.573 72.301 133.47C73.0161 133.66 73.6679 133.894 74.3418 134.004C76.6769 134.381 78.6819 133.676 80.3652 132.035C82.0924 130.349 83.1596 128.288 83.7757 125.978C84.4798 123.34 84.686 120.686 83.8252 118.049C82.5132 114.025 79.7683 111.588 75.5409 111.093C72.8923 110.782 70.4857 111.574 68.4834 113.412C68.3761 113.511 68.2716 113.615 68.1644 113.714C68.1506 113.728 68.1286 113.733 68.0296 113.775C67.0835 113.103 66.1043 112.41 65.0922 111.69C67.7711 109.286 69.8174 106.423 71.8829 103.549C72.0397 103.639 72.147 103.694 72.2515 103.758C77.9228 107.209 83.6821 110.502 89.557 113.596C93.1133 115.469 96.6503 117.378 100.196 119.27C100.361 119.358 100.517 119.457 100.704 119.567H100.707Z" fill="#7A8125"/>
<path d="M82.1641 78.373C82.2687 78.4362 82.3677 78.5077 82.5382 78.6205C81.218 81.5029 79.9033 84.3716 78.5776 87.2678C77.9973 86.9102 77.648 86.4481 77.3372 85.9503C76.1655 84.0663 75.5302 82.0007 75.3074 79.8004C75.1974 78.7113 75.2276 77.6276 75.3652 76.5412C75.4944 75.5043 74.6941 74.7617 73.7672 75.0367C73.1428 75.221 72.876 75.7161 72.8128 76.3129C72.7358 77.0418 72.7055 77.7734 72.6615 78.505C72.6478 78.7333 72.6615 78.9615 72.6615 79.2201C72.2874 79.3521 71.9354 79.4759 71.5861 79.5996C71.1075 79.7674 70.684 79.6601 70.2962 79.3466C69.5948 78.7828 69.1025 78.0594 68.6982 77.27C67.8428 75.595 67.3202 73.8128 67.0149 71.9618C66.4428 68.4825 66.4758 64.995 66.8279 61.4992C67.0644 59.1586 67.4935 56.8593 68.1233 54.593C68.1563 54.4719 68.1811 54.3482 68.1976 54.2244C68.2746 53.5891 67.9418 53.028 67.3725 52.8272C66.8279 52.6347 66.2338 52.8437 65.89 53.3553C65.7992 53.4901 65.7277 53.6413 65.604 53.8669C65.5105 53.6523 65.4307 53.4983 65.3784 53.336C64.6578 51.177 64.2645 48.9491 64.1435 46.6828C63.7859 39.9333 64.6358 33.3433 66.8912 26.9597C67.9418 23.9892 69.339 21.1783 70.9783 18.4857C71.1075 18.2711 71.2395 18.0539 71.3276 17.8201C71.5283 17.2782 71.3358 16.6924 70.8792 16.3706C70.4309 16.0543 69.7791 16.0571 69.361 16.4366C69.1025 16.6732 68.8879 16.9702 68.7064 17.27C66.3851 21.1316 64.5341 25.1994 63.3734 29.5615C63.0406 30.8157 62.7545 32.0809 62.441 33.3598C60.9503 33.4891 59.6961 33.0793 58.86 31.7289C58.0486 30.4224 57.6333 28.9812 57.4518 27.4685C57.1987 25.3534 57.3115 23.2439 57.5948 21.1398C57.8726 19.0853 58.2109 17.039 58.8325 15.0532C58.9507 14.6736 59.0993 14.3051 59.2258 13.9283C59.4761 13.1856 59.2175 12.5145 58.5822 12.234C57.9441 11.9535 57.2455 12.2093 56.9017 12.9079C56.6707 13.3727 56.4974 13.8732 56.3489 14.3738C55.631 16.7694 55.2267 19.2283 54.9434 21.7064C54.7619 23.3126 54.6931 24.9216 54.7921 26.5389C54.8691 27.7793 55.0397 28.995 55.3945 30.1859C55.4302 30.3042 55.4495 30.4279 55.4742 30.5489C55.4165 30.4994 55.3587 30.4499 55.301 30.4004C55.0397 30.7552 54.8251 31.1568 54.5088 31.4538C53.9753 31.9516 53.4142 32.4385 52.8036 32.829C51.5192 33.6486 50.4437 33.4204 49.5169 32.1992C48.8705 31.3466 48.524 30.3619 48.2792 29.336C47.9381 27.9003 47.8281 26.4398 47.8171 24.9711C47.8034 23.1449 47.9271 21.3268 48.2682 19.5308C48.3727 18.978 48.5625 18.4417 48.7137 17.8971C48.7743 17.6771 48.8678 17.4598 48.8925 17.2342C48.953 16.6924 48.6367 16.1698 48.1554 15.9608C47.6631 15.7463 47.0745 15.8535 46.7225 16.2798C46.5272 16.5164 46.3897 16.8107 46.2686 17.0967C45.8643 18.0731 45.6883 19.1073 45.5535 20.1469C45.2537 22.46 45.141 24.7786 45.3445 27.1054C45.526 29.1902 45.9331 31.209 46.959 33.0353C46.5959 33.5249 46.2659 34.0062 45.8973 34.46C45.5425 34.8973 45.1822 35.3456 44.7614 35.7142C44.3901 36.0387 43.9528 36.3248 43.499 36.5146C42.5281 36.9216 41.5572 36.6741 40.8998 35.8435C40.5671 35.4227 40.303 34.9303 40.0857 34.438C39.3541 32.7713 39.2001 31 39.2771 29.2067C39.3046 28.5604 39.4009 27.9141 39.4641 27.2705C39.4834 27.0614 39.5219 26.8524 39.5136 26.6461C39.4861 25.9998 39.0653 25.5267 38.452 25.4277C37.8799 25.3369 37.3243 25.645 37.096 26.2171C36.997 26.4673 36.9393 26.7396 36.9008 27.0064C36.5405 29.6303 36.5625 32.2267 37.4481 34.7653C37.7671 35.6812 38.1852 36.5421 38.7243 37.2902C38.4602 37.799 38.1935 38.2666 37.9679 38.7534C36.6642 41.5726 34.772 43.9021 32.2416 45.7092C31.3477 46.3473 30.3961 46.8616 29.3234 47.1284C28.6633 47.2934 28.0252 47.3594 27.3651 47.0486C26.7573 46.7626 26.0972 47.0211 25.7836 47.5602C25.4701 48.0993 25.5911 48.7704 26.1082 49.2022C26.3475 49.4002 26.6308 49.5405 26.9443 49.7413C26.8783 50.6324 26.8343 51.5483 26.7435 52.4642C26.2815 57.1068 25.107 61.5652 23.1653 65.8119C22.0843 68.1772 20.6679 70.3143 18.8471 72.1763C18.2255 72.8116 17.5434 73.3672 16.7321 73.7275C16.4405 73.8568 16.0912 73.9228 15.7722 73.9201C14.9553 73.9118 14.4025 74.2611 14.2649 74.9487C14.1357 75.595 14.4767 76.1149 15.2358 76.4257C15.2936 76.4504 15.3459 76.4807 15.4641 76.5384C15.4916 76.8382 15.5301 77.1655 15.5466 77.4956C15.8354 83.1092 15.2606 88.6265 13.6791 94.0255C13.041 96.2011 12.1746 98.2941 11.0277 100.252C10.6179 100.954 10.1256 101.611 9.63327 102.26C9.24821 102.769 8.74214 103.116 8.1068 103.305C7.29818 103.55 6.95438 104.342 7.28993 105.046C7.4632 105.409 7.74649 105.64 8.1398 105.731C8.32133 105.772 8.5056 105.8 8.78339 105.849C9.1547 107.06 9.58376 108.284 9.90281 109.535C10.7032 112.673 11.1075 115.875 11.168 119.106C11.201 120.905 11.1377 122.709 11.0497 124.508C10.981 125.914 10.6922 127.292 10.2851 128.639C10.0348 129.47 9.64977 130.235 9.07219 130.889C8.84665 131.145 8.60737 131.324 8.23056 131.365C7.4907 131.447 7.02314 132.022 7.06714 132.682C7.11115 133.348 7.63373 133.827 8.37083 133.887C9.06944 133.945 9.68278 133.708 10.2906 133.312C10.3621 133.444 10.4281 133.543 10.4721 133.653C12.1031 137.691 13.2115 141.869 13.8414 146.179C14.2374 148.899 14.5372 151.622 14.4987 154.375C14.485 155.321 14.4712 156.27 14.1797 157.175C14.0009 157.725 13.7479 158.264 13.4426 158.756C13.1565 159.216 12.8787 159.257 12.4332 158.935C11.9959 158.621 11.5751 158.258 11.223 157.851C10.0898 156.542 9.23446 155.054 8.54136 153.473C7.06164 150.103 6.03299 146.591 5.27663 142.999C4.20397 137.903 3.63739 132.746 3.37335 127.55C3.12306 122.643 3.24958 117.748 3.61264 112.852C4.26723 104.042 5.59843 95.3347 7.4687 86.7067C8.40384 82.3885 9.33347 78.0704 10.5492 73.8183C13.2528 64.3514 16.6908 55.1623 21.1162 46.361C25.6379 37.3672 31.0287 28.9235 37.3711 21.0931C39.8024 18.0924 42.2998 15.1632 45.163 12.5613C48.0784 9.90991 51.2469 7.63258 54.8279 5.95483C57.3033 4.79416 59.8611 3.88103 62.5593 3.41346C64.4901 3.07791 66.4263 2.9844 68.3599 3.46022C69.5645 3.75726 70.6317 4.29634 71.5806 5.08846C73.5059 6.70019 74.5098 8.8125 74.9361 11.2439C75.3954 13.8622 75.4037 16.4999 75.2469 19.1375C74.9718 23.7554 74.0615 28.2689 73.0108 32.7603C72.8925 33.2608 72.8238 33.7449 73.0301 34.2647C72.414 34.7103 71.8529 35.1091 71.2973 35.5217C70.4997 36.1158 69.8423 36.8446 69.295 37.6752C68.7367 38.5224 68.9292 39.2952 69.8231 39.771C70.2109 39.9773 70.6097 40.1561 71.0608 40.3734C71.0333 40.5934 71.0223 40.8189 70.9728 41.0362C69.9579 45.6542 69.6828 50.3298 69.9193 55.0358C70.1256 59.1394 70.9453 63.1302 72.4057 66.9835C73.2776 69.2801 74.507 71.3622 76.1133 73.2132C77.868 75.2347 79.8593 76.9868 82.1669 78.362L82.1641 78.373Z" fill="#F5DEBB"/>
<path d="M81.5015 119.233C82.3541 122.248 81.3612 127.476 78.6713 130.103C77.5766 131.173 76.3225 131.67 74.8042 131.481C74.0616 131.387 73.396 131.118 72.8074 130.59C73.1677 129.104 73.6766 127.732 74.2432 126.381C74.9225 124.761 75.6294 123.152 76.3252 121.538C76.416 121.326 76.515 121.117 76.5755 120.897C76.7488 120.256 76.526 119.764 75.9814 119.384C74.1111 118.078 72.2519 116.761 70.3898 115.443C70.3568 115.418 70.3348 115.383 70.2523 115.284C70.4999 115.08 70.7226 114.841 70.9949 114.678C73.2338 113.342 75.5386 113.207 77.8654 114.42C79.8265 115.443 80.9101 117.143 81.5015 119.23V119.233Z" fill="#B4BD57"/>
<path d="M75.1205 87.2604C75.7091 88.1845 76.3912 89.0262 77.4116 89.5597C76.4379 91.5208 75.3212 93.3773 74.1798 95.3081C74.0836 95.1623 74.0313 95.1046 74.0011 95.0358C72.7386 92.4257 72.1115 89.6808 72.3013 86.7736C72.3316 86.3143 72.4471 85.8605 72.4663 85.4039C72.4938 84.7658 72.0785 84.2542 71.4844 84.1194C70.9069 83.9874 70.3073 84.2982 70.0542 84.8813C69.9717 85.0711 69.914 85.2801 69.8892 85.4836C69.8012 86.2097 69.7187 86.9386 69.6582 87.6675C69.6169 88.1928 69.3776 88.4403 68.8661 88.3166C68.5553 88.2423 68.2445 88.0663 67.9914 87.86C67.1361 87.1641 66.487 86.2923 65.9836 85.3131C64.9302 83.2558 64.3554 81.0582 64.1244 78.7699C64.0281 77.8128 64.0418 76.8474 63.9923 75.8875C63.9703 75.4639 64.0886 75.1614 64.5397 75.0431C64.6772 75.0074 64.7955 74.9056 64.9687 74.8093C65.032 74.9964 65.098 75.1641 65.153 75.3374C65.6096 76.7786 66.1734 78.1703 66.9903 79.452C67.4441 80.1644 67.9942 80.7887 68.6433 81.3278C69.7104 82.2107 70.9096 82.4417 72.2353 82.0896C72.4746 82.0264 72.7139 81.9686 72.9862 81.8971C73.0494 82.1282 73.1072 82.3234 73.1622 82.5242C73.5968 84.191 74.1853 85.7999 75.1177 87.2604H75.1205Z" fill="#F5DEBB"/>
<path d="M73.723 120.98C73.635 121.203 73.558 121.41 73.4755 121.616C72.5981 123.789 71.652 125.939 70.8571 128.142C69.977 130.582 69.5369 133.121 69.6469 135.728C69.6799 136.479 69.7954 137.224 69.8724 137.972C69.8889 138.132 69.9082 138.291 69.9357 138.531C68.6568 137.752 67.4466 137.015 66.1731 136.237C66.2557 135.841 66.3492 135.417 66.4289 134.994C66.4757 134.746 66.5252 134.499 66.5335 134.248C66.5555 133.586 66.2804 133.093 65.6973 132.744C64.0993 131.787 62.5124 130.81 60.9199 129.837C56.8658 127.356 52.7979 124.892 48.8759 122.202C45.7514 120.056 42.638 117.895 39.519 115.735C39.3815 115.642 39.255 115.535 39.1147 115.425C38.9607 113.964 38.7791 112.512 38.6554 111.054C38.2896 106.64 38.6911 102.308 40.0938 98.0916C40.1598 97.8936 40.2286 97.6955 40.3056 97.5003C40.3276 97.4452 40.3744 97.4012 40.4404 97.3132C51.5218 105.193 62.5976 113.068 73.7258 120.978L73.723 120.98Z" fill="#B4BD57"/>
<path d="M64.5947 57.3406C64.7845 57.5469 64.7515 57.7504 64.724 57.9787C64.5095 59.805 64.2482 61.6313 64.0969 63.463C63.8576 66.3729 63.9814 69.2774 64.4462 72.1625C64.4682 72.3001 64.4682 72.4403 64.4765 72.5559C64.0309 72.6411 63.6293 72.7566 63.2195 72.7841C62.8977 72.8061 62.5512 72.7676 62.2486 72.6604C61.6133 72.4376 61.1677 71.9673 60.7937 71.4199C60.0428 70.3198 59.7045 69.0766 59.4707 67.7922C58.9454 64.9042 58.9591 62.0081 59.3002 59.1009C59.6192 56.3917 60.1831 53.7376 60.9834 51.1302C61.143 50.6104 61.3355 50.1016 61.517 49.59C61.5638 49.4635 61.6325 49.3425 61.693 49.2214C62.0644 51.1 62.4852 52.9097 63.1123 54.67C63.4588 55.6409 63.8824 56.576 64.592 57.3406H64.5947Z" fill="#F5DEBB"/>
<path d="M63.9126 149.095C63.6513 148.938 63.3845 148.781 63.1232 148.622C56.5277 144.598 49.935 140.574 43.3396 136.548C41.3015 135.304 39.269 134.053 37.2199 132.829C36.4305 132.359 35.7677 131.767 35.2204 131.041C32.899 127.969 31.4303 124.548 31.0315 120.697C30.7867 118.354 30.7867 116.016 31.1718 113.684C31.2075 113.477 31.2543 113.276 31.312 112.993C41.8791 120.725 52.6084 128.052 63.8768 134.614C63.3212 137.048 62.9664 139.447 62.9169 141.878C62.8674 144.318 63.192 146.71 63.9126 149.089V149.095Z" fill="#B4BD57"/>
<path d="M56.6568 33.0997C57.8862 34.97 59.6327 36.0207 62.0448 35.9299C61.9678 36.6395 61.8715 37.3134 61.8248 37.99C61.6955 39.8685 61.5745 41.7498 61.4782 43.631C61.459 43.9831 61.3765 44.2581 61.1702 44.5469C60.3891 45.6443 59.7867 46.8435 59.3302 48.1087C58.8158 49.5444 58.3455 50.9966 57.8449 52.4681C57.5561 52.5231 57.2068 52.5753 56.8658 52.6524C56.5605 52.7211 56.3075 52.6138 56.1342 52.3966C55.7986 51.9758 55.4411 51.5522 55.1908 51.0791C54.5225 49.8084 54.3217 48.414 54.3382 46.9975C54.3657 44.6432 54.6077 42.3163 55.3531 40.0638C55.4053 39.9042 55.4521 39.742 55.4658 39.5769C55.5208 38.9746 55.2266 38.485 54.693 38.2705C54.1511 38.0505 53.5406 38.2182 53.1995 38.7353C53.018 39.0104 52.8942 39.3322 52.7897 39.6457C52.3166 41.0842 52.0966 42.5776 51.9261 44.0766C51.7555 45.5591 51.7308 47.0415 51.8326 48.5295C51.8436 48.6753 51.7831 48.8513 51.6978 48.9723C51.4915 49.2611 51.2495 49.5224 51.0212 49.7947C50.5949 50.3008 50.1026 50.7078 49.448 50.8893C48.4963 51.1506 47.5172 50.7711 47.0001 49.935C46.9121 49.7919 46.8571 49.6049 46.7333 49.5141C46.3097 49.2171 46.3758 48.821 46.4143 48.3947C46.5023 47.4568 46.5655 46.5162 46.6068 45.5756C46.6205 45.2895 46.5765 44.9842 46.483 44.7147C46.3043 44.1949 45.8009 43.9006 45.2481 43.9308C44.7283 43.9611 44.2772 44.2911 44.1369 44.8027C44.0627 45.0805 44.0407 45.3803 44.0324 45.6718C43.9857 47.3523 43.8701 49.0273 43.3558 50.6363C43.0918 51.4697 42.7782 52.3058 42.3492 53.0649C41.5488 54.4869 40.2726 55.2652 38.6526 55.4715C38.5069 55.4908 38.3583 55.4963 38.2153 55.4825C37.3599 55.4083 37.2499 55.2735 37.2087 54.4071C37.1757 53.7168 37.1207 53.0264 37.0519 52.3388C37.0299 52.1133 36.9694 51.8822 36.8786 51.6732C36.6668 51.1919 36.1663 50.9003 35.6657 50.9334C35.1239 50.9691 34.6618 51.3267 34.5435 51.874C34.483 52.1518 34.4913 52.4571 34.5215 52.7431C34.8708 56.0078 34.6315 59.2286 33.8009 62.4025C33.2701 64.4323 32.423 66.3081 30.9598 67.8621C30.1704 68.6982 29.2187 69.1603 28.0581 69.1135C27.1807 69.0778 26.3776 68.7862 25.6515 68.2966C25.4452 68.1564 25.2444 68.0051 25.0464 67.8621C27.849 62.0285 29.2463 56.0546 29.5103 49.7919C29.7056 49.7259 29.8568 49.6682 30.0136 49.6242C31.1715 49.2996 32.2552 48.8128 33.2536 48.1417C36.3945 46.0321 38.7324 43.2432 40.3111 39.8135C40.4404 39.5302 40.5669 39.2469 40.7044 38.9443C41.095 39.0351 41.4525 39.1424 41.8183 39.1946C43.5016 39.4449 44.9593 38.9196 46.2437 37.8497C47.0716 37.1621 47.7372 36.326 48.3616 35.4541C48.4578 35.3193 48.5541 35.1873 48.6228 35.0883C49.2554 35.3331 49.8358 35.6356 50.4546 35.7786C51.8408 36.0977 53.1225 35.7154 54.2722 34.9425C55.0835 34.3952 55.8234 33.7433 56.6485 33.0942L56.6568 33.0997Z" fill="#F5DEBB"/>
<path d="M56.9208 55.2731C57.0198 55.2649 57.1188 55.2731 57.2811 55.2731C56.7475 58.1473 56.4202 60.9857 56.489 63.9039C55.4741 64.0579 54.5747 63.8544 53.7248 63.4143C52.9519 63.0155 52.3166 62.4379 51.739 61.7943C50.3473 60.2486 49.3077 58.4939 48.6696 56.5108C48.5733 56.2138 48.5155 55.903 48.4358 55.6004C48.2543 54.9046 47.7069 54.4865 47.0716 54.5553C46.4087 54.6268 45.9082 55.1824 45.9329 55.9085C45.9467 56.299 46.0704 56.6868 46.1447 57.0774C46.1832 57.2809 46.2602 57.4872 46.252 57.688C46.1144 60.2321 45.5259 62.6552 44.2689 64.8885C43.8784 65.5816 43.4466 66.2472 42.8305 66.7781C41.7798 67.6857 40.5559 67.7297 39.4585 67.0861C39.2962 66.9898 39.1367 66.8853 38.9634 66.8111C38.1603 66.4645 37.3572 66.8523 37.1674 67.7077C37.0931 68.0488 37.0986 68.4146 37.0986 68.7694C37.1069 70.3618 37.1646 71.9626 36.8208 73.5276C36.5458 74.7707 36.213 76.0057 35.8142 77.2158C35.3026 78.7698 34.3592 80.0845 33.2756 81.2947C32.6925 81.9438 31.9939 82.4444 31.1577 82.7139C30.3546 82.9724 29.5955 82.8762 28.8942 82.3151C29.7055 78.6873 30.3079 75.0403 30.4729 71.319C33.193 70.0208 34.6343 67.6307 35.6877 64.9463C36.4743 62.9468 36.8621 60.8454 37.0821 58.7139C37.1014 58.5269 37.1179 58.3398 37.1426 58.1528C37.1509 58.095 37.1894 58.0428 37.2306 57.9548C39.1477 58.2986 40.8612 57.7677 42.4454 56.6951C44.0269 55.6252 44.8905 54.0464 45.5424 52.3164C48.5816 54.0932 49.8165 54.0189 52.6742 51.8901C52.7842 52.0909 52.8969 52.2834 53.0014 52.4815C53.4085 53.2488 53.9118 53.9392 54.5939 54.4838C55.2705 55.0228 56.0269 55.3419 56.9125 55.2759L56.9208 55.2731Z" fill="#F5DEBB"/>
<path d="M27.8988 71.7013C27.8548 72.2872 27.8218 72.8428 27.7668 73.3956C27.3185 77.7385 26.4934 82.0043 25.1182 86.1575C24.4553 88.157 23.5889 90.0548 22.3568 91.771C22.0515 92.1946 21.7379 92.6237 21.3639 92.984C20.3187 93.9851 19.0618 94.4087 17.6261 94.1556C17.2465 94.0896 16.889 93.8861 16.4626 93.7238C17.9726 87.8765 18.5117 81.9878 18.0304 76.0112C20.558 74.6305 22.167 72.4082 23.798 70.1309C25.0164 71.0715 26.3558 71.5556 27.9016 71.7041L27.8988 71.7013Z" fill="#F5DEBB"/>
<path d="M19.3367 96.7628C19.6365 98.7541 19.7932 100.71 19.774 102.679C19.7382 106.648 19.1001 110.518 17.8239 114.272C17.4554 115.358 16.9438 116.398 16.4542 117.438C16.0582 118.277 15.4944 119.011 14.7985 119.632C14.5345 119.869 14.2649 120.106 13.7919 120.089C13.6461 114.797 12.9915 109.585 10.9919 104.585C12.1774 103.441 13.0575 102.093 13.7616 100.638C14.452 99.2107 15.0763 97.7502 15.7309 96.3008C16.3085 96.4521 16.8998 96.6693 17.5131 96.7491C18.1072 96.8261 18.7178 96.7656 19.3367 96.7656V96.7628Z" fill="#F5DEBB"/>
</svg>
