<svg width="186" height="194" viewBox="0 0 186 194" fill="none" xmlns="http://www.w3.org/2000/svg">
<path d="M0.379105 153.91C0.354355 155.063 0.390106 156.215 0.467117 157.365C0.500122 157.832 0.687149 158.3 0.863174 158.743C1.0392 159.183 1.43251 159.403 1.89183 159.48C2.88197 159.648 3.87762 159.791 4.86777 159.969C6.24571 160.217 7.62093 160.489 9.04839 160.762C8.99062 160.954 8.95486 161.111 8.89436 161.259C7.1176 165.764 6.73254 170.399 7.58516 175.154C7.8217 176.477 8.14351 177.773 8.63858 179.027C9.06213 180.091 9.64796 181.048 10.4208 181.896C10.8334 182.347 11.2845 182.696 11.9033 182.897C12.4066 183.062 12.8632 183.378 13.4078 183.477C14.0871 183.598 14.7637 183.744 15.4431 183.873C20.6056 184.863 25.7461 185.947 30.8068 187.385C34.9819 188.574 39.0388 190.095 43.0544 191.731C44.2948 192.237 45.5297 192.76 46.7619 193.285C47.213 193.478 47.6475 193.563 48.1564 193.508C48.6349 193.456 49.141 193.615 49.6333 193.684H50.1367C50.2549 193.651 50.3759 193.599 50.4969 193.59C51.8529 193.494 53.0493 192.969 54.1633 192.226C56.2453 190.843 57.6865 188.906 58.8582 186.745C60.0546 184.539 60.6652 182.157 60.9485 179.679C60.9732 179.456 61.0035 179.233 61.0365 178.955C61.229 179.008 61.3665 179.035 61.4986 179.079C65.0493 180.276 68.6001 181.472 72.1536 182.668C72.2141 182.688 72.2802 182.701 72.3297 182.734C72.877 183.1 73.4326 183.007 74.0157 182.814C76.7193 181.92 79.4284 181.04 82.1348 180.157C83.9666 179.558 85.7956 178.961 87.6274 178.361C87.7677 178.317 87.9272 178.298 88.04 178.218C88.5653 177.853 89.0274 178.023 89.5472 178.276C92.8037 179.874 96.2417 181.043 99.5862 182.432C106.182 185.169 112.799 187.853 119.494 190.331C121.952 191.241 124.472 191.962 127.065 192.358C128.795 192.625 130.501 192.487 132.239 192.155C134.338 191.756 136.037 190.661 137.765 189.566C139.517 188.458 141.233 187.295 142.968 186.156C143.139 186.046 143.32 185.952 143.565 185.809C143.686 186.382 143.802 186.888 143.903 187.394C144.129 188.521 144.349 189.654 144.575 190.782C144.616 190.988 144.657 191.195 144.734 191.39C144.946 191.921 145.339 192.234 145.917 192.289C146.164 192.314 146.42 192.306 146.67 192.303C154.088 192.237 161.506 192.166 168.921 192.116C169.881 192.111 170.659 191.794 171.352 191.142C175.913 186.846 180.484 182.558 185.049 178.268C185.126 178.196 185.201 178.122 185.278 178.053C185.866 177.528 185.982 176.895 185.707 176.172C185.206 174.86 184.684 173.556 184.219 172.233C182.549 167.47 180.979 162.673 179.837 157.747C179.521 156.383 179.315 154.991 179.089 153.608C178.924 152.598 178.476 152.147 177.447 152.197C176.487 152.241 175.53 152.373 174.573 152.477C171.68 152.791 168.786 153.113 165.89 153.426C163.849 153.649 161.809 153.863 159.768 154.084C159.297 154.133 158.885 154.312 158.508 154.601C157.51 155.365 156.5 156.116 155.496 156.872C155.296 157.024 155.095 157.172 154.911 157.31C152.391 156.691 150.056 155.651 147.704 154.658C146.508 154.152 145.317 153.632 144.107 153.168C143.667 152.997 143.436 152.736 143.315 152.296C142.602 149.71 141.838 147.142 141.161 144.548C139.643 138.725 138.491 132.826 137.558 126.885C136.876 122.536 136.384 118.163 136.145 113.765C135.748 106.493 136.923 99.488 139.72 92.7578C140.74 90.3017 141.678 87.8126 142.352 85.2299C143.1 82.353 143.491 79.4348 143.296 76.4562C143.194 74.9187 142.897 73.4197 142.242 72.017C140.793 68.9146 138.331 67.3111 134.921 67.1488C133.906 67.0993 132.916 67.2533 131.931 67.4761C131.81 67.5036 131.686 67.5173 131.48 67.5503C131.441 67.1213 131.4 66.7142 131.37 66.3072C130.977 60.9521 130.886 55.5888 131.087 50.2228C131.216 46.7463 131.331 43.2698 131.496 39.7933C131.568 38.2668 131.752 36.7458 131.881 35.2194C131.978 34.0587 131.351 33.5059 130.212 33.6709C127.662 34.0339 125.11 34.3915 122.555 34.705C119.375 35.0956 116.19 35.4559 113.005 35.7969C110.277 36.0885 107.546 36.3415 104.812 36.5946C101.704 36.8834 98.596 37.1556 95.4881 37.4362C93.9863 37.571 92.4846 37.7057 90.9829 37.8377C90.8591 37.8487 90.7354 37.8377 90.5373 37.8377C90.4466 37.4224 90.342 37.0044 90.265 36.5808C89.2639 31.0993 88.238 25.626 87.2781 20.1362C86.5025 15.697 85.9772 11.2221 85.6966 6.72244C85.6636 6.19986 85.6196 5.67728 85.5893 5.15471C85.5316 4.04629 85.042 3.21567 84.0766 2.63809C82.2311 1.52968 80.1986 1.04285 78.0918 0.941089C75.5696 0.820072 73.0723 1.08411 70.6492 1.87348C67.9538 2.7536 65.8525 4.38734 64.3205 6.77194C63.9987 7.27252 63.8997 7.8171 63.9464 8.39468C64.0427 9.5636 64.1555 10.7325 64.2462 11.9014C64.4443 14.4071 64.6725 16.9127 64.8183 19.4238C65.0796 23.9235 65.2721 28.4259 65.2199 32.9338C65.1951 35.0488 65.0741 37.1639 64.9943 39.279C64.9888 39.4027 64.9586 39.5265 64.9311 39.7053C63.9959 39.7575 63.0636 39.8098 62.0597 39.8648C61.8616 39.0067 61.6251 38.1815 61.4821 37.3427C60.5029 31.5173 59.5018 25.6947 58.6024 19.8611C58.1651 17.0254 57.857 14.1678 57.7498 11.2964C57.7085 10.1412 57.2382 9.2033 56.3223 8.48269C55.5027 7.83635 54.5813 7.40729 53.5747 7.14875C51.4293 6.59867 49.262 6.25487 47.0452 6.54641C44.1985 6.91772 41.5251 7.77859 39.2258 9.5581C38.618 10.0284 38.0954 10.6143 37.5371 11.1478C36.9705 11.6897 36.8577 12.3663 36.9402 13.1116C37.1712 15.1717 37.438 17.2317 37.6031 19.2973C38.0349 24.7321 38.2962 30.1724 38.0954 35.6292C37.9771 38.8554 37.8038 42.0761 37.427 45.2831C37.394 45.5526 37.3473 45.8194 37.3005 46.1385C36.4286 46.1852 35.576 46.232 34.7234 46.2787C33.2162 46.3612 31.709 46.4355 30.2072 46.5345C29.1731 46.6033 28.8183 46.9636 28.6148 47.962C28.2985 49.5215 27.9547 51.0754 27.6081 52.6927C27.0305 52.7339 26.4529 52.7999 25.8698 52.8109C20.8421 52.9182 15.8144 53.0172 10.7894 53.119C9.17766 53.152 7.56316 53.1822 5.95143 53.2208C5.72314 53.2263 5.49486 53.284 5.26657 53.3088C4.54597 53.3885 4.11966 53.8148 3.98764 54.4997C3.79785 55.4871 3.62733 56.4772 3.49532 57.4729C2.93423 61.7167 2.74995 65.9881 2.59317 70.2622C2.46391 73.78 2.27412 77.2978 2.14761 80.8155C1.94408 86.5336 1.74606 92.2517 1.59204 97.9698C1.40227 105.071 1.25098 112.176 1.09972 119.28C0.967697 125.609 0.868668 131.937 0.736649 138.266C0.626633 143.483 0.480865 148.701 0.373596 153.919L0.379105 153.91ZM2.95348 156.135C2.95073 155.255 2.94249 154.375 2.96173 153.495C3.08 148.445 3.21753 143.395 3.32204 138.348C3.45131 132.042 3.53931 125.732 3.67409 119.428C3.85561 110.921 4.02065 102.414 4.27368 93.9102C4.49097 86.6216 4.82927 79.3358 5.09605 72.0473C5.24182 68.1087 5.39584 64.1729 5.75613 60.248C5.82214 59.5357 5.92117 58.8261 6.02019 57.9707C6.17421 58.1962 6.23471 58.276 6.28697 58.3613C7.66217 60.6386 9.02362 62.9242 10.4153 65.1933C12.4726 68.5515 14.5464 71.8987 16.623 75.246C18.3997 78.1119 20.2095 80.9586 21.9533 83.8465C22.4126 84.6084 22.9462 85.0209 23.84 85.0457C24.7064 85.0704 25.2565 84.6854 25.3638 83.83C25.4573 83.1011 25.5205 82.3723 25.6086 81.6434C26.0376 78.1091 26.3594 74.5556 26.9288 71.0434C27.8419 65.4215 28.92 59.8272 29.9322 54.2219C30.0092 53.8011 30.1165 53.3885 30.2127 52.9705C30.2567 52.9705 30.3035 52.965 30.3475 52.9622C30.4465 53.2483 30.5455 53.5315 30.6418 53.8176C33.802 63.2735 36.5057 72.8696 39.4018 82.408C39.6136 83.1011 39.8419 83.7227 40.3755 84.2508C40.7633 84.6359 41.1318 84.9054 41.6874 84.8064C42.243 84.7074 42.5565 84.3361 42.7188 83.819C42.8316 83.4587 42.9279 83.0956 43.0379 82.7326C46.7097 70.4493 50.739 58.287 55.3707 46.3282C55.4202 46.1962 55.4862 46.0697 55.5439 45.9404C55.5797 45.9432 55.6127 45.9487 55.6485 45.9514C55.8327 48.1435 55.995 50.3356 56.2068 52.5249C56.6331 56.9255 57.0512 61.3262 57.5407 65.7186C58.0111 69.9432 58.5116 74.1678 59.1057 78.3759C59.8676 83.7475 60.69 89.1108 61.5728 94.4603C62.629 100.866 63.7346 107.263 64.8926 113.653C66.474 122.391 68.0528 131.129 69.1529 139.946C69.6975 144.311 70.2421 148.676 70.7289 153.049C71.257 157.819 71.7026 162.596 71.9446 167.39C72.1454 171.37 72.2334 175.35 72.1289 179.332C72.1261 179.495 72.1014 179.657 72.0876 179.808C72.0161 179.83 71.9694 179.863 71.9391 179.852C68.3663 178.664 64.7963 177.473 61.1603 176.26C61.1603 175.977 61.1603 175.666 61.1603 175.355C61.1245 171.846 60.5359 168.438 59.3175 165.143C58.5144 162.976 57.3785 161.012 55.7942 159.323C55.3487 158.85 54.8976 158.391 54.2485 158.179C53.9762 158.091 53.7039 157.931 53.4977 157.731C53.0411 157.293 52.4883 157.147 51.8969 157.09C50.4585 156.949 49.0172 156.85 47.5788 156.694C45.2052 156.435 42.8288 156.193 40.469 155.852C37.5261 155.428 34.5941 154.931 31.6649 154.427C28.1582 153.822 24.6569 153.19 21.1584 152.535C20.028 152.323 18.9058 152.051 17.8057 151.721C17.2583 151.556 16.788 151.567 16.3012 151.828C15.3716 152.329 14.5024 152.92 13.7983 153.704C13.0997 154.482 12.4259 155.285 11.7933 156.119C11.2652 156.817 10.8141 157.571 10.2943 158.352C7.88495 157.912 5.4646 157.472 3.01125 157.026C2.99199 156.713 2.96173 156.424 2.95898 156.135H2.95348ZM10.8031 177.456C9.78824 174.274 9.51045 171.018 9.89276 167.706C10.4153 163.168 12.2966 159.238 15.3138 155.841C15.7401 155.36 16.2764 154.977 16.766 154.551C17.0218 154.326 17.2968 154.293 17.6379 154.375C18.8371 154.669 20.039 154.964 21.2519 155.189C24.3599 155.764 27.4733 156.314 30.5868 156.856C35.0204 157.629 39.4541 158.415 43.9345 158.902C44.5478 158.968 45.1639 159.042 45.8763 159.122C45.7085 159.301 45.6095 159.397 45.5187 159.502C44.9659 160.156 44.3498 160.767 43.8712 161.474C41.3904 165.126 40.2847 169.23 39.9547 173.587C39.7649 176.087 39.8969 178.573 40.2325 181.048C40.579 183.595 41.2336 186.057 42.452 188.343C42.5043 188.442 42.5318 188.554 42.6033 188.752C42.2787 188.634 42.0477 188.554 41.8194 188.464C37.9689 186.918 34.0468 185.584 30.0422 184.495C24.5607 183.004 18.9911 181.934 13.4215 180.845C13.0722 180.776 12.8027 180.641 12.5524 180.399C11.708 179.572 11.1607 178.57 10.8059 177.456H10.8031ZM23.0864 80.579C22.1788 79.5971 8.13251 56.667 7.90147 55.7649C14.2742 55.6356 20.6276 55.5063 27.0663 55.3743C25.4793 63.6338 24.0188 71.8795 23.1772 80.2187C23.1662 80.3342 23.1194 80.4442 23.0837 80.5818L23.0864 80.579ZM32.0858 49.8928C31.9978 49.6232 31.9345 49.3454 31.841 49.0016C38.5355 48.5396 45.1694 48.6331 51.8694 48.248C47.9693 58.562 44.5753 68.9778 41.2666 79.5614C41.1401 79.1736 41.0493 78.904 40.9668 78.629C39.3303 73.1749 37.7241 67.7126 36.0463 62.2723C34.7701 58.1302 33.406 54.0184 32.0858 49.8928ZM39.5696 13.3097C39.5228 12.9163 39.6136 12.6331 39.8941 12.358C40.6835 11.5934 41.5636 10.9608 42.5538 10.485C46.0166 8.82099 49.5866 8.60371 53.2501 9.71763C53.8139 9.8909 54.3365 10.1467 54.7876 10.5427C55.0351 10.7628 55.1699 11.0021 55.1809 11.3514C55.2992 14.4098 55.6265 17.4545 56.094 20.4744C56.9714 26.143 57.9533 31.7951 58.8994 37.4527C59.037 38.2723 59.2185 39.0837 59.3945 39.9611C58.3274 39.9556 57.3097 40.0491 56.2866 39.9226C55.9895 39.8868 55.6595 39.9226 55.3789 40.0298C54.9856 40.1783 54.8013 40.5551 54.6583 40.9347C54.1605 42.2466 53.6627 43.5558 53.1621 44.8678C53.0823 45.0796 52.9943 45.2886 52.9036 45.5169C48.6019 46.0009 44.3085 45.8937 39.9794 46.0697C39.9794 45.8194 39.9629 45.6709 39.9794 45.5279C40.3837 42.3017 40.5598 39.0617 40.6615 35.8162C40.7715 32.3397 40.7688 28.8604 40.5735 25.3867C40.4415 23.0433 40.2985 20.7027 40.1087 18.3649C39.9739 16.6761 39.7676 14.9901 39.5668 13.3069L39.5696 13.3097ZM42.419 175.394C42.4823 174.654 42.5703 173.276 42.7298 171.903C43.0901 168.779 44.1133 165.877 45.7855 163.209C46.4401 162.167 47.2377 161.265 48.2939 160.613C49.053 160.143 49.8644 159.81 50.7693 159.81C52.1169 159.81 53.2391 160.346 54.1385 161.342C55.2029 162.519 56.006 163.858 56.6139 165.322C57.4555 167.343 57.9918 169.447 58.3054 171.609C58.6712 174.131 58.6574 176.664 58.4099 179.192C58.1541 181.81 57.439 184.286 56.0115 186.525C54.9856 188.134 53.7864 189.575 52.0564 190.471C50.4062 191.329 48.8 191.241 47.2542 190.183C46.3906 189.591 45.7168 188.832 45.1749 187.947C44.5616 186.943 44.0775 185.878 43.7035 184.762C42.7573 181.929 42.4933 178.997 42.4163 175.391L42.419 175.394ZM58.0963 44.3204C58.0496 43.7484 57.9726 43.168 58.0908 42.5217C58.4704 42.5217 58.8252 42.5299 59.1772 42.5217C60.1839 42.4914 61.1878 42.4639 62.1917 42.4199C64.2655 42.3292 66.3365 42.2494 68.4076 42.1311C71.4193 41.9578 74.431 41.7708 77.4399 41.5508C80.1986 41.35 82.9517 41.0997 85.7076 40.8659C88.2958 40.6487 90.8839 40.4259 93.472 40.2003C96.1426 39.9666 98.8133 39.7273 101.484 39.4852C103.926 39.2652 106.366 39.0534 108.806 38.8086C111.784 38.5116 114.766 38.2118 117.742 37.8625C121.257 37.4499 124.763 36.9824 128.276 36.5423C128.559 36.5066 128.845 36.4873 129.139 36.457C128.432 47.1589 128.072 57.8029 128.941 68.348C127.302 69.2501 125.77 70.0917 124.191 70.9609C124.205 70.7491 124.219 70.5483 124.233 70.3503C124.263 69.9102 124.323 69.4729 124.318 69.0356C124.271 64.8055 123.116 60.8944 120.899 57.2996C119.725 55.3936 118.182 53.8506 116.199 52.7697C116.1 52.7174 116.023 52.6239 115.921 52.5414C116.105 52.3379 116.262 52.1701 116.413 51.9996C117.043 51.2817 117.53 50.4813 117.816 49.5682C118.349 47.8712 118.069 46.3447 116.886 44.9943C116.05 44.0399 115.024 43.3826 113.808 43.0168C112.392 42.5904 110.956 42.6124 109.512 42.8242C106.828 43.2175 104.41 44.2654 102.188 45.8029C100.571 46.9223 99.2891 48.3278 98.343 50.0495C98.2742 50.1733 98.1917 50.2888 98.1064 50.4181C96.7422 50.2118 95.4055 50.2916 94.0771 50.4951C90.5153 51.0369 87.3634 52.5167 84.5249 54.7087C83.7411 55.3138 83.0397 56.0014 82.4346 56.7853C81.835 57.5636 81.4473 58.4273 81.263 59.3954C81.0319 60.6001 81.3455 61.6397 82.1596 62.5309C82.9022 63.3395 83.8181 63.8566 84.8825 64.1343C86.3952 64.5277 87.9189 64.4727 89.4344 64.1976C92.3086 63.6723 94.9847 62.5941 97.4793 61.0924C99.3276 59.9812 100.84 58.5235 101.641 56.4497C101.654 56.4167 101.701 56.3975 101.726 56.3782C102.856 56.458 103.976 56.5377 105.114 56.6175C104.933 57.1621 104.716 57.6847 104.581 58.2292C104.056 60.3553 104.05 62.4979 104.377 64.6569C104.801 67.4458 105.775 70.0422 107.067 72.5286C108.363 75.0232 109.936 77.306 112.15 79.0855C112.191 79.1185 112.205 79.1845 112.246 79.2588C112.144 79.3221 112.062 79.3826 111.971 79.4293C110.618 80.1224 109.419 81.0328 108.286 82.034C106.894 83.2689 105.887 84.7679 105.263 86.5199C104.903 87.5293 104.801 88.5717 105.032 89.6141C105.563 92.0124 107.111 93.4701 109.408 94.177C111.075 94.6886 112.763 94.6446 114.441 94.2595C118.234 93.3876 121.584 91.6466 124.472 89.0365C125.726 87.9006 126.733 86.5749 127.522 85.0704C128.441 83.3239 128.672 81.5004 128.245 79.5889C128.188 79.3331 128.058 79.0663 127.891 78.8683C127.624 78.5492 127.318 78.2522 126.988 77.9991C126.037 77.2648 124.931 76.8907 123.757 76.7092C123.314 76.6404 122.871 76.5854 122.381 76.5167C122.618 76.0216 122.855 75.6008 123.02 75.1525C123.168 74.7454 123.363 74.4896 123.828 74.4071C124.095 74.3604 124.337 74.1321 124.579 73.967C125.36 73.439 126.111 72.8641 126.917 72.3773C129.068 71.0819 131.326 70.0422 133.856 69.7534C136.656 69.4344 138.994 70.7491 140.02 73.362C140.526 74.6464 140.732 75.9858 140.768 77.3555C140.839 80.1692 140.361 82.9031 139.58 85.5957C138.865 88.0546 137.877 90.4117 136.942 92.7908C134.456 99.1167 133.303 105.671 133.526 112.464C133.655 116.428 134.062 120.366 134.588 124.291C135.372 130.15 136.466 135.956 137.82 141.707C138.532 144.743 139.409 147.738 140.212 150.756C140.287 151.031 140.35 151.308 140.43 151.625C140.284 151.594 140.221 151.589 140.166 151.567C138.185 150.712 136.211 149.851 134.227 149.001C133.922 148.872 133.798 148.635 133.697 148.349C132.726 145.673 131.719 143.008 130.776 140.321C129.37 136.31 128.009 132.281 126.623 128.263C126.496 127.897 126.449 127.548 126.507 127.16C126.634 126.31 126.746 125.457 126.807 124.602C127.043 121.279 127.305 117.957 127.47 114.629C127.767 108.68 127.701 102.728 127.365 96.7816C127.329 96.1408 127.36 95.4944 127.36 94.8454C127.437 94.8013 127.505 94.7518 127.583 94.7188C129.359 93.9075 131.032 92.9118 132.665 91.8474C133.933 91.0195 135.091 90.0541 136.158 88.9815C136.664 88.4727 137.107 87.9116 137.366 87.235C137.641 86.5144 137.385 85.8185 136.761 85.5215C136.131 85.2217 135.484 85.4885 135.05 86.1403C134.717 86.6409 134.348 87.1332 133.925 87.554C132.91 88.5607 131.749 89.3858 130.547 90.1587C127.907 91.8584 125.047 93.0933 122.115 94.1797C121.82 94.287 121.523 94.397 121.248 94.5456C120.764 94.8041 120.541 95.2167 120.53 95.7777C120.508 96.8862 120.481 97.9973 120.396 99.1002C120.313 100.154 120.035 101.166 119.458 102.068C118.556 103.479 117.084 103.696 115.819 102.607C115.175 102.054 114.656 101.394 114.254 100.654C113.866 99.9363 113.525 99.1937 113.187 98.4511C112.835 97.681 112.343 97.3702 111.498 97.4582C111.352 97.472 111.209 97.5077 111.069 97.5435C108.91 98.0936 106.71 98.3879 104.501 98.5887C101.957 98.8197 99.4074 98.9957 96.8577 99.1827C96.1316 99.235 95.4028 99.2542 94.5749 99.2928C95.0947 97.1612 95.3588 95.0791 94.9545 92.9971C95.0452 92.9448 95.0782 92.9146 95.1195 92.9008C97.9469 91.9877 100.054 90.1559 101.514 87.62C104.031 83.2524 104.782 78.5602 103.816 73.6122C103.404 71.5054 102.568 69.5719 101.184 67.9052C100.089 66.5905 98.7913 65.5508 97.0915 65.1327C95.2185 64.6734 93.406 65.0035 91.7007 65.7736C88.5955 67.1763 86.4585 69.5224 85.229 72.7101C83.9281 76.0793 83.6888 79.5531 84.1674 83.0984C84.2692 83.841 84.4562 84.5698 84.6102 85.3345C84.4919 85.3565 84.3929 85.384 84.2939 85.3895C81.681 85.5105 79.2909 86.3549 77.0493 87.653C76.6203 87.9006 76.205 88.2169 75.8777 88.5827C75.3606 89.1575 75.4816 89.9744 76.0702 90.4117C76.557 90.772 77.1181 90.7362 77.6984 90.3319C79.2112 89.2758 80.8614 88.5304 82.6767 88.1811C84.6487 87.8016 86.5987 87.8291 88.4718 88.6542C90.1028 89.372 91.3707 90.4667 92.0363 92.1775C92.6249 93.6902 92.6881 95.2469 92.4516 96.8201C92.05 99.4935 91.0159 101.936 89.5802 104.205C88.2655 106.284 86.6813 108.157 85.0035 109.948C83.5403 111.513 81.9423 112.932 80.1903 114.167C78.7133 115.207 77.2006 116.183 75.4541 116.722C75.2973 116.772 75.1433 116.851 75.0058 116.948C74.5437 117.267 74.3485 117.808 74.497 118.326C74.6565 118.878 75.1186 119.236 75.7099 119.23C75.9162 119.23 76.1335 119.2 76.3232 119.129C76.9503 118.895 77.5664 118.636 78.188 118.389C78.3503 118.323 78.5153 118.265 78.7216 118.185C78.7436 118.403 78.7601 118.546 78.7683 118.689C78.9444 121.447 79.0956 124.211 79.2937 126.967C79.6925 132.529 80.4103 138.057 81.1117 143.585C81.8158 149.136 82.8114 154.639 84.0299 160.101C85.0008 164.455 85.9662 168.812 86.5382 173.243C86.651 174.112 86.7363 174.981 86.8408 175.902C82.7757 177.228 78.7683 178.537 74.75 179.849C74.75 179.211 74.7418 178.647 74.75 178.086C74.827 173.031 74.673 167.981 74.2384 162.948C73.7736 157.563 73.2125 152.186 72.6047 146.814C72.1069 142.425 71.5238 138.04 70.8857 133.667C70.2614 129.399 69.5435 125.141 68.8119 120.889C68.1133 116.824 67.3267 112.772 66.6033 108.71C65.9322 104.937 65.2776 101.16 64.6505 97.3785C64.0207 93.5774 63.4184 89.7681 62.8325 85.9588C62.3292 82.6886 61.8369 79.4156 61.3885 76.1371C60.998 73.2932 60.6569 70.4438 60.3242 67.5944C60.0739 65.4298 59.8648 63.2597 59.6476 61.0924C59.3698 58.32 59.0837 55.5476 58.8279 52.7724C58.5694 49.956 58.3384 47.1369 58.1073 44.3149L58.0963 44.3204ZM66.5236 8.54045C66.4961 8.27091 66.5676 8.06738 66.7161 7.8446C67.9043 6.05684 69.5573 4.91542 71.5816 4.27733C73.8286 3.57323 76.1417 3.3697 78.4741 3.54847C79.7887 3.65024 81.0677 3.98028 82.2751 4.56887C82.8362 4.84391 83.048 5.21246 83.0782 5.83131C83.279 9.99817 83.7356 14.1403 84.3709 18.2631C85.3556 24.6578 86.5823 31.0112 87.8034 37.3647C87.8447 37.5847 87.8694 37.8102 87.9107 38.088C81.1392 38.6684 74.4337 39.3147 67.621 39.5925C67.621 39.3202 67.6127 39.1167 67.621 38.9132C67.6567 38.2421 67.7117 37.5737 67.7365 36.9054C67.918 32.2324 67.7805 27.5622 67.577 22.8948C67.3679 18.1009 67.0159 13.3179 66.5263 8.5432L66.5236 8.54045ZM82.8527 136.709C82.7207 135.703 82.6024 134.712 82.8087 133.667C83.3808 130.788 83.5623 127.856 83.6998 124.927C83.7081 124.772 83.7383 124.621 83.7686 124.404C86.849 126.767 90.298 128.131 93.9863 128.868C97.6746 129.605 101.396 129.918 105.167 128.964C105.123 129.195 105.098 129.355 105.062 129.511C104.545 131.882 104.001 134.25 103.511 136.627C102.562 141.223 101.88 145.863 101.426 150.533C101.302 151.817 101.3 151.88 100.054 152.255C96.6405 153.28 93.1915 153.531 89.704 152.67C88.3343 152.332 87.0196 151.864 85.8561 151.031C85.5398 150.802 85.1823 150.632 84.7367 150.368C84.6982 150.161 84.635 149.878 84.5965 149.589C84.0106 145.296 83.422 141.003 82.8554 136.706L82.8527 136.709ZM85.0668 61.472C83.6503 60.8284 83.4963 60.2095 84.1344 58.8866C84.2884 58.5703 84.5084 58.2732 84.756 58.023C85.2401 57.5334 85.7214 57.0218 86.2797 56.6258C87.1983 55.9739 88.1472 55.3468 89.1374 54.8105C91.3404 53.6196 93.7085 52.9622 96.4727 52.8797C96.767 52.9017 97.3171 52.888 97.8479 52.987C98.6785 53.1465 99.3194 53.7268 99.3084 54.6675C99.3001 55.2285 99.2231 55.7731 98.8986 56.2214C98.4695 56.81 98.0129 57.3904 97.4848 57.8882C96.5497 58.7766 95.4138 59.3762 94.2449 59.9015C92.1381 60.8504 89.9927 61.6672 87.6522 61.824C86.7583 61.8845 85.8699 61.835 85.064 61.4692L85.0668 61.472ZM84.4342 120.886C84.3242 120.567 84.4617 120.306 84.7807 120.179C85.0723 120.064 85.3638 119.935 85.6691 119.874C87.4321 119.53 89.2006 119.208 91.0131 119.335C91.599 119.373 92.1821 119.404 92.7652 119.47C96.0491 119.841 99.2423 120.573 102.238 122.003C103.085 122.404 103.893 122.894 104.683 123.406C105.098 123.672 105.464 124.041 105.788 124.418C106.311 125.028 106.237 125.512 105.552 125.919C105.125 126.172 104.652 126.368 104.179 126.519C103.065 126.871 101.913 126.937 100.755 126.954C100.59 126.954 100.428 126.959 100.263 126.959C100.122 126.959 99.9795 126.954 99.8392 126.948C99.5559 126.94 99.2754 126.929 98.9921 126.915C97.1575 126.824 95.3395 126.59 93.5518 126.137C90.9416 125.474 88.436 124.547 86.2137 122.982C85.7214 122.638 85.273 122.215 84.866 121.772C84.6515 121.538 84.5442 121.194 84.4369 120.883L84.4342 120.886ZM85.3363 153.814C86.0927 154.128 86.7363 154.436 87.4074 154.664C92.0445 156.24 96.6762 156.056 101.286 154.543C101.852 154.356 102.378 154.018 102.887 153.696C103.123 153.547 103.351 153.302 103.453 153.047C103.657 152.524 103.841 151.979 103.913 151.427C104.201 149.226 104.432 147.018 104.713 144.815C104.853 143.717 105.046 142.625 105.23 141.443C107.304 142.301 109.309 143.134 111.366 143.987C111.33 144.135 111.317 144.218 111.292 144.295C110.406 146.891 109.562 149.504 108.621 152.078C107.832 154.24 106.952 156.372 106.063 158.498C105.67 159.441 105.901 160.511 106.679 161.105C107.26 161.548 107.846 162.005 108.484 162.354C111.721 164.128 115.186 165.187 118.858 165.542C123.627 166.004 128.262 165.393 132.748 163.699C134.065 163.204 135.317 162.569 136.469 161.754C137.074 161.325 137.591 160.811 137.949 160.151C138.216 159.653 138.24 159.161 137.941 158.657C137.8 158.426 137.687 158.176 137.583 157.926C136.901 156.259 136.224 154.59 135.55 152.92C135.493 152.777 135.46 152.626 135.388 152.389C141.054 154.708 146.624 156.988 152.256 159.296C152.039 159.463 151.863 159.606 151.682 159.741C148.202 162.362 144.731 165 141.23 167.596C140.515 168.127 140.248 168.751 140.366 169.596C140.391 169.761 140.408 169.929 140.441 170.094C141.125 173.523 141.816 176.95 142.501 180.383C142.679 181.282 142.853 182.182 143.021 183.051C141.186 184.242 139.404 185.397 137.553 186.599C137.553 186.338 137.547 186.175 137.553 186.013C137.61 184.288 137.121 182.743 136.037 181.398C135.616 180.878 135.179 180.366 134.706 179.893C133.735 178.928 132.613 178.155 131.433 177.465C128.625 175.82 125.668 174.464 122.632 173.325C118.732 171.862 114.782 170.531 110.852 169.156C104.567 166.955 98.2495 164.849 92.1216 162.23C90.6611 161.606 89.2419 160.883 87.8117 160.187C87.3826 159.978 86.9838 159.711 86.4997 159.428C86.1257 157.632 85.7351 155.759 85.3308 153.819L85.3363 153.814ZM86.9728 84.061C86.42 81.8579 86.3787 79.6274 86.6648 77.3858C86.9205 75.3697 87.4871 73.4417 88.59 71.7227C89.9927 69.5334 91.9373 68.0812 94.5502 67.6054C95.9969 67.3413 97.2373 67.6934 98.3292 68.6588C99.5862 69.7727 100.398 71.1726 100.917 72.7486C101.605 74.8279 101.77 76.965 101.555 79.1378C101.291 81.8002 100.565 84.3141 99.1268 86.5914C98.0954 88.2224 96.7312 89.4876 94.9297 90.2384C94.6684 90.3457 94.3961 90.4282 94.1238 90.5245C92.6496 87.7906 90.331 86.3218 87.4349 85.6287C87.2644 85.0594 87.0966 84.5643 86.9701 84.061H86.9728ZM87.4211 163.597C87.3744 163.383 87.3441 163.163 87.2974 162.901C87.4349 162.943 87.4954 162.954 87.5504 162.978C90.1083 164.078 92.6194 165.297 95.2295 166.26C101.434 168.548 107.678 170.743 113.921 172.924C117.42 174.148 120.943 175.295 124.332 176.81C126.548 177.803 128.768 178.793 130.822 180.111C132.049 180.897 133.138 181.827 134.035 182.99C134.764 183.939 135.042 184.995 134.989 186.164C134.945 187.198 134.519 188.043 133.655 188.604C133.081 188.975 132.451 189.283 131.81 189.528C130.165 190.155 128.465 190.018 126.788 189.704C124.417 189.261 122.112 188.571 119.851 187.724C113.264 185.254 106.743 182.611 100.243 179.918C97.053 178.598 93.7773 177.476 90.6666 175.963C90.254 175.762 89.7039 175.652 89.4729 175.322C89.2281 174.97 89.2886 174.404 89.2171 173.933C89.2116 173.892 89.2089 173.851 89.2034 173.809C88.7633 170.38 88.1527 166.98 87.4211 163.6V163.597ZM101.718 53.4793C101.531 52.6872 101.121 52.0161 100.513 51.3862C100.851 50.8884 101.148 50.3851 101.506 49.9313C102.933 48.1133 104.864 46.9938 106.963 46.1495C108.55 45.5114 110.208 45.1676 111.93 45.2776C113.195 45.3601 114.284 45.8222 115.085 46.8536C115.472 47.3514 115.591 47.8905 115.442 48.5066C115.263 49.2629 114.873 49.8955 114.345 50.4511C113.632 51.1992 112.821 51.818 111.902 52.2994C109.9 53.35 107.749 53.8506 105.511 53.9359C104.43 53.9771 103.34 53.8616 102.257 53.8093C102.029 53.7983 101.786 53.7736 101.718 53.4793ZM107.516 66.893C106.866 64.7119 106.525 62.4841 106.822 60.193C106.982 58.9443 107.304 57.7727 108.148 56.7963C108.228 56.7028 108.305 56.5927 108.343 56.4772C108.429 56.2187 108.616 56.1417 108.861 56.0922C110.139 55.8336 111.396 55.4651 112.524 54.8215C113.272 54.3952 113.899 54.5189 114.579 54.838C114.881 54.981 115.178 55.1405 115.461 55.3166C116.575 56.0152 117.513 56.909 118.261 57.9872C120.481 61.1914 121.559 64.7752 121.757 68.5707C121.749 69.8249 121.587 70.9829 121.325 72.1298C121.067 73.2602 120.66 74.3328 120.049 75.323C119.725 75.8483 119.345 76.3104 118.699 76.4727C118.542 76.5112 118.36 76.5964 118.272 76.7202C117.989 77.1108 117.571 77.2153 117.145 77.328C116.801 77.4188 116.43 77.4738 116.13 77.6471C115.39 78.0706 114.785 77.8121 114.188 77.372C114.103 77.3115 114.018 77.251 113.932 77.1905C112.884 76.4066 111.993 75.4605 111.231 74.4016C109.581 72.105 108.321 69.6021 107.516 66.893ZM109.493 91.4624C107.749 90.64 107.07 88.9705 107.766 87.1745C108.275 85.8625 109.081 84.7624 110.139 83.8272C112.334 81.88 114.925 80.7028 117.692 79.8557C119.117 79.4183 120.569 79.0938 122.071 79.124C123.165 79.1488 124.241 79.3028 125.206 79.8914C125.465 80.0482 125.627 80.238 125.729 80.5515C125.996 81.3739 125.916 82.1605 125.638 82.9499C125.132 84.3801 124.29 85.5957 123.231 86.6629C121.048 88.8632 118.415 90.3292 115.503 91.3166C114.389 91.6961 113.247 91.9492 112.062 91.9712C111.174 91.9712 110.307 91.8474 109.496 91.4624H109.493ZM108.525 159.334C108.632 159.067 108.72 158.858 108.803 158.646C109.705 156.347 110.676 154.073 111.49 151.74C113.764 145.238 115.852 138.673 117.791 132.064C118.883 128.348 119.958 124.629 121.045 120.911C121.119 120.661 121.215 120.419 121.345 120.05C121.449 120.366 121.512 120.54 121.565 120.721C122.09 122.465 122.574 124.222 123.146 125.95C124.1 128.832 125.104 131.695 126.092 134.567C127.693 139.218 129.153 143.918 130.99 148.486C132.343 151.847 133.705 155.203 135.061 158.561C135.163 158.809 135.248 159.064 135.352 159.345C135.149 159.505 134.984 159.67 134.789 159.78C134.06 160.189 133.342 160.635 132.58 160.968C129.772 162.2 126.81 162.816 123.759 163.042C118.765 163.413 114.056 162.431 109.639 160.063C109.257 159.859 108.91 159.59 108.519 159.331L108.525 159.334ZM146.987 189.723C145.68 183.18 144.39 176.7 143.081 170.14C149.875 169.607 156.591 169.079 163.365 168.545C165.06 175.57 166.734 182.506 168.431 189.531C161.247 189.597 154.138 189.66 146.987 189.723ZM146.58 167.274C146.434 167.285 146.282 167.255 146.005 167.239C146.404 166.936 146.687 166.724 146.97 166.51C151.189 163.333 155.403 160.154 159.627 156.988C159.869 156.806 160.169 156.652 160.461 156.606C161.308 156.476 162.166 156.413 163.021 156.32C165.915 156.003 168.808 155.687 171.702 155.373C172.464 155.291 173.225 155.217 173.99 155.14C173.998 155.184 174.009 155.228 174.02 155.272C173.965 155.335 173.913 155.401 173.855 155.461C170.67 158.825 167.483 162.183 164.306 165.553C164.056 165.817 163.786 165.941 163.434 165.965C162.161 166.053 160.887 166.158 159.611 166.257C157.169 166.449 154.726 166.645 152.281 166.834C150.381 166.983 148.48 167.129 146.58 167.272V167.274ZM165.937 168.298C165.832 167.866 165.904 167.577 166.22 167.247C169.606 163.699 172.972 160.134 176.347 156.575C176.487 156.427 176.639 156.292 176.828 156.105C176.892 156.358 176.941 156.537 176.983 156.718C177.178 157.599 177.34 158.484 177.566 159.356C179.018 164.978 180.764 170.506 182.855 175.924C183.127 176.629 183.182 176.488 182.599 177.036C178.812 180.595 175.021 184.151 171.231 187.707C171.097 187.834 170.954 187.947 170.753 188.117C170.684 187.875 170.64 187.737 170.604 187.594C169.05 181.161 167.499 174.728 165.934 168.298H165.937Z" fill="black"/>
<path d="M2.96454 153.495C2.94528 154.375 2.95078 155.255 2.95628 156.135C2.95628 156.427 2.98928 156.716 3.00854 157.026C5.46189 157.475 7.88224 157.912 10.2916 158.352C10.8087 157.574 11.2597 156.817 11.7906 156.119C12.4232 155.285 13.097 154.48 13.7956 153.704C14.5025 152.917 15.3716 152.329 16.2985 151.828C16.7853 151.567 17.2556 151.556 17.803 151.721C18.9031 152.051 20.0253 152.326 21.1557 152.535C24.6542 153.19 28.1555 153.822 31.6622 154.427C34.5914 154.933 37.5233 155.428 40.4663 155.852C42.8289 156.193 45.2052 156.435 47.5761 156.694C49.0118 156.85 50.4557 156.949 51.8942 157.09C52.4855 157.147 53.0384 157.293 53.4949 157.731C53.7012 157.929 53.9735 158.088 54.2458 158.179C54.8976 158.391 55.346 158.85 55.7915 159.323C57.3785 161.012 58.5144 162.976 59.3148 165.143C60.5332 168.441 61.1218 171.846 61.1576 175.355C61.1603 175.666 61.1576 175.977 61.1576 176.26C64.7936 177.473 68.3636 178.664 71.9364 179.852C71.9694 179.863 72.0134 179.83 72.0849 179.808C72.0987 179.657 72.1234 179.495 72.1262 179.332C72.2307 175.35 72.1427 171.37 71.9419 167.39C71.6971 162.596 71.2543 157.819 70.7262 153.049C70.2394 148.679 69.6948 144.311 69.1502 139.946C68.0501 131.129 66.4713 122.391 64.8899 113.653C63.7347 107.263 62.6263 100.866 61.5701 94.4603C60.6872 89.108 59.8649 83.7447 59.103 78.3759C58.5062 74.1678 58.0083 69.9432 57.538 65.7186C57.0485 61.3262 56.6304 56.9255 56.2041 52.5249C55.9923 50.3356 55.83 48.1435 55.6458 45.9514C55.61 45.9487 55.577 45.9432 55.5412 45.9404C55.4835 46.0697 55.4202 46.1962 55.368 46.3282C50.739 58.287 46.7069 70.4493 43.0352 82.7326C42.9279 83.0929 42.8289 83.4587 42.7161 83.819C42.5538 84.3361 42.2403 84.7046 41.6847 84.8064C41.1319 84.9054 40.7633 84.6331 40.3728 84.2508C39.8392 83.7227 39.6109 83.1011 39.3991 82.408C36.5029 72.8724 33.7993 63.2762 30.6391 53.8176C30.5428 53.5315 30.4438 53.2455 30.3448 52.9622C30.3008 52.9622 30.254 52.9677 30.21 52.9705C30.1165 53.3885 30.0065 53.8011 29.9295 54.2219C28.9173 59.8272 27.8392 65.4215 26.926 71.0434C26.3567 74.5556 26.0349 78.1091 25.6059 81.6434C25.5178 82.3723 25.4518 83.1011 25.3611 83.83C25.2538 84.6854 24.701 85.0704 23.8373 85.0457C22.9435 85.0209 22.4071 84.6083 21.9506 83.8465C20.2096 80.9586 18.397 78.1146 16.6203 75.246C14.5437 71.8987 12.4727 68.5515 10.4126 65.1933C9.02366 62.9242 7.65948 60.6386 6.28427 58.3613C6.23202 58.276 6.1715 58.1935 6.01748 57.9707C5.91846 58.8261 5.81944 59.5357 5.75343 60.248C5.39313 64.1729 5.23911 68.1087 5.09335 72.0473C4.82381 79.3331 4.48551 86.6189 4.27098 93.9102C4.01794 102.414 3.85292 110.921 3.67139 119.428C3.53662 125.735 3.4486 132.042 3.31933 138.348C3.21481 143.398 3.07729 148.448 2.95903 153.495H2.96454ZM9.42248 94.9966C9.41148 94.7876 9.40322 94.5758 9.43623 94.3695C9.56274 93.5719 10.2339 93.0933 11.0287 93.2254C11.235 93.2611 11.4358 93.3244 11.6365 93.3794C19.819 95.599 27.9987 97.8158 36.1784 100.035C36.602 100.151 37.0338 100.25 37.4463 100.39C38.1779 100.64 38.4832 101.185 38.3787 101.955C38.343 102.222 38.3402 102.497 38.3622 102.767C38.6318 106.086 38.9123 109.406 39.1818 112.726C39.4541 116.067 39.7182 119.409 39.9877 122.748C40.2765 126.318 40.5708 129.888 40.8596 133.458C40.8761 133.645 40.8871 133.838 40.8678 134.022C40.7991 134.737 40.282 135.216 39.5669 135.202C39.2781 135.197 38.9866 135.128 38.706 135.053C29.9597 132.76 21.2162 130.46 12.4727 128.161C11.4413 127.891 11.1305 127.52 11.0672 126.442C10.9627 124.643 10.8774 122.844 10.7839 121.043C10.6024 117.55 10.4209 114.057 10.2394 110.561H10.2311C10.1541 108.991 10.0826 107.423 9.99732 105.852C9.80754 102.233 9.6095 98.6134 9.41697 94.9939L9.42248 94.9966Z" fill="#DBA2A2"/>
<path d="M9.43645 94.3698C9.40344 94.576 9.4117 94.7878 9.4227 94.9968C9.61523 98.6164 9.8105 102.236 10.003 105.855C10.0855 107.423 10.1598 108.994 10.2368 110.564H10.2451C10.4266 114.06 10.6081 117.553 10.7897 121.046C10.8832 122.845 10.9657 124.646 11.0729 126.445C11.1362 127.523 11.447 127.894 12.4784 128.164C21.2219 130.463 29.9655 132.763 38.7117 135.056C38.9923 135.131 39.2866 135.197 39.5726 135.205C40.2877 135.219 40.8048 134.74 40.8736 134.025C40.8928 133.841 40.8791 133.648 40.8653 133.461C40.5765 129.891 40.285 126.321 39.9934 122.751C39.7239 119.409 39.4599 116.068 39.1876 112.729C38.918 109.409 38.6375 106.089 38.3679 102.769C38.3459 102.503 38.3487 102.225 38.3844 101.958C38.489 101.191 38.1837 100.643 37.452 100.393C37.0367 100.253 36.6077 100.151 36.1841 100.038C28.0017 97.8188 19.822 95.6019 11.6423 93.3824C11.4415 93.3273 11.238 93.2641 11.0344 93.2283C10.2396 93.0963 9.56847 93.5749 9.44195 94.3725L9.43645 94.3698ZM13.5043 123.714C13.023 114.516 12.5471 105.385 12.0631 96.1658C13.7518 96.6223 15.3608 97.0569 16.9396 97.4832C16.9396 97.9783 16.9203 98.3743 16.9396 98.7677C17.0551 100.902 17.1843 103.036 17.3026 105.168C17.5832 110.165 17.8554 115.166 18.147 120.166C18.169 120.532 18.0672 120.738 17.7674 120.933C16.4527 121.794 15.1518 122.674 13.8454 123.546C13.7656 123.601 13.6693 123.631 13.496 123.714H13.5043ZM14.764 126.107C14.9152 125.969 14.9813 125.892 15.061 125.84C16.45 124.907 17.8499 123.983 19.2334 123.04C19.5084 122.856 19.7697 122.867 20.0668 122.927C25.2018 123.923 30.3368 124.916 35.4718 125.909C36.2061 126.052 36.9377 126.203 37.7079 126.357C37.8674 128.312 38.0241 130.224 38.1919 132.262C30.3258 130.197 22.5889 128.164 14.7612 126.109L14.764 126.107Z" fill="black"/>
<path d="M9.89277 167.707C9.51046 171.018 9.78825 174.272 10.8032 177.457C11.158 178.568 11.708 179.572 12.5497 180.4C12.7972 180.645 13.0695 180.779 13.4188 180.845C18.9856 181.937 24.5579 183.007 30.0395 184.495C34.0441 185.584 37.9661 186.918 41.8167 188.464C42.045 188.555 42.276 188.634 42.6006 188.753C42.529 188.555 42.5015 188.442 42.4493 188.343C41.2281 186.057 40.5763 183.596 40.2297 181.049C39.8942 178.573 39.7621 176.087 39.9519 173.587C40.282 169.23 41.3904 165.127 43.8685 161.474C44.3471 160.77 44.9632 160.157 45.516 159.502C45.6067 159.398 45.7058 159.301 45.8735 159.123C45.1612 159.04 44.5479 158.969 43.9318 158.903C39.4541 158.416 35.0204 157.626 30.584 156.856C27.4706 156.314 24.3571 155.764 21.2492 155.19C20.0362 154.964 18.8343 154.67 17.6351 154.375C17.2941 154.293 17.0191 154.326 16.7633 154.551C16.2764 154.978 15.7374 155.363 15.3111 155.841C12.2939 159.238 10.4126 163.168 9.89002 167.707H9.89277Z" fill="#7A8125"/>
<path d="M7.90173 55.7651C8.13276 56.6673 22.1791 79.5974 23.0867 80.5793C23.1225 80.4445 23.1665 80.3317 23.1802 80.2162C24.0218 71.877 25.4823 63.634 27.0693 55.3718C20.6306 55.5038 14.2772 55.6304 7.90447 55.7624L7.90173 55.7651Z" fill="#FFC2C2"/>
<path d="M12.0629 96.1658C12.5443 105.385 13.0228 114.516 13.5042 123.714C13.6774 123.631 13.7709 123.601 13.8535 123.546C15.1599 122.674 16.4608 121.794 17.7755 120.933C18.0726 120.738 18.1743 120.532 18.1551 120.166C17.8608 115.168 17.5885 110.168 17.3107 105.168C17.1924 103.034 17.0632 100.902 16.9477 98.7677C16.9257 98.3744 16.9477 97.9783 16.9477 97.4832C15.3689 97.0569 13.7599 96.6223 12.0712 96.1658H12.0629Z" fill="#FFC2C2"/>
<path d="M15.0608 125.837C14.9782 125.892 14.9122 125.969 14.7637 126.104C22.5914 128.158 30.3282 130.191 38.1944 132.256C38.0266 130.221 37.8726 128.307 37.7103 126.351C36.9402 126.197 36.2086 126.046 35.4743 125.903C30.3393 124.907 25.2043 123.917 20.0693 122.921C19.7722 122.864 19.5109 122.85 19.2359 123.034C17.8524 123.975 16.4525 124.899 15.0635 125.834L15.0608 125.837Z" fill="#FFC2C2"/>
<path d="M31.8411 49.0012C31.9346 49.345 32.0007 49.6228 32.0859 49.8923C33.4061 54.0179 34.7703 58.1325 36.0465 62.2719C37.7215 67.7122 39.3277 73.1772 40.967 78.6285C41.0495 78.9008 41.1402 79.1731 41.2668 79.5609C44.5755 68.9773 47.9695 58.5588 51.8696 48.2476C45.1696 48.6326 38.5356 48.5391 31.8411 49.0012Z" fill="#FFC2C2"/>
<path d="M39.8941 12.3609C39.6136 12.6332 39.5228 12.9165 39.5696 13.3125C39.7703 14.9958 39.9766 16.6818 40.1114 18.3705C40.2984 20.7084 40.4442 23.049 40.5762 25.3923C40.7742 28.8661 40.7742 32.3453 40.6642 35.8218C40.5625 39.0673 40.3864 42.31 39.9821 45.5335C39.9629 45.6765 39.9821 45.8251 39.9821 46.0753C44.3112 45.8993 48.6046 46.0066 52.9063 45.5225C52.997 45.2942 53.085 45.0852 53.1648 44.8734C53.6654 43.5615 54.1632 42.2523 54.661 40.9403C54.804 40.558 54.9856 40.1812 55.3816 40.0355C55.6622 39.9309 55.9922 39.8924 56.2893 39.9282C57.3124 40.0547 58.3273 39.9612 59.3972 39.9667C59.2239 39.0921 59.0397 38.278 58.9021 37.4583C57.956 31.8008 56.9741 26.1487 56.0967 20.4801C55.6292 17.4601 55.2991 14.4182 55.1836 11.357C55.1698 11.0077 55.0378 10.7657 54.7903 10.5484C54.3392 10.1523 53.8194 9.89379 53.2528 9.72326C49.5893 8.6066 46.0193 8.82663 42.5565 10.4906C41.5664 10.9664 40.6862 11.599 39.8969 12.3636L39.8941 12.3609Z" fill="#F96969"/>
<path d="M42.7297 171.904C42.5702 173.276 42.4822 174.654 42.4189 175.394C42.4959 178.997 42.7627 181.929 43.7061 184.765C44.0801 185.881 44.5642 186.946 45.1775 187.95C45.7194 188.835 46.396 189.594 47.2568 190.186C48.8026 191.245 50.4088 191.333 52.059 190.474C53.7891 189.578 54.9882 188.139 56.0141 186.528C57.4416 184.289 58.1567 181.813 58.4125 179.195C58.66 176.667 58.6738 174.134 58.308 171.612C57.9944 169.45 57.4581 167.346 56.6165 165.325C56.0086 163.862 55.2055 162.522 54.1411 161.345C53.2417 160.349 52.1196 159.816 50.7719 159.813C49.867 159.813 49.0556 160.146 48.2965 160.616C47.2403 161.268 46.4427 162.17 45.7881 163.212C44.1159 165.88 43.0927 168.779 42.7324 171.907L42.7297 171.904Z" fill="#B4BD57"/>
<path d="M58.0909 42.522C57.9726 43.1684 58.0496 43.7487 58.0964 44.3208C58.3274 47.14 58.5584 49.9591 58.817 52.7783C59.0728 55.5534 59.3588 58.3258 59.6366 61.0983C59.8539 63.2656 60.0602 65.4356 60.3132 67.6002C60.646 70.4496 60.987 73.3018 61.3776 76.143C61.8287 79.4214 62.3182 82.6944 62.8216 85.9646C63.4074 89.774 64.0097 93.5805 64.6396 97.3843C65.2667 101.166 65.9213 104.942 66.5924 108.716C67.3157 112.778 68.1023 116.83 68.8009 120.895C69.5326 125.147 70.2477 129.405 70.8747 133.673C71.5156 138.046 72.0959 142.43 72.5938 146.82C73.2016 152.192 73.7627 157.569 74.2275 162.954C74.662 167.987 74.8161 173.04 74.7391 178.092C74.7308 178.653 74.7391 179.217 74.7391 179.855C78.7574 178.543 82.7647 177.237 86.8298 175.908C86.7253 174.99 86.6401 174.118 86.5273 173.249C85.9552 168.818 84.9898 164.461 84.0189 160.107C82.8005 154.645 81.8076 149.141 81.1007 143.591C80.3994 138.063 79.6815 132.534 79.2827 126.973C79.0847 124.215 78.9334 121.453 78.7574 118.694C78.7491 118.551 78.7299 118.408 78.7106 118.191C78.5044 118.271 78.3393 118.329 78.1771 118.395C77.5555 118.642 76.9394 118.901 76.3123 119.135C76.1225 119.206 75.9052 119.236 75.699 119.236C75.1049 119.239 74.6455 118.884 74.486 118.331C74.3375 117.814 74.53 117.272 74.9949 116.953C75.1324 116.86 75.2836 116.777 75.4432 116.728C77.1897 116.189 78.7024 115.212 80.1794 114.173C81.9341 112.938 83.5294 111.516 84.9926 109.954C86.6703 108.16 88.2545 106.29 89.5692 104.211C91.0077 101.939 92.0391 99.4994 92.4407 96.826C92.6772 95.2528 92.6139 93.696 92.0254 92.1833C91.3598 90.4698 90.0946 89.3779 88.4608 88.66C86.5878 87.8349 84.6378 87.8074 82.6657 88.187C80.8505 88.5363 79.2002 89.2816 77.6875 90.3378C77.1072 90.7421 76.5461 90.7778 76.0593 90.4175C75.4679 89.9802 75.3497 89.1661 75.8667 88.5885C76.1968 88.2227 76.6121 87.9064 77.0384 87.6589C79.28 86.3607 81.6701 85.5136 84.283 85.3953C84.382 85.3898 84.481 85.3623 84.5993 85.3403C84.4452 84.5784 84.2582 83.8468 84.1564 83.1042C83.6806 79.559 83.9172 76.0852 85.2181 72.716C86.4475 69.531 88.5846 67.1821 91.6898 65.7794C93.3951 65.0093 95.2076 64.6793 97.0806 65.1386C98.7803 65.5567 100.079 66.5936 101.173 67.911C102.557 69.575 103.396 71.5085 103.805 73.6181C104.771 78.5661 104.02 83.2582 101.503 87.6259C100.043 90.1618 97.936 91.9908 95.1086 92.9067C95.07 92.9204 95.037 92.9479 94.9435 93.0029C95.3478 95.085 95.0838 97.167 94.564 99.2986C95.3918 99.2601 96.1207 99.2436 96.8468 99.1886C99.3964 99.0016 101.946 98.8255 104.49 98.5945C106.701 98.3937 108.902 98.0994 111.058 97.5493C111.201 97.5136 111.344 97.4778 111.487 97.4641C112.329 97.3788 112.824 97.6869 113.176 98.457C113.514 99.1996 113.855 99.9422 114.243 100.66C114.642 101.403 115.164 102.06 115.808 102.613C117.073 103.702 118.545 103.485 119.447 102.074C120.024 101.172 120.302 100.159 120.385 99.1061C120.473 98.0032 120.498 96.892 120.52 95.7836C120.531 95.2225 120.753 94.8099 121.237 94.5514C121.512 94.4056 121.809 94.2956 122.104 94.1856C125.036 93.0992 127.896 91.8643 130.536 90.1645C131.738 89.3917 132.899 88.5665 133.914 87.5599C134.34 87.1391 134.709 86.6467 135.039 86.1462C135.473 85.4916 136.12 85.2275 136.75 85.5273C137.374 85.8244 137.633 86.5202 137.355 87.2408C137.096 87.9174 136.653 88.4785 136.147 88.9873C135.08 90.06 133.922 91.0254 132.654 91.8533C131.021 92.9204 129.348 93.9161 127.572 94.7247C127.497 94.7604 127.426 94.8072 127.349 94.8512C127.349 95.5003 127.316 96.1466 127.354 96.7875C127.687 102.737 127.753 108.686 127.459 114.635C127.294 117.963 127.032 121.285 126.796 124.608C126.735 125.463 126.623 126.319 126.496 127.166C126.438 127.556 126.485 127.906 126.612 128.269C128.001 132.287 129.359 136.316 130.765 140.326C131.708 143.014 132.715 145.679 133.686 148.355C133.79 148.641 133.914 148.877 134.217 149.007C136.2 149.854 138.174 150.717 140.155 151.573C140.21 151.598 140.273 151.6 140.419 151.631C140.339 151.314 140.273 151.036 140.201 150.761C139.398 147.747 138.524 144.749 137.809 141.713C136.455 135.961 135.363 130.155 134.577 124.297C134.052 120.369 133.644 116.431 133.515 112.47C133.292 105.677 134.445 99.1198 136.931 92.7966C137.866 90.4203 138.854 88.0632 139.569 85.6016C140.35 82.909 140.829 80.175 140.757 77.3614C140.721 75.9917 140.515 74.6522 140.009 73.3678C138.98 70.7549 136.642 69.4402 133.845 69.7593C131.318 70.0481 129.057 71.0877 126.906 72.3832C126.1 72.87 125.349 73.4421 124.568 73.9729C124.326 74.1379 124.087 74.3662 123.817 74.4129C123.352 74.4955 123.157 74.7513 123.009 75.1583C122.846 75.6066 122.607 76.0247 122.371 76.5225C122.857 76.5913 123.303 76.6463 123.746 76.715C124.92 76.8966 126.026 77.2706 126.977 78.005C127.308 78.258 127.613 78.5551 127.88 78.8741C128.047 79.0749 128.177 79.3389 128.234 79.5947C128.661 81.5062 128.43 83.3298 127.511 85.0763C126.722 86.578 125.715 87.9064 124.461 89.0423C121.573 91.6525 118.223 93.3935 114.43 94.2654C112.752 94.6504 111.064 94.6944 109.397 94.1828C107.098 93.476 105.552 92.0183 105.021 89.6199C104.79 88.5748 104.892 87.5351 105.252 86.5257C105.876 84.7737 106.883 83.2747 108.275 82.0398C109.408 81.0359 110.607 80.1255 111.96 79.4352C112.051 79.3912 112.134 79.3279 112.235 79.2647C112.197 79.1904 112.18 79.1244 112.139 79.0914C109.922 77.3091 108.349 75.029 107.056 72.5344C105.764 70.0453 104.79 67.4517 104.366 64.6628C104.039 62.5037 104.045 60.3611 104.57 58.2351C104.705 57.6933 104.919 57.1707 105.104 56.6233C103.965 56.5436 102.845 56.4638 101.715 56.3841C101.69 56.4033 101.644 56.4226 101.63 56.4556C100.829 58.5294 99.3167 59.9843 97.4684 61.0983C94.9738 62.6 92.2976 63.6781 89.4235 64.2035C87.908 64.4812 86.387 64.5363 84.8716 64.1402C83.8071 63.8624 82.8913 63.3453 82.1487 62.5367C81.3318 61.6456 81.021 60.6059 81.252 59.4013C81.4363 58.4331 81.8241 57.5695 82.4237 56.7911C83.0288 56.0073 83.7301 55.3197 84.514 54.7146C87.3524 52.5252 90.5044 51.0428 94.0661 50.5009C95.3946 50.3002 96.7313 50.2177 98.0955 50.4239C98.1807 50.2947 98.2633 50.1791 98.332 50.0554C99.2782 48.3364 100.56 46.9282 102.177 45.8088C104.399 44.2713 106.817 43.2234 109.501 42.8301C110.945 42.6183 112.381 42.5963 113.798 43.0226C115.013 43.3884 116.036 44.0458 116.875 45.0001C118.058 46.3478 118.338 47.8771 117.805 49.5741C117.516 50.4899 117.029 51.2876 116.402 52.0054C116.251 52.1787 116.094 52.3465 115.91 52.5473C116.009 52.6298 116.089 52.7233 116.188 52.7755C118.171 53.8537 119.711 55.3994 120.888 57.3054C123.105 60.9002 124.257 64.814 124.307 69.0414C124.312 69.4787 124.252 69.9188 124.222 70.3561C124.208 70.5569 124.194 70.7549 124.18 70.9667C125.759 70.0976 127.294 69.2532 128.93 68.3538C128.061 57.806 128.421 47.1647 129.128 36.4629C128.834 36.4904 128.548 36.5124 128.265 36.5482C124.752 36.991 121.246 37.4558 117.731 37.8683C114.755 38.2176 111.776 38.5174 108.795 38.8145C106.355 39.0593 103.915 39.2711 101.473 39.4911C98.8023 39.7331 96.1317 39.9724 93.4611 40.2062C90.8729 40.4317 88.2848 40.6545 85.6967 40.8718C82.9408 41.1056 80.1876 41.3559 77.429 41.5566C74.42 41.7767 71.4111 41.9609 68.3966 42.137C66.3256 42.258 64.2545 42.3378 62.1807 42.4258C61.1768 42.4698 60.1702 42.4973 59.1663 42.5275C58.8142 42.5385 58.4594 42.5275 58.0799 42.5275L58.0909 42.522Z" fill="#FFC2C2"/>
<path d="M66.7161 7.84143C66.5676 8.06421 66.4961 8.26774 66.5236 8.53728C67.0131 13.312 67.3652 18.0949 67.5742 22.8889C67.7778 27.5563 67.9153 32.2265 67.7337 36.8994C67.709 37.5678 67.654 38.2361 67.6182 38.9072C67.6072 39.1108 67.6182 39.317 67.6182 39.5866C74.431 39.3115 81.1365 38.6624 87.908 38.0821C87.8695 37.8016 87.8447 37.5788 87.8007 37.3588C86.5795 31.0053 85.3528 24.6519 84.3682 18.2572C83.7328 14.1344 83.2763 9.99225 83.0755 5.82538C83.0452 5.20654 82.8362 4.83799 82.2724 4.56295C81.0649 3.97436 79.786 3.64431 78.4713 3.54255C76.139 3.36377 73.8286 3.56455 71.5788 4.27141C69.5545 4.90675 67.8988 6.05092 66.7133 7.83868L66.7161 7.84143Z" fill="#F96969"/>
<path d="M82.8088 133.668C82.6025 134.713 82.7208 135.703 82.8528 136.71C83.4194 141.006 84.0107 145.299 84.5938 149.592C84.6323 149.881 84.6956 150.167 84.7341 150.371C85.1824 150.632 85.5372 150.805 85.8535 151.034C87.0169 151.864 88.3316 152.335 89.7013 152.673C93.1888 153.534 96.6378 153.283 100.051 152.258C101.297 151.884 101.3 151.82 101.424 150.536C101.877 145.866 102.562 141.226 103.508 136.63C103.998 134.253 104.542 131.885 105.06 129.514C105.095 129.355 105.12 129.195 105.164 128.967C101.391 129.922 97.672 129.608 93.9837 128.871C90.2954 128.134 86.8464 126.77 83.7659 124.407C83.7357 124.624 83.7054 124.778 83.6972 124.93C83.5569 127.859 83.3781 130.791 82.806 133.67L82.8088 133.668Z" fill="#7A8125"/>
<path d="M84.1345 58.8872C83.4937 60.2074 83.6505 60.829 85.0669 61.4726C85.8728 61.8384 86.7612 61.8879 87.6551 61.8274C89.9956 61.6706 92.141 60.8537 94.2478 59.9048C95.4167 59.3795 96.5526 58.7799 97.4877 57.8915C98.0131 57.3937 98.4724 56.8106 98.9015 56.2248C99.226 55.7792 99.303 55.2319 99.3113 54.6708C99.3223 53.7274 98.6814 53.1471 97.8508 52.9903C97.32 52.8886 96.7671 52.9023 96.4756 52.8831C93.7087 52.9683 91.3433 53.6229 89.1403 54.8138C88.1501 55.3502 87.2012 55.9773 86.2826 56.6291C85.7243 57.0252 85.2429 57.5367 84.7589 58.0263C84.5113 58.2766 84.2913 58.5736 84.1373 58.8899L84.1345 58.8872Z" fill="#F96969"/>
<path d="M84.7807 120.179C84.4617 120.305 84.3242 120.567 84.4342 120.886C84.5414 121.197 84.6487 121.543 84.8632 121.774C85.2703 122.217 85.7186 122.638 86.2109 122.984C88.4333 124.547 90.9389 125.473 93.549 126.139C95.3368 126.596 97.1548 126.827 98.9893 126.917C99.2698 126.931 99.5531 126.942 99.8364 126.95C99.9767 126.953 100.12 126.956 100.26 126.959C100.425 126.959 100.587 126.959 100.752 126.953C101.907 126.937 103.06 126.871 104.177 126.519C104.65 126.37 105.125 126.175 105.549 125.919C106.231 125.512 106.305 125.028 105.786 124.417C105.464 124.038 105.095 123.672 104.68 123.405C103.893 122.894 103.082 122.404 102.235 122.002C99.2368 120.572 96.0436 119.841 92.7624 119.469C92.1821 119.403 91.5962 119.373 91.0104 119.335C89.2006 119.208 87.4294 119.53 85.6664 119.874C85.3611 119.931 85.0695 120.061 84.778 120.179H84.7807Z" fill="#B4BD57"/>
<path d="M87.4048 154.667C86.7337 154.438 86.0929 154.13 85.3338 153.817C85.7381 155.759 86.1287 157.629 86.5027 159.425C86.9868 159.708 87.3856 159.975 87.8147 160.184C89.2449 160.88 90.6641 161.603 92.1245 162.227C98.2524 164.846 104.57 166.955 110.855 169.153C114.785 170.531 118.735 171.862 122.635 173.323C125.674 174.461 128.628 175.817 131.436 177.462C132.616 178.15 133.738 178.925 134.709 179.891C135.182 180.361 135.622 180.872 136.04 181.395C137.124 182.74 137.613 184.286 137.556 186.01C137.55 186.172 137.556 186.332 137.556 186.596C139.409 185.394 141.192 184.236 143.023 183.048C142.853 182.179 142.682 181.28 142.504 180.38C141.819 176.95 141.128 173.521 140.444 170.091C140.411 169.926 140.391 169.761 140.369 169.593C140.251 168.751 140.518 168.124 141.233 167.594C144.731 164.997 148.202 162.359 151.685 159.738C151.863 159.601 152.042 159.461 152.259 159.293C146.627 156.988 141.057 154.708 135.391 152.387C135.463 152.623 135.496 152.774 135.553 152.917C136.227 154.587 136.904 156.256 137.586 157.923C137.688 158.173 137.803 158.424 137.943 158.655C138.246 159.155 138.221 159.65 137.952 160.148C137.597 160.808 137.077 161.323 136.472 161.752C135.32 162.566 134.068 163.201 132.751 163.696C128.265 165.388 123.63 166.001 118.861 165.539C115.189 165.184 111.724 164.123 108.487 162.351C107.849 162.002 107.263 161.545 106.682 161.103C105.904 160.508 105.673 159.439 106.066 158.495C106.952 156.369 107.832 154.238 108.624 152.076C109.565 149.499 110.409 146.888 111.295 144.292C111.32 144.215 111.333 144.135 111.369 143.984C109.312 143.131 107.307 142.301 105.233 141.44C105.049 142.623 104.853 143.715 104.716 144.812C104.438 147.015 104.207 149.224 103.916 151.424C103.841 151.977 103.66 152.524 103.456 153.044C103.354 153.297 103.126 153.544 102.89 153.693C102.378 154.015 101.855 154.353 101.289 154.54C96.6792 156.053 92.0475 156.237 87.4103 154.661L87.4048 154.667Z" fill="#F96969"/>
<path d="M86.6651 77.3888C86.379 79.6276 86.4203 81.8609 86.9731 84.064C87.0996 84.5701 87.2702 85.0651 87.4379 85.6317C90.3314 86.3248 92.65 87.7935 94.1269 90.5274C94.3965 90.4312 94.6687 90.3514 94.9328 90.2414C96.7343 89.4905 98.0985 88.2254 99.1299 86.5944C100.568 84.317 101.292 81.8032 101.559 79.1408C101.776 76.9707 101.608 74.8336 100.92 72.7516C100.401 71.1756 99.5892 69.7757 98.3323 68.6617C97.2404 67.6963 95.9999 67.3443 94.5532 67.6083C91.9403 68.0869 89.9958 69.5391 88.5931 71.7257C87.4902 73.4447 86.9236 75.3727 86.6678 77.3888H86.6651ZM90.7522 82.1112C90.0673 79.2728 90.1966 76.4536 91.1867 73.706C91.4508 72.9689 91.9018 72.2895 92.3419 71.6322C92.5894 71.2581 92.9552 70.9446 93.3183 70.6668C94.82 69.5089 96.572 69.7096 97.774 71.1646C98.3818 71.9017 98.7806 72.7516 99.0199 73.6757C99.3307 74.8804 99.4655 76.1043 99.4875 77.573C99.471 77.8481 99.4627 78.3514 99.4104 78.8492C99.2289 80.604 98.7366 82.2542 97.7024 83.7092C97.1359 84.5068 96.3685 85.0294 95.4389 85.3127C93.8244 85.8077 92.2264 85.2027 91.3985 83.7312C91.1152 83.2251 90.8842 82.6695 90.7467 82.1057L90.7522 82.1112Z" fill="#F5DEBB"/>
<path d="M87.2948 162.899C87.3416 163.16 87.3719 163.38 87.4186 163.595C88.1475 166.975 88.7608 170.374 89.2009 173.804C89.2064 173.845 89.2091 173.887 89.2146 173.928C89.2861 174.401 89.2256 174.965 89.4704 175.317C89.7014 175.647 90.2515 175.757 90.6641 175.958C93.7748 177.473 97.0505 178.593 100.241 179.913C106.74 182.605 113.261 185.249 119.849 187.718C122.109 188.566 124.414 189.256 126.785 189.699C128.463 190.012 130.163 190.15 131.807 189.523C132.448 189.278 133.078 188.97 133.653 188.599C134.517 188.04 134.943 187.193 134.987 186.159C135.036 184.99 134.761 183.931 134.032 182.985C133.139 181.819 132.047 180.892 130.82 180.105C128.765 178.788 126.546 177.798 124.329 176.805C120.941 175.287 117.417 174.14 113.919 172.918C107.673 170.737 101.432 168.543 95.227 166.254C92.6196 165.292 90.1057 164.073 87.5479 162.973C87.4929 162.948 87.4324 162.937 87.2948 162.896V162.899Z" fill="#F96969"/>
<path d="M91.1861 73.7058C90.196 76.4535 90.064 79.2726 90.7516 82.1111C90.8864 82.6721 91.1174 83.2305 91.4034 83.7365C92.2313 85.208 93.8293 85.8131 95.4438 85.318C96.3734 85.0347 97.1408 84.5122 97.7074 83.7145C98.7415 82.2596 99.2311 80.6093 99.4154 78.8546C99.4676 78.354 99.4759 77.8507 99.4924 77.5784C99.4676 76.1097 99.3356 74.8857 99.0248 73.6811C98.7855 72.7569 98.3867 71.9071 97.7789 71.17C96.5769 69.7122 94.8222 69.5142 93.3232 70.6721C92.9602 70.9499 92.5944 71.2635 92.3468 71.6375C91.9095 72.2949 91.4584 72.9742 91.1916 73.7113L91.1861 73.7058Z" fill="black"/>
<path d="M100.511 51.3865C101.118 52.0164 101.528 52.6875 101.715 53.4796C101.784 53.7739 102.026 53.7986 102.254 53.8096C103.341 53.8619 104.427 53.9774 105.508 53.9361C107.747 53.8481 109.898 53.3475 111.9 52.2996C112.816 51.8183 113.63 51.1995 114.342 50.4514C114.87 49.8985 115.258 49.2632 115.44 48.5068C115.588 47.8907 115.47 47.3517 115.082 46.8538C114.282 45.8224 113.193 45.3604 111.927 45.2779C110.203 45.1678 108.544 45.5116 106.96 46.1497C104.862 46.9941 102.931 48.1108 101.503 49.9315C101.146 50.3881 100.846 50.8887 100.511 51.3865Z" fill="#F96969"/>
<path d="M106.823 60.1958C106.526 62.4869 106.867 64.7147 107.516 66.8958C108.322 69.6049 109.581 72.1078 111.232 74.4044C111.991 75.4633 112.882 76.4066 113.932 77.1933C114.018 77.2565 114.103 77.3143 114.188 77.3748C114.785 77.8149 115.39 78.0734 116.13 77.6498C116.43 77.4766 116.804 77.4243 117.145 77.3308C117.571 77.218 117.989 77.1135 118.273 76.7229C118.363 76.5992 118.545 76.5139 118.699 76.4754C119.345 76.3159 119.725 75.8538 120.049 75.3257C120.66 74.3356 121.067 73.2629 121.326 72.1325C121.587 70.9856 121.752 69.8277 121.757 68.5735C121.559 64.7779 120.481 61.1942 118.262 57.9899C117.516 56.9118 116.576 56.0179 115.462 55.3193C115.178 55.1433 114.881 54.9838 114.579 54.8407C113.902 54.5217 113.275 54.3979 112.524 54.8242C111.397 55.4651 110.14 55.8364 108.861 56.0949C108.616 56.1444 108.429 56.2214 108.344 56.48C108.305 56.5955 108.231 56.7055 108.148 56.799C107.301 57.7727 106.982 58.9471 106.823 60.1958ZM107.802 63.0369C107.772 61.9863 107.942 60.9906 108.58 60.1188C109.284 59.1589 110.217 58.7078 111.413 58.8756C111.985 58.9553 112.494 59.1946 112.962 59.5274C113.858 60.1628 114.661 60.9054 115.244 61.8378C115.764 62.6711 116.257 63.5293 116.675 64.4149C117.555 66.2687 118.088 68.2187 118.163 70.2788C118.19 71.4642 117.948 72.5753 117.233 73.5435C116.229 74.9022 114.697 75.1525 113.308 74.1953C112.631 73.7278 112.057 73.1529 111.556 72.4983C110.142 70.6418 109.149 68.5762 108.467 66.3567C108.135 65.273 107.835 64.1839 107.802 63.0397V63.0369Z" fill="#F5DEBB"/>
<path d="M107.766 87.1748C107.073 88.9708 107.75 90.6403 109.493 91.4627C110.305 91.845 111.168 91.9742 112.06 91.9715C113.242 91.9467 114.386 91.6937 115.5 91.3169C118.413 90.3295 121.045 88.8635 123.229 86.6632C124.288 85.5961 125.129 84.3804 125.636 82.9502C125.916 82.1608 125.993 81.3742 125.726 80.5518C125.625 80.241 125.462 80.0485 125.204 79.8917C124.238 79.3059 123.163 79.1491 122.068 79.1244C120.567 79.0914 119.114 79.4187 117.69 79.856C114.923 80.7031 112.332 81.8803 110.137 83.8276C109.081 84.7627 108.272 85.8629 107.763 87.1748H107.766Z" fill="#F96969"/>
<path d="M108.58 60.1187C107.942 60.9906 107.771 61.9862 107.802 63.0369C107.835 64.181 108.135 65.2702 108.467 66.3539C109.149 68.5734 110.142 70.6417 111.556 72.4955C112.057 73.1501 112.631 73.7249 113.308 74.1925C114.694 75.1497 116.229 74.8994 117.233 73.5407C117.948 72.5725 118.19 71.4641 118.162 70.2759C118.088 68.2159 117.555 66.2659 116.675 64.4121C116.254 63.5265 115.764 62.6683 115.244 61.835C114.661 60.8998 113.858 60.16 112.961 59.5246C112.494 59.1946 111.982 58.9525 111.413 58.8728C110.217 58.705 109.284 59.1561 108.58 60.116V60.1187Z" fill="black"/>
<path d="M108.803 158.647C108.72 158.858 108.635 159.067 108.525 159.334C108.915 159.593 109.262 159.862 109.644 160.066C114.059 162.434 118.767 163.416 123.765 163.045C126.815 162.819 129.777 162.206 132.585 160.971C133.347 160.635 134.065 160.19 134.794 159.783C134.989 159.673 135.154 159.508 135.358 159.348C135.253 159.067 135.165 158.814 135.066 158.564C133.71 155.206 132.349 151.85 130.996 148.489C129.156 143.921 127.698 139.221 126.097 134.57C125.11 131.698 124.103 128.835 123.151 125.953C122.579 124.223 122.095 122.468 121.57 120.724C121.518 120.545 121.454 120.369 121.35 120.053C121.221 120.419 121.122 120.661 121.05 120.914C119.964 124.632 118.888 128.351 117.796 132.067C115.857 138.679 113.773 145.241 111.495 151.743C110.681 154.073 109.708 156.347 108.808 158.649L108.803 158.647Z" fill="#7A8125"/>
<path d="M143.081 170.141C144.39 176.698 145.68 183.178 146.986 189.724C154.135 189.66 161.247 189.597 168.431 189.531C166.737 182.509 165.062 175.57 163.365 168.545C156.591 169.079 149.874 169.607 143.081 170.141Z" fill="#7A8125"/>
<path d="M146.005 167.238C146.283 167.258 146.434 167.288 146.58 167.274C148.48 167.131 150.381 166.985 152.281 166.837C154.726 166.647 157.169 166.449 159.611 166.259C160.884 166.157 162.158 166.056 163.434 165.968C163.786 165.943 164.056 165.819 164.306 165.555C167.483 162.186 170.67 158.828 173.855 155.464C173.913 155.403 173.965 155.337 174.02 155.274C174.009 155.23 174.001 155.186 173.99 155.142C173.228 155.219 172.466 155.293 171.702 155.376C168.808 155.689 165.915 156.008 163.021 156.322C162.166 156.416 161.311 156.479 160.461 156.608C160.169 156.652 159.867 156.809 159.627 156.99C155.403 160.156 151.189 163.336 146.97 166.512C146.687 166.727 146.404 166.939 146.005 167.241V167.238Z" fill="#B4BD57"/>
<path d="M166.22 167.247C165.904 167.577 165.832 167.866 165.937 168.298C167.502 174.728 169.05 181.162 170.607 187.595C170.643 187.738 170.687 187.875 170.756 188.117C170.956 187.947 171.102 187.834 171.234 187.708C175.024 184.151 178.811 180.592 182.601 177.036C183.185 176.489 183.13 176.629 182.857 175.925C180.767 170.507 179.018 164.978 177.568 159.356C177.343 158.485 177.178 157.599 176.985 156.719C176.947 156.54 176.894 156.361 176.831 156.105C176.639 156.292 176.487 156.43 176.35 156.576C172.978 160.135 169.609 163.702 166.223 167.247H166.22Z" fill="#B4BD57"/>
</svg>
