<svg width="719" height="960" viewBox="0 0 719 960" fill="none" xmlns="http://www.w3.org/2000/svg">
<rect width="720" height="960" transform="translate(-1)" fill="#2D2C2A"/>
<path d="M719 960H-1V0H719V960ZM585.545 90.4727C564.654 90.4727 545.465 97.7546 530.375 109.918C519.397 118.767 500.661 118.767 489.684 109.918C474.594 97.7546 455.405 90.4727 434.515 90.4727C413.624 90.4727 394.435 97.7547 379.346 109.918C368.368 118.767 349.632 118.767 338.654 109.918C323.565 97.7546 304.375 90.4727 283.484 90.4727C262.594 90.4728 243.405 97.7547 228.315 109.918C217.338 118.767 198.601 118.767 187.624 109.918C172.535 97.7547 153.346 90.4727 132.455 90.4727C83.8665 90.4727 44.4775 129.862 44.4775 178.45C44.4776 199.341 51.7595 218.53 63.9229 233.619C72.7716 244.597 72.7715 263.333 63.9229 274.311C51.7594 289.4 44.4775 308.59 44.4775 329.48C44.4776 350.371 51.7593 369.561 63.9229 384.65C72.772 395.628 72.772 414.366 63.9229 425.344C51.7593 440.433 44.4776 459.623 44.4775 480.514C44.4775 508.983 58.0009 534.293 78.9736 550.373C82.5893 553.145 82.5894 558.91 78.9736 561.683C58.0005 577.763 44.4775 603.074 44.4775 631.544C44.4776 650.144 50.2498 667.396 60.1006 681.606C61.2736 683.299 62.5042 684.948 63.79 686.551C72.4971 697.405 72.4976 715.683 63.791 726.537C51.7068 741.602 44.4775 760.729 44.4775 781.544C44.4776 830.133 83.8665 869.521 132.455 869.521C153.346 869.521 172.536 862.24 187.626 850.075C198.603 841.226 217.339 841.225 228.316 850.073C243.406 862.236 262.595 869.517 283.484 869.518C304.375 869.518 323.565 862.236 338.654 850.072C349.632 841.223 368.368 841.223 379.346 850.072C394.435 862.236 413.624 869.518 434.515 869.518C455.404 869.518 474.593 862.236 489.683 850.073C500.66 841.225 519.396 841.225 530.373 850.074C545.463 862.239 564.653 869.521 585.545 869.521C634.133 869.521 673.522 830.132 673.522 781.544C673.522 760.729 666.293 741.602 654.209 726.537C645.502 715.683 645.502 697.404 654.209 686.55C655.495 684.947 656.726 683.298 657.898 681.606C667.749 667.396 673.522 650.144 673.522 631.544C673.522 611.805 667.021 593.584 656.044 578.905C655.403 578.049 654.748 577.204 654.077 576.372C645.228 565.395 645.228 546.66 654.077 535.683C666.241 520.593 673.522 501.404 673.522 480.514C673.522 459.623 666.24 440.433 654.076 425.344C645.227 414.366 645.227 395.628 654.076 384.65C666.24 369.561 673.522 350.371 673.522 329.48C673.522 308.59 666.241 289.4 654.077 274.311C645.228 263.333 645.228 244.597 654.077 233.619C666.241 218.53 673.522 199.341 673.522 178.45C673.522 129.862 634.133 90.4729 585.545 90.4727Z" fill="url(#paint0_linear_4241_283577)"/>
<defs>
<linearGradient id="paint0_linear_4241_283577" x1="359" y1="0" x2="359" y2="960" gradientUnits="userSpaceOnUse">
<stop stop-color="#968F86"/>
<stop offset="1" stop-color="#797272"/>
</linearGradient>
</defs>
</svg>
