<svg width="1220" height="89" viewBox="0 0 1220 89" fill="none" xmlns="http://www.w3.org/2000/svg">
<path fill-rule="evenodd" clip-rule="evenodd" d="M393.365 79.554C387.548 75.0855 377.953 75.0855 372.136 79.554C364.658 85.2988 355.297 88.714 345.138 88.714C335.235 88.714 326.089 85.4683 318.707 79.9826C313.22 75.9047 304.718 75.9047 299.231 79.9826C291.849 85.4683 282.703 88.714 272.8 88.714C262.526 88.714 253.068 85.2212 245.549 79.3583C239.324 74.5051 228.223 74.5051 221.999 79.3583C214.479 85.2212 205.021 88.714 194.748 88.714C184.593 88.714 175.235 85.3016 167.758 79.561C161.949 75.1006 152.38 75.1006 146.571 79.561C139.094 85.3016 129.736 88.714 119.582 88.714C109.423 88.714 100.062 85.2988 92.5834 79.554C86.7666 75.0855 77.1721 75.0855 71.3553 79.554C63.8771 85.2989 54.5159 88.714 44.357 88.714C19.8593 88.714 0 68.8547 0 44.357C0 19.8593 19.8593 3.2743e-05 44.357 3.2743e-05C54.5159 3.2743e-05 63.8771 3.41515 71.3553 9.15996C77.172 13.6285 86.7666 13.6285 92.5834 9.15994C100.062 3.41513 109.423 0 119.582 0C129.736 0 139.094 3.41236 146.571 9.15295C152.38 13.6134 161.949 13.6134 167.758 9.15295C175.235 3.41236 184.593 0 194.748 0C205.021 0 214.479 3.49277 221.999 9.35565C228.223 14.2089 239.324 14.2089 245.549 9.35565C253.068 3.49277 262.526 0 272.8 0C282.703 0 291.849 3.24567 299.231 8.73135C304.718 12.8093 313.22 12.8093 318.707 8.73135C326.089 3.24567 335.235 0 345.138 0C355.297 0 364.658 3.41512 372.136 9.15992C377.953 13.6284 387.548 13.6284 393.365 9.15992C400.843 3.41512 410.204 0 420.363 0C430.518 0 439.875 3.41235 447.352 9.15295C453.161 13.6134 462.73 13.6134 468.54 9.15295C476.016 3.41236 485.374 0 495.529 0C505.803 0 515.26 3.49276 522.78 9.35561C529.005 14.2089 540.105 14.2089 546.33 9.35563C553.849 3.49276 563.307 0 573.581 0C583.485 0 592.63 3.24565 600.012 8.7313C605.5 12.8092 614.001 12.8092 619.488 8.7313C626.87 3.24565 636.016 0 645.919 0C656.078 0 665.44 3.41512 672.918 9.15992C678.734 13.6284 688.329 13.6284 694.146 9.15992C701.624 3.41512 710.985 0 721.144 0C731.299 0 740.657 3.41234 748.133 9.15291C753.943 13.6133 763.511 13.6133 769.321 9.15291C776.797 3.41234 786.155 0 796.31 0C806.584 0 816.042 3.49278 823.561 9.35567C829.786 14.2089 840.887 14.2089 847.111 9.35566C854.631 3.49278 864.089 0 874.362 0C884.266 0 893.411 3.24566 900.793 8.73132C906.281 12.8093 914.782 12.8093 920.27 8.73133C927.651 3.24566 936.797 0 946.701 0C956.86 0 966.221 3.41514 973.699 9.15997C979.516 13.6285 989.11 13.6285 994.927 9.15996C1002.41 3.41514 1011.77 0 1021.93 0C1032.08 0 1041.44 3.41235 1048.91 9.15292C1054.72 13.6134 1064.29 13.6134 1070.1 9.15293C1077.58 3.41235 1086.94 0 1097.09 0C1107.36 0 1116.82 3.49278 1124.34 9.35568C1130.57 14.2089 1141.67 14.2088 1147.89 9.35564C1155.41 3.49277 1164.87 0 1175.14 0C1199.64 0 1219.5 19.8593 1219.5 44.357C1219.5 68.8547 1199.64 88.714 1175.14 88.714C1164.87 88.714 1155.41 85.2212 1147.89 79.3583C1141.67 74.5051 1130.57 74.5051 1124.34 79.3583C1116.82 85.2212 1107.36 88.714 1097.09 88.714C1086.94 88.714 1077.58 85.3016 1070.1 79.561C1064.29 75.1006 1054.72 75.1006 1048.91 79.561C1041.44 85.3016 1032.08 88.714 1021.93 88.714C1011.77 88.714 1002.41 85.2988 994.927 79.554C989.11 75.0855 979.516 75.0855 973.699 79.554C966.221 85.2988 956.86 88.714 946.701 88.714C936.797 88.714 927.651 85.4683 920.27 79.9826C914.782 75.9047 906.281 75.9047 900.793 79.9826C893.411 85.4683 884.266 88.714 874.362 88.714C864.089 88.714 854.631 85.2212 847.111 79.3583C840.887 74.5051 829.786 74.5051 823.561 79.3583C816.042 85.2212 806.584 88.714 796.31 88.714C786.155 88.714 776.797 85.3016 769.321 79.561C763.511 75.1006 753.943 75.1006 748.133 79.561C740.657 85.3016 731.299 88.714 721.144 88.714C710.985 88.714 701.624 85.2988 694.146 79.554C688.329 75.0855 678.734 75.0855 672.918 79.554C665.44 85.2988 656.078 88.714 645.919 88.714C636.016 88.714 626.87 85.4683 619.488 79.9827C614.001 75.9047 605.5 75.9047 600.012 79.9827C592.63 85.4683 583.485 88.714 573.581 88.714C563.307 88.714 553.849 85.2212 546.33 79.3583C540.105 74.5051 529.005 74.5051 522.78 79.3584C515.26 85.2212 505.803 88.714 495.529 88.714C485.374 88.714 476.016 85.3016 468.54 79.561C462.73 75.1006 453.161 75.1006 447.352 79.561C439.875 85.3016 430.518 88.714 420.363 88.714C410.204 88.714 400.843 85.2988 393.365 79.554Z" fill="url(#paint0_linear_37_11509)"/>
<defs>
<linearGradient id="paint0_linear_37_11509" x1="357.705" y1="-108.622" x2="936.335" y2="731.589" gradientUnits="userSpaceOnUse">
<stop stop-color="#FFF2E2"/>
<stop offset="1" stop-color="#C4B7BA"/>
</linearGradient>
</defs>
</svg>
