<svg width="2160" height="4786" viewBox="0 0 2160 4786" fill="none" xmlns="http://www.w3.org/2000/svg">
  <path fillRule="evenodd" clipRule="evenodd"
    d="M2160 4707C2159.77 4750.19 2124.68 4785.13 2081.43 4785.13C2063.44 4785.13 2046.86 4779.08 2033.61 4768.91C2023.31 4760.99 2006.32 4760.99 1996.01 4768.91C1982.77 4779.08 1966.19 4785.13 1948.19 4785.13C1930.21 4785.13 1913.63 4779.09 1900.39 4768.92C1890.1 4761.02 1873.15 4761.02 1862.86 4768.92C1849.62 4779.09 1833.05 4785.13 1815.06 4785.13C1796.86 4785.13 1780.11 4778.95 1766.79 4768.56C1755.77 4759.96 1736.11 4759.96 1725.08 4768.56C1711.76 4778.95 1695.01 4785.13 1676.81 4785.13C1659.27 4785.13 1643.07 4779.38 1630 4769.67C1620.28 4762.44 1605.22 4762.44 1595.5 4769.67C1582.43 4779.38 1566.23 4785.13 1548.69 4785.13C1530.69 4785.13 1514.11 4779.08 1500.87 4768.91C1490.56 4760.99 1473.57 4760.99 1463.27 4768.91C1450.02 4779.08 1433.44 4785.13 1415.45 4785.13C1397.46 4785.13 1380.88 4779.09 1367.64 4768.92C1357.35 4761.02 1340.4 4761.02 1330.11 4768.92C1316.87 4779.09 1300.3 4785.13 1282.31 4785.13C1264.11 4785.13 1247.36 4778.95 1234.04 4768.56C1223.02 4759.96 1203.36 4759.96 1192.33 4768.56C1179.01 4778.95 1162.26 4785.13 1144.06 4785.13C1126.52 4785.13 1110.32 4779.38 1097.25 4769.67C1087.53 4762.44 1072.47 4762.44 1062.75 4769.67C1049.68 4779.38 1033.48 4785.13 1015.94 4785.13C997.943 4785.13 981.362 4779.08 968.116 4768.91C957.814 4760.99 940.819 4760.99 930.516 4768.91C917.271 4779.08 900.69 4785.13 882.697 4785.13C864.71 4785.13 848.136 4779.09 834.893 4768.92C824.603 4761.02 807.655 4761.02 797.365 4768.92C784.123 4779.09 767.548 4785.13 749.562 4785.13C731.365 4785.13 714.613 4778.95 701.294 4768.56C690.269 4759.96 670.608 4759.96 659.583 4768.56C646.264 4778.95 629.512 4785.13 611.315 4785.13C593.773 4785.13 577.574 4779.38 564.5 4769.67C554.78 4762.44 539.722 4762.44 530.002 4769.67C516.927 4779.38 500.729 4785.13 483.187 4785.13C465.193 4785.13 448.613 4779.08 435.367 4768.91C425.064 4760.99 408.07 4760.99 397.768 4768.91C384.522 4779.08 367.941 4785.13 349.948 4785.13C331.962 4785.13 315.387 4779.09 302.144 4768.92C291.854 4761.02 274.906 4761.02 264.617 4768.92C251.374 4779.09 234.799 4785.13 216.813 4785.13C198.616 4785.13 181.864 4778.95 168.545 4768.56C157.52 4759.96 137.859 4759.96 126.834 4768.56C113.515 4778.95 96.7629 4785.13 78.5659 4785.13C35.3201 4785.13 0.23484 4750.19 0.00118078 4707H0V0H2160V4706.57C2160 4706.71 2160 4706.86 2160 4707Z"
    fill="black" />
</svg>
