<svg width="1588" height="36" viewBox="0 0 1588 36" fill="none" xmlns="http://www.w3.org/2000/svg">
<g clip-path="url(#clip0_5_609)">
<rect width="1588" height="36" fill="#F7CF74"/>
<rect x="8.69244" y="-25" width="12" height="120.77" transform="rotate(50 8.69244 -25)" fill="#453D39"/>
<rect x="43.9208" y="-25" width="12" height="120.77" transform="rotate(50 43.9208 -25)" fill="#453D39"/>
<rect x="79.1491" y="-25" width="12" height="120.77" transform="rotate(50 79.1491 -25)" fill="#453D39"/>
<rect x="114.377" y="-25" width="12" height="120.77" transform="rotate(50 114.377 -25)" fill="#453D39"/>
<rect x="149.606" y="-25" width="12" height="120.77" transform="rotate(50 149.606 -25)" fill="#453D39"/>
<rect x="184.834" y="-25" width="12" height="120.77" transform="rotate(50 184.834 -25)" fill="#453D39"/>
<rect x="220.062" y="-25" width="12" height="120.77" transform="rotate(50 220.062 -25)" fill="#453D39"/>
<rect x="255.291" y="-25" width="12" height="120.77" transform="rotate(50 255.291 -25)" fill="#453D39"/>
<rect x="290.519" y="-25" width="12" height="120.77" transform="rotate(50 290.519 -25)" fill="#453D39"/>
<rect x="325.747" y="-25" width="12" height="120.77" transform="rotate(50 325.747 -25)" fill="#453D39"/>
<rect x="360.976" y="-25" width="12" height="120.77" transform="rotate(50 360.976 -25)" fill="#453D39"/>
<rect x="396.204" y="-25" width="12" height="120.77" transform="rotate(50 396.204 -25)" fill="#453D39"/>
<rect x="431.432" y="-25" width="12" height="120.77" transform="rotate(50 431.432 -25)" fill="#453D39"/>
<rect x="466.661" y="-25" width="12" height="120.77" transform="rotate(50 466.661 -25)" fill="#453D39"/>
<rect x="501.889" y="-25" width="12" height="120.77" transform="rotate(50 501.889 -25)" fill="#453D39"/>
<rect x="537.117" y="-25" width="12" height="120.77" transform="rotate(50 537.117 -25)" fill="#453D39"/>
<rect x="572.346" y="-25" width="12" height="120.77" transform="rotate(50 572.346 -25)" fill="#453D39"/>
<rect x="607.574" y="-25" width="12" height="120.77" transform="rotate(50 607.574 -25)" fill="#453D39"/>
<rect x="642.802" y="-25" width="12" height="120.77" transform="rotate(50 642.802 -25)" fill="#453D39"/>
<rect x="678.031" y="-25" width="12" height="120.77" transform="rotate(50 678.031 -25)" fill="#453D39"/>
<rect x="713.259" y="-25" width="12" height="120.77" transform="rotate(50 713.259 -25)" fill="#453D39"/>
<rect x="748.487" y="-25" width="12" height="120.77" transform="rotate(50 748.487 -25)" fill="#453D39"/>
<rect x="783.716" y="-25" width="12" height="120.77" transform="rotate(50 783.716 -25)" fill="#453D39"/>
<rect x="818.944" y="-25" width="12" height="120.77" transform="rotate(50 818.944 -25)" fill="#453D39"/>
<rect x="854.172" y="-25" width="12" height="120.77" transform="rotate(50 854.172 -25)" fill="#453D39"/>
<rect x="889.401" y="-25" width="12" height="120.77" transform="rotate(50 889.401 -25)" fill="#453D39"/>
<rect x="924.629" y="-25" width="12" height="120.77" transform="rotate(50 924.629 -25)" fill="#453D39"/>
<rect x="959.857" y="-25" width="12" height="120.77" transform="rotate(50 959.857 -25)" fill="#453D39"/>
<rect x="995.086" y="-25" width="12" height="120.77" transform="rotate(50 995.086 -25)" fill="#453D39"/>
<rect x="1030.31" y="-25" width="12" height="120.77" transform="rotate(50 1030.31 -25)" fill="#453D39"/>
<rect x="1065.54" y="-25" width="12" height="120.77" transform="rotate(50 1065.54 -25)" fill="#453D39"/>
<rect x="1100.77" y="-25" width="12" height="120.77" transform="rotate(50 1100.77 -25)" fill="#453D39"/>
<rect x="1136" y="-25" width="12" height="120.77" transform="rotate(50 1136 -25)" fill="#453D39"/>
<rect x="1171.23" y="-25" width="12" height="120.77" transform="rotate(50 1171.23 -25)" fill="#453D39"/>
<rect x="1206.46" y="-25" width="12" height="120.77" transform="rotate(50 1206.46 -25)" fill="#453D39"/>
<rect x="1241.68" y="-25" width="12" height="120.77" transform="rotate(50 1241.68 -25)" fill="#453D39"/>
<rect x="1276.91" y="-25" width="12" height="120.77" transform="rotate(50 1276.91 -25)" fill="#453D39"/>
<rect x="1312.14" y="-25" width="12" height="120.77" transform="rotate(50 1312.14 -25)" fill="#453D39"/>
<rect x="1347.37" y="-25" width="12" height="120.77" transform="rotate(50 1347.37 -25)" fill="#453D39"/>
<rect x="1382.6" y="-25" width="12" height="120.77" transform="rotate(50 1382.6 -25)" fill="#453D39"/>
<rect x="1417.83" y="-25" width="12" height="120.77" transform="rotate(50 1417.83 -25)" fill="#453D39"/>
<rect x="1453.05" y="-25" width="12" height="120.77" transform="rotate(50 1453.05 -25)" fill="#453D39"/>
<rect x="1488.28" y="-25" width="12" height="120.77" transform="rotate(50 1488.28 -25)" fill="#453D39"/>
<rect x="1523.51" y="-25" width="12" height="120.77" transform="rotate(50 1523.51 -25)" fill="#453D39"/>
<rect x="1558.74" y="-25" width="12" height="120.77" transform="rotate(50 1558.74 -25)" fill="#453D39"/>
<rect x="1593.97" y="-25" width="12" height="120.77" transform="rotate(50 1593.97 -25)" fill="#453D39"/>
<rect x="1629.19" y="-25" width="12" height="120.77" transform="rotate(50 1629.19 -25)" fill="#453D39"/>
<rect x="1664.42" y="-25" width="12" height="120.77" transform="rotate(50 1664.42 -25)" fill="#453D39"/>
</g>
<defs>
<clipPath id="clip0_5_609">
<rect width="1588" height="36" fill="white"/>
</clipPath>
</defs>
</svg>
