<svg width="185" height="187" viewBox="0 0 185 187" fill="none" xmlns="http://www.w3.org/2000/svg">
<path d="M182.469 138.822C184.007 142.486 184.777 146.3 184.587 150.28C184.491 152.313 184.119 154.315 183.558 156.273C182.851 158.738 181.924 161.114 180.687 163.361C180.456 163.782 180.197 164.192 179.939 164.596C179.463 165.336 178.822 165.878 178.027 166.271C172.983 168.777 167.947 171.299 162.908 173.816C161.616 174.462 160.328 175.116 159.027 175.744C158.714 175.895 158.356 175.955 158.021 176.063C157.825 176.126 157.619 176.173 157.438 176.269C156.324 176.846 155.136 177.138 153.887 177.229C151.214 177.419 148.689 176.794 146.216 175.876C143.169 174.745 140.369 173.158 137.767 171.227C133.754 168.249 130.173 164.833 127.332 160.693C126.647 159.695 126.053 158.628 125.42 157.594C125.313 157.415 125.214 157.231 125.093 157.016C124.955 157.077 124.826 157.126 124.702 157.192C122.717 158.273 120.736 159.365 118.742 160.429C118.412 160.605 118.253 160.803 118.178 161.169C117.815 162.987 117.703 164.824 117.749 166.67C117.804 168.934 117.92 171.192 118.264 173.436C118.404 174.352 118.068 175.083 117.274 175.493C116.066 176.115 114.828 176.684 113.569 177.19C111.866 177.875 110.056 178.142 108.238 178.312C104.795 178.637 101.373 178.428 97.9767 177.831C96.7198 177.611 95.4821 177.295 94.2581 176.698C94.1949 176.97 94.1371 177.204 94.0849 177.441C93.6943 179.311 93.5018 181.206 93.3395 183.106C93.334 183.17 93.323 183.233 93.3258 183.293C93.334 184.592 92.5859 185.34 91.4252 185.612C90.0225 185.942 88.5951 186.198 87.1649 186.36C84.8298 186.621 82.4754 186.621 80.1321 186.484C73.5201 186.091 67.2437 184.46 61.4348 181.214C60.7472 180.829 60.1201 180.326 59.4903 179.839C59.0915 179.528 58.789 179.124 58.6432 178.618C58.6074 178.486 58.5112 178.359 58.4149 178.26C57.9556 177.804 57.9088 177.292 58.1234 176.701C58.9265 174.495 59.5976 172.248 60.0734 169.948C60.4062 168.337 60.5767 166.711 60.1119 165.094C59.9579 164.558 59.7488 164.013 59.4546 163.546C58.9127 162.685 58.0876 162.478 57.1552 162.88C56.5116 163.155 55.9588 163.565 55.4637 164.057C54.4406 165.077 53.676 166.274 53.1011 167.589C52.1027 169.874 51.2528 172.215 50.7165 174.66C50.6615 174.905 50.601 175.149 50.5102 175.383C50.3012 175.917 49.9052 176.214 49.3303 176.288C49.1103 176.318 48.904 176.417 48.6867 176.47C48.3457 176.552 47.9991 176.679 47.6553 176.681C45.51 176.692 43.4004 176.398 41.3129 175.895C37.5091 174.979 34.0161 173.34 30.6661 171.359C28.8343 170.276 27.1428 169.008 25.6851 167.457C25.014 166.744 24.3759 165.974 23.8643 165.143C23.4298 164.442 23.185 163.623 22.8852 162.844C22.7202 162.418 22.9099 162.027 23.1135 161.65C24.4777 159.123 25.7099 156.535 26.8265 153.889C27.7672 151.661 28.507 149.373 28.8838 146.983C29.0296 146.056 29.0543 145.107 29.1011 144.169C29.1094 143.987 28.9911 143.773 28.8756 143.611C23.8203 136.468 20.3411 128.596 18.0142 120.188C16.8151 115.856 16.0009 111.453 15.6709 106.97C15.1758 100.272 15.4123 93.611 16.8893 87.0321C17.1644 85.8054 17.4696 84.587 17.7804 83.2805C17.5879 83.165 17.3899 83.0357 17.1809 82.9202C15.9212 82.2188 14.6395 81.5478 13.3991 80.8079C11.8671 79.892 10.4424 78.8221 9.17168 77.5624C8.2503 76.6465 7.34541 75.7141 6.45978 74.7653C4.89481 73.093 3.8414 71.0907 2.82925 69.0609C0.936975 65.2626 0.0650978 61.2223 0.00183856 56.9977C-0.0256655 54.9761 0.257626 52.9876 0.703191 51.0183C0.82971 50.4599 1.14051 50.0474 1.59157 49.6981C5.02958 47.0192 8.45933 44.3321 11.8891 41.6422C12.2356 41.3726 12.5767 41.0921 12.904 40.8005C15.2226 38.7377 17.8712 37.5881 21.0342 37.7861C23.7571 37.9566 26.381 38.5204 28.8728 39.6426C29.3074 39.8379 29.7337 40.0552 30.2508 40.3055C30.1985 40.0359 30.1683 39.8571 30.127 39.6811C29.1011 35.3822 28.6225 31.0146 28.639 26.6002C28.6473 24.0423 28.8288 21.4927 29.4587 18.9953C30.039 16.6933 31.0401 14.5837 32.4428 12.6722C33.5733 11.1292 35.042 10.051 36.871 9.41844C44.7812 6.67353 52.6803 3.90663 60.5767 1.12322C61.6439 0.746416 62.722 0.757418 63.8002 0.83993C68.4401 1.18923 72.497 3.00175 76.1165 5.85942C77.0736 6.61578 77.907 7.50416 78.6166 8.4998C79.0402 9.09389 79.0979 9.67147 78.7266 10.1308C78.3498 10.5984 77.951 11.0439 77.3569 11.2915C75.3464 12.1303 73.3551 13.005 71.3555 13.8658C67.3757 15.5766 63.3959 17.2928 59.4078 18.9926C58.9815 19.1741 58.7477 19.3996 58.5579 19.8645C57.5568 22.2986 57.7988 24.7464 58.3324 27.2108C58.3351 27.23 58.3544 27.2465 58.3956 27.3043C58.5277 27.2576 58.6817 27.219 58.822 27.153C64.5896 24.4246 70.6404 22.5599 76.8646 21.2479C80.7647 20.4256 84.7253 19.991 88.7161 19.9745C91.4005 19.9635 94.0766 20.1148 96.7335 20.5108C96.8353 20.5273 96.9398 20.5246 97.0746 20.5301C97.2011 20.3128 97.3331 20.101 97.4541 19.8837C98.9751 17.1911 100.771 14.6965 102.85 12.4054C104.396 10.7001 106.156 9.25616 108.156 8.11475C109.935 7.0971 111.852 6.54151 113.915 6.59377C115.838 6.64328 117.543 7.27862 119.081 8.4558C121.528 10.3261 124.02 12.1358 126.496 13.9676C127.808 14.9412 129.106 15.9369 130.448 16.8665C131.287 17.4441 131.501 18.1537 131.367 19.1356C130.935 22.3453 130.236 25.4808 129.076 28.5117C129.045 28.5887 129.04 28.6713 129.012 28.7978C133.083 31.0916 136.686 34.0125 140.135 37.1287C143.815 35.6188 147.674 35.0247 151.574 34.5956C154.225 34.3041 156.885 34.2628 159.544 34.3948C162.889 34.5599 166.165 35.0907 169.281 36.3889C170.755 37.0022 172.18 37.7146 173.451 38.6882C175.291 40.0992 176.583 41.8732 177.012 44.2028C177.312 45.831 177.144 47.4153 176.616 48.9692C176.014 50.7295 175.106 52.3275 174.014 53.8264C171.478 57.3057 168.412 60.2761 165.122 63.021C163.194 64.63 161.214 66.1813 159.228 67.782C162.754 79.6527 164.187 91.7353 162.034 104.137C162.188 104.222 162.347 104.307 162.507 104.398C163.395 104.907 164.319 105.366 165.166 105.941C166.564 106.884 167.642 108.125 168.31 109.698C169.394 112.248 169.234 114.676 167.598 116.959C167.391 117.248 167.16 117.52 166.913 117.837C167.061 117.925 167.193 118.018 167.336 118.09C168.679 118.741 169.96 119.487 171.168 120.364C172.339 121.214 173.291 122.254 173.981 123.533C174.977 125.384 174.545 127.235 172.815 128.439C172.067 128.959 171.228 129.286 170.365 129.551C167.851 130.315 165.274 130.752 162.672 131.063C161.739 131.173 160.804 131.253 159.847 131.349C160.892 137.034 158.953 141.683 155.017 145.687C156.106 147.854 157.784 149.367 159.831 150.569C160.823 149.882 161.803 149.205 162.782 148.526C168.01 144.892 173.241 141.259 178.467 137.617C178.99 137.252 179.523 136.963 180.159 136.842C180.857 136.707 181.347 136.836 181.737 137.439C182.021 137.876 182.266 138.346 182.466 138.825L182.469 138.822ZM181.958 150.929C182.31 147.183 181.616 143.591 180.222 140.118C180.17 139.988 180.093 139.87 180.002 139.691C171.875 145.338 163.78 150.962 155.664 156.604C155.837 156.837 155.969 157.024 156.109 157.206C157.11 158.501 158.046 159.841 158.788 161.301C160.194 164.065 161.098 166.959 160.983 170.1C160.961 170.699 160.865 171.296 160.793 171.967C161.024 171.863 161.211 171.788 161.393 171.698C166.599 169.099 171.806 166.499 177.004 163.887C177.271 163.752 177.538 163.535 177.697 163.287C178.129 162.621 178.536 161.934 178.894 161.227C180.527 157.981 181.616 154.56 181.958 150.932V150.929ZM174.226 48.0093C174.578 46.9367 174.683 45.8448 174.493 44.7254C174.193 42.9624 173.167 41.6807 171.778 40.6493C170.612 39.7801 169.303 39.1723 167.958 38.6332C164.897 37.4093 161.682 37.0462 158.428 36.9142C155.174 36.7822 151.94 37.049 148.727 37.5441C146.722 37.8549 144.728 38.2427 142.795 38.8835C142.607 38.9468 142.426 39.0293 142.178 39.1283C144.439 41.4496 146.546 43.7985 148.433 46.4086C148.661 46.3151 148.834 46.2463 149.005 46.1693C151.128 45.2122 153.32 44.4558 155.609 43.9938C157.355 43.639 159.11 43.3474 160.903 43.4272C162.025 43.4767 163.101 43.716 164.08 44.299C165.56 45.1792 166.338 46.8267 166.079 48.5209C165.862 49.9484 165.381 51.2768 164.619 52.5007C163.599 54.1427 162.452 55.6857 161.093 57.0664C160.122 58.0511 159.148 59.033 158.18 60.0176C157.726 60.4769 157.281 60.939 156.822 61.4093C157.306 62.6442 157.792 63.8847 158.299 65.1746C158.513 65.0206 158.706 64.8996 158.882 64.7593C160.735 63.2548 162.625 61.7916 164.432 60.2349C167.103 57.9355 169.605 55.4657 171.715 52.6218C172.768 51.2026 173.671 49.7008 174.229 48.0093H174.226ZM171.335 126.313C172.004 125.912 172.086 125.455 171.723 124.765C171.308 123.975 170.755 123.293 170.048 122.746C168.481 121.536 166.764 120.584 164.935 119.833C164.597 119.693 164.355 119.74 164.063 119.905C163.607 120.161 163.136 120.394 162.663 120.614C158.865 122.391 154.819 123.128 150.674 123.359C147.261 123.549 143.845 123.513 140.451 123.016C137.503 122.581 134.596 121.962 131.823 120.851C129.788 120.034 127.898 118.964 126.347 117.372C125.398 116.401 124.636 115.303 124.205 114.008C123.599 112.196 123.839 110.485 124.975 108.942C125.357 108.425 125.822 107.952 126.309 107.531C128.055 106.026 130.016 104.89 132.205 104.131C135.965 102.828 139.802 101.931 143.787 101.725C146.029 101.606 148.268 101.615 150.509 101.749C152.855 101.892 155.18 102.173 157.468 102.723C158.156 102.888 158.84 103.061 159.572 103.24C159.646 102.753 159.715 102.3 159.784 101.846C160.158 99.3786 160.405 96.9005 160.474 94.4031C160.601 89.6945 160.194 85.027 159.5 80.3761C158.472 73.4753 156.503 66.8551 153.576 60.5182C151.879 56.8436 150.003 53.2626 147.74 49.9016C143.105 43.0174 137.233 37.3653 130.426 32.6621C129.656 32.1313 128.831 31.6747 128.022 31.1769C126.947 33.3387 125.904 35.4345 124.832 37.5936C124.884 37.6403 124.942 37.7008 125.008 37.7503C126.793 39.087 128.374 40.641 129.81 42.3463C130.676 43.3749 131.419 44.4916 132.087 45.655C132.304 46.0345 132.45 46.4361 132.307 46.8542C132.043 47.627 131.661 48.2706 130.737 48.4687C129.367 48.7657 128.019 49.1645 126.663 49.5166C124.394 50.1079 122.12 50.6772 119.859 51.2988C119.015 51.5299 118.341 51.3896 117.763 50.7295C117.461 50.3829 117.128 50.0611 116.817 49.7228C114.168 46.8487 111.324 44.1863 108.123 41.9365C102.443 37.9511 96.2467 35.0797 89.5192 33.3497C87.0988 32.7281 84.6675 32.2055 82.1701 32.057C81.4605 32.0157 80.7454 32.0323 80.0358 31.98C79.3015 31.925 78.8174 31.3832 78.8229 30.7038C78.8284 30.0437 79.2877 29.5541 79.9973 29.4551C80.2036 29.4249 80.4126 29.4056 80.6189 29.3644C85.1791 28.4705 89.7365 27.5738 94.3242 26.6745C94.8027 25.4643 95.2895 24.2321 95.7901 22.9669C92.0936 22.4966 88.4575 22.3893 84.8133 22.7111C80.8032 23.0659 76.8536 23.77 72.9535 24.7987C65.0461 26.8807 57.6503 30.074 50.876 34.6781C46.9127 37.3735 43.2574 40.4402 39.8057 43.7517C39.0081 44.5136 38.2929 45.3607 37.5228 46.1886C37.6769 46.3756 37.8171 46.5571 37.9629 46.7304C41.852 51.3566 43.8845 56.6979 44.0688 62.735C44.1816 66.4123 43.2657 69.8255 41.3101 72.9555C40.298 74.5755 39.0246 75.9562 37.4541 77.0288C35.0172 78.6956 32.5336 80.2963 30.0692 81.9246C28.496 82.9642 26.909 83.9846 25.3578 85.0545C24.6977 85.5111 24.0569 85.6569 23.295 85.3846C22.4286 85.0738 21.5485 84.807 20.6711 84.5265C20.5198 84.4769 20.3658 84.4384 20.1898 84.3917C20.1458 84.5319 20.1073 84.6282 20.0825 84.7272C18.9796 88.9986 18.2755 93.3305 18.0885 97.7449C17.863 103.169 18.1462 108.559 19.1941 113.884C20.9957 123.032 24.2109 131.644 29.2441 139.529C30.8559 142.057 32.5941 144.496 34.7009 146.65C34.899 146.851 35.0695 147.117 35.1547 147.384C35.3968 148.132 34.8467 148.894 34.0601 148.952C33.6365 148.985 33.2735 148.834 32.9792 148.542C32.5914 148.16 32.2228 147.758 31.8405 147.37C31.7497 147.277 31.6397 147.205 31.5077 147.098C31.4554 147.346 31.4087 147.527 31.3757 147.711C31.0099 149.76 30.4378 151.749 29.6842 153.685C28.573 156.537 27.2556 159.299 25.8364 162.008C25.5503 162.553 25.6026 162.993 25.8584 163.48C26.2819 164.285 26.854 164.976 27.4784 165.63C29.2386 167.47 31.3289 168.854 33.5485 170.053C37.2808 172.066 41.1781 173.598 45.4467 174C46.3571 174.085 47.2703 174.176 48.1889 174.071C48.2412 173.909 48.2879 173.794 48.3154 173.673C48.838 171.31 49.6851 169.057 50.6203 166.835C51.3821 165.022 52.4273 163.383 53.8685 162.027C54.6854 161.257 55.604 160.633 56.6931 160.319C58.4754 159.81 60.0019 160.242 61.2396 161.631C61.7924 162.25 62.1527 162.979 62.414 163.763C62.9751 165.446 63.0658 167.171 62.8485 168.917C62.5763 171.087 61.9629 173.177 61.3248 175.262C61.1158 175.939 60.893 176.613 60.6867 177.265C61.2368 178.021 61.6604 178.453 62.5928 178.918C64.2045 179.721 65.8052 180.562 67.4802 181.203C73.0085 183.318 78.7541 184.196 84.6675 183.954C86.447 183.882 88.221 183.722 89.9675 183.354C90.7651 183.186 90.7679 183.192 90.8256 182.405C90.9797 180.356 91.2492 178.323 91.6948 176.313C92.2916 173.615 93.1607 171.027 94.7367 168.722C94.7917 168.642 94.822 168.546 94.8907 168.394C94.602 168.422 94.3737 168.466 94.1481 168.458C93.7961 168.447 93.4275 168.452 93.0947 168.359C92.4649 168.183 92.1073 167.575 92.2008 166.948C92.2889 166.351 92.7757 165.881 93.4248 165.9C94.3874 165.927 95.2978 165.683 96.2027 165.435C100.909 164.148 105.576 162.753 110.183 161.142C115.552 159.263 120.615 156.802 125.398 153.743C125.615 153.603 125.827 153.452 126.058 153.292C124.048 152.912 122.109 152.591 120.189 152.175C115.131 151.075 110.299 149.329 105.672 147.016C105.208 146.782 104.751 146.51 104.341 146.193C104.105 146.012 103.907 145.731 103.799 145.451C103.607 144.956 103.799 144.414 104.215 144.103C104.663 143.767 105.152 143.756 105.634 144.012C106.077 144.249 106.484 144.551 106.935 144.774C112.086 147.326 117.491 149.131 123.148 150.168C126.35 150.753 129.576 151.072 132.83 151.127C134.992 151.163 137.142 151.039 139.285 150.734C142.09 150.333 144.731 149.406 147.253 148.141C150.749 146.386 153.659 143.963 155.763 140.621C157.13 138.454 157.649 136.074 157.559 133.547C157.534 132.868 157.454 132.183 157.171 131.523C155.328 131.586 153.516 131.646 151.753 131.704C151.656 132.54 151.621 133.316 151.475 134.072C151.117 135.926 150.21 137.527 149.01 138.954C147.698 140.514 146.057 141.663 144.269 142.629C141.378 144.191 138.254 144.78 135.014 144.865C131.947 144.947 128.899 144.697 125.874 144.216C120.665 143.391 115.7 141.782 110.978 139.446C108.236 138.091 105.524 136.666 103.431 134.292C102.853 134.589 102.278 134.884 101.703 135.178C96.354 137.904 90.6771 139.218 84.6757 139.072C83.5288 139.042 82.3792 138.899 81.2432 138.72C80.5474 138.61 80.1733 137.983 80.2613 137.329C80.3439 136.715 80.8609 136.267 81.532 136.24C81.6971 136.234 81.8648 136.264 82.0299 136.284C82.4892 136.339 82.943 136.424 83.4023 136.446C86.4718 136.594 89.5275 136.468 92.5254 135.775C98.0234 134.504 102.966 132.073 107.325 128.489C108.723 127.339 109.96 126.03 110.97 124.52C112.067 122.878 112.898 121.112 113.06 119.127C113.351 115.548 111.954 112.647 109.201 110.43C108.216 109.635 107.075 109.008 105.934 108.444C103.378 107.179 100.617 106.697 97.7897 106.565C95.4381 106.453 93.0947 106.598 90.7706 106.948C88.6996 107.259 86.6395 107.652 84.684 108.438C84.2604 108.609 83.8534 108.832 83.4683 109.077C82.8577 109.464 82.1976 109.448 81.7466 108.986C81.2817 108.507 81.2487 107.756 81.7466 107.223C82.0381 106.909 82.4149 106.64 82.8 106.455C83.4408 106.147 84.1064 105.881 84.783 105.672C89.5632 104.197 94.4562 103.702 99.4344 104.123C103.172 104.439 106.632 105.575 109.781 107.66C111.756 108.969 113.261 110.661 114.336 112.751C115.599 115.204 115.984 117.795 115.439 120.499C115.246 121.456 114.903 122.386 114.622 123.357C114.699 123.392 114.806 123.453 114.925 123.491C117.942 124.509 120.992 125.4 124.086 126.159C127.997 127.116 131.972 127.713 135.965 128.195C140.358 128.725 144.761 129.055 149.189 129.086C154.137 129.121 159.077 128.987 163.986 128.294C165.936 128.019 167.873 127.658 169.746 127.037C170.299 126.855 170.843 126.613 171.341 126.313H171.335ZM165.021 116.032C166.563 114.498 166.803 112.515 165.901 110.6C165.337 109.401 164.446 108.513 163.354 107.809C161.739 106.766 159.971 106.065 158.131 105.545C154.492 104.519 150.762 104.241 147.003 104.206C146.708 104.206 146.417 104.2 146.123 104.206C145.746 104.217 145.369 104.244 144.992 104.25C140.63 104.335 136.447 105.297 132.376 106.813C130.528 107.501 128.897 108.562 127.489 109.94C126.344 111.06 126.168 112.289 126.861 113.727C127.384 114.808 128.168 115.672 129.1 116.401C130.247 117.295 131.515 117.982 132.871 118.502C136.141 119.759 139.546 120.433 143.023 120.716C147.316 121.066 151.601 120.961 155.848 120.122C158.414 119.616 160.862 118.783 163.128 117.474C163.81 117.08 164.459 116.585 165.015 116.03L165.021 116.032ZM163.453 48.6117C163.742 47.3107 163.302 46.5186 162.012 46.2106C161.31 46.0428 160.557 45.963 159.839 46.007C156.544 46.2023 153.403 47.0384 150.388 48.3696C150.259 48.4274 150.141 48.5044 149.968 48.6007C152.132 51.8847 153.953 55.3089 155.647 58.8514C155.768 58.7552 155.856 58.7002 155.928 58.6286C157.207 57.3305 158.499 56.046 159.756 54.7258C160.845 53.5844 161.737 52.2917 162.551 50.944C162.988 50.2179 163.274 49.4341 163.456 48.6144L163.453 48.6117ZM158.285 171.054C158.417 170.32 158.458 169.55 158.4 168.807C158.244 166.695 157.603 164.709 156.673 162.808C155.895 161.216 154.852 159.802 153.785 158.402C153.455 157.97 153.114 157.539 152.839 157.074C152.446 156.408 152.591 155.71 153.183 155.215C153.359 155.066 153.551 154.939 153.741 154.807C154.806 154.065 155.875 153.325 156.94 152.582C157.119 152.459 157.289 152.321 157.506 152.156C155.631 150.899 154.189 149.345 153.023 147.516C152.886 147.615 152.781 147.681 152.682 147.758C150.991 149.081 149.142 150.135 147.19 151.023C144.442 152.272 141.576 153.091 138.578 153.43C135.844 153.74 133.105 153.771 130.36 153.608C130.132 153.595 129.903 153.608 129.81 153.608C128.935 154.321 128.143 154.964 127.299 155.655C127.511 156.042 127.703 156.414 127.918 156.774C128.333 157.475 128.734 158.19 129.191 158.867C132.115 163.191 135.839 166.717 140.077 169.72C142.85 171.681 145.845 173.197 149.123 174.126C150.894 174.63 152.688 174.869 154.525 174.572C156.591 174.239 157.924 173.034 158.282 171.06L158.285 171.054ZM148.966 133.519C149.087 132.931 149.173 132.331 149.008 131.701C147.08 131.624 145.185 131.55 143.24 131.473C142.638 134.864 141.815 138.173 140.388 141.416C140.613 141.377 140.715 141.377 140.806 141.344C143.13 140.483 145.256 139.295 146.931 137.428C147.938 136.306 148.661 135.013 148.966 133.519ZM137.178 142.134C138.98 138.674 140.006 135.073 140.638 131.308C137.8 130.984 135.027 130.667 132.216 130.345C131.328 134.331 130.184 138.212 128.424 141.974C131.43 142.29 134.345 142.447 137.175 142.134H137.178ZM128.726 19.4629C128.776 19.0421 128.723 18.7836 128.358 18.5195C126.32 17.0481 124.304 15.5463 122.279 14.0556C122.133 13.9483 121.977 13.8576 121.751 13.7118C121.765 13.9786 121.776 14.1574 121.787 14.3362C121.82 14.8147 121.875 15.296 121.883 15.7774C121.911 18.162 121.528 20.4916 120.921 22.7909C120.247 25.3488 119.259 27.7966 118.275 30.2445C116.677 34.2133 114.523 37.8659 111.905 41.2461C111.858 41.3066 111.83 41.3864 111.803 41.4386C113.252 42.7231 114.677 43.9827 116.151 45.2892C116.869 44.7501 117.392 44.0653 117.89 43.3694C120.17 40.1817 122.351 36.9335 124.089 33.4047C126.273 28.9683 128.132 24.4329 128.729 19.4684L128.726 19.4629ZM125.58 141.553C127.004 139.435 129.359 132.617 129.598 129.958C127.744 129.57 125.877 129.212 124.031 128.78C122.186 128.349 120.359 127.843 118.519 127.367C117.216 131.025 115.505 134.444 113.574 137.818C117.419 139.592 121.41 140.833 125.582 141.553H125.58ZM119.174 18.2912C119.383 16.4457 119.369 14.6277 118.866 12.8124C118.258 10.6121 116.369 9.42394 114.493 9.21766C112.51 8.99762 110.714 9.54771 109.05 10.5654C107.435 11.5555 105.994 12.7602 104.718 14.1684C102.009 17.1581 99.8497 20.5081 98.1362 24.1468C96.926 26.713 96.1257 29.4249 95.3501 32.1423C95.3281 32.2193 95.3335 32.3045 95.3253 32.4201C100.422 34.2876 105.21 36.7409 109.699 39.8929C110.128 39.3263 110.546 38.8065 110.928 38.2647C113.423 34.7139 115.376 30.8908 116.864 26.812C117.879 24.0313 118.833 21.2479 119.171 18.2885L119.174 18.2912ZM115.654 173.48C115.205 169.632 114.999 165.837 115.409 161.953C115.167 162.03 114.993 162.074 114.826 162.14C110.098 163.955 105.323 165.636 100.416 166.923C99.8717 167.066 99.3161 167.19 99.0246 167.762C98.9806 167.85 98.8761 167.905 98.7936 167.974C98.0125 168.623 97.3716 169.39 96.8215 170.24C96.0569 171.42 95.4298 172.663 95.009 173.964C95.8644 174.756 96.904 175.012 97.9519 175.193C99.2694 175.422 100.601 175.592 101.929 175.735C104.715 176.035 107.49 175.931 110.252 175.444C112.144 175.108 113.902 174.39 115.651 173.483L115.654 173.48ZM116.074 126.586C115.095 126.278 114.212 125.851 113.236 125.766C111.25 128.739 108.626 130.953 105.7 132.898C106.602 134.025 109.688 136.099 111.25 136.636C113.159 133.456 114.773 130.123 116.074 126.586ZM75.7974 9.15165C75.6407 8.96462 75.5499 8.82435 75.4289 8.71708C74.8651 8.21926 74.3287 7.67743 73.7126 7.24837C70.8797 5.26258 67.8103 3.84612 64.3228 3.46381C63.0411 3.32354 61.7896 3.26578 60.5767 3.83787C60.0101 4.10466 59.3968 4.26418 58.8027 4.47046C53.3321 6.38474 47.8616 8.30177 42.3938 10.2188C42.193 10.2903 41.995 10.3728 41.7255 10.4773C43.4967 11.8003 44.6656 13.478 45.7135 15.2575C46.7669 17.0481 47.5426 18.9651 48.2797 20.9729C57.4633 17.0261 66.6028 13.1012 75.7974 9.15165ZM56.0386 28.5612C55.2932 25.9429 55.0924 23.363 55.5737 20.6813C55.3647 20.7556 55.2107 20.7969 55.0649 20.8601C54.2948 21.1874 53.5247 21.5175 52.7573 21.8475C51.2969 22.4746 49.8364 23.1099 48.3732 23.726C47.2648 24.1936 46.5854 23.8883 46.1619 22.7524C46.0876 22.5571 46.0243 22.3563 45.9528 22.1611C45.6558 21.3552 45.378 20.5438 45.0562 19.749C44.2228 17.7027 43.1969 15.7664 41.7887 14.0474C41.1974 13.3268 40.5318 12.7024 39.6929 12.2761C38.6643 11.7563 37.6521 11.7535 36.6317 12.3174C35.6361 12.8674 34.8687 13.6458 34.2361 14.5782C32.6904 16.8638 31.813 19.3859 31.4912 22.117C30.9906 26.3499 31.2217 30.5635 31.8047 34.7689C32.1651 37.368 32.7949 39.9011 33.6283 42.3848C33.664 42.4948 33.7438 42.6048 33.8345 42.6818C34.4534 43.2126 35.0777 43.738 35.7406 44.2963C41.6622 37.9236 48.4584 32.6786 56.0468 28.5557L56.0386 28.5612ZM41.6017 63.4584C41.4807 62.2317 41.4202 60.994 41.2249 59.7783C40.485 55.1439 38.5047 51.098 35.3418 47.6325C31.7827 43.7325 27.5499 41.0508 22.1893 40.4787C21.0754 40.3605 19.9175 40.344 18.8118 40.498C16.9031 40.762 15.3683 41.8704 14.1637 43.2841C12.1944 45.5917 11.1437 48.3366 10.9842 51.3841C10.8577 53.7879 11.174 56.1533 11.8093 58.4691C12.8242 62.1602 14.6917 65.4029 17.0873 68.3733C19.813 71.7536 23.2895 74.0172 27.3408 75.4446C28.7298 75.9342 30.171 76.278 31.648 76.1845C34.7367 75.9892 37.135 74.5232 38.865 71.9819C40.6088 69.4185 41.4559 66.5608 41.5989 63.4584H41.6017ZM29.7172 79.0751C29.8437 78.9899 29.9537 78.8826 30.1545 78.7176C29.7997 78.6626 29.5577 78.6296 29.3156 78.5856C29.0681 78.5443 28.8206 78.5003 28.5758 78.4426C24.673 77.5212 21.1359 75.8077 18.1627 73.1315C13.0497 68.5301 9.74102 62.8808 8.69036 56.0048C8.2503 53.1168 8.20904 50.2482 9.08642 47.4208C9.10292 47.3657 9.08642 47.2997 9.08642 47.2007C8.97915 47.2337 8.9324 47.2365 8.90489 47.2585C7.08688 48.6749 5.26611 50.0886 3.4646 51.5216C3.28857 51.6619 3.1483 51.9177 3.10154 52.1432C2.788 53.5982 2.58722 55.0751 2.57347 56.5658C2.51846 61.8549 4.05318 66.6928 6.90535 71.1045C8.45108 73.4946 10.5084 75.4556 12.7307 77.2241C14.4937 78.6241 16.4768 79.672 18.4708 80.6979C20.077 81.523 21.7245 82.2354 23.4518 82.7607C23.7681 82.8569 24.0321 82.8597 24.3292 82.6562C26.1169 81.4515 27.9212 80.2688 29.7172 79.0751Z" fill="black"/>
<path d="M180.222 140.117C181.614 143.591 182.307 147.183 181.958 150.929C181.616 154.557 180.527 157.976 178.894 161.224C178.536 161.933 178.129 162.618 177.697 163.284C177.538 163.531 177.271 163.749 177.004 163.884C171.803 166.496 166.599 169.096 161.393 171.695C161.214 171.785 161.024 171.86 160.793 171.964C160.865 171.293 160.961 170.696 160.983 170.097C161.098 166.956 160.196 164.062 158.788 161.298C158.046 159.838 157.11 158.498 156.109 157.203C155.969 157.021 155.837 156.837 155.664 156.6C163.78 150.959 171.875 145.338 180.002 139.688C180.096 139.864 180.173 139.985 180.222 140.115V140.117Z" fill="#B4BD57"/>
<path d="M174.493 44.7251C174.682 45.8445 174.581 46.9364 174.226 48.0091C173.67 49.7005 172.765 51.1995 171.712 52.6215C169.605 55.4654 167.1 57.9353 164.429 60.2346C162.622 61.7913 160.732 63.2545 158.879 64.759C158.703 64.902 158.51 65.0203 158.296 65.1743C157.79 63.8844 157.303 62.6439 156.819 61.409C157.275 60.9387 157.724 60.4766 158.177 60.0173C159.148 59.0327 160.122 58.0508 161.09 57.0661C162.449 55.6854 163.596 54.1425 164.616 52.5005C165.378 51.2738 165.862 49.9453 166.076 48.5206C166.335 46.8264 165.557 45.1761 164.077 44.2988C163.098 43.7157 162.022 43.4791 160.9 43.4269C159.107 43.3471 157.352 43.6387 155.606 43.9935C153.317 44.4555 151.125 45.2119 149.002 46.169C148.831 46.246 148.658 46.3148 148.43 46.4083C146.543 43.7982 144.434 41.4493 142.175 39.128C142.423 39.029 142.605 38.9465 142.792 38.8832C144.725 38.2424 146.719 37.8546 148.724 37.5438C151.937 37.0459 155.171 36.7819 158.425 36.9139C161.679 37.0459 164.894 37.409 167.955 38.6329C169.3 39.172 170.609 39.7826 171.775 40.649C173.162 41.6804 174.19 42.9621 174.49 44.7251H174.493Z" fill="#FFC2C2"/>
<path d="M171.723 124.767C172.089 125.458 172.003 125.914 171.335 126.316C170.84 126.616 170.293 126.855 169.74 127.039C167.867 127.661 165.931 128.018 163.981 128.296C159.071 128.989 154.131 129.124 149.183 129.088C144.758 129.055 140.355 128.725 135.959 128.197C131.966 127.716 127.992 127.119 124.08 126.162C120.989 125.403 117.936 124.509 114.919 123.494C114.803 123.455 114.693 123.395 114.616 123.359C114.9 122.388 115.243 121.459 115.433 120.502C115.975 117.798 115.593 115.207 114.33 112.754C113.252 110.663 111.75 108.972 109.776 107.663C106.624 105.578 103.166 104.439 99.4286 104.126C94.4476 103.705 89.5574 104.2 84.7772 105.674C84.1006 105.883 83.4322 106.15 82.7941 106.458C82.4063 106.642 82.0323 106.912 81.7407 107.225C81.2429 107.762 81.2759 108.51 81.7407 108.988C82.189 109.45 82.8519 109.467 83.4625 109.079C83.8475 108.834 84.2546 108.612 84.6782 108.441C86.6337 107.654 88.691 107.261 90.7648 106.95C93.0889 106.601 95.4322 106.458 97.7838 106.568C100.608 106.703 103.37 107.181 105.928 108.447C107.066 109.01 108.211 109.637 109.195 110.432C111.948 112.649 113.346 115.551 113.054 119.129C112.892 121.115 112.061 122.881 110.964 124.523C109.957 126.033 108.719 127.342 107.319 128.491C102.957 132.078 98.0149 134.507 92.5196 135.777C89.5216 136.47 86.4659 136.597 83.3965 136.448C82.9372 136.426 82.4833 136.341 82.024 136.286C81.859 136.267 81.6912 136.237 81.5262 136.242C80.8524 136.27 80.338 136.718 80.2555 137.331C80.1675 137.989 80.5416 138.616 81.2374 138.723C82.3733 138.899 83.523 139.045 84.6699 139.075C90.6713 139.224 96.3481 137.906 101.698 135.18C102.272 134.886 102.847 134.592 103.425 134.295C105.515 136.668 108.227 138.093 110.972 139.449C115.694 141.784 120.662 143.393 125.868 144.218C128.894 144.697 131.941 144.95 135.008 144.867C138.248 144.779 141.369 144.194 144.263 142.631C146.051 141.666 147.693 140.516 149.005 138.957C150.207 137.529 151.111 135.929 151.469 134.075C151.615 133.318 151.653 132.543 151.747 131.707C153.51 131.649 155.322 131.588 157.165 131.525C157.448 132.185 157.528 132.87 157.553 133.549C157.646 136.077 157.124 138.456 155.757 140.623C153.653 143.962 150.74 146.386 147.247 148.143C144.725 149.408 142.087 150.335 139.279 150.737C137.137 151.045 134.986 151.166 132.824 151.13C129.57 151.075 126.341 150.753 123.143 150.17C117.485 149.133 112.08 147.329 106.929 144.777C106.481 144.554 106.071 144.251 105.628 144.015C105.147 143.756 104.66 143.767 104.209 144.106C103.793 144.416 103.598 144.958 103.793 145.453C103.901 145.731 104.102 146.014 104.335 146.196C104.748 146.512 105.202 146.787 105.666 147.018C110.295 149.329 115.128 151.078 120.183 152.178C122.103 152.596 124.042 152.918 126.052 153.295C125.821 153.454 125.61 153.605 125.392 153.746C120.609 156.807 115.546 159.268 110.177 161.144C105.57 162.756 100.9 164.153 96.1968 165.438C95.292 165.685 94.3843 165.927 93.4189 165.902C92.7726 165.883 92.283 166.354 92.195 166.95C92.1015 167.577 92.4591 168.185 93.0889 168.361C93.4244 168.455 93.7902 168.449 94.1423 168.46C94.3678 168.469 94.5961 168.425 94.8849 168.397C94.8161 168.548 94.7859 168.645 94.7309 168.724C93.1549 171.029 92.2858 173.62 91.6889 176.315C91.2434 178.323 90.9738 180.356 90.8198 182.408C90.7593 183.194 90.7593 183.189 89.9617 183.357C88.2124 183.725 86.4412 183.885 84.6617 183.956C78.7483 184.195 73.0027 183.321 67.4744 181.206C65.7994 180.565 64.1987 179.72 62.5869 178.92C61.6545 178.455 61.231 178.023 60.6809 177.267C60.8899 176.615 61.1127 175.941 61.319 175.265C61.9571 173.183 62.5732 171.092 62.8427 168.92C63.06 167.173 62.9692 165.451 62.4081 163.765C62.1469 162.982 61.7866 162.253 61.2337 161.634C59.996 160.245 58.4668 159.81 56.6873 160.322C55.5954 160.633 54.6795 161.26 53.8626 162.03C52.4187 163.386 51.3763 165.025 50.6144 166.838C49.6793 169.06 48.8322 171.312 48.3096 173.675C48.2821 173.796 48.2353 173.912 48.1831 174.074C47.2644 174.178 46.3513 174.088 45.4409 174.002C41.1723 173.601 37.275 172.069 33.5427 170.056C31.3203 168.856 29.23 167.47 27.4725 165.633C26.8482 164.978 26.2761 164.288 25.8525 163.482C25.5968 162.995 25.5445 162.555 25.8305 162.011C27.2497 159.301 28.5672 156.543 29.6784 153.688C30.432 151.752 31.0068 149.763 31.3699 147.714C31.4029 147.53 31.4469 147.348 31.5019 147.101C31.6339 147.208 31.7439 147.282 31.8347 147.373C32.217 147.761 32.5855 148.162 32.9733 148.545C33.2704 148.836 33.6307 148.987 34.0542 148.954C34.8381 148.897 35.3882 148.138 35.1489 147.387C35.0609 147.12 34.8931 146.853 34.6951 146.652C32.5855 144.499 30.85 142.059 29.2383 139.532C24.2078 131.643 20.9898 123.035 19.1883 113.887C18.1404 108.562 17.8571 103.171 18.0827 97.7475C18.2669 93.3331 18.971 89.0012 20.0767 84.7298C20.1014 84.6308 20.14 84.5345 20.184 84.3942C20.36 84.4438 20.514 84.4823 20.6653 84.529C21.5427 84.8123 22.4228 85.0791 23.2892 85.3871C24.051 85.6594 24.6919 85.5137 25.352 85.0571C26.9032 83.9872 28.4902 82.9668 30.0634 81.9271C32.5278 80.2989 35.0086 78.6982 37.4482 77.0314C39.0187 75.9588 40.2922 74.5781 41.3043 72.9581C43.2598 69.8281 44.1757 66.4149 44.063 62.7376C43.8787 56.7032 41.8461 51.3592 37.9571 46.733C37.8113 46.5569 37.6683 46.3782 37.517 46.1911C38.2871 45.366 39.0022 44.5189 39.7998 43.7543C43.2543 40.4428 46.9069 37.3761 50.8702 34.6807C57.6445 30.0765 65.0403 26.8833 72.9477 24.8013C76.8505 23.7726 80.7973 23.0713 84.8074 22.7137C88.4517 22.3919 92.0877 22.4992 95.7843 22.9695C95.2837 24.2347 94.7969 25.4669 94.3183 26.677C89.7307 27.5792 85.1732 28.4758 80.6131 29.3669C80.4095 29.4054 80.2005 29.4274 79.9915 29.4577C79.2819 29.5595 78.8226 30.049 78.8171 30.7064C78.8116 31.3857 79.2956 31.9276 80.03 31.9826C80.7396 32.0376 81.4547 32.0183 82.1643 32.0596C84.6617 32.2081 87.093 32.7334 89.5134 33.3523C96.2409 35.0795 102.438 37.9509 108.117 41.939C111.321 44.1861 114.162 46.8512 116.811 49.7254C117.125 50.0637 117.455 50.3855 117.757 50.7321C118.335 51.3922 119.009 51.5324 119.853 51.3014C122.114 50.6798 124.388 50.1105 126.658 49.5191C128.014 49.1671 129.361 48.7683 130.731 48.4712C131.655 48.2705 132.035 47.6296 132.301 46.8567C132.444 46.4387 132.301 46.0371 132.081 45.6576C131.41 44.4914 130.67 43.3775 129.804 42.3488C128.368 40.6463 126.787 39.0924 125.002 37.7529C124.936 37.7034 124.878 37.6429 124.826 37.5961C125.898 35.4371 126.941 33.3413 128.016 31.1794C128.825 31.6773 129.65 32.1338 130.42 32.6647C137.227 37.3679 143.099 43.0199 147.734 49.9042C149.997 53.2652 151.873 56.8462 153.57 60.5207C156.497 66.8577 158.463 73.4779 159.495 80.3787C160.19 85.0268 160.595 89.697 160.468 94.4057C160.402 96.9003 160.152 99.3812 159.778 101.848C159.709 102.302 159.64 102.753 159.566 103.243C158.835 103.064 158.15 102.891 157.462 102.726C155.174 102.176 152.85 101.895 150.504 101.752C148.265 101.617 146.023 101.609 143.782 101.727C139.796 101.936 135.959 102.833 132.2 104.134C130.013 104.893 128.052 106.026 126.303 107.533C125.813 107.954 125.348 108.427 124.969 108.944C123.833 110.487 123.594 112.198 124.199 114.011C124.631 115.306 125.392 116.403 126.341 117.374C127.892 118.967 129.782 120.037 131.817 120.854C134.592 121.965 137.497 122.586 140.445 123.018C143.839 123.519 147.255 123.552 150.669 123.362C154.813 123.131 158.859 122.394 162.658 120.617C163.131 120.397 163.601 120.163 164.058 119.907C164.349 119.742 164.591 119.696 164.929 119.836C166.761 120.59 168.475 121.541 170.042 122.749C170.749 123.293 171.299 123.978 171.717 124.767H171.723ZM155.328 94.8073C155.369 93.2615 155.457 91.7103 155.416 90.1646C155.377 88.7151 155.088 87.2959 154.472 85.9647C153.777 84.4575 152.72 83.3216 151.153 82.711C149.601 82.1059 148.023 82.0179 146.414 82.4745C144.12 83.1263 142.373 84.507 140.982 86.413C139.4 88.5804 138.63 91.0612 138.085 93.6384C138.039 93.8639 137.992 94.0922 137.989 94.3205C137.978 94.9585 138.394 95.4894 138.971 95.6076C139.604 95.7369 140.192 95.4234 140.44 94.81C140.5 94.656 140.536 94.4882 140.575 94.326C140.797 93.4348 140.987 92.5299 141.248 91.6498C141.823 89.7108 142.769 87.967 144.249 86.5726C145.528 85.3651 147.049 84.6583 148.853 84.7931C150.204 84.8921 151.298 85.4532 151.961 86.7128C152.316 87.3867 152.588 88.0935 152.671 88.8444C152.811 90.1316 152.894 91.427 153.001 92.717C152.971 92.717 152.943 92.7225 152.913 92.7252C152.891 93.0168 152.872 93.3111 152.85 93.6026C152.828 93.9161 152.806 94.2297 152.789 94.5432C152.781 94.711 152.77 94.8788 152.784 95.0438C152.836 95.6489 153.259 96.111 153.84 96.2072C154.404 96.3008 154.97 95.9817 155.196 95.4179C155.273 95.2281 155.32 95.0136 155.328 94.81V94.8073ZM127.43 96.1797C127.494 95.5994 127.496 95.0108 127.529 94.3232C127.45 93.5861 127.397 92.75 127.265 91.9249C126.993 90.2196 126.55 88.5666 125.596 87.0924C124.023 84.6665 121.701 83.6489 118.907 83.7424C116.704 83.8167 114.768 84.7078 113.131 86.1985C111.563 87.626 110.309 89.279 109.451 91.229C108.741 92.8407 108.411 94.5377 108.216 96.2705C108.139 96.9608 108.557 97.5302 109.198 97.6842C109.814 97.8327 110.449 97.4724 110.678 96.8151C110.76 96.5813 110.796 96.3282 110.823 96.0807C111.154 93.0525 112.372 90.4616 114.586 88.3438C115.535 87.4389 116.619 86.8201 117.878 86.4763C119.963 85.9042 122.763 86.6111 123.891 89.3257C124.476 90.7339 124.787 92.1999 124.881 93.7126C124.928 94.4827 124.881 95.2611 124.895 96.034C124.908 96.8206 125.392 97.3514 126.094 97.3844C126.809 97.4174 127.342 96.9581 127.428 96.1715L127.43 96.1797ZM101.255 61.7034C102.773 59.2253 103.037 56.5547 102.443 53.7685C101.898 51.2189 100.705 48.9691 99.0738 46.9613C95.8008 42.9374 91.8512 39.6864 87.4148 37.0241C83.8833 34.9035 80.041 33.5448 76.0501 32.5877C73.1155 31.8863 70.145 31.5397 67.1416 31.9881C64.2922 32.4116 61.8361 33.6191 59.9438 35.8524C58.3018 37.7859 57.3474 40.0357 56.8771 42.5084C56.316 45.4623 56.151 48.452 56.0987 52.0963C56.1372 52.9159 56.162 54.3846 56.283 55.8451C56.6956 60.7903 57.7105 65.6172 59.2259 70.3424C59.8283 72.221 60.5241 74.061 61.5033 75.7772C61.6573 76.044 61.8416 76.3136 62.0699 76.5171C62.5017 76.9049 63.1233 76.9104 63.5853 76.5941C64.0254 76.2916 64.2262 75.7415 64.0666 75.2079C64.0089 75.0099 63.8989 74.8256 63.8081 74.6386C63.4175 73.8272 62.9555 73.0433 62.6474 72.2017C62.0368 70.5322 61.4648 68.8462 60.9642 67.141C59.8063 63.1886 59.0884 59.151 58.8024 55.0447C58.5521 51.4609 58.6896 47.8826 59.1792 44.3209C59.3745 42.8879 59.677 41.4742 60.2738 40.143C61.4703 37.4779 63.357 35.5718 66.2422 34.821C67.1086 34.5954 68.0107 34.4579 68.9019 34.4057C71.6715 34.2406 74.3531 34.7852 77.0183 35.4976C82.0268 36.8343 86.5677 39.0869 90.608 42.3351C92.7973 44.0953 94.9234 45.9299 96.7139 48.1137C97.8911 49.5521 98.8785 51.0979 99.5111 52.8526C100.537 55.6993 100.435 58.4414 98.697 61.0158C98.3697 61.4999 98.0341 61.9812 97.6986 62.4625C97.286 63.0566 97.319 63.725 97.7893 64.1815C98.2762 64.6519 98.9968 64.6656 99.5523 64.1815C99.7724 63.9918 99.9677 63.7607 100.127 63.5187C100.52 62.9246 100.889 62.314 101.26 61.7089L101.255 61.7034ZM89.6399 60.4795C90.8996 58.3342 91.4634 56.0321 91.0646 53.5485C90.8033 51.9202 90.1982 50.3938 89.4089 48.9608C87.6101 45.6906 85.0495 43.3692 81.2814 42.5936C80.1592 42.3626 79.0261 42.2416 77.9204 42.5579C76.4215 42.9897 75.0132 43.5865 74.0836 44.9727C70.8436 49.8052 69.2126 55.13 69.0999 61.4009C69.1521 62.0252 69.2071 63.1144 69.3447 64.1925C69.4877 65.3367 69.7627 66.4589 70.3101 67.4903C71.0334 68.8517 72.1418 69.6906 73.6655 69.9794C74.7437 70.1829 75.7944 70.0481 76.8285 69.7429C80.3573 68.6977 83.49 66.9347 86.2294 64.4786C87.5468 63.2987 88.7405 62.0115 89.6426 60.4767L89.6399 60.4795Z" fill="#FFC2C2"/>
<path d="M165.898 110.597C166.8 112.512 166.561 114.495 165.018 116.029C164.459 116.585 163.81 117.077 163.131 117.473C160.865 118.782 158.417 119.616 155.851 120.122C151.604 120.961 147.319 121.065 143.026 120.716C139.549 120.433 136.144 119.759 132.874 118.502C131.518 117.979 130.25 117.294 129.103 116.401C128.168 115.669 127.384 114.805 126.864 113.727C126.171 112.292 126.347 111.059 127.491 109.94C128.899 108.562 130.528 107.5 132.379 106.813C136.447 105.297 140.633 104.335 144.995 104.249C145.372 104.241 145.748 104.214 146.125 104.205C146.42 104.197 146.711 104.205 147.005 104.205C150.765 104.241 154.495 104.519 158.133 105.545C159.974 106.062 161.742 106.763 163.357 107.808C164.448 108.515 165.34 109.404 165.903 110.6L165.898 110.597ZM161.299 114.404C162.394 113.287 162.358 111.73 161.217 110.669C160.653 110.146 160.001 109.778 159.264 109.574C156.965 108.942 154.784 109.327 152.696 110.38C152.129 110.666 151.667 111.101 151.346 111.662C150.878 112.479 150.886 113.295 151.381 114.101C151.78 114.75 152.36 115.179 153.059 115.463C154.046 115.864 155.083 115.963 155.974 115.98C157.275 115.974 158.387 115.804 159.476 115.474C160.166 115.265 160.79 114.926 161.299 114.407V114.404ZM145.625 114.767C147.168 113.238 147.025 110.872 145.322 109.525C144.838 109.14 144.293 108.867 143.699 108.724C141.15 108.111 138.754 108.504 136.521 109.874C135.753 110.344 135.181 111.01 134.816 111.838C134.257 113.106 134.571 114.415 135.635 115.292C136.141 115.71 136.711 116.016 137.338 116.211C138.284 116.508 139.252 116.665 140.25 116.681C140.894 116.607 141.543 116.566 142.181 116.456C143.488 116.227 144.668 115.708 145.622 114.764L145.625 114.767Z" fill="#DBA2A2"/>
<path d="M162.011 46.2075C163.301 46.5155 163.741 47.3104 163.453 48.6086C163.271 49.4282 162.985 50.212 162.548 50.9382C161.734 52.2886 160.843 53.5785 159.753 54.72C158.496 56.0374 157.204 57.3246 155.925 58.6228C155.853 58.6943 155.768 58.7493 155.644 58.8456C153.95 55.303 152.132 51.876 149.965 48.5948C150.138 48.4985 150.256 48.4215 150.385 48.3638C153.4 47.0353 156.541 46.1965 159.836 46.0012C160.556 45.9599 161.307 46.0369 162.009 46.2047L162.011 46.2075Z" fill="#DBA2A2"/>
<path d="M161.216 110.669C162.358 111.731 162.394 113.287 161.299 114.404C160.79 114.924 160.166 115.262 159.475 115.471C158.386 115.801 157.272 115.972 155.974 115.977C155.083 115.961 154.046 115.862 153.059 115.46C152.36 115.177 151.78 114.748 151.381 114.099C150.886 113.293 150.878 112.479 151.345 111.659C151.667 111.098 152.129 110.663 152.696 110.377C154.786 109.324 156.967 108.939 159.264 109.571C160.004 109.775 160.655 110.144 161.216 110.666V110.669Z" fill="black"/>
<path d="M158.4 168.804C158.455 169.547 158.417 170.319 158.284 171.051C157.927 173.026 156.59 174.23 154.527 174.563C152.69 174.86 150.897 174.621 149.126 174.118C145.847 173.188 142.852 171.673 140.08 169.712C135.841 166.708 132.117 163.182 129.193 158.858C128.737 158.182 128.335 157.47 127.92 156.765C127.706 156.405 127.516 156.034 127.301 155.646C128.148 154.956 128.938 154.312 129.812 153.6C129.906 153.6 130.134 153.589 130.362 153.6C133.107 153.762 135.847 153.732 138.581 153.421C141.579 153.083 144.442 152.263 147.192 151.014C149.145 150.126 150.993 149.073 152.685 147.75C152.784 147.673 152.888 147.604 153.026 147.508C154.195 149.337 155.633 150.891 157.509 152.147C157.292 152.313 157.121 152.45 156.942 152.574C155.878 153.316 154.811 154.056 153.744 154.799C153.554 154.931 153.361 155.057 153.185 155.206C152.594 155.701 152.445 156.397 152.841 157.065C153.116 157.53 153.458 157.962 153.788 158.394C154.852 159.796 155.897 161.207 156.676 162.8C157.602 164.698 158.246 166.686 158.403 168.798L158.4 168.804Z" fill="#7A8125"/>
<path d="M155.416 90.1678C155.457 91.7135 155.372 93.262 155.328 94.8105C155.322 95.014 155.273 95.2286 155.196 95.4183C154.97 95.9822 154.404 96.3012 153.84 96.2077C153.26 96.1114 152.836 95.6521 152.784 95.0443C152.77 94.8793 152.784 94.7087 152.789 94.5437C152.806 94.2302 152.828 93.9166 152.85 93.6031C152.869 93.3115 152.891 93.0172 152.913 92.7257C152.943 92.7257 152.971 92.7202 153.001 92.7174C152.894 91.4275 152.811 90.1321 152.671 88.8449C152.588 88.094 152.316 87.3872 151.961 86.7133C151.301 85.4536 150.204 84.8925 148.853 84.7935C147.049 84.6588 145.528 85.3684 144.249 86.573C142.77 87.9675 141.823 89.7112 141.249 91.6503C140.987 92.5304 140.798 93.4325 140.575 94.3264C140.533 94.4887 140.5 94.6537 140.44 94.8105C140.192 95.4238 139.604 95.7401 138.971 95.6081C138.394 95.4898 137.978 94.959 137.989 94.3209C137.992 94.0926 138.039 93.8616 138.086 93.6388C138.63 91.0617 139.4 88.5808 140.982 86.4135C142.373 84.5075 144.12 83.1268 146.414 82.4749C148.023 82.0184 149.599 82.1064 151.153 82.7115C152.721 83.3248 153.777 84.458 154.473 85.9652C155.089 87.2991 155.377 88.7184 155.416 90.1651V90.1678Z" fill="black"/>
<path d="M149.007 131.701C149.172 132.331 149.087 132.931 148.966 133.519C148.658 135.013 147.938 136.306 146.931 137.428C145.256 139.298 143.133 140.483 140.806 141.344C140.715 141.377 140.616 141.38 140.388 141.416C141.815 138.176 142.638 134.864 143.24 131.473C145.187 131.55 147.082 131.624 149.007 131.701Z" fill="#F5DEBB"/>
<path d="M145.319 109.525C147.022 110.873 147.167 113.238 145.622 114.767C144.667 115.713 143.487 116.233 142.181 116.459C141.543 116.569 140.894 116.61 140.25 116.684C139.252 116.665 138.284 116.508 137.337 116.214C136.71 116.019 136.141 115.713 135.635 115.295C134.571 114.418 134.257 113.106 134.815 111.841C135.181 111.013 135.753 110.347 136.521 109.877C138.751 108.507 141.15 108.117 143.699 108.727C144.293 108.87 144.835 109.142 145.322 109.528L145.319 109.525Z" fill="black"/>
<path d="M140.638 131.305C140.005 135.07 138.979 138.671 137.178 142.131C134.348 142.447 131.432 142.287 128.426 141.971C130.184 138.208 131.328 134.325 132.219 130.342C135.03 130.661 137.802 130.98 140.641 131.305H140.638Z" fill="#F5DEBB"/>
<path d="M128.358 18.5197C128.723 18.7838 128.776 19.0423 128.726 19.4631C128.126 24.4276 126.27 28.963 124.086 33.3994C122.348 36.9282 120.167 40.1764 117.887 43.3641C117.389 44.06 116.864 44.7448 116.148 45.2839C114.674 43.9775 113.25 42.715 111.8 41.4334C111.828 41.3811 111.852 41.3013 111.902 41.2408C114.52 37.8606 116.674 34.208 118.272 30.2392C119.256 27.7941 120.244 25.3435 120.918 22.7856C121.523 20.4863 121.908 18.1567 121.88 15.7721C121.875 15.2935 121.817 14.8122 121.784 14.3309C121.773 14.1521 121.762 13.9733 121.748 13.7065C121.974 13.8523 122.131 13.9458 122.276 14.0503C124.301 15.5411 126.317 17.0428 128.355 18.5142L128.358 18.5197Z" fill="#7A8125"/>
<path d="M129.598 129.958C129.356 132.617 127.004 139.436 125.579 141.554C121.407 140.836 117.416 139.595 113.571 137.818C115.505 134.444 117.216 131.025 118.516 127.367C120.356 127.84 122.183 128.349 124.028 128.781C125.877 129.212 127.741 129.57 129.595 129.958H129.598Z" fill="#F5DEBB"/>
<path d="M127.53 94.3235C127.494 95.0111 127.494 95.5997 127.431 96.1801C127.343 96.9667 126.812 97.426 126.097 97.393C125.395 97.36 124.911 96.8292 124.898 96.0426C124.884 95.2669 124.933 94.4913 124.884 93.7212C124.79 92.2085 124.48 90.7425 123.894 89.3343C122.766 86.6197 119.966 85.9128 117.881 86.4849C116.624 86.8287 115.538 87.4448 114.589 88.3524C112.372 90.4702 111.154 93.0584 110.827 96.0893C110.799 96.3368 110.763 96.5899 110.681 96.8237C110.45 97.481 109.817 97.8386 109.201 97.6928C108.56 97.5388 108.142 96.9694 108.219 96.2791C108.412 94.5463 108.745 92.8493 109.454 91.2376C110.312 89.2876 111.566 87.6346 113.134 86.2071C114.771 84.7164 116.707 83.8253 118.91 83.751C121.704 83.6575 124.026 84.6751 125.599 87.101C126.553 88.5725 126.993 90.2282 127.268 91.9334C127.401 92.7586 127.456 93.5947 127.533 94.3318L127.53 94.3235Z" fill="black"/>
<path d="M118.868 12.8129C119.369 14.6281 119.385 16.4461 119.176 18.2917C118.838 21.2511 117.884 24.0345 116.869 26.8152C115.381 30.894 113.428 34.7171 110.933 38.2678C110.551 38.8097 110.133 39.3295 109.704 39.8961C105.215 36.7441 100.427 34.2908 95.3304 32.4232C95.3414 32.305 95.3332 32.2225 95.3552 32.1454C96.1308 29.4253 96.9312 26.7161 98.1414 24.15C99.8576 20.5085 102.017 17.1612 104.723 14.1716C105.999 12.7634 107.44 11.5559 109.055 10.5685C110.719 9.55088 112.515 8.99805 114.498 9.22083C116.377 9.42986 118.263 10.618 118.871 12.8156L118.868 12.8129Z" fill="#B4BD57"/>
<path d="M115.408 161.953C114.999 165.839 115.205 169.635 115.653 173.48C113.904 174.388 112.146 175.105 110.254 175.441C107.495 175.928 104.718 176.032 101.931 175.732C100.6 175.589 99.2717 175.419 97.9543 175.191C96.9091 175.009 95.8667 174.751 95.0114 173.961C95.4322 172.658 96.0593 171.414 96.8239 170.237C97.3739 169.387 98.0148 168.62 98.7959 167.971C98.8757 167.905 98.9802 167.847 99.0269 167.759C99.3185 167.19 99.8713 167.063 100.419 166.92C105.323 165.633 110.097 163.952 114.828 162.137C114.996 162.074 115.169 162.027 115.411 161.95L115.408 161.953Z" fill="#DBA2A2"/>
<path d="M113.236 125.766C114.21 125.854 115.095 126.28 116.074 126.586C114.773 130.125 113.159 133.459 111.25 136.636C109.688 136.099 106.602 134.026 105.7 132.898C108.626 130.951 111.25 128.739 113.236 125.766Z" fill="#F5DEBB"/>
<path d="M102.443 53.7688C103.037 56.555 102.773 59.2284 101.255 61.7037C100.883 62.3088 100.515 62.9194 100.122 63.5135C99.9621 63.7555 99.7668 63.9838 99.5468 64.1763C98.9912 64.6604 98.2706 64.6467 97.7837 64.1763C97.3162 63.7225 97.2804 63.0514 97.693 62.4573C98.0258 61.976 98.3641 61.4974 98.6914 61.0106C100.43 58.4362 100.531 55.6941 99.5055 52.8474C98.8729 51.0927 97.8855 49.5469 96.7083 48.1085C94.9178 45.9247 92.7918 44.0901 90.6024 42.3299C86.5621 39.0817 82.0212 36.8318 77.0127 35.4924C74.3476 34.78 71.6659 34.2355 68.8963 34.4005C68.0051 34.4527 67.1003 34.5903 66.2366 34.8158C63.3515 35.5666 61.4619 37.4727 60.2682 40.1378C59.6714 41.469 59.3689 42.8827 59.1736 44.3157C58.684 47.8774 58.5465 51.4557 58.7968 55.0395C59.0856 59.1459 59.8007 63.1862 60.9586 67.1358C61.4592 68.841 62.034 70.527 62.6418 72.1965C62.9499 73.0381 63.4092 73.822 63.8025 74.6334C63.8933 74.8204 64.0005 75.0047 64.0611 75.2027C64.2206 75.7363 64.0198 76.2864 63.5797 76.5889C63.1177 76.908 62.4961 76.8997 62.0643 76.5119C61.836 76.3084 61.649 76.0388 61.4977 75.772C60.5158 74.053 59.8227 72.213 59.2203 70.3372C57.7049 65.6148 56.69 60.7878 56.2774 55.8399C56.1564 54.3794 56.1316 52.9107 56.0931 52.0911C56.1481 48.4468 56.3104 45.4571 56.8715 42.5032C57.3418 40.0306 58.2962 37.7807 59.9382 35.8472C61.8305 33.6139 64.2866 32.4092 67.136 31.9829C70.1422 31.5346 73.1126 31.8811 76.0446 32.5825C80.0354 33.5396 83.875 34.8983 87.4092 37.0189C91.8456 39.6785 95.7952 42.9295 99.0682 46.9561C100.702 48.9639 101.896 51.2137 102.437 53.7633L102.443 53.7688Z" fill="black"/>
<path d="M91.0649 53.5511C91.4637 56.0347 90.9026 58.3368 89.6402 60.4821C88.7408 62.0141 87.5444 63.304 86.2269 64.4839C83.4848 66.94 80.3548 68.7031 76.826 69.7482C75.7919 70.0563 74.7412 70.191 73.6631 69.9847C72.1394 69.6959 71.0309 68.8571 70.3076 67.4956C69.7603 66.4642 69.488 65.3421 69.3422 64.1979C69.2074 63.1197 69.1524 62.0306 69.0974 61.4062C69.2102 55.1353 70.8412 49.8105 74.0811 44.9781C75.0108 43.5919 76.4217 42.995 77.918 42.5632C79.0236 42.2442 80.1568 42.3679 81.2789 42.599C85.047 43.3746 87.6104 45.6959 89.4064 48.9662C90.1958 50.4019 90.7981 51.9256 91.0621 53.5538L91.0649 53.5511ZM87.2308 59.4755C88.485 57.5694 88.9636 55.4846 88.364 53.243C87.8772 51.425 87.0493 49.772 85.8776 48.2786C84.3511 46.334 82.3406 45.2971 79.945 44.9781C78.3085 44.7608 76.9168 45.4154 76.0312 46.7383C73.1625 51.029 71.7571 55.7954 71.6855 61.3375C71.7213 61.816 71.7213 62.6797 71.8588 63.524C71.9963 64.3877 72.1944 65.2568 72.4969 66.0709C72.8765 67.0968 73.7511 67.5781 74.8347 67.4984C75.1675 67.4736 75.5031 67.4269 75.8249 67.3444C77.9565 66.797 79.9092 65.8509 81.752 64.6682C83.9028 63.282 85.8171 61.629 87.2336 59.4755H87.2308Z" fill="black"/>
<path d="M88.3636 53.2428C88.9632 55.4844 88.4846 57.5692 87.2304 59.4752C85.8139 61.6315 83.9024 63.2818 81.7488 64.668C79.9061 65.8534 77.9533 66.7968 75.8217 67.3441C75.4999 67.4266 75.1644 67.4734 74.8316 67.4981C73.7479 67.5779 72.8733 67.0993 72.4937 66.0707C72.1912 65.2538 71.9959 64.3847 71.8556 63.5238C71.7209 62.6794 71.7181 61.8158 71.6824 61.3372C71.7539 55.7924 73.1593 51.026 76.028 46.7381C76.9136 45.4152 78.3053 44.7578 79.9418 44.9778C82.3374 45.2969 84.3507 46.3338 85.8745 48.2783C87.0461 49.7718 87.874 51.4248 88.3608 53.2428H88.3636Z" fill="#DBA2A2"/>
<path d="M75.4316 8.71679C75.5526 8.82406 75.6434 8.96433 75.8001 9.15135C66.6055 13.1009 57.4687 17.0258 48.2824 20.9726C47.548 18.9648 46.7696 17.0478 45.7162 15.2572C44.6711 13.4777 43.5022 11.8027 41.7281 10.477C41.9949 10.3725 42.193 10.29 42.3965 10.2185C47.867 8.30148 53.3376 6.3872 58.8054 4.47017C59.3995 4.26389 60.0128 4.10437 60.5794 3.83758C61.7923 3.26549 63.0438 3.32325 64.3255 3.46352C67.813 3.84583 70.8824 5.25953 73.7153 7.24808C74.3287 7.67714 74.865 8.21897 75.4316 8.71679Z" fill="#B4BD57"/>
<path d="M55.5706 20.6838C55.0893 23.3654 55.29 25.9426 56.0354 28.5637C48.4498 32.6866 41.6508 37.9316 35.7292 44.3043C35.0663 43.7459 34.442 43.2206 33.8232 42.6898C33.7351 42.6128 33.6554 42.5027 33.6169 42.3927C32.7863 39.9064 32.1537 37.376 31.7934 34.7769C31.2103 30.5715 30.9792 26.3579 31.4798 22.125C31.8016 19.3966 32.679 16.8717 34.2247 14.5862C34.8573 13.651 35.6247 12.8727 36.6203 12.3253C37.6407 11.7615 38.6529 11.7642 39.6815 12.2841C40.5204 12.7104 41.1887 13.3347 41.7773 14.0553C43.1855 15.7743 44.2114 17.7106 45.0448 19.7569C45.3666 20.5518 45.6471 21.3631 45.9414 22.169C46.0129 22.3643 46.0762 22.5651 46.1505 22.7604C46.574 23.8963 47.2534 24.2016 48.3618 23.734C49.825 23.1152 51.2855 22.4826 52.7459 21.8555C53.5133 21.5254 54.2834 21.1926 55.0535 20.8681C55.1993 20.8048 55.3506 20.7608 55.5623 20.6893L55.5706 20.6838Z" fill="#7A8125"/>
<path d="M41.2244 59.7783C41.4196 60.994 41.4802 62.2317 41.6012 63.4583C41.4581 66.5608 40.611 69.4185 38.8673 71.9818C37.1373 74.5232 34.7389 75.9892 31.6502 76.1844C30.1705 76.278 28.7293 75.9342 27.3431 75.4446C23.289 74.0144 19.8152 71.7508 17.0896 68.3733C14.694 65.4029 12.8265 62.1629 11.8116 58.4691C11.1762 56.156 10.8572 53.7879 10.9864 51.3841C11.1487 48.3394 12.1966 45.5945 14.1659 43.2841C15.3706 41.8704 16.9053 40.7648 18.8141 40.498C19.9197 40.3439 21.0777 40.3604 22.1916 40.4787C27.5494 41.048 31.785 43.7324 35.344 47.6325C38.5042 51.098 40.4873 55.1439 41.2271 59.7783H41.2244Z" fill="#B4BD57"/>
<path d="M30.1513 78.7173C29.9505 78.8823 29.8405 78.9896 29.7139 79.0749C27.9179 80.2685 26.1137 81.4512 24.3259 82.6559C24.0261 82.8567 23.7648 82.8567 23.4485 82.7604C21.7185 82.2351 20.0738 81.5227 18.4675 80.6976C16.4735 79.6717 14.4905 78.6238 12.7275 77.2238C10.5024 75.4553 8.44783 73.497 6.9021 71.1042C4.04993 66.6953 2.51521 61.8546 2.57022 56.5656C2.58397 55.0748 2.7875 53.6006 3.09829 52.1429C3.14505 51.9174 3.28257 51.6616 3.46135 51.5213C5.26561 50.0884 7.08363 48.6747 8.90164 47.2582C8.9319 47.2362 8.97866 47.2334 9.08317 47.2004C9.08317 47.3022 9.09967 47.3655 9.08317 47.4205C8.20579 50.2479 8.24705 53.1166 8.68711 56.0045C9.73777 62.8777 13.0493 68.5298 18.1595 73.1312C21.1327 75.8074 24.6697 77.5209 28.5725 78.4423C28.8173 78.5 29.0648 78.5413 29.3124 78.5853C29.5544 78.6265 29.7965 78.6623 30.1513 78.7173Z" fill="#7A8125"/>
</svg>
