<svg width="196" height="206" viewBox="0 0 196 206" fill="none" xmlns="http://www.w3.org/2000/svg">
<path d="M195.307 159.434C195.876 164.206 195.912 168.969 194.679 173.661C193.175 179.388 190.04 184.052 185.411 187.735C182.267 190.235 178.755 192.078 175.075 193.632C170.187 195.698 165.11 197.07 159.881 197.934C156.463 198.5 153.027 198.817 149.562 198.841C147.906 198.852 146.25 198.916 144.595 198.932C143.8 198.94 143.005 198.888 142.119 198.861C142.056 198.976 141.957 199.152 141.858 199.328C140.774 201.226 139.432 202.904 137.581 204.108C134.82 205.904 131.929 206.306 128.884 204.815C127.729 204.251 126.654 203.572 125.658 202.761C123.18 200.742 121.131 198.352 119.434 195.651C116.169 190.455 113.862 184.875 112.624 178.862C112.591 178.706 112.539 178.552 112.478 178.334C108.721 181.074 104.681 183.164 100.354 184.911C100.572 185.078 100.745 185.216 100.921 185.348C102.568 186.583 104.139 187.906 105.423 189.526C106.436 190.802 107.244 192.188 107.61 193.797C108.166 196.248 107.426 198.258 105.514 199.853C104.568 200.643 103.46 201.141 102.313 201.559C99.7273 202.508 97.0594 203.126 94.3448 203.567C90.3897 204.207 86.4071 204.559 82.4135 204.862C78.0404 205.192 73.6645 205.385 69.2858 205.181C64.3379 204.95 59.4284 204.405 54.6619 202.953C53.1107 202.48 51.6365 201.842 50.2998 200.91C49.0126 200.01 48.0087 198.885 47.5136 197.367C47.1121 196.132 47.1561 194.892 47.5219 193.654C47.9069 192.35 48.5258 191.168 49.3867 190.12C50.3466 188.951 51.422 187.892 52.6706 187.026C52.7559 186.968 52.8357 186.902 52.9732 186.8C48.1655 184.033 44.0454 180.559 41.0062 175.933C40.9292 175.947 40.8769 175.939 40.8494 175.961C39.4522 177.179 37.7662 177.526 35.9867 177.49C32.5404 177.421 29.4682 176.274 26.7811 174.115C26.4868 173.879 26.2145 173.615 25.9477 173.351C25.6809 173.087 25.4306 172.806 25.1611 172.52C24.9191 172.682 24.6963 172.834 24.4763 172.985C23.0185 173.983 21.3656 174.437 19.6438 174.624C15.0781 175.122 10.7022 174.448 6.57938 172.371C5.28119 171.72 4.06552 170.93 3.05337 169.877C0.363473 167.077 -0.467148 163.815 0.723776 160.096C1.47464 157.75 2.76458 155.743 4.69261 154.178C4.88514 154.021 4.9924 153.861 4.9924 153.6C4.9979 150.855 5.95504 148.404 7.29724 146.061C8.46616 144.02 9.97338 142.266 11.6676 140.657C12.3057 140.051 12.9796 139.482 13.6177 138.877C13.7937 138.712 13.9477 138.497 14.044 138.277C17.9083 129.179 24.303 122.43 33.0108 117.823C35.2606 116.635 37.6039 115.688 40.0958 115.136C41.4517 114.833 42.8242 114.69 44.2104 114.693C44.3947 114.693 44.5817 114.693 44.7715 114.693C44.8402 114.525 44.9063 114.396 44.9503 114.258C45.8084 111.593 47.3679 109.338 49.1556 107.242C51.3339 104.69 53.9138 102.594 56.7852 100.847C60.9053 98.3443 65.207 96.265 69.8772 94.9971C70.3805 94.8596 70.8866 94.7386 71.4229 94.601C71.3954 94.5048 71.3899 94.4223 71.3514 94.3563C70.3145 92.6263 70.2595 90.7835 70.738 88.8885C70.9993 87.8433 71.4669 86.8834 72.105 86.0115C73.2107 84.4933 74.6436 83.5417 76.6569 83.4344C76.5166 82.1665 76.2966 80.9893 75.7548 79.8341C74.9049 80.3732 74.1155 80.882 73.3207 81.3799C69.5939 83.7232 65.7901 85.9318 61.7442 87.6865C59.4724 88.6712 57.1455 89.4991 54.7059 89.9639C53.108 90.2664 51.4962 90.3737 49.901 89.9886C47.0268 89.2955 45.3381 87.373 44.5845 84.6006C44.0041 82.469 44.2902 80.3567 45.0273 78.3049C45.7066 76.4071 46.826 74.7624 48.105 73.2249C50.044 70.8871 52.3406 68.9343 54.7692 67.1273C59.5081 63.6012 64.6376 60.8068 70.2677 58.9641C70.4437 58.9063 70.617 58.8376 70.8728 58.744C70.7078 58.5158 70.573 58.3177 70.43 58.1252C66.2246 52.4649 62.7124 46.4112 60.1105 39.846C58.5538 35.9157 57.4343 31.8671 56.8237 27.6837C56.2682 23.8689 56.1444 20.0376 56.9008 16.2338C58.2402 9.52557 62.0633 4.79213 68.4167 2.2205C70.9636 1.2001 73.692 0.977318 76.4396 0.985569C85.5517 1.01582 94.3393 2.72932 102.846 5.95555C108.493 8.09811 114.038 10.4662 119.294 13.4504C124.962 16.6684 130.185 20.5189 135.07 24.8288C135.472 25.1836 135.796 25.6374 136.118 26.0692C136.484 26.5588 136.464 27.1392 136.123 27.5875C135.793 28.022 135.227 28.1926 134.652 27.989C133.981 27.7497 133.326 27.4665 132.658 27.2217C128.395 25.6539 124.162 23.9982 119.857 22.546C114.535 20.7527 109.095 19.3583 103.578 18.3159C99.5815 17.5595 95.5467 17.0507 91.4623 17.1552C89.7653 17.1992 88.0573 17.2735 86.4483 17.8923C85.516 18.2499 84.5753 18.6487 83.7337 19.1795C81.8222 20.3814 81.1731 22.2049 81.4894 24.386C81.7617 26.2618 82.5483 27.9505 83.5274 29.554C84.5011 31.152 85.692 32.5877 86.9599 33.9602C89.6856 36.9086 92.7083 39.527 95.8437 42.0188C95.9922 42.1371 96.149 42.2389 96.314 42.3571C98.7289 41.1855 101.221 40.2173 103.765 39.3867C108.226 37.929 112.797 37.0214 117.481 36.7078C125.048 36.2045 132.509 36.8508 139.831 38.8779C142.161 39.5242 144.397 40.4126 146.465 41.6805C147.455 42.2856 148.352 43.0035 149.045 43.9469C150.332 45.6989 150.304 47.7452 148.962 49.4642C148.44 50.1353 147.793 50.6634 147.059 51.0842C145.274 52.1018 143.349 52.7207 141.335 53.0782C138.062 53.6585 134.756 53.7686 131.442 53.7741C129.074 53.7768 126.703 53.7548 124.338 53.8346C121.007 53.9473 117.685 54.1976 114.445 55.0695C114.307 55.1053 114.175 55.1575 113.936 55.2345C114.299 55.6141 114.588 55.9661 114.923 56.2604C116.238 57.4101 117.652 58.4167 119.228 59.1814C121.538 60.3035 123.945 61.1314 126.483 61.5742C126.879 61.643 127.187 61.5907 127.537 61.3679C130.136 59.7094 132.795 59.6847 135.419 61.2772C137.171 62.3388 138.115 63.9836 138.406 66.0023C138.456 66.3517 138.483 66.7065 138.519 67.0448C139.121 67.2978 139.715 67.5041 140.271 67.7901C143.01 69.1956 144.817 71.3876 145.593 74.3663C146.055 76.1376 145.72 77.8593 145.015 79.5206C144.295 81.2148 143.222 82.6368 141.737 83.7397C141.575 83.858 141.423 83.99 141.231 84.1495C142.026 84.4741 142.76 84.7574 143.483 85.0737C147.4 86.7762 150.879 89.1553 154.144 91.8864C161.771 98.2701 168.465 105.504 174.296 113.56C177.998 118.675 181.464 123.937 184.495 129.476C187.787 135.497 190.672 141.699 192.768 148.245C193.94 151.903 194.855 155.621 195.309 159.439L195.307 159.434ZM191.77 174.44C193.007 170.669 193.321 166.774 193.059 162.83C192.79 158.76 192.02 154.777 190.876 150.863C188.904 144.117 186.013 137.758 182.71 131.577C179.244 125.095 175.163 119.014 170.767 113.128C165.206 105.685 158.82 99.0429 151.636 93.1598C149.474 91.3913 147.186 89.8153 144.713 88.5034C142.535 87.3455 140.221 86.5589 137.897 85.7833C137.386 85.6127 136.877 85.5907 136.352 85.6815C136.063 85.731 135.766 85.7613 135.477 85.7503C134.542 85.7172 133.607 85.6595 132.614 85.61C132.226 87.8928 131.002 89.7273 129.044 91.064C127.058 92.42 124.836 92.7115 122.547 92.3677C122.487 92.431 122.465 92.4447 122.459 92.4612C122.212 93.1296 121.984 93.8034 121.72 94.4635C120.273 98.0941 118.447 101.529 116.342 104.819C114.64 107.478 112.695 109.94 110.366 112.08C108.207 114.06 105.863 115.771 103.121 116.874C102.007 117.322 100.866 117.663 99.6558 117.702C99.3175 117.713 99.1277 117.9 98.9132 118.1C97.6287 119.302 96.3416 120.502 95.0516 121.698C94.9333 121.808 94.7931 121.891 94.6225 122.014C96.4406 123.28 98.1101 124.55 99.5678 126.057C101.02 127.559 102.39 129.138 103.82 130.711C109.568 129.99 114.786 131.668 119.681 134.581C120.069 134.311 120.421 134.05 120.787 133.814C122.08 132.98 123.543 132.612 125.017 132.287C127.974 131.635 130.969 131.679 133.967 131.847C134.707 131.888 135.444 131.968 136.272 132.037C136.107 131.742 136.002 131.544 135.887 131.349C134.657 129.278 133.403 127.221 132.405 125.023C130.394 120.595 128.766 116.06 128.384 111.161C128.186 108.62 128.235 106.1 128.824 103.603C129.539 100.569 131.046 98.0638 133.61 96.2403C133.86 96.0615 134.143 95.8992 134.435 95.8085C134.974 95.6407 135.513 95.8662 135.807 96.3173C136.112 96.7794 136.079 97.4037 135.697 97.8328C135.518 98.0335 135.29 98.1931 135.07 98.3526C133.728 99.3427 132.669 100.564 132.012 102.11C131.263 103.867 130.925 105.721 130.856 107.613C130.755 110.413 131.074 113.177 131.783 115.889C133.274 121.588 135.934 126.742 139.097 131.668C139.539 132.356 140.056 132.669 140.843 132.848C144.971 133.794 149.031 134.974 152.923 136.668C153.22 136.798 153.44 136.778 153.731 136.611C154.331 136.27 154.95 135.951 155.596 135.72C158.069 134.837 160.649 134.501 163.251 134.441C166.339 134.369 169.332 134.98 172.217 136.091C172.429 136.173 172.638 136.283 172.817 136.426C173.29 136.803 173.419 137.43 173.16 137.956C172.916 138.453 172.357 138.745 171.799 138.632C171.513 138.574 171.238 138.464 170.963 138.363C166.4 136.679 161.787 136.635 157.134 137.923C156.922 137.98 156.718 138.068 156.507 138.143C156.553 138.228 156.564 138.275 156.595 138.294C156.685 138.349 156.779 138.393 156.872 138.44C162.095 140.91 166.991 143.935 171.752 147.194C175.567 149.804 179.032 152.846 182.545 155.833C182.671 155.941 182.792 156.062 182.894 156.194C183.282 156.694 183.274 157.363 182.886 157.816C182.481 158.292 181.797 158.399 181.233 158.05C181.021 157.921 180.834 157.748 180.639 157.585C178.81 156.048 177 154.488 175.154 152.973C171.092 149.642 166.702 146.787 162.167 144.152C156.754 141.009 151.108 138.387 145.087 136.6C139.603 134.971 134.047 133.99 128.298 134.408C126.593 134.531 124.937 134.87 123.329 135.428C122.869 135.588 122.443 135.846 121.931 136.096C122.206 136.311 122.382 136.454 122.564 136.591C124.44 138.011 126.186 139.57 127.858 141.223C128.675 142.032 129.223 142.945 129.602 144.009C130.892 147.623 131.946 151.309 132.839 155.033C134.671 162.663 135.873 170.399 136.305 178.241C136.486 181.577 136.382 184.902 135.738 188.195C135.422 189.806 134.957 191.36 134.091 192.779C132.705 195.051 129.715 195.72 127.603 194.43C126.981 194.05 126.387 193.605 125.859 193.107C124.673 191.987 123.774 190.64 123.081 189.174C122.446 187.831 121.871 186.459 121.334 185.073C120.039 181.748 119.046 178.334 118.57 174.784C118.496 174.233 118.425 173.681 118.342 173.04C118.144 173.227 118.009 173.348 117.88 173.474C117.124 174.228 116.417 175.045 115.592 175.716C114.91 176.272 114.802 176.819 114.97 177.655C116.197 183.81 118.507 189.517 121.923 194.779C123.43 197.1 125.251 199.138 127.407 200.877C128.375 201.658 129.434 202.288 130.587 202.761C131.646 203.195 132.729 203.275 133.849 202.992C134.844 202.741 135.736 202.31 136.544 201.691C138.183 200.437 139.344 198.817 140.144 196.933C140.818 195.348 141.308 193.704 141.652 192.015C142.229 189.193 142.452 186.335 142.557 183.464C142.727 178.758 142.444 174.082 141.674 169.437C141.28 167.06 140.772 164.706 140.089 162.393C140.048 162.253 140.012 162.11 139.999 161.964C139.938 161.309 140.285 160.768 140.86 160.594C141.443 160.418 142.062 160.652 142.353 161.227C142.548 161.615 142.678 162.044 142.79 162.467C144.188 167.624 144.925 172.88 145.136 178.219C145.26 181.343 145.164 184.462 144.889 187.576C144.639 190.442 144.163 193.266 143.247 196.006C143.217 196.096 143.217 196.195 143.197 196.341C143.494 196.355 143.742 196.377 143.99 196.374C145.478 196.349 146.965 196.303 148.453 196.294C152.106 196.278 155.734 196.014 159.342 195.417C164.51 194.562 169.527 193.209 174.346 191.143C177.476 189.801 180.476 188.244 183.208 186.189C187.259 183.139 190.183 179.267 191.764 174.44H191.77ZM146.341 48.4465C147.799 47.2446 147.692 46.1774 146.608 45.0333C146.008 44.4034 145.282 43.9469 144.531 43.5261C142.733 42.5112 140.813 41.7961 138.824 41.2652C134.583 40.1321 130.271 39.4417 125.881 39.2162C122.209 39.0264 118.548 39.0759 114.901 39.527C109.609 40.1788 104.524 41.6008 99.6173 43.6746C99.389 43.7708 99.169 43.8836 98.8032 44.0541C99.4908 44.4529 100.068 44.7885 100.643 45.124C100.88 45.2616 101.124 45.3853 101.336 45.5531C101.746 45.8749 101.958 46.3205 101.812 46.8293C101.609 47.5279 101.413 48.2485 101.078 48.8866C99.6393 51.615 97.7277 53.9886 95.4917 56.1092C92.513 58.9338 89.0915 61.0956 85.4389 62.9247C83.4642 63.9148 81.4371 64.7537 79.267 65.191C78.5767 65.3313 77.8561 65.3753 77.152 65.378C76.5689 65.378 76.0546 65.1387 75.73 64.5969C75.5595 64.3136 75.3642 64.0386 75.1497 63.7883C74.4511 62.9797 73.7167 62.2013 73.0374 61.3789C72.7376 61.0131 72.479 60.9471 72.0225 61.0929C68.92 62.0775 65.9331 63.3235 63.0699 64.8774C59.1286 67.0173 55.4788 69.5586 52.2003 72.6281C50.7564 73.9813 49.4719 75.4692 48.435 77.158C47.2661 79.0695 46.6088 81.1268 46.9553 83.3821C47.3321 85.8273 48.8943 87.5408 51.6007 87.6563C52.8687 87.7085 54.1064 87.5215 55.3303 87.2107C58.5373 86.4021 61.5407 85.0792 64.4616 83.5527C69.6489 80.838 74.5914 77.7191 79.2973 74.2426C83.4752 71.1566 87.5458 67.9249 91.6769 64.7757C95.962 61.5082 100.371 58.425 105.151 55.9111C108.432 54.1839 111.881 52.9214 115.515 52.1761C118.768 51.5077 122.072 51.3014 125.383 51.2189C127.394 51.1722 129.407 51.1942 131.417 51.2024C133.997 51.2134 136.569 51.1254 139.132 50.8091C141.03 50.5726 142.9 50.2178 144.65 49.4092C145.235 49.1396 145.841 48.8508 146.333 48.4465H146.341ZM142.436 78.9567C143.156 77.5018 143.53 75.9753 142.933 74.4048C141.954 71.8222 140.131 70.117 137.408 69.4816C136.159 69.1901 134.943 69.3798 133.838 70.0592C133.002 70.5735 132.49 71.3079 132.416 72.3035C132.311 73.6567 133.208 74.6771 134.501 74.6661C135.21 74.6606 135.862 74.4488 136.407 73.9703C136.58 73.819 136.75 73.6567 136.949 73.544C137.386 73.2992 137.837 73.3129 138.258 73.5907C138.681 73.8713 138.893 74.2948 138.78 74.7789C138.703 75.1062 138.53 75.4527 138.299 75.7003C137.512 76.5419 136.5 76.9792 135.378 77.169C132.856 77.5981 130.661 76.2366 130.015 73.819C129.597 72.2513 129.872 70.7853 130.793 69.4514C131.681 68.1614 132.963 67.4463 134.435 67.0393C134.894 66.9127 135.37 66.8467 135.865 66.7477C135.898 66.1701 135.744 65.6558 135.521 65.158C134.69 63.3097 132.925 62.6386 131.274 62.7046C129.426 62.7789 127.589 64.1926 127.069 65.8181C126.802 66.6515 126.879 67.4683 127.168 68.2824C127.295 68.6372 127.435 68.992 127.501 69.3606C127.608 69.9794 127.242 70.5625 126.681 70.7578C126.109 70.9558 125.452 70.744 125.174 70.172C124.566 68.9123 124.148 67.5866 124.382 66.1674C124.506 65.4138 124.764 64.6794 124.968 63.9148C124.849 63.879 124.69 63.8268 124.528 63.791C122.492 63.3455 120.545 62.6469 118.667 61.7557C115.812 60.4025 113.246 58.678 111.32 56.0211C107.791 57.2451 104.538 59.0631 101.4 61.0846C101.864 64.2146 103.086 66.9705 104.744 69.5504C105.825 71.2309 107.197 72.6226 108.892 73.6952C109.951 74.3636 111.086 74.8394 112.324 75.0237C114.434 75.34 116.552 74.6386 117.594 72.4988C118.238 71.1786 118.328 69.7979 117.685 68.4942C116.824 66.7532 115.366 65.7191 113.413 65.455C112.808 65.3725 112.244 65.5513 111.755 65.9061C111.232 66.2856 111.018 66.8027 111.18 67.4491C111.411 68.3649 111.925 69.0278 112.855 69.3221C113.034 69.3799 113.218 69.4321 113.386 69.5146C113.864 69.7539 114.142 70.2462 114.098 70.744C114.051 71.2776 113.68 71.7287 113.133 71.8497C112.896 71.902 112.632 71.8992 112.393 71.8497C110.3 71.4344 108.622 69.3716 108.573 67.1988C108.534 65.5403 109.296 64.3466 110.685 63.5352C111.612 62.9962 112.635 62.7816 113.71 62.8944C117.203 63.2602 120.267 66.2746 120.628 69.4569C120.98 72.5648 119.252 75.7058 116.772 76.8307C116.089 77.1415 115.374 77.3753 114.585 77.6806C114.585 77.7796 114.579 77.9006 114.585 78.0244C114.75 81.1708 115.751 84.0092 117.718 86.4846C118.925 88.0083 120.49 89.0205 122.322 89.6283C123.106 89.8896 123.914 89.9639 124.739 89.9144C127.842 89.7191 130.79 86.9137 129.965 83.1346C129.597 81.4404 128.744 80.1202 127.121 79.3831C125.202 78.5112 123.128 79.6471 122.814 81.7292C122.594 83.1924 123.854 84.0395 124.904 83.7122C125.097 83.6517 125.323 83.6407 125.521 83.6709C126.035 83.748 126.436 84.1578 126.538 84.6611C126.643 85.1672 126.409 85.7062 125.925 86.006C125.367 86.3526 124.742 86.4213 124.107 86.3471C121.541 86.0528 119.926 83.9652 120.267 81.4019C120.771 77.6228 124.673 75.4582 128.147 77.0315C130.312 78.0106 131.701 79.6691 132.289 81.9464C132.468 82.6368 132.834 82.9201 133.447 83.0466C133.632 83.0851 133.816 83.1181 134.003 83.1429C134.968 83.2611 135.925 83.1869 136.88 83.0191C139.396 82.5735 141.289 81.2781 142.436 78.9623V78.9567ZM133.238 187.617C133.915 184.132 133.909 180.617 133.665 177.099C133.499 174.72 133.233 172.344 132.966 169.973C132.804 168.537 132.548 167.113 132.344 165.685C132.309 165.429 132.201 165.3 131.94 165.209C131.131 164.921 130.328 164.613 129.55 164.258C128.144 163.611 126.756 162.927 125.295 162.225C125.213 162.407 125.125 162.594 125.042 162.781C124 165.165 122.836 167.484 121.23 169.55C120.889 169.987 120.636 170.388 120.85 170.952C120.878 171.026 120.864 171.12 120.864 171.203C120.864 172.781 121.09 174.335 121.362 175.881C122.041 179.762 123.362 183.442 124.913 187.045C125.488 188.376 126.214 189.625 127.16 190.736C127.693 191.36 128.293 191.908 129.038 192.282C129.533 192.529 130.034 192.568 130.562 192.425C131.208 192.251 131.662 191.85 131.998 191.286C132.674 190.15 132.991 188.896 133.238 187.617ZM131.67 162.313C131.692 162.247 131.723 162.206 131.717 162.17C131.698 162.005 131.673 161.84 131.643 161.675C130.939 157.69 129.943 153.776 128.777 149.903C128.21 148.019 127.724 146.111 126.951 144.293C126.838 144.029 126.709 143.745 126.516 143.542C124.794 141.732 122.935 140.073 120.933 138.574C118.246 136.561 115.352 134.958 112.123 133.973C109.664 133.222 107.148 132.911 104.609 133.236C101.416 133.643 98.5804 134.944 96.1958 137.144C94.5593 138.654 93.4069 140.478 92.81 142.634C92.568 143.5 92.5157 144.383 92.8568 145.228C93.4261 146.633 94.298 146.996 95.5192 146.674C96.0555 146.531 96.5808 146.278 97.0566 145.99C97.9945 145.418 98.7729 144.647 99.455 143.792C100.739 142.18 101.856 140.464 102.739 138.599C102.854 138.354 102.978 138.107 103.138 137.89C103.806 136.968 104.915 136.913 105.654 137.771C105.913 138.071 106.125 138.412 106.345 138.745C107.076 139.837 107.984 140.753 109.04 141.534C109.491 141.867 109.918 142.241 110.325 142.629C110.831 143.113 110.891 143.77 110.473 144.337C110.264 144.617 109.992 144.867 109.709 145.071C107.954 146.322 106.458 147.841 105.132 149.529C102.893 152.379 101.196 155.506 100.352 159.057C100.181 159.769 100.077 160.498 99.9088 161.21C99.7025 162.074 99.0562 162.42 98.1926 162.209C97.9643 162.154 97.6837 162.132 97.472 162.209C96.6138 162.533 95.7475 162.858 94.9278 163.268C92.7358 164.365 91.0443 166.092 89.3693 167.825C88.7944 168.419 88.1261 168.504 87.4742 167.99C87.279 167.833 87.1057 167.649 86.9187 167.478C84.3003 165.13 81.2198 164.029 77.7186 164.104C76.9567 164.12 76.2251 164.332 75.5732 164.739C75.0699 165.053 74.9544 165.41 75.1277 165.974C75.2735 166.45 75.5843 166.816 75.9446 167.146C76.9567 168.075 78.1064 168.793 79.3495 169.374C81.3463 170.303 83.4614 170.784 85.6342 171.057C88.4314 171.409 91.19 171.266 93.9019 170.435C96.6386 169.599 99.0809 168.196 101.457 166.648C104.78 164.483 107.175 161.584 108.496 157.825C108.556 157.649 108.65 157.478 108.762 157.329C109.081 156.906 109.615 156.741 110.105 156.889C110.641 157.054 110.993 157.486 110.99 158.05C110.99 158.336 110.935 158.639 110.833 158.905C109.692 161.961 107.976 164.632 105.5 166.785C103.545 168.488 101.356 169.841 99.0809 171.062C94.1797 173.694 88.9952 174.41 83.5522 173.329C82.6308 173.144 81.7204 172.897 80.8045 172.677C80.5982 172.627 80.4057 172.558 80.2434 172.784C79.8144 173.386 79.5503 174.013 79.7456 174.781C79.9436 175.559 80.4387 176.107 81.0521 176.569C82.3667 177.564 83.8767 178.142 85.4747 178.428C88.3901 178.948 91.3248 178.832 94.232 178.351C96.4323 177.988 98.5089 177.201 100.55 176.31C103.374 175.075 105.968 173.488 108.317 171.491C111.172 169.065 112.946 166.065 113.246 162.275C113.259 162.11 113.303 161.942 113.367 161.791C113.578 161.276 114.084 160.968 114.612 161.01C115.174 161.054 115.644 161.455 115.751 162.019C115.798 162.261 115.814 162.525 115.773 162.767C115.589 163.796 115.443 164.838 115.16 165.842C114.337 168.752 112.649 171.139 110.382 173.087C105.294 177.46 99.4963 180.331 92.766 181.134C91.058 181.338 89.339 181.398 87.62 181.253C86.8719 181.189 86.1238 181.14 85.3894 181.085C85.0429 181.723 84.9989 182.1 85.2244 182.603C85.4142 183.027 85.78 183.277 86.1761 183.483C87.2542 184.044 88.4176 184.281 89.6223 184.352C92.1719 184.506 94.6253 183.97 97.0484 183.271C100.94 182.149 104.527 180.342 107.981 178.26C112.643 175.446 116.461 171.714 119.659 167.341C121.263 165.146 122.319 162.652 123.337 160.143C124.506 157.266 124.902 154.293 124.654 151.215C124.638 151.028 124.621 150.839 124.64 150.652C124.698 150.068 125.114 149.62 125.661 149.527C126.236 149.428 126.811 149.722 127.036 150.283C127.138 150.531 127.179 150.808 127.204 151.075C127.454 153.839 127.24 156.559 126.381 159.208C126.266 159.563 126.351 159.766 126.64 159.94C126.731 159.992 126.816 160.052 126.907 160.105C128.345 160.93 129.833 161.648 131.382 162.239C131.475 162.275 131.571 162.294 131.668 162.321L131.67 162.313ZM128.519 22.876C128.541 22.8458 128.563 22.8155 128.585 22.7825C128.486 22.711 128.389 22.6395 128.29 22.5652C124.756 19.9056 121.153 17.3395 117.25 15.2437C111.279 12.0367 105.074 9.36055 98.6436 7.21523C94.8233 5.93905 90.9398 4.9324 86.9434 4.37682C84.3058 4.01101 81.6626 3.73597 79.003 3.6067C76.6514 3.49394 74.3163 3.49119 71.9867 3.912C67.6136 4.70136 64.2746 7.04746 61.8157 10.678C60.006 13.3514 59.2524 16.3878 59.0461 19.5728C58.8288 22.9145 59.0901 26.2233 59.7364 29.51C60.8118 34.9778 62.7591 40.1293 65.2895 45.0773C65.4683 45.4293 65.6608 45.7731 65.8231 46.0839C66.7472 46.2325 67.6026 46.1389 68.447 45.9684C71.2139 45.4156 73.7855 44.3594 76.1041 42.7669C79.3303 40.5501 82.199 37.9812 83.7144 34.1912C83.4009 33.7896 83.0764 33.3798 82.7573 32.9673C81.1731 30.9045 79.9326 28.6656 79.2258 26.149C78.8462 24.7986 78.7225 23.4261 78.9562 22.0427C79.3248 19.8506 80.4965 18.1783 82.353 16.9819C84.7981 15.4087 87.5128 14.7321 90.3924 14.6166C92.678 14.5231 94.9581 14.5918 97.2354 14.8256C100.407 15.1501 103.55 15.615 106.664 16.3081C113.908 17.9253 121.024 19.9661 127.941 22.678C128.131 22.7523 128.326 22.8073 128.519 22.8733V22.876ZM119.824 92.1532C119.896 91.9442 119.968 91.7324 120.042 91.5151C119.728 91.3391 119.475 91.196 119.219 91.053C117.753 90.2362 116.507 89.169 115.493 87.8268C113.754 85.522 112.657 82.9476 112.217 80.0982C112.09 79.2758 112.022 78.4424 111.925 77.5898C108.347 76.9132 105.63 74.8834 103.352 72.0807C102.302 75.1529 100.03 76.1953 96.9851 76.0166C96.9356 76.2751 96.9109 76.5254 96.8339 76.7592C96.7266 77.07 96.8449 77.2598 97.0622 77.4688C97.6645 78.0464 98.3933 78.4067 99.1552 78.7065C101.309 79.5563 103.553 79.8974 105.858 79.9001C106.169 79.9001 106.491 79.9194 106.793 79.9909C107.338 80.1202 107.692 80.5822 107.723 81.1213C107.756 81.7044 107.439 82.1857 106.881 82.3783C106.705 82.4388 106.513 82.4773 106.328 82.4773C105.742 82.4773 105.157 82.4635 104.571 82.4278C103.743 82.3755 102.918 82.293 102.054 82.2215C102.054 82.8183 102.076 83.3601 102.049 83.8992C101.983 85.2799 101.655 86.5946 100.888 87.7635C100.228 88.7702 99.3367 89.4688 98.1073 89.6256C97.1832 89.7438 96.3113 89.5211 95.4999 89.0865C93.9157 88.2394 92.7523 86.9824 91.9712 85.3679C91.8804 85.1809 91.7924 84.9939 91.6741 84.7519C91.3798 85.0049 91.1185 85.2359 90.849 85.4615C90.5327 85.7255 90.1724 85.8905 89.7516 85.8355C89.2813 85.7723 88.9292 85.5275 88.7449 85.0819C88.5414 84.5923 88.6267 84.1248 88.976 83.7342C89.24 83.4399 89.5591 83.1924 89.8478 82.9201C90.2246 82.5598 90.5822 82.183 90.7445 81.7017C90.4227 81.2616 90.1036 80.871 89.8341 80.4502C89.5591 80.0212 89.328 79.5646 89.0502 79.064C88.8274 79.3583 88.6349 79.5783 88.4754 79.8231C87.213 81.7732 86.2366 83.847 85.7525 86.1326C85.3289 88.1266 85.4362 90.0876 86.1238 92.0102C86.4951 93.0443 87.0809 93.9024 88.0738 94.4553C88.7009 94.8046 88.8962 95.4784 88.6239 96.0753C88.3461 96.6859 87.664 96.9856 86.9874 96.7216C86.5859 96.5648 86.1898 96.3338 85.868 96.0505C85.3674 95.6132 84.9329 95.0989 84.4158 94.557C84.171 94.9228 83.8932 95.2831 83.6704 95.6765C82.7436 97.3184 82.3337 99.1035 82.3117 100.976C82.287 102.819 82.32 104.665 82.3007 106.508C82.2815 108.375 82.1082 110.229 81.6709 112.052C81.1153 114.374 80.1417 116.481 78.5437 118.274C77.5288 119.412 76.3131 120.224 74.8224 120.612C73.7827 120.884 72.7953 120.793 71.8327 120.306C69.6984 119.223 68.3672 117.52 67.8364 115.188C67.4651 113.554 67.4953 111.904 67.6548 110.248C67.6768 110.023 67.6878 109.794 67.7043 109.566C67.5283 109.66 67.4513 109.756 67.388 109.863C66.1284 111.959 65.3583 114.228 65.0997 116.657C64.9209 118.348 64.8824 120.053 65.328 121.717C66.1806 124.894 68.1362 126.927 71.4531 127.54C73.5049 127.919 75.5375 127.798 77.5755 127.455C80.0757 127.031 82.419 126.143 84.7128 125.106C88.8384 123.241 92.5515 120.774 95.7915 117.605C95.9867 117.416 96.2068 117.253 96.3828 117.108C96.3388 116.989 96.336 116.965 96.3223 116.951C96.2645 116.89 96.2095 116.827 96.1435 116.778C94.9856 115.911 94.2897 114.742 93.9184 113.37C93.5086 111.846 93.4756 110.3 93.8057 108.763C94.4163 105.902 95.698 103.364 97.5655 101.117C98.8197 99.6095 100.321 98.4324 102.137 97.665C102.995 97.3019 103.883 97.0682 104.821 97.1039C106.136 97.1534 107.019 97.8878 107.335 99.1612C107.5 99.8241 107.5 100.49 107.379 101.155C107.054 102.96 106.279 104.577 105.289 106.095C105.154 106.299 104.967 106.486 104.763 106.626C104.304 106.95 103.729 106.92 103.297 106.59C102.852 106.249 102.687 105.663 102.907 105.124C102.992 104.912 103.127 104.72 103.248 104.527C103.897 103.493 104.428 102.401 104.736 101.216C104.86 100.737 104.994 100.242 104.777 99.7305C104.276 99.6315 103.817 99.7663 103.369 99.9423C102.123 100.432 101.028 101.155 100.11 102.129C98.3163 104.027 97.1007 106.249 96.4378 108.766C96.0417 110.276 96.017 111.797 96.6083 113.274C97.1804 114.704 98.2778 115.317 99.7988 115.125C100.849 114.993 101.834 114.651 102.791 114.214C105.107 113.158 107.093 111.629 108.93 109.896C111.045 107.896 112.811 105.611 114.348 103.152C116.53 99.6645 118.466 96.0533 119.822 92.1504L119.824 92.1532ZM107.376 143.544C106.87 143.091 106.367 142.678 105.907 142.222C105.451 141.768 105.036 141.273 104.574 140.764C104.505 140.866 104.45 140.945 104.395 141.031C103.647 142.194 102.932 143.377 102.148 144.513C101.226 145.849 100.11 147.013 98.7784 147.953C97.9505 148.539 97.0539 148.982 96.0583 149.21C93.8084 149.725 91.9079 148.905 90.7967 146.892C90.5382 146.421 90.3567 145.893 90.2301 145.371C89.9689 144.273 90.0074 143.162 90.2989 142.073C91.0635 139.215 92.6148 136.85 94.8343 134.911C96.4626 133.489 98.2943 132.416 100.33 131.69C100.519 131.621 100.706 131.539 100.954 131.44C98.5254 128.362 95.7557 125.76 92.5322 123.775C90.8435 124.729 89.2483 125.694 87.598 126.552C85.1612 127.82 82.6445 128.912 79.9629 129.567C77.1575 130.252 74.3273 130.62 71.4339 130.156C67.1515 129.465 64.3351 127.075 63.0094 122.952C62.7784 122.24 62.6519 121.494 62.4566 120.691C61.1199 121.178 59.8189 121.618 58.5703 122.218C53.7406 124.542 49.5242 127.625 46.2595 131.935C44.6477 134.061 43.2065 136.289 42.0183 138.679C41.1987 140.329 40.3626 141.971 39.7878 143.732C38.4456 147.849 37.8515 152.084 37.7882 156.403C37.7525 158.963 37.8872 161.518 38.4786 164.018C39.4192 167.974 41.0804 171.607 43.4238 174.935C46.661 179.531 50.8471 182.966 55.9244 185.351C61.1336 187.796 66.6922 188.745 72.3663 189.08C77.1987 189.366 81.9267 188.547 86.5831 187.292C87.0424 187.169 87.4908 187.004 87.9418 186.858C87.7163 186.709 87.5018 186.654 87.2872 186.602C86.3026 186.368 85.3619 186.033 84.5038 185.48C83.1809 184.63 82.4905 183.431 82.5373 181.852C82.551 181.36 82.6693 180.87 82.7463 180.342C82.4218 180.21 82.0725 180.073 81.7287 179.924C80.5075 179.39 79.3908 178.695 78.4859 177.704C77.0612 176.151 76.6212 173.876 77.7241 171.945C77.7928 171.827 77.8368 171.695 77.9001 171.555C77.6938 171.445 77.5288 171.354 77.3638 171.266C76.2471 170.674 75.202 169.976 74.2861 169.107C73.835 168.678 73.4004 168.202 73.0814 167.671C71.8052 165.531 72.5368 163.27 74.7894 162.225C75.8923 161.714 77.0612 161.48 78.2686 161.507C81.8579 161.587 85.0869 162.718 87.9226 164.932C88.0491 165.031 88.1784 165.127 88.3214 165.237C90.9095 162.475 93.8799 160.415 97.5847 159.489C98.9737 153.044 102.398 147.816 107.368 143.547L107.376 143.544ZM103.201 198.327C105.124 197.194 105.665 195.59 104.829 193.514C104.799 193.437 104.763 193.36 104.73 193.283C104.307 192.315 103.715 191.456 103.017 190.667C101.419 188.86 99.499 187.446 97.505 186.121C97.2547 185.953 97.0126 185.942 96.7321 186.016C96.248 186.143 95.7585 186.261 95.2634 186.352C94.6638 186.465 94.089 186.594 93.6269 187.056C93.4261 187.257 93.1456 187.394 92.8788 187.512C91.5613 188.098 90.2549 188.72 88.9072 189.229C86.6656 190.073 84.3195 190.524 81.9679 190.95C79.157 191.459 76.3214 191.729 73.4664 191.701C70.4217 191.671 67.4128 191.225 64.4231 190.686C61.5929 190.175 58.8315 189.413 56.1884 188.261C55.9519 188.156 55.7483 188.112 55.4871 188.266C53.8808 189.212 52.4424 190.356 51.3202 191.847C50.8719 192.441 50.4923 193.112 50.2063 193.8C49.3784 195.808 49.8377 197.37 51.5732 198.66C52.4699 199.328 53.46 199.82 54.5134 200.195C56.4332 200.879 58.4107 201.333 60.4158 201.674C64.7009 202.4 69.0218 202.725 73.3702 202.75C75.4632 202.656 77.5563 202.579 79.6466 202.464C83.83 202.23 88.0051 201.897 92.1582 201.306C94.7738 200.934 97.3674 200.461 99.8923 199.669C101.031 199.312 102.164 198.94 103.201 198.33V198.327ZM99.3065 73.1919C100.332 72.7711 100.948 71.792 100.825 70.7633C100.803 70.579 100.698 70.3562 100.555 70.2435C100.082 69.8694 99.5843 69.5284 99.0809 69.1901C98.4979 68.7995 98.2668 68.2137 98.4924 67.6251C98.7206 67.0283 99.2817 66.7312 99.9611 66.8385C100.09 66.8605 100.225 66.8632 100.327 66.8742C99.8731 65.477 99.433 64.1101 98.9792 62.7156C98.8994 62.7569 98.8087 62.7981 98.7289 62.8504C96.127 64.5776 93.6544 66.4754 91.1928 68.3925C90.9783 68.5602 90.8903 68.7583 90.838 69.0223C90.4172 71.1181 90.3732 73.2222 90.7307 75.3262C90.9563 76.6519 91.2863 77.9501 92.0234 79.0998C92.2297 79.4243 92.5047 79.7049 92.8458 80.1284C92.953 79.9386 93.0026 79.8451 93.0576 79.7516C93.1511 79.5893 93.2556 79.4326 93.3409 79.2648C94.012 77.9391 94.3063 76.5117 94.4988 75.0512C94.5483 74.6634 94.6528 74.2701 94.8013 73.907C95.0269 73.3487 95.5137 73.0901 96.1133 73.1562C96.3195 73.1809 96.5176 73.2552 96.7211 73.3074C97.5957 73.5302 98.4621 73.5357 99.3092 73.1892L99.3065 73.1919ZM99.3917 84.4218C99.5018 83.4867 99.4605 82.5323 99.488 81.5174C99.1937 81.7484 98.9682 81.9602 98.7124 82.1197C97.538 82.8568 96.6386 83.858 95.9125 85.0241C95.7392 85.2992 95.6127 85.6017 95.4312 85.951C95.9207 86.2756 96.3306 86.6029 96.7871 86.8394C97.6617 87.2905 98.3796 87.0814 98.8224 86.1903C99.0975 85.6402 99.323 85.0241 99.3945 84.4191L99.3917 84.4218ZM98.6024 48.1055C98.7674 47.8222 98.8967 47.5196 99.0562 47.1978C93.9817 44.2852 89.7433 40.4319 85.6095 36.3145C83.8272 39.8845 81.0466 42.4644 77.8918 44.6647C74.7316 46.8705 71.2249 48.265 67.3275 48.7463C67.4678 48.9966 67.5668 49.1781 67.6713 49.3569C70.3695 53.9638 73.5325 58.2242 77.13 62.171C77.6443 62.7349 78.0761 62.8531 78.7912 62.6854C80.9943 62.171 83.0323 61.2717 85.0291 60.2403C88.2471 58.579 91.245 56.6097 93.8717 54.0986C95.731 52.3191 97.3042 50.3168 98.6024 48.1027V48.1055ZM88.0876 76.2146C88.1866 76.0936 88.2086 75.8625 88.1783 75.6948C87.9363 74.3058 87.9281 72.9059 87.9501 71.5059C87.9501 71.3546 87.9253 71.2034 87.9061 70.9833C86.2311 72.2705 84.6276 73.5027 82.9911 74.7596C83.5357 76.4869 84.6578 77.6366 86.2668 78.3792C86.9077 77.6256 87.51 76.9325 88.0848 76.2174L88.0876 76.2146ZM84.7156 81.2726C84.8119 81.0718 84.8916 80.8655 84.9934 80.629C83.0654 79.6994 81.7094 78.2719 80.81 76.3659C79.8006 77.0727 78.8627 77.7328 77.9276 78.3874C78.827 80.2852 79.2505 82.2545 79.278 84.3118C79.2808 84.5703 79.3936 84.7381 79.5476 84.9169C80.1664 85.6375 80.5377 86.4763 80.6395 87.4142C80.7743 88.6437 80.5872 89.8401 80.0702 90.9705C79.9326 91.2703 79.7511 91.5674 79.5311 91.8094C79.0333 92.3567 78.3099 92.4172 77.7763 92.0047C77.2592 91.6059 77.1217 90.932 77.504 90.3159C77.8836 89.7053 78.0294 89.0452 78.1036 88.3549C78.1614 87.8186 78.0541 87.3125 77.7736 86.8477C77.3775 86.1958 76.6377 85.8878 75.9391 86.1766C75.4852 86.3636 75.0397 86.6386 74.6876 86.9769C73.8295 87.7938 73.3509 88.8417 73.1309 89.9996C72.9686 90.855 72.9466 91.7159 73.3097 92.53C74.0468 94.1775 75.3917 94.9971 77.13 95.1979C78.8545 95.3987 80.2874 94.5625 81.7397 93.8172C81.7919 93.7897 81.8249 93.7264 81.8634 93.6769C82.3585 93.0883 82.8536 92.5025 83.3707 91.8892C83.0103 90.3214 82.8041 88.6932 83.0076 87.0237C83.2524 85.0049 83.8492 83.0989 84.7183 81.2726H84.7156ZM80.1939 97.423C80.0262 97.4422 79.9464 97.4395 79.8694 97.4587C77.8698 98.0253 75.9363 97.9153 74.0798 96.9279C73.9285 96.8481 73.714 96.8096 73.549 96.8426C72.3635 97.0957 71.1644 97.3185 70.0009 97.6567C64.6954 99.1942 59.8464 101.683 55.399 104.926C52.4369 107.085 50.0468 109.797 48.2672 113.023C47.8629 113.758 47.5466 114.525 47.3349 115.369C50.4978 116.703 51.8455 119.396 52.7119 122.562C55.7538 120.559 58.9828 119.052 62.3548 118.001C62.3988 117.878 62.4208 117.839 62.4263 117.801C62.4401 117.655 62.4456 117.509 62.4566 117.361C62.5886 115.32 63.0314 113.348 63.7575 111.434C64.9567 108.268 67.0608 105.726 69.3546 103.317C69.8222 102.825 70.4382 102.759 70.9636 103.064C71.4724 103.358 71.7089 103.939 71.5549 104.588C71.4366 105.075 71.2881 105.556 71.1341 106.034C70.5565 107.819 70.2512 109.654 70.1329 111.519C70.0559 112.718 70.1302 113.906 70.474 115.064C70.8728 116.406 71.7282 117.358 72.9659 117.988C73.3784 118.197 73.7855 118.233 74.2393 118.103C75.202 117.831 75.9803 117.292 76.6267 116.552C77.6168 115.419 78.3401 114.137 78.816 112.701C79.6851 110.072 79.7841 107.355 79.7539 104.626C79.7236 102.239 79.6163 99.8516 80.2022 97.4175L80.1939 97.423ZM50.2888 124.25C50.1843 122.606 49.6672 121.186 48.8393 119.869C48.193 118.838 47.2964 118.133 46.1632 117.688C44.9035 117.193 43.6163 117.251 42.3181 117.38C40.2773 117.586 38.341 118.208 36.4763 119.03C29.4242 122.138 23.7777 126.918 19.531 133.349C17.812 135.953 16.4451 138.726 15.5897 141.729C14.9709 143.91 14.8801 146.108 15.653 148.283C16.7036 151.24 18.6977 153.407 21.3766 154.961C21.9651 155.302 22.639 155.52 23.2991 155.707C24.1077 155.938 24.743 155.646 25.1611 154.92C25.3371 154.615 25.4802 154.279 25.5764 153.941C25.8542 152.976 25.8047 151.991 25.6452 151.012C25.3756 149.359 24.6495 147.912 23.6236 146.606C22.7022 145.434 21.7039 144.331 20.5707 143.36C20.2489 143.082 19.9326 142.796 19.8886 142.343C19.7896 141.361 19.8748 140.448 20.8787 139.908C20.9887 139.851 21.0823 139.763 21.1813 139.68C23.0103 138.154 24.1352 136.234 24.4653 133.858C24.501 133.61 24.5313 133.354 24.6138 133.12C24.7926 132.598 25.2849 132.273 25.8212 132.282C26.3603 132.29 26.8389 132.628 26.9846 133.17C27.0589 133.445 27.0754 133.753 27.0396 134.036C26.6656 137.012 25.3151 139.471 23.0763 141.454C22.958 141.559 22.8233 141.647 22.727 141.718C23.8327 142.937 24.8696 144.081 25.9587 145.28C26.4978 145.035 27.0726 144.832 27.5952 144.535C29.8836 143.217 31.531 141.325 32.6285 138.924C33.7726 136.413 34.2484 133.786 34.1989 131.044C34.1934 130.73 34.1934 130.411 34.2512 130.106C34.3585 129.526 34.8205 129.143 35.3899 129.11C35.9702 129.077 36.4653 129.385 36.6523 129.946C36.7376 130.2 36.7651 130.48 36.7733 130.75C36.8118 132.24 36.7321 133.723 36.4653 135.191C36.4268 135.406 36.4075 135.579 36.5918 135.758C37.4609 136.6 38.4731 137.21 39.6062 137.736C39.73 137.505 39.8345 137.304 39.9445 137.109C40.5936 135.959 41.2235 134.801 41.9056 133.671C42.1339 133.296 42.1834 132.98 42.0541 132.565C41.4077 130.499 41.2262 128.382 41.4187 126.231C41.4407 126.005 41.4793 125.769 41.5645 125.562C41.7873 125.023 42.3181 124.74 42.882 124.817C43.4458 124.897 43.8776 125.318 43.9491 125.895C43.9794 126.123 43.9491 126.354 43.9546 126.585C43.9904 127.694 44.0289 128.802 44.0756 129.908C44.0811 130.032 44.1526 130.153 44.2269 130.37C46.0422 128.032 48.0115 125.983 50.2915 124.248L50.2888 124.25ZM39.5265 173.639C39.3559 173.318 39.1772 172.988 39.0066 172.655C38.8251 172.3 38.6491 171.945 38.4758 171.588C36.402 167.346 35.2853 162.88 35.2413 158.146C35.2166 155.586 35.2936 153.036 35.6456 150.5C36.1242 147.046 36.8971 143.665 38.3025 140.456C38.352 140.346 38.3905 140.23 38.4373 140.109C37.4884 139.543 36.5698 138.995 35.6071 138.423C34.0807 142.64 31.4458 145.794 27.2817 147.555C27.3202 147.676 27.3449 147.777 27.3862 147.871C27.8758 148.993 28.1783 150.17 28.2966 151.383C28.5221 153.691 28.1095 155.811 26.3108 157.547C26.7013 158.034 26.7398 158.573 26.7068 159.126C26.6326 160.454 26.1127 161.595 25.2271 162.577C25.0786 162.742 24.9356 162.91 24.7816 163.086C25.0043 163.276 25.1831 163.422 25.3509 163.576C27.2019 165.275 27.796 167.338 27.0259 169.728C26.8499 170.276 26.9104 170.641 27.2789 171.018C27.4109 171.153 27.521 171.31 27.6585 171.439C30.2466 173.914 33.3298 175.083 36.9108 174.894C37.9285 174.841 38.8196 174.462 39.532 173.648L39.5265 173.639ZM23.5329 160.578C24.0334 159.937 24.2177 159.214 24.083 158.408C20.5129 158.122 18.0238 156.026 15.7575 153.625C15.2707 153.6 14.8141 153.553 14.3575 153.561C13.5847 153.575 12.8118 153.597 12.0417 153.669C11.6951 153.702 11.3651 153.88 11.0213 153.971C10.4327 154.125 9.84961 153.872 9.57182 153.363C9.28578 152.835 9.40955 152.167 9.89912 151.779C10.1082 151.614 10.3584 151.466 10.6115 151.4C11.2166 151.24 11.8327 151.111 12.4487 151.015C12.9163 150.94 13.3949 150.938 13.9697 150.894C12.787 148.536 12.3085 146.105 12.633 143.533C12.5835 143.517 12.5313 143.503 12.479 143.489C12.1957 143.792 11.9042 144.086 11.6346 144.4C9.82761 146.515 8.41115 148.844 7.78956 151.584C7.31649 153.682 7.48427 155.712 8.7247 157.552C9.62683 158.892 10.76 159.984 12.1765 160.787C13.6919 161.645 15.3147 162.17 17.0199 162.456C18.0816 162.635 19.1487 162.687 20.2076 162.462C21.5086 162.187 22.6802 161.664 23.5246 160.58L23.5329 160.578ZM23.0956 170.826C25.0621 169.464 25.4967 166.884 23.3898 165.273C23.0818 165.036 22.8178 164.742 22.5042 164.442C20.9695 165.116 19.3275 165.275 17.6663 165.105C16.6706 165.003 15.6722 164.83 14.7068 164.569C11.8327 163.793 9.31329 162.412 7.39901 160.066C6.64264 159.137 5.99355 158.138 5.55348 156.975C5.45722 157.024 5.41321 157.035 5.38571 157.063C5.29495 157.151 5.20968 157.241 5.12992 157.338C4.01051 158.683 3.24865 160.204 2.9131 161.923C2.55279 163.785 2.9241 165.495 4.01876 167.049C4.72011 168.042 5.60574 168.834 6.63989 169.451C10.7848 171.92 15.2624 172.641 20.0014 171.97C21.1098 171.813 22.1632 171.467 23.0956 170.823V170.826Z" fill="black"/>
<path d="M193.059 162.83C193.32 166.774 193.007 170.669 191.769 174.439C190.185 179.266 187.264 183.139 183.213 186.189C180.482 188.244 177.481 189.803 174.351 191.143C169.529 193.208 164.513 194.561 159.347 195.417C155.739 196.014 152.111 196.278 148.459 196.294C146.971 196.302 145.483 196.349 143.995 196.374C143.747 196.379 143.5 196.355 143.203 196.341C143.225 196.195 143.222 196.096 143.252 196.005C144.168 193.269 144.641 190.441 144.894 187.575C145.169 184.465 145.265 181.343 145.142 178.218C144.933 172.883 144.195 167.624 142.795 162.467C142.683 162.043 142.553 161.614 142.358 161.226C142.067 160.649 141.448 160.418 140.865 160.594C140.287 160.767 139.943 161.312 140.004 161.964C140.018 162.107 140.053 162.252 140.095 162.393C140.777 164.706 141.283 167.057 141.679 169.436C142.449 174.082 142.732 178.758 142.562 183.463C142.457 186.335 142.234 189.193 141.657 192.014C141.313 193.703 140.826 195.348 140.15 196.932C139.346 198.813 138.189 200.436 136.549 201.69C135.741 202.309 134.85 202.741 133.854 202.991C132.735 203.272 131.651 203.195 130.592 202.76C129.442 202.287 128.381 201.657 127.412 200.876C125.256 199.138 123.438 197.1 121.928 194.779C118.509 189.517 116.202 183.81 114.975 177.655C114.807 176.819 114.915 176.271 115.597 175.716C116.422 175.044 117.126 174.228 117.885 173.474C118.014 173.347 118.146 173.226 118.347 173.039C118.432 173.68 118.504 174.233 118.575 174.783C119.051 178.331 120.044 181.744 121.34 185.072C121.879 186.456 122.451 187.831 123.086 189.173C123.779 190.637 124.679 191.987 125.864 193.106C126.395 193.604 126.989 194.053 127.608 194.429C129.717 195.719 132.707 195.051 134.096 192.779C134.965 191.36 135.43 189.809 135.743 188.194C136.387 184.902 136.492 181.577 136.31 178.24C135.881 170.399 134.676 162.662 132.845 155.033C131.951 151.309 130.897 147.623 129.607 144.009C129.228 142.945 128.68 142.029 127.864 141.223C126.191 139.567 124.442 138.01 122.569 136.591C122.388 136.454 122.211 136.311 121.936 136.096C122.451 135.846 122.874 135.587 123.334 135.428C124.943 134.872 126.598 134.531 128.304 134.407C134.052 133.992 139.608 134.971 145.092 136.599C151.113 138.387 156.759 141.008 162.172 144.152C166.705 146.787 171.097 149.642 175.16 152.972C177.008 154.488 178.815 156.047 180.644 157.585C180.836 157.747 181.023 157.92 181.238 158.05C181.802 158.396 182.484 158.292 182.891 157.816C183.279 157.362 183.284 156.694 182.899 156.193C182.797 156.061 182.676 155.943 182.55 155.833C179.04 152.846 175.572 149.804 171.757 147.194C166.996 143.937 162.101 140.912 156.878 138.439C156.784 138.395 156.688 138.349 156.6 138.294C156.572 138.274 156.561 138.228 156.512 138.142C156.724 138.068 156.927 137.98 157.139 137.922C161.793 136.632 166.405 136.676 170.968 138.362C171.243 138.464 171.518 138.574 171.804 138.632C172.362 138.745 172.921 138.453 173.165 137.955C173.424 137.43 173.295 136.8 172.822 136.426C172.646 136.286 172.434 136.173 172.222 136.091C169.337 134.979 166.344 134.369 163.256 134.44C160.654 134.501 158.074 134.836 155.601 135.719C154.955 135.95 154.333 136.269 153.737 136.61C153.445 136.778 153.225 136.797 152.928 136.668C149.036 134.974 144.977 133.794 140.848 132.848C140.059 132.666 139.542 132.355 139.102 131.668C135.939 126.739 133.279 121.585 131.788 115.889C131.079 113.174 130.76 110.413 130.861 107.613C130.93 105.718 131.269 103.867 132.017 102.109C132.674 100.566 133.733 99.3424 135.075 98.3522C135.292 98.19 135.521 98.0332 135.702 97.8324C136.087 97.4033 136.118 96.7818 135.812 96.3169C135.515 95.8686 134.979 95.6431 134.44 95.8081C134.148 95.8989 133.865 96.0611 133.615 96.2399C131.051 98.0634 129.541 100.569 128.829 103.603C128.24 106.1 128.188 108.619 128.389 111.161C128.774 116.059 130.399 120.598 132.41 125.023C133.408 127.22 134.663 129.278 135.892 131.349C136.008 131.544 136.115 131.742 136.277 132.036C135.446 131.968 134.709 131.888 133.972 131.847C130.974 131.679 127.982 131.635 125.022 132.287C123.548 132.611 122.082 132.98 120.792 133.813C120.424 134.05 120.072 134.311 119.687 134.581C114.791 131.668 109.573 129.99 103.825 130.711C102.395 129.138 101.025 127.559 99.5729 126.057C98.1152 124.55 96.4457 123.279 94.6277 122.014C94.7982 121.89 94.9385 121.808 95.0567 121.698C96.3467 120.501 97.6339 119.302 98.9183 118.1C99.1328 117.899 99.3226 117.71 99.6609 117.701C100.871 117.666 102.013 117.322 103.126 116.873C105.869 115.771 108.212 114.06 110.371 112.08C112.703 109.94 114.648 107.478 116.348 104.818C118.452 101.529 120.278 98.0937 121.725 94.4632C121.989 93.8031 122.217 93.1292 122.465 92.4609C122.47 92.4416 122.492 92.4306 122.553 92.3674C124.841 92.7112 127.06 92.4196 129.049 91.0637C131.007 89.727 132.231 87.8925 132.619 85.6096C133.612 85.6591 134.547 85.7169 135.482 85.7499C135.774 85.7609 136.071 85.7306 136.357 85.6811C136.882 85.5904 137.388 85.6124 137.903 85.7829C140.227 86.5585 142.54 87.3451 144.718 88.503C147.191 89.815 149.482 91.391 151.641 93.1595C158.825 99.0426 165.214 105.682 170.773 113.127C175.168 119.013 179.247 125.094 182.715 131.577C186.018 137.76 188.909 144.116 190.881 150.863C192.025 154.777 192.795 158.759 193.065 162.83H193.059Z" fill="#B4BD57"/>
<path d="M146.608 45.0335C147.692 46.175 147.799 47.2449 146.341 48.4468C145.849 48.8511 145.244 49.1399 144.658 49.4094C142.909 50.2181 141.038 50.5729 139.141 50.8094C136.577 51.1257 134.006 51.2137 131.426 51.2027C129.412 51.1945 127.402 51.1697 125.391 51.2192C122.08 51.299 118.777 51.508 115.523 52.1763C111.89 52.9217 108.441 54.1841 105.159 55.9114C100.379 58.428 95.9702 61.5085 91.6851 64.7759C87.554 67.9279 83.4834 71.1596 79.3055 74.2428C74.5996 77.7166 69.6571 80.8355 64.4698 83.5529C61.5517 85.0794 58.5482 86.4051 55.3385 87.211C54.1146 87.519 52.8769 87.7088 51.609 87.6565C48.9026 87.5438 47.3403 85.8275 46.9635 83.3824C46.617 81.1271 47.2743 79.0698 48.4432 77.1583C49.4774 75.4668 50.7618 73.9815 52.2085 72.6283C55.4843 69.5589 59.1368 67.0175 63.0781 64.8777C65.9413 63.3237 68.9282 62.0778 72.0307 61.0932C72.4873 60.9474 72.7458 61.0134 73.0456 61.3792C73.7249 62.2016 74.4593 62.9799 75.1579 63.7885C75.3752 64.0388 75.5677 64.3139 75.7382 64.5972C76.0655 65.139 76.5771 65.3783 77.1602 65.3783C77.8671 65.3783 78.5849 65.3315 79.2753 65.1913C81.4453 64.7539 83.4724 63.9123 85.4472 62.9249C89.0997 61.0959 92.5212 58.9341 95.4999 56.1094C97.736 53.9889 99.6475 51.6153 101.086 48.8869C101.421 48.2488 101.617 47.5282 101.82 46.8296C101.969 46.3207 101.757 45.8752 101.344 45.5534C101.133 45.3856 100.885 45.2618 100.651 45.1243C100.077 44.7888 99.4962 44.4532 98.8114 44.0544C99.1744 43.8839 99.3972 43.7711 99.6255 43.6749C104.532 41.601 109.618 40.1791 114.909 39.5272C118.559 39.0762 122.22 39.0294 125.889 39.2164C130.279 39.442 134.589 40.1323 138.832 41.2655C140.821 41.7963 142.741 42.5114 144.54 43.5263C145.29 43.9499 146.017 44.4037 146.616 45.0335H146.608Z" fill="#7A8125"/>
<path d="M142.933 74.4053C143.53 75.9758 143.156 77.4995 142.436 78.9572C141.289 81.2731 139.399 82.5685 136.88 83.0141C135.925 83.1818 134.968 83.2589 134.003 83.1378C133.816 83.1158 133.632 83.0801 133.447 83.0416C132.834 82.9151 132.468 82.6318 132.289 81.9414C131.701 79.6641 130.312 78.0056 128.147 77.0264C124.673 75.456 120.771 77.6205 120.267 81.3968C119.924 83.963 121.541 86.0505 124.107 86.3421C124.742 86.4163 125.367 86.3448 125.925 86.001C126.409 85.7012 126.643 85.1621 126.538 84.6561C126.434 84.1527 126.032 83.7429 125.521 83.6659C125.32 83.6357 125.094 83.6467 124.904 83.7072C123.854 84.0345 122.594 83.1873 122.814 81.7241C123.13 79.6448 125.202 78.5089 127.121 79.378C128.744 80.1151 129.597 81.4353 129.965 83.1296C130.788 86.9086 127.842 89.7113 124.739 89.9093C123.914 89.9616 123.103 89.8846 122.322 89.6233C120.49 89.0154 118.925 88.0033 117.718 86.4796C115.754 84.0015 114.753 81.163 114.585 78.0193C114.579 77.8956 114.585 77.7718 114.585 77.6755C115.374 77.3702 116.089 77.1365 116.772 76.8257C119.252 75.7035 120.977 72.5598 120.628 69.4518C120.267 66.2696 117.201 63.2524 113.71 62.8894C112.635 62.7766 111.612 62.9911 110.685 63.5302C109.296 64.3416 108.534 65.538 108.573 67.1938C108.622 69.3666 110.3 71.4294 112.393 71.8447C112.632 71.8914 112.896 71.8942 113.133 71.8447C113.68 71.7264 114.051 71.2726 114.098 70.739C114.142 70.2412 113.864 69.7489 113.386 69.5096C113.218 69.4271 113.036 69.3748 112.855 69.3171C111.925 69.0228 111.411 68.3627 111.18 67.444C111.018 66.7977 111.229 66.2806 111.755 65.9011C112.244 65.5463 112.808 65.3675 113.413 65.45C115.366 65.714 116.824 66.7454 117.685 68.4892C118.328 69.7929 118.238 71.1736 117.594 72.4938C116.552 74.6336 114.434 75.3349 112.324 75.0187C111.086 74.8344 109.951 74.3585 108.892 73.6902C107.2 72.6175 105.825 71.2286 104.744 69.5453C103.086 66.9655 101.867 64.2096 101.4 61.0796C104.538 59.0581 107.791 57.24 111.32 56.0161C113.246 58.673 115.814 60.3975 118.667 61.7507C120.545 62.6418 122.492 63.3404 124.528 63.786C124.69 63.8218 124.847 63.8768 124.968 63.9098C124.764 64.6744 124.506 65.4087 124.382 66.1623C124.148 67.5816 124.563 68.9073 125.174 70.1669C125.452 70.739 126.109 70.9508 126.681 70.7528C127.245 70.5575 127.611 69.9744 127.501 69.3556C127.438 68.987 127.295 68.6322 127.168 68.2774C126.879 67.4633 126.802 66.6492 127.069 65.813C127.586 64.1876 129.426 62.7711 131.274 62.6996C132.925 62.6336 134.69 63.3047 135.521 65.153C135.747 65.6508 135.898 66.1651 135.865 66.7427C135.37 66.8417 134.894 66.9077 134.435 67.0342C132.963 67.4413 131.681 68.1591 130.793 69.4463C129.872 70.7803 129.597 72.2462 130.015 73.814C130.661 76.2316 132.856 77.593 135.378 77.164C136.5 76.9742 137.512 76.5369 138.299 75.6952C138.53 75.4477 138.703 75.1039 138.78 74.7739C138.893 74.287 138.681 73.8662 138.258 73.5857C137.837 73.3079 137.386 73.2941 136.948 73.5389C136.75 73.6489 136.58 73.814 136.407 73.9652C135.859 74.4438 135.21 74.6528 134.501 74.6611C133.205 74.6721 132.311 73.6517 132.416 72.2985C132.493 71.3029 133.004 70.5657 133.838 70.0542C134.943 69.3748 136.159 69.185 137.408 69.4766C140.131 70.1119 141.954 71.8172 142.933 74.3998V74.4053Z" fill="#F5DEBB"/>
<path d="M133.664 177.099C133.906 180.614 133.915 184.132 133.238 187.617C132.991 188.896 132.674 190.15 131.998 191.286C131.662 191.849 131.208 192.251 130.562 192.424C130.031 192.565 129.533 192.529 129.038 192.281C128.293 191.907 127.693 191.36 127.16 190.736C126.214 189.627 125.487 188.376 124.913 187.044C123.361 183.441 122.041 179.761 121.362 175.881C121.09 174.332 120.864 172.778 120.864 171.202C120.864 171.12 120.878 171.026 120.85 170.952C120.636 170.388 120.889 169.986 121.23 169.549C122.836 167.484 124 165.165 125.042 162.78C125.124 162.593 125.212 162.406 125.295 162.225C126.758 162.926 128.144 163.614 129.55 164.257C130.328 164.615 131.134 164.92 131.94 165.209C132.201 165.303 132.309 165.432 132.344 165.685C132.551 167.115 132.806 168.54 132.966 169.973C133.233 172.344 133.499 174.717 133.664 177.099Z" fill="#7A8125"/>
<path d="M131.717 162.171C131.722 162.206 131.692 162.248 131.67 162.314C131.574 162.286 131.478 162.267 131.384 162.231C129.836 161.64 128.348 160.922 126.909 160.097C126.819 160.045 126.733 159.984 126.642 159.932C126.354 159.759 126.268 159.555 126.384 159.2C127.242 156.552 127.457 153.831 127.206 151.067C127.182 150.8 127.138 150.523 127.039 150.275C126.813 149.714 126.238 149.42 125.663 149.519C125.116 149.612 124.703 150.061 124.643 150.644C124.624 150.828 124.643 151.021 124.657 151.208C124.904 154.285 124.511 157.258 123.339 160.135C122.319 162.646 121.265 165.138 119.662 167.333C116.463 171.706 112.646 175.436 107.984 178.252C104.529 180.337 100.943 182.141 97.0509 183.263C94.6305 183.962 92.1744 184.498 89.6248 184.344C88.4201 184.273 87.2567 184.036 86.1785 183.475C85.7852 183.272 85.4194 183.019 85.2269 182.595C85.0014 182.092 85.0426 181.715 85.3919 181.077C86.1235 181.132 86.8744 181.179 87.6225 181.245C89.3415 181.393 91.0605 181.33 92.7685 181.126C99.496 180.323 105.294 177.452 110.385 173.079C112.651 171.131 114.337 168.744 115.162 165.834C115.446 164.83 115.591 163.788 115.776 162.759C115.82 162.517 115.8 162.253 115.754 162.011C115.646 161.447 115.176 161.048 114.615 161.002C114.087 160.96 113.581 161.269 113.369 161.783C113.306 161.934 113.262 162.102 113.248 162.267C112.948 166.057 111.174 169.058 108.319 171.484C105.97 173.48 103.377 175.067 100.552 176.302C98.5114 177.193 96.4348 177.98 94.2345 178.343C91.3246 178.824 88.3926 178.94 85.4772 178.42C83.882 178.137 82.372 177.556 81.0545 176.561C80.4412 176.099 79.9461 175.551 79.7481 174.773C79.5528 174.006 79.8169 173.379 80.2459 172.776C80.4082 172.548 80.6007 172.617 80.807 172.669C81.7229 172.889 82.6333 173.136 83.5547 173.321C88.995 174.402 94.1795 173.687 99.0834 171.054C101.358 169.833 103.55 168.48 105.503 166.778C107.978 164.624 109.694 161.953 110.836 158.898C110.938 158.631 110.99 158.328 110.993 158.042C110.995 157.478 110.643 157.047 110.107 156.882C109.615 156.73 109.084 156.895 108.765 157.322C108.652 157.47 108.561 157.641 108.498 157.817C107.178 161.577 104.782 164.475 101.46 166.64C99.0834 168.189 96.6411 169.591 93.9044 170.427C91.1898 171.255 88.4339 171.401 85.6367 171.049C83.4667 170.777 81.3488 170.295 79.352 169.366C78.1089 168.788 76.9592 168.067 75.947 167.138C75.5867 166.808 75.2759 166.445 75.1302 165.966C74.9569 165.4 75.0724 165.045 75.5757 164.731C76.2303 164.324 76.9592 164.112 77.7211 164.096C81.2251 164.022 84.3055 165.122 86.9212 167.471C87.1082 167.638 87.2787 167.825 87.4767 167.982C88.1286 168.497 88.7969 168.411 89.3718 167.817C91.0468 166.084 92.7383 164.357 94.9303 163.26C95.75 162.85 96.6163 162.525 97.4745 162.201C97.6862 162.121 97.9668 162.143 98.1951 162.201C99.0587 162.413 99.705 162.063 99.9113 161.202C100.082 160.49 100.186 159.761 100.354 159.049C101.196 155.498 102.893 152.374 105.134 149.522C106.463 147.833 107.956 146.315 109.711 145.063C109.997 144.86 110.269 144.609 110.476 144.329C110.894 143.762 110.833 143.105 110.327 142.621C109.92 142.233 109.494 141.862 109.043 141.526C107.986 140.745 107.079 139.829 106.347 138.737C106.127 138.407 105.915 138.063 105.657 137.764C104.917 136.905 103.806 136.96 103.14 137.882C102.981 138.099 102.857 138.347 102.741 138.591C101.859 140.456 100.739 142.172 99.4575 143.784C98.7754 144.642 97.997 145.412 97.0591 145.982C96.5833 146.271 96.058 146.526 95.5217 146.667C94.3005 146.988 93.4286 146.625 92.8593 145.22C92.5182 144.376 92.5705 143.493 92.8125 142.626C93.4121 140.47 94.5618 138.646 96.1983 137.136C98.5801 134.936 101.419 133.635 104.612 133.228C107.15 132.904 109.667 133.214 112.126 133.965C115.352 134.95 118.248 136.553 120.935 138.567C122.938 140.066 124.797 141.721 126.519 143.534C126.711 143.737 126.841 144.021 126.953 144.285C127.726 146.1 128.213 148.009 128.78 149.896C129.946 153.768 130.941 157.682 131.645 161.667C131.676 161.832 131.7 161.997 131.72 162.162L131.717 162.171Z" fill="#FFC2C2"/>
<path d="M128.584 22.7823C128.562 22.8125 128.54 22.8428 128.518 22.8758C128.326 22.8125 128.128 22.7548 127.941 22.6805C121.026 19.9686 113.908 17.9278 106.664 16.3106C103.553 15.6175 100.407 15.1527 97.2353 14.8281C94.958 14.5943 92.6779 14.5256 90.3923 14.6191C87.5154 14.7346 84.798 15.4112 82.3529 16.9844C80.4963 18.1781 79.3247 19.8531 78.9561 22.0452C78.7223 23.4286 78.8461 24.8011 79.2257 26.1515C79.9353 28.6682 81.1729 30.9097 82.7572 32.9698C83.0762 33.3823 83.4008 33.7922 83.7143 34.1937C82.1988 37.9838 79.3329 40.5527 76.1039 42.7695C73.7854 44.362 71.2137 45.4181 68.4468 45.9709C67.6025 46.1415 66.7471 46.2322 65.8229 46.0865C65.6579 45.7784 65.4681 45.4319 65.2894 45.0798C62.759 40.1346 60.809 34.9803 59.7363 29.5125C59.09 26.2258 58.8287 22.9171 59.0459 19.5753C59.255 16.3931 60.0058 13.3567 61.8156 10.6805C64.2745 7.04999 67.6107 4.70664 71.9866 3.91453C74.3134 3.49372 76.6513 3.49372 79.0029 3.60923C81.6625 3.7385 84.3057 4.01079 86.9433 4.37935C90.9396 4.93493 94.8259 5.94433 98.6435 7.21776C105.074 9.36308 111.279 12.0392 117.25 15.2462C121.153 17.342 124.756 19.9081 128.29 22.5678C128.389 22.642 128.485 22.7135 128.584 22.785V22.7823Z" fill="#7A8125"/>
<path d="M120.042 91.5151C119.967 91.7324 119.896 91.9414 119.824 92.1532C118.471 96.0533 116.535 99.6673 114.351 103.155C112.813 105.614 111.048 107.902 108.933 109.899C107.095 111.634 105.11 113.161 102.794 114.217C101.837 114.654 100.852 114.995 99.8013 115.127C98.2776 115.32 97.1802 114.706 96.6109 113.276C96.0195 111.799 96.0443 110.278 96.4403 108.768C97.1032 106.252 98.3189 104.027 100.112 102.132C101.034 101.158 102.125 100.432 103.371 99.9451C103.82 99.769 104.279 99.6343 104.78 99.7333C104.997 100.245 104.865 100.743 104.738 101.219C104.43 102.404 103.902 103.496 103.25 104.53C103.129 104.723 102.995 104.918 102.909 105.127C102.689 105.663 102.854 106.249 103.3 106.593C103.732 106.923 104.306 106.953 104.766 106.629C104.967 106.486 105.156 106.301 105.291 106.098C106.284 104.577 107.057 102.96 107.381 101.158C107.502 100.492 107.5 99.8241 107.337 99.164C107.021 97.8905 106.138 97.1562 104.824 97.1067C103.886 97.0709 102.997 97.3047 102.139 97.6677C100.324 98.4324 98.8222 99.6123 97.568 101.12C95.7005 103.367 94.4188 105.905 93.8082 108.766C93.4809 110.306 93.5139 111.852 93.921 113.373C94.2895 114.745 94.9881 115.914 96.146 116.78C96.212 116.83 96.2671 116.893 96.3248 116.954C96.3386 116.967 96.3413 116.992 96.3853 117.11C96.2093 117.256 95.9893 117.418 95.794 117.608C92.554 120.777 88.841 123.246 84.7154 125.109C82.4188 126.145 80.0754 127.034 77.5781 127.457C75.54 127.804 73.5075 127.922 71.4557 127.543C68.1387 126.929 66.1831 124.897 65.3305 121.72C64.885 120.056 64.9235 118.351 65.1022 116.659C65.358 114.233 66.1281 111.962 67.3906 109.866C67.4538 109.759 67.5281 109.662 67.7069 109.569C67.6904 109.797 67.6766 110.025 67.6574 110.251C67.4978 111.907 67.4676 113.554 67.8389 115.191C68.3697 117.52 69.7009 119.225 71.8352 120.309C72.7951 120.796 73.7853 120.887 74.8249 120.614C76.3156 120.227 77.5313 119.412 78.5462 118.277C80.1442 116.483 81.1178 114.379 81.6734 112.055C82.1107 110.232 82.284 108.378 82.3033 106.51C82.3225 104.668 82.2895 102.822 82.3143 100.979C82.339 99.1062 82.7461 97.3239 83.673 95.6792C83.8957 95.2859 84.1735 94.9228 84.4183 94.5598C84.9381 95.1016 85.3727 95.6132 85.8705 96.0533C86.1923 96.3365 86.5911 96.5676 86.9899 96.7244C87.6665 96.9911 88.3486 96.6886 88.6264 96.078C88.8987 95.4784 88.7034 94.8073 88.0764 94.458C87.0807 93.9052 86.4949 93.0471 86.1263 92.0129C85.4387 90.0904 85.3315 88.1266 85.755 86.1353C86.2391 83.8497 87.2155 81.7759 88.4779 79.8259C88.6374 79.5811 88.83 79.3611 89.0527 79.0668C89.3305 79.5646 89.5616 80.0239 89.8366 80.453C90.1062 80.8738 90.4252 81.2643 90.747 81.7044C90.5847 82.1857 90.2272 82.5625 89.8504 82.9228C89.5616 83.1979 89.2453 83.4427 88.9785 83.737C88.6292 84.1275 88.5467 84.5951 88.7475 85.0846C88.9317 85.5302 89.2838 85.775 89.7541 85.8383C90.1749 85.8933 90.5352 85.731 90.8515 85.4642C91.121 85.2387 91.3851 85.0049 91.6766 84.7546C91.7921 84.9966 91.8829 85.1837 91.9737 85.3707C92.7548 86.9852 93.921 88.2421 95.5024 89.0892C96.3138 89.5238 97.1857 89.7466 98.1098 89.6283C99.3393 89.4715 100.23 88.7729 100.89 87.7663C101.658 86.5974 101.985 85.2827 102.051 83.902C102.079 83.3629 102.057 82.8211 102.057 82.2242C102.92 82.2957 103.745 82.3783 104.573 82.4305C105.159 82.469 105.745 82.4773 106.331 82.48C106.515 82.48 106.708 82.4415 106.884 82.381C107.442 82.1885 107.758 81.7072 107.725 81.1241C107.695 80.585 107.34 80.1229 106.796 79.9937C106.493 79.9221 106.174 79.9056 105.86 79.9029C103.556 79.9001 101.311 79.5591 99.1577 78.7092C98.3931 78.4067 97.667 78.0491 97.0647 77.4715C96.8474 77.2625 96.7291 77.0727 96.8364 76.7619C96.9162 76.5309 96.9382 76.2779 96.9877 76.0193C100.032 76.1953 102.304 75.1557 103.355 72.0835C105.632 74.8862 108.35 76.916 111.928 77.5926C112.024 78.4452 112.093 79.2785 112.219 80.1009C112.659 82.9503 113.754 85.5247 115.495 87.8296C116.51 89.1717 117.756 90.2389 119.222 91.0558C119.478 91.1988 119.731 91.3418 120.044 91.5178L120.042 91.5151Z" fill="#F5DEBB"/>
<path d="M105.907 142.222C106.366 142.678 106.867 143.091 107.376 143.545C102.406 147.813 98.9815 153.042 97.5925 159.486C93.885 160.413 90.9145 162.473 88.3292 165.234C88.1834 165.124 88.0569 165.028 87.9303 164.929C85.0919 162.715 81.8657 161.585 78.2764 161.505C77.0717 161.477 75.9028 161.711 74.7972 162.223C72.5446 163.268 71.813 165.529 73.0892 167.669C73.4055 168.199 73.8428 168.678 74.2938 169.104C75.2097 169.973 76.2549 170.672 77.3715 171.263C77.5366 171.351 77.7016 171.439 77.9079 171.552C77.8474 171.692 77.8006 171.822 77.7318 171.943C76.6289 173.874 77.069 176.148 78.4937 177.702C79.3986 178.692 80.5153 179.388 81.7364 179.922C82.0802 180.07 82.4268 180.208 82.7541 180.34C82.6771 180.868 82.5588 181.357 82.5451 181.85C82.501 183.428 83.1914 184.628 84.5116 185.477C85.367 186.028 86.3104 186.366 87.295 186.6C87.5095 186.652 87.7241 186.707 87.9496 186.855C87.4958 187.001 87.0502 187.166 86.5909 187.29C81.9345 188.544 77.2065 189.364 72.3741 189.078C66.7 188.742 61.1414 187.793 55.9321 185.348C50.8549 182.966 46.6688 179.528 43.4316 174.932C41.0855 171.602 39.4242 167.971 38.4863 164.016C37.8923 161.516 37.7575 158.961 37.796 156.4C37.8592 152.082 38.4533 147.846 39.7955 143.729C40.3704 141.969 41.2065 140.33 42.0261 138.677C43.2143 136.284 44.6555 134.059 46.2672 131.933C49.532 127.623 53.7483 124.54 58.578 122.215C59.8267 121.613 61.1304 121.173 62.4644 120.689C62.6569 121.492 62.7862 122.237 63.0172 122.95C64.3456 127.073 67.162 129.466 71.4417 130.153C74.3351 130.618 77.1625 130.252 79.9707 129.565C82.6523 128.907 85.1689 127.815 87.6058 126.55C89.256 125.692 90.8513 124.729 92.54 123.772C95.7635 125.758 98.5359 128.36 100.962 131.438C100.714 131.539 100.527 131.622 100.337 131.688C98.3021 132.414 96.4703 133.487 94.8421 134.909C92.6225 136.848 91.0713 139.213 90.3067 142.071C90.0152 143.16 89.9766 144.271 90.2379 145.368C90.3617 145.894 90.546 146.419 90.8045 146.889C91.9157 148.905 93.8162 149.722 96.066 149.208C97.0617 148.98 97.9556 148.537 98.7862 147.951C100.117 147.008 101.234 145.847 102.155 144.51C102.939 143.374 103.657 142.192 104.403 141.028C104.455 140.946 104.513 140.863 104.581 140.761C105.043 141.27 105.459 141.765 105.915 142.219L105.907 142.222Z" fill="#F96969"/>
<path d="M104.832 193.513C105.668 195.59 105.126 197.193 103.203 198.326C102.167 198.937 101.033 199.308 99.8947 199.666C97.3699 200.461 94.7762 200.931 92.1606 201.302C88.0102 201.894 83.8351 202.226 79.649 202.46C77.5587 202.576 75.4657 202.653 73.3726 202.746C69.0242 202.722 64.7033 202.397 60.4182 201.671C58.4159 201.333 56.4356 200.876 54.5158 200.191C53.4624 199.817 52.4723 199.322 51.5756 198.656C49.8429 197.366 49.3808 195.804 50.2087 193.796C50.4947 193.109 50.8743 192.438 51.3226 191.844C52.4475 190.353 53.886 189.209 55.4895 188.263C55.7508 188.109 55.9543 188.155 56.1908 188.257C58.834 189.412 61.5954 190.171 64.4255 190.683C67.418 191.222 70.4242 191.668 73.4689 191.698C76.3238 191.725 79.1594 191.453 81.9703 190.947C84.3219 190.523 86.668 190.072 88.9096 189.225C90.2573 188.716 91.5638 188.092 92.8812 187.509C93.148 187.391 93.4285 187.256 93.6293 187.052C94.0886 186.59 94.6662 186.461 95.2658 186.348C95.7581 186.255 96.2477 186.139 96.7345 186.013C97.0151 185.939 97.2571 185.95 97.5074 186.117C99.5014 187.443 101.421 188.857 103.019 190.664C103.718 191.453 104.309 192.311 104.733 193.279C104.766 193.356 104.801 193.433 104.832 193.51V193.513Z" fill="#7A8125"/>
<path d="M100.824 70.7632C100.948 71.7918 100.332 72.7682 99.3061 73.1918C98.4617 73.5383 97.5926 73.5356 96.718 73.3101C96.5144 73.2578 96.3164 73.1835 96.1101 73.1588C95.5105 73.09 95.0237 73.3513 94.7982 73.9097C94.6497 74.2727 94.5479 74.6633 94.4956 75.0538C94.3059 76.5143 94.0088 77.9417 93.3377 79.2674C93.2524 79.4352 93.1479 79.592 93.0544 79.7543C93.0022 79.8478 92.9499 79.9385 92.8426 80.1311C92.5016 79.7103 92.2265 79.427 92.0203 79.1024C91.2804 77.9527 90.9504 76.6546 90.7276 75.3289C90.37 73.222 90.414 71.1207 90.8348 69.0249C90.8871 68.7636 90.9751 68.5629 91.1896 68.3951C93.6513 66.4781 96.1239 64.5803 98.7257 62.853C98.8083 62.798 98.899 62.7595 98.976 62.7183C99.4271 64.1127 99.8699 65.4797 100.324 66.8769C100.222 66.8659 100.087 66.8631 99.9579 66.8411C99.2786 66.7339 98.7175 67.0336 98.4892 67.6277C98.2637 68.2163 98.4947 68.8022 99.0778 69.1927C99.5784 69.5283 100.079 69.8693 100.552 70.2461C100.692 70.3561 100.8 70.5817 100.822 70.7659L100.824 70.7632Z" fill="#FFC2C2"/>
<path d="M99.4878 81.5178C99.4603 82.5327 99.5016 83.4871 99.3916 84.4222C99.32 85.0273 99.0945 85.6434 98.8195 86.1935C98.3739 87.0819 97.6588 87.2937 96.7842 86.8426C96.3276 86.6061 95.9178 86.2788 95.4282 85.9542C95.607 85.6049 95.7363 85.3024 95.9095 85.0273C96.6384 83.8612 97.535 82.86 98.7095 82.1229C98.9652 81.9606 99.1908 81.7516 99.4851 81.5206L99.4878 81.5178Z" fill="#F96969"/>
<path d="M99.0559 47.1975C98.8964 47.5193 98.7671 47.8246 98.6021 48.1051C97.3012 50.3219 95.7307 52.3242 93.8714 54.101C91.2448 56.6149 88.2468 58.5814 85.0289 60.2426C83.0321 61.2741 80.994 62.1734 78.7909 62.6878C78.0758 62.8555 77.644 62.7345 77.1297 62.1734C73.5322 58.2266 70.3665 53.9662 67.6711 49.3593C67.5666 49.1805 67.4675 48.999 67.3273 48.7487C71.2218 48.2674 74.7314 46.8729 77.8916 44.6671C81.0463 42.4668 83.8269 39.8842 85.6092 36.3169C89.7431 40.4342 93.9814 44.2876 99.0559 47.2002V47.1975Z" fill="#B4BD57"/>
<path d="M88.1784 75.6973C88.2087 75.8624 88.1839 76.0934 88.0876 76.2172C87.5128 76.9323 86.9105 77.6254 86.2696 78.379C84.6579 77.6391 83.5385 76.4867 82.9939 74.7595C84.6304 73.5025 86.2339 72.2703 87.9089 70.9832C87.9281 71.2059 87.9529 71.3545 87.9529 71.5057C87.9309 72.9084 87.9391 74.3056 88.1812 75.6946L88.1784 75.6973Z" fill="#FFC2C2"/>
<path d="M84.9933 80.6291C84.8916 80.8656 84.8091 81.0719 84.7155 81.2727C83.8464 83.1017 83.2496 85.005 83.0048 87.0238C82.8013 88.6933 83.0048 90.3215 83.3678 91.8892C82.8508 92.5026 82.3557 93.0912 81.8606 93.677C81.8194 93.7238 81.7864 93.7898 81.7369 93.8173C80.2846 94.5626 78.8517 95.3988 77.1272 95.198C75.3889 94.9944 74.044 94.1776 73.3069 92.5301C72.9411 91.716 72.9658 90.8551 73.1281 89.9997C73.3481 88.839 73.8267 87.7939 74.6848 86.977C75.0396 86.6387 75.4852 86.3637 75.9363 86.1766C76.6349 85.8879 77.3747 86.1959 77.7708 86.8477C78.0513 87.3098 78.1613 87.8186 78.1008 88.355C78.0266 89.0453 77.878 89.7082 77.5012 90.316C77.1189 90.9321 77.2565 91.6059 77.7735 92.0048C78.3071 92.4173 79.0305 92.3568 79.5283 91.8095C79.7483 91.5647 79.9298 91.2704 80.0674 90.9706C80.5844 89.8402 80.7715 88.6465 80.6367 87.4143C80.5349 86.4792 80.1636 85.6376 79.5448 84.917C79.3908 84.7409 79.2807 84.5732 79.2752 84.3119C79.2477 82.2546 78.8242 80.2853 77.9248 78.3875C78.8599 77.7302 79.8006 77.0728 80.8072 76.366C81.7094 78.272 83.0653 79.7022 84.9906 80.6291H84.9933Z" fill="#F5DEBB"/>
<path d="M79.8689 97.4587C79.9432 97.4367 80.0257 97.4394 80.1935 97.4229C79.6049 99.857 79.7149 102.244 79.7452 104.632C79.7782 107.36 79.6764 110.075 78.8073 112.707C78.3342 114.143 77.6081 115.424 76.618 116.557C75.9716 117.297 75.1933 117.839 74.2306 118.109C73.7768 118.238 73.3697 118.202 72.9572 117.993C71.7195 117.363 70.8641 116.412 70.4653 115.07C70.1215 113.909 70.05 112.721 70.1243 111.524C70.2425 109.657 70.5478 107.825 71.1254 106.04C71.2794 105.564 71.428 105.083 71.5462 104.593C71.703 103.944 71.4637 103.364 70.9549 103.069C70.4296 102.764 69.8135 102.83 69.3459 103.323C67.0521 105.732 64.948 108.271 63.7488 111.439C63.0227 113.353 62.5799 115.325 62.4479 117.366C62.4369 117.512 62.4314 117.66 62.4176 117.806C62.4149 117.845 62.3901 117.883 62.3461 118.007C58.9741 119.058 55.7452 120.562 52.7032 122.567C51.8396 119.401 50.4891 116.709 47.3262 115.375C47.5407 114.53 47.8542 113.763 48.2586 113.029C50.0381 109.802 52.4282 107.093 55.3904 104.932C59.8378 101.689 64.6867 99.1969 69.9922 97.6622C71.1557 97.3267 72.3521 97.1039 73.5403 96.8481C73.7053 96.8123 73.9226 96.8508 74.0711 96.9333C75.9304 97.9235 77.8639 98.0335 79.8607 97.4642L79.8689 97.4587Z" fill="#7A8125"/>
<path d="M48.8419 119.866C49.667 121.184 50.184 122.603 50.2913 124.248C48.0112 125.983 46.0447 128.032 44.2267 130.37C44.1524 130.153 44.0809 130.032 44.0754 129.908C44.0286 128.8 43.9901 127.691 43.9544 126.585C43.9461 126.354 43.9791 126.123 43.9489 125.895C43.8774 125.32 43.4456 124.897 42.8817 124.817C42.3179 124.737 41.7871 125.02 41.5643 125.562C41.479 125.771 41.4378 126.005 41.4185 126.231C41.226 128.381 41.4048 130.499 42.0539 132.565C42.1831 132.977 42.1336 133.296 41.9053 133.67C41.2232 134.798 40.5934 135.959 39.9443 137.109C39.8343 137.304 39.7298 137.505 39.606 137.736C38.4728 137.208 37.4579 136.6 36.5916 135.758C36.4073 135.579 36.4238 135.406 36.465 135.191C36.7291 133.723 36.8116 132.238 36.7731 130.75C36.7648 130.48 36.7373 130.202 36.6521 129.946C36.4678 129.385 35.9727 129.077 35.3896 129.11C34.823 129.143 34.361 129.526 34.251 130.106C34.1932 130.411 34.1932 130.73 34.1987 131.044C34.2482 133.786 33.7724 136.413 32.6282 138.924C31.5308 141.325 29.8861 143.217 27.595 144.535C27.0752 144.834 26.5003 145.038 25.9585 145.28C24.8693 144.081 23.8324 142.937 22.7268 141.718C22.8258 141.647 22.9578 141.559 23.0761 141.454C25.3149 139.471 26.6654 137.012 27.0394 134.036C27.0752 133.753 27.0587 133.445 26.9844 133.17C26.8386 132.628 26.3601 132.29 25.821 132.282C25.2846 132.273 24.7923 132.598 24.6136 133.12C24.5338 133.357 24.5008 133.61 24.465 133.858C24.1377 136.231 23.0128 138.154 21.181 139.68C21.0848 139.76 20.9885 139.848 20.8785 139.908C19.8746 140.447 19.7893 141.361 19.8884 142.343C19.9324 142.794 20.2487 143.082 20.5705 143.36C21.7064 144.331 22.702 145.434 23.6234 146.606C24.6521 147.912 25.3754 149.359 25.645 151.012C25.8045 151.991 25.8567 152.973 25.5762 153.941C25.4772 154.279 25.3369 154.615 25.1609 154.92C24.7428 155.646 24.1075 155.938 23.2989 155.707C22.6388 155.52 21.9622 155.302 21.3763 154.961C18.6974 153.407 16.7061 151.24 15.6527 148.283C14.8799 146.111 14.9679 143.91 15.5895 141.729C16.4421 138.723 17.8118 135.951 19.5308 133.349C23.7774 126.918 29.424 122.138 36.476 119.03C38.3408 118.208 40.2743 117.586 42.3179 117.38C43.6133 117.251 44.9033 117.193 46.163 117.688C47.2989 118.133 48.1928 118.838 48.8391 119.869L48.8419 119.866Z" fill="#FFC2C2"/>
<path d="M39.0068 172.655C39.1774 172.988 39.3561 173.318 39.5267 173.64C38.8143 174.454 37.9232 174.833 36.9055 174.886C33.3245 175.073 30.244 173.906 27.6532 171.431C27.5184 171.302 27.4056 171.145 27.2736 171.01C26.9051 170.634 26.8445 170.268 27.0206 169.72C27.7907 167.33 27.1966 165.267 25.3456 163.568C25.1778 163.414 24.999 163.268 24.7762 163.078C24.9303 162.902 25.0733 162.732 25.2218 162.569C26.1074 161.587 26.6273 160.446 26.7015 159.118C26.7345 158.567 26.6933 158.026 26.3055 157.539C28.1042 155.803 28.5168 153.683 28.2913 151.375C28.173 150.162 27.8704 148.985 27.3809 147.863C27.3396 147.769 27.3149 147.668 27.2764 147.547C31.4405 145.786 34.0754 142.629 35.6018 138.415C36.5645 138.99 37.4831 139.537 38.432 140.101C38.3852 140.222 38.3467 140.338 38.2972 140.448C36.8918 143.66 36.1189 147.038 35.6403 150.492C35.2883 153.028 35.2113 155.581 35.236 158.138C35.28 162.872 36.3967 167.339 38.4705 171.58C38.6465 171.937 38.8226 172.295 39.0013 172.647L39.0068 172.655Z" fill="#7A8125"/>
<path d="M24.0826 158.41C24.2173 159.216 24.0331 159.936 23.5325 160.58C22.6881 161.664 21.5164 162.184 20.2155 162.461C19.1566 162.687 18.0894 162.635 17.0278 162.456C15.3225 162.167 13.6998 161.644 12.1843 160.786C10.7651 159.983 9.63469 158.894 8.73256 157.552C7.49213 155.709 7.3216 153.682 7.79742 151.583C8.41626 148.844 9.83547 146.514 11.6425 144.399C11.912 144.086 12.2036 143.794 12.4869 143.489C12.5364 143.506 12.5886 143.519 12.6409 143.533C12.3163 146.105 12.7949 148.536 13.9776 150.893C13.4027 150.934 12.9242 150.94 12.4566 151.014C11.8378 151.11 11.2217 151.24 10.6193 151.399C10.3663 151.465 10.116 151.614 9.90698 151.779C9.41741 152.167 9.29364 152.835 9.57968 153.363C9.85748 153.875 10.4406 154.128 11.0291 153.971C11.3729 153.88 11.703 153.704 12.0495 153.668C12.8169 153.594 13.5925 153.572 14.3654 153.561C14.822 153.553 15.2785 153.599 15.7653 153.624C18.0317 156.025 20.5208 158.121 24.0908 158.407L24.0826 158.41Z" fill="#FFC2C2"/>
<path d="M23.3898 165.273C25.4966 166.885 25.0621 169.464 23.0955 170.826C22.1631 171.469 21.1097 171.816 20.0013 171.973C15.2651 172.644 10.7847 171.923 6.63986 169.453C5.60571 168.835 4.71732 168.045 4.01872 167.052C2.92131 165.498 2.55001 163.785 2.91306 161.926C3.24586 160.207 4.01047 158.686 5.12989 157.341C5.20965 157.244 5.29766 157.154 5.38567 157.066C5.41318 157.038 5.45718 157.027 5.55345 156.978C5.99351 158.141 6.64261 159.139 7.39897 160.069C9.31325 162.418 11.8326 163.796 14.7068 164.571C15.6722 164.83 16.6706 165.006 17.6662 165.108C19.3302 165.278 20.9695 165.121 22.5042 164.445C22.8205 164.745 23.0818 165.042 23.3898 165.276V165.273Z" fill="#FFC2C2"/>
</svg>
