<svg width="298" height="298" viewBox="0 0 298 298" fill="none" xmlns="http://www.w3.org/2000/svg">
<g filter="url(#filter0_d_135_112)">
<circle cx="145" cy="145" r="133" fill="#FFF8F0"/>
</g>
<path d="M129.895 219.201C130.136 218.317 133.151 208.142 133.381 207.232C129.868 205.127 126.173 203.46 122.451 201.804C119.067 209.839 112.921 227.192 109.501 235.213C107.892 238.955 107.922 239.908 110.305 241.997C111.213 242.798 112.317 243.336 113.455 243.739C115.586 244.486 117.87 244.355 120.228 243.892C123.787 243.173 124.151 242.66 125.156 238.413C126.687 231.989 128.306 225.558 129.91 219.164L129.884 219.175L129.895 219.201Z" fill="#F5DDB8"/>
<path d="M127.56 236.125C128.812 229.907 134.056 213.531 135.87 207.351C135.425 207.083 135.137 206.9 134.692 206.632C134.572 206.561 133.874 205.976 133.717 205.89C133.445 206.847 129.719 218.161 129.514 219.06C127.921 225.48 126.704 232.076 125.199 238.49C124.194 242.736 123.855 243.238 120.271 243.968C117.912 244.432 115.618 244.537 113.498 243.816C112.37 243.438 111.256 242.874 110.348 242.074C107.965 239.984 107.971 239.046 109.543 235.289C112.964 227.268 119.155 213.034 122.539 204.998C121.943 204.732 121.029 204.356 120.396 204.075C116.61 212.971 110.312 228.125 106.551 237.01C106.078 238.141 105.915 238.48 106.055 239.99C106.135 240.772 106.792 241.404 107.188 241.995C111.068 247.627 116.739 247.391 122.939 245.427C124.844 244.82 125.948 243.307 126.458 241.165C126.859 239.492 127.196 237.814 127.534 236.136L127.56 236.125Z" fill="black"/>
<path d="M180.924 39.985C180.418 39.8627 179.732 40.4785 179.116 40.824C178.909 40.9099 178.819 41.2789 178.701 41.5085C176.472 45.6584 173.976 49.6774 172.065 53.9367C168.534 61.7622 165.331 69.7229 162.009 77.6127C161.52 78.78 161.011 79.8958 160.542 80.9644C151.84 82.0934 144.463 85.6899 138.006 91.2883C134.702 94.1637 131.992 97.5175 129.775 101.33C126.523 106.899 126.452 112.447 129.686 117.985L129.763 117.953C130.388 119.022 131.168 120.026 131.87 121.062C132.198 121.56 132.515 122.032 132.911 122.622C126.025 125.352 121.946 130.388 119.621 137.02C117.271 143.814 117.947 150.139 122.686 155.868C121.381 156.529 120.314 157.031 119.268 157.585C111.255 161.625 105.532 167.825 102.265 176.144C99.2677 183.718 101.239 191.708 107.344 196.993C110.367 199.602 113.677 201.73 117.438 203.189C118.927 203.779 120.371 204.479 122.038 205.206C122.038 205.206 122.023 205.243 122.007 205.279C122.788 205.258 123.559 205.361 124.28 205.635C124.478 205.674 124.702 205.702 124.911 205.766C128.102 206.285 131.527 206.858 135.337 207.482C135.337 207.482 135.337 207.482 135.322 207.519C135.322 207.519 135.322 207.519 135.348 207.508C135.853 207.48 136.389 207.529 136.885 207.626C137.389 207.598 137.863 207.643 138.359 207.74C139.952 207.774 141.592 207.849 143.2 207.847C148.228 207.816 153.181 207.093 157.602 204.569C166.019 199.819 172.869 190.107 166.753 177.679C165.314 174.716 163.222 172.083 161.327 169.339C160.213 167.749 158.914 166.297 157.533 164.576C158.617 164.187 159.365 163.938 160.101 163.664C163.323 162.572 166.253 160.996 168.84 158.81C172.335 155.885 174.33 152.194 174.89 147.68C175.473 142.854 174.183 138.563 171.651 134.574C170.414 132.613 168.939 130.811 167.431 128.781C168.422 128.461 169.372 128.189 170.311 127.89C175.661 126.219 180.503 123.611 184.683 119.921C196.135 109.812 194.66 92.8994 181.614 84.9995C179.389 83.6586 176.99 82.6309 174.422 81.3414C175.002 78.9296 175.722 76.3397 176.243 73.7112C178.148 64.0856 180.018 54.4449 181.824 44.7999C182.028 43.7506 182.137 42.6198 182.012 41.5856C181.944 40.9805 181.405 40.118 180.899 39.9957L180.924 39.985ZM163.168 175.695C163.854 176.617 164.286 177.735 164.786 178.795C169.589 188.931 165.067 197.227 157.063 202.168C152.919 204.698 148.273 205.505 143.505 205.428C136.993 205.319 130.635 204.483 124.263 202.807C119.358 201.52 114.963 199.63 110.854 196.746C102.193 190.711 101.833 181.993 105.509 174.59C109.537 166.498 115.969 160.911 124.574 157.861C133.554 164.519 143.645 166.525 154.925 165.022C157.597 168.47 160.411 172.041 163.168 175.695ZM172.052 141.043C173.8 146.955 171.982 153.197 167.169 157.119C161.963 161.415 155.758 162.928 149.223 163.13C142.058 163.351 135.19 161.942 129.047 158.031C121.27 153.107 118.809 145.62 122.109 137.016C124.206 131.594 127.637 127.339 133.231 125.083C133.723 124.879 134.173 124.572 134.893 124.184C143.102 129.713 152.235 130.578 161.71 129.702C163.696 129.513 165.316 130.199 166.511 131.545C168.953 134.364 170.95 137.428 172.026 141.054L172.052 141.043ZM185.653 115.297C180.252 121.906 172.912 125.517 164.355 126.556C163.492 126.672 162.653 127.14 161.779 127.23C153.907 128.015 146.225 127.576 139.069 123.783C134.632 121.427 131.791 117.717 130.257 112.984C129.479 110.591 129.555 108.207 130.396 105.839C131.536 102.652 133.315 99.8348 135.466 97.2556L135.487 97.3071C141.137 90.565 148.283 86.1897 156.766 83.9449C157.534 83.7475 158.33 83.6895 159.676 83.4942C158.85 85.8266 158.186 87.6698 157.699 88.9873C155.804 89.4701 154.386 89.7856 153.007 90.2663C152.773 90.3629 152.855 91.2941 152.774 92.0515C157.97 91.1072 160.57 94.1625 162.77 97.7157C163.42 98.7735 163.781 100.012 164.364 101.127C164.747 101.904 165.09 103.028 166.268 102.571C167.486 102.067 166.941 101.116 166.589 100.267C166.237 99.4171 166.185 99.4386 166.077 99.0309C165.832 97.9259 166.859 96.9581 167.807 97.561C168.781 98.1532 169.274 98.0995 170.132 97.3828C170.653 96.9558 171.627 97.0352 172.397 96.9879C173.229 96.945 174.225 97.0758 174.387 96.0738C174.593 94.8121 173.557 94.7285 172.598 94.6126C172.15 94.5569 171.732 94.4281 170.965 94.263C171.911 90.8255 172.81 87.4975 173.684 84.1802C187.57 87.3595 195.632 103.023 185.628 115.307L185.653 115.297ZM177.721 55.9384C175.466 68.2419 172.283 80.3566 169.053 92.4306C168.691 93.7567 168.18 94.7223 166.715 94.997C166.04 95.1257 165.419 95.5334 164.849 95.7695C163.145 94.0015 161.521 92.3516 159.687 90.487C165.426 75.7458 170.598 60.5154 178.641 46.5702C178.849 46.6346 179.058 46.6989 179.267 46.7633C178.74 49.8167 178.259 52.9108 177.721 55.9384Z" fill="black"/>
<path d="M164.775 178.725C169.577 188.861 165.056 197.157 157.052 202.099C152.908 204.629 148.262 205.436 143.494 205.359C136.982 205.249 130.624 204.413 124.252 202.737C119.347 201.45 114.952 199.56 110.843 196.676C102.182 190.641 101.822 181.923 105.498 174.52C109.526 166.428 115.958 160.841 124.563 157.791C133.543 164.449 143.634 166.455 154.914 164.952C157.586 168.4 160.4 171.971 163.157 175.625C163.843 176.547 164.275 177.665 164.775 178.725Z" fill="#B5BE56"/>
<path d="M173.731 84.1746C187.628 87.3797 195.716 103.032 185.675 115.302C180.273 121.911 172.933 125.522 164.376 126.561C163.513 126.677 162.674 127.145 161.801 127.235C153.928 128.021 146.221 127.592 139.09 123.788C134.654 121.432 131.812 117.722 130.278 112.989C129.5 110.596 129.576 108.213 130.417 105.844C131.558 102.657 133.337 99.8399 135.487 97.2607C141.137 90.5187 148.283 86.1433 156.766 83.8985C157.534 83.7011 158.33 83.6431 159.676 83.4478C158.851 85.7802 158.186 87.6234 157.7 88.9409C155.804 89.4237 154.387 89.7392 153.017 90.2457C152.784 90.3422 152.866 91.2734 152.785 92.0309C158.006 91.0758 160.581 94.1419 162.781 97.6951C163.442 98.7786 163.818 99.9802 164.375 101.107C164.757 101.883 165.101 103.008 166.278 102.551C167.497 102.046 166.951 101.096 166.6 100.246C166.248 99.3965 166.196 99.418 166.088 99.0103C165.843 97.9053 166.87 96.9375 167.817 97.5404C168.791 98.1326 169.285 98.0789 170.142 97.3622C170.664 96.9352 171.638 97.0145 172.408 96.9673C173.24 96.9244 174.235 97.0552 174.398 96.0531C174.604 94.7915 173.567 94.7078 172.609 94.592C172.16 94.5362 171.743 94.4075 170.95 94.2531C171.896 90.8156 172.795 87.4876 173.669 84.1703L173.731 84.1746Z" fill="#ED6A6C"/>
<path d="M172.053 140.994C173.801 146.905 171.982 153.147 167.195 157.059C161.99 161.355 155.785 162.868 149.25 163.07C142.085 163.291 135.216 161.881 129.099 157.959C121.312 153.01 118.825 145.534 122.161 136.945C124.259 131.522 127.689 127.267 133.294 125.038C133.787 124.834 134.237 124.527 134.956 124.139C143.155 129.642 152.298 130.532 161.773 129.656C163.759 129.467 165.379 130.154 166.574 131.499C169.006 134.293 171.002 137.357 172.078 140.983L172.053 140.994Z" fill="#F5DDB8"/>
<path d="M169.038 92.3907C168.676 93.7168 168.165 94.6823 166.7 94.9571C166.024 95.0858 165.404 95.4935 164.808 95.7403C163.115 93.9981 161.48 92.3224 159.645 90.4578C165.385 75.7166 170.557 60.4863 178.625 46.5303C178.834 46.5947 179.043 46.659 179.252 46.7234C178.724 49.7767 178.244 52.8709 177.706 55.8985C175.451 68.202 172.258 80.291 169.038 92.3907Z" fill="#F5DDB8"/>
<defs>
<filter id="filter0_d_135_112" x="0.7" y="0.7" width="296.6" height="296.6" filterUnits="userSpaceOnUse" color-interpolation-filters="sRGB">
<feFlood flood-opacity="0" result="BackgroundImageFix"/>
<feColorMatrix in="SourceAlpha" type="matrix" values="0 0 0 0 0 0 0 0 0 0 0 0 0 0 0 0 0 0 127 0" result="hardAlpha"/>
<feOffset dx="4" dy="4"/>
<feGaussianBlur stdDeviation="7.65"/>
<feComposite in2="hardAlpha" operator="out"/>
<feColorMatrix type="matrix" values="0 0 0 0 0.768627 0 0 0 0 0.717647 0 0 0 0 0.729412 0 0 0 0.5 0"/>
<feBlend mode="normal" in2="BackgroundImageFix" result="effect1_dropShadow_135_112"/>
<feBlend mode="normal" in="SourceGraphic" in2="effect1_dropShadow_135_112" result="shape"/>
</filter>
</defs>
</svg>
