<svg width="1039" height="846" viewBox="0 0 872.00 647.20" xmlns="http://www.w3.org/2000/svg" xmlns:xlink="http://www.w3.org/1999/xlink">
<g id="graph0" class="graph" transform="translate(4,643.2000061035156) scale(1)">
<title>G</title>
<polygon fill="white" stroke="none" points="-4,4 -4,-643.2 868,-643.2 868,4 -4,4"/>
<g id="clust1" class="cluster">
<title>cluster_bin</title>
<path fill="whitesmoke" stroke="whitesmoke" d="M601,-530.4C601,-530.4 671,-530.4 671,-530.4 677,-530.4 683,-536.4 683,-542.4 683,-542.4 683,-619.2 683,-619.2 683,-625.2 677,-631.2 671,-631.2 671,-631.2 601,-631.2 601,-631.2 595,-631.2 589,-625.2 589,-619.2 589,-619.2 589,-542.4 589,-542.4 589,-536.4 595,-530.4 601,-530.4"/>
<text text-anchor="middle" x="636" y="-614.6" font-family="Helvetica,sans-Serif" font-weight="bold" font-size="14.00">Binaries</text>
</g>
<g id="clust2" class="cluster">
<title>cluster_clients</title>
<path fill="whitesmoke" stroke="whitesmoke" d="M716,-260.8C716,-260.8 822,-260.8 822,-260.8 828,-260.8 834,-266.8 834,-272.8 834,-272.8 834,-349.6 834,-349.6 834,-355.6 828,-361.6 822,-361.6 822,-361.6 716,-361.6 716,-361.6 710,-361.6 704,-355.6 704,-349.6 704,-349.6 704,-272.8 704,-272.8 704,-266.8 710,-260.8 716,-260.8"/>
<text text-anchor="middle" x="769" y="-345" font-family="Helvetica,sans-Serif" font-weight="bold" font-size="14.00">Clients</text>
</g>
<g id="clust3" class="cluster">
<title>cluster_contracts</title>
<path fill="whitesmoke" stroke="whitesmoke" d="M572,-152C572,-152 760,-152 760,-152 766,-152 772,-158 772,-164 772,-164 772,-240.8 772,-240.8 772,-246.8 766,-252.8 760,-252.8 760,-252.8 572,-252.8 572,-252.8 566,-252.8 560,-246.8 560,-240.8 560,-240.8 560,-164 560,-164 560,-158 566,-152 572,-152"/>
<text text-anchor="middle" x="666" y="-236.2" font-family="Helvetica,sans-Serif" font-weight="bold" font-size="14.00">Contracts</text>
</g>
<g id="clust4" class="cluster">
<title>cluster_libraries</title>
<path fill="whitesmoke" stroke="whitesmoke" d="M20,-8C20,-8 540,-8 540,-8 546,-8 552,-14 552,-20 552,-20 552,-510.4 552,-510.4 552,-516.4 546,-522.4 540,-522.4 540,-522.4 20,-522.4 20,-522.4 14,-522.4 8,-516.4 8,-510.4 8,-510.4 8,-20 8,-20 8,-14 14,-8 20,-8"/>
<text text-anchor="middle" x="280" y="-505.8" font-family="Helvetica,sans-Serif" font-weight="bold" font-size="14.00">Libraries</text>
</g>
<!-- b -->
<g id="node1" class="node">
<title>cli</title>
<ellipse fill="orange" stroke="black" cx="636" cy="-568.4" rx="27" ry="18"/>
<text text-anchor="middle" x="636" y="-564.2" font-family="Helvetica,sans-Serif" font-size="14.00">cli</text>
</g>
<!-- d -->
<g id="node2" class="node">
<title>sdk/rust</title>
<ellipse fill="cyan" stroke="black" cx="769" cy="-298.8" rx="44.85" ry="18"/>
<text text-anchor="middle" x="769" y="-294.6" font-family="Helvetica,sans-Serif" font-size="14.00">sdk/rust</text>
</g>
<!-- b&#45;&gt;d -->
<g id="edge4" class="edge">
<title>cli-&gt;sdk/rust</title>
<path fill="none" stroke="black" d="M654.74,-554.9C665.72,-546.76 679.13,-535.28 688,-522.4 730.85,-460.2 753.91,-372.68 763.52,-328.18"/>
<polygon fill="black" stroke="black" points="766.91,-329.06 765.52,-318.56 760.05,-327.64 766.91,-329.06"/>
</g>
<!-- c -->
<g id="node5" class="node">
<title>app</title>
<ellipse fill="yellow" stroke="black" cx="237" cy="-190" rx="27.15" ry="18"/>
<text text-anchor="middle" x="237" y="-185.8" font-family="Helvetica,sans-Serif" font-size="14.00">app</text>
</g>
<!-- crypto -->
<g id="edge1" class="edge">
<title>cli-&gt;app</title>
<path fill="none" stroke="black" d="M631.3,-550.52C614.39,-491.15 554.79,-293.8 501,-260.8 485.07,-251.03 350.8,-258.5 333,-252.8 306.47,-244.31 280.15,-226.52 261.79,-212.2"/>
<polygon fill="black" stroke="black" points="264.12,-209.59 254.14,-206.04 259.74,-215.04 264.12,-209.59"/>
</g>
<!-- db/disk -->
<g id="node7" class="node">
<title>db/disk</title>
<ellipse fill="yellow" stroke="black" cx="450" cy="-298.8" rx="41.63" ry="18"/>
<text text-anchor="middle" x="450" y="-294.6" font-family="Helvetica,sans-Serif" font-size="14.00">db/disk</text>
</g>
<!-- db/memory -->
<g id="edge2" class="edge">
<title>cli-&gt;db/disk</title>
<path fill="none" stroke="black" d="M616.91,-555.13C605.81,-547.08 592.39,-535.6 584,-522.4 546.17,-462.85 580.57,-428.01 541,-369.6 526.83,-348.68 504.35,-331.35 485.28,-319.19"/>
<polygon fill="black" stroke="black" points="487.33,-316.34 476.97,-314.11 483.67,-322.31 487.33,-316.34"/>
</g>
<!-- db/disk&#45;&gt;db/memory -->
<g id="node10" class="node">
<title>jmt</title>
<ellipse fill="yellow" stroke="black" cx="417" cy="-190" rx="74.89" ry="18"/>
<text text-anchor="middle" x="417" y="-185.8" font-family="Helvetica,sans-Serif" font-size="14.00">jellyfish-merkle</text>
</g>
<!-- jmt -->
<g id="edge3" class="edge">
<title>cli-&gt;jmt</title>
<path fill="none" stroke="black" d="M638.12,-550.12C643.41,-498.72 651.63,-345.09 574,-260.8 574,-260.8 508.3,-231.59 461.91,-210.96"/>
<polygon fill="black" stroke="black" points="463.4,-207.8 452.84,-206.93 460.55,-214.19 463.4,-207.8"/>
</g>
<!-- ffi&#45;&gt;types -->
<g id="node15" class="node">
<title>types</title>
<ellipse fill="yellow" stroke="black" cx="336" cy="-46" rx="34.12" ry="18"/>
<text text-anchor="middle" x="336" y="-41.8" font-family="Helvetica,sans-Serif" font-size="14.00">types</text>
</g>
<!-- storage&#45;&gt;types -->
<g id="edge5" class="edge">
<title>cli-&gt;types</title>
<path fill="none" stroke="black" d="M660.83,-560.84C719.93,-543.57 864,-490.97 864,-388.6 864,-388.6 864,-388.6 864,-189 864,-89.36 508.89,-57.64 381.12,-49.46"/>
<polygon fill="black" stroke="black" points="381.54,-45.98 371.34,-48.85 381.11,-52.97 381.54,-45.98"/>
</g>
<!-- bank -->
<g id="node17" class="node">
<title>vm/wasm</title>
<ellipse fill="yellow" stroke="black" cx="213" cy="-459.6" rx="51.81" ry="18"/>
<text text-anchor="middle" x="213" y="-455.4" font-family="Helvetica,sans-Serif" font-size="14.00">vm/wasm</text>
</g>
<!-- bank&#45;&gt;ffi -->
<g id="edge6" class="edge">
<title>cli-&gt;vm/wasm</title>
<path fill="none" stroke="black" d="M609.28,-564.69C561.03,-559.41 456.44,-546.09 371,-522.4 330.12,-511.06 285.23,-492.92 253.78,-479.22"/>
<polygon fill="black" stroke="black" points="255.19,-476.02 244.63,-475.19 252.37,-482.43 255.19,-476.02"/>
</g>
<!-- bank&#45;&gt;storage -->
<g id="node3" class="node">
<title>account</title>
<ellipse fill="#00ff00" stroke="black" cx="707" cy="-190" rx="44.86" ry="18"/>
<text text-anchor="middle" x="707" y="-185.8" font-family="Helvetica,sans-Serif" font-size="14.00">account</text>
</g>
<!-- bank&#45;&gt;types -->
<g id="edge7" class="edge">
<title>sdk/rust-&gt;account</title>
<path fill="none" stroke="black" d="M759.31,-281.11C749.45,-264.13 734.01,-237.54 722.46,-217.63"/>
<polygon fill="black" stroke="black" points="725.63,-216.12 717.58,-209.23 719.58,-219.64 725.63,-216.12"/>
</g>
<!-- app -->
<g id="node6" class="node">
<title>crypto</title>
<ellipse fill="yellow" stroke="black" cx="128" cy="-190" rx="37.33" ry="18"/>
<text text-anchor="middle" x="128" y="-185.8" font-family="Helvetica,sans-Serif" font-size="14.00">crypto</text>
</g>
<!-- app&#45;&gt;storage -->
<g id="edge8" class="edge">
<title>sdk/rust-&gt;crypto</title>
<path fill="none" stroke="black" d="M730.37,-289.3C687.88,-280.36 617.45,-266.8 556,-260.8 516.73,-256.97 237.89,-266.79 201,-252.8 180.69,-245.09 162.07,-229.12 148.72,-215.35"/>
<polygon fill="black" stroke="black" points="151.51,-213.21 142.15,-208.26 146.38,-217.97 151.51,-213.21"/>
</g>
<!-- sdk/rust&#45;&gt;types -->
<g id="edge9" class="edge">
<title>sdk/rust-&gt;types</title>
<path fill="none" stroke="black" d="M776.14,-280.57C787.08,-251.12 803.97,-190.57 776,-152 729.56,-87.95 483.66,-59.68 381.04,-50.54"/>
<polygon fill="black" stroke="black" points="381.61,-47.08 371.34,-49.7 381,-54.05 381.61,-47.08"/>
</g>
<!-- ffi -->
<g id="node9" class="node">
<title>ffi</title>
<ellipse fill="yellow" stroke="black" cx="505" cy="-118" rx="27" ry="18"/>
<text text-anchor="middle" x="505" y="-113.8" font-family="Helvetica,sans-Serif" font-size="14.00">ffi</text>
</g>
<!-- account&#45;&gt;ffi -->
<g id="edge10" class="edge">
<title>account-&gt;ffi</title>
<path fill="none" stroke="black" d="M688.06,-173.37C678.15,-165.91 665.51,-157.44 653,-152 617.36,-136.51 573.6,-127.91 542.94,-123.4"/>
<polygon fill="black" stroke="black" points="543.76,-119.98 533.38,-122.08 542.81,-126.92 543.76,-119.98"/>
</g>
<!-- storage -->
<g id="node13" class="node">
<title>storage</title>
<ellipse fill="yellow" stroke="black" cx="417" cy="-118" rx="43.25" ry="18"/>
<text text-anchor="middle" x="417" y="-113.8" font-family="Helvetica,sans-Serif" font-size="14.00">storage</text>
</g>
<!-- account&#45;&gt;storage -->
<g id="edge11" class="edge">
<title>account-&gt;storage</title>
<path fill="none" stroke="black" d="M689.32,-173.42C679.35,-165.58 666.27,-156.75 653,-152 575.72,-124.34 549.43,-152.42 469,-136 465.86,-135.36 462.64,-134.59 459.43,-133.74"/>
<polygon fill="black" stroke="black" points="460.62,-130.44 450.04,-131.02 458.67,-137.17 460.62,-130.44"/>
</g>
<!-- account&#45;&gt;types -->
<g id="edge12" class="edge">
<title>account-&gt;types</title>
<path fill="none" stroke="black" d="M688.35,-173.26C663.6,-153.19 617.79,-118.84 573,-100 509.09,-73.12 429.5,-58.9 380.74,-52.17"/>
<polygon fill="black" stroke="black" points="381.21,-48.7 370.83,-50.86 380.28,-55.64 381.21,-48.7"/>
</g>
<!-- bank -->
<g id="node4" class="node">
<title>bank</title>
<ellipse fill="#00ff00" stroke="black" cx="612" cy="-190" rx="31.98" ry="18"/>
<text text-anchor="middle" x="612" y="-185.8" font-family="Helvetica,sans-Serif" font-size="14.00">bank</text>
</g>
<!-- bank&#45;&gt;ffi -->
<g id="edge13" class="edge">
<title>bank-&gt;ffi</title>
<path fill="none" stroke="black" d="M591.81,-175.6C581.17,-168.55 567.9,-159.78 556,-152 548.72,-147.24 540.83,-142.12 533.49,-137.37"/>
<polygon fill="black" stroke="black" points="535.49,-134.49 525.19,-132 531.69,-140.37 535.49,-134.49"/>
</g>
<!-- bank&#45;&gt;storage -->
<g id="edge14" class="edge">
<title>bank-&gt;storage</title>
<path fill="none" stroke="black" d="M594.38,-174.68C583.84,-166.82 569.84,-157.57 556,-152 519.53,-137.31 507.1,-145.69 469,-136 466.08,-135.26 463.09,-134.44 460.08,-133.57"/>
<polygon fill="black" stroke="black" points="461.29,-130.28 450.71,-130.73 459.26,-136.98 461.29,-130.28"/>
</g>
<!-- bank&#45;&gt;types -->
<g id="edge15" class="edge">
<title>bank-&gt;types</title>
<path fill="none" stroke="black" d="M603.3,-172.52C591.77,-152.31 569.53,-118.49 541,-100 492.02,-68.24 424.92,-55.49 381.03,-50.38"/>
<polygon fill="black" stroke="black" points="381.67,-46.93 371.35,-49.35 380.92,-53.89 381.67,-46.93"/>
</g>
<!-- app&#45;&gt;storage -->
<g id="edge23" class="edge">
<title>app-&gt;storage</title>
<path fill="none" stroke="black" d="M260.16,-179.99C289.25,-168.68 339.67,-149.07 375.48,-135.15"/>
<polygon fill="black" stroke="black" points="376.63,-138.46 384.68,-131.57 374.09,-131.93 376.63,-138.46"/>
</g>
<!-- app&#45;&gt;types -->
<g id="edge24" class="edge">
<title>app-&gt;types</title>
<path fill="none" stroke="black" d="M242.46,-172.19C249.05,-153.45 261.34,-122.8 278,-100 286.47,-88.42 297.77,-77.4 308.14,-68.45"/>
<polygon fill="black" stroke="black" points="310.31,-71.2 315.77,-62.11 305.84,-65.81 310.31,-71.2"/>
</g>
<!-- db/disk&#45;&gt;app -->
<g id="edge25" class="edge">
<title>db/disk-&gt;app</title>
<path fill="none" stroke="black" d="M427.23,-283.31C413.72,-275.4 395.97,-266.15 379,-260.8 352.92,-252.58 343.28,-263.22 318,-252.8 295.99,-243.73 274.74,-227.11 259.53,-213.39"/>
<polygon fill="black" stroke="black" points="262.12,-211.02 252.41,-206.76 257.34,-216.14 262.12,-211.02"/>
</g>
<!-- db/disk&#45;&gt;jmt -->
<g id="edge26" class="edge">
<title>db/disk-&gt;jmt</title>
<path fill="none" stroke="black" d="M444.7,-280.64C439.57,-264.06 431.72,-238.65 425.69,-219.11"/>
<polygon fill="black" stroke="black" points="429.03,-218.08 422.74,-209.56 422.34,-220.15 429.03,-218.08"/>
</g>
<!-- db/disk&#45;&gt;types -->
<g id="edge27" class="edge">
<title>db/disk-&gt;types</title>
<path fill="none" stroke="black" d="M431.23,-282.27C420.88,-274.55 407.43,-265.81 394,-260.8 381.19,-256.02 342.02,-263.08 333,-252.8 310.57,-227.24 323.15,-125.95 331.08,-75.65"/>
<polygon fill="black" stroke="black" points="334.53,-76.25 332.68,-65.81 327.62,-75.12 334.53,-76.25"/>
</g>
<!-- db/memory -->
<g id="node8" class="node">
<title>db/memory</title>
<ellipse fill="yellow" stroke="black" cx="311" cy="-298.8" rx="59.34" ry="18"/>
<text text-anchor="middle" x="311" y="-294.6" font-family="Helvetica,sans-Serif" font-size="14.00">db/memory</text>
</g>
<!-- db/memory&#45;&gt;app -->
<g id="edge28" class="edge">
<title>db/memory-&gt;app</title>
<path fill="none" stroke="black" d="M298.27,-280.84C292.06,-272.47 284.54,-262.18 278,-252.8 269.76,-241 260.9,-227.72 253.53,-216.5"/>
<polygon fill="black" stroke="black" points="256.48,-214.61 248.07,-208.15 250.62,-218.44 256.48,-214.61"/>
</g>
<!-- db/memory&#45;&gt;jmt -->
<g id="edge29" class="edge">
<title>db/memory-&gt;jmt</title>
<path fill="none" stroke="black" d="M327.56,-281.11C344.89,-263.66 372.27,-236.06 392.18,-216.01"/>
<polygon fill="black" stroke="black" points="394.58,-218.56 399.14,-209 389.61,-213.63 394.58,-218.56"/>
</g>
<!-- db/memory&#45;&gt;types -->
<g id="edge30" class="edge">
<title>db/memory-&gt;types</title>
<path fill="none" stroke="black" d="M304.77,-280.53C302.12,-272.26 299.32,-262.14 298,-252.8 288.48,-185.56 277.22,-164.65 298,-100 301.32,-89.66 307.49,-79.63 313.9,-71.13"/>
<polygon fill="black" stroke="black" points="316.58,-73.39 320.16,-63.42 311.14,-68.98 316.58,-73.39"/>
</g>
<!-- ffi&#45;&gt;types -->
<g id="edge31" class="edge">
<title>ffi-&gt;types</title>
<path fill="none" stroke="black" d="M483.78,-106.71C478.95,-104.44 473.82,-102.09 469,-100 437.15,-86.15 400.44,-71.63 373.67,-61.29"/>
<polygon fill="black" stroke="black" points="375.21,-58.14 364.62,-57.82 372.7,-64.67 375.21,-58.14"/>
</g>
<!-- jmt&#45;&gt;storage -->
<g id="edge32" class="edge">
<title>jmt-&gt;storage</title>
<path fill="none" stroke="black" d="M417,-171.7C417,-164.41 417,-155.73 417,-147.54"/>
<polygon fill="black" stroke="black" points="420.5,-147.62 417,-137.62 413.5,-147.62 420.5,-147.62"/>
</g>
<!-- jmt&#45;&gt;types -->
<g id="edge33" class="edge">
<title>jmt-&gt;types</title>
<path fill="none" stroke="black" d="M396.65,-172.39C385.95,-162.73 373.36,-149.78 365,-136 353.66,-117.31 346.23,-93.68 341.73,-75.47"/>
<polygon fill="black" stroke="black" points="345.17,-74.83 339.53,-65.87 338.35,-76.4 345.17,-74.83"/>
</g>
<!-- macros -->
<g id="node11" class="node">
<title>macros</title>
<ellipse fill="yellow" stroke="black" cx="489" cy="-387.6" rx="42.7" ry="18"/>
<text text-anchor="middle" x="489" y="-383.4" font-family="Helvetica,sans-Serif" font-size="14.00">macros</text>
</g>
<!-- std -->
<g id="node12" class="node">
<title>std</title>
<ellipse fill="yellow" stroke="black" cx="407" cy="-459.6" rx="27" ry="18"/>
<text text-anchor="middle" x="407" y="-455.4" font-family="Helvetica,sans-Serif" font-size="14.00">std</text>
</g>
<!-- std&#45;&gt;ffi -->
<g id="edge34" class="edge">
<title>std-&gt;ffi</title>
<path fill="none" stroke="black" d="M410.5,-441.37C415.58,-418.14 425.66,-378.65 437,-369.6 450.79,-358.6 504.17,-374.69 516,-361.6 570.16,-301.68 537.1,-195.58 517.03,-145.97"/>
<polygon fill="black" stroke="black" points="520.3,-144.72 513.21,-136.85 513.84,-147.43 520.3,-144.72"/>
</g>
<!-- std&#45;&gt;macros -->
<g id="edge35" class="edge">
<title>std-&gt;macros</title>
<path fill="none" stroke="black" d="M423.2,-444.77C434.35,-435.25 449.42,-422.39 462.32,-411.37"/>
<polygon fill="black" stroke="black" points="464.35,-414.24 469.68,-405.09 459.81,-408.92 464.35,-414.24"/>
</g>
<!-- std&#45;&gt;storage -->
<g id="edge36" class="edge">
<title>std-&gt;storage</title>
<path fill="none" stroke="black" d="M404.36,-441.38C402.32,-421.08 402.55,-387.8 422,-369.6 434.88,-357.54 489.17,-374.69 501,-361.6 532.23,-327.05 527.23,-190.49 501,-152 498.35,-148.11 479.7,-140.61 460.64,-133.74"/>
<polygon fill="black" stroke="black" points="461.83,-130.45 451.23,-130.41 459.5,-137.05 461.83,-130.45"/>
</g>
<!-- testing -->
<g id="node14" class="node">
<title>testing</title>
<ellipse fill="yellow" stroke="black" cx="271" cy="-387.6" rx="39.49" ry="18"/>
<text text-anchor="middle" x="271" y="-383.4" font-family="Helvetica,sans-Serif" font-size="14.00">testing</text>
</g>
<!-- std&#45;&gt;testing -->
<g id="edge37" class="edge">
<title>std-&gt;testing</title>
<path fill="none" stroke="black" d="M386.05,-447.82C364.83,-436.89 331.63,-419.8 306.33,-406.79"/>
<polygon fill="black" stroke="black" points="308.22,-403.82 297.72,-402.36 305.01,-410.04 308.22,-403.82"/>
</g>
<!-- std&#45;&gt;types -->
<g id="edge38" class="edge">
<title>std-&gt;types</title>
<path fill="none" stroke="black" d="M404.84,-441.37C398.85,-393.81 382.23,-263.98 379,-260.8 358.9,-240.99 334.66,-273.98 316,-252.8 293.55,-227.32 312.79,-133.39 319,-100 320.56,-91.61 323.07,-82.69 325.69,-74.62"/>
<polygon fill="black" stroke="black" points="328.94,-75.93 328.88,-65.34 322.32,-73.65 328.94,-75.93"/>
</g>
<!-- storage&#45;&gt;types -->
<g id="edge39" class="edge">
<title>storage-&gt;types</title>
<path fill="none" stroke="black" d="M399.02,-101.46C388,-91.94 373.7,-79.58 361.52,-69.05"/>
<polygon fill="black" stroke="black" points="364.09,-66.65 354.24,-62.76 359.52,-71.95 364.09,-66.65"/>
</g>
<!-- testing&#45;&gt;account -->
<g id="edge17" class="edge">
<title>testing-&gt;account</title>
<path fill="none" stroke="black" d="M309.21,-382.3C342.83,-378.62 393.12,-373.32 437,-369.6 463.41,-367.36 532.19,-373.25 556,-361.6 620.44,-330.08 669.37,-257.59 692.41,-218.01"/>
<polygon fill="black" stroke="black" points="695.45,-219.74 697.35,-209.32 689.36,-216.29 695.45,-219.74"/>
</g>
<!-- testing&#45;&gt;bank -->
<g id="edge18" class="edge">
<title>testing-&gt;bank</title>
<path fill="none" stroke="black" d="M309.34,-382.64C374.25,-375.91 498.98,-362.84 501,-361.6 554.98,-328.42 587.79,-258.03 602.61,-218.83"/>
<polygon fill="black" stroke="black" points="605.83,-220.22 605.96,-209.62 599.26,-217.82 605.83,-220.22"/>
</g>
<!-- testing&#45;&gt;app -->
<g id="edge16" class="edge">
<title>testing-&gt;app</title>
<path fill="none" stroke="black" d="M250.36,-371.88C247.41,-368.83 244.77,-365.38 243,-361.6 221.44,-315.64 226.05,-254.8 231.46,-219.57"/>
<polygon fill="black" stroke="black" points="234.9,-220.18 233.11,-209.74 228,-219.02 234.9,-220.18"/>
</g>
<!-- testing&#45;&gt;crypto -->
<g id="edge19" class="edge">
<title>testing-&gt;crypto</title>
<path fill="none" stroke="black" d="M231.09,-386.59C185.71,-385.63 115.73,-380.94 99,-361.6 64.02,-321.17 91.68,-254.53 111.8,-217.64"/>
<polygon fill="black" stroke="black" points="114.83,-219.38 116.72,-208.96 108.74,-215.93 114.83,-219.38"/>
</g>
<!-- testing&#45;&gt;db/memory -->
<g id="edge20" class="edge">
<title>testing-&gt;db/memory</title>
<path fill="none" stroke="black" d="M278.71,-369.86C284.28,-357.77 291.93,-341.17 298.39,-327.17"/>
<polygon fill="black" stroke="black" points="301.4,-329 302.4,-318.45 295.04,-326.07 301.4,-329"/>
</g>
<!-- testing&#45;&gt;types -->
<g id="edge21" class="edge">
<title>testing-&gt;types</title>
<path fill="none" stroke="black" d="M231.12,-387.34C180.54,-387.34 97.52,-383.81 78,-361.6 16.49,-291.61 28.88,-228.55 82,-152 129.82,-83.09 231.73,-59.31 290.9,-51.17"/>
<polygon fill="black" stroke="black" points="291.15,-54.67 300.63,-49.93 290.27,-47.72 291.15,-54.67"/>
</g>
<!-- vm/rust -->
<g id="node16" class="node">
<title>vm/rust</title>
<ellipse fill="yellow" stroke="black" cx="151" cy="-298.8" rx="42.69" ry="18"/>
<text text-anchor="middle" x="151" y="-294.6" font-family="Helvetica,sans-Serif" font-size="14.00">vm/rust</text>
</g>
<!-- testing&#45;&gt;vm/rust -->
<g id="edge22" class="edge">
<title>testing-&gt;vm/rust</title>
<path fill="none" stroke="black" d="M246.5,-373.2C240.35,-369.61 233.84,-365.61 228,-361.6 210.56,-349.63 192.04,-334.84 177.54,-322.73"/>
<polygon fill="black" stroke="black" points="180.13,-320.34 170.23,-316.57 175.62,-325.69 180.13,-320.34"/>
</g>
<!-- vm/rust&#45;&gt;app -->
<g id="edge40" class="edge">
<title>vm/rust-&gt;app</title>
<path fill="none" stroke="black" d="M167.15,-282.11C175.5,-273.71 185.66,-263.01 194,-252.8 203.41,-241.29 212.94,-227.82 220.63,-216.39"/>
<polygon fill="black" stroke="black" points="223.42,-218.51 226.03,-208.24 217.59,-214.64 223.42,-218.51"/>
</g>
<!-- vm/rust&#45;&gt;crypto -->
<g id="edge41" class="edge">
<title>vm/rust-&gt;crypto</title>
<path fill="none" stroke="black" d="M147.3,-280.64C143.73,-264.06 138.26,-238.65 134.05,-219.11"/>
<polygon fill="black" stroke="black" points="137.53,-218.64 132,-209.6 130.69,-220.11 137.53,-218.64"/>
</g>
<!-- vm/rust&#45;&gt;types -->
<g id="edge42" class="edge">
<title>vm/rust-&gt;types</title>
<path fill="none" stroke="black" d="M160.61,-281.09C165.11,-272.78 170.28,-262.46 174,-252.8 190.65,-209.51 177.81,-192.17 201,-152 224.24,-111.74 269.54,-81.45 301.23,-64"/>
<polygon fill="black" stroke="black" points="302.49,-67.3 309.66,-59.5 299.19,-61.12 302.49,-67.3"/>
</g>
<!-- vm/wasm&#45;&gt;app -->
<g id="edge43" class="edge">
<title>vm/wasm-&gt;app</title>
<path fill="none" stroke="black" d="M212.82,-441.32C212.69,-406.84 213.43,-327.11 222,-260.8 223.8,-246.87 226.95,-231.6 229.89,-218.9"/>
<polygon fill="black" stroke="black" points="233.21,-220.09 232.15,-209.54 226.4,-218.45 233.21,-220.09"/>
</g>
<!-- vm/wasm&#45;&gt;crypto -->
<g id="edge44" class="edge">
<title>vm/wasm-&gt;crypto</title>
<path fill="none" stroke="black" d="M179.79,-445.52C147.13,-430.65 99.2,-402.94 78,-361.6 57.56,-321.74 64.3,-303.45 78,-260.8 83.43,-243.9 94.63,-227.62 105.05,-215.03"/>
<polygon fill="black" stroke="black" points="107.5,-217.56 111.42,-207.71 102.22,-212.96 107.5,-217.56"/>
</g>
<!-- vm/wasm&#45;&gt;testing -->
<g id="edge45" class="edge">
<title>vm/wasm-&gt;testing</title>
<path fill="none" stroke="black" d="M226.75,-442.01C233.85,-433.43 242.67,-422.79 250.56,-413.27"/>
<polygon fill="black" stroke="black" points="253.1,-415.69 256.79,-405.75 247.71,-411.22 253.1,-415.69"/>
</g>
<!-- vm/wasm&#45;&gt;types -->
<g id="edge46" class="edge">
<title>vm/wasm-&gt;types</title>
<path fill="none" stroke="black" d="M168.25,-450.06C139.47,-442.57 102.92,-429.08 78,-405.6 40.28,-370.07 29,-351.62 29,-299.8 29,-299.8 29,-299.8 29,-189 29,-172.41 26.17,-166.63 34,-152 50.49,-121.18 61.81,-115.79 93,-100 156.98,-67.62 240.2,-54.94 290.79,-50.04"/>
<polygon fill="black" stroke="black" points="290.84,-53.55 300.48,-49.16 290.21,-46.58 290.84,-53.55"/>
</g>
</g>
</svg>