<svg width="60" height="60" viewBox="0 0 60 60" fill="none" xmlns="http://www.w3.org/2000/svg">
<path d="M55.8181 41.6864C55.8181 42.1217 55.8181 42.5563 55.8181 42.9916C55.8089 43.0467 55.7913 43.1024 55.7913 43.1574C55.7899 43.6965 55.7278 44.2306 55.6487 44.7626C55.4865 45.8513 55.2332 46.9181 54.8536 47.9524C54.5149 48.8753 54.0372 49.7149 53.3656 50.4388C52.9719 50.8628 52.5231 51.2149 52.0066 51.4732C50.9688 51.991 49.9753 51.9247 49.0433 51.2121C48.6863 50.939 48.3829 50.6131 48.124 50.2455C47.7691 49.7417 47.5024 49.1928 47.3027 48.6107C46.9697 47.6384 46.7862 46.6323 46.6126 45.6227C46.5188 45.0766 46.4095 44.5333 46.3064 43.9808C46.0567 43.9357 45.8217 43.887 45.5854 43.851C44.7775 43.7261 43.9696 43.5991 43.1596 43.4848C42.361 43.3719 41.563 43.2527 40.7607 43.1744C39.423 43.0431 38.0824 42.9408 36.7426 42.8308C36.5796 42.8174 36.4145 42.8286 36.2346 42.8286C36.2565 42.9627 36.2748 43.0805 36.296 43.1977C36.4173 43.8722 36.3178 44.5086 35.9517 45.0928C35.685 45.5182 35.3646 45.8957 34.9568 46.1949C34.9258 46.2182 34.8976 46.245 34.8609 46.2767C34.9159 46.6062 34.9667 46.9336 35.026 47.2596C35.2115 48.2727 35.4564 49.2718 35.7097 50.2695C35.7908 50.5905 35.8621 50.9151 35.9143 51.2424C35.9728 51.6114 35.8367 51.8019 35.4825 51.9042C35.4719 51.9071 35.4627 51.9155 35.4528 51.9212C35.3498 51.9212 35.2468 51.9212 35.1438 51.9212C35.0097 51.9 34.8757 51.8746 34.7409 51.8591C34.0135 51.7751 33.2854 51.6961 32.5579 51.6107C32.2171 51.5705 31.8771 51.5225 31.5377 51.4739C31.4474 51.4612 31.3528 51.4449 31.2738 51.4047C31.1962 51.3652 31.0995 51.3045 31.0741 51.2319C31.0092 51.0463 30.9239 50.8699 30.9147 50.6603C30.8822 49.9061 30.8279 49.1526 30.7806 48.399C30.7771 48.3376 30.7623 48.277 30.7489 48.1958C29.9699 48.5917 29.2284 49.0263 28.3733 49.2358C28.3733 49.3014 28.3733 49.3635 28.3733 49.4249C28.3754 49.8828 28.3796 50.3407 28.3775 50.7986C28.3768 50.9235 28.3676 51.0505 28.3457 51.174C28.2872 51.5028 28.0685 51.6644 27.7333 51.6361C27.4652 51.6136 27.1978 51.5867 26.9297 51.5677C26.2559 51.5211 25.5828 51.4781 24.909 51.4329C24.8462 51.4287 24.7834 51.4245 24.7213 51.416C24.4313 51.3751 24.2789 51.1818 24.3085 50.8897C24.3212 50.7648 24.3445 50.6406 24.3607 50.5157C24.3657 50.4776 24.3657 50.4381 24.3685 50.3936C24.3417 50.3972 24.3248 50.3958 24.3099 50.4021C23.6559 50.673 22.9687 50.8276 22.2772 50.9553C21.3212 51.1317 20.3616 51.2876 19.4014 51.4386C18.7918 51.5345 18.1786 51.6136 17.5655 51.6883C16.7358 51.7899 15.9011 51.8386 15.0657 51.8499C14.4314 51.8584 13.795 51.8506 13.1614 51.8132C12.3867 51.7674 11.6282 51.6234 10.9234 51.2749C10.2566 50.9447 9.67384 50.5122 9.25968 49.88C8.93582 49.3854 8.74038 48.8386 8.59433 48.2699C8.41301 47.5644 8.31634 46.8447 8.21757 46.125C8.05882 44.9693 7.89583 43.8136 7.72085 42.66C7.6002 41.8627 7.46826 41.0669 7.32433 40.2738C6.87207 37.7719 6.29421 35.3003 5.5054 32.8824C5.13851 31.757 4.75539 30.6366 4.30736 29.5402C4.26432 29.4343 4.21493 29.3313 4.16272 29.2297C4.10769 29.1218 4.09216 29.0152 4.13591 28.8988C4.15566 28.8466 4.16978 28.7902 4.17542 28.7344C4.198 28.4832 4.28619 28.2567 4.42166 28.0465C4.65379 27.6867 4.95365 27.3889 5.27539 27.1116C5.60135 26.8301 5.95907 26.5945 6.32244 26.3644C6.57291 26.2064 6.8135 26.0335 7.05833 25.8677C6.98989 25.5432 6.92498 25.2419 6.86219 24.9399C6.56938 23.5281 6.31679 22.1092 6.13405 20.6791C5.96683 19.3695 5.92238 18.0558 6.02892 16.7392C6.10724 15.7733 6.23989 14.8166 6.55668 13.8951C7.22626 11.9478 8.44264 10.4231 10.1444 9.27652C10.977 8.7156 11.9027 8.40515 12.8834 8.24146C13.2327 8.1829 13.5848 8.12928 13.9375 8.10247C14.8414 8.03403 15.7169 8.18079 16.5657 8.49264C17.6622 8.89552 18.6817 9.44726 19.6335 10.1218C20.6608 10.8492 21.5717 11.7065 22.4325 12.6223C23.15 13.3857 23.7384 14.2429 24.3121 15.1129C25.2286 16.5021 25.9694 17.9852 26.6284 19.5106C26.6602 19.5833 26.6919 19.656 26.7265 19.7336C26.809 19.7273 26.8824 19.7202 26.9558 19.7174C28.0755 19.6736 29.1868 19.7287 30.2825 19.9813C30.782 20.0963 31.2562 20.2748 31.6993 20.5337C32.0584 20.7433 32.3547 21.0121 32.5318 21.3966C32.548 21.4319 32.5713 21.4686 32.6017 21.4919C32.7266 21.5885 32.7639 21.7233 32.7752 21.8693C32.7978 22.1713 32.8218 22.474 32.8373 22.7767C32.9001 23.9825 32.9417 25.1897 33.0257 26.3941C33.097 27.415 33.2134 28.4331 33.315 29.452C33.3446 29.7469 33.3912 30.0397 33.4321 30.3473C33.5034 30.3198 33.557 30.3022 33.6085 30.2796C36.169 29.1394 38.7287 27.9992 41.2546 26.7828C42.5705 26.1492 43.8462 25.4437 45.1049 24.7057C45.2079 24.645 45.2241 24.5787 45.2185 24.47C45.1402 22.8705 45.3391 21.307 45.8591 19.7893C46.0743 19.1621 46.3833 18.5814 46.7947 18.0607C47.5172 17.147 48.4697 16.6581 49.631 16.5988C50.326 16.5635 50.9596 16.7787 51.5516 17.1386C52.4377 17.6769 53.1179 18.4121 53.6577 19.2884C54.1854 20.1464 54.5622 21.072 54.8896 22.0203C55.3263 23.2861 55.6113 24.5857 55.7052 25.9228C55.8364 27.7981 55.6297 29.6361 55.0335 31.424C54.8663 31.9242 54.6476 32.404 54.3964 32.8662C54.1621 33.2966 53.8686 33.6825 53.4509 33.969C53.4784 34.0007 53.4989 34.0268 53.5222 34.0494C53.9829 34.4911 54.3159 35.0216 54.5989 35.5889C54.9509 36.2959 55.1661 37.0466 55.3383 37.8135C55.5704 38.8493 55.6911 39.8999 55.7772 40.9554C55.7913 41.1318 55.7856 41.3103 55.7927 41.4874C55.7934 41.5537 55.8082 41.62 55.8181 41.6864ZM55.0603 43.7565C55.152 42.8145 55.1393 41.8705 55.0667 40.9272C54.9813 39.8251 54.8359 38.7322 54.5798 37.6548C54.3928 36.8702 54.1233 36.1202 53.7113 35.4252C53.3324 34.7867 52.8321 34.2709 52.1654 33.9294C51.778 33.7312 51.3716 33.6832 50.9476 33.7749C50.4869 33.8744 50.0974 34.1037 49.7587 34.4254C49.3495 34.8135 48.9946 35.246 48.7096 35.7336C48.0675 36.8335 47.6484 38.0111 47.472 39.274C47.429 39.5803 47.3817 39.8851 47.3316 40.1899C47.2893 40.4453 47.163 40.6365 46.8998 40.7141C46.8173 40.7381 46.7368 40.7684 46.6536 40.7896C45.9635 40.9603 45.2636 41.0704 44.5559 41.1332C43.5915 41.2186 42.6234 41.232 41.6568 41.2115C39.7687 41.172 37.8807 41.1268 35.9926 41.0697C34.6026 41.0274 33.2148 40.9378 31.8305 40.8009C30.3559 40.6548 28.8827 40.4968 27.4215 40.2463C26.79 40.1377 26.1571 40.0417 25.5242 39.9408C25.5045 39.9373 25.4833 39.9408 25.448 39.9408C25.6794 43.5575 25.5694 47.1467 25.0437 50.7224C25.9306 50.7881 26.7949 50.8516 27.6762 50.9165C27.6762 50.7542 27.6776 50.6124 27.6762 50.4699C27.6621 49.2563 27.6402 48.0427 27.8286 46.8376C27.897 46.4016 27.976 45.9691 28.1404 45.557C28.2653 45.2438 28.4417 44.9665 28.7035 44.7485C29.0598 44.4514 29.4753 44.4077 29.886 44.6257C30.1167 44.7485 30.3079 44.9199 30.4723 45.121C30.7065 45.4082 30.866 45.7377 30.9888 46.0841C31.2364 46.7833 31.3881 47.5065 31.465 48.241C31.537 48.9289 31.5638 49.6218 31.6097 50.3125C31.6195 50.4649 31.6252 50.618 31.6336 50.7895C32.8239 50.9285 33.998 51.0646 35.2122 51.2065C35.1431 50.9144 35.0866 50.6582 35.0217 50.4042C34.6316 48.8852 34.2753 47.3605 34.0975 45.7991C34.0241 45.1556 33.9662 44.5121 34.0459 43.8644C34.0876 43.5265 34.1638 43.1998 34.3606 42.9126C34.6443 42.4999 35.0528 42.2945 35.5311 42.2007C36.0589 42.097 36.5902 42.1097 37.1222 42.1492C37.6471 42.1887 38.1721 42.2254 38.697 42.2713C39.375 42.3305 40.0538 42.3877 40.7304 42.4639C41.4748 42.5478 42.2184 42.6431 42.96 42.7489C43.9626 42.8922 44.9624 43.0481 45.9635 43.2012C46.1667 43.2322 46.3692 43.2739 46.5696 43.319C46.7538 43.3613 46.8737 43.47 46.8913 43.6711C46.8949 43.7085 46.9175 43.7445 46.9309 43.7812C46.9633 43.8665 47.0064 43.9491 47.0254 44.0366C47.0882 44.3216 47.1461 44.6074 47.1997 44.8938C47.3387 45.6297 47.4628 46.3691 47.6145 47.1022C47.7507 47.7584 47.9363 48.4011 48.222 49.0115C48.5268 49.6627 48.9262 50.2434 49.5083 50.6801C50.1849 51.1881 50.9053 51.2326 51.6539 50.8593C51.8528 50.7605 52.0455 50.642 52.224 50.5108C52.9697 49.9618 53.5088 49.2415 53.894 48.4096C54.5784 46.9357 54.9044 45.3658 55.0603 43.7565ZM55.0003 27.9766C55.0674 27.0256 55.0462 26.078 54.9164 25.1332C54.7562 23.9726 54.4599 22.8465 54.0457 21.7508C53.7437 20.9514 53.4037 20.1718 52.9309 19.4556C52.4307 18.6985 51.8063 18.0734 51.0033 17.6353C50.6407 17.4377 50.2576 17.3093 49.8434 17.3037C48.8126 17.2895 47.9786 17.7009 47.3394 18.5024C47.031 18.889 46.7982 19.323 46.6119 19.7809C46.2387 20.696 46.0757 21.6591 45.9621 22.6327C45.8866 23.2826 45.8662 23.9352 45.9339 24.5864C45.9635 24.8736 45.8394 25.0556 45.6256 25.2059C45.5931 25.2292 45.56 25.2518 45.5247 25.2715C44.5863 25.7965 43.6627 26.3517 42.7046 26.8379C41.4197 27.4905 40.1166 28.1093 38.8064 28.7083C34.9103 30.4905 31.0022 32.2453 27.0278 33.8476C26.9819 33.8659 26.9382 33.8899 26.8768 33.9189C27.6663 35.7971 28.1489 37.7564 28.6308 39.7108C28.9194 39.7842 30.7898 40.0029 30.95 39.9824C30.9521 39.9669 30.9577 39.9507 30.9563 39.9345C30.9514 39.8886 30.9443 39.8434 30.9373 39.7983C30.8477 39.2261 30.8999 38.6694 31.1235 38.1317C31.2279 37.8813 31.3959 37.683 31.616 37.5285C31.9349 37.3048 32.2757 37.2674 32.62 37.4488C32.8049 37.5468 32.9813 37.671 33.1386 37.8093C33.5768 38.1952 33.9161 38.6616 34.1871 39.1781C34.2181 39.2374 34.2513 39.2959 34.2851 39.3587C34.7769 39.224 35.2546 39.0962 35.7252 38.905C35.6906 38.8415 35.6652 38.7922 35.637 38.7435C35.4825 38.4761 35.3237 38.2108 35.172 37.9412C35.0253 37.6816 34.9018 37.4114 34.8221 37.1228C34.736 36.8116 34.6831 36.497 34.7339 36.1731C34.8157 35.6524 35.2263 35.4125 35.7181 35.6002C35.824 35.6404 35.9256 35.6962 36.0236 35.7547C36.1168 35.8105 36.2043 35.8754 36.291 35.9417C36.8449 36.3636 37.2753 36.8956 37.6542 37.4728C37.7198 37.5729 37.7847 37.6731 37.8461 37.767C38.0443 37.7599 39.6601 37.2823 39.7878 37.1941C39.732 37.151 39.6791 37.108 39.6248 37.0671C38.7697 36.4314 37.9413 35.7625 37.1631 35.0351C36.8505 34.743 36.5528 34.4304 36.2776 34.1023C35.8853 33.6359 35.6236 33.0976 35.5057 32.4943C35.431 32.1112 35.4811 31.7479 35.7224 31.4346C35.8536 31.2638 36.0116 31.11 36.1767 30.9703C36.5182 30.6803 36.9028 30.4524 37.2979 30.2436C37.9879 29.8788 38.7139 29.598 39.4541 29.3581C40.7918 28.9242 42.1359 28.5079 43.4779 28.0867C44.0451 27.9089 44.6145 27.736 45.1825 27.5604C45.3977 27.494 45.6101 27.4503 45.8379 27.5216C45.9833 27.5674 46.0778 27.6464 46.1279 27.7854C46.159 27.8715 46.1851 27.9597 46.2182 28.0444C46.8208 29.5634 47.6407 30.9499 48.7357 32.1684C49.0123 32.476 49.3241 32.7448 49.6832 32.9551C49.8653 33.0616 50.0501 33.1632 50.2336 33.2662C51.1452 32.8824 52.0137 32.9558 52.8279 33.4983C52.9119 33.4405 52.9669 33.3812 53.0339 33.3608C53.1553 33.322 53.2505 33.2493 53.3232 33.1554C53.4806 32.9522 53.645 32.7512 53.7712 32.5296C54.0182 32.0971 54.2193 31.6406 54.3759 31.1672C54.7209 30.1307 54.9234 29.0667 55.0003 27.9766ZM49.5351 33.7086C49.4765 33.6649 49.4483 33.6388 49.4151 33.6197C48.8436 33.2881 48.3758 32.8401 47.949 32.3391C47.108 31.3506 46.4497 30.25 45.8944 29.083C45.7596 28.8 45.6439 28.5079 45.512 28.2024C45.4471 28.2201 45.392 28.2328 45.3384 28.2497C44.5785 28.4832 43.8193 28.7189 43.0595 28.9503C41.7739 29.3419 40.4863 29.7257 39.2226 30.1843C38.5015 30.4461 37.7918 30.7354 37.1398 31.1467C36.8731 31.3146 36.6156 31.4946 36.3926 31.7196C36.2099 31.9038 36.1422 32.1176 36.1972 32.3779C36.2833 32.7822 36.4519 33.1477 36.6861 33.4842C36.9423 33.8525 37.2513 34.1757 37.5843 34.4734C38.0062 34.8509 38.4324 35.2256 38.8699 35.5847C39.3165 35.9509 39.7814 36.2945 40.2358 36.6522C40.3797 36.7651 40.5223 36.8815 40.65 37.012C40.8073 37.1729 40.8123 37.3345 40.7008 37.5278C40.6274 37.6548 40.5209 37.7296 40.3833 37.7712C39.8202 37.9427 39.2579 38.1183 38.6942 38.2877C38.4642 38.3568 38.232 38.4196 37.9985 38.4739C37.6993 38.5424 37.458 38.445 37.2816 38.1924C37.2393 38.131 37.1984 38.069 37.1596 38.0055C36.9246 37.6237 36.6544 37.2703 36.3503 36.9415C36.1393 36.7136 35.9037 36.5146 35.6419 36.3481C35.5827 36.31 35.5142 36.286 35.4345 36.2479C35.4345 36.3989 35.4218 36.5238 35.4366 36.6458C35.4761 36.9619 35.5925 37.2547 35.7478 37.5306C35.9333 37.8594 36.1266 38.184 36.3129 38.512C36.3665 38.6059 36.418 38.7032 36.4554 38.8041C36.5641 39.0991 36.4702 39.3383 36.1916 39.4787C36.0949 39.5273 35.9905 39.5612 35.8896 39.6007C35.7901 39.6395 35.6892 39.6762 35.5827 39.7164C35.6539 39.9344 35.7209 40.1391 35.7936 40.3606C35.8741 40.3663 35.9707 40.3761 36.0667 40.379C37.4453 40.4178 38.8233 40.4615 40.2019 40.4925C41.5637 40.5229 42.9254 40.5539 44.2857 40.4516C45.023 40.3959 45.7519 40.2908 46.4701 40.1115C46.5294 40.0967 46.5865 40.0741 46.6423 40.0558C46.679 39.8138 46.7171 39.588 46.7474 39.3615C46.9069 38.1783 47.2371 37.0494 47.7754 35.9798C48.1995 35.1374 48.7329 34.3817 49.449 33.7608C49.4702 33.7418 49.4977 33.7305 49.5351 33.7086ZM34.7586 45.4145C35.4916 44.934 35.8508 43.7311 35.5093 42.9324C35.1396 43.0241 34.8997 43.2506 34.8044 43.6203C34.7113 43.9829 34.6979 44.3541 34.7106 44.7259C34.7183 44.9524 34.7416 45.1775 34.7586 45.4145ZM35.0366 40.2978C34.9942 40.1793 34.9519 40.0614 34.9039 39.9274C34.8468 39.9387 34.808 39.9422 34.7706 39.9535C34.6287 39.9972 34.4876 40.0452 34.3458 40.089C34.1793 40.1405 34.0424 40.1073 33.9077 39.9824C33.7475 39.8343 33.641 39.6579 33.5422 39.4702C33.3108 39.0306 33.0172 38.6383 32.6433 38.3095C32.541 38.2199 32.4218 38.1494 32.3053 38.0774C32.2136 38.0203 32.1198 38.0379 32.0309 38.0965C31.8912 38.1882 31.8002 38.3145 31.7423 38.4697C31.5998 38.8479 31.5673 39.2374 31.6231 39.6353C31.6442 39.7856 31.6774 39.9344 31.7035 40.0742C32.1431 40.1581 34.8256 40.338 35.0366 40.2978ZM32.5876 30.7333C32.6489 30.7072 32.7082 30.6754 32.7724 30.6444C32.3851 28.2603 32.2849 25.8663 32.1642 23.4364C32.1099 23.4865 32.0866 23.509 32.0619 23.5295C31.8361 23.7137 31.6224 23.9147 31.3818 24.0777C30.8201 24.458 30.2021 24.7325 29.5798 24.995C28.2124 25.5714 26.8055 26.0342 25.3789 26.4357C23.8866 26.8548 22.3901 27.2584 20.8943 27.6627C18.2386 28.3809 15.5857 29.1069 12.887 29.6509C11.5697 29.9162 10.258 30.2154 8.9203 30.3699C8.23097 30.4496 7.54023 30.4835 6.84667 30.4461C6.35489 30.4193 5.86523 30.3685 5.39321 30.2126C5.3791 30.2076 5.36217 30.2119 5.33395 30.2119C5.34665 30.2577 5.35441 30.2958 5.3664 30.3318C5.44119 30.5477 5.51528 30.7643 5.5943 30.9795C6.4833 33.3946 7.14723 35.8733 7.67429 38.39C7.92617 39.5937 8.14913 40.803 8.32975 42.0201C8.44758 42.8124 8.58093 43.6019 8.69593 44.3943C8.82999 45.3172 8.94147 46.2428 9.08117 47.165C9.16936 47.7478 9.30413 48.3221 9.52497 48.8718C9.75921 49.4553 10.1155 49.9442 10.6433 50.2935C10.862 50.4381 11.0906 50.5722 11.3277 50.6843C11.9697 50.9891 12.6626 51.0766 13.3611 51.1288C14.001 51.1768 14.6417 51.1712 15.283 51.1437C16.1008 51.1091 16.9185 51.0696 17.7306 50.963C18.3205 50.8861 18.9096 50.8043 19.498 50.7154C20.5387 50.558 21.5801 50.4042 22.6067 50.17C23.1091 50.0557 23.61 49.9386 24.0849 49.7325C24.209 49.6782 24.3396 49.638 24.4863 49.5844C24.5054 49.42 24.5287 49.2337 24.5477 49.0467C24.6112 48.4089 24.6938 47.7725 24.7312 47.1333C24.7869 46.1681 24.8285 45.2007 24.8433 44.2341C24.8575 43.3077 24.8377 42.3799 24.8172 41.4535C24.8045 40.8989 24.7657 40.3444 24.7305 39.7905C24.7192 39.6092 24.7911 39.4547 24.8603 39.3002C24.9076 39.1957 25.0106 39.1421 25.1277 39.1421C25.2004 39.1421 25.2744 39.1569 25.3471 39.1724C25.5764 39.2211 25.8036 39.2832 26.0343 39.3213C26.6044 39.4159 27.1759 39.5005 27.7467 39.588C27.7792 39.593 27.813 39.5923 27.8695 39.5951C27.8582 39.5344 27.8533 39.4949 27.8434 39.4568C27.7467 39.0744 27.6494 38.692 27.5527 38.3095C27.1879 36.8603 26.7505 35.4344 26.1769 34.0522C26.155 33.9993 26.1338 33.9457 26.1211 33.8899C26.0971 33.7855 26.1007 33.6783 26.1726 33.5957C26.2883 33.4638 26.404 33.3347 26.5804 33.2669C27.0017 33.1046 27.4186 32.9297 27.8349 32.7533C29.4189 32.0809 31.0036 31.4071 32.5876 30.7333ZM31.8411 22.6574C32.1191 22.1389 31.99 21.5885 31.5095 21.2491C31.4255 21.1899 31.3366 21.1377 31.247 21.0869C30.9006 20.8921 30.5294 20.7588 30.1435 20.6699C29.1557 20.4434 28.1538 20.375 27.1428 20.4138C27.1033 20.4152 27.0644 20.4215 27.0009 20.4279C27.1308 20.7814 27.25 21.1151 27.3749 21.446C27.4179 21.5603 27.4581 21.6704 27.42 21.7952C27.4116 21.8242 27.4179 21.8651 27.432 21.8933C27.5146 22.0591 27.461 22.1995 27.37 22.3435C27.0623 22.8282 26.646 23.1951 26.1578 23.4872C25.1933 24.0636 24.1632 24.367 23.0301 24.2407C22.721 24.2061 22.4155 24.1553 22.1735 23.9331C22.1396 23.9013 22.1072 23.8576 22.0952 23.8131C21.9435 23.2381 21.796 22.6617 21.6472 22.0866C21.6309 22.0231 21.6077 21.9611 21.5858 21.8905C18.7988 22.9855 15.9385 23.7666 13.0549 24.4742C13.0549 24.4898 13.0506 24.5074 13.0556 24.5229C13.1656 24.8898 13.2545 25.2652 13.3942 25.6201C13.5008 25.8917 13.4472 26.1203 13.2941 26.3278C12.8559 26.9225 12.3063 27.3875 11.6402 27.7142C10.9375 28.0592 10.1903 28.2398 9.41702 28.3195C9.02331 28.3605 8.62608 28.3654 8.24085 28.2546C8.07222 28.206 7.90712 28.1361 7.75401 28.0514C7.60867 27.971 7.51906 27.8369 7.51483 27.6591C7.51342 27.6083 7.50001 27.5575 7.48661 27.5074C7.41887 27.2534 7.34973 26.9994 7.27988 26.7461C7.26859 26.7052 7.25166 26.665 7.23684 26.6234C6.80927 26.8513 5.99364 27.4073 5.67332 27.6994C5.50893 27.8496 5.35159 28.0091 5.20412 28.1756C5.11029 28.2814 5.02985 28.4028 4.96 28.5263C4.83371 28.7492 4.86193 28.9651 5.02209 29.1648C5.1244 29.2925 5.25069 29.3878 5.39886 29.4555C5.69872 29.5931 6.01693 29.6601 6.34219 29.6982C7.3328 29.8146 8.32058 29.7638 9.30201 29.61C10.0986 29.4851 10.8916 29.3384 11.6826 29.1824C13.529 28.8191 15.3649 28.4092 17.1838 27.9251C19.2285 27.3812 21.2704 26.8287 23.3144 26.2819C24.729 25.903 26.138 25.5086 27.5216 25.0274C28.484 24.693 29.4358 24.3331 30.3446 23.8682C30.6811 23.696 31.0113 23.5133 31.307 23.2741C31.5179 23.0998 31.7091 22.9037 31.8411 22.6574ZM30.6155 47.4628C30.6134 47.4211 30.6148 47.3978 30.6099 47.376C30.5259 46.9724 30.43 46.5723 30.2754 46.1892C30.1901 45.9761 30.0998 45.7631 29.9438 45.5923C29.8295 45.4674 29.6969 45.3553 29.56 45.2551C29.4231 45.1549 29.2806 45.1782 29.1522 45.2896C29.0252 45.4004 28.9165 45.5267 28.8552 45.6833C28.7797 45.8738 28.7028 46.0672 28.6541 46.2654C28.484 46.9625 28.4248 47.6751 28.3831 48.3899C28.3817 48.4209 28.3902 48.4527 28.3972 48.5035C29.1917 48.2551 29.8923 47.8452 30.6155 47.4628ZM26.8062 21.9095C26.7533 21.7769 26.6997 21.657 26.6559 21.5342C25.9955 19.6616 25.1679 17.8674 24.1427 16.1663C23.6488 15.3471 23.1239 14.547 22.5235 13.8034C21.6754 12.7528 20.7017 11.825 19.6377 10.9953C18.7346 10.2918 17.7454 9.7309 16.6892 9.29134C15.8884 8.95831 15.0587 8.75017 14.1852 8.79251C13.8035 8.81085 13.4232 8.868 13.0443 8.92656C12.0099 9.08602 11.0617 9.45079 10.2143 10.0801C8.75943 11.1611 7.72509 12.5425 7.17122 14.2733C6.89041 15.151 6.78175 16.0598 6.71473 16.9742C6.61454 18.3444 6.6992 19.7075 6.89253 21.065C7.05904 22.2313 7.26436 23.3919 7.49719 24.5469C7.68769 25.4888 7.90783 26.4237 8.16677 27.3494C8.20487 27.4863 8.27189 27.5561 8.40454 27.5731C8.58022 27.5956 8.75591 27.638 8.93089 27.6352C9.78884 27.6232 10.6087 27.439 11.3806 27.0552C11.8709 26.8118 12.2724 26.4611 12.6266 26.0484C12.7106 25.951 12.7465 25.8614 12.6838 25.7407C12.6548 25.6857 12.6414 25.6229 12.6238 25.5622C12.1934 24.1144 11.7976 22.6581 11.4984 21.1765C11.3206 20.2952 11.1816 19.4098 11.1626 18.5073C11.1407 17.4871 11.3361 16.517 11.7884 15.6004C12.2378 14.6896 12.9265 14.0369 13.8733 13.6594C14.5288 13.3977 15.2089 13.313 15.9096 13.3448C16.5806 13.3751 17.2021 13.5635 17.7814 13.9015C18.3868 14.2549 18.9047 14.7086 19.3492 15.2477C19.8953 15.9095 20.3108 16.6531 20.6855 17.4208C21.3177 18.7155 21.7777 20.0751 22.1933 21.4495C22.3802 22.0676 22.5362 22.6955 22.6949 23.3221C22.726 23.4455 22.7859 23.4956 22.8981 23.5119C22.9941 23.5253 23.09 23.5436 23.1867 23.5507C24.3339 23.6353 25.3365 23.2628 26.2354 22.5742C26.4739 22.3921 26.663 22.1628 26.8062 21.9095ZM21.3903 21.2082C21.3226 21.0022 21.2626 20.8173 21.2005 20.6339C20.8047 19.4627 20.38 18.3034 19.7915 17.2112C19.4486 16.5748 19.0719 15.9617 18.5745 15.4311C18.1194 14.9457 17.6008 14.5456 16.9827 14.2888C16.2779 13.9953 15.5427 13.9741 14.8068 14.1174C13.8472 14.3036 13.0711 14.7841 12.5673 15.6442C12.1828 16.2996 11.9627 17.0109 11.8907 17.7686C11.8173 18.544 11.8963 19.3117 12.0142 20.0765C12.163 21.0438 12.386 21.9963 12.6266 22.9439C12.6957 23.2148 12.7684 23.4844 12.8439 23.7701C12.9201 23.7602 12.9878 23.7588 13.0528 23.7426C13.5798 23.6121 14.1069 23.4801 14.6332 23.3468C16.6412 22.8388 18.6224 22.2419 20.5677 21.5278C20.8351 21.4291 21.0989 21.3218 21.3903 21.2082Z" fill="#2E2521"/>
<path d="M55.0666 40.9271C55.1393 41.8704 55.152 42.8144 55.0603 43.7564C54.9044 45.3657 54.5777 46.9349 53.894 48.4109C53.5081 49.2428 52.969 49.9632 52.2239 50.5121C52.0447 50.6433 51.8528 50.7619 51.6538 50.8606C50.9052 51.2339 50.1849 51.1894 49.5082 50.6814C48.9262 50.244 48.5268 49.664 48.222 49.0128C47.9363 48.4032 47.7507 47.7597 47.6145 47.1035C47.4628 46.3698 47.3379 45.631 47.1997 44.8951C47.1453 44.6087 47.0882 44.3222 47.0254 44.0379C47.0056 43.9497 46.9626 43.8671 46.9308 43.7825C46.9167 43.7458 46.8941 43.7105 46.8913 43.6724C46.8737 43.4713 46.7537 43.3627 46.5696 43.3203C46.3692 43.2745 46.1667 43.2336 45.9635 43.2025C44.963 43.0487 43.9626 42.8928 42.96 42.7502C42.2184 42.6444 41.4747 42.5492 40.7304 42.4652C40.0538 42.389 39.375 42.3318 38.697 42.2726C38.1727 42.2267 37.6471 42.19 37.1222 42.1505C36.5902 42.111 36.0589 42.0983 35.5311 42.202C35.0528 42.2959 34.6442 42.5012 34.3606 42.9139C34.1638 43.2004 34.0876 43.5271 34.0459 43.8657C33.9655 44.5134 34.0241 45.1562 34.0974 45.8004C34.2752 47.3618 34.6322 48.8872 35.0217 50.4056C35.0866 50.6596 35.1431 50.9164 35.2122 51.2078C33.9979 51.066 32.8239 50.9291 31.6336 50.7908C31.6252 50.6193 31.6195 50.4662 31.6096 50.3138C31.5638 49.6231 31.537 48.9302 31.465 48.2423C31.3881 47.5078 31.2364 46.7846 30.9887 46.0854C30.866 45.7383 30.7072 45.4095 30.4723 45.1223C30.3079 44.9205 30.1167 44.7498 29.886 44.627C29.4746 44.4083 29.0597 44.4521 28.7034 44.7498C28.4417 44.9678 28.2653 45.2451 28.1404 45.5584C27.976 45.9704 27.8963 46.4029 27.8285 46.839C27.6402 48.0441 27.662 49.2576 27.6761 50.4712C27.6776 50.613 27.6761 50.7555 27.6761 50.9178C26.7949 50.8529 25.9306 50.7887 25.0437 50.7238C25.5693 47.1473 25.6794 43.5588 25.448 39.9421C25.484 39.9421 25.5044 39.9393 25.5242 39.9421C26.1564 40.043 26.79 40.139 27.4214 40.2476C28.8826 40.4988 30.3559 40.6561 31.8305 40.8022C33.2148 40.9398 34.6026 41.0287 35.9926 41.071C37.8799 41.1289 39.7687 41.1733 41.6568 41.2128C42.6241 41.2333 43.5914 41.2199 44.5559 41.1345C45.2636 41.0717 45.9635 40.9617 46.6535 40.7909C46.7368 40.7704 46.8172 40.7394 46.8998 40.7154C47.1623 40.6378 47.2893 40.4473 47.3316 40.1912C47.3817 39.8864 47.4297 39.5809 47.472 39.2754C47.6484 38.0124 48.0675 36.8341 48.7095 35.7349C48.9946 35.2473 49.3495 34.8148 49.7587 34.4268C50.0974 34.105 50.4868 33.8757 50.9476 33.7762C51.3716 33.6845 51.778 33.7325 52.1654 33.9308C52.8321 34.2723 53.3331 34.788 53.7113 35.4265C54.1233 36.1215 54.3928 36.8715 54.5798 37.6561C54.8359 38.7321 54.9813 39.825 55.0666 40.9271ZM53.3867 41.8909C53.3782 41.1846 53.3557 40.4819 53.2773 39.7813C53.1898 38.9988 53.017 38.2368 52.7185 37.5065C52.5922 37.1982 52.4335 36.9075 52.2204 36.6486C52.0123 36.396 51.759 36.2062 51.4492 36.0947C51.0675 35.9571 50.7084 35.9973 50.3697 36.2252C50.3239 36.2556 50.2702 36.2831 50.2166 36.2916C50.0882 36.312 49.9993 36.384 49.9238 36.4828C49.6367 36.8574 49.4059 37.2638 49.2253 37.6999C48.8634 38.5733 48.6672 39.4899 48.5444 40.4212C48.3822 41.6538 48.3039 42.8928 48.3659 44.1367C48.4062 44.9438 48.5212 45.7418 48.7427 46.5215C48.8972 47.0654 49.1265 47.5741 49.4567 48.0349C49.5329 48.1414 49.6162 48.2451 49.7079 48.339C50.2611 48.9027 50.9899 48.9458 51.608 48.4526C51.8839 48.2324 52.1075 47.9657 52.2888 47.6638C52.5167 47.2849 52.6967 46.8834 52.8307 46.4622C53.0381 45.8103 53.1419 45.1364 53.2018 44.4584C53.2773 43.6033 53.3267 42.7467 53.3867 41.8909Z" fill="#B4BD57"/>
<path d="M54.9164 25.1329C55.0462 26.077 55.0674 27.0252 55.0003 27.9763C54.9234 29.0664 54.7209 30.1311 54.3773 31.1676C54.22 31.641 54.0196 32.0975 53.7727 32.53C53.6464 32.7523 53.4813 32.9526 53.3246 33.1558C53.252 33.2497 53.1574 33.3231 53.0353 33.3612C52.9683 33.3823 52.9133 33.4409 52.8293 33.4987C52.0144 32.9562 51.1466 32.8828 50.235 33.2666C50.0522 33.1636 49.8667 33.062 49.6847 32.9555C49.3255 32.7459 49.0137 32.4771 48.7371 32.1688C47.6428 30.9503 46.8222 29.5638 46.2197 28.0448C46.1858 27.9594 46.1604 27.8719 46.1293 27.7858C46.0792 27.6468 45.9847 27.5671 45.8394 27.522C45.6115 27.4507 45.3991 27.4944 45.1839 27.5608C44.6159 27.7364 44.0465 27.9086 43.4793 28.0871C42.1373 28.5083 40.7932 28.9246 39.4555 29.3585C38.7153 29.5984 37.9893 29.8792 37.2993 30.244C36.9042 30.4528 36.5196 30.6815 36.1781 30.9707C36.0137 31.1104 35.855 31.2642 35.7238 31.435C35.4832 31.7475 35.4324 32.1116 35.5072 32.4947C35.6243 33.0973 35.8867 33.6356 36.279 34.1027C36.5542 34.4301 36.8512 34.7434 37.1645 35.0355C37.9427 35.7629 38.7704 36.4318 39.6262 37.0675C39.6805 37.1077 39.7335 37.1507 39.7892 37.1945C39.6615 37.2834 38.0458 37.761 37.8475 37.7674C37.7861 37.6728 37.7212 37.5726 37.6556 37.4732C37.2767 36.896 36.8463 36.364 36.2924 35.9421C36.2064 35.8765 36.1182 35.8109 36.025 35.7551C35.927 35.6966 35.8254 35.6415 35.7195 35.6006C35.227 35.4129 34.8171 35.6528 34.7353 36.1735C34.6845 36.4974 34.7374 36.812 34.8235 37.1232C34.9032 37.4118 35.0267 37.682 35.1734 37.9416C35.3251 38.2105 35.4832 38.4765 35.6384 38.7439C35.6666 38.7926 35.692 38.8419 35.7266 38.9054C35.2567 39.0966 34.7783 39.2244 34.2865 39.3591C34.2527 39.2963 34.2195 39.2378 34.1885 39.1785C33.9168 38.662 33.5782 38.1956 33.14 37.8097C32.9827 37.6714 32.8063 37.5465 32.6214 37.4492C32.2771 37.2671 31.9363 37.3052 31.6174 37.5289C31.3966 37.6834 31.2286 37.8817 31.1249 38.1321C30.9013 38.6698 30.8491 39.2265 30.9387 39.7987C30.9457 39.8438 30.9528 39.889 30.9577 39.9349C30.9591 39.9504 30.9535 39.9673 30.9514 39.9828C30.7912 40.0033 28.9208 39.7839 28.6322 39.7112C28.1503 37.7568 27.6677 35.7975 26.8782 33.9193C26.9396 33.8903 26.9833 33.867 27.0292 33.848C31.0036 32.2457 34.9117 30.491 38.8078 28.7087C40.118 28.109 41.4211 27.4902 42.706 26.8383C43.6641 26.3514 44.5877 25.7969 45.5261 25.2719C45.5607 25.2522 45.5938 25.2296 45.627 25.2063C45.8415 25.0553 45.9649 24.874 45.9353 24.5868C45.8683 23.9356 45.888 23.283 45.9635 22.6331C46.0771 21.6595 46.2401 20.6964 46.6134 19.7813C46.8003 19.3234 47.0325 18.8895 47.3408 18.5028C47.9807 17.7013 48.814 17.29 49.8448 17.3041C50.259 17.3097 50.6421 17.4381 51.0047 17.6357C51.8077 18.0731 52.4321 18.6982 52.9323 19.456C53.4051 20.1722 53.7451 20.9518 54.0471 21.7512C54.4592 22.8462 54.7562 23.9723 54.9164 25.1329ZM53.4241 26.7261C53.4128 26.4904 53.4093 26.0657 53.3691 25.6452C53.2371 24.2566 52.8364 22.9443 52.195 21.7075C51.874 21.0894 51.4761 20.5256 50.9765 20.036C50.6541 19.7206 50.2766 19.504 49.8441 19.3819C49.5577 19.3008 49.2698 19.2789 48.989 19.4137C48.9685 19.4236 48.9459 19.4348 48.9241 19.4341C48.7173 19.4278 48.5847 19.5527 48.4619 19.6924C48.2058 19.9845 48.0252 20.321 47.8883 20.6823C47.5891 21.4732 47.4748 22.2987 47.4509 23.1376C47.4135 24.433 47.587 25.7059 47.901 26.9603C48.107 27.783 48.3582 28.5902 48.7484 29.3479C49.0165 29.8686 49.3178 30.3668 49.7206 30.7972C49.9542 31.0462 50.2131 31.2593 50.5306 31.3919C51.1233 31.6396 51.675 31.5683 52.1661 31.1499C52.3121 31.0258 52.4392 30.872 52.5499 30.7146C52.7764 30.3943 52.9225 30.033 53.0361 29.6591C53.3105 28.7637 53.4022 27.8437 53.4241 26.7261Z" fill="#B4BD57"/>
<path d="M53.3691 25.6452C53.4093 26.0664 53.4128 26.4905 53.4241 26.7261C53.403 27.8444 53.3112 28.7638 53.0375 29.6584C52.9232 30.0317 52.7771 30.3936 52.5514 30.7139C52.4399 30.8713 52.3136 31.0251 52.1675 31.1493C51.6772 31.5677 51.1254 31.6389 50.5321 31.3913C50.2146 31.2586 49.9549 31.0456 49.7221 30.7965C49.3192 30.3661 49.0179 29.868 48.7498 29.3473C48.3596 28.5902 48.1078 27.7831 47.9024 26.9597C47.5885 25.7045 47.4149 24.4324 47.4523 23.137C47.4763 22.298 47.5913 21.4725 47.8897 20.6816C48.0266 20.3204 48.2065 19.9838 48.4634 19.6917C48.5861 19.552 48.7188 19.4271 48.9255 19.4335C48.9467 19.4342 48.9699 19.4229 48.9904 19.413C49.2712 19.2783 49.5584 19.3008 49.8455 19.3813C50.2773 19.5033 50.6555 19.7199 50.978 20.0353C51.4775 20.525 51.8761 21.0887 52.1965 21.7068C52.8364 22.945 53.2372 24.2567 53.3691 25.6452ZM52.7242 26.5801C52.708 26.3423 52.6953 25.9183 52.6466 25.4985C52.514 24.3399 52.1718 23.2407 51.656 22.1972C51.3554 21.589 50.9829 21.028 50.4954 20.5497C50.2745 20.3331 50.0205 20.1764 49.7263 20.0812C49.5485 20.0233 49.3728 19.9831 49.1978 20.0925C49.1788 20.1045 49.1541 20.115 49.1329 20.1136C49.0165 20.1052 48.9608 20.1863 48.9015 20.2646C48.6757 20.561 48.5417 20.9003 48.4365 21.2524C48.1501 22.2148 48.1099 23.2005 48.1705 24.1932C48.2319 25.2071 48.414 26.2005 48.6821 27.1798C48.9283 28.0787 49.2557 28.9423 49.7764 29.7205C49.9436 29.971 50.1454 30.2003 50.3458 30.4268C50.4911 30.5905 50.6774 30.7041 50.8869 30.7789C51.1699 30.8798 51.4267 30.8346 51.6645 30.6575C51.819 30.5425 51.934 30.3943 52.0314 30.2306C52.207 29.9329 52.327 29.6119 52.4173 29.2803C52.6417 28.4562 52.7094 27.6137 52.7242 26.5801Z" fill="black"/>
<path d="M53.2773 39.7812C53.3556 40.4818 53.3782 41.1845 53.3866 41.8908C53.326 42.7466 53.2766 43.6032 53.2018 44.4576C53.1418 45.1357 53.0381 45.8095 52.8307 46.4614C52.6966 46.8826 52.5167 47.2841 52.2888 47.663C52.1075 47.9643 51.8838 48.2317 51.6079 48.4518C50.9899 48.945 50.261 48.9019 49.7079 48.3382C49.6161 48.2451 49.5329 48.1413 49.4567 48.0341C49.1272 47.5734 48.8972 47.0647 48.7427 46.5207C48.5211 45.741 48.4061 44.9438 48.3659 44.1359C48.3038 42.892 48.3828 41.653 48.5444 40.4204C48.6665 39.4884 48.8626 38.5726 49.2253 37.6991C49.4059 37.263 49.6359 36.8566 49.9238 36.482C50 36.3832 50.0882 36.3112 50.2166 36.2908C50.2702 36.2823 50.3238 36.2555 50.3697 36.2245C50.7083 35.9966 51.0675 35.9563 51.4492 36.0939C51.7582 36.2054 52.0122 36.3952 52.2204 36.6478C52.4334 36.9067 52.5922 37.1967 52.7185 37.5058C53.0169 38.2367 53.1898 38.9987 53.2773 39.7812ZM52.6684 41.6509C52.6585 41.3602 52.6522 40.8219 52.6183 40.2857C52.5682 39.4884 52.4193 38.7087 52.1406 37.9573C52.0411 37.6885 51.9212 37.4296 51.754 37.1946C51.6326 37.0239 51.4859 36.8827 51.2947 36.7917C51.0463 36.6739 50.8918 36.6986 50.6829 36.8799C50.6145 36.9392 50.5404 36.9999 50.4586 37.0323C50.3817 37.0627 50.3309 37.1085 50.2956 37.1734C50.1545 37.4352 49.9993 37.6906 49.8821 37.9623C49.5159 38.816 49.3339 39.7198 49.2281 40.6363C49.1483 41.3292 49.0983 42.0263 49.063 42.7234C49.0101 43.7669 49.0714 44.8055 49.293 45.8299C49.4242 46.4381 49.6147 47.023 49.9717 47.5409C50.0585 47.6672 50.1545 47.7921 50.266 47.8965C50.5164 48.1322 50.8106 48.1491 51.0964 47.9551C51.1761 47.9008 51.2495 47.8351 51.3194 47.7674C51.5021 47.5903 51.6439 47.3836 51.7674 47.1627C52.1258 46.5242 52.3093 45.8306 52.4144 45.1131C52.571 44.047 52.6289 42.9731 52.6684 41.6509Z" fill="black"/>
<path d="M35.5093 42.9336C35.8501 43.7323 35.4909 44.9353 34.7586 45.4157C34.7416 45.1787 34.7184 44.9529 34.7106 44.7271C34.6979 44.3553 34.7113 43.9842 34.8044 43.6215C34.8997 43.2518 35.1403 43.0253 35.5093 42.9336Z" fill="#EC6A6C"/>
<path d="M34.904 39.9279C34.952 40.0619 34.9943 40.1791 35.0367 40.2983C34.8257 40.3385 32.1439 40.1586 31.7036 40.0746C31.6775 39.9349 31.6436 39.7861 31.6232 39.6358C31.5674 39.2378 31.5999 38.8484 31.7424 38.4702C31.801 38.3157 31.892 38.1887 32.031 38.097C32.1199 38.0384 32.2137 38.0208 32.3055 38.0779C32.4219 38.1499 32.5411 38.2204 32.6434 38.31C33.0174 38.6381 33.3116 39.0311 33.5423 39.4707C33.6411 39.6584 33.7476 39.8348 33.9078 39.9829C34.0425 40.1078 34.1794 40.141 34.3459 40.0895C34.4877 40.0457 34.6289 39.9977 34.7707 39.954C34.8081 39.9434 34.8476 39.9392 34.904 39.9279Z" fill="#2E2521"/>
<path d="M32.7724 30.6435C32.7082 30.6746 32.6489 30.7063 32.5875 30.7324C31.0029 31.4062 29.4189 32.0808 27.8335 32.7524C27.4172 32.9288 27.0009 33.1038 26.579 33.2661C26.4026 33.3338 26.2876 33.4629 26.1712 33.5949C26.0985 33.6774 26.0957 33.7847 26.1197 33.8891C26.1324 33.9448 26.1536 33.9985 26.1754 34.0514C26.749 35.4336 27.1865 36.8595 27.5513 38.3087C27.6479 38.6911 27.7453 39.0735 27.842 39.456C27.8518 39.4941 27.8568 39.5336 27.8681 39.5943C27.8116 39.5914 27.7778 39.5921 27.7453 39.5872C27.1745 39.4997 26.603 39.415 26.0329 39.3205C25.8022 39.2824 25.575 39.2203 25.3457 39.1716C25.2737 39.1561 25.1996 39.1413 25.1263 39.1413C25.0091 39.1413 24.9061 39.1949 24.8589 39.2993C24.7897 39.4538 24.717 39.6077 24.729 39.7897C24.7643 40.3436 24.8038 40.8981 24.8158 41.4527C24.8363 42.3791 24.856 43.3069 24.8419 44.2333C24.8271 45.1999 24.7855 46.1665 24.7297 47.1324C24.6923 47.7717 24.6105 48.4081 24.5463 49.0459C24.5272 49.2329 24.504 49.4192 24.4849 49.5836C24.3374 49.6372 24.2076 49.6774 24.0834 49.7317C23.6086 49.9384 23.1077 50.0549 22.6053 50.1692C21.578 50.4034 20.5366 50.5579 19.4966 50.7146C18.9082 50.8035 18.319 50.8853 17.7292 50.9622C16.9171 51.068 16.0993 51.1083 15.2816 51.1428C14.6403 51.1696 13.9996 51.1753 13.3597 51.128C12.6612 51.0758 11.9683 50.9883 11.3262 50.6835C11.0899 50.5713 10.8606 50.4373 10.6418 50.2926C10.1141 49.9434 9.75778 49.4544 9.52354 48.8709C9.3027 48.3206 9.16794 47.7463 9.07974 47.1642C8.94004 46.242 8.82856 45.3163 8.69451 44.3935C8.5795 43.6011 8.44544 42.8116 8.32832 42.0193C8.1477 40.8022 7.92474 39.5928 7.67286 38.3892C7.14581 35.8724 6.48187 33.3938 5.59287 30.9787C5.51385 30.7642 5.44047 30.5476 5.36498 30.331C5.35228 30.295 5.34451 30.2576 5.33252 30.211C5.36004 30.211 5.37768 30.2068 5.39179 30.2117C5.86381 30.367 6.35276 30.4178 6.84524 30.4453C7.5388 30.4834 8.22954 30.4488 8.91887 30.3691C10.2566 30.2146 11.5675 29.9161 12.8855 29.6501C15.5843 29.1061 18.2379 28.3801 20.8929 27.6618C22.3887 27.2569 23.8859 26.854 25.3774 26.4349C26.8041 26.0334 28.211 25.5699 29.5783 24.9941C30.2006 24.7317 30.8187 24.4572 31.3803 24.0769C31.6209 23.9139 31.8347 23.7128 32.0605 23.5287C32.0859 23.5082 32.1085 23.4849 32.1628 23.4355C32.2849 25.8662 32.385 28.2602 32.7724 30.6435ZM27.9852 28.6256C28.0268 28.4683 27.9534 28.2912 27.789 28.2312C27.5266 28.1353 27.2599 28.0428 26.9875 27.9857C26.536 27.8912 26.0886 27.9702 25.6448 28.0711C24.8871 28.2432 24.1985 28.5727 23.5493 28.9897C23.0681 29.2987 22.5912 29.6148 22.1163 29.9337C21.6076 30.2752 21.106 30.6259 20.562 30.9102C20.4054 30.9921 20.2424 31.0655 20.0745 31.1184C19.7485 31.2214 19.5079 31.1297 19.3132 30.8517C19.2835 30.81 19.2567 30.7642 19.2207 30.7289C19.1227 30.6337 19.0041 30.6019 18.8729 30.6457C18.7346 30.6915 18.645 30.7938 18.6436 30.9363C18.6429 31.0337 18.6697 31.1459 18.7226 31.2256C18.9935 31.6313 19.3661 31.8684 19.8691 31.8634C19.9164 31.8627 19.9644 31.8634 20.0081 31.8634C20.0117 31.8903 20.0145 31.8966 20.0131 31.9015C20.0018 31.9396 19.9891 31.9777 19.9778 32.0166C19.8402 32.4716 19.7866 32.9338 19.8593 33.4065C19.9531 34.0126 20.2339 34.5135 20.7426 34.86C21.4376 35.3334 22.2017 35.4674 23.0181 35.2438C23.6495 35.0709 24.1893 34.728 24.6712 34.2955C25.5193 33.5342 25.9969 32.5859 26.0597 31.4422C26.1077 30.573 25.8036 29.8512 25.1256 29.2952C25.0635 29.2444 25.0021 29.1929 24.9421 29.14C24.9216 29.1223 24.9061 29.0991 24.8814 29.0708C24.9167 29.0525 24.9393 29.0356 24.9647 29.0271C25.2638 28.9311 25.5602 28.8239 25.8636 28.7442C26.3857 28.6066 26.9043 28.6052 27.4087 28.8352C27.4744 28.8655 27.552 28.8775 27.6246 28.8818C27.8032 28.8916 27.9421 28.7879 27.9852 28.6256ZM23.5924 47.1487C23.8661 47.0873 23.9967 46.858 23.9176 46.5877C23.8873 46.4847 23.8351 46.3874 23.7857 46.2914C23.6594 46.048 23.5176 45.8116 23.4019 45.5633C23.0188 44.7413 22.7612 43.8749 22.5418 42.9979C22.3499 42.2316 22.2356 41.4499 22.1333 40.6674C22.1079 40.4762 22.0902 40.2843 22.0698 40.0994C22.2137 40.0388 22.3442 39.9936 22.4649 39.9308C22.8459 39.7332 23.1062 39.439 23.1775 39.0016C23.2078 38.8181 23.2001 38.6354 23.1542 38.4562C22.9108 37.5079 22.4035 36.753 21.5159 36.2986C20.5239 35.7906 19.5241 35.8569 18.5455 36.3346C18.0051 36.5977 17.6805 37.05 17.545 37.637C17.3948 38.289 17.5521 38.8485 18.0453 39.3071C18.3402 39.5816 18.6873 39.7622 19.0747 39.8673C19.129 39.8821 19.1833 39.8969 19.2356 39.9118C19.2356 40.1382 19.2518 40.345 19.2327 40.5489C19.1248 41.6933 19.0585 42.8412 18.868 43.9772C18.6782 45.1096 18.5512 46.254 18.1956 47.354C18.0982 47.656 18.2718 47.9057 18.5864 47.9481C18.6591 47.9579 18.736 47.9601 18.8087 47.9495C19.0062 47.9205 19.2045 47.8888 19.3999 47.8479C19.9037 47.7427 20.4025 47.6108 20.9098 47.5283C21.5978 47.4161 22.292 47.3399 22.9835 47.246C23.1867 47.2178 23.392 47.1938 23.5924 47.1487ZM18.1201 31.6715C18.1525 31.2905 18.0763 30.9201 17.9881 30.5525C17.9804 30.5201 17.962 30.4883 17.9444 30.4601C17.8632 30.331 17.7158 30.2703 17.5747 30.3049C17.4216 30.3423 17.3171 30.4643 17.3136 30.6252C17.3122 30.6986 17.3298 30.7719 17.339 30.846C17.3672 31.0782 17.4159 31.3103 17.4202 31.5431C17.4286 31.9615 17.2141 32.2289 16.8105 32.3489C16.5601 32.423 16.304 32.4364 16.0457 32.4215C15.5123 32.3912 14.9909 32.2903 14.4759 32.1527C13.879 31.994 13.2849 31.8253 12.6859 31.6765C12.2357 31.565 11.7799 31.493 11.31 31.5495C10.723 31.62 10.1917 32.0539 10.0711 32.7906C10.0541 32.895 10.064 32.9966 10.131 33.0855C10.2093 33.1892 10.3152 33.2407 10.445 33.2252C10.5805 33.2089 10.6799 33.1342 10.7286 33.0057C10.7667 32.9041 10.7886 32.7969 10.8267 32.696C10.9213 32.4441 11.1054 32.2924 11.37 32.2536C11.7263 32.2014 12.0755 32.2529 12.4446 32.3489C12.4163 32.3849 12.4036 32.4032 12.3888 32.4194C11.4617 33.4065 11.3121 35.0328 11.7496 36.1208C12.2301 37.3146 13.4486 37.9559 14.6974 37.7125C15.9215 37.4733 16.8726 36.8172 17.5387 35.7567C17.7758 35.3792 17.9352 34.9714 18.0206 34.5347C18.1462 33.8905 18.0305 33.307 17.5867 32.8054C17.5768 32.7941 17.5733 32.7771 17.5669 32.7623C17.581 32.7461 17.5902 32.7313 17.6029 32.7207C17.9253 32.4448 18.0848 32.0871 18.1201 31.6715Z" fill="#EC6A6C"/>
<path d="M31.5102 21.2489C31.99 21.5883 32.1198 22.1394 31.8418 22.6572C31.7099 22.9035 31.5187 23.0996 31.3035 23.2739C31.0085 23.5131 30.6776 23.6958 30.3411 23.868C29.4323 24.3329 28.4805 24.6928 27.5182 25.0272C26.1346 25.5084 24.7248 25.9028 23.3109 26.2817C21.2669 26.8292 19.225 27.381 17.1803 27.9249C15.3614 28.409 13.5255 28.8189 11.6791 29.1823C10.8881 29.3382 10.0951 29.4849 9.29851 29.6098C8.31708 29.7636 7.33 29.8144 6.33869 29.698C6.01343 29.6599 5.69522 29.5929 5.39536 29.4553C5.24719 29.3876 5.1209 29.2923 5.01859 29.1646C4.85914 28.9649 4.83021 28.7497 4.9565 28.5261C5.02706 28.4026 5.10679 28.2813 5.20063 28.1754C5.34879 28.0089 5.50543 27.8495 5.66982 27.6992C5.99015 27.4064 6.80577 26.8511 7.23334 26.6232C7.24816 26.6655 7.26509 26.705 7.27638 26.746C7.34623 26.9993 7.41537 27.2533 7.48311 27.5073C7.49651 27.5566 7.50992 27.6081 7.51133 27.6589C7.51627 27.8368 7.60517 27.9708 7.75052 28.0512C7.90362 28.1359 8.06943 28.2065 8.23735 28.2544C8.62259 28.3652 9.01911 28.3603 9.41352 28.3194C10.1868 28.2396 10.934 28.059 11.6367 27.714C12.3028 27.3866 12.8531 26.9216 13.2906 26.3276C13.4437 26.1194 13.4973 25.8915 13.3908 25.6199C13.2518 25.2643 13.1622 24.8896 13.0521 24.5227C13.0478 24.5072 13.0514 24.4896 13.0514 24.4741C15.9357 23.7664 18.7953 22.9853 21.5823 21.8903C21.6049 21.9609 21.6274 22.0229 21.6437 22.0864C21.7932 22.6622 21.9407 23.2386 22.0917 23.813C22.1037 23.8574 22.1354 23.9011 22.17 23.9329C22.412 24.1551 22.7175 24.2067 23.0266 24.2405C24.1597 24.3668 25.1898 24.0634 26.1543 23.487C26.6433 23.1949 27.0595 22.8287 27.3665 22.3433C27.4575 22.1993 27.5111 22.0589 27.4285 21.8931C27.4144 21.8649 27.4081 21.8247 27.4166 21.7951C27.4547 21.6702 27.4151 21.5601 27.3714 21.4458C27.2465 21.1149 27.1266 20.7812 26.9974 20.4277C27.0617 20.4213 27.1005 20.415 27.1393 20.4136C28.1503 20.3748 29.1522 20.4432 30.14 20.6697C30.5267 20.7586 30.8971 20.8912 31.2435 21.0867C31.3366 21.1375 31.4262 21.1897 31.5102 21.2489Z" fill="#2E2521"/>
<path d="M30.6107 47.3749C30.6149 47.3968 30.6135 47.4201 30.6163 47.4617C29.8924 47.8448 29.1925 48.2547 28.3973 48.5024C28.391 48.4516 28.3818 48.4198 28.3832 48.3888C28.4255 47.6748 28.4841 46.9614 28.6541 46.2643C28.7028 46.0654 28.779 45.8728 28.8552 45.6823C28.9173 45.5256 29.0253 45.3993 29.1523 45.2886C29.2807 45.1771 29.4232 45.1538 29.5601 45.254C29.697 45.3542 29.8296 45.4657 29.9439 45.5912C30.0998 45.762 30.1894 45.9758 30.2755 46.1882C30.43 46.572 30.5267 46.972 30.6107 47.3749Z" fill="#EC6A6C"/>
<path d="M27.789 28.2313C27.9534 28.2913 28.0268 28.4684 27.9852 28.6257C27.9422 28.788 27.8025 28.8917 27.6254 28.8818C27.5527 28.8776 27.4751 28.8656 27.4095 28.8353C26.905 28.6053 26.3864 28.6074 25.8643 28.7443C25.5609 28.824 25.2646 28.9312 24.9654 29.0272C24.94 29.0356 24.9167 29.0519 24.8821 29.0709C24.9068 29.0992 24.9224 29.1224 24.9428 29.1401C25.0028 29.193 25.0649 29.2445 25.1263 29.2953C25.8043 29.852 26.1084 30.5738 26.0604 31.4423C25.9976 32.586 25.52 33.5343 24.6719 34.2956C24.19 34.7281 23.6509 35.071 23.0188 35.2439C22.2024 35.4675 21.4383 35.3335 20.7433 34.86C20.2346 34.5136 19.9538 34.0134 19.86 33.4066C19.7866 32.9339 19.8402 32.471 19.9785 32.0166C19.9898 31.9785 20.0025 31.9404 20.0138 31.9016C20.0152 31.8967 20.0124 31.8903 20.0089 31.8635C19.9651 31.8635 19.9171 31.8635 19.8699 31.8635C19.3668 31.8678 18.995 31.6307 18.7233 31.2257C18.6704 31.146 18.6436 31.0331 18.6443 30.9364C18.6457 30.7939 18.736 30.6923 18.8736 30.6457C19.0048 30.602 19.1234 30.6337 19.2214 30.729C19.2581 30.7643 19.2849 30.8094 19.3139 30.8518C19.5086 31.1297 19.7492 31.2215 20.0752 31.1185C20.2431 31.0655 20.4068 30.9922 20.5627 30.9103C21.106 30.626 21.6084 30.2746 22.1171 29.9338C22.5919 29.6149 23.0689 29.2981 23.5501 28.9898C24.1992 28.5735 24.8878 28.2433 25.6456 28.0712C26.0894 27.9703 26.5367 27.8912 26.9882 27.9858C27.2606 28.0429 27.5273 28.1354 27.789 28.2313ZM24.1646 33.8073C24.1921 33.7841 24.214 33.7537 24.2493 33.7142C24.0778 33.6916 23.9226 33.6853 23.7751 33.6493C23.054 33.4757 22.5206 33.0792 22.2857 32.3497C22.1742 32.0025 22.1375 31.6441 22.1862 31.2814C22.2123 31.0846 22.2539 30.8892 22.2927 30.6669C22.2307 30.7071 22.1876 30.7346 22.1446 30.7622C21.801 30.9788 21.4602 31.1996 21.113 31.4099C21.0016 31.4769 20.9056 31.539 20.8852 31.6822C20.876 31.7471 20.8322 31.8078 20.8005 31.8685C20.5754 32.3031 20.4943 32.7652 20.5493 33.2492C20.6015 33.7142 20.8174 34.0889 21.2189 34.3337C21.6923 34.6223 22.2045 34.721 22.7514 34.5877C23.2925 34.4558 23.7455 34.1622 24.1646 33.8073Z" fill="#2E2521"/>
<path d="M26.6565 21.5333C26.7003 21.6567 26.7532 21.776 26.8068 21.9086C26.6636 22.1619 26.4745 22.3912 26.2367 22.5733C25.3378 23.2626 24.3352 23.6351 23.188 23.5497C23.0913 23.5427 22.9954 23.5243 22.8994 23.5109C22.7872 23.4954 22.7273 23.4453 22.6962 23.3211C22.5382 22.6946 22.3815 22.0674 22.1946 21.4486C21.7783 20.0742 21.3183 18.7146 20.6868 17.4199C20.3121 16.6522 19.8973 15.9085 19.3505 15.2467C18.906 14.7077 18.3881 14.254 17.7827 13.9005C17.2035 13.5626 16.5812 13.3742 15.9109 13.3438C15.211 13.3121 14.5308 13.3968 13.8746 13.6585C12.9271 14.0367 12.2384 14.6893 11.7897 15.5995C11.3374 16.516 11.142 17.4862 11.1639 18.5064C11.1829 19.4088 11.3219 20.295 11.4997 21.1755C11.7989 22.6565 12.1947 24.1135 12.6251 25.5613C12.6427 25.6213 12.6568 25.6848 12.6851 25.7398C12.7479 25.8605 12.7119 25.9494 12.6279 26.0474C12.2737 26.4602 11.8716 26.8108 11.3819 27.0543C10.61 27.4374 9.79015 27.6215 8.93219 27.6342C8.75722 27.6363 8.58153 27.594 8.40585 27.5721C8.2725 27.5552 8.20617 27.4854 8.16807 27.3485C7.90984 26.4228 7.689 25.4879 7.4985 24.546C7.26496 23.391 7.05964 22.2311 6.89384 21.0641C6.70051 19.7066 6.61514 18.3434 6.71603 16.9732C6.78306 16.0588 6.89172 15.1494 7.17253 14.2724C7.72639 12.5423 8.76074 11.1608 10.2156 10.0792C11.063 9.44986 12.012 9.08438 13.0456 8.92563C13.4238 8.86707 13.8048 8.81063 14.1865 8.79158C15.06 8.74924 15.8904 8.95738 16.6905 9.29041C17.7467 9.72997 18.7366 10.2909 19.639 10.9943C20.703 11.8234 21.6767 12.7519 22.5248 13.8025C23.1259 14.5468 23.6508 15.3462 24.144 16.1654C25.1685 17.8672 25.9961 19.6614 26.6565 21.5333Z" fill="#F5DEBB"/>
<path d="M24.2492 33.7143C24.2139 33.7538 24.192 33.7841 24.1645 33.8074C23.7454 34.1616 23.2931 34.4558 22.7506 34.5878C22.2037 34.7211 21.6915 34.6224 21.2181 34.3338C20.8166 34.089 20.6007 33.7136 20.5485 33.2493C20.4942 32.7653 20.5753 32.3032 20.7997 31.8686C20.8314 31.8079 20.8752 31.7472 20.8844 31.6823C20.9048 31.5391 21.0008 31.4777 21.1122 31.4099C21.4594 31.2004 21.8009 30.9788 22.1438 30.7622C22.1868 30.7354 22.2291 30.7072 22.2919 30.667C22.2531 30.8892 22.2115 31.084 22.1854 31.2815C22.1367 31.6442 22.1734 32.0026 22.2849 32.3498C22.5205 33.0786 23.0532 33.4758 23.7743 33.6494C23.9225 33.6854 24.0777 33.6917 24.2492 33.7143Z" fill="#F5DEBB"/>
<path d="M23.9169 46.5883C23.9959 46.8585 23.8654 47.0878 23.5916 47.1492C23.3912 47.1943 23.1859 47.2183 22.982 47.2458C22.2906 47.3397 21.5963 47.4152 20.9084 47.5281C20.4011 47.6113 19.9023 47.7425 19.3985 47.8477C19.2031 47.8886 19.0055 47.9203 18.8072 47.9493C18.7346 47.9599 18.6584 47.957 18.585 47.9479C18.2696 47.9055 18.096 47.6565 18.1941 47.3538C18.5497 46.2538 18.6767 45.1094 18.8665 43.977C19.057 42.841 19.1233 41.6924 19.2313 40.5487C19.2503 40.3455 19.2341 40.138 19.2341 39.9116C19.1819 39.8974 19.1276 39.8819 19.0732 39.8671C18.6852 39.7627 18.3387 39.5813 18.0438 39.3069C17.5513 38.8483 17.3933 38.2888 17.5436 37.6368C17.679 37.0505 18.0036 36.5975 18.5441 36.3344C19.5234 35.8574 20.5224 35.7911 21.5145 36.2984C22.4021 36.7528 22.9101 37.507 23.1528 38.456C23.1986 38.6345 23.2057 38.8179 23.1761 39.0014C23.1041 39.4381 22.8444 39.733 22.4634 39.9306C22.3428 39.9934 22.2123 40.0386 22.0683 40.0992C22.0888 40.2841 22.1064 40.476 22.1318 40.6672C22.2341 41.4497 22.3484 42.2314 22.5403 42.9977C22.7598 43.8747 23.0173 44.7411 23.4004 45.5631C23.5161 45.8114 23.6579 46.0478 23.7842 46.2912C23.835 46.3879 23.8865 46.4852 23.9169 46.5883Z" fill="black"/>
<path d="M17.9875 30.5529C18.0757 30.9205 18.1519 31.2909 18.1195 31.6719C18.0842 32.0874 17.9247 32.4452 17.6016 32.7203C17.5889 32.7309 17.579 32.7457 17.5656 32.762C17.572 32.7761 17.5755 32.7937 17.5854 32.805C18.0292 33.3067 18.1449 33.8901 18.0193 34.5343C17.9339 34.9711 17.7745 35.3789 17.5374 35.7564C16.8713 36.8168 15.9202 37.473 14.6961 37.7122C13.4473 37.9556 12.2288 37.3142 11.7483 36.1204C11.3101 35.0325 11.4597 33.4061 12.3875 32.4191C12.403 32.4028 12.415 32.3845 12.4433 32.3485C12.0742 32.2525 11.7243 32.201 11.3687 32.2533C11.1041 32.2921 10.92 32.4438 10.8254 32.6956C10.7873 32.7972 10.7654 32.9045 10.7273 33.0054C10.6787 33.1338 10.5792 33.2086 10.4437 33.2248C10.3146 33.2403 10.2088 33.1888 10.1297 33.0851C10.0627 32.9969 10.0528 32.8953 10.0698 32.7902C10.1904 32.0536 10.721 31.6197 11.3087 31.5491C11.7793 31.4927 12.2344 31.5646 12.6846 31.6761C13.2836 31.825 13.8777 31.9936 14.4746 32.1524C14.9896 32.2892 15.511 32.3901 16.0444 32.4212C16.3027 32.436 16.5595 32.4226 16.8093 32.3485C17.2128 32.2286 17.4273 31.9619 17.4189 31.5428C17.4139 31.3099 17.3659 31.0778 17.3377 30.8457C17.3285 30.7723 17.3109 30.6982 17.3123 30.6248C17.3158 30.464 17.4203 30.3419 17.5734 30.3045C17.7145 30.2699 17.8619 30.3306 17.9431 30.4597C17.9621 30.4887 17.9798 30.5204 17.9875 30.5529ZM15.9619 36.445C15.9562 36.4351 15.9513 36.4252 15.9456 36.4153C15.7389 36.3744 15.5287 36.3455 15.3255 36.2912C14.6164 36.1007 13.9179 35.3387 13.9496 34.4454C13.968 33.9254 14.1648 33.4809 14.495 33.0886C14.5366 33.0385 14.5783 32.9892 14.6326 32.9249C14.1451 32.793 13.6843 32.6681 13.2441 32.5489C13.1657 32.6385 13.1051 32.7119 13.0409 32.7817C12.9364 32.8946 12.8151 32.9941 12.7262 33.1176C12.3184 33.6855 12.1864 34.3318 12.2189 35.0183C12.2344 35.3415 12.3036 35.6533 12.4418 35.9469C12.7643 36.627 13.3069 36.9904 14.054 37.0518C14.5501 37.092 15.003 36.9346 15.4419 36.7321C15.6218 36.6496 15.7897 36.5416 15.9619 36.445Z" fill="#2E2521"/>
<path d="M15.9463 36.4153C15.952 36.4252 15.9569 36.435 15.9625 36.4449C15.7897 36.5416 15.6218 36.6495 15.4425 36.7321C15.003 36.9346 14.5507 37.0919 14.0547 37.0517C13.3075 36.9903 12.7642 36.627 12.4425 35.9468C12.3035 35.654 12.2344 35.3414 12.2195 35.0183C12.1871 34.3311 12.319 33.6855 12.7268 33.1175C12.8157 32.994 12.9371 32.8946 13.0415 32.7817C13.1064 32.7118 13.1671 32.6384 13.2447 32.5488C13.685 32.6681 14.1457 32.793 14.6333 32.9249C14.5796 32.9891 14.538 33.0392 14.4957 33.0886C14.1648 33.4809 13.9686 33.9261 13.9503 34.4454C13.9185 35.3379 14.617 36.1006 15.3261 36.2911C15.5293 36.3454 15.7396 36.3744 15.9463 36.4153Z" fill="#F5DEBB"/>
</svg>
