<svg width="184" height="200" viewBox="0 0 184 200" fill="none" xmlns="http://www.w3.org/2000/svg">
<path d="M181.943 74.9444C183.854 76.6304 184.504 79.367 183.475 81.7076C183.134 82.486 182.611 83.1846 182.168 83.9162C182.094 84.0399 182.003 84.1527 181.921 84.2655C182.988 85.2941 183.365 86.5703 183.39 87.9758C183.412 89.2327 183.117 90.4264 182.608 91.5705C182.474 91.8758 182.331 92.1756 182.199 92.4672C182.405 92.833 182.622 93.1685 182.796 93.5261C183.596 95.1791 183.53 96.8953 183.112 98.6253C182.867 99.632 182.432 100.559 181.852 101.42C181.654 101.714 181.451 102.008 181.253 102.297C181.264 102.344 181.261 102.396 181.286 102.421C182.166 103.301 182.523 104.39 182.575 105.603C182.713 108.736 181.679 111.492 179.825 113.964C178.904 115.194 177.806 116.261 176.613 117.226C174.896 118.613 173.065 119.828 171.112 120.851C170.928 120.948 170.743 121.049 170.52 121.17C170.52 121.616 170.474 122.075 170.529 122.524C170.853 125.227 171.112 127.945 171.56 130.626C172.399 135.646 173.296 140.66 174.278 145.652C175.13 149.986 176.134 154.291 177.072 158.612C177.124 158.856 177.19 159.101 177.229 159.349C177.391 160.43 176.626 161.139 175.567 160.894C175.43 160.861 175.279 160.834 175.141 160.853C172.135 161.269 169.126 161.67 166.123 162.113C156.727 163.491 147.725 166.175 139.257 170.496C132.796 173.794 127.02 178.016 122.306 183.594C121.97 183.992 121.484 184.38 121.393 184.837C121.302 185.293 121.596 185.838 121.77 186.327C122.127 187.334 122.531 188.324 122.889 189.328C123.004 189.655 123.04 190.013 123.112 190.357C123.137 190.478 123.134 190.613 123.183 190.72C123.453 191.278 123.296 191.77 123.002 192.266C122.056 193.853 120.741 195.063 119.165 195.992C117.284 197.098 115.226 197.758 113.106 198.184C111.654 198.476 110.168 198.68 108.689 198.779C106.433 198.927 104.214 198.608 102.063 197.901C101.051 197.568 100.061 197.161 99.0622 196.784C98.2454 196.474 97.7915 195.904 97.676 195.013C97.3652 192.667 97.0159 190.324 96.6804 187.98C96.6584 187.818 96.6199 187.656 96.6006 187.565C95.4922 187.334 94.4388 187.087 93.3771 186.894C89.1993 186.138 84.9884 185.81 80.7445 185.918C72.8894 186.116 65.1223 187.048 57.4569 188.778C52.6024 189.873 47.8992 191.421 43.4216 193.638C40.7949 194.939 38.0995 196.097 35.4399 197.329C34.623 197.709 33.8419 198.162 33.014 198.514C32.1119 198.9 31.185 199.235 30.2499 199.535C29.4358 199.793 28.7262 199.32 28.5886 198.476C28.5391 198.168 28.5474 197.849 28.5556 197.535C28.7207 191.583 28.6299 185.629 28.5254 179.677C28.4374 174.69 28.2641 169.704 27.8213 164.731C27.7278 163.689 27.6315 162.644 27.5297 161.601C27.5105 161.398 27.4665 161.2 27.4252 160.933C25.0269 161.439 22.667 161.915 20.2329 161.824C19.5673 162.842 18.7835 163.738 17.8208 164.456C16.8829 165.155 15.9175 165.818 14.9136 166.533C15.0154 166.841 15.1254 167.171 15.2272 167.479C16.1486 167.534 17.0287 167.561 17.9006 167.644C19.284 167.776 20.5602 168.202 21.6301 169.135C22.3617 169.773 22.8321 170.557 22.8211 171.533C22.8155 172.086 22.7028 172.661 22.524 173.186C22.1472 174.294 21.4734 175.23 20.6565 176.063C18.7807 177.988 16.4511 179.083 13.8795 179.685C11.5004 180.241 9.10754 180.315 6.73669 179.592C5.43575 179.196 4.25583 178.582 3.24918 177.661C1.92073 176.445 1.19188 174.933 1.0076 173.15C0.751813 170.658 1.3624 168.323 2.3333 166.065C3.49672 163.359 5.32298 161.131 7.44629 159.131C8.34568 158.287 9.30557 157.506 10.2875 156.653C9.23681 153.328 10.2985 150.426 12.4245 147.756C12.3558 147.671 12.298 147.588 12.2292 147.517C10.1774 145.388 9.60811 142.866 10.2572 140.027C10.5405 138.792 11.0521 137.648 11.7094 136.509C11.5774 136.388 11.4481 136.259 11.3106 136.146C10.5075 135.492 9.83089 134.727 9.27531 133.852C8.20541 132.167 7.89186 130.373 8.48045 128.442C8.88751 127.111 9.46509 125.863 10.2875 124.732C11.4454 123.137 12.8178 121.764 14.4571 120.678C15.2024 120.186 16.0303 119.82 16.8747 119.369C16.8472 119.273 16.8142 119.119 16.7537 118.97C15.0182 114.696 13.0654 110.524 10.9586 106.423C10.8155 106.145 10.634 105.886 10.4717 105.617C9.81989 104.53 10.5295 103.186 11.7919 103.161C12.7738 103.139 13.7612 103.186 14.7459 103.199C14.9714 103.202 15.1942 103.199 15.4775 103.199C15.4307 102.982 15.4115 102.842 15.373 102.71C14.8971 101.147 14.4241 99.5825 13.9372 98.0257C13.5632 96.8348 14.149 95.9327 15.3867 95.9189C17.334 95.8997 19.284 95.9382 21.2313 95.9519C21.4596 95.9519 21.6906 95.9519 22.0152 95.9519C21.9272 95.6907 21.8804 95.4734 21.7869 95.2808C21.0965 93.8479 20.4227 92.4039 19.6911 90.993C19.3885 90.4154 19.3088 89.8653 19.4408 89.2437C19.5756 88.6111 19.9386 88.2206 20.563 88.1353C21.2891 88.0335 22.0207 87.9703 22.7523 87.9318C25.5577 87.7805 28.3631 87.7695 31.1713 87.9208C31.3776 87.9318 31.5838 87.9208 31.8396 87.9208C31.8286 87.742 31.8369 87.5825 31.8066 87.4284C31.5096 85.9075 31.5481 84.3838 31.7159 82.8545C32.1202 79.1827 33.2313 75.731 35.0686 72.5268C36.1138 70.7032 37.3734 69.031 38.8367 67.5128C38.9219 67.422 39.0044 67.3313 39.1199 67.2047C38.9962 67.1277 38.9054 67.0507 38.8009 67.0067C36.3558 65.9671 34.546 64.2205 33.1901 61.9707C31.3033 58.838 30.1756 55.4413 29.6778 51.8272C29.312 49.1566 29.2625 46.4804 29.554 43.8016C29.5733 43.6145 29.5898 43.4248 29.6035 43.2377C29.6035 43.2185 29.587 43.1992 29.5623 43.136C28.1266 42.8142 27.4307 41.6782 26.8174 40.4598C25.9593 38.7546 25.7777 36.9338 25.9235 35.069C26.1435 32.2114 27.0072 29.5627 28.6767 27.2221C29.2322 26.4438 29.8978 25.7204 30.6129 25.0906C32.8325 23.135 35.4317 22.6042 38.3003 23.1845C40.4071 23.6108 42.3297 24.4415 44.0597 25.7232C44.2769 25.8854 44.5025 26.0395 44.7253 26.1935C44.739 26.2017 44.7665 26.1935 44.8353 26.188C45.5834 24.5322 46.7331 23.1818 48.3063 22.2246C48.2953 22.0954 48.298 22.0129 48.2788 21.9331C47.5472 18.9627 48.254 16.3195 50.1766 14.0037C51.582 12.3094 53.334 11.0112 55.2153 9.88358C57.0553 8.77792 58.9916 7.88954 61.1012 7.36972C61.1259 7.2872 61.1727 7.21019 61.1727 7.13318C61.1617 5.30966 62.0748 3.93721 63.3702 2.78754C65.5568 0.84576 68.1367 0.166411 71.0136 0.523963C72.6776 0.730243 74.2371 1.25282 75.6728 2.1247C76.6519 2.72153 77.5018 3.45314 78.1317 4.42403C78.2637 4.63031 78.4012 4.75958 78.6707 4.77884C83.3822 5.13089 87.7471 6.67386 91.9799 8.65965C95.4207 10.2714 98.5452 12.3589 101.315 14.9663C101.403 15.0516 101.499 15.1259 101.631 15.2386C101.774 15.0543 101.898 14.8921 102.022 14.7353C104.148 12.0949 106.89 10.6647 110.295 10.684C112.281 10.695 114.057 11.3908 115.578 12.7137C117.732 14.584 118.893 16.9906 119.454 19.7328C119.828 21.5618 119.773 23.3991 119.517 25.2363C119.396 26.1082 119.239 26.9746 119.099 27.841C119.08 27.962 119.077 28.0858 119.063 28.2535C120.227 28.6138 121.329 28.9411 122.424 29.2932C124.759 30.0468 127.034 30.9517 129.204 32.1068C130.409 32.7504 131.553 33.4875 132.581 34.3897C133.426 35.1323 134.111 35.9959 134.597 37.0136C135.511 38.9278 135.425 40.7789 134.262 42.5694C133.156 44.2691 131.613 45.4655 129.836 46.3814C128.192 47.2286 126.459 47.8502 124.696 48.3947C122.19 49.1648 119.638 49.7424 117.053 50.166C116.899 50.1907 116.747 50.243 116.519 50.3035C116.753 50.5098 116.923 50.6583 117.094 50.8096C119.445 52.8861 121.019 55.4193 121.643 58.5135C121.712 58.86 121.753 59.2176 121.783 59.5724C121.841 60.2655 121.849 60.9558 121.407 61.6132C122.982 63.0076 124.259 64.6249 125.241 66.5199C125.436 66.3851 125.59 66.2888 125.733 66.1788C132.683 60.8981 139.919 56.0546 147.637 51.9592C149.172 51.1451 150.742 50.3943 152.296 49.6187C152.464 49.5361 152.643 49.4619 152.827 49.4289C153.721 49.2584 154.455 49.9652 154.321 50.8673C154.285 51.1149 154.235 51.3679 154.145 51.5989C153.432 53.4032 153.256 55.2955 153.176 57.207C153.154 57.7296 153.174 58.2494 153.174 58.8353C153.391 58.7637 153.567 58.7142 153.735 58.6455C156.799 57.3913 159.94 56.3489 163.086 55.334C163.477 55.2075 163.859 55.1497 164.247 55.334C164.899 55.6448 165.171 56.4039 164.8 57.097C164.153 58.3017 163.958 59.6329 163.647 60.9338C163.639 60.9668 163.672 61.0081 163.699 61.0878C163.889 61.0218 164.082 60.9558 164.272 60.8898C165.735 60.3837 167.201 59.8749 168.664 59.3716C169.09 59.2258 169.514 59.1846 169.954 59.3523C170.707 59.6384 171.054 60.1665 170.917 60.9668C170.784 61.7507 170.57 62.5208 170.449 63.3074C170.119 65.483 169.819 67.6613 169.511 69.8396C169.475 70.1064 169.473 70.3759 169.453 70.662C169.563 70.6977 169.638 70.7445 169.712 70.7473C171.722 70.7995 173.648 71.3111 175.556 71.8749C176.739 72.2242 177.911 72.6313 179.055 73.0851C180.133 73.5142 181.085 74.1743 181.954 74.9389L181.943 74.9444ZM180.933 81.119C181.728 79.7108 181.437 77.7635 180.056 76.7074C179.168 76.028 178.233 75.4229 177.163 75.0956C175.402 74.5566 173.631 74.056 171.849 73.5994C171.024 73.3876 170.166 73.2749 169.211 73.3409C169.049 75.0296 169.09 76.6744 169.132 78.3879C169.478 78.3466 169.745 78.3136 170.012 78.2806C171.445 78.1046 172.875 77.9121 174.311 77.7663C174.762 77.7223 175.237 77.7525 175.677 77.8543C176.239 77.9836 176.563 78.5199 176.538 79.092C176.514 79.6366 176.162 80.0904 175.62 80.2306C175.4 80.2884 175.166 80.2966 174.938 80.3131C174.396 80.3544 173.848 80.3572 173.309 80.4259C171.94 80.6019 170.573 80.7945 169.206 80.998C167.338 81.2758 165.498 81.6719 163.732 82.354C161.67 83.1516 159.753 84.216 157.99 85.5527C156.856 86.4135 155.938 87.4614 155.355 88.7789C155.011 89.5545 155.203 90.0716 155.894 90.4924C156.345 90.7674 156.884 90.96 157.409 91.0452C159.249 91.3423 161.084 91.1112 162.91 90.8554C166.04 90.4126 169.027 89.461 171.942 88.2728C174.652 87.1727 177.058 85.5994 179.113 83.5091C179.82 82.7885 180.436 82.0019 180.933 81.119ZM180.579 89.6453C180.799 88.9769 180.843 88.2893 180.79 87.5962C180.749 87.0489 180.546 86.5566 180.18 86.1193C179.561 86.6171 178.986 87.1039 178.387 87.5577C176.197 89.2189 173.76 90.4071 171.183 91.3368C167.517 92.6597 163.771 93.5866 159.86 93.7296C159.002 93.7599 158.144 93.7351 157.186 93.7351C156.551 94.607 156.125 95.6054 156.13 96.7303C156.136 97.99 156.642 99.0379 157.778 99.6375C158.416 99.9758 159.128 100.218 159.835 100.364C161.164 100.639 162.511 100.476 163.84 100.289C166.741 99.8768 169.519 99.0159 172.143 97.7122C174.385 96.5983 176.481 95.2533 178.288 93.4986C179.393 92.4232 180.103 91.103 180.581 89.648L180.579 89.6453ZM180.738 97.4262C180.859 96.6065 180.925 95.7732 180.579 94.9068C180.408 95.0526 180.287 95.1543 180.169 95.2588C179.52 95.8199 178.901 96.4168 178.222 96.9421C174.319 99.9593 169.902 101.827 165.066 102.704C163.127 103.056 161.164 103.221 159.194 102.88C158.889 102.828 158.729 102.952 158.575 103.177C157.734 104.387 157.547 105.716 157.849 107.132C158.047 108.062 158.606 108.73 159.472 109.074C160.047 109.302 160.669 109.465 161.285 109.533C162.894 109.718 164.461 109.399 165.991 108.95C169.539 107.911 172.803 106.28 175.76 104.055C177.171 102.993 178.444 101.786 179.479 100.336C180.108 99.4532 180.579 98.5016 180.738 97.4234V97.4262ZM179.869 107.814C180.056 106.948 180.136 106.071 179.93 105.196C179.855 104.885 179.69 104.596 179.539 104.233C178.967 104.728 178.488 105.163 177.988 105.57C175.265 107.787 172.212 109.423 168.947 110.675C166.246 111.709 163.477 112.388 160.512 112.072C159.623 113.07 159.018 114.182 158.729 115.452C158.138 118.06 159.458 120.051 162.074 120.505C163.424 120.739 164.742 120.527 166.043 120.158C168.469 119.468 170.65 118.274 172.732 116.891C174.355 115.81 175.878 114.602 177.187 113.134C178.56 111.593 179.437 109.817 179.869 107.812V107.814ZM174.36 158.386C174.299 158.097 174.253 157.875 174.203 157.654C173.76 155.671 173.274 153.697 172.88 151.705C171.865 146.59 170.853 141.474 169.91 136.344C169.145 132.183 168.427 128.011 168.053 123.789C168.012 123.316 167.965 122.84 167.921 122.386C167.836 122.364 167.792 122.337 167.759 122.345C167.517 122.411 167.275 122.477 167.036 122.551C165.168 123.131 163.265 123.395 161.334 122.988C158.663 122.422 156.856 120.876 156.202 118.161C155.8 116.495 156.064 114.864 156.735 113.307C157.049 112.584 157.453 111.899 157.808 111.211C154.425 108.554 154.582 105.309 156.298 101.783C154.794 100.837 153.938 99.434 153.625 97.7094C153.306 95.9602 153.853 94.365 154.67 92.833C154.453 92.6652 154.266 92.5359 154.092 92.3874C153.058 91.5018 152.483 90.4126 152.64 89.0182C152.717 88.3223 152.987 87.6842 153.317 87.0709C154.12 85.5884 155.234 84.3783 156.587 83.3854C159.337 81.3693 162.333 79.8676 165.66 79.07C165.96 78.9985 166.26 78.9104 166.579 78.8252C166.285 73.2721 167.088 67.8456 167.971 62.3008C167.644 62.4108 167.426 62.4795 167.212 62.5538C163.213 63.951 159.343 65.6508 155.492 67.411C150.572 69.6608 145.805 72.1967 141.242 75.1121C137.461 77.527 133.836 80.1674 130.249 82.8573C122.787 88.4488 115.963 94.7033 110.149 102.025C108.933 103.554 107.781 105.119 106.807 106.813C106.697 107.006 106.596 107.204 106.519 107.35C107.22 107.669 107.913 107.886 108.496 108.271C109.704 109.066 110.504 110.141 110.507 111.681C110.507 112.729 110.567 113.777 110.597 114.825C110.663 116.94 110.641 119.064 110.809 121.17C111.172 125.703 111.579 130.233 112.066 134.752C112.476 138.564 112.982 142.365 113.518 146.161C114.319 151.824 115.169 157.478 116.027 163.133C116.965 169.316 118.395 175.386 120.218 181.366C120.257 181.498 120.317 181.624 120.43 181.919C120.587 181.688 120.669 181.542 120.774 181.418C125.458 175.997 131.135 171.841 137.436 168.535C144.713 164.715 152.437 162.107 160.49 160.487C164.64 159.651 168.829 159.068 173.032 158.57C173.458 158.521 173.884 158.452 174.355 158.383L174.36 158.386ZM161.507 58.5905C161.274 58.651 161.136 58.6812 161.001 58.7252C157.838 59.7759 154.708 60.9146 151.694 62.3338C144.125 65.8983 136.776 69.8644 129.748 74.4218C123.142 78.7069 117.094 83.6521 111.676 89.3702C107.162 94.1367 103.534 99.4752 101.034 105.562C100.523 106.802 100.03 108.051 99.7718 109.374C99.6866 109.817 99.6426 110.268 99.5683 110.777C99.9534 110.669 100.228 110.568 100.514 110.518C101.188 110.4 101.763 110.73 101.969 111.327C102.176 111.926 101.934 112.548 101.337 112.872C101.081 113.013 100.8 113.109 100.525 113.205C96.6254 114.569 92.64 115.626 88.5887 116.429C87.9314 116.558 87.2685 116.676 86.6029 116.72C85.9868 116.759 85.4972 116.324 85.3762 115.755C85.2552 115.175 85.522 114.605 86.0721 114.347C86.2949 114.242 86.5506 114.198 86.7927 114.14C87.0897 114.072 87.3868 114.017 87.8131 113.929C87.4968 113.681 87.2905 113.511 87.0732 113.356C85.4422 112.196 83.66 111.307 81.8227 110.537C77.1058 108.56 72.276 106.882 67.3473 105.523C58.9833 103.219 50.5066 101.42 41.9336 100.075C37.5192 99.3817 33.0801 98.9444 28.6216 98.7519C24.8976 98.5896 21.1653 98.5621 17.4358 98.4768C17.2542 98.4713 17.07 98.4768 16.7812 98.4768C17.3505 100.067 17.6365 101.654 18.2471 103.119C18.3571 103.144 18.4204 103.166 18.4809 103.169C18.8385 103.174 19.1933 103.177 19.5508 103.172C26.9164 103.051 34.2517 103.573 41.5705 104.305C45.2588 104.673 48.9444 105.097 52.6079 105.644C57.4321 106.368 62.2481 107.16 67.042 108.065C71.7562 108.953 76.3907 110.191 80.9206 111.797C81.1956 111.896 81.4762 111.995 81.7347 112.13C82.3645 112.457 82.5846 112.938 82.4745 113.64C82.3755 114.264 82.227 114.861 81.9025 115.419C81.6412 115.87 81.4541 116.365 81.4734 116.91C81.4954 117.592 81.8419 118.007 82.5158 118.098C83.2419 118.197 83.9708 118.296 84.6996 118.337C87.7911 118.513 90.8523 118.203 93.8915 117.664C96.8316 117.141 99.6811 116.33 102.387 115.034C103.936 114.292 105.344 113.367 106.48 112.067C106.835 111.659 107.14 111.211 107.487 110.757C107.063 110.315 106.642 110.133 106.189 110.042C105.779 109.962 105.358 109.938 104.943 109.891C104.09 109.795 103.705 109.377 103.581 108.521C103.468 107.743 103.741 107.075 104.093 106.425C104.912 104.913 105.803 103.444 106.854 102.077C109.167 99.0681 111.607 96.161 114.253 93.4381C118.846 88.7046 123.841 84.4333 129.121 80.4864C134.479 76.4791 139.95 72.6478 145.811 69.4023C150.657 66.7207 155.69 64.4378 160.781 62.276C160.988 62.188 161.194 62.1 161.45 61.99C160.96 61.4206 160.977 60.8431 161.144 60.227C161.285 59.7099 161.381 59.1818 161.51 58.5877L161.507 58.5905ZM150.599 59.9602C150.544 57.6581 150.583 55.4303 151.015 53.1117C150.47 53.3867 150.041 53.5985 149.62 53.8213C142.455 57.5673 135.714 61.9817 129.212 66.7729C123.01 71.3441 117.286 76.4763 111.714 81.7846C108.306 85.0301 105.171 88.5148 102.407 92.3269C100.402 95.0966 98.5066 97.935 97.2662 101.153C96.2706 103.741 95.4069 106.362 95.1154 109.137C95.0109 110.136 95.0494 111.134 95.0714 112.234C95.7755 112.025 96.3888 111.844 97.0077 111.657C97.0214 111.522 97.0462 111.42 97.0434 111.318C96.9802 109.764 97.2992 108.276 97.8108 106.824C99.5793 101.805 102.085 97.1731 105.295 92.9375C109.021 88.0198 113.414 83.7457 118.128 79.7796C123.197 75.5164 128.698 71.8859 134.388 68.5277C139.496 65.5132 144.755 62.7821 150.104 60.227C150.286 60.1389 150.462 60.0372 150.599 59.9657V59.9602ZM131.833 41.549C132.796 40.2453 132.972 39.2991 131.979 37.6049C131.831 37.3546 131.655 37.1071 131.443 36.909C130.956 36.4497 130.469 35.9822 129.927 35.5944C128.093 34.2769 126.049 33.3528 123.942 32.5717C119.635 30.9737 115.199 29.8213 110.721 28.8201C110.586 28.7899 110.443 28.7926 110.248 28.7761C110.278 29.0291 110.298 29.2327 110.325 29.4335C110.65 31.741 110.113 33.7653 108.35 35.3716C107.949 35.7374 107.533 36.1059 107.063 36.3727C106.065 36.9421 105.055 37.5031 104.005 37.9679C100.993 39.2991 97.7998 40.0033 94.5598 40.4736C91.7434 40.8806 88.9077 41.1639 86.0721 41.439C83.3767 41.7002 80.673 41.7277 77.9776 41.4637C77.4688 41.4142 77.1745 41.5545 76.8582 41.9148C76.0414 42.8362 75.0485 43.5293 73.9208 44.0298C72.6281 44.6019 71.2639 44.9237 69.8749 45.1437C69.1956 45.251 68.508 45.328 67.8232 45.4188C67.9854 45.5426 68.1422 45.5948 68.3045 45.6223C70.8211 46.0541 73.3322 46.53 75.8598 46.8958C78.9265 47.3413 81.9987 47.7539 85.0819 48.0647C88.1431 48.3755 91.2153 48.6395 94.2903 48.7605C99.5271 48.9641 104.764 48.8623 109.992 48.4305C113.67 48.1279 117.322 47.6494 120.911 46.772C123.417 46.1614 125.884 45.4325 128.222 44.3159C129.616 43.6503 130.893 42.8197 131.828 41.5545L131.833 41.549ZM123.101 68.1261C123.101 68.1261 123.106 68.0876 123.095 68.0491C123.076 67.9886 123.049 67.9336 123.021 67.8758C121.423 64.7871 119.093 62.4768 115.826 61.1814C115.455 61.0356 115.075 60.9173 114.715 60.7495C113.978 60.4057 113.675 59.7181 113.942 59.0498C114.195 58.4144 114.888 58.0981 115.62 58.3677C116.563 58.7142 117.482 59.1185 118.406 59.5119C118.651 59.6164 118.876 59.7676 119.157 59.9217C119.247 59.3853 119.115 58.9425 119 58.508C118.197 55.4825 116.379 53.2134 113.76 51.5549C113.496 51.3872 113.202 51.2469 112.977 51.0379C112.732 50.8123 112.481 50.7738 112.176 50.8013C111.112 50.9003 110.047 50.9829 108.983 51.0764C108.843 51.0874 108.708 51.1314 108.548 51.1616C108.713 51.654 108.892 52.0968 109.01 52.5588C109.577 54.7647 109.464 56.9677 108.892 59.1488C108.015 62.5043 106.387 65.4225 103.617 67.5705C101.054 69.5563 98.1601 70.0652 95.0741 69.0255C92.6455 68.2086 90.844 66.6794 90.0519 64.1435C89.4908 62.3503 89.3753 60.5158 89.5926 58.6702C89.8869 56.1784 90.7395 53.8735 92.0652 51.742C92.1477 51.61 92.2082 51.4669 92.3045 51.2799C92.0102 51.2469 91.7847 51.2194 91.5591 51.1974C88.7427 50.9444 85.9236 50.7271 83.1126 50.43C78.0079 49.8882 72.9334 49.1428 67.8974 48.1389C63.56 47.2781 59.2749 46.2192 55.1163 44.6899C54.9925 44.6459 54.8577 44.6239 54.6762 44.5799C54.712 44.7944 54.7285 44.9375 54.7587 45.0777C54.9293 45.8974 55.13 46.7115 55.2676 47.5366C55.3803 48.216 55.4683 48.9091 55.4821 49.5967C55.4986 50.474 54.8412 51.0434 54.0326 50.9361C53.4193 50.8536 53.026 50.3833 52.938 49.6654C52.8362 48.854 52.7592 48.0399 52.5997 47.2396C51.8626 43.5458 50.6661 39.9977 49.1397 36.5625C48.0698 34.1559 46.689 31.9308 44.9288 29.9615C42.9788 27.7777 40.6354 26.2595 37.7145 25.6791C35.3491 25.2088 33.3716 25.8524 31.7104 27.5604C31.4766 27.7997 31.2483 28.05 31.0503 28.3168C29.2295 30.7591 28.4126 33.5261 28.4566 36.5515C28.4731 37.7699 28.8279 38.9058 29.4715 39.9455C29.6063 40.1655 29.7961 40.3498 30.0079 40.6111C30.0821 40.3938 30.1261 40.2783 30.1591 40.16C30.5167 38.9141 30.8577 37.6599 31.2373 36.4195C31.339 36.0867 31.5068 35.7539 31.7214 35.4788C32.0789 35.0223 32.7005 34.9233 33.2038 35.1653C33.7099 35.4101 33.9904 35.9547 33.8942 36.5212C33.8694 36.6643 33.8282 36.8073 33.7759 36.9448C32.2412 41.1639 31.6636 45.5123 32.0597 49.9872C32.3539 53.2767 33.1488 56.4232 34.6863 59.3661C35.3601 60.6533 36.1 61.8965 37.1727 62.8921C38.6469 64.2618 40.3301 65.1832 42.4067 65.1337C46.26 65.0402 49.2304 63.3762 51.2575 60.0729C51.4005 59.8419 51.5298 59.5971 51.7113 59.3963C52.1073 58.959 52.7014 58.8628 53.2048 59.1213C53.7026 59.3743 53.9831 59.9244 53.8538 60.4937C53.7906 60.7743 53.6668 61.0521 53.5211 61.2996C51.252 65.1254 47.8552 67.18 43.4738 67.6723C43.0805 67.7163 42.6322 67.6173 42.2967 67.7713C41.9419 67.9336 41.6943 68.3242 41.3918 68.6047C40.0303 69.8671 38.8807 71.3083 37.8823 72.8623C35.7727 76.1518 34.5818 79.7603 34.227 83.6466C34.0895 85.1566 34.2022 86.6501 34.5735 88.094C37.3844 88.4433 40.1816 88.7899 43.0228 89.1419C43.0035 88.9412 43.0035 88.7761 42.9733 88.6194C42.7725 87.544 42.8577 86.4906 43.2043 85.4592C44.0624 82.8848 45.6411 80.8495 47.8332 79.2735C49.2937 78.2228 50.9137 77.4967 52.6217 76.9604C55.4216 76.083 58.293 75.918 61.2002 76.1435C61.7998 76.1903 62.3994 76.2426 62.9962 76.2921C63.0099 76.2123 63.0264 76.1738 63.0209 76.1353C63.0127 76.0748 62.9934 76.0115 62.9714 75.9538C61.9538 73.3464 61.8988 70.6785 62.5121 67.9803C62.8614 66.4456 63.2905 64.9329 64.2091 63.6155C64.4374 63.2909 64.7069 62.9911 64.9132 62.6528C66.613 59.8749 69.0938 58.1972 72.2265 57.4243C73.8108 57.0337 75.3813 57.086 76.9462 57.5233C81.7292 58.86 86.0281 64.072 84.6859 70.5492C83.836 74.6583 81.7484 77.9946 78.3297 80.4672C78.2609 80.5167 78.1839 80.5524 78.0491 80.6267C78.3407 80.7807 78.5222 80.8742 78.7037 80.9732C79.7351 81.5316 80.7693 82.0844 81.7952 82.6537C82.0125 82.7748 82.2215 82.926 82.392 83.1076C82.8129 83.5504 82.8541 84.1802 82.5268 84.6698C82.2133 85.1374 81.6467 85.3436 81.0911 85.1566C80.8353 85.0714 80.596 84.9338 80.3622 84.7963C77.8621 83.3303 75.2465 82.1064 72.5291 81.108C69.6467 80.0491 66.668 79.3835 63.626 78.9902C61.3982 78.7014 59.1676 78.4924 56.9233 78.7207C54.3462 78.982 51.9148 79.6971 49.7172 81.1108C47.957 82.2439 46.6753 83.7732 45.8447 85.6984C45.3248 86.9031 45.3496 88.0913 45.8062 89.3042C45.9244 89.6178 46.0922 89.7415 46.4223 89.813C49.2194 90.4429 52.0358 91.0122 54.8 91.7631C62.1243 93.7544 69.2809 96.238 76.2366 99.2909C76.4374 99.3789 76.6464 99.4532 76.9407 99.566C76.8362 99.2634 76.7647 99.0736 76.7042 98.8784C76.3521 97.7397 75.9946 96.601 75.6618 95.4569C75.5875 95.2011 75.5683 94.9178 75.5903 94.651C75.6315 94.1284 76.0248 93.7021 76.5172 93.5811C77.0452 93.4518 77.5926 93.6609 77.8786 94.1312C77.9859 94.3072 78.0601 94.5107 78.1069 94.7115C78.602 96.8238 79.3858 98.8261 80.3347 100.773C80.5025 101.117 80.7253 101.332 81.0663 101.494C83.2089 102.506 85.2772 103.659 87.2327 104.998C89.0673 106.255 90.8715 107.55 92.31 109.278C92.343 109.316 92.409 109.33 92.5163 109.385C92.6565 107.471 93.0993 105.655 93.6219 103.785C93.4294 103.829 93.3304 103.846 93.2369 103.876C91.6966 104.371 90.1674 104.239 88.674 103.703C86.4984 102.921 84.7244 101.557 83.4317 99.6622C81.8117 97.2886 80.651 94.695 80.189 91.8263C80.1532 91.6036 80.0982 91.3863 80.0459 91.1415C79.7434 91.1415 79.4739 91.136 79.2071 91.1415C76.8335 91.1855 74.5341 90.8224 72.3256 89.9231C71.8305 89.7223 71.3822 89.4665 71.0769 89.0127C70.6946 88.4488 70.7413 87.786 71.1841 87.3404C71.6215 86.9031 72.2815 86.8729 72.8564 87.2359C73.1369 87.4119 73.434 87.5715 73.742 87.6925C75.5243 88.3993 77.389 88.6111 79.2923 88.5561C82.3013 88.4681 85.1754 87.764 87.9588 86.6528C89.2268 86.1468 90.448 85.5499 91.5564 84.7413C91.6967 84.6395 91.8177 84.513 92.035 84.326C91.8094 84.2985 91.7132 84.2792 91.6141 84.2765C90.4672 84.271 89.3753 83.9849 88.3027 83.6164C87.1997 83.2341 86.2096 82.651 85.3955 81.8066C84.6941 81.0805 84.2156 80.2389 84.1 79.213C83.924 77.6453 84.4878 76.3306 85.478 75.1726C86.2371 74.2843 87.1805 73.6214 88.2229 73.1098C90.3269 72.0784 92.5575 71.4294 94.8679 71.0855C95.7507 70.9535 96.6776 70.882 97.555 71.003C98.8559 71.1818 100.151 71.5009 101.232 72.2792C103.13 71.4926 105.064 71.1983 107.055 71.4404C108.821 71.6521 110.421 72.2792 111.684 73.6022C112.363 74.3145 112.787 75.1754 113.158 76.0693C113.232 76.2508 113.312 76.4296 113.389 76.6084C116.659 73.7589 119.877 70.9563 123.117 68.1316L123.101 68.1261ZM120.757 190.959C120.339 189.873 119.897 188.874 119.569 187.84C118.662 184.985 117.77 182.128 116.929 179.256C114.756 171.841 113.513 164.233 112.399 156.604C111.945 153.496 111.491 150.388 111.068 147.274C110.611 143.911 110.177 140.547 109.761 137.178C109.495 135.016 109.266 132.849 109.052 130.681C108.804 128.178 108.54 125.678 108.378 123.17C108.207 120.538 108.144 117.895 108.037 115.26C108.026 114.974 108.037 114.688 108.037 114.402C107.982 114.385 107.924 114.366 107.866 114.349C106.818 115.392 105.66 116.299 104.324 116.927C102.96 117.565 101.584 118.192 100.171 118.701C97.1204 119.792 93.9492 120.37 90.734 120.714C88.1239 120.992 85.5137 121.11 82.8981 120.761C82.8073 120.747 82.7111 120.774 82.5708 120.788C82.8789 121.621 83.2007 122.392 83.4564 123.186C84.5401 126.556 85.6018 129.93 86.6799 133.302C89.7081 142.783 92.2715 152.393 94.4911 162.091C95.5197 166.58 96.3751 171.109 97.2552 175.631C98.2014 180.486 98.933 185.373 99.5848 190.272C99.7498 191.517 99.9396 192.761 100.118 194.004C100.157 194.282 100.226 194.499 100.542 194.628C102.588 195.464 104.684 196.1 106.909 196.21C109.277 196.325 111.588 195.981 113.862 195.36C115.38 194.944 116.871 194.441 118.2 193.567C119.258 192.871 120.191 192.043 120.76 190.965L120.757 190.959ZM116.871 25.5664C117.121 23.8199 117.286 22.0706 116.934 20.3131C116.489 18.099 115.6 16.138 113.848 14.6308C112.974 13.8799 111.973 13.4509 110.848 13.3078C107.982 12.9475 104.97 14.5428 103.501 17.1859C103.543 17.2464 103.587 17.3207 103.639 17.3812C105.806 19.9446 107.924 22.5409 109.241 25.6819C109.299 25.8194 109.503 25.9432 109.662 25.9817C111.841 26.496 114.024 26.9966 116.205 27.4944C116.299 27.5164 116.401 27.5082 116.538 27.5137C116.654 26.8398 116.778 26.2045 116.868 25.5664H116.871ZM111.282 78.6437C110.977 77.8158 110.721 76.9962 110.375 76.2178C110.023 75.4284 109.395 74.8894 108.603 74.518C107.382 73.9515 106.112 73.836 104.802 73.9927C104.271 74.0587 103.743 74.1688 103.163 74.2678C103.749 76.5424 103.471 78.0551 102.181 79.7713C101.378 80.8412 100.41 81.7434 99.2053 82.3264C98.1161 82.8545 96.9747 83.2698 95.8553 83.7346C95.7095 83.7952 95.5637 83.8529 95.3877 83.9217C95.451 84.0427 95.473 84.128 95.5252 84.1857C97.1617 86.0065 99.2218 86.9361 101.645 87.1231C102.093 87.1562 102.536 87.2304 103.039 87.2937C105.528 84.2545 108.328 81.4078 111.282 78.6409V78.6437ZM106.862 33.196C107.693 32.4066 107.919 31.367 107.836 30.2531C107.811 29.9203 107.745 29.5875 107.671 29.2629C107.132 26.9223 106.073 24.8348 104.706 22.8655C100.468 16.7623 94.9146 12.3644 87.9699 9.71306C85.5963 8.80818 83.1897 8.03256 80.684 7.59525C80.1422 7.50174 79.5894 7.35871 79.031 7.45773C79.0063 7.55674 78.9843 7.61725 78.9788 7.67776C78.8275 9.36101 77.9886 10.6317 76.6134 11.5668C75.67 12.2077 74.6414 12.6725 73.5302 12.942C71.2639 13.4894 69.0058 13.4014 66.7505 12.8403C64.806 12.3589 63.076 11.5503 61.8713 9.82858C60.5373 10.1614 59.3217 10.6042 58.1582 11.1928C56.1284 12.2214 54.2499 13.4701 52.6382 15.0928C51.703 16.0335 51.0099 17.1144 50.7294 18.4291C50.5506 19.2707 50.4186 20.1151 50.7211 20.998C51.0044 20.9072 51.2602 20.8247 51.5188 20.7477C54.2499 19.9391 57.0168 19.9803 59.8002 20.4039C64.3879 21.1025 68.4255 23.0278 72.0423 25.8937C74.3911 27.7557 76.3136 29.9643 77.6558 32.6597C78.6075 34.5685 79.0503 36.557 78.6652 38.6858C78.6515 38.7573 78.6735 38.8371 78.6845 38.9911C80.0267 39.0131 81.3469 39.0956 82.6588 39.0351C84.7079 38.9443 86.7542 38.7793 88.8005 38.606C92.0817 38.3283 95.3299 37.8387 98.5342 37.0686C100.825 36.5185 103.042 35.7594 105.086 34.574C105.729 34.1999 106.323 33.7103 106.865 33.196H106.862ZM106.78 55.3092C106.799 53.8818 106.521 52.5148 105.556 51.3239C105.088 51.3239 104.629 51.3212 104.17 51.3239C101.576 51.3487 98.9797 51.4009 96.3861 51.3762C95.7425 51.3707 95.3382 51.5687 94.9641 52.061C93.5119 53.9918 92.5878 56.1481 92.1972 58.519C91.9249 60.1692 92.0047 61.8167 92.5273 63.4257C92.7831 64.2205 93.1846 64.9192 93.842 65.4472C94.6176 66.0716 95.4785 66.5474 96.4548 66.7619C98.6139 67.2322 100.597 66.8224 102.264 65.351C105.273 62.6913 106.725 59.2973 106.78 55.3037V55.3092ZM100.721 77.1584C101.164 76.0473 100.919 75.2167 99.9561 74.5236C98.8725 73.7424 97.599 73.4894 96.3201 73.5417C93.842 73.6407 91.5041 74.386 89.2818 75.4642C88.6877 75.753 88.1624 76.1958 87.6453 76.6166C87.1997 76.9797 86.9137 77.4747 86.7322 78.0221C86.5314 78.6161 86.5671 79.1965 86.977 79.6861C87.2547 80.0189 87.5765 80.3379 87.9369 80.5744C89.1993 81.4051 90.6267 81.6939 92.1422 81.7434C94.4113 81.6746 96.5319 80.9925 98.4571 79.7768C99.098 79.3725 99.6178 78.7592 100.135 78.1926C100.396 77.9065 100.578 77.527 100.721 77.1639V77.1584ZM97.9951 89.1639C98.0308 89.1309 98.0308 89.0567 98.0611 88.9659C96.4273 88.4158 95.1071 87.3982 93.8832 86.2155C93.4514 86.5291 93.0526 86.8316 92.64 87.1121C91.4931 87.8933 90.2527 88.5011 88.9683 89.0182C88.7097 89.1227 88.4732 89.2217 88.4099 89.5435C88.2229 90.5089 88.2201 91.4605 88.6052 92.3847C89.0095 93.3583 89.6724 93.7764 90.7148 93.7076C91.9222 93.6279 92.9728 93.1273 93.963 92.4672C95.4152 91.499 96.6941 90.3191 97.9951 89.1667V89.1639ZM96.1743 184.856C96.1633 184.658 96.1661 184.515 96.1441 184.375C95.7893 182.246 95.4372 180.117 95.0714 177.991C93.7485 170.328 92.0955 162.737 90.1922 155.201C88.3494 147.91 86.3306 140.668 84.0533 133.498C82.7331 129.347 81.5064 125.167 79.9359 121.096C79.5894 120.197 79.0475 119.33 79.1438 118.296C79.1466 118.258 79.119 118.216 79.1053 118.178C78.7147 116.998 78.899 115.862 79.3666 114.748C79.4546 114.542 79.5481 114.341 79.6306 114.154C79.5536 114.085 79.5261 114.044 79.4904 114.03C79.2951 113.953 79.0998 113.876 78.9018 113.81C74.4021 112.325 69.8144 111.159 65.158 110.301C61.555 109.635 57.9409 109.027 54.3159 108.491C50.6084 107.944 46.8898 107.462 43.163 107.047C40.0413 106.698 36.9059 106.447 33.7732 106.23C30.7862 106.024 27.791 105.845 24.7986 105.782C21.2176 105.708 17.631 105.765 14.05 105.768C13.9125 105.768 13.7722 105.785 13.6347 105.793C15.2134 109.247 16.8417 112.641 18.3214 116.099C19.8011 119.559 21.1296 123.082 22.5268 126.586C22.6478 126.58 22.7303 126.58 22.81 126.572C26.072 126.22 29.3313 126.176 32.5877 126.638C34.7523 126.946 36.8646 127.452 38.8669 128.36C39.8708 128.817 40.7839 129.397 41.4935 130.258C42.6019 131.603 42.7257 133.313 41.7411 134.744C41.3175 135.36 40.7592 135.88 40.2476 136.432C40.1403 136.548 39.9726 136.606 39.8075 136.707C40.9985 137.959 41.2818 139.342 41.0947 140.844C40.9572 141.939 40.5832 142.956 39.9643 143.88C39.1364 145.118 38.116 146.155 36.8344 146.92C36.6638 147.021 36.5098 147.142 36.386 147.225C36.6336 147.506 36.8371 147.748 37.0516 147.976C38.9687 149.989 39.2052 152.555 37.6815 154.879C36.7821 156.252 35.6434 157.396 34.2132 158.194C33.1763 158.774 32.0679 159.233 30.987 159.734C30.668 159.882 30.3296 159.995 29.9666 160.138C31.2565 172.254 31.2015 184.342 31.1713 196.52C31.4298 196.413 31.6196 196.344 31.8011 196.254C32.5162 195.904 33.2203 195.533 33.9437 195.197C37.3789 193.597 40.8142 191.993 44.2577 190.409C48.309 188.544 52.5529 187.254 56.8903 186.27C61.9813 185.115 67.1328 184.317 72.3338 183.844C76.1541 183.497 79.9827 183.283 83.8195 183.357C87.1337 183.423 90.426 183.748 93.6879 184.344C94.5021 184.493 95.3107 184.674 96.1743 184.853V184.856ZM91.5179 113.142C91.4106 112.872 91.3391 112.677 91.2538 112.487C90.646 111.134 89.6614 110.086 88.5282 109.162C86.3609 107.394 84.0285 105.87 81.5339 104.61C76.2724 101.953 70.8376 99.709 65.2845 97.7397C56.475 94.6152 47.4922 92.2141 38.1876 91.114C33.4981 90.5612 28.7977 90.2696 24.0752 90.4401C23.5389 90.4594 23.0053 90.5061 22.3865 90.5446C23.2694 92.3957 24.2568 94.0982 24.7161 96.0097C24.9609 96.029 25.1231 96.0455 25.2909 96.0565C28.3026 96.227 31.317 96.3673 34.326 96.579C37.5247 96.8018 40.7014 97.2364 43.8616 97.7672C48.3008 98.5126 52.7234 99.3597 57.1158 100.35C63.0622 101.689 68.9838 103.117 74.7432 105.141C78.0409 106.302 81.3606 107.41 84.5208 108.928C86.1848 109.729 87.8021 110.609 89.246 111.778C89.7741 112.204 90.2637 112.658 90.3187 113.45C90.7258 113.345 91.0833 113.252 91.5151 113.142H91.5179ZM82.2738 69.262C82.8266 65.34 80.453 62.1742 78.0904 60.8045C76.7345 60.0207 75.274 59.5476 73.7035 59.7759C70.7908 60.205 68.475 61.5967 66.9843 64.2123C66.8495 64.4488 66.6817 64.6634 66.5332 64.8916C66.2637 65.3125 65.9309 65.7058 65.7466 66.1623C65.081 67.8071 64.6932 69.5151 64.6904 71.3001C64.6794 73.0768 65.0535 74.7491 65.9831 76.2838C66.1894 76.6249 66.4287 76.8394 66.8495 76.9137C69.4734 77.384 72.023 78.1321 74.5039 79.1085C74.7569 79.2075 74.9742 79.1992 75.2272 79.1167C76.1376 78.8197 76.96 78.3741 77.6751 77.7415C80.2357 75.4724 81.7952 72.6643 82.2738 69.2593V69.262ZM75.373 39.7007C75.9616 38.9443 76.2476 38.0945 76.2284 37.1318C76.2064 36.0867 75.9588 35.1048 75.5188 34.1586C74.7322 32.4699 73.676 30.9682 72.3723 29.6425C71.1181 28.3663 69.7072 27.2826 68.2055 26.3145C64.1129 23.6796 59.6462 22.4584 54.778 22.7472C53.1855 22.8407 51.6838 23.2808 50.2811 24.0289C48.7299 24.8568 47.5472 26.0174 47.0053 27.7502C46.8926 28.1078 46.9256 28.3608 47.1786 28.6551C48.3255 29.9973 49.3129 31.4495 50.1903 32.9842C51.4142 35.1213 52.3164 37.3959 53.1415 39.7062C53.6036 40.9961 53.5981 41.0154 54.9403 41.3702C58.2738 42.2531 61.6705 42.7124 65.037 42.8664C65.6366 42.8664 66.1619 42.8829 66.6845 42.8637C68.618 42.7894 70.5213 42.5336 72.3586 41.8845C73.577 41.4527 74.5781 40.7239 75.373 39.7062V39.7007ZM75.3813 9.27299C76.4567 8.45888 76.7372 7.20744 76.0661 6.04127C75.8021 5.58195 75.4308 5.13914 75.01 4.82009C72.9912 3.29637 70.7056 2.70778 68.211 3.14785C66.5195 3.44489 65.1305 4.31677 64.1624 5.76623C63.5243 6.72337 63.6233 7.89504 64.3576 8.78617C64.8142 9.33625 65.4083 9.6773 66.0601 9.92209C67.4436 10.4447 68.8711 10.7197 70.359 10.7637C71.0631 10.6895 71.7755 10.6482 72.4741 10.5299C73.5412 10.3512 74.5204 9.92484 75.3813 9.27024V9.27299ZM39.3152 133.731C40.0633 132.84 40.0166 132.211 39.0869 131.498C38.5946 131.121 38.0335 130.813 37.4614 130.563C35.4261 129.677 33.2671 129.265 31.0723 129.045C27.2932 128.668 23.5444 128.927 19.8204 129.622C18.6899 129.834 17.576 130.131 16.4484 130.354C15.6672 130.508 14.9962 130.076 14.8476 129.391C14.6936 128.684 15.1062 128.071 15.8955 127.862C16.3796 127.733 16.8664 127.612 17.356 127.502C18.1701 127.32 18.9897 127.153 19.8699 126.965C19.207 125.263 18.5579 123.593 17.8676 121.808C17.2597 122.097 16.7097 122.306 16.2146 122.606C14.9494 123.373 13.8822 124.372 12.9361 125.505C12.1247 126.479 11.5031 127.557 11.0658 128.753C10.5047 130.293 10.766 131.663 11.7534 132.942C12.7601 134.246 14.0968 135.076 15.5847 135.693C18.0298 136.705 20.607 137.125 23.2254 137.329C26.0363 137.549 28.8334 137.387 31.6141 136.952C33.2698 136.694 34.9118 136.372 36.4851 135.764C37.6017 135.332 38.5424 134.647 39.3125 133.734L39.3152 133.731ZM38.4901 140.825C38.7404 139.738 38.5149 138.833 37.6045 138.195C29.6283 140.5 21.7704 140.825 13.9207 137.871C13.3817 138.701 13.0186 139.609 12.7711 140.566C12.0835 143.24 13.1479 145.555 15.6232 146.788C17.3395 147.643 19.1768 148.028 21.069 148.141C24.1935 148.325 27.2547 147.885 30.2499 147.024C32.2467 146.449 34.1692 145.665 35.8827 144.458C37.1672 143.553 38.127 142.401 38.4928 140.822L38.4901 140.825ZM35.7204 153.149C36.3063 152.115 36.2348 151.1 35.5197 150.151C35.3051 149.871 35.0493 149.618 34.7881 149.376C34.4663 149.081 34.1197 148.815 33.7539 148.512C33.2066 148.721 32.6482 148.949 32.0789 149.15C29.8538 149.931 27.549 150.325 25.2139 150.591C21.6356 151.001 18.1509 150.718 14.8119 149.266C14.7596 149.241 14.6936 149.244 14.6001 149.227C13.7282 150.173 13.0681 151.246 12.7023 152.497C12.4328 153.419 12.3558 154.346 12.5868 155.289C12.6721 155.638 12.7821 155.952 13.1149 156.178C13.3047 156.307 13.4779 156.563 13.5164 156.785C13.5824 157.165 13.808 157.382 14.0913 157.564C14.4598 157.8 14.8339 158.04 15.2272 158.224C16.5749 158.854 18.0161 159.109 19.4848 159.208C22.4525 159.412 25.3267 158.895 28.1431 158.012C29.8016 157.492 31.4298 156.887 32.926 155.974C34.0922 155.262 35.0466 154.338 35.7232 153.147L35.7204 153.149ZM20.1614 172.152C20.3897 171.635 20.2632 171.349 19.8286 170.997C19.3775 170.631 18.8577 170.414 18.2966 170.309C16.9682 170.062 15.626 170.007 14.2975 170.254C13.3954 170.422 12.5208 170.722 11.6324 170.961C11.2914 171.054 10.9503 171.181 10.601 171.222C9.94091 171.302 9.36883 170.9 9.2093 170.301C9.04703 169.696 9.35232 169.08 9.95741 168.807C10.1087 168.739 10.2737 168.7 10.4332 168.648C11.1456 168.414 11.8607 168.183 12.5978 167.941C12.5703 167.795 12.562 167.671 12.5235 167.559C12.3008 166.888 11.8854 166.338 11.4096 165.829C11.2253 165.631 11.0246 165.438 10.8788 165.213C10.5487 164.707 10.6175 164.063 11.0163 163.648C11.4399 163.205 12.0917 163.117 12.6226 163.483C12.9444 163.705 13.2221 163.997 13.5109 164.253C14.8641 163.587 16.7124 162.182 17.0947 161.508C15.0952 161.087 13.2331 160.388 11.6737 158.9C10.5075 159.797 9.45409 160.718 8.4722 161.722C6.78895 163.444 5.35049 165.334 4.47036 167.603C3.86802 169.159 3.45821 170.752 3.51597 172.438C3.57648 174.19 4.35209 175.518 5.85381 176.423C6.8027 176.995 7.83685 177.328 8.92876 177.449C11.8359 177.771 14.5478 177.147 17.0645 175.667C17.9198 175.164 18.6817 174.531 19.2703 173.728C19.6251 173.244 19.9194 172.702 20.1587 172.152H20.1614Z" fill="black"/>
<path d="M180.056 76.7073C181.44 77.7607 181.729 79.7108 180.934 81.119C180.436 82.0019 179.82 82.7912 179.113 83.5091C177.058 85.5994 174.652 87.1726 171.943 88.2728C169.027 89.4582 166.04 90.4126 162.91 90.8554C161.084 91.1139 159.25 91.3422 157.409 91.0452C156.887 90.9599 156.348 90.7674 155.894 90.4924C155.204 90.0743 155.011 89.5545 155.355 88.7788C155.938 87.4614 156.857 86.4163 157.99 85.5526C159.753 84.2159 161.67 83.1515 163.733 82.3539C165.498 81.6718 167.338 81.2758 169.206 80.998C170.573 80.7944 171.94 80.6019 173.31 80.4259C173.849 80.3571 174.396 80.3544 174.938 80.3131C175.166 80.2966 175.4 80.2856 175.62 80.2306C176.162 80.0903 176.514 79.6393 176.539 79.0919C176.566 78.5198 176.241 77.9835 175.678 77.8542C175.238 77.7525 174.762 77.7195 174.311 77.7662C172.875 77.912 171.442 78.1045 170.012 78.2806C169.745 78.3136 169.481 78.3438 169.132 78.3878C169.09 76.6716 169.046 75.0296 169.211 73.3408C170.166 73.2748 171.024 73.3876 171.849 73.5994C173.631 74.0559 175.403 74.5565 177.163 75.0956C178.23 75.4229 179.165 76.028 180.056 76.7073Z" fill="#B4BD57"/>
<path d="M180.791 87.5959C180.846 88.289 180.799 88.9766 180.579 89.645C180.101 91.0999 179.394 92.4201 178.285 93.4955C176.478 95.2475 174.382 96.5952 172.141 97.7092C169.517 99.0156 166.739 99.8737 163.837 100.286C162.512 100.473 161.164 100.638 159.833 100.361C159.126 100.215 158.414 99.97 157.775 99.6344C156.64 99.0321 156.133 97.9842 156.128 96.7273C156.122 95.6023 156.549 94.6067 157.184 93.7321C158.141 93.7321 158.999 93.7596 159.858 93.7266C163.769 93.5863 167.515 92.6567 171.181 91.3337C173.761 90.4041 176.195 89.2159 178.384 87.5547C178.981 87.1009 179.556 86.614 180.178 86.1162C180.546 86.5563 180.747 87.0458 180.788 87.5932L180.791 87.5959Z" fill="#B4BD57"/>
<path d="M180.579 94.9065C180.928 95.7756 180.859 96.6062 180.738 97.4259C180.579 98.5013 180.108 99.4557 179.478 100.339C178.447 101.785 177.171 102.995 175.76 104.057C172.803 106.282 169.539 107.913 165.991 108.953C164.461 109.401 162.894 109.72 161.285 109.536C160.668 109.464 160.047 109.305 159.472 109.077C158.606 108.733 158.047 108.064 157.849 107.135C157.547 105.718 157.734 104.39 158.575 103.18C158.732 102.954 158.892 102.83 159.194 102.883C161.161 103.226 163.127 103.059 165.066 102.707C169.902 101.827 174.319 99.9617 178.222 96.9445C178.898 96.4192 179.52 95.8251 180.169 95.2613C180.287 95.1568 180.411 95.055 180.579 94.9092V94.9065Z" fill="#B4BD57"/>
<path d="M179.93 105.199C180.136 106.073 180.056 106.951 179.869 107.817C179.437 109.822 178.557 111.599 177.187 113.139C175.878 114.608 174.357 115.815 172.732 116.896C170.652 118.28 168.469 119.476 166.043 120.164C164.742 120.532 163.427 120.744 162.074 120.51C159.458 120.056 158.138 118.065 158.729 115.458C159.018 114.184 159.623 113.073 160.512 112.077C163.477 112.394 166.246 111.712 168.947 110.68C172.212 109.432 175.265 107.792 177.988 105.575C178.488 105.168 178.967 104.734 179.539 104.239C179.69 104.602 179.855 104.891 179.93 105.201V105.199Z" fill="#B4BD57"/>
<path d="M174.203 157.654C174.253 157.874 174.297 158.097 174.36 158.386C173.89 158.452 173.463 158.52 173.037 158.573C168.834 159.073 164.645 159.653 160.495 160.49C152.442 162.112 144.719 164.72 137.441 168.537C131.14 171.843 125.463 176.002 120.779 181.42C120.672 181.544 120.592 181.692 120.435 181.921C120.323 181.624 120.265 181.5 120.224 181.368C118.4 175.389 116.97 169.318 116.032 163.135C115.174 157.481 114.324 151.826 113.524 146.163C112.987 142.367 112.481 138.563 112.071 134.754C111.585 130.235 111.175 125.705 110.815 121.173C110.647 119.066 110.669 116.942 110.603 114.827C110.57 113.78 110.512 112.734 110.512 111.684C110.512 110.141 109.709 109.065 108.501 108.273C107.918 107.888 107.225 107.671 106.524 107.352C106.601 107.206 106.703 107.008 106.813 106.816C107.786 105.121 108.939 103.554 110.154 102.027C115.969 94.7055 122.793 88.4511 130.254 82.8595C133.844 80.1696 137.466 77.5292 141.248 75.1144C145.811 72.2017 150.577 69.6631 155.498 67.4132C159.345 65.653 163.218 63.9532 167.217 62.556C167.432 62.4818 167.649 62.4102 167.976 62.303C167.093 67.8505 166.29 73.2743 166.584 78.8274C166.263 78.9127 165.966 78.9979 165.666 79.0722C162.335 79.8671 159.34 81.3715 156.592 83.3876C155.239 84.3777 154.125 85.5906 153.322 87.0731C152.989 87.6837 152.722 88.3218 152.645 89.0204C152.489 90.4148 153.061 91.5068 154.098 92.3896C154.271 92.5382 154.458 92.6674 154.675 92.8352C153.858 94.3644 153.311 95.9624 153.63 97.7117C153.944 99.4362 154.799 100.836 156.303 101.785C154.584 105.311 154.43 108.557 157.813 111.213C157.459 111.901 157.054 112.586 156.741 113.309C156.067 114.866 155.806 116.494 156.207 118.164C156.862 120.878 158.669 122.424 161.339 122.991C163.27 123.4 165.174 123.136 167.041 122.553C167.28 122.479 167.522 122.41 167.764 122.347C167.797 122.339 167.841 122.366 167.927 122.388C167.971 122.845 168.017 123.318 168.059 123.791C168.433 128.01 169.151 132.185 169.915 136.347C170.859 141.476 171.871 146.592 172.886 151.708C173.279 153.699 173.766 155.674 174.209 157.657L174.203 157.654Z" fill="#F96969"/>
<path d="M161.004 58.7219C161.136 58.6779 161.276 58.6477 161.51 58.5872C161.378 59.1812 161.285 59.7093 161.144 60.2264C160.977 60.8425 160.96 61.4201 161.45 61.9894C161.194 62.0994 160.988 62.1874 160.781 62.2754C155.69 64.44 150.657 66.7228 145.811 69.4017C139.95 72.6445 134.479 76.4758 129.121 80.4859C123.841 84.4354 118.846 88.7041 114.253 93.4375C111.61 96.1632 109.17 99.0676 106.854 102.077C105.804 103.443 104.912 104.912 104.093 106.425C103.741 107.074 103.466 107.74 103.581 108.521C103.705 109.376 104.09 109.794 104.943 109.89C105.358 109.937 105.779 109.959 106.189 110.042C106.642 110.132 107.063 110.314 107.487 110.757C107.14 111.211 106.835 111.659 106.48 112.066C105.344 113.367 103.936 114.291 102.388 115.034C99.6839 116.329 96.8317 117.14 93.8916 117.663C90.8524 118.202 87.7912 118.513 84.6997 118.337C83.9681 118.296 83.242 118.197 82.5159 118.098C81.842 118.007 81.4955 117.592 81.4735 116.909C81.4542 116.365 81.6413 115.87 81.9025 115.419C82.2271 114.86 82.3756 114.264 82.4746 113.639C82.5846 112.938 82.3646 112.459 81.7348 112.129C81.4762 111.994 81.1984 111.895 80.9207 111.796C76.3935 110.19 71.7563 108.953 67.0421 108.064C62.2482 107.159 57.4322 106.367 52.608 105.644C48.9445 105.096 45.2562 104.673 41.5706 104.304C34.2491 103.573 26.9165 103.05 19.5509 103.171C19.1934 103.177 18.8386 103.171 18.481 103.168C18.4205 103.168 18.36 103.144 18.2472 103.119C17.6366 101.653 17.3506 100.066 16.7812 98.4763C17.0673 98.4763 17.2516 98.4735 17.4358 98.4763C21.1654 98.5615 24.8949 98.589 28.6217 98.7513C33.0801 98.9438 37.522 99.3811 41.9337 100.074C50.5067 101.419 58.9862 103.215 67.3474 105.523C72.2734 106.881 77.1031 108.559 81.8228 110.537C83.6601 111.307 85.4423 112.195 87.0733 113.356C87.2906 113.51 87.4969 113.683 87.8132 113.928C87.3896 114.016 87.0898 114.071 86.7928 114.14C86.5507 114.198 86.2949 114.242 86.0722 114.346C85.5221 114.605 85.2553 115.174 85.3763 115.754C85.4973 116.324 85.9869 116.758 86.603 116.72C87.2686 116.678 87.9314 116.56 88.5888 116.428C92.6401 115.625 96.6255 114.569 100.526 113.205C100.801 113.108 101.081 113.012 101.337 112.872C101.934 112.547 102.176 111.923 101.969 111.326C101.763 110.729 101.188 110.399 100.515 110.518C100.228 110.567 99.9534 110.669 99.5684 110.776C99.6399 110.267 99.6839 109.816 99.7719 109.373C100.03 108.05 100.523 106.802 101.034 105.561C103.534 99.4774 107.162 94.1361 111.676 89.3697C117.094 83.6488 123.142 78.7036 129.749 74.4212C136.776 69.8666 144.122 65.8977 151.694 62.3332C154.708 60.914 157.838 59.7753 161.001 58.7247L161.004 58.7219Z" fill="#F5DEBB"/>
<path d="M151.015 53.1093C150.583 55.4306 150.544 57.6584 150.599 59.9578C150.462 60.0293 150.288 60.1338 150.104 60.2191C144.752 62.7742 139.493 65.5026 134.388 68.5198C128.698 71.878 123.197 75.5085 118.128 79.7717C113.414 83.7377 109.021 88.0146 105.295 92.9296C102.085 97.1625 99.5793 101.797 97.8108 106.816C97.2992 108.269 96.9801 109.759 97.0434 111.311C97.0461 111.412 97.0214 111.517 97.0076 111.649C96.3888 111.833 95.7755 112.017 95.0714 112.226C95.0494 111.126 95.0109 110.128 95.1154 109.129C95.4069 106.354 96.2705 103.733 97.2662 101.145C98.5066 97.9271 100.402 95.0887 102.407 92.319C105.168 88.5069 108.306 85.0222 111.714 81.7767C117.286 76.4712 123.01 71.3362 129.212 66.765C135.711 61.9738 142.455 57.5594 149.62 53.8134C150.044 53.5933 150.473 53.3816 151.015 53.1038V53.1093Z" fill="#F5DEBB"/>
<path d="M131.979 37.6048C132.975 39.299 132.796 40.2479 131.833 41.5489C130.898 42.8141 129.622 43.6447 128.227 44.3103C125.89 45.4269 123.423 46.1558 120.917 46.7664C117.328 47.6438 113.675 48.1223 109.998 48.4249C104.769 48.8567 99.5353 48.9585 94.2957 48.7549C91.2208 48.6367 88.1486 48.3699 85.0874 48.0591C82.0042 47.7455 78.932 47.333 75.8653 46.8902C73.3377 46.5244 70.8266 46.0458 68.3099 45.6167C68.1477 45.5892 67.9909 45.537 67.8286 45.4132C68.5135 45.3224 69.1983 45.2454 69.8804 45.1382C71.2694 44.9181 72.6336 44.5991 73.9263 44.0242C75.0539 43.5237 76.0468 42.8306 76.8637 41.9092C77.1827 41.5516 77.4743 41.4086 77.9831 41.4581C80.6785 41.7222 83.3849 41.6974 86.0775 41.4334C88.9105 41.1583 91.7489 40.875 94.5653 40.468C97.8025 40.0004 100.996 39.2935 104.01 37.9624C105.061 37.5003 106.07 36.9365 107.069 36.3671C107.536 36.1003 107.954 35.7318 108.356 35.366C110.119 33.7597 110.658 31.7354 110.331 29.4279C110.3 29.2271 110.284 29.0263 110.254 28.7705C110.449 28.7898 110.592 28.787 110.727 28.8145C115.204 29.8157 119.641 30.9681 123.948 32.5661C126.052 33.3472 128.098 34.2713 129.933 35.5888C130.475 35.9793 130.961 36.4469 131.448 36.9035C131.66 37.1015 131.836 37.349 131.985 37.5993L131.979 37.6048Z" fill="#F96969"/>
<path d="M123.093 68.0488C123.104 68.0873 123.101 68.1313 123.098 68.1258C119.858 70.9477 116.64 73.7531 113.37 76.6025C113.293 76.4238 113.216 76.245 113.139 76.0635C112.768 75.1696 112.341 74.3087 111.665 73.5964C110.402 72.2734 108.802 71.6463 107.036 71.4345C105.045 71.1952 103.114 71.4868 101.213 72.2734C100.132 71.495 98.837 71.176 97.536 70.9972C96.6586 70.8762 95.7318 70.9477 94.8489 71.0797C92.5385 71.4235 90.308 72.0726 88.2039 73.104C87.1615 73.6156 86.2181 74.2785 85.459 75.1668C84.4689 76.3248 83.9023 77.6394 84.081 79.2072C84.1966 80.2331 84.6751 81.0747 85.3765 81.8008C86.1906 82.6452 87.1808 83.231 88.2837 83.6106C89.3563 83.9819 90.4482 84.2679 91.5951 84.2707C91.6942 84.2707 91.7904 84.2927 92.016 84.3202C91.8014 84.5072 91.6777 84.6337 91.5374 84.7355C90.4317 85.5441 89.2105 86.1409 87.9399 86.647C85.1565 87.7582 82.2795 88.4623 79.2733 88.5503C77.3728 88.6053 75.508 88.3963 73.723 87.6867C73.415 87.5656 73.1179 87.4061 72.8374 87.2301C72.2626 86.867 71.6025 86.8973 71.1652 87.3346C70.7223 87.7802 70.6756 88.443 71.0579 89.0069C71.3632 89.4607 71.8115 89.7137 72.3066 89.9172C74.5124 90.8194 76.8145 91.1797 79.1881 91.1357C79.4576 91.1302 79.7244 91.1357 80.027 91.1357C80.0792 91.3805 80.1342 91.6005 80.17 91.8205C80.632 94.6892 81.7927 97.2801 83.4127 99.6564C84.7081 101.554 86.4822 102.916 88.655 103.697C90.1484 104.233 91.6749 104.365 93.2179 103.87C93.3114 103.84 93.4104 103.826 93.603 103.779C93.0776 105.65 92.6376 107.465 92.4973 109.379C92.39 109.324 92.324 109.31 92.291 109.272C90.8498 107.545 89.0483 106.249 87.2138 104.992C85.2555 103.653 83.1899 102.5 81.0474 101.488C80.7063 101.326 80.4835 101.111 80.3157 100.768C79.3669 98.8203 78.5802 96.818 78.0879 94.7057C78.0412 94.5049 77.9669 94.3014 77.8596 94.1254C77.5736 93.655 77.0235 93.446 76.4982 93.5753C76.0059 93.6963 75.6126 94.1226 75.5713 94.6452C75.5493 94.912 75.5713 95.1953 75.6428 95.4511C75.9756 96.5952 76.3332 97.7339 76.6852 98.8726C76.7457 99.0678 76.8172 99.2576 76.9217 99.5602C76.6275 99.4446 76.4184 99.3731 76.2176 99.2851C69.2619 96.2349 62.1053 93.7486 54.781 91.7573C52.0169 91.0064 49.2004 90.4371 46.4033 89.8072C46.0732 89.733 45.9055 89.612 45.7872 89.2984C45.3306 88.0855 45.3086 86.8973 45.8257 85.6926C46.6536 83.7673 47.938 82.2381 49.6983 81.1049C51.8958 79.6885 54.3272 78.9761 56.9043 78.7149C59.1514 78.4866 61.382 78.6984 63.6071 78.9844C66.649 79.3777 69.6277 80.0433 72.5101 81.1022C75.2275 82.1006 77.8431 83.3245 80.3433 84.7905C80.577 84.928 80.8163 85.0655 81.0721 85.1508C81.6277 85.3378 82.1943 85.1315 82.5078 84.664C82.8351 84.1744 82.7939 83.5446 82.3731 83.1017C82.2025 82.923 81.9907 82.7689 81.7762 82.6479C80.7503 82.0786 79.7162 81.5258 78.6848 80.9674C78.5032 80.8684 78.3217 80.7749 78.0302 80.6209C78.1649 80.5466 78.2419 80.5109 78.3107 80.4614C81.7295 77.9915 83.817 74.6525 84.6669 70.5434C86.0091 64.0635 81.7102 58.8542 76.9273 57.5175C75.3623 57.0802 73.7918 57.0279 72.2076 57.4185C69.0749 58.1913 66.594 59.8691 64.8942 62.647C64.688 62.9853 64.4184 63.2823 64.1901 63.6096C63.2715 64.9271 62.8424 66.4398 62.4931 67.9745C61.8798 70.6727 61.9348 73.3378 62.9525 75.9479C62.9745 76.0057 62.9937 76.0662 63.002 76.1295C63.0075 76.1652 62.991 76.2065 62.9772 76.2862C62.3804 76.2367 61.7808 76.1845 61.1812 76.1377C58.274 75.9122 55.4026 76.0772 52.6027 76.9546C50.8919 77.4909 49.2747 78.217 47.8142 79.2677C45.6222 80.8437 44.0462 82.879 43.1853 85.4533C42.8415 86.4847 42.7535 87.5409 42.9543 88.6135C42.9845 88.7731 42.9845 88.9354 43.0038 89.1361C40.1626 88.7841 37.3655 88.4375 34.5545 88.0882C34.1832 86.6415 34.0705 85.1508 34.208 83.6408C34.5628 79.7545 35.7537 76.1432 37.8633 72.8565C38.8617 71.2998 40.0113 69.8586 41.3728 68.5989C41.6781 68.3183 41.9229 67.925 42.2777 67.7655C42.616 67.6115 43.0615 67.7105 43.4548 67.6665C47.8362 67.1742 51.233 65.1196 53.5021 61.2938C53.6478 61.0463 53.7716 60.7685 53.8349 60.4879C53.9641 59.9186 53.6836 59.3713 53.1858 59.1155C52.6824 58.8597 52.0884 58.9532 51.6923 59.3905C51.5135 59.5886 51.3815 59.8361 51.2385 60.0671C49.2087 63.3676 46.241 65.0343 42.3877 65.1279C40.3111 65.1774 38.6279 64.256 37.1537 62.8863C36.0783 61.8879 35.3412 60.6475 34.6673 59.3603C33.1298 56.4173 32.335 53.2709 32.0407 49.9814C31.6419 45.5065 32.2194 41.1608 33.7569 36.939C33.8064 36.8015 33.8504 36.6584 33.8752 36.5154C33.9715 35.9488 33.6882 35.4043 33.1848 35.1595C32.6815 34.9147 32.0599 35.0164 31.7024 35.473C31.4878 35.7453 31.3201 36.0781 31.2183 36.4137C30.8387 37.6541 30.4977 38.9083 30.1401 40.1542C30.1071 40.2725 30.0604 40.388 29.9889 40.6053C29.7771 40.344 29.5873 40.157 29.4525 39.9397C28.8089 38.9028 28.4541 37.7669 28.4376 36.5457C28.3964 33.5202 29.2133 30.7533 31.0313 28.311C31.2321 28.0442 31.4603 27.7939 31.6914 27.5546C33.3554 25.8466 35.3329 25.203 37.6955 25.6733C40.6164 26.2537 42.9625 27.7719 44.9098 29.9557C46.6673 31.925 48.0508 34.1473 49.1207 36.5567C50.6472 39.9919 51.8436 43.5427 52.5807 47.2337C52.7402 48.0341 52.82 48.8482 52.919 49.6596C53.0097 50.3774 53.4003 50.8478 54.0136 50.9303C54.8223 51.0375 55.4796 50.4682 55.4631 49.5908C55.4494 48.9032 55.3613 48.2101 55.2486 47.5308C55.1111 46.7057 54.9103 45.8915 54.7397 45.0719C54.7095 44.9317 54.693 44.7886 54.6572 44.5741C54.8388 44.6181 54.9735 44.6401 55.0973 44.6841C59.2559 46.2133 63.5438 47.2722 67.8784 48.1331C72.9144 49.1343 77.9889 49.8824 83.0937 50.4242C85.9046 50.7212 88.7237 50.9385 91.5401 51.1916C91.7657 51.2136 91.994 51.2411 92.2855 51.2741C92.1892 51.4611 92.1287 51.6041 92.0462 51.7361C90.7205 53.8677 89.8679 56.1725 89.5736 58.6644C89.3563 60.5127 89.4718 62.3472 90.0329 64.1377C90.8278 66.6736 92.6266 68.2028 95.0552 69.0197C98.1411 70.0566 101.035 69.5505 103.598 67.5647C106.368 65.4167 107.996 62.4985 108.873 59.143C109.445 56.9619 109.558 54.7588 108.991 52.553C108.873 52.091 108.694 51.6481 108.529 51.1558C108.689 51.1228 108.826 51.0816 108.964 51.0706C110.028 50.977 111.093 50.8945 112.157 50.7955C112.465 50.768 112.716 50.8065 112.958 51.032C113.183 51.2438 113.477 51.3813 113.741 51.5491C116.36 53.2076 118.178 55.4767 118.981 58.5021C119.096 58.9367 119.228 59.3795 119.138 59.9158C118.857 59.7618 118.632 59.6106 118.387 59.506C117.463 59.1127 116.541 58.7084 115.601 58.3619C114.866 58.0923 114.176 58.4086 113.923 59.044C113.656 59.7123 113.959 60.3999 114.696 60.7437C115.056 60.9115 115.438 61.0298 115.807 61.1755C119.074 62.471 121.404 64.7786 123.002 67.87C123.032 67.925 123.057 67.9828 123.076 68.0433L123.093 68.0488ZM47.1101 48.2706C48.4991 48.1579 49.2637 47.3548 49.0492 45.9988C48.8896 44.9867 48.6559 43.9828 48.3726 42.9981C47.74 40.7785 46.7608 38.7295 45.2344 36.9692C44.6513 36.2981 44.0049 35.7013 43.1991 35.3162C41.3123 34.4196 39.4998 34.4829 37.8523 35.8553C37.3407 36.2789 36.8786 36.7822 36.4798 37.313C35.2999 38.8918 34.5325 40.6795 33.9935 42.5663C33.9357 42.7643 33.9109 42.9789 33.9164 43.1851C33.9302 43.7187 34.263 44.156 34.7526 44.3238C35.2394 44.4888 35.7922 44.3486 36.1113 43.9305C36.2708 43.7187 36.3753 43.4574 36.4716 43.2071C36.7246 42.5416 36.9226 41.854 37.2059 41.2021C37.7285 40.0084 38.3583 38.878 39.3182 37.9594C40.3249 36.994 41.6341 37.2333 42.3657 37.8109C42.8525 38.1959 43.2761 38.6635 43.7216 39.0898C43.6474 39.2328 43.6446 39.2576 43.6281 39.2686C43.4796 39.3841 43.3311 39.4996 43.1798 39.6124C41.073 41.1663 39.233 42.9926 37.745 45.1517C36.1993 47.396 35.4072 49.8659 35.7015 52.6245C35.861 54.107 36.2378 55.5152 37.1757 56.7089C38.4161 58.2904 40.0471 59.0385 42.0659 58.8542C43.0203 58.7662 43.8922 58.4306 44.6843 57.9136C45.0556 58.1336 45.3829 58.3646 45.7432 58.5269C46.296 58.7744 46.8543 59.0302 47.4374 59.1787C48.07 59.341 48.6944 58.9367 48.8841 58.3564C49.0822 57.7485 48.8291 57.1324 48.235 56.8161C48.07 56.7281 47.8885 56.6676 47.7152 56.5961C45.6304 55.76 44.214 54.272 43.4603 52.1625C43.3283 51.7939 43.2513 51.3923 43.2183 50.999C43.1468 50.1767 43.5016 49.5303 44.1754 49.0738C44.4175 48.9115 44.6815 48.752 44.9593 48.6832C45.6662 48.5099 46.3813 48.3201 47.1046 48.2624L47.1101 48.2706Z" fill="#B4BD57"/>
<path d="M119.569 187.84C119.896 188.874 120.339 189.872 120.757 190.959C120.188 192.037 119.256 192.865 118.197 193.561C116.868 194.435 115.38 194.939 113.859 195.354C111.585 195.978 109.274 196.322 106.906 196.204C104.678 196.094 102.585 195.458 100.539 194.622C100.22 194.493 100.154 194.276 100.116 193.998C99.9368 192.755 99.747 191.512 99.582 190.266C98.9274 185.364 98.1985 180.477 97.2524 175.625C96.3695 171.104 95.5141 166.576 94.4882 162.085C92.2687 152.387 89.708 142.777 86.6771 133.297C85.6017 129.925 84.54 126.55 83.4536 123.181C83.1978 122.386 82.8788 121.616 82.568 120.782C82.7083 120.768 82.8045 120.744 82.8953 120.755C85.5082 121.104 88.1211 120.986 90.7312 120.708C93.9464 120.367 97.1176 119.787 100.168 118.695C101.584 118.189 102.959 117.559 104.321 116.921C105.658 116.294 106.816 115.389 107.863 114.344C107.918 114.36 107.976 114.379 108.034 114.396C108.034 114.682 108.023 114.968 108.034 115.254C108.141 117.892 108.205 120.532 108.375 123.164C108.54 125.672 108.801 128.173 109.049 130.675C109.263 132.843 109.494 135.01 109.758 137.172C110.174 140.538 110.608 143.905 111.065 147.269C111.488 150.382 111.942 153.49 112.396 156.598C113.51 164.228 114.753 171.832 116.926 179.25C117.768 182.122 118.659 184.982 119.566 187.834L119.569 187.84Z" fill="#F96969"/>
<path d="M116.935 20.3134C117.287 22.0709 117.122 23.8201 116.871 25.5666C116.778 26.2047 116.657 26.8401 116.541 27.5139C116.404 27.5084 116.302 27.5139 116.208 27.4947C114.027 26.9968 111.844 26.4963 109.665 25.9819C109.509 25.9462 109.302 25.8197 109.244 25.6822C107.927 22.5412 105.809 19.9448 103.642 17.3814C103.59 17.3182 103.546 17.2467 103.504 17.1862C104.973 14.543 107.985 12.9478 110.851 13.3081C111.976 13.4484 112.977 13.8802 113.851 14.631C115.606 16.141 116.495 18.102 116.937 20.3134H116.935Z" fill="#B4BD57"/>
<path d="M110.375 76.2176C110.722 76.996 110.977 77.8129 111.283 78.6435C108.329 81.4104 105.529 84.2571 103.04 87.2963C102.536 87.233 102.091 87.1587 101.645 87.1257C99.2221 86.9415 97.1621 86.0118 95.5256 84.1883C95.4733 84.1305 95.4513 84.048 95.3881 83.9243C95.5641 83.8527 95.7099 83.7977 95.8556 83.7372C96.975 83.2724 98.1165 82.8571 99.2056 82.329C100.408 81.7459 101.378 80.8438 102.182 79.7739C103.471 78.0549 103.752 76.5449 103.163 74.2703C103.744 74.1713 104.269 74.0613 104.803 73.9953C106.115 73.8358 107.385 73.954 108.604 74.5206C109.396 74.8892 110.023 75.4283 110.375 76.2204V76.2176Z" fill="#B4BD57"/>
<path d="M107.836 30.2556C107.919 31.3668 107.693 32.4092 106.863 33.1985C106.321 33.7129 105.727 34.2024 105.083 34.5765C103.04 35.7619 100.823 36.521 98.5317 37.0711C95.3275 37.8412 92.0793 38.3308 88.798 38.6086C86.7517 38.7818 84.7054 38.9469 82.6564 39.0376C81.3444 39.0954 80.0243 39.0129 78.6821 38.9936C78.6711 38.8396 78.6491 38.7598 78.6628 38.6883C79.0479 36.5568 78.6023 34.571 77.6534 32.6622C76.3112 29.9668 74.3887 27.7555 72.0398 25.8962C68.423 23.0303 64.3855 21.105 59.7978 20.4064C57.0144 19.9828 54.2475 19.9443 51.5163 20.7502C51.2578 20.8272 51.002 20.9125 50.7187 21.0005C50.4189 20.1176 50.5482 19.2732 50.727 18.4316C51.0103 17.1197 51.7006 16.036 52.6357 15.0954C54.2475 13.4726 56.126 12.224 58.1558 11.1953C59.3192 10.6067 60.5321 10.1639 61.8688 9.8311C63.0735 11.5529 64.8063 12.3615 66.7481 12.8428C69.0034 13.4011 71.2615 13.4891 73.5278 12.9446C74.639 12.6778 75.6676 12.2102 76.611 11.5694C77.9862 10.6342 78.8223 9.36353 78.9763 7.68029C78.9818 7.61978 79.0039 7.56202 79.0286 7.46026C79.5869 7.36124 80.1398 7.50426 80.6816 7.59778C83.1872 8.03509 85.5938 8.80795 87.9674 9.71559C94.9122 12.367 100.465 16.7649 104.704 22.868C106.071 24.8373 107.129 26.9276 107.669 29.2655C107.743 29.59 107.809 29.9255 107.834 30.2556H107.836Z" fill="#F5DEBB"/>
<path d="M105.556 51.323C106.521 52.5139 106.799 53.8781 106.78 55.3083C106.727 59.3047 105.273 62.6987 102.264 65.3556C100.597 66.827 98.6111 67.2368 96.4548 66.7665C95.4784 66.5547 94.6175 66.0762 93.8419 65.4518C93.1845 64.921 92.783 64.2224 92.5272 63.4303C92.0046 61.8213 91.9248 60.1738 92.1971 58.5236C92.5877 56.1527 93.5118 53.9936 94.964 52.0656C95.3353 51.5705 95.7396 51.3753 96.386 51.3808C98.9796 51.4055 101.576 51.3505 104.17 51.3285C104.629 51.323 105.088 51.3285 105.556 51.3285V51.323ZM105.207 58.3228C105.462 56.733 105.207 54.9865 102.984 54.0349C101.342 53.3335 99.934 53.8754 98.5423 54.695C96.7683 56.3865 95.7644 58.4383 95.6159 60.9274C95.6406 61.2134 95.6461 61.5297 95.6984 61.8405C95.8359 62.6464 96.0999 63.4303 96.826 63.8648C97.8052 64.4479 98.8889 64.7697 100.05 64.6735C100.374 64.646 100.718 64.5469 101.004 64.3929C101.48 64.1371 101.961 63.8593 102.365 63.5073C103.936 62.1293 104.874 60.3718 105.204 58.3228H105.207Z" fill="#F5DEBB"/>
<path d="M102.987 54.0357C105.212 54.9873 105.465 56.7311 105.21 58.3236C104.88 60.3699 103.942 62.1301 102.371 63.5081C101.967 63.8629 101.486 64.1407 101.01 64.3937C100.724 64.5477 100.38 64.6467 100.055 64.6743C98.8947 64.7705 97.811 64.4487 96.8319 63.8656C96.103 63.4311 95.8417 62.6472 95.7042 61.8413C95.652 61.5333 95.6465 61.217 95.6217 60.9282C95.7702 58.4391 96.7741 56.3873 98.5481 54.6958C99.9398 53.8762 101.348 53.3343 102.99 54.0357H102.987Z" fill="black"/>
<path d="M99.9534 74.5235C100.916 75.2166 101.161 76.0472 100.718 77.1584C100.572 77.5242 100.393 77.9038 100.132 78.187C99.6124 78.7536 99.0925 79.367 98.4544 79.7713C96.5292 80.9897 94.4114 81.6691 92.1395 81.7378C90.6213 81.6883 89.1966 81.3995 87.9342 80.5689C87.5739 80.3324 87.2521 80.0133 86.9743 79.6805C86.5672 79.1909 86.5315 78.6106 86.7295 78.0165C86.911 77.4692 87.1998 76.9741 87.6426 76.6111C88.1597 76.1903 88.685 75.7474 89.2791 75.4586C91.4987 74.3805 93.8365 73.6351 96.3174 73.5361C97.5963 73.4839 98.867 73.7369 99.9534 74.518V74.5235Z" fill="#F96969"/>
<path d="M98.0586 88.9626C98.0283 89.0561 98.0311 89.1304 97.9926 89.1607C96.6916 90.3131 95.4099 91.493 93.9605 92.4611C92.9731 93.1212 91.9197 93.6218 90.7122 93.7016C89.6698 93.7703 89.007 93.3523 88.6027 92.3786C88.2176 91.4545 88.2204 90.5029 88.4074 89.5375C88.4679 89.2157 88.7072 89.1194 88.9657 89.0121C90.2502 88.4951 91.4906 87.8872 92.6375 87.1061C93.0501 86.8256 93.4489 86.523 93.8807 86.2095C95.1046 87.3921 96.4221 88.4098 98.0586 88.9599V88.9626Z" fill="#F5DEBB"/>
<path d="M96.1443 184.375C96.1664 184.515 96.1636 184.658 96.1746 184.856C95.3137 184.678 94.5051 184.496 93.6882 184.348C90.4263 183.751 87.134 183.426 83.8198 183.36C79.9802 183.283 76.1544 183.498 72.3341 183.847C67.1331 184.32 61.9816 185.118 56.8906 186.273C52.5532 187.257 48.3093 188.545 44.258 190.412C40.8145 191.999 37.3792 193.6 33.944 195.201C33.2234 195.536 32.5165 195.907 31.8014 196.257C31.6199 196.345 31.4301 196.414 31.1716 196.524C31.2018 184.345 31.2568 172.257 29.9669 160.141C30.33 159.998 30.6683 159.885 30.9873 159.737C32.0682 159.234 33.1766 158.777 34.2135 158.197C35.641 157.396 36.7797 156.255 37.6818 154.882C39.2055 152.561 38.9662 149.992 37.0519 147.979C36.8347 147.751 36.6339 147.511 36.3863 147.228C36.5074 147.146 36.6641 147.025 36.8347 146.923C38.1191 146.155 39.1395 145.119 39.9646 143.884C40.5835 142.959 40.9575 141.942 41.095 140.847C41.2821 139.345 41.0015 137.965 39.8078 136.711C39.9729 136.609 40.1406 136.551 40.2479 136.436C40.7595 135.885 41.3206 135.363 41.7414 134.747C42.7233 133.317 42.5995 131.606 41.4938 130.261C40.7842 129.4 39.8711 128.817 38.8672 128.363C36.8649 127.455 34.7554 126.949 32.588 126.641C29.3316 126.179 26.0723 126.223 22.8104 126.575C22.7278 126.584 22.6453 126.584 22.5271 126.589C21.1299 123.088 19.8014 119.562 18.3217 116.102C16.842 112.645 15.2137 109.251 13.635 105.796C13.7725 105.788 13.9128 105.771 14.0503 105.771C17.6341 105.771 21.2179 105.711 24.7989 105.785C27.7913 105.848 30.7865 106.024 33.7735 106.233C36.9089 106.451 40.0416 106.701 43.1633 107.05C46.8874 107.466 50.6087 107.944 54.3162 108.494C57.9413 109.031 61.5553 109.638 65.1583 110.304C69.8147 111.165 74.4024 112.328 78.9021 113.813C79.1001 113.879 79.2954 113.956 79.4907 114.033C79.5264 114.047 79.5512 114.086 79.6309 114.157C79.5484 114.342 79.4549 114.545 79.3669 114.751C78.8966 115.865 78.7123 117.001 79.1056 118.181C79.1194 118.22 79.1469 118.264 79.1441 118.299C79.0478 119.334 79.5897 120.2 79.9362 121.099C81.5067 125.17 82.7334 129.35 84.0536 133.501C86.3309 140.668 88.3497 147.91 90.1925 155.204C92.0957 162.743 93.7488 170.334 95.0717 177.994C95.4403 180.12 95.7895 182.249 96.1443 184.378V184.375Z" fill="#F96969"/>
<path d="M91.2541 112.487C91.3394 112.677 91.4109 112.872 91.5182 113.142C91.0863 113.252 90.7288 113.345 90.3217 113.45C90.2667 112.655 89.7772 112.204 89.2491 111.778C87.8051 110.609 86.1879 109.729 84.5239 108.928C81.3637 107.41 78.0467 106.299 74.7462 105.141C68.9869 103.117 63.0652 101.686 57.1189 100.35C52.7237 99.3596 48.3038 98.5153 43.8647 97.7672C40.7045 97.2363 37.5277 96.8018 34.329 96.579C31.3201 96.3672 28.3056 96.2269 25.294 96.0564C25.1289 96.0454 24.9639 96.0289 24.7191 96.0097C24.2571 94.0981 23.2697 92.3956 22.3895 90.5446C23.0056 90.5061 23.5419 90.4593 24.0783 90.4401C28.8007 90.2723 33.5012 90.5611 38.1906 91.1139C47.4952 92.2141 56.478 94.6152 65.2876 97.7397C70.8406 99.7089 76.2754 101.953 81.5369 104.61C84.0316 105.87 86.3639 107.394 88.5312 109.162C89.6644 110.086 90.6463 111.134 91.2569 112.487H91.2541Z" fill="#F5DEBB"/>
<path d="M78.0906 60.8043C80.4532 62.174 82.8268 65.3398 82.274 69.2618C81.7954 72.6668 80.2359 75.475 77.6753 77.7441C76.9602 78.3767 76.1378 78.825 75.2275 79.1193C74.9744 79.2018 74.7571 79.21 74.5041 79.111C72.0232 78.1346 69.4764 77.3865 66.8497 76.9162C66.4289 76.8419 66.1896 76.6274 65.9834 76.2864C65.0537 74.7516 64.6797 73.0794 64.6907 71.3026C64.6907 69.5176 65.0812 67.8096 65.7468 66.1649C65.9311 65.7083 66.2666 65.315 66.5334 64.8942C66.6792 64.6659 66.8497 64.4486 66.9845 64.2148C68.4752 61.5992 70.7911 60.2075 73.7037 59.7784C75.2742 59.5474 76.7347 60.0205 78.0906 60.8071V60.8043ZM80.3625 68.2662C80.324 66.6737 79.8921 65.4305 78.8662 64.4569C77.6836 63.332 76.2864 62.9524 74.6966 63.4502C73.6982 63.7638 72.8154 64.2863 72.1002 65.0427C70.6288 66.5994 69.5314 68.3927 68.962 70.4748C68.6677 71.5557 68.6045 72.6586 68.7778 73.7725C69.1711 76.3331 71.1954 77.9751 73.668 77.6891C75.0459 77.5295 76.2231 76.9107 77.205 75.9426C79.3971 73.7807 80.0324 70.9891 80.3625 68.2662Z" fill="#F5DEBB"/>
<path d="M78.8663 64.4543C79.8922 65.4279 80.3213 66.6738 80.3625 68.2636C80.0325 70.9865 79.3999 73.7781 77.2051 75.94C76.2232 76.9081 75.0433 77.5297 73.6681 77.6865C71.1982 77.9725 69.1739 76.3305 68.7778 73.7699C68.6046 72.656 68.6678 71.5531 68.9621 70.4722C69.5315 68.3901 70.6289 66.5968 72.1003 65.0401C72.8154 64.2837 73.6983 63.7584 74.6967 63.4476C76.2864 62.9498 77.6809 63.3321 78.8663 64.4543Z" fill="black"/>
<path d="M76.2282 37.1316C76.2475 38.0942 75.9615 38.9441 75.3729 39.7004C74.578 40.7181 73.5769 41.447 72.3584 41.8788C70.5239 42.5306 68.6206 42.7864 66.6843 42.8579C66.1618 42.8772 65.6364 42.8607 65.0369 42.8607C61.6704 42.7039 58.2736 42.2473 54.9401 41.3644C53.5952 41.0096 53.6034 40.9904 53.1414 39.7004C52.3162 37.3901 51.4114 35.1155 50.1902 32.9785C49.3128 31.4465 48.3254 29.9915 47.1785 28.6493C46.9282 28.355 46.8952 28.1047 47.0052 27.7444C47.547 26.0117 48.7297 24.851 50.2809 24.0231C51.6836 23.275 53.1881 22.835 54.7778 22.7415C59.6433 22.4527 64.1127 23.6738 68.2053 26.3087C69.707 27.2741 71.118 28.3578 72.3722 29.6367C73.6759 30.9652 74.732 32.4641 75.5186 34.1529C75.9587 35.0963 76.2062 36.0809 76.2282 37.1261V37.1316Z" fill="#F5DEBB"/>
<path d="M76.0663 6.04153C76.7401 7.21045 76.4568 8.45914 75.3814 9.27326C74.5178 9.92785 73.5386 10.3542 72.4742 10.5329C71.7756 10.6512 71.0633 10.6925 70.3592 10.7667C68.874 10.7227 67.4437 10.4477 66.0603 9.9251C65.4085 9.67756 64.8144 9.33926 64.3578 8.78918C63.6207 7.89805 63.5217 6.72638 64.1625 5.76924C65.1307 4.31703 66.5196 3.4479 68.2111 3.15086C70.7057 2.71079 72.9913 3.30213 75.0101 4.8231C75.4309 5.14215 75.8022 5.58221 76.0663 6.04428V6.04153Z" fill="#F96969"/>
<path d="M49.0489 45.9993C49.2634 47.3552 48.4988 48.1611 47.1098 48.2711C46.3865 48.3289 45.6714 48.5187 44.9645 48.6919C44.6867 48.7607 44.4227 48.9175 44.1806 49.0825C43.504 49.5391 43.152 50.1827 43.2235 51.0078C43.2565 51.3983 43.3335 51.7999 43.4655 52.1712C44.2219 54.2808 45.6356 55.7687 47.7204 56.6048C47.8964 56.6764 48.0752 56.7341 48.2402 56.8249C48.8343 57.1412 49.0874 57.7545 48.8893 58.3651C48.7023 58.9482 48.0752 59.3525 47.4426 59.1875C46.8595 59.0389 46.3012 58.7832 45.7484 58.5356C45.3881 58.3734 45.0608 58.1423 44.6895 57.9223C43.8974 58.4394 43.0227 58.7777 42.0711 58.8629C40.0495 59.0472 38.4213 58.2991 37.1809 56.7176C36.243 55.5239 35.8662 54.1157 35.7067 52.6333C35.4124 49.8746 36.2045 47.4075 37.7502 45.1604C39.2354 42.9986 41.0754 41.1751 43.185 39.6211C43.3363 39.5083 43.4848 39.3928 43.6333 39.2773C43.6498 39.2663 43.6526 39.2415 43.7268 39.0985C43.2785 38.6722 42.8577 38.2046 42.3709 37.8196C41.6393 37.2393 40.3301 37.0027 39.3234 37.9681C38.3635 38.8867 37.7337 40.0172 37.2111 41.2108C36.9278 41.8627 36.7298 42.5503 36.4768 43.2159C36.3805 43.4662 36.276 43.7302 36.1165 43.9392C35.7974 44.36 35.2418 44.4976 34.7578 44.3325C34.2654 44.1648 33.9326 43.7275 33.9216 43.1939C33.9161 42.9876 33.9409 42.7731 33.9987 42.575C34.5405 40.6883 35.3078 38.9005 36.485 37.3218C36.8811 36.7882 37.3459 36.2876 37.8575 35.8641C39.505 34.4916 41.3175 34.4283 43.2043 35.325C44.0129 35.7073 44.6592 36.3069 45.2396 36.978C46.7633 38.7382 47.7424 40.7873 48.3778 43.0068C48.6583 43.9915 48.8948 44.9954 49.0544 46.0075L49.0489 45.9993ZM45.9657 45.771C46.0977 45.7353 46.2297 45.6995 46.3947 45.6555C46.0757 44.1978 45.7126 42.7978 45.0415 41.4474C42.7339 43.1279 40.7729 45.0284 39.3592 47.4295C38.5478 48.8047 38.1215 50.3147 38.226 51.9347C38.2975 53.0321 38.5093 54.0855 39.1254 55.0344C39.7112 55.9365 41.2735 56.7781 42.6514 56.0245C42.5332 55.8485 42.4424 55.711 42.3489 55.5762C41.6585 54.542 41.0837 53.4556 40.7922 52.2345C40.1843 49.6683 41.2982 47.4157 43.7351 46.4146C44.4447 46.1231 45.2176 45.9828 45.9602 45.771H45.9657Z" fill="black"/>
<path d="M46.395 45.6547C46.2299 45.6987 46.0979 45.7344 45.9659 45.7702C45.2233 45.9792 44.4504 46.1195 43.7408 46.4138C41.304 47.4177 40.19 49.6675 40.7979 52.2336C41.0867 53.4548 41.6643 54.5412 42.3546 55.5754C42.4481 55.7129 42.5389 55.8504 42.6572 56.0237C41.2792 56.7773 39.717 55.9357 39.1311 55.0335C38.5151 54.0846 38.3033 53.0285 38.2318 51.9338C38.1272 50.3138 38.5536 48.8039 39.3649 47.4287C40.7786 45.0303 42.7369 43.127 45.0473 41.4465C45.7184 42.7997 46.0787 44.1969 46.4005 45.6547H46.395Z" fill="#7A8125"/>
<path d="M39.0898 131.498C40.0194 132.21 40.0662 132.84 39.3181 133.731C38.5507 134.644 37.6101 135.329 36.4907 135.761C34.9174 136.369 33.2754 136.69 31.6197 136.949C28.839 137.383 26.0419 137.546 23.231 137.326C20.6126 137.122 18.0355 136.704 15.5904 135.689C14.1024 135.073 12.7657 134.242 11.759 132.939C10.7717 131.657 10.5104 130.287 11.0714 128.75C11.5088 127.554 12.1304 126.475 12.9417 125.502C13.8879 124.369 14.9578 123.367 16.2202 122.603C16.7153 122.303 17.2654 122.094 17.8732 121.805C18.5663 123.587 19.2154 125.26 19.8755 126.962C18.9926 127.149 18.1757 127.32 17.3616 127.499C16.872 127.609 16.3852 127.73 15.9012 127.859C15.1118 128.071 14.6992 128.681 14.8532 129.388C15.0018 130.073 15.6756 130.502 16.454 130.351C17.5816 130.128 18.6956 129.831 19.826 129.619C23.55 128.923 27.2988 128.665 31.0779 129.041C33.2727 129.262 35.4318 129.674 37.4671 130.56C38.0364 130.807 38.6002 131.115 39.0925 131.495L39.0898 131.498Z" fill="#B4BD57"/>
<path d="M37.6045 138.195C38.5149 138.833 38.7432 139.738 38.4902 140.824C38.1244 142.403 37.1645 143.556 35.88 144.461C34.1665 145.668 32.244 146.452 30.2472 147.027C27.252 147.888 24.1908 148.328 21.0664 148.143C19.1741 148.031 17.3368 147.645 15.6206 146.79C13.1452 145.558 12.0808 143.242 12.7684 140.569C13.0159 139.612 13.379 138.704 13.9181 137.873C21.7677 140.827 29.6284 140.503 37.6018 138.198L37.6045 138.195Z" fill="#B4BD57"/>
<path d="M35.5171 150.151C36.2349 151.1 36.3037 152.112 35.7179 153.149C35.044 154.343 34.0869 155.267 32.9207 155.977C31.4245 156.89 29.7962 157.495 28.1377 158.015C25.3213 158.898 22.4472 159.415 19.4795 159.211C18.0108 159.109 16.5695 158.856 15.2218 158.227C14.8258 158.042 14.4545 157.803 14.0859 157.566C13.8026 157.385 13.5799 157.165 13.5111 156.788C13.4726 156.563 13.2993 156.31 13.1095 156.18C12.7795 155.952 12.6695 155.641 12.5815 155.292C12.3477 154.351 12.4274 153.424 12.697 152.5C13.06 151.249 13.7229 150.176 14.5948 149.23C14.6883 149.246 14.7515 149.244 14.8065 149.269C18.1455 150.721 21.6303 151.004 25.2086 150.594C27.5437 150.327 29.8512 149.934 32.0736 149.153C32.6429 148.952 33.2012 148.724 33.7486 148.515C34.1144 148.817 34.4609 149.084 34.7827 149.379C35.044 149.618 35.2998 149.871 35.5143 150.154L35.5171 150.151Z" fill="#B4BD57"/>
<path d="M19.8313 170.999C20.2659 171.351 20.3897 171.637 20.1641 172.154C19.9221 172.704 19.6306 173.249 19.2757 173.73C18.6872 174.53 17.9253 175.163 17.0699 175.669C14.5533 177.149 11.8442 177.773 8.93423 177.451C7.84232 177.33 6.80817 176.995 5.85928 176.425C4.35756 175.521 3.58195 174.192 3.52144 172.44C3.46368 170.754 3.87074 169.162 4.47583 167.605C5.35596 165.336 6.79442 163.446 8.47767 161.725C9.45681 160.721 10.513 159.799 11.6791 158.903C13.2386 160.391 15.1006 161.089 17.1002 161.51C16.7179 162.184 14.8696 163.589 13.5164 164.255C13.2249 163.999 12.9498 163.708 12.628 163.485C12.0972 163.119 11.4454 163.207 11.0218 163.65C10.623 164.065 10.5542 164.709 10.8843 165.215C11.03 165.44 11.2281 165.633 11.4151 165.831C11.8937 166.34 12.3062 166.887 12.529 167.561C12.5675 167.674 12.5758 167.797 12.6033 167.943C11.8634 168.185 11.1511 168.416 10.4387 168.65C10.2792 168.702 10.1142 168.741 9.96288 168.81C9.3578 169.082 9.0525 169.698 9.21477 170.303C9.3743 170.903 9.94913 171.304 10.6065 171.224C10.9558 171.183 11.2941 171.054 11.6379 170.963C12.5263 170.724 13.4009 170.424 14.303 170.256C15.6315 170.009 16.9737 170.064 18.3021 170.311C18.8632 170.416 19.383 170.633 19.8341 170.999H19.8313Z" fill="#B4BD57"/>
</svg>
