<svg width="207" height="198" viewBox="0 0 207 198" fill="none" xmlns="http://www.w3.org/2000/svg">
<path d="M206.353 112.441C206.515 115.914 205.544 119.116 204.097 122.196C202.48 125.643 200.23 128.66 197.549 131.355C197.059 131.847 196.644 132.384 196.25 132.959C195.497 134.064 194.694 135.142 193.863 136.193C190.543 140.387 186.99 144.378 183.326 148.27C181.965 149.72 180.482 151.056 179.055 152.442C178.937 152.558 178.813 152.671 178.714 152.764C178.986 153.584 179.286 154.362 179.503 155.165C180.028 157.113 179.88 159.065 179.467 161.015C178.752 164.39 177.234 167.41 175.339 170.251C170.872 176.946 165.157 182.342 158.289 186.528C151.207 190.846 143.583 193.762 135.455 195.398C131.781 196.138 128.082 196.564 124.338 196.364C119.143 196.089 114.266 194.735 109.893 191.814C109.824 191.768 109.753 191.726 109.626 191.649C109.464 191.784 109.294 191.927 109.123 192.07C107.335 193.566 105.473 194.95 103.328 195.913C101.667 196.658 99.9285 197.101 98.1187 197.241C94.964 197.483 92.4777 195.968 90.9869 193.165C90.1261 191.548 89.7795 189.779 89.6227 187.972C89.3449 184.762 89.7438 181.619 90.5991 178.522C90.6706 178.26 90.7559 177.999 90.8467 177.743C90.9292 177.51 91.0282 177.281 91.141 177.001C85.962 174.883 83.3216 170.909 82.6945 165.419C82.6037 165.463 82.4937 165.507 82.3947 165.57C79.5425 167.435 76.4071 168.538 73.0598 169.093C71.2803 169.39 69.5145 169.415 67.7598 168.975C67.4325 168.893 67.218 168.975 67.0117 169.256C66.4258 170.048 65.8372 170.84 65.2047 171.591C61.6539 175.802 57.6741 179.52 52.8361 182.235C50.4707 183.561 47.9954 184.63 45.3385 185.236C44.0183 185.535 42.6761 185.552 41.3339 185.406C39.7689 185.236 38.4817 184.482 37.3678 183.406C36.1026 182.185 35.1097 180.769 34.3396 179.19C34.1746 178.855 34.0151 178.514 33.8473 178.161C32.6839 178.219 31.537 178.282 30.3873 178.332C25.7776 178.527 21.4567 177.532 17.6007 174.957C14.4927 172.878 12.1384 170.086 10.5597 166.681C9.46224 164.313 8.65362 161.849 8.30432 159.255C7.92477 156.439 8.04578 153.65 9.00567 150.943C9.22846 150.316 9.5035 149.692 9.86105 149.134C10.8347 147.621 12.4217 147.181 14.0197 148.003C14.644 148.322 15.2161 148.782 15.7359 149.257C16.8553 150.286 17.6667 151.568 18.4836 152.839C20.5271 156.015 22.2819 159.346 23.8661 162.776C24.8232 164.847 25.8766 166.874 26.8613 168.931C27.1253 169.484 27.4664 169.748 28.1072 169.753C29.2761 169.764 30.4423 169.866 31.6882 169.935C31.5975 169.195 31.5177 168.541 31.4407 167.883C30.9869 164.06 31.0804 160.267 32.1448 156.543C32.3951 155.66 32.7637 154.811 33.1185 153.961C33.355 153.394 33.7235 152.907 34.2131 152.525C35.0987 151.829 36.0559 151.686 37.0955 152.165C38.5835 152.85 39.6232 154.01 40.44 155.383C41.2074 156.675 41.6392 158.106 41.9307 159.566C42.3103 161.475 42.6101 163.4 42.9456 165.317C42.9732 165.477 43.0062 165.636 43.0529 165.892C45.8831 164.343 48.551 162.679 51.0428 160.768C51.0346 160.71 51.0373 160.685 51.0263 160.672C49.1561 157.902 49.0955 154.923 49.9564 151.815C50.6825 149.194 52.0935 147.002 54.0518 145.157C56.1393 143.19 58.4277 141.507 61.0873 140.382C61.3761 140.258 61.4889 140.079 61.5494 139.785C62.0142 137.527 63.5792 136.221 65.8785 136.16C67.0639 136.127 68.2191 136.3 69.3193 136.757C69.5751 136.864 69.8033 136.897 70.0921 136.773C71.9156 135.992 73.8354 135.709 75.802 135.841C76.8636 135.913 77.917 136.113 78.9759 136.254C79.0529 136.265 79.1327 136.254 79.284 136.254C78.8439 133.55 78.5716 130.868 78.4369 128.178C78.3021 125.502 78.1508 122.823 78.4093 120.089C78.0353 120.048 77.6887 119.988 77.3422 119.971C75.0649 119.85 72.8728 119.317 70.7165 118.604C70.3699 118.491 69.9794 118.445 69.6136 118.458C61.4201 118.72 53.2267 118.868 45.0332 118.643C40.297 118.513 35.5691 118.181 30.9071 117.281C25.2551 116.187 19.8478 114.388 14.886 111.412C11.2555 109.236 8.03753 106.549 5.49891 103.158C2.91628 99.7117 1.32655 95.8309 0.911238 91.499C0.655451 88.8229 1.05701 86.2457 1.78862 83.6851C2.43496 81.4105 3.04005 79.1222 3.63139 76.8311C4.65729 72.8623 6.19201 69.0805 7.85876 65.3509C11.2225 57.8313 15.4966 50.8701 20.7801 44.5414C23.14 41.7167 25.8491 39.2469 28.8223 37.0713C29.1249 36.8485 29.4549 36.6615 29.7685 36.4524C30.2085 36.1554 30.6678 35.9161 31.2729 35.9959C31.6662 34.3401 32.2163 32.8302 32.9094 31.3697C34.1499 28.7623 35.7533 26.3942 37.5054 24.1086C43.2839 16.567 50.7018 11.1432 59.2583 7.17165C65.1249 4.446 71.261 2.59223 77.6392 1.53608C80.6894 1.03 83.7671 0.812721 86.8476 1.041C91.9001 1.40956 96.6528 2.76551 100.891 5.65068C100.924 5.67268 100.965 5.68369 101.056 5.72494C101.207 5.59292 101.378 5.4444 101.551 5.29863C103.534 3.63464 105.608 2.11916 108.042 1.16752C109.596 0.562434 111.205 0.19113 112.875 0.136122C116.051 0.0288563 118.26 1.56633 119.707 4.29198C120.554 5.88997 120.884 7.64472 121.035 9.42974C121.31 12.6422 120.911 15.7859 120.05 18.8774C119.913 19.3779 119.72 19.8648 119.542 20.3873C124.693 22.4997 127.32 26.463 127.963 31.9335C128.04 31.9005 128.172 31.862 128.282 31.7933C131.154 29.923 134.311 28.8201 137.683 28.2727C139.422 27.9895 141.146 27.9675 142.86 28.3993C143.294 28.5093 143.509 28.3168 143.734 28.0032C145.778 25.14 148.187 22.6069 150.786 20.2498C154.747 16.6578 159.2 13.8964 164.37 12.3754C165.944 11.9133 167.544 11.8116 169.162 11.9546C170.798 12.1004 172.149 12.865 173.309 13.9899C174.541 15.1836 175.515 16.5643 176.274 18.099C176.45 18.4566 176.618 18.8169 176.816 19.2294C177.003 19.2212 177.207 19.2074 177.413 19.2019C179.107 19.1579 180.81 19.0011 182.498 19.0919C190.653 19.5292 196.534 23.476 200.128 30.7866C201.27 33.108 202.018 35.5806 202.359 38.1549C202.728 40.9521 202.612 43.7218 201.66 46.4062C201.438 47.0333 201.171 47.6603 200.816 48.2214C199.84 49.7644 198.231 50.21 196.611 49.3683C195.989 49.0465 195.42 48.5845 194.903 48.1059C193.756 47.0415 192.936 45.7186 192.094 44.4149C189.765 40.8173 187.881 36.986 186.088 33.1052C185.334 31.4715 184.479 29.8845 183.692 28.2645C183.483 27.8299 183.189 27.6594 182.713 27.6429C181.5 27.6016 180.29 27.5191 178.975 27.4449C179.022 27.8409 179.055 28.1627 179.096 28.4818C179.594 32.0958 179.665 35.7043 178.909 39.2964C178.623 40.6523 178.257 41.989 177.633 43.2294C177.363 43.763 177.022 44.2938 176.599 44.7064C175.716 45.5618 174.671 45.7323 173.529 45.196C172.069 44.5084 171.04 43.367 170.234 42.0138C169.456 40.7046 169.019 39.2524 168.727 37.7699C168.35 35.8611 168.05 33.9358 167.715 32.0188C167.69 31.8785 167.665 31.7383 167.638 31.598C166.675 31.8125 161.284 35.2093 159.629 36.6367C159.643 36.689 159.645 36.755 159.678 36.8045C161.273 39.1313 161.516 41.6865 160.993 44.3846C160.358 47.6576 158.718 50.3447 156.265 52.5561C154.246 54.3741 152.062 55.9556 149.54 57.0172C149.262 57.1327 149.18 57.3115 149.119 57.5728C149.029 57.9579 148.935 58.3512 148.773 58.7087C148.022 60.3865 146.622 61.1016 144.87 61.2088C143.665 61.2831 142.488 61.0906 141.363 60.6312C141.11 60.5267 140.887 60.4662 140.593 60.5955C138.731 61.4014 136.77 61.6846 134.76 61.5361C133.72 61.4591 132.686 61.2611 131.649 61.1208C131.591 61.1126 131.528 61.1263 131.404 61.1318C132.163 66.4896 132.554 71.8584 132.287 77.3124C132.966 77.3729 133.632 77.4307 134.292 77.4912C136.839 77.7305 139.251 78.5034 141.63 79.3807C141.996 79.5155 142.323 79.5788 142.717 79.466C143.896 79.125 145.104 79.0947 146.328 79.1525C158.1 79.7135 169.415 82.3539 180.312 86.7738C185.392 88.8339 190.199 91.4523 194.534 94.8463C196.165 96.1224 197.727 97.4977 199.237 98.9169C202.004 101.519 204.166 104.555 205.505 108.139C206.025 109.522 206.281 110.944 206.353 112.43V112.441ZM203.234 117.213C204.133 113.992 204.048 110.859 202.582 107.784C201.33 105.155 199.622 102.877 197.551 100.859C195.871 99.2166 194.086 97.6929 192.199 96.293C189.039 93.9524 185.615 92.0573 182.067 90.3796C175.367 87.2084 168.287 85.1841 161.07 83.6219C157.591 82.8682 154.062 82.3622 150.517 82.0211C149.183 81.8919 147.846 81.8176 146.509 81.7158C146.498 81.7598 146.485 81.8038 146.474 81.8479C146.589 81.9304 146.699 82.0211 146.817 82.0954C149.348 83.6631 151.559 85.6104 153.575 87.7887C156.584 91.0369 158.611 94.8215 159.706 99.1039C159.986 100.204 160.151 101.318 159.92 102.462C159.549 104.321 158.303 105.323 156.408 105.276C155.569 105.257 154.807 104.995 154.07 104.618C153.017 104.082 152.084 103.375 151.188 102.616C147.766 99.72 145.225 96.1775 143.434 92.0793C143.344 91.8731 143.242 91.6695 143.14 91.455C142.917 91.51 142.736 91.554 142.557 91.6008C139.045 92.5304 135.541 92.4452 132.081 91.378C128.068 90.1431 125.029 87.6925 123.095 83.9299C123.04 83.8199 122.969 83.7154 122.903 83.6081C122.809 83.5999 122.727 83.5834 122.644 83.5834C120.466 83.5834 118.285 83.5834 116.106 83.5696C115.823 83.5696 115.642 83.6851 115.449 83.8584C114.902 84.3425 114.365 84.8513 113.771 85.2776C113.397 85.5416 113.337 85.8139 113.403 86.2265C114.088 90.4401 114.319 94.6785 114 98.9389C113.89 100.402 113.7 101.863 113.172 103.24C112.957 103.799 112.663 104.354 112.286 104.814C111.494 105.782 110.311 106.01 109.159 105.523C108.994 105.455 108.826 105.386 108.587 105.29C108.851 108.508 109.527 111.552 110.501 114.553C110.661 114.553 110.765 114.561 110.867 114.553C112.226 114.448 113.581 114.333 114.94 114.242C117.322 114.085 119.707 113.901 122.091 113.813C126.198 113.662 130.307 113.703 134.405 114.019C137.328 114.245 140.252 114.487 143.162 114.842C146.905 115.296 150.607 116.011 154.293 116.805C159.263 117.878 163.977 119.605 168.353 122.227C172.052 124.443 174.951 127.428 177.028 131.198C178.348 133.594 178.75 136.157 178.298 138.855C178.224 139.298 178.131 139.741 178.029 140.264C178.348 140.154 178.582 140.079 178.816 139.994C181.415 139.037 183.915 137.863 186.338 136.523C190.345 134.306 193.987 131.611 197.029 128.162C199.864 124.949 202.067 121.374 203.231 117.213H203.234ZM199.911 42.3906C200.137 39.5879 199.655 36.8925 198.767 34.2384C197.634 30.8581 195.761 27.984 193.068 25.6544C192.469 25.1373 191.822 24.6587 191.14 24.2544C188.601 22.7334 185.851 21.8451 182.889 21.6635C181.173 21.559 179.459 21.6223 177.704 21.7845C177.974 22.9067 178.238 23.9986 178.494 25.0548C179.008 25.0025 179.421 24.9173 179.833 24.9255C180.713 24.9393 181.591 25.0135 182.471 25.0355C182.71 25.041 182.966 24.9943 183.186 24.9035C183.841 24.634 184.327 24.7385 184.836 25.2418C185.279 25.6791 185.538 26.2099 185.804 26.7573C186.618 28.4323 187.507 30.0743 188.302 31.7575C189.66 34.6372 190.964 37.5416 192.603 40.2783C193.538 41.8405 194.512 43.3835 195.538 44.8879C195.995 45.5535 196.572 46.1559 197.183 46.6922C198.074 47.4733 198.489 47.344 198.973 46.2824C198.99 46.2439 199.009 46.2054 199.023 46.1669C199.499 44.9484 199.809 43.6943 199.914 42.3906H199.911ZM188.684 138.448C188.769 138.349 188.838 138.234 188.915 138.129C182.036 142.027 174.781 144.651 166.818 145.154V147.541C166.895 147.552 166.956 147.574 167.014 147.572C169.305 147.428 171.519 147.852 173.703 148.476C174.954 148.834 176.057 149.456 176.97 150.396C177.042 150.47 177.127 150.531 177.231 150.624C177.52 150.366 177.803 150.121 178.076 149.865C181.874 146.304 185.276 142.376 188.684 138.451V138.448ZM176.954 160.493C177.383 158.526 177.421 156.593 176.673 154.687C175.9 152.723 174.662 151.249 172.501 150.798C171.252 150.536 169.992 150.308 168.73 150.146C167.91 150.041 167.063 150.025 166.271 150.341C166.095 151.04 165.949 151.716 165.754 152.376C163.554 159.899 160.421 167.009 156.171 173.601C154.001 176.971 151.578 180.158 148.682 182.953C146.168 185.379 143.459 187.549 140.282 189.067C138.189 190.068 136.008 190.775 133.662 190.882C131.668 190.976 129.726 190.681 127.851 190.029C122.922 188.313 119.093 185.194 116.274 180.818C114.374 177.87 113.056 174.668 112.118 171.296C111.519 169.14 110.867 166.998 110.234 164.847C110.165 164.613 110.066 164.387 109.97 164.123C109.728 164.261 109.549 164.365 109.368 164.467C108.29 165.072 107.236 165.727 106.131 166.271C104.428 167.11 102.632 167.682 100.715 167.74C98.6358 167.803 96.9966 166.791 96.2017 164.872C95.8772 164.088 95.6709 163.238 95.5306 162.396C95.2418 160.647 95.3326 158.884 95.5856 157.137C95.7561 155.96 96.0284 154.794 96.2952 153.633C96.3777 153.273 96.5455 152.916 96.749 152.607C97.0928 152.085 97.7667 151.934 98.3085 152.192C98.8283 152.44 99.1116 153.02 98.9961 153.609C98.9769 153.71 98.9466 153.812 98.9109 153.911C98.2012 155.933 97.995 158.037 97.9372 160.155C97.907 161.266 98.028 162.374 98.3883 163.439C98.8586 164.828 99.6837 165.331 101.122 165.149C102.616 164.96 104.032 164.508 105.347 163.796C106.653 163.089 107.96 162.363 109.192 161.535C113.785 158.449 117.946 154.844 121.714 150.795C123.571 148.801 125.295 146.689 126.825 144.428C127.611 143.264 128.354 142.071 128.775 140.715C128.852 140.47 128.995 140.222 128.871 139.862C128.436 140.096 128.027 140.294 127.636 140.53C125.98 141.526 124.402 142.626 122.944 143.897C117.41 148.721 112.176 153.856 107.044 159.098C106.458 159.698 105.922 160.344 105.328 160.936C105.066 161.197 104.75 161.436 104.414 161.579C103.567 161.945 102.662 161.392 102.574 160.474C102.547 160.188 102.596 159.888 102.657 159.605C102.8 158.95 102.995 158.309 103.13 157.652C103.477 155.966 103.333 154.318 102.668 152.723C102.401 152.085 101.989 151.576 101.392 151.213C100.652 150.762 100.633 150.759 99.9615 151.337C99.3647 151.848 98.6496 151.868 98.1435 151.384C97.6457 150.91 97.6072 150.14 98.1242 149.574C99.1694 148.43 99.9092 147.104 100.613 145.74C102.528 142.04 104.087 138.212 104.887 134.106C105.132 132.851 105.363 131.597 105.242 130.304C105.069 128.431 104.049 127.271 102.288 126.734C100.894 126.308 99.4664 126.127 98.0032 126.253C97.7172 126.278 97.3844 126.308 97.1396 126.195C96.7765 126.028 96.5538 126.168 96.287 126.352C95.4398 126.93 94.5845 127.499 93.7263 128.063C93.5338 128.189 93.3303 128.305 93.1185 128.39C92.4969 128.646 91.8506 128.445 91.5205 127.912C91.1932 127.384 91.3032 126.704 91.8038 126.264C91.9606 126.127 92.1421 126.017 92.3181 125.904C92.8627 125.549 93.41 125.2 93.9546 124.845C96.496 123.184 98.7623 121.212 100.754 118.915C103.518 115.727 104.871 112.056 104.678 107.831C104.577 105.628 104.258 103.455 103.749 101.31C103.367 99.7007 103.012 98.0807 102.308 96.5708C102.052 96.0234 101.738 95.4981 101.394 95.003C101.15 94.651 100.836 94.3264 100.355 94.2577C100.011 94.5602 99.9092 94.9728 99.7882 95.3688C99.4004 96.6175 99.2491 97.9102 99.1859 99.2084C98.9521 103.936 99.2244 108.629 100.286 113.257C100.338 113.48 100.393 113.711 100.396 113.937C100.399 114.487 100.157 114.91 99.648 115.144C99.1336 115.381 98.6661 115.265 98.2563 114.894C98.1517 114.798 98.061 114.688 97.951 114.572C97.8327 114.663 97.7282 114.729 97.6347 114.814C93.9244 118.164 90.9017 122.042 88.6794 126.528C88.1183 127.659 87.7057 128.838 87.5352 130.104C87.2849 131.985 88.209 133.399 90.0463 133.877C90.9429 134.111 91.8643 134.196 92.7885 134.108C94.3754 133.957 95.9487 133.723 97.4889 133.305C98.2563 133.099 99.0236 132.882 99.7965 132.697C100.611 132.502 101.293 132.876 101.491 133.591C101.678 134.273 101.276 134.909 100.495 135.162C100.256 135.239 100.017 135.327 99.769 135.365C99.4032 135.423 99.1914 135.626 98.9989 135.932C96.9526 139.205 95.1263 142.593 93.5696 146.125C92.4502 148.661 91.4765 151.243 91.1822 154.029C90.9677 156.056 91.0915 158.045 91.9166 159.948C91.9661 160.061 92.0101 160.182 92.0376 160.303C92.1806 160.892 91.9248 161.472 91.4105 161.744C90.8879 162.017 90.2636 161.912 89.873 161.442C89.7025 161.238 89.565 160.988 89.4687 160.74C89.2349 160.138 89.0314 159.522 88.7976 158.856C88.7289 158.933 88.6794 158.975 88.6491 159.027C87.8515 160.438 86.9328 161.755 85.7612 162.888C85.6457 162.998 85.6016 163.208 85.5741 163.378C85.5191 163.727 85.4971 164.082 85.4614 164.434C85.4229 164.828 85.3239 165.226 85.3514 165.617C85.5769 168.747 86.9824 171.313 89.4467 173.167C91.9908 175.078 94.9173 175.694 98.0802 174.96C100.099 174.492 101.876 173.549 103.554 172.375C103.776 172.218 104.007 172.067 104.255 171.965C104.819 171.737 105.427 171.932 105.757 172.413C106.07 172.87 106.048 173.489 105.68 173.931C105.548 174.091 105.38 174.223 105.212 174.347C104.926 174.558 104.634 174.765 104.329 174.946C104.035 175.12 103.867 175.362 103.812 175.692C103.768 175.958 103.71 176.228 103.694 176.497C103.529 179.336 104.241 181.946 105.861 184.278C107.632 186.825 109.871 188.896 112.553 190.459C116.403 192.7 120.62 193.685 125.037 193.839C128.381 193.954 131.682 193.55 134.96 192.884C143.492 191.149 151.438 188.005 158.718 183.203C164.736 179.234 169.703 174.231 173.612 168.183C175.144 165.812 176.34 163.285 176.945 160.501L176.954 160.493ZM176.885 34.6234C176.97 32.6074 176.811 30.6023 176.508 28.611C176.104 25.9377 175.556 23.2918 174.621 20.7449C173.942 18.8966 172.949 17.2299 171.521 15.8464C170.713 15.0626 169.775 14.5565 168.631 14.485C167.704 14.4272 166.785 14.4602 165.88 14.6638C163.719 15.1506 161.694 16.0032 159.747 17.0373C154.893 19.6145 150.94 23.267 147.444 27.4476C146.479 28.6028 145.632 29.8542 144.746 31.0754C144.127 31.928 143.231 31.9665 142.535 31.1717C142.397 31.0149 142.175 30.8856 141.971 30.8416C140.959 30.6161 139.93 30.5886 138.907 30.7124C136.094 31.0534 133.401 31.8208 130.928 33.2262C128.178 34.794 125.791 36.7687 124.25 39.6154C123.315 41.3427 122.586 43.1304 122.419 45.1162C122.215 47.4898 122.677 49.7424 123.568 51.9262C124.561 54.3576 126.239 56.1536 128.579 57.3363C129.801 57.9524 131.085 58.4034 132.427 58.6702C134.163 59.014 135.907 59.1598 137.802 58.7747C137.579 58.5932 137.46 58.4832 137.331 58.3869C133.635 55.587 130.631 52.1903 128.508 48.0564C128.021 47.113 127.653 46.1036 127.292 45.1025C127.086 44.5304 127.067 43.9088 127.237 43.3037C127.427 42.6326 128.016 42.2255 128.651 42.3163C129.308 42.4098 129.77 42.9214 129.729 43.6393C129.688 44.3599 129.911 44.998 130.188 45.636C131.544 48.7578 133.558 51.4119 135.945 53.8075C137.51 55.378 139.229 56.7312 141.198 57.7571C142.175 58.2659 143.195 58.6317 144.306 58.662C145.852 58.7032 146.611 58.0871 146.628 56.6184C146.628 56.5771 146.628 56.5359 146.628 56.4919C146.636 55.7025 147.035 55.213 147.769 54.9407C148.358 54.7234 148.946 54.4978 149.505 54.2091C151.545 53.1501 153.374 51.7942 155.022 50.1907C156.829 48.4277 157.998 46.3209 158.476 43.8345C158.787 42.2118 158.793 40.6083 158.031 39.1066C157.219 37.5114 156.067 36.2022 154.518 35.2533C153.025 34.3401 151.449 33.6388 149.76 33.1657C149.183 33.0034 148.646 32.7862 148.193 33.3857C148.157 33.4298 148.085 33.449 148.03 33.4793C147.428 33.7791 146.765 33.647 146.386 33.1575C145.984 32.6376 146.044 31.961 146.54 31.4467C146.716 31.2652 146.916 31.1084 147.073 30.9159C148.495 29.1694 150.132 27.6374 151.798 26.1357C154.615 23.5971 157.701 21.4407 161.122 19.796C162.8 18.9901 164.491 18.1953 166.351 17.8625C166.502 17.835 166.642 17.7195 166.78 17.6287C167.558 17.1144 168.452 17.4004 168.763 18.2805C168.854 18.5336 168.903 18.8086 168.931 19.0781C169.197 21.7048 169.464 24.3287 169.712 26.9581C170.039 30.4428 170.493 33.9083 171.244 37.3298C171.488 38.4355 171.805 39.5219 172.338 40.5313C172.776 41.3592 173.367 42.0633 174.126 42.6078C174.709 43.0259 174.863 42.9847 175.191 42.3658C175.367 42.0358 175.512 41.6837 175.647 41.3344C176.467 39.1754 176.783 36.92 176.879 34.6289L176.885 34.6234ZM174.913 141.001C176.28 138.209 176.288 135.395 174.882 132.659C173.235 129.446 170.831 126.872 167.789 124.916C164.505 122.807 160.963 121.264 157.217 120.199C152.959 118.989 148.602 118.241 144.235 117.581C139.257 116.833 134.24 116.497 129.212 116.335C123.673 116.156 118.155 116.566 112.638 116.979C112.27 117.006 111.904 117.056 111.491 117.1C111.574 117.328 111.631 117.501 111.7 117.672C113.185 121.335 114.998 124.817 117.35 128.008C118.406 129.441 119.366 130.954 120.639 132.21C122.567 134.111 124.627 135.855 126.921 137.312C127.298 137.552 127.633 137.72 128.068 137.45C128.238 137.343 128.464 137.321 128.667 137.277C130.098 136.98 131.214 137.7 131.492 139.136C131.555 139.466 131.696 139.67 131.979 139.802C132.812 140.187 133.629 140.624 134.49 140.946C139.543 142.824 144.804 143.647 150.165 143.941C152.932 144.092 155.693 144.04 158.452 143.746C158.746 143.713 158.941 143.603 159.161 143.424C159.758 142.934 160.338 142.398 161.007 142.029C162.797 141.042 164.458 141.284 165.944 142.695C167.39 142.527 168.832 142.409 170.256 142.186C171.64 141.969 173.007 141.644 174.379 141.367C174.605 141.323 174.792 141.262 174.915 141.006L174.913 141.001ZM167.297 28.7156C167.203 27.7172 167.113 26.7683 167.014 25.7066C162.987 27.8272 159.367 30.319 155.839 32.9759C156.576 33.5398 157.266 34.0706 157.987 34.6234C160.921 32.3598 164.079 30.4841 167.3 28.7156H167.297ZM166.733 22.9535C166.648 22.1063 166.565 21.306 166.477 20.4148C160.223 22.4254 155.217 26.1274 150.717 30.7234C151.598 31.0424 152.414 31.3422 153.286 31.6585C157.569 28.4323 161.925 25.3628 166.733 22.9535ZM164.236 146.543C164.307 146.037 164.252 145.492 164.15 144.986C163.969 144.103 163.488 143.828 162.632 144.128C162.206 144.274 161.793 144.521 161.447 144.813C160.985 145.201 160.561 145.646 160.173 146.111C158.988 147.53 157.956 149.059 157.096 150.693C154.84 154.976 152.725 159.324 150.874 163.796C149.1 168.076 147.742 172.498 146.452 176.946C146.325 177.386 146.182 177.831 145.965 178.233C145.591 178.921 144.859 179.116 144.193 178.709C143.905 178.533 143.668 178.522 143.374 178.629C142.232 179.042 141.069 179.396 139.947 179.858C137.128 181.014 134.501 182.537 131.938 184.171C131.69 184.328 131.443 184.49 131.176 184.606C130.703 184.812 130.23 184.787 129.814 184.449C129.424 184.13 129.311 183.706 129.372 183.208C129.402 182.972 129.407 182.7 129.319 182.488C128.434 180.318 127.644 178.098 126.596 176.008C124.591 172.009 122.116 168.296 119.297 164.819C118.623 163.991 117.88 163.219 117.154 162.435C117.006 162.275 116.797 162.165 116.599 162.063C116.288 161.901 115.952 161.78 115.644 161.61C115.245 161.39 114.86 161.136 114.464 160.894C113.705 161.478 112.976 162.036 112.267 162.583C113.229 165.864 114.159 169.058 115.111 172.245C115.928 174.996 117.168 177.554 118.774 179.927C121.181 183.489 124.399 186.052 128.445 187.521C131.652 188.685 134.848 188.602 138.005 187.274C139.441 186.671 140.805 185.948 142.089 185.07C145.439 182.777 148.281 179.952 150.772 176.759C154.048 172.562 156.752 168.021 158.955 163.175C160.776 159.167 162.445 155.099 163.496 150.814C163.84 149.414 164.04 147.979 164.241 146.551L164.236 146.543ZM157.393 101.868C157.437 101.332 157.428 100.768 157.313 100.248C156.557 96.8678 155.146 93.7901 152.984 91.0672C150.151 87.4999 146.702 84.678 142.626 82.6592C138.717 80.7229 134.586 79.6943 130.186 79.9308C129.919 79.9446 129.638 79.9198 129.38 79.8456C128.863 79.6998 128.513 79.2542 128.491 78.7454C128.464 78.2173 128.67 77.747 129.163 77.571C129.658 77.3949 129.718 77.0676 129.724 76.6551C129.743 75.2304 129.792 73.8084 129.768 72.3837C129.718 69.3445 129.49 66.3163 129.105 63.3019C128.978 62.3117 128.681 61.3353 128.876 60.3094C128.288 60.0289 127.713 59.7786 127.163 59.4871C126.602 59.19 126.063 58.8545 125.444 58.4942C125.268 59.3936 125.103 60.2132 124.949 61.0328C124.831 61.6654 124.817 62.3282 124.369 62.8178C124.404 62.9003 124.415 62.9443 124.44 62.9773C125.65 64.4378 125.914 66.121 125.62 67.9446C125.381 69.427 124.864 70.8132 124.217 72.1582C124.121 72.359 124.019 72.5845 124.011 72.799C123.986 73.6131 124.039 74.4273 123.989 75.2386C123.898 76.7569 123.981 78.2558 124.327 79.7355C125.26 83.7236 127.534 86.6281 131.291 88.3306C133.835 89.483 136.523 89.78 139.276 89.5875C140.296 89.516 141.303 89.3317 142.312 88.9494C142.26 88.6936 142.208 88.5121 142.186 88.3278C142.158 88.1215 142.131 87.9097 142.147 87.7035C142.191 87.0956 142.609 86.639 143.195 86.5345C143.751 86.4355 144.339 86.7518 144.554 87.3184C144.7 87.709 144.752 88.1325 144.881 88.5286C146.622 93.9854 149.733 98.4658 154.403 101.824C154.774 102.091 155.201 102.283 155.613 102.481C155.817 102.58 156.045 102.646 156.27 102.682C156.98 102.798 157.332 102.569 157.39 101.86L157.393 101.868ZM156.623 146.515C156.314 146.515 156.092 146.51 155.872 146.515C155.286 146.537 154.7 146.579 154.114 146.587C149.975 146.642 145.863 146.315 141.792 145.569C138.159 144.906 134.597 143.971 131.253 142.351C131.181 142.315 131.102 142.299 131.008 142.266C130.953 142.348 130.901 142.412 130.868 142.486C130.177 144.095 129.218 145.542 128.194 146.953C125.012 151.334 121.269 155.19 117.16 158.702C116.992 158.845 116.835 158.997 116.618 159.197C117.182 159.423 117.696 159.549 118.114 159.822C118.562 160.113 118.917 160.548 119.313 160.919C119.965 160.52 120.557 160.124 121.178 159.783C122.298 159.17 123.425 158.568 124.569 157.998C130.505 155.042 136.594 152.486 143.033 150.811C147.084 149.758 151.102 148.556 155.313 148.259C155.421 148.251 155.564 148.179 155.621 148.094C155.954 147.596 156.27 147.082 156.628 146.515H156.623ZM153.702 151.609C153.79 151.425 153.875 151.238 154.015 150.943C149.386 151.634 144.997 152.863 140.634 154.181C133.769 156.255 127.323 159.291 121.008 162.814C123.312 165.686 125.287 168.615 127.138 171.64C129.003 174.688 130.345 177.963 131.646 181.28C132.837 180.607 133.956 179.949 135.095 179.33C137.752 177.884 140.519 176.698 143.459 175.953C143.957 175.826 144.177 175.62 144.317 175.136C145.461 171.173 146.721 167.245 148.25 163.411C149.857 159.382 151.82 155.515 153.704 151.612L153.702 151.609ZM125.163 33.1052C125.216 32.6706 125.331 32.2306 125.301 31.7988C125.084 28.6441 123.659 26.0614 121.167 24.2077C118.615 22.3071 115.688 21.7075 112.525 22.4584C110.529 22.9315 108.774 23.8638 107.11 25.0218C106.887 25.1758 106.659 25.3353 106.408 25.4343C105.685 25.7231 104.887 25.3271 104.717 24.6037C104.59 24.0646 104.75 23.5998 105.179 23.256C105.523 22.9837 105.883 22.7252 106.26 22.5024C106.615 22.2906 106.81 22.0018 106.862 21.603C106.89 21.3747 106.942 21.1492 106.956 20.9209C107.121 18.1045 106.425 15.5109 104.83 13.1923C103.047 10.5987 100.776 8.5001 98.0555 6.92687C94.1609 4.67429 89.9005 3.69514 85.4366 3.56587C82.1774 3.47236 78.9594 3.86567 75.7635 4.51201C67.1877 6.24477 59.2033 9.40223 51.89 14.2347C45.8748 18.209 40.9131 23.2175 37.0103 29.2711C35.4811 31.642 34.2901 34.1751 33.6933 36.9585C33.289 38.837 33.234 40.6963 33.9133 42.5281C34.6697 44.5661 35.9019 46.1256 38.1462 46.6014C39.3729 46.8627 40.6106 47.0883 41.8565 47.2478C42.6981 47.355 43.5645 47.377 44.3896 47.0663C44.5656 46.3732 44.7114 45.6966 44.9039 45.0365C47.1043 37.5141 50.237 30.4043 54.4836 23.8088C56.6537 20.4396 59.074 17.2519 61.9702 14.4547C64.5006 12.0124 67.24 9.86155 70.4194 8.30207C75.1666 5.97523 79.9468 5.90647 84.727 8.11504C88.1513 9.69652 91.0474 11.9849 93.3 15.0268C95.5939 18.121 97.2166 21.5535 98.281 25.2528C98.9824 27.6869 99.703 30.1155 100.421 32.5441C100.49 32.7807 100.589 33.0089 100.685 33.2812C101.603 32.7477 102.47 32.2443 103.336 31.7438C104.706 30.9516 106.155 30.3603 107.69 29.9807C108.752 29.7167 109.835 29.5324 110.927 29.7085C112.723 29.9972 113.887 31.0892 114.563 32.7367C115.036 33.8946 115.221 35.113 115.27 36.3562C115.342 38.1632 115.207 39.962 114.855 41.7332C114.668 42.6739 114.409 43.609 114.082 44.5084C113.815 45.2345 113.084 45.4985 112.432 45.2455C111.788 44.9952 111.477 44.3186 111.733 43.5787C112.385 41.6975 112.613 39.7474 112.715 37.7754C112.784 36.4717 112.685 35.1763 112.261 33.9276C111.799 32.5716 110.982 32.0821 109.566 32.2553C107.899 32.4589 106.362 33.0337 104.89 33.8231C102.002 35.377 99.3427 37.2666 96.793 39.3266C92.6372 42.6876 88.8334 46.3897 85.5576 50.6198C84.4272 52.0775 83.3408 53.5682 82.4964 55.2157C82.1416 55.9033 81.8501 56.6157 81.7043 57.4435C81.8363 57.4435 81.9079 57.4655 81.9546 57.4408C82.3259 57.251 82.7055 57.0667 83.063 56.8522C85.0241 55.6695 86.8476 54.2998 88.5611 52.7788C93.6411 48.2709 98.4928 43.521 103.256 38.683C103.903 38.0257 104.5 37.3188 105.141 36.6587C105.416 36.3754 105.718 36.0949 106.056 35.9051C107.025 35.3688 108.078 35.9959 108.097 37.0988C108.103 37.3271 108.061 37.5581 108.009 37.7809C107.905 38.2292 107.773 38.6693 107.66 39.1176C107.19 40.9989 107.225 42.8499 107.982 44.6624C108.276 45.3638 108.741 45.9056 109.412 46.2741C110.066 46.6344 110.075 46.6372 110.636 46.1229C110.666 46.0954 110.696 46.0651 110.729 46.0376C111.326 45.5398 112.055 45.5453 112.545 46.0486C113.007 46.5244 113.012 47.2423 112.55 47.8199C112.275 48.1637 111.948 48.4717 111.719 48.843C111.134 49.7837 110.551 50.7298 110.033 51.7089C108.103 55.3752 106.571 59.1928 105.773 63.2799C105.526 64.5561 105.289 65.8295 105.416 67.1442C105.594 68.9622 106.587 70.1064 108.287 70.6482C109.695 71.0993 111.147 71.2753 112.63 71.1543C112.919 71.1295 113.249 71.0938 113.493 71.2065C113.881 71.3853 114.118 71.2258 114.404 71.0305C115.251 70.4502 116.106 69.8836 116.964 69.3225C117.174 69.185 117.399 69.064 117.633 68.9815C118.205 68.7779 118.805 68.9925 119.118 69.4848C119.429 69.9689 119.366 70.6207 118.945 71.047C118.769 71.223 118.551 71.3578 118.342 71.4981C117.542 72.0317 116.731 72.5542 115.933 73.0933C113.235 74.9141 110.889 77.1144 108.936 79.719C106.975 82.3319 105.988 85.2859 105.966 88.5561C105.949 91.103 106.323 93.6058 106.898 96.0839C107.267 97.6764 107.621 99.2744 108.309 100.765C108.562 101.312 108.867 101.843 109.203 102.344C109.456 102.721 109.783 103.059 110.289 103.161C110.713 102.759 110.823 102.215 110.958 101.695C111.334 100.248 111.455 98.7656 111.505 97.2776C111.645 93.031 111.37 88.8201 110.476 84.6588C110.402 84.3095 110.303 83.9657 110.256 83.6136C110.182 83.0333 110.487 82.4942 110.98 82.2659C111.475 82.0376 111.992 82.1366 112.424 82.5464C112.512 82.6317 112.589 82.7307 112.685 82.8352C112.798 82.7527 112.908 82.6895 112.998 82.607C116.802 79.169 119.894 75.1891 122.119 70.5574C122.608 69.5343 122.955 68.4616 123.106 67.3257C123.365 65.3922 122.402 63.962 120.493 63.5109C119.569 63.2909 118.634 63.2386 117.685 63.3211C115.526 63.5109 113.427 63.9867 111.348 64.5808C111.087 64.6551 110.82 64.7321 110.553 64.7568C109.852 64.8174 109.288 64.413 109.14 63.7777C108.994 63.1589 109.351 62.54 110.014 62.2952C110.267 62.2017 110.534 62.1247 110.801 62.0752C111.197 62.0009 111.466 61.8084 111.673 61.4454C112.82 59.3991 114.022 57.3858 115.135 55.323C116.332 53.1116 117.363 50.8206 118.219 48.4525C118.796 46.8545 119.258 45.2262 119.448 43.5265C119.679 41.4362 119.558 39.3899 118.714 37.4233C118.389 36.667 118.639 35.9519 119.275 35.6493C119.94 35.333 120.68 35.6163 121.038 36.3809C121.291 36.9283 121.464 37.5141 121.67 38.0834C121.725 38.2347 121.769 38.3887 121.822 38.551C121.885 38.5015 121.929 38.4822 121.948 38.452C122.028 38.3282 122.102 38.2017 122.177 38.0752C122.883 36.8568 123.681 35.7016 124.707 34.7279C124.99 34.4612 125.133 34.1971 125.075 33.7983C125.045 33.5783 125.128 33.3445 125.155 33.1162L125.163 33.1052ZM124.503 139.474C124.655 139.373 124.792 139.257 124.968 139.122C124.583 138.847 124.239 138.611 123.904 138.363C121.723 136.757 119.591 135.071 117.878 132.967C115.441 129.974 113.202 126.833 111.472 123.365C109.761 119.927 108.243 116.415 107.269 112.688C107.212 112.468 107.148 112.251 107.06 111.926C106.994 112.067 106.97 112.102 106.959 112.141C106.928 112.243 106.904 112.342 106.879 112.446C106.279 115.221 105.077 117.716 103.265 119.891C102.288 121.063 101.196 122.141 100.16 123.263C100.055 123.373 99.967 123.5 99.8982 123.582C101.037 123.838 102.165 123.998 103.229 124.35C105.768 125.191 107.338 126.921 107.751 129.62C107.938 130.838 107.858 132.045 107.66 133.247C107.203 136.025 106.466 138.729 105.44 141.35C105.319 141.658 105.273 141.914 105.457 142.236C107.115 145.137 108.966 147.899 111.222 150.374C111.359 150.523 111.505 150.666 111.662 150.825C111.843 150.657 111.981 150.531 112.118 150.404C114.753 147.946 117.385 145.481 120.028 143.033C121.428 141.735 122.919 140.547 124.506 139.477L124.503 139.474ZM123.304 56.7999C123.381 56.5689 123.304 56.4039 123.156 56.2306C121.874 54.7124 121.107 52.9356 120.537 51.0571C120.48 50.8646 120.408 50.6748 120.342 50.485C118.777 54.11 116.934 57.537 115.014 60.9228C115.006 60.9365 115.014 60.964 115.023 60.9833C115.031 60.9998 115.047 61.0135 115.083 61.0603C117.471 60.6532 119.877 60.4277 122.232 61.3546C122.27 61.2528 122.303 61.1978 122.314 61.1373C122.553 59.6686 122.834 58.2109 123.304 56.7972V56.7999ZM121.904 80.9842C121.706 79.6695 121.519 78.4208 121.324 77.1254C120.312 78.4126 119.322 79.6695 118.334 80.9265C118.326 80.9375 118.334 80.965 118.345 80.9815C118.353 81.0007 118.367 81.0172 118.397 81.0557C119.561 81.053 120.741 81.0915 121.904 80.9842ZM117.273 19.1222C118.373 15.8409 118.794 12.4827 118.408 9.03643C118.254 7.65297 117.949 6.30253 117.218 5.1006C116.238 3.49712 114.849 2.58948 112.899 2.73525C112.503 2.76551 112.105 2.79026 111.714 2.84802C108.336 3.33209 105.682 5.19962 103.179 7.30367C103.62 7.79049 104.046 8.19755 104.392 8.66237C104.78 9.17945 105.27 9.23446 105.831 9.13269C108.081 8.72563 110.289 8.18105 112.36 7.1689C112.696 7.00388 113.015 6.85536 113.262 6.53356C113.587 6.11275 114.082 6.03849 114.577 6.20351C115.05 6.36304 115.356 6.71784 115.397 7.21841C115.43 7.58972 115.402 7.97202 115.358 8.34333C115.24 9.29772 115.078 10.2466 114.962 11.2037C114.643 13.8249 114.431 16.4515 114.517 19.0947C114.522 19.2542 114.555 19.4109 114.577 19.5595C115.457 19.598 116.285 19.6365 117.113 19.675C117.171 19.477 117.218 19.2954 117.278 19.1194L117.273 19.1222ZM111.956 19.917C111.794 16.5918 112.11 13.3051 112.495 10.0513C110.625 10.5849 108.793 11.1102 106.904 11.6521C108.766 14.3667 109.618 17.3591 109.577 20.6514C110.416 20.3928 111.167 20.1618 111.956 19.917ZM110.375 74.265C110.509 74.1165 110.655 73.9734 110.795 73.8304C109.596 73.5581 108.447 73.3931 107.366 73.0301C105.031 72.2517 103.501 70.6675 102.981 68.2114C102.761 67.1772 102.75 66.132 102.874 65.0841C103.13 62.9361 103.628 60.8403 104.271 58.7802C104.64 57.6031 105.075 56.4479 105.512 55.1827C104.568 53.7112 103.622 52.1545 102.591 50.6583C101.562 49.1621 100.451 47.7263 99.3482 46.2274C95.4316 49.9954 91.5755 53.7277 87.3702 57.1217C89.7713 58.5684 91.7598 60.3865 93.5228 62.452C96.8893 66.3933 99.4994 70.7775 101.188 75.6897C102.165 78.5226 102.896 81.4243 103.565 84.3425C103.603 84.5075 103.666 84.667 103.749 84.9283C103.826 84.6698 103.875 84.5322 103.911 84.392C104.527 81.9606 105.586 79.7383 107.17 77.7993C108.177 76.5698 109.299 75.4367 110.372 74.2622L110.375 74.265ZM108.631 48.8018C108.499 48.7192 108.4 48.6477 108.292 48.5927C106.901 47.8721 105.999 46.7335 105.465 45.284C104.997 44.0133 104.761 42.7014 104.786 41.3454C104.786 41.2216 104.755 41.0951 104.753 41.0731C103.628 42.1925 102.492 43.323 101.326 44.4864C103.13 47.0195 104.981 49.6214 106.857 52.2535C107.437 51.1231 108.026 49.9789 108.631 48.8018ZM107.478 190.071C107.478 190.071 107.495 190.035 107.503 190.013C107.052 189.554 106.579 189.114 106.158 188.627C105.864 188.288 105.539 188.165 105.113 188.242C104.97 188.269 104.821 188.277 104.678 188.302C102.357 188.704 100.105 189.32 97.9895 190.382C97.8134 190.472 97.6787 190.643 97.5109 190.756C97.2579 190.929 97.0131 191.163 96.7298 191.229C95.9487 191.407 95.2501 190.846 95.2556 190.024C95.2583 189.358 95.3601 188.69 95.4563 188.027C95.9184 184.831 96.2347 181.627 96.1494 178.393C96.1439 178.211 96.1164 178.032 96.0999 177.842C95.2446 177.801 94.4332 177.763 93.5586 177.721C93.5036 177.903 93.454 178.082 93.3935 178.258C92.2906 181.539 91.8643 184.897 92.2494 188.346C92.4089 189.771 92.7197 191.163 93.4953 192.392C94.4882 193.965 95.8854 194.834 97.8024 194.664C98.5505 194.598 99.3069 194.521 100.036 194.345C102.924 193.643 105.281 191.996 107.476 190.076L107.478 190.071ZM109.736 152.566C107.55 150.253 105.696 147.635 103.972 144.81C103.295 146.136 102.662 147.371 102.019 148.636C104.181 149.618 105.171 151.4 105.6 153.548C105.787 154.483 105.847 155.44 105.949 156.288C107.159 155.099 108.433 153.848 109.736 152.566ZM102.764 92.6872C102.728 92.4369 102.72 92.3571 102.704 92.2774C101.89 88.7101 101.108 85.1346 100.245 81.5783C99.5737 78.8142 98.7431 76.0913 97.5631 73.4921C97.4724 73.2913 97.3679 73.0988 97.2689 72.898C97.2276 72.9118 97.1836 72.9228 97.1396 72.9338C97.4861 79.246 98.0802 85.5306 99.3784 91.8043C100.657 91.3587 101.7 91.8181 102.764 92.6817V92.6872ZM103.754 185.744C101.912 183.032 101.04 180.043 101.092 176.745C100.256 177.004 99.5049 177.235 98.7101 177.479C98.8696 180.805 98.5561 184.091 98.171 187.348C100.036 186.811 101.87 186.286 103.754 185.744ZM98.4268 34.8022C98.402 34.6757 98.391 34.5932 98.369 34.5162C97.6264 32.0298 96.8453 29.5544 96.1439 27.0543C95.1868 23.6438 93.8914 20.3901 91.8808 17.4554C89.3642 13.7809 86.0307 11.1487 81.7813 9.74053C78.8054 8.75314 75.8515 8.8604 72.9305 10.0293C71.3876 10.6482 69.9243 11.4128 68.5574 12.3507C65.2267 14.6335 62.402 17.4472 59.9184 20.6156C56.4611 25.0273 53.664 29.8267 51.3894 34.9397C49.7116 38.7133 48.1577 42.5336 47.184 46.5574C46.8402 47.9766 46.6449 49.4343 46.4167 50.8811C46.3176 51.5054 46.3754 52.138 46.6147 52.7376C46.8375 53.2987 47.0988 53.4334 47.6873 53.3564C48.2732 53.2794 48.771 53.0099 49.1891 52.6221C49.6649 52.182 50.1297 51.7227 50.5423 51.2249C51.7607 49.7534 52.8471 48.1774 53.6915 46.4639C55.5947 42.5941 57.5118 38.727 59.2775 34.794C61.3486 30.1815 62.7871 25.3381 64.2035 20.4946C64.3273 20.0738 64.451 19.6475 64.6463 19.2569C65.0231 18.4978 65.7712 18.2723 66.4919 18.7068C66.7614 18.8691 66.9842 18.8856 67.2565 18.7866C68.5161 18.33 69.7978 17.9312 71.03 17.4142C73.7419 16.2782 76.275 14.8013 78.7504 13.2225C79.0144 13.0548 79.2812 12.876 79.5728 12.7687C80.5382 12.4057 81.4595 13.1428 81.2835 14.1522C81.2285 14.4657 81.2588 14.7298 81.3688 15.0021C82.1251 16.8641 82.8595 18.7343 83.6544 20.5799C84.551 22.6647 85.7969 24.5625 86.9989 26.4767C88.8526 29.4252 90.8879 32.2416 93.3028 34.7664C93.5916 35.069 93.8666 35.3605 94.3287 35.4293C94.579 35.4651 94.81 35.6686 95.0438 35.8061C95.4343 36.0371 95.8222 36.2764 96.21 36.5102C96.9691 35.9271 97.6814 35.3825 98.4323 34.805L98.4268 34.8022ZM96.8921 112.127C97.2634 111.86 97.3294 111.591 97.2606 111.178C96.8453 108.675 96.6033 106.153 96.5482 103.615C96.4905 100.993 96.4987 98.3723 97.0516 95.7951C97.2194 95.014 97.2029 94.2714 97.0681 93.5096C96.6885 91.3862 96.3062 89.2657 95.9239 87.1424C95.8992 87.0049 95.8524 86.8728 95.8222 86.7573C95.2968 86.7573 94.8155 86.7491 94.3342 86.7573C91.1712 86.8233 88.0083 86.9718 84.8453 86.9416C78.6431 86.8838 72.4382 86.7958 66.2471 86.3585C63.6369 86.1742 61.024 85.9707 58.4194 85.6957C54.6486 85.2941 50.9136 84.6505 47.2033 83.8529C42.9154 82.9315 38.7045 81.7708 34.6559 80.0711C30.9456 78.5144 27.4664 76.5643 24.3309 74.034C21.9821 72.1389 20.0485 69.9111 18.9181 67.0644C18.9071 67.0342 18.8576 67.0177 18.7971 66.9764C18.6843 67.0397 18.5551 67.1029 18.4368 67.1855C17.5072 67.8318 16.572 68.4699 15.6561 69.13C11.2665 72.2902 7.85601 76.2755 5.54292 81.1768C4.47301 83.4458 3.68089 85.8002 3.47461 88.3168C3.07306 93.2098 4.62153 97.5527 7.42969 101.447C9.60801 104.467 12.4382 106.855 15.5929 108.824C20.8957 112.135 26.7348 114.003 32.8627 115.015C37.3981 115.763 41.983 116.027 46.5734 116.118C52.5033 116.239 58.4359 116.211 64.363 116.024C64.4868 116.019 64.6106 115.983 64.7536 115.958C64.7178 115.884 64.7123 115.859 64.6986 115.848C64.4896 115.711 64.2833 115.568 64.0687 115.439C61.4339 113.835 59.14 111.827 57.0525 109.569C54.0628 106.332 52.0522 102.564 50.9576 98.3035C50.6715 97.1814 50.5038 96.0454 50.7485 94.8848C51.1308 93.0777 52.3328 92.1096 54.1783 92.1206C55.0172 92.1261 55.8065 92.3379 56.5189 92.7532C57.3303 93.2263 58.1416 93.7186 58.876 94.3017C62.5945 97.2556 65.3257 100.966 67.2234 105.306C67.3142 105.512 67.4132 105.716 67.5012 105.903C67.5865 105.911 67.6278 105.925 67.6663 105.917C67.8093 105.884 67.9496 105.842 68.0926 105.804C71.7369 104.838 75.3564 104.957 78.9264 106.131C82.6945 107.369 85.5631 109.715 87.4417 113.233C87.6177 113.563 87.7745 113.904 87.9587 114.275C89.8565 114.124 91.6938 113.978 93.5311 113.838C93.8226 113.816 94.1307 113.769 94.4029 113.838C94.7165 113.918 94.9035 113.83 95.1235 113.629C95.6984 113.109 96.2677 112.575 96.8921 112.122V112.127ZM95.4866 84.1169C95.2858 82.0569 95.0548 80.1013 94.9118 78.1376C94.667 74.7518 94.4772 71.3633 94.2517 67.9776C94.2352 67.741 94.1471 67.4825 94.0124 67.29C92.7609 65.4747 91.3802 63.764 89.7905 62.232C88.3493 60.8458 86.7788 59.6383 84.9443 58.7417C84.6253 58.926 84.3035 59.1185 83.9789 59.3028C83.2996 59.6824 82.6065 60.0262 81.8308 60.1637C80.6922 60.3672 79.658 59.7979 79.2977 58.7005C79.1602 58.2742 79.1657 57.7983 79.13 57.3445C79.1134 57.1437 79.1547 56.9375 79.1685 56.7367C78.9842 56.6762 78.8467 56.6184 78.7064 56.5854C77.0286 56.2223 75.3591 55.818 73.6704 55.5127C69.7868 54.8141 65.8703 54.4043 61.9262 54.3356C58.4854 54.2751 55.0557 54.4593 51.6369 54.8444C50.8861 54.9297 50.1737 55.0617 49.4944 55.4577C48.7407 55.895 47.8689 56.0518 46.9997 55.9198C46.3561 55.8208 45.7401 55.8785 45.1432 56.0573C42.8191 56.7587 40.4978 57.471 38.1875 58.2191C32.7196 59.9932 27.4059 62.1412 22.3341 64.8614C21.9683 65.0566 21.6053 65.2629 21.1872 65.494C21.3082 65.8983 21.366 66.3026 21.542 66.6436C21.8968 67.3312 22.2764 68.0106 22.7109 68.6459C24.1191 70.706 26.0334 72.2352 28.0687 73.6214C32.0155 76.3085 36.3309 78.2201 40.8911 79.5898C47.6571 81.6223 54.5826 82.8435 61.6099 83.4431C65.9913 83.8171 70.3919 83.9987 74.7871 84.1884C77.7603 84.3177 80.7389 84.3617 83.7149 84.359C87.2766 84.3535 90.8384 84.26 94.4002 84.1994C94.7495 84.1939 95.1015 84.1472 95.4811 84.1169H95.4866ZM95.7176 136.397C94.4277 136.498 93.2258 136.625 92.0211 136.68C90.7834 136.735 89.5842 136.463 88.4126 136.056C88.3768 136.171 88.3548 136.232 88.341 136.289C88.0165 137.717 87.7057 139.147 87.3619 140.566C87.2904 140.863 87.4004 141.037 87.5654 141.24C88.4648 142.335 89.1359 143.559 89.62 144.887C89.8648 145.553 90.0848 146.227 90.3158 146.898L90.4341 146.933C91.9028 143.292 93.7153 139.818 95.7121 136.402L95.7176 136.397ZM94.0591 38.2017C93.7896 38.0944 93.6108 37.9762 93.421 37.9542C92.9562 37.9019 92.5849 37.6901 92.2714 37.3656C91.9661 37.052 91.6745 36.722 91.4188 36.4469C90.6679 36.9035 90.0215 37.3298 89.3449 37.7011C85.4476 39.8354 81.4238 41.703 77.3119 43.3835C72.551 45.3307 67.603 46.6729 62.6193 47.8914C60.2402 48.4745 57.8473 49.019 55.3857 49.1263C55.1244 49.1373 55.0364 49.3106 54.9209 49.4839C54.4313 50.2155 53.9418 50.9443 53.4522 51.6759C53.3862 51.7749 53.3339 51.8767 53.2212 52.0692C57.7868 51.7447 62.2562 51.6072 66.7284 52.017C71.217 52.4268 75.6644 53.0649 80.0623 54.2696C81.7318 51.1066 83.9844 48.3534 86.3278 45.6718C88.6711 42.9902 91.3032 40.6028 94.0619 38.199L94.0591 38.2017ZM89.2982 120.34C90.3048 119.044 91.251 117.829 92.2659 116.525C91.0447 116.621 89.9473 116.706 88.8169 116.794C88.9241 117.424 89.0286 117.977 89.1057 118.533C89.1827 119.102 89.2294 119.674 89.2982 120.34ZM88.2448 152.291C88.4538 149.83 87.9587 147.5 86.9961 145.25C86.0252 142.987 84.43 141.298 82.2544 140.156C80.7197 139.351 79.0887 138.831 77.3752 138.578C75.923 138.363 74.4625 138.283 72.87 138.635C73.0818 138.811 73.2028 138.919 73.3321 139.015C77.0314 141.812 80.0321 145.212 82.1554 149.343C82.6422 150.286 83.0108 151.296 83.3711 152.297C83.5773 152.872 83.5966 153.49 83.4261 154.095C83.2391 154.761 82.6367 155.179 82.0151 155.088C81.3605 154.992 80.8902 154.475 80.9342 153.765C80.9837 152.973 80.7087 152.286 80.4006 151.598C78.5854 147.58 75.8185 144.31 72.419 141.554C71.1648 140.536 69.7896 139.683 68.2631 139.114C67.3857 138.787 66.4753 138.655 65.5457 138.798C64.6848 138.93 64.209 139.419 64.077 140.28C64.044 140.486 64.0385 140.695 64.0357 140.905C64.022 141.694 63.6342 142.186 62.8943 142.456C62.3057 142.67 61.7171 142.899 61.1616 143.187C59.1015 144.255 57.256 145.627 55.5975 147.25C53.7932 149.018 52.6408 151.136 52.1705 153.622C51.8652 155.245 51.8762 156.851 52.6546 158.345C53.4907 159.951 54.6679 161.26 56.2466 162.206C57.7126 163.084 59.2528 163.766 60.8975 164.228C61.4696 164.387 62.0142 164.624 62.4625 164.011C62.4845 163.98 62.5313 163.967 62.5698 163.945C63.1831 163.612 63.879 163.73 64.2723 164.236C64.6738 164.753 64.6161 165.433 64.121 165.947C63.934 166.142 63.7167 166.315 63.5462 166.527C62.0142 168.4 60.2512 170.045 58.4387 171.635C55.526 174.19 52.341 176.346 48.7985 177.947C47.349 178.602 45.8996 179.264 44.3098 179.531C44.1586 179.556 44.0183 179.677 43.8835 179.768C43.1052 180.285 42.2113 180.001 41.8977 179.121C41.807 178.868 41.7575 178.593 41.73 178.324C41.4632 175.697 41.1964 173.073 40.9489 170.444C40.6216 166.959 40.187 163.488 39.4059 160.075C39.1693 159.041 38.798 158.031 38.3965 157.044C38.0307 156.136 37.3706 155.416 36.5895 154.827C35.9624 154.357 35.7946 154.403 35.4425 155.08C35.2775 155.396 35.1428 155.726 35.0162 156.056C34.1966 158.216 33.8803 160.471 33.7813 162.762C33.6933 164.797 33.8556 166.827 34.1636 168.838C34.5679 171.489 35.1125 174.116 36.0421 176.64C36.7215 178.489 37.7116 180.156 39.1391 181.539C39.9312 182.306 40.8443 182.821 41.9665 182.895C42.9539 182.961 43.9358 182.928 44.9039 182.7C47.019 182.202 49.0048 181.368 50.9163 180.356C55.79 177.771 59.7561 174.099 63.2601 169.899C64.2118 168.761 65.0479 167.523 65.9198 166.321C66.5386 165.466 67.4352 165.422 68.1311 166.214C68.2686 166.37 68.4886 166.503 68.6949 166.547C69.7263 166.775 70.7797 166.805 71.8221 166.67C75.8295 166.153 79.482 164.778 82.6505 162.195C84.1989 160.933 85.4916 159.478 86.4488 157.723C87.3784 156.018 88.088 154.241 88.253 152.28L88.2448 152.291ZM86.6908 121.811C86.7596 120.4 86.6551 119.006 86.3305 117.631C85.3816 113.623 83.0823 110.711 79.2867 109.025C76.7949 107.919 74.1737 107.622 71.4811 107.798C70.4359 107.867 69.4073 108.056 68.3951 108.419C68.4391 108.893 68.5216 109.308 68.5051 109.72C68.4804 110.304 68.0568 110.741 67.4957 110.854C66.9622 110.961 66.3928 110.68 66.1398 110.163C66.049 109.979 66.016 109.767 65.9528 109.566C65.6997 108.75 65.4907 107.911 65.1799 107.116C64.363 105.02 63.2766 103.059 61.9619 101.233C60.3474 98.9856 58.4167 97.0411 56.1201 95.4926C55.5947 95.1378 54.9649 94.893 54.3516 94.7225C53.7025 94.5465 53.3312 94.8298 53.2734 95.5036C53.2267 96.0372 53.2239 96.6038 53.3422 97.1236C53.906 99.6099 54.7614 101.995 56.1558 104.143C59.8276 109.795 64.8554 113.761 71.1923 116.057C74.2012 117.147 77.3009 117.655 80.5052 117.466C80.6289 117.457 80.7582 117.455 80.882 117.466C81.5476 117.523 82.0234 117.914 82.1471 118.5C82.2682 119.072 81.9821 119.638 81.355 119.905C81.0717 120.026 80.97 120.191 80.9535 120.464C80.9452 120.609 80.9342 120.755 80.926 120.904C80.7169 124.784 81.0112 128.646 81.3578 132.508C81.4953 134.045 81.9546 135.547 81.8171 137.057C82.953 137.659 84.0559 138.242 85.2056 138.853C85.3349 138.259 85.4559 137.667 85.5906 137.076C85.7887 136.212 85.7199 135.277 86.292 134.543C85.0928 132.981 84.683 131.633 85.0626 129.301C85.2936 127.881 85.8052 126.558 86.4268 125.268C86.5258 125.065 86.6826 124.823 86.6468 124.63C86.4735 123.684 86.6385 122.749 86.6826 121.811H86.6908ZM89.6255 34.5657C85.1533 28.9081 81.3633 22.9397 79.0474 16.0857C78.7916 16.2315 78.6129 16.3332 78.4314 16.4378C77.4302 17.0071 76.4401 17.5984 75.4279 18.1458C72.8068 19.5705 70.0729 20.7256 67.174 21.46C66.7009 21.581 66.4973 21.779 66.3516 22.2356C65.2899 25.5636 64.2448 28.8998 63.0924 32.1976C61.7722 35.9794 59.9706 39.5577 58.2379 43.1607C57.7318 44.2141 57.2175 45.2647 56.7087 46.3154C56.7389 46.3594 56.7692 46.4062 56.7994 46.4529C68.4171 44.4011 79.3692 40.5093 89.62 34.5657H89.6255ZM59.9514 166.673C59.0493 166.348 58.2269 166.051 57.3743 165.743C53.1166 168.953 48.76 172.025 43.9358 174.443C44.0156 175.268 44.0953 176.071 44.1833 176.979C47.3023 175.994 50.0939 174.572 52.7261 172.804C55.3582 171.035 57.7071 168.948 59.9514 166.673ZM54.8246 164.423C54.0985 163.862 53.4054 163.331 52.6821 162.773C49.7529 165.028 46.5982 166.912 43.3665 168.681C43.46 169.668 43.548 170.617 43.6497 171.69C47.6763 169.577 51.2931 167.075 54.8246 164.423ZM44.1613 53.6012C43.7405 52.3663 43.79 51.1176 43.8918 49.8827C43.394 49.8827 42.9566 49.9047 42.5221 49.8772C40.5913 49.7672 38.6935 49.4674 36.8425 48.8953C35.272 48.4085 33.9793 47.5256 33.0029 46.1971C32.2906 45.229 31.7405 44.1756 31.3747 43.0259C30.9594 41.7167 30.7696 40.3773 30.8329 38.8315C30.4891 39.0626 30.2608 39.2001 30.049 39.3596C26.842 41.7882 23.9706 44.5606 21.4898 47.7291C15.5681 55.2927 10.9805 63.5989 7.66073 72.612C7.60572 72.7605 7.56996 72.9173 7.52596 73.0686C7.70748 73.0163 7.79275 72.898 7.88901 72.788C9.51175 70.9095 11.3188 69.2318 13.2771 67.708C17.1661 64.6826 21.4182 62.2732 25.8904 60.2214C31.5947 57.6058 37.5329 55.6393 43.5205 53.8047C43.7158 53.7442 43.911 53.681 44.1641 53.6012H44.1613ZM32.9589 175.617C32.6894 174.495 32.4254 173.406 32.1723 172.347C31.658 172.399 31.2454 172.482 30.8356 172.474C29.9555 172.457 29.0781 172.386 28.198 172.364C27.9587 172.358 27.7029 172.405 27.4829 172.496C26.8283 172.765 26.3332 172.666 25.8326 172.157C25.4146 171.734 25.1698 171.217 24.8865 170.702C23.5608 168.296 22.4276 165.798 21.2752 163.309C19.724 159.959 17.972 156.717 15.9229 153.644C15.3206 152.742 14.6165 151.906 13.9096 151.081C13.6319 150.759 13.2358 150.52 12.8562 150.305C12.5124 150.11 12.2594 150.184 12.0449 150.52C11.8331 150.853 11.6543 151.213 11.514 151.582C10.6477 153.873 10.5487 156.246 10.8264 158.645C11.1207 161.208 11.9156 163.639 13.0598 165.939C14.6468 169.126 16.9378 171.701 20.0623 173.461C22.4304 174.795 24.9883 175.565 27.7084 175.733C29.4439 175.84 31.1794 175.788 32.9617 175.615L32.9589 175.617Z" fill="black"/>
<path d="M202.582 107.782C204.045 110.857 204.133 113.99 203.234 117.21C202.07 121.372 199.867 124.947 197.032 128.16C193.99 131.609 190.345 134.301 186.341 136.521C183.92 137.86 181.418 139.035 178.818 139.992C178.585 140.077 178.351 140.154 178.032 140.261C178.134 139.739 178.227 139.299 178.301 138.853C178.752 136.158 178.348 133.592 177.031 131.196C174.951 127.425 172.055 124.441 168.356 122.224C163.983 119.603 159.266 117.876 154.296 116.803C150.61 116.008 146.905 115.293 143.165 114.839C140.255 114.485 137.331 114.243 134.408 114.017C130.31 113.701 126.2 113.66 122.094 113.811C119.709 113.899 117.325 114.086 114.943 114.24C113.584 114.331 112.226 114.446 110.87 114.551C110.768 114.559 110.666 114.551 110.504 114.551C109.53 111.55 108.851 108.503 108.59 105.287C108.829 105.386 108.994 105.452 109.162 105.521C110.314 106.008 111.497 105.777 112.289 104.812C112.666 104.352 112.96 103.797 113.175 103.238C113.705 101.858 113.892 100.4 114.002 98.9367C114.321 94.6763 114.09 90.4379 113.406 86.2243C113.34 85.8145 113.4 85.5422 113.774 85.2754C114.368 84.8518 114.905 84.343 115.452 83.8562C115.644 83.6829 115.826 83.5647 116.109 83.5674C118.288 83.5839 120.469 83.5784 122.647 83.5811C122.729 83.5811 122.812 83.5977 122.905 83.6059C122.971 83.7159 123.04 83.8177 123.098 83.9277C125.032 87.6903 128.071 90.1409 132.084 91.3758C135.544 92.4402 139.048 92.5255 142.56 91.5986C142.739 91.5518 142.923 91.5078 143.143 91.4528C143.245 91.6701 143.346 91.8709 143.437 92.0771C145.228 96.1725 147.769 99.715 151.191 102.614C152.087 103.373 153.022 104.08 154.073 104.616C154.807 104.993 155.572 105.252 156.411 105.274C158.306 105.318 159.552 104.319 159.923 102.46C160.151 101.319 159.989 100.205 159.709 99.1017C158.614 94.8165 156.587 91.0347 153.578 87.7865C151.562 85.6109 149.351 83.6609 146.82 82.0932C146.702 82.0189 146.592 81.9282 146.476 81.8456C146.49 81.8016 146.501 81.7576 146.512 81.7136C147.849 81.8126 149.186 81.8897 150.519 82.0189C154.068 82.36 157.594 82.866 161.073 83.6197C168.29 85.1819 175.367 87.2062 182.069 90.3774C185.615 92.0551 189.039 93.9529 192.202 96.2908C194.089 97.688 195.874 99.2144 197.554 100.856C199.625 102.878 201.333 105.153 202.585 107.782H202.582Z" fill="#7A8125"/>
<path d="M198.764 34.2357C199.653 36.8899 200.134 39.5853 199.908 42.3879C199.804 43.6916 199.493 44.9486 199.017 46.1642C199.001 46.2027 198.984 46.2412 198.968 46.2797C198.484 47.3414 198.068 47.4679 197.177 46.6896C196.569 46.156 195.989 45.5536 195.532 44.8853C194.507 43.3808 193.533 41.8378 192.598 40.2756C190.959 37.5417 189.655 34.6345 188.296 31.7549C187.501 30.0689 186.616 28.4296 185.799 26.7546C185.532 26.2073 185.273 25.6765 184.831 25.2392C184.322 24.7386 183.835 24.6313 183.18 24.9009C182.96 24.9916 182.702 25.0384 182.465 25.0329C181.585 25.0081 180.708 24.9366 179.828 24.9229C179.415 24.9174 179.003 24.9999 178.488 25.0521C178.232 23.9932 177.968 22.9041 177.699 21.7819C179.454 21.6169 181.167 21.5536 182.883 21.6609C185.846 21.8424 188.596 22.7308 191.135 24.2518C191.814 24.6588 192.463 25.1346 193.063 25.6517C195.755 27.9813 197.628 30.8555 198.761 34.2357H198.764Z" fill="#F96969"/>
<path d="M188.915 138.126C188.838 138.234 188.772 138.349 188.684 138.445C185.277 142.37 181.874 146.298 178.076 149.859C177.804 150.115 177.521 150.36 177.232 150.619C177.124 150.525 177.042 150.465 176.97 150.39C176.057 149.45 174.954 148.828 173.703 148.471C171.519 147.846 169.302 147.42 167.014 147.566C166.956 147.568 166.896 147.546 166.819 147.535V145.148C174.784 144.645 182.037 142.021 188.915 138.124V138.126Z" fill="#B4BD57"/>
<path d="M176.673 154.687C177.421 156.593 177.383 158.526 176.954 160.493C176.349 163.276 175.152 165.804 173.62 168.175C169.712 174.223 164.745 179.226 158.727 183.195C151.447 188 143.501 191.143 134.969 192.876C131.691 193.542 128.39 193.949 125.046 193.831C120.628 193.677 116.412 192.692 112.561 190.45C109.88 188.891 107.641 186.82 105.87 184.27C104.25 181.938 103.537 179.33 103.702 176.489C103.719 176.22 103.777 175.95 103.821 175.683C103.876 175.356 104.043 175.111 104.338 174.938C104.643 174.757 104.935 174.548 105.221 174.338C105.388 174.217 105.556 174.083 105.688 173.923C106.057 173.48 106.079 172.862 105.765 172.405C105.435 171.924 104.827 171.728 104.264 171.957C104.016 172.058 103.782 172.21 103.562 172.366C101.884 173.541 100.108 174.482 98.0889 174.952C94.9259 175.686 91.9995 175.073 89.4553 173.159C86.991 171.305 85.5855 168.739 85.36 165.609C85.3325 165.218 85.4315 164.819 85.47 164.426C85.5058 164.074 85.5278 163.719 85.5828 163.37C85.6103 163.199 85.6543 162.99 85.7698 162.88C86.9442 161.747 87.8628 160.43 88.6577 159.019C88.688 158.966 88.7375 158.925 88.8062 158.848C89.04 159.517 89.2436 160.13 89.4773 160.732C89.5764 160.983 89.7111 161.23 89.8816 161.434C90.2722 161.901 90.8965 162.008 91.4191 161.736C91.9334 161.467 92.1892 160.886 92.0462 160.295C92.016 160.174 91.9747 160.053 91.9252 159.94C91.1001 158.04 90.9763 156.048 91.1908 154.021C91.4851 151.238 92.4588 148.655 93.5782 146.117C95.1377 142.585 96.9612 139.194 99.0075 135.924C99.1973 135.618 99.4118 135.415 99.7776 135.357C100.025 135.319 100.264 135.231 100.504 135.154C101.285 134.9 101.686 134.265 101.499 133.583C101.304 132.865 100.619 132.491 99.8051 132.689C99.0322 132.873 98.2649 133.091 97.4975 133.297C95.9573 133.715 94.3813 133.949 92.7971 134.1C91.8702 134.188 90.9516 134.103 90.0549 133.869C88.2177 133.39 87.2963 131.977 87.5438 130.096C87.7116 128.833 88.1269 127.653 88.688 126.52C90.9103 122.034 93.933 118.159 97.6433 114.806C97.734 114.724 97.8386 114.655 97.9596 114.564C98.0696 114.682 98.1576 114.792 98.2649 114.886C98.6747 115.26 99.1423 115.373 99.6566 115.136C100.165 114.902 100.407 114.479 100.405 113.929C100.405 113.703 100.347 113.472 100.295 113.249C99.2303 108.62 98.958 103.928 99.1945 99.2002C99.2578 97.902 99.4118 96.6121 99.7968 95.3607C99.9179 94.9646 100.02 94.5521 100.363 94.2495C100.845 94.321 101.158 94.6456 101.403 94.9949C101.747 95.4899 102.06 96.018 102.316 96.5626C103.02 98.0726 103.375 99.6898 103.757 101.302C104.266 103.447 104.585 105.62 104.687 107.823C104.88 112.045 103.526 115.719 100.762 118.907C98.771 121.203 96.5019 123.175 93.9632 124.837C93.4214 125.192 92.8713 125.541 92.3268 125.896C92.1507 126.008 91.9692 126.118 91.8124 126.256C91.3119 126.696 91.2018 127.375 91.5291 127.903C91.8592 128.437 92.5055 128.638 93.1271 128.382C93.3389 128.294 93.5424 128.181 93.735 128.055C94.5931 127.491 95.4485 126.922 96.2956 126.344C96.5651 126.16 96.7852 126.019 97.1482 126.187C97.393 126.3 97.723 126.27 98.0118 126.245C99.4723 126.118 100.903 126.3 102.297 126.726C104.057 127.263 105.078 128.423 105.251 130.296C105.369 131.589 105.141 132.843 104.896 134.097C104.093 138.204 102.536 142.032 100.622 145.732C99.9179 147.093 99.1753 148.421 98.1329 149.566C97.6158 150.132 97.6543 150.902 98.1521 151.375C98.6582 151.859 99.3733 151.84 99.9701 151.329C100.641 150.751 100.658 150.754 101.4 151.205C101.994 151.568 102.41 152.077 102.677 152.715C103.345 154.31 103.485 155.955 103.139 157.644C103.004 158.301 102.809 158.942 102.666 159.596C102.602 159.88 102.556 160.179 102.583 160.465C102.671 161.384 103.576 161.937 104.423 161.571C104.759 161.428 105.075 161.186 105.336 160.928C105.93 160.336 106.467 159.69 107.052 159.09C112.185 153.848 117.419 148.713 122.952 143.889C124.407 142.618 125.989 141.518 127.645 140.522C128.035 140.289 128.445 140.088 128.88 139.854C129.003 140.214 128.858 140.462 128.783 140.707C128.363 142.063 127.617 143.256 126.833 144.42C125.304 146.68 123.58 148.793 121.723 150.787C117.955 154.833 113.794 158.438 109.2 161.527C107.968 162.355 106.665 163.081 105.355 163.788C104.041 164.5 102.624 164.951 101.131 165.141C99.6896 165.325 98.8672 164.819 98.3969 163.43C98.0338 162.366 97.9156 161.258 97.9458 160.146C98.0036 158.026 98.2099 155.925 98.9195 153.903C98.9552 153.804 98.9855 153.705 99.0047 153.6C99.1203 153.012 98.837 152.432 98.3171 152.184C97.7726 151.925 97.1015 152.077 96.7577 152.599C96.5541 152.907 96.3864 153.268 96.3038 153.625C96.0398 154.786 95.7675 155.952 95.5942 157.129C95.3412 158.876 95.2504 160.639 95.5392 162.388C95.6767 163.23 95.883 164.079 96.2103 164.863C97.0079 166.786 98.6472 167.795 100.724 167.732C102.644 167.674 104.437 167.102 106.139 166.263C107.245 165.719 108.301 165.067 109.377 164.459C109.558 164.357 109.737 164.253 109.979 164.115C110.078 164.379 110.174 164.605 110.243 164.839C110.875 166.987 111.527 169.129 112.127 171.288C113.065 174.66 114.382 177.859 116.283 180.81C119.102 185.186 122.93 188.305 127.859 190.021C129.732 190.673 131.677 190.967 133.671 190.874C136.017 190.767 138.195 190.06 140.291 189.059C143.468 187.54 146.177 185.373 148.691 182.945C151.587 180.147 154.01 176.962 156.18 173.593C160.429 167 163.562 159.891 165.763 152.368C165.955 151.705 166.104 151.032 166.28 150.333C167.074 150.017 167.919 150.033 168.738 150.138C170.004 150.3 171.261 150.528 172.509 150.79C174.671 151.243 175.909 152.715 176.682 154.679L176.673 154.687Z" fill="#F96969"/>
<path d="M176.511 28.6106C176.813 30.6019 176.97 32.6097 176.887 34.623C176.791 36.9141 176.475 39.1694 175.655 41.3285C175.523 41.6805 175.375 42.0298 175.199 42.3599C174.871 42.976 174.715 43.02 174.134 42.6019C173.375 42.0573 172.784 41.3532 172.347 40.5254C171.813 39.516 171.497 38.4295 171.252 37.3239C170.501 33.9024 170.047 30.4369 169.72 26.9521C169.472 24.3255 169.206 21.6988 168.939 19.0722C168.911 18.8027 168.862 18.5304 168.771 18.2746C168.457 17.3917 167.566 17.1084 166.788 17.6227C166.653 17.7135 166.513 17.829 166.359 17.8565C164.5 18.1893 162.808 18.9842 161.13 19.7901C157.706 21.4348 154.623 23.5911 151.807 26.1297C150.14 27.6315 148.503 29.1634 147.081 30.9099C146.925 31.1025 146.721 31.2592 146.548 31.4408C146.05 31.9551 145.992 32.6317 146.394 33.1515C146.773 33.6438 147.436 33.7731 148.038 33.4733C148.093 33.4458 148.165 33.4266 148.201 33.3798C148.652 32.7775 149.191 32.9975 149.768 33.1598C151.457 33.6301 153.033 34.3342 154.527 35.2473C156.075 36.1935 157.228 37.5027 158.039 39.1006C158.801 40.6024 158.795 42.2058 158.484 43.8286C158.006 46.3149 156.837 48.4218 155.03 50.1848C153.382 51.7882 151.553 53.1469 149.513 54.2031C148.957 54.4891 148.366 54.7174 147.777 54.9347C147.043 55.2043 146.644 55.6938 146.636 56.4859C146.636 56.5272 146.636 56.5712 146.636 56.6125C146.619 58.0839 145.86 58.7 144.314 58.656C143.2 58.6258 142.183 58.2627 141.206 57.7511C139.237 56.7225 137.515 55.3693 135.953 53.8015C133.566 51.4059 131.553 48.7491 130.197 45.6301C129.919 44.992 129.696 44.3567 129.737 43.6333C129.776 42.9155 129.316 42.4011 128.659 42.3104C128.024 42.2196 127.435 42.6267 127.245 43.2978C127.075 43.9001 127.094 44.5217 127.3 45.0965C127.661 46.0977 128.029 47.1071 128.516 48.0505C130.642 52.1843 133.643 55.5811 137.339 58.381C137.469 58.4772 137.587 58.5845 137.81 58.7688C135.915 59.1538 134.171 59.0081 132.435 58.6643C131.093 58.3975 129.809 57.9464 128.588 57.3303C126.247 56.1504 124.569 54.3516 123.576 51.9203C122.685 49.7365 122.223 47.4839 122.427 45.1103C122.597 43.1272 123.323 41.3367 124.258 39.6095C125.799 36.7628 128.186 34.788 130.936 33.2203C133.406 31.8148 136.102 31.0475 138.915 30.7064C139.939 30.5826 140.97 30.6129 141.979 30.8357C142.183 30.8797 142.406 31.009 142.543 31.1657C143.239 31.9606 144.136 31.9221 144.754 31.0695C145.64 29.8483 146.487 28.5969 147.453 27.4417C150.948 23.2638 154.901 19.6085 159.755 17.0314C161.702 15.9973 163.727 15.1474 165.889 14.6578C166.793 14.4543 167.715 14.4213 168.639 14.479C169.786 14.5505 170.721 15.0539 171.53 15.8405C172.957 17.2239 173.95 18.8907 174.629 20.739C175.564 23.2831 176.112 25.929 176.516 28.6051L176.511 28.6106ZM155.476 45.4513C155.737 43.295 154.133 41.7273 151.985 42.0601C151.493 42.1371 150.995 42.2526 150.53 42.4314C147.871 43.4545 145.593 45.0718 143.547 47.0301C143.297 47.2693 143.082 47.5774 142.939 47.8909C142.719 48.3722 142.884 48.9196 143.269 49.2634C143.643 49.5934 144.224 49.6759 144.677 49.4312C144.859 49.3349 145.027 49.1974 145.17 49.0489C146.562 47.5994 148.198 46.4745 149.947 45.5118C150.459 45.2285 151.006 45.0085 151.551 44.794C151.939 44.6427 152.348 44.5354 152.827 44.684C153.022 45.3083 152.827 45.8501 152.516 46.3177C152.021 47.0658 151.454 47.7672 150.915 48.485C150.778 48.6693 150.61 48.8371 150.506 49.0378C150.275 49.4862 150.321 49.9345 150.618 50.3415C150.902 50.7293 151.3 50.8751 151.776 50.8311C152.178 50.7954 152.483 50.5781 152.742 50.2948C153.537 49.4284 154.276 48.5208 154.832 47.4784C155.17 46.843 155.388 46.1664 155.473 45.4541L155.476 45.4513ZM144.213 42.2939C144.257 40.8306 143.599 39.7717 142.433 39.0071C141.578 38.446 140.623 38.27 139.608 38.3828C137.295 38.6441 135.376 39.7662 133.591 41.1607C133.016 41.609 132.942 42.3681 133.332 42.9044C133.723 43.4435 134.446 43.5865 135.07 43.2097C135.535 42.9292 135.953 42.5634 136.429 42.3049C137.18 41.9006 137.944 41.5017 138.739 41.1992C139.215 41.0177 139.763 40.9517 140.277 40.9544C141.281 40.9599 141.845 41.7465 141.581 42.7009C141.493 43.02 141.369 43.3473 141.182 43.6141C140.601 44.4309 139.983 45.2203 139.38 46.0234C139.218 46.2407 139.025 46.4442 138.907 46.6835C138.684 47.1346 138.742 47.5829 139.053 47.9817C139.366 48.3833 139.798 48.5428 140.28 48.4163C140.549 48.3447 140.841 48.2017 141.03 48.0037C142.106 46.8815 143.077 45.6769 143.753 44.2631C144.056 43.6333 144.232 42.9677 144.213 42.2939Z" fill="#F96969"/>
<path d="M167.011 25.7095C167.11 26.7684 167.201 27.72 167.294 28.7184C164.073 30.4869 160.916 32.3627 157.981 34.6263C157.261 34.0734 156.57 33.5454 155.833 32.9788C159.362 30.3219 162.982 27.83 167.008 25.7095H167.011Z" fill="#F96969"/>
<path d="M164.15 144.987C164.255 145.493 164.31 146.037 164.236 146.543C164.032 147.971 163.831 149.406 163.49 150.806C162.442 155.094 160.77 159.159 158.949 163.167C156.749 168.013 154.045 172.554 150.767 176.751C148.275 179.944 145.434 182.769 142.084 185.063C140.799 185.94 139.435 186.661 138 187.266C134.839 188.594 131.646 188.679 128.439 187.513C124.393 186.045 121.178 183.481 118.769 179.919C117.165 177.543 115.925 174.988 115.105 172.238C114.156 169.05 113.227 165.854 112.261 162.575C112.974 162.028 113.702 161.47 114.459 160.887C114.858 161.131 115.24 161.382 115.639 161.602C115.947 161.772 116.282 161.891 116.593 162.056C116.791 162.157 117 162.267 117.149 162.427C117.875 163.211 118.617 163.981 119.291 164.811C122.11 168.285 124.586 172.001 126.591 176C127.639 178.09 128.428 180.31 129.314 182.48C129.402 182.692 129.393 182.964 129.366 183.201C129.303 183.698 129.415 184.122 129.809 184.441C130.221 184.777 130.694 184.804 131.17 184.598C131.437 184.482 131.687 184.323 131.932 184.163C134.498 182.53 137.125 181.006 139.941 179.851C141.063 179.391 142.227 179.037 143.368 178.621C143.663 178.514 143.899 178.525 144.188 178.701C144.854 179.108 145.588 178.913 145.959 178.225C146.176 177.826 146.319 177.378 146.446 176.938C147.736 172.493 149.095 168.068 150.869 163.788C152.722 159.319 154.837 154.968 157.09 150.685C157.951 149.052 158.982 147.52 160.168 146.103C160.556 145.638 160.976 145.19 161.441 144.805C161.788 144.516 162.2 144.269 162.627 144.12C163.482 143.823 163.963 144.095 164.145 144.978L164.15 144.987Z" fill="#F96969"/>
<path d="M157.311 100.248C157.426 100.77 157.434 101.331 157.39 101.868C157.333 102.577 156.981 102.806 156.271 102.69C156.046 102.654 155.817 102.588 155.614 102.489C155.201 102.289 154.772 102.099 154.404 101.832C149.733 98.4738 146.623 93.9934 144.882 88.5366C144.755 88.1405 144.703 87.717 144.554 87.3264C144.34 86.7571 143.751 86.4435 143.196 86.5426C142.61 86.6471 142.192 87.1009 142.148 87.7115C142.131 87.9178 142.159 88.1295 142.186 88.3358C142.211 88.5201 142.26 88.7044 142.313 88.9574C141.303 89.3425 140.294 89.5267 139.276 89.5955C136.523 89.788 133.836 89.491 131.292 88.3386C127.535 86.6361 125.26 83.7289 124.328 79.7436C123.981 78.2638 123.902 76.7649 123.99 75.2467C124.039 74.4353 123.987 73.6212 124.012 72.807C124.017 72.5898 124.119 72.367 124.218 72.1662C124.864 70.8212 125.384 69.435 125.621 67.9526C125.912 66.1318 125.648 64.4486 124.441 62.9854C124.413 62.9551 124.405 62.9111 124.369 62.8258C124.817 62.3363 124.831 61.6734 124.949 61.0408C125.103 60.2212 125.268 59.4016 125.445 58.5022C126.063 58.8625 126.602 59.198 127.164 59.4951C127.714 59.7866 128.288 60.0369 128.877 60.3175C128.682 61.3434 128.979 62.3198 129.105 63.3099C129.49 66.3243 129.716 69.3525 129.768 72.3917C129.793 73.8137 129.741 75.2384 129.724 76.6631C129.719 77.0757 129.661 77.4057 129.163 77.579C128.671 77.755 128.464 78.2253 128.492 78.7534C128.517 79.2622 128.866 79.7078 129.38 79.8536C129.636 79.9251 129.917 79.9526 130.186 79.9388C134.584 79.7023 138.715 80.7309 142.626 82.6672C146.702 84.686 150.154 87.5079 152.984 91.0752C155.146 93.7981 156.557 96.8758 157.313 100.256L157.311 100.248Z" fill="#F96969"/>
<path d="M155.874 146.515C156.095 146.507 156.317 146.515 156.625 146.515C156.268 147.082 155.954 147.596 155.619 148.094C155.561 148.182 155.418 148.254 155.311 148.259C151.103 148.556 147.084 149.755 143.03 150.812C136.594 152.484 130.502 155.039 124.567 157.998C123.422 158.568 122.295 159.17 121.175 159.783C120.554 160.124 119.962 160.521 119.311 160.919C118.917 160.548 118.56 160.116 118.111 159.822C117.693 159.55 117.179 159.423 116.615 159.198C116.835 158.997 116.992 158.846 117.157 158.703C121.266 155.19 125.009 151.334 128.192 146.953C129.215 145.545 130.175 144.095 130.865 142.486C130.898 142.415 130.95 142.351 131.005 142.266C131.099 142.299 131.179 142.316 131.25 142.351C134.597 143.971 138.159 144.907 141.79 145.569C145.86 146.312 149.972 146.639 154.111 146.587C154.697 146.579 155.283 146.537 155.869 146.515H155.874Z" fill="#B4BD57"/>
<path d="M151.986 42.0605C154.134 41.7277 155.74 43.2954 155.476 45.4517C155.388 46.1641 155.174 46.8407 154.835 47.476C154.28 48.5184 153.54 49.4261 152.745 50.2925C152.486 50.5757 152.181 50.793 151.78 50.8288C151.307 50.8728 150.905 50.727 150.622 50.3392C150.325 49.9321 150.278 49.4838 150.509 49.0355C150.613 48.8347 150.781 48.667 150.919 48.4827C151.455 47.7621 152.024 47.0635 152.519 46.3154C152.827 45.8478 153.026 45.306 152.83 44.6816C152.352 44.5331 151.942 44.6404 151.554 44.7916C151.009 45.0062 150.462 45.229 149.951 45.5095C148.201 46.4721 146.565 47.5971 145.173 49.0465C145.03 49.195 144.862 49.3326 144.681 49.4288C144.224 49.6736 143.647 49.5939 143.273 49.2611C142.888 48.92 142.723 48.3699 142.943 47.8886C143.086 47.5723 143.3 47.267 143.55 47.0277C145.594 45.0694 147.871 43.4522 150.534 42.4291C150.998 42.2503 151.496 42.132 151.989 42.0577L151.986 42.0605Z" fill="black"/>
<path d="M154.015 150.944C153.878 151.238 153.793 151.425 153.702 151.609C151.818 155.512 149.854 159.376 148.248 163.408C146.721 167.243 145.459 171.17 144.315 175.133C144.175 175.618 143.954 175.824 143.457 175.95C140.516 176.696 137.75 177.881 135.093 179.328C133.954 179.947 132.835 180.604 131.644 181.278C130.343 177.961 129.001 174.685 127.136 171.638C125.285 168.612 123.31 165.686 121.005 162.812C127.32 159.288 133.767 156.252 140.632 154.178C144.991 152.863 149.384 151.631 154.013 150.941L154.015 150.944Z" fill="#F96969"/>
<path d="M142.433 39.01C143.599 39.7718 144.257 40.8307 144.213 42.2967C144.235 42.9705 144.056 43.6334 143.753 44.266C143.077 45.6797 142.106 46.8844 141.031 48.0065C140.841 48.2046 140.549 48.3503 140.28 48.4191C139.798 48.5456 139.364 48.3861 139.053 47.9845C138.742 47.5885 138.682 47.1374 138.907 46.6863C139.025 46.447 139.218 46.2435 139.38 46.0262C139.983 45.2259 140.601 44.4338 141.182 43.6169C141.369 43.3501 141.493 43.02 141.581 42.7037C141.847 41.7466 141.281 40.9627 140.277 40.9572C139.763 40.9572 139.215 41.0205 138.739 41.202C137.945 41.5073 137.18 41.9034 136.429 42.3077C135.953 42.5635 135.538 42.932 135.07 43.2126C134.443 43.5894 133.723 43.4491 133.332 42.9073C132.942 42.3682 133.016 41.6091 133.591 41.1635C135.376 39.7691 137.295 38.6469 139.609 38.3856C140.623 38.2728 141.578 38.4489 142.433 39.01Z" fill="black"/>
<path d="M125.301 31.7992C125.331 32.2282 125.216 32.6683 125.164 33.1056C125.136 33.3339 125.054 33.5677 125.084 33.7877C125.142 34.1838 124.999 34.4478 124.715 34.7173C123.687 35.691 122.892 36.8461 122.185 38.0646C122.111 38.1911 122.037 38.3176 121.957 38.4414C121.935 38.4744 121.893 38.4909 121.83 38.5404C121.778 38.3754 121.731 38.2214 121.679 38.0728C121.473 37.5035 121.299 36.9177 121.046 36.3703C120.689 35.6057 119.946 35.3252 119.283 35.6387C118.645 35.9413 118.395 36.6564 118.722 37.4127C119.567 39.3793 119.685 41.4228 119.457 43.5159C119.27 45.2129 118.808 46.8411 118.227 48.4419C117.372 50.8099 116.34 53.101 115.144 55.3124C114.03 57.3752 112.825 59.3885 111.681 61.4348C111.478 61.7978 111.208 61.9903 110.809 62.0646C110.543 62.1141 110.279 62.1911 110.023 62.2846C109.36 62.5322 109.002 63.151 109.148 63.7671C109.297 64.4052 109.86 64.8068 110.562 64.7462C110.829 64.7215 111.095 64.6445 111.357 64.5702C113.436 63.9761 115.535 63.5031 117.694 63.3105C118.645 63.2253 119.58 63.2803 120.502 63.5003C122.411 63.9514 123.373 65.3816 123.115 67.3151C122.963 68.4483 122.617 69.5237 122.127 70.5468C119.902 75.1785 116.811 79.1584 113.007 82.5964C112.916 82.6789 112.806 82.7421 112.693 82.8246C112.597 82.7174 112.52 82.6211 112.432 82.5359C112.003 82.1233 111.483 82.0243 110.988 82.2553C110.496 82.4836 110.191 83.0227 110.265 83.603C110.309 83.9551 110.408 84.2989 110.485 84.6482C111.379 88.8095 111.654 93.0204 111.513 97.267C111.464 98.755 111.34 100.237 110.966 101.684C110.831 102.204 110.721 102.746 110.298 103.15C109.792 103.046 109.464 102.707 109.211 102.333C108.876 101.833 108.568 101.302 108.318 100.755C107.63 99.2611 107.275 97.6658 106.907 96.0733C106.332 93.598 105.958 91.0951 105.974 88.5455C105.996 85.278 106.984 82.3213 108.945 79.7084C110.897 77.1066 113.243 74.9035 115.942 73.0827C116.742 72.5436 117.551 72.0211 118.351 71.4875C118.56 71.3472 118.777 71.2124 118.953 71.0364C119.377 70.6101 119.437 69.9583 119.127 69.4742C118.813 68.9819 118.213 68.7673 117.641 68.9709C117.408 69.0534 117.182 69.1771 116.973 69.3119C116.115 69.873 115.26 70.4396 114.412 71.0199C114.126 71.2152 113.89 71.3747 113.502 71.1959C113.257 71.0832 112.924 71.1217 112.638 71.1437C111.156 71.2647 109.704 71.0887 108.296 70.6376C106.596 70.0958 105.603 68.9516 105.424 67.1336C105.295 65.8189 105.531 64.5455 105.782 63.2693C106.579 59.1849 108.111 55.3646 110.042 51.6983C110.559 50.7192 111.142 49.773 111.728 48.8324C111.959 48.4639 112.284 48.1531 112.559 47.8093C113.021 47.2317 113.015 46.5138 112.553 46.038C112.064 45.5347 111.335 45.5319 110.738 46.027C110.705 46.0545 110.675 46.082 110.644 46.1123C110.083 46.6266 110.075 46.6238 109.42 46.2635C108.749 45.895 108.285 45.3531 107.99 44.6518C107.231 42.842 107.198 40.9883 107.668 39.107C107.781 38.6587 107.913 38.2186 108.018 37.7703C108.07 37.5475 108.111 37.3165 108.106 37.0882C108.084 35.9853 107.03 35.3582 106.065 35.8945C105.724 36.0843 105.421 36.3648 105.149 36.6481C104.508 37.311 103.911 38.0178 103.265 38.6724C98.5013 43.5104 93.6496 48.2603 88.5696 52.7682C86.8561 54.2892 85.0326 55.6589 83.0715 56.8416C82.714 57.0561 82.3344 57.2404 81.9631 57.4302C81.9164 57.4549 81.8449 57.4329 81.7128 57.4329C81.8559 56.605 82.1502 55.8927 82.505 55.2051C83.3521 53.5576 84.4385 52.0696 85.5662 50.6092C88.8446 46.3791 92.6457 42.677 96.8016 39.316C99.3512 37.256 102.008 35.3692 104.899 33.8125C106.37 33.0203 107.908 32.4483 109.574 32.2447C110.994 32.0687 111.811 32.561 112.27 33.917C112.693 35.1629 112.792 36.4583 112.724 37.7648C112.622 39.7341 112.394 41.6869 111.742 43.5681C111.486 44.308 111.797 44.9873 112.44 45.2349C113.092 45.4879 113.824 45.2239 114.091 44.4978C114.421 43.5984 114.679 42.6633 114.863 41.7226C115.216 39.9514 115.35 38.1526 115.279 36.3456C115.229 35.1051 115.045 33.884 114.572 32.726C113.898 31.0758 112.732 29.9866 110.936 29.6979C109.844 29.5218 108.76 29.7061 107.699 29.9701C106.167 30.3497 104.714 30.941 103.345 31.7332C102.478 32.2337 101.612 32.737 100.693 33.2706C100.594 32.9983 100.498 32.7701 100.429 32.5335C99.7142 30.1049 98.9909 27.6763 98.2895 25.2422C97.2251 21.5429 95.6051 18.1132 93.3085 15.0162C91.056 11.9743 88.157 9.68592 84.7355 8.10444C79.9553 5.89586 75.1751 5.96462 70.4279 8.29146C67.2485 9.85094 64.5091 12.0018 61.9787 14.4441C59.0825 17.2413 56.6622 20.429 54.4921 23.7982C50.2455 30.3937 47.1128 37.5007 44.9125 45.0259C44.7199 45.6859 44.5714 46.3625 44.3981 47.0557C43.573 47.3692 42.7066 47.3472 41.865 47.2372C40.6218 47.0777 39.3841 46.8494 38.1547 46.5908C35.9104 46.115 34.6782 44.5555 33.9218 42.5175C33.2425 40.6857 33.2975 38.8264 33.7018 36.9479C34.3014 34.1645 35.4896 31.6314 37.0188 29.2605C40.9216 23.2069 45.8833 18.1984 51.8985 14.2241C59.2118 9.39162 67.1962 6.23141 75.772 4.50141C78.9679 3.85506 82.1859 3.46451 85.4451 3.55527C89.909 3.68179 94.1667 4.66368 98.064 6.91626C100.787 8.48949 103.056 10.588 104.838 13.1817C106.433 15.503 107.129 18.0967 106.964 20.9103C106.951 21.1386 106.898 21.3669 106.871 21.5924C106.821 21.994 106.623 22.28 106.268 22.4918C105.892 22.7173 105.529 22.9731 105.188 23.2454C104.756 23.5892 104.596 24.054 104.725 24.5931C104.896 25.3165 105.694 25.7125 106.417 25.4237C106.665 25.3247 106.896 25.1679 107.118 25.0112C108.78 23.8532 110.537 22.9209 112.534 22.4478C115.697 21.6969 118.626 22.2965 121.176 24.197C123.668 26.0536 125.092 28.6334 125.309 31.7882L125.301 31.7992Z" fill="#F96969"/>
<path d="M124.968 139.125C124.792 139.257 124.655 139.375 124.504 139.477C122.919 140.544 121.429 141.735 120.026 143.033C117.383 145.484 114.751 147.948 112.116 150.404C111.978 150.531 111.841 150.657 111.659 150.825C111.502 150.665 111.357 150.522 111.219 150.374C108.964 147.899 107.113 145.137 105.454 142.235C105.273 141.916 105.32 141.661 105.438 141.35C106.464 138.729 107.201 136.025 107.657 133.247C107.855 132.042 107.935 130.838 107.748 129.619C107.336 126.918 105.765 125.191 103.226 124.35C102.162 123.998 101.034 123.838 99.8958 123.582C99.9645 123.497 100.053 123.373 100.157 123.263C101.194 122.141 102.286 121.063 103.262 119.891C105.075 117.716 106.277 115.221 106.876 112.446C106.898 112.344 106.926 112.242 106.956 112.141C106.967 112.102 106.992 112.066 107.058 111.926C107.149 112.248 107.212 112.468 107.267 112.688C108.238 116.415 109.759 119.93 111.469 123.365C113.197 126.833 115.436 129.977 117.875 132.967C119.589 135.071 121.72 136.757 123.901 138.363C124.237 138.61 124.581 138.847 124.966 139.122L124.968 139.125Z" fill="#B4BD57"/>
<path d="M118.409 9.03417C118.794 12.4804 118.376 15.8387 117.273 19.1199C117.212 19.2959 117.166 19.4774 117.108 19.6755C116.28 19.6397 115.452 19.6012 114.572 19.56C114.553 19.4114 114.517 19.2547 114.511 19.0951C114.423 16.452 114.635 13.8226 114.957 11.2042C115.073 10.2471 115.235 9.29821 115.353 8.34382C115.4 7.97251 115.425 7.59021 115.392 7.2189C115.35 6.71558 115.045 6.36078 114.572 6.20401C114.077 6.03898 113.582 6.11324 113.257 6.53405C113.01 6.8531 112.691 7.00437 112.355 7.1694C110.284 8.18154 108.076 8.72612 105.826 9.13318C105.265 9.23495 104.772 9.17994 104.387 8.66287C104.041 8.19805 103.614 7.79099 103.174 7.30417C105.677 5.20286 108.329 3.33533 111.709 2.84851C112.102 2.79075 112.498 2.76325 112.894 2.73575C114.844 2.58997 116.236 3.49486 117.212 5.10109C117.947 6.30302 118.249 7.65347 118.403 9.03692L118.409 9.03417Z" fill="#F96969"/>
<path d="M110.798 73.8281C110.658 73.9739 110.512 74.1141 110.378 74.2626C109.305 75.4371 108.18 76.5702 107.176 77.7997C105.589 79.7387 104.533 81.961 103.917 84.3924C103.881 84.5326 103.834 84.6702 103.755 84.9287C103.672 84.6674 103.609 84.5079 103.57 84.3429C102.902 81.4247 102.17 78.523 101.194 75.6901C99.5053 70.7779 96.8951 66.3937 93.5286 62.4524C91.7656 60.3869 89.7771 58.5688 87.376 57.1221C91.5813 53.7281 95.4402 49.9958 99.354 46.2278C100.457 47.7268 101.568 49.1625 102.597 50.6587C103.625 52.1549 104.571 53.7116 105.518 55.1831C105.078 56.4483 104.643 57.6034 104.277 58.7806C103.634 60.8407 103.136 62.9392 102.88 65.0845C102.756 66.1297 102.767 67.1776 102.987 68.2118C103.507 70.6679 105.036 72.2521 107.371 73.0305C108.455 73.3935 109.602 73.5585 110.801 73.8308L110.798 73.8281Z" fill="#B4BD57"/>
<path d="M107.506 190.01C107.495 190.032 107.495 190.057 107.481 190.068C105.287 191.987 102.929 193.638 100.042 194.336C99.3127 194.512 98.5563 194.589 97.8082 194.655C95.8912 194.826 94.4939 193.957 93.5011 192.384C92.7254 191.154 92.4119 189.762 92.2551 188.338C91.8701 184.891 92.2964 181.53 93.3993 178.249C93.457 178.073 93.5066 177.894 93.5643 177.713C94.4389 177.754 95.2503 177.793 96.1057 177.834C96.1222 178.024 96.1497 178.202 96.1552 178.384C96.2405 181.618 95.9242 184.823 95.4621 188.019C95.3658 188.682 95.2641 189.347 95.2613 190.015C95.2558 190.838 95.9544 191.399 96.7355 191.22C97.0188 191.157 97.2636 190.92 97.5166 190.747C97.6844 190.634 97.8192 190.461 97.9952 190.373C100.11 189.311 102.363 188.698 104.684 188.294C104.827 188.269 104.976 188.258 105.119 188.233C105.545 188.156 105.87 188.28 106.164 188.618C106.585 189.105 107.058 189.545 107.509 190.004L107.506 190.01Z" fill="#F96969"/>
<path d="M102.704 92.2803C102.723 92.3601 102.729 92.4399 102.765 92.6901C101.7 91.8265 100.658 91.3672 99.3788 91.8128C98.0806 85.5391 97.4866 79.2544 97.14 72.9423C97.184 72.9285 97.228 72.9175 97.2693 72.9065C97.3683 73.1045 97.4701 73.2998 97.5636 73.5006C98.7435 76.0997 99.5769 78.8226 100.245 81.5868C101.109 85.143 101.89 88.7186 102.704 92.2858V92.2803Z" fill="#B4BD57"/>
<path d="M98.369 34.5166C98.3938 34.5936 98.402 34.6761 98.4268 34.8026C97.6759 35.3802 96.9635 35.9248 96.2044 36.5078C95.8166 36.2741 95.4316 36.0348 95.0383 35.8037C94.8045 35.6662 94.5762 35.4654 94.3232 35.4269C93.8611 35.3582 93.5861 35.0666 93.2973 34.7641C90.8797 32.2392 88.8444 29.4228 86.9933 26.4744C85.7914 24.5601 84.5482 22.6623 83.6488 20.5775C82.854 18.732 82.1196 16.859 81.3633 14.9997C81.2533 14.7274 81.223 14.4634 81.278 14.1498C81.454 13.1377 80.5354 12.4033 79.5673 12.7664C79.2785 12.8736 79.0089 13.0524 78.7449 13.2202C76.2695 14.7989 73.7364 16.2759 71.0245 17.4118C69.7923 17.9289 68.5079 18.3277 67.2509 18.7843C66.9787 18.8833 66.7559 18.8668 66.4863 18.7045C65.7657 18.2727 65.0176 18.4982 64.6408 19.2546C64.4483 19.6451 64.3218 20.0714 64.198 20.4923C62.7815 25.3385 61.3431 30.1792 59.272 34.7916C57.5063 38.7247 55.5892 42.5917 53.686 46.4616C52.8443 48.1751 51.7552 49.7483 50.5367 51.2225C50.1242 51.7203 49.6594 52.1796 49.1835 52.6197C48.7627 53.0075 48.2649 53.2771 47.6818 53.3541C47.0932 53.4311 46.832 53.2963 46.6092 52.7352C46.3699 52.1384 46.3121 51.503 46.4111 50.8787C46.6394 49.432 46.8347 47.977 47.1785 46.5551C48.1521 42.5312 49.7034 38.7109 51.3839 34.9374C53.6585 29.8244 56.4556 25.0249 59.9129 20.6133C62.3965 17.4448 65.2211 14.6284 68.5519 12.3483C69.9216 11.4104 71.3821 10.6458 72.925 10.027C75.846 8.85805 78.7999 8.75078 81.7758 9.73818C86.0224 11.1464 89.3559 13.7785 91.8753 17.4531C93.8858 20.3877 95.1813 23.6442 96.1384 27.052C96.8398 29.5493 97.6209 32.0274 98.3635 34.5138L98.369 34.5166Z" fill="#F96969"/>
<path d="M97.2609 111.18C97.3296 111.59 97.2609 111.86 96.8923 112.129C96.268 112.583 95.6986 113.117 95.1238 113.636C94.9038 113.837 94.7167 113.925 94.4032 113.845C94.1309 113.777 93.8229 113.823 93.5313 113.845C91.694 113.986 89.8568 114.134 87.959 114.283C87.7747 113.912 87.618 113.57 87.4419 113.24C85.5634 109.725 82.692 107.379 78.9267 106.139C75.3567 104.964 71.7371 104.846 68.0928 105.812C67.9526 105.85 67.8095 105.891 67.6665 105.924C67.6308 105.933 67.5868 105.919 67.5015 105.911C67.4135 105.724 67.3145 105.52 67.2237 105.314C65.3287 100.974 62.5948 97.2633 58.8762 94.3094C58.1419 93.7263 57.3305 93.234 56.5191 92.7609C55.8068 92.3456 55.0202 92.1311 54.1785 92.1283C52.333 92.1173 51.1311 93.0855 50.7488 94.8925C50.504 96.0531 50.669 97.1891 50.9578 98.3112C52.0497 102.572 54.063 106.34 57.0527 109.577C59.1375 111.835 61.4341 113.843 64.069 115.446C64.2835 115.576 64.4898 115.719 64.6988 115.856C64.7126 115.867 64.7181 115.892 64.7538 115.966C64.6136 115.991 64.4898 116.029 64.3633 116.032C58.4334 116.219 52.5035 116.247 46.5737 116.126C41.986 116.032 37.4011 115.771 32.8629 115.023C26.7323 114.013 20.8932 112.146 15.5931 108.832C12.4384 106.862 9.60826 104.475 7.42994 101.455C4.62178 97.5604 3.07056 93.2175 3.47486 88.3245C3.68114 85.8079 4.47326 83.4535 5.54317 81.1845C7.85626 76.2832 11.2668 72.2979 15.6564 69.1377C16.575 68.4776 17.5102 67.8395 18.4371 67.1932C18.5553 67.1106 18.6846 67.0474 18.7974 66.9841C18.8579 67.0254 18.9046 67.0419 18.9184 67.0721C20.046 69.9188 21.9823 72.1439 24.3312 74.0417C27.4666 76.5748 30.9486 78.5248 34.6562 80.0788C38.7075 81.7786 42.9184 82.9392 47.2035 83.8606C50.9138 84.6582 54.6461 85.3018 58.4197 85.7034C61.0215 85.9812 63.6344 86.1819 66.2473 86.3662C72.4385 86.8035 78.6406 86.8915 84.8455 86.9493C88.0085 86.9796 91.1715 86.831 94.3344 86.765C94.8158 86.754 95.2971 86.765 95.8224 86.765C95.8527 86.8778 95.8994 87.0126 95.9242 87.1501C96.3065 89.2706 96.6888 91.394 97.0683 93.5173C97.2031 94.2791 97.2196 95.0217 97.0518 95.8029C96.499 98.38 96.4935 101.001 96.5485 103.622C96.6035 106.161 96.8455 108.683 97.2609 111.186V111.18Z" fill="#7A8125"/>
<path d="M93.421 37.9539C93.6108 37.9759 93.7896 38.0915 94.0591 38.2015C91.3005 40.6026 88.6683 42.9927 86.325 45.6743C83.9816 48.356 81.7291 51.1091 80.0596 54.2721C75.6617 53.0674 71.2143 52.4293 66.7256 52.0195C62.2535 51.6097 57.7841 51.7472 53.2184 52.0718C53.3312 51.8792 53.3862 51.7747 53.4494 51.6784C53.9362 50.9468 54.4286 50.218 54.9181 49.4864C55.0337 49.3131 55.1217 49.1398 55.383 49.1288C57.8446 49.0216 60.2374 48.4742 62.6165 47.8939C67.6002 46.6755 72.5482 45.3333 77.3092 43.386C81.421 41.7055 85.4476 39.838 89.3422 37.7037C90.0188 37.3323 90.6624 36.906 91.416 36.4495C91.6718 36.7273 91.9606 37.0546 92.2686 37.3681C92.5849 37.6899 92.9535 37.9044 93.4183 37.9567L93.421 37.9539Z" fill="#B4BD57"/>
<path d="M86.9933 145.251C87.9559 147.5 88.451 149.83 88.242 152.292C88.0742 154.253 87.3674 156.029 86.4377 157.735C85.4806 159.487 84.1879 160.942 82.6394 162.207C79.4737 164.789 75.8212 166.165 71.8111 166.682C70.7687 166.816 69.718 166.786 68.6839 166.558C68.4803 166.514 68.2603 166.382 68.12 166.225C67.4242 165.433 66.5275 165.477 65.9087 166.332C65.0368 167.537 64.2007 168.772 63.2491 169.911C59.7423 174.11 55.779 177.78 50.9053 180.368C48.9937 181.383 47.0079 182.216 44.8929 182.711C43.9247 182.939 42.9428 182.972 41.9554 182.906C40.8333 182.832 39.9201 182.318 39.128 181.55C37.7006 180.167 36.7104 178.5 36.0311 176.652C35.1042 174.127 34.5596 171.5 34.1526 168.849C33.8445 166.836 33.685 164.809 33.7702 162.773C33.8665 160.482 34.1828 158.227 35.0052 156.068C35.1317 155.735 35.2665 155.405 35.4315 155.091C35.7835 154.415 35.9513 154.365 36.5784 154.838C37.3595 155.427 38.0196 156.148 38.3854 157.055C38.7842 158.043 39.1583 159.052 39.3948 160.086C40.1759 163.499 40.6105 166.97 40.9378 170.455C41.1853 173.082 41.4521 175.708 41.7189 178.335C41.7464 178.605 41.7959 178.877 41.8867 179.133C42.2002 180.016 43.0941 180.296 43.8725 179.779C44.0072 179.688 44.1475 179.57 44.2988 179.543C45.8885 179.276 47.338 178.613 48.7874 177.958C52.33 176.358 55.5149 174.204 58.4276 171.646C60.2374 170.056 62.0031 168.412 63.5351 166.539C63.7056 166.33 63.9229 166.156 64.1099 165.958C64.605 165.444 64.6628 164.765 64.2612 164.248C63.8679 163.741 63.1721 163.62 62.5587 163.956C62.523 163.975 62.4762 163.992 62.4515 164.022C62.0004 164.633 61.4586 164.399 60.8865 164.239C59.2417 163.777 57.7015 163.095 56.2355 162.218C54.6568 161.272 53.4796 159.962 52.6435 158.356C51.8652 156.86 51.8542 155.256 52.1594 153.634C52.627 151.147 53.7794 149.03 55.5864 147.261C57.2449 145.638 59.0877 144.266 61.1505 143.199C61.7061 142.91 62.2947 142.682 62.8833 142.467C63.6204 142.198 64.0109 141.705 64.0247 140.916C64.0247 140.707 64.0357 140.495 64.0659 140.292C64.2007 139.431 64.6738 138.938 65.5347 138.809C66.4643 138.666 67.3747 138.795 68.2521 139.125C69.7785 139.695 71.1537 140.547 72.4079 141.565C75.8047 144.321 78.5743 147.591 80.3896 151.609C80.7004 152.297 80.9754 152.985 80.9232 153.777C80.8792 154.486 81.3495 155.006 82.0041 155.1C82.6257 155.19 83.2307 154.772 83.415 154.107C83.5828 153.504 83.5663 152.883 83.36 152.308C82.997 151.307 82.6284 150.297 82.1443 149.354C80.0183 145.22 77.0176 141.821 73.321 139.026C73.1918 138.93 73.0735 138.823 72.859 138.647C74.4515 138.292 75.9092 138.374 77.3641 138.589C79.0749 138.842 80.7086 139.362 82.2434 140.168C84.4189 141.309 86.0142 142.998 86.9851 145.261L86.9933 145.251ZM77.0451 156.263C77.6474 155.798 77.7299 155.023 77.3174 154.473C76.9186 153.942 76.198 153.812 75.5709 154.198C75.0896 154.495 74.6385 154.836 74.1654 155.146C73.321 155.705 72.4134 156.134 71.4178 156.34C71.0135 156.425 70.5789 156.475 70.1773 156.42C69.2862 156.302 68.8406 155.598 69.0717 154.734C69.1569 154.415 69.2752 154.085 69.4622 153.818C70.0536 152.982 70.6834 152.176 71.2967 151.356C71.459 151.139 71.6516 150.936 71.7616 150.694C72.0806 149.995 71.6956 149.175 70.975 148.991C70.4414 148.854 69.9738 149.008 69.6025 149.404C68.5849 150.496 67.6497 151.645 66.9731 152.987C66.6403 153.65 66.4285 154.346 66.445 155.111C66.401 156.112 66.7146 156.995 67.4214 157.726C68.4776 158.821 69.7703 159.187 71.2582 158.986C73.4723 158.683 75.3151 157.594 77.0368 156.26L77.0451 156.263ZM67.5342 149.885C67.7707 149.574 67.878 149.217 67.7872 148.821C67.68 148.353 67.4022 148.023 66.9456 147.885C66.4203 147.729 65.939 147.861 65.5704 148.27C64.6078 149.34 63.4388 150.154 62.2672 150.963C61.3155 151.62 60.3034 152.162 59.217 152.567C58.7852 152.729 58.3451 152.866 57.828 152.712C57.641 152.052 57.8555 151.497 58.1773 151.01C58.6614 150.278 59.2252 149.602 59.7533 148.9C59.8908 148.716 60.0613 148.548 60.1576 148.345C60.5867 147.456 59.9156 146.494 58.9309 146.56C58.5019 146.59 58.1828 146.813 57.9078 147.113C57.1294 147.965 56.4033 148.856 55.8505 149.877C55.5094 150.509 55.2866 151.183 55.1904 151.895C54.8961 154.071 56.5216 155.686 58.6889 155.331C59.3022 155.232 59.9183 155.053 60.4932 154.816C62.908 153.829 64.9928 152.33 66.9044 150.581C67.1354 150.369 67.3417 150.127 67.5314 149.879L67.5342 149.885Z" fill="#F96969"/>
<path d="M86.3306 117.63C86.6552 119.005 86.7597 120.4 86.6909 121.811C86.6469 122.749 86.4819 123.684 86.6552 124.63C86.6909 124.822 86.5341 125.064 86.4351 125.268C85.8135 126.555 85.302 127.881 85.0709 129.3C84.6914 131.632 85.1012 132.98 86.3004 134.542C85.7283 135.277 85.7943 136.212 85.599 137.075C85.4642 137.667 85.3432 138.258 85.214 138.852C84.0643 138.244 82.9614 137.659 81.8255 137.056C81.963 135.549 81.5064 134.045 81.3661 132.507C81.0196 128.645 80.7225 124.784 80.9343 120.903C80.9426 120.757 80.9536 120.612 80.9618 120.463C80.9783 120.193 81.0773 120.026 81.3634 119.905C81.9905 119.638 82.2765 119.071 82.1555 118.499C82.0317 117.913 81.5559 117.523 80.8903 117.465C80.7665 117.454 80.64 117.457 80.5135 117.465C77.3093 117.655 74.2068 117.146 71.2006 116.057C64.861 113.76 59.836 109.794 56.1642 104.142C54.7697 101.994 53.9116 99.6094 53.3505 97.1231C53.2323 96.6033 53.235 96.0367 53.2818 95.5031C53.3423 94.8293 53.7136 94.546 54.3599 94.722C54.976 94.8925 55.6031 95.1373 56.1284 95.4921C58.425 97.0406 60.3531 98.9879 61.9703 101.232C63.2822 103.058 64.3714 105.019 65.1883 107.115C65.4991 107.913 65.7081 108.749 65.9611 109.566C66.0216 109.767 66.0574 109.978 66.1482 110.163C66.3984 110.683 66.9678 110.96 67.5041 110.853C68.0652 110.74 68.4888 110.303 68.5135 109.72C68.53 109.307 68.4475 108.892 68.4035 108.419C69.4184 108.056 70.4443 107.863 71.4894 107.797C74.1793 107.621 76.8032 107.918 79.2951 109.024C83.0906 110.707 85.39 113.62 86.3389 117.63H86.3306Z" fill="#F96969"/>
<path d="M79.0477 16.0859C81.3636 22.9399 85.1536 28.9083 89.6258 34.5659C79.375 40.5095 68.4202 44.3986 56.8052 46.4531C56.775 46.4064 56.7447 46.3596 56.7145 46.3156C57.2261 45.265 57.7376 44.2143 58.2437 43.1609C59.9765 39.5579 61.778 35.9796 63.0982 32.1978C64.2506 28.9001 65.2957 25.5638 66.3574 22.2358C66.5032 21.7793 66.7067 21.5812 67.1798 21.4602C70.0759 20.7259 72.8098 19.5707 75.4337 18.146C76.4459 17.5987 77.436 17.0073 78.4372 16.438C78.6159 16.3335 78.7975 16.2317 79.0533 16.0859H79.0477Z" fill="#F96969"/>
<path d="M77.3175 154.472C77.73 155.022 77.6447 155.798 77.0452 156.263C75.3207 157.594 73.4779 158.686 71.2666 158.988C69.7786 159.192 68.4859 158.823 67.4298 157.729C66.7229 156.997 66.4066 156.111 66.4534 155.113C66.4341 154.348 66.6486 153.652 66.9814 152.99C67.6553 151.647 68.5932 150.498 69.6108 149.406C69.9821 149.007 70.4497 148.856 70.9833 148.993C71.7039 149.178 72.0889 149.997 71.7699 150.696C71.6599 150.938 71.4646 151.141 71.3051 151.359C70.6917 152.178 70.0619 152.984 69.4705 153.82C69.2835 154.087 69.1625 154.417 69.08 154.736C68.849 155.6 69.2945 156.304 70.1857 156.422C70.59 156.477 71.0245 156.428 71.4261 156.342C72.419 156.136 73.3266 155.707 74.1737 155.149C74.6441 154.838 75.0979 154.494 75.5792 154.2C76.2063 153.815 76.9269 153.941 77.3257 154.475L77.3175 154.472Z" fill="black"/>
<path d="M67.7874 148.82C67.8782 149.216 67.7709 149.574 67.5344 149.885C67.3446 150.132 67.1383 150.374 66.9073 150.586C64.9957 152.338 62.9109 153.834 60.4961 154.822C59.9185 155.058 59.3051 155.234 58.6918 155.336C56.5245 155.691 54.899 154.076 55.1933 151.901C55.2896 151.188 55.5123 150.515 55.8534 149.882C56.4062 148.859 57.1323 147.968 57.9107 147.118C58.1857 146.818 58.5048 146.592 58.9338 146.565C59.9185 146.499 60.5923 147.462 60.1605 148.35C60.0615 148.554 59.8937 148.721 59.7562 148.906C59.2281 149.607 58.6643 150.286 58.1802 151.015C57.8584 151.499 57.6412 152.058 57.8309 152.718C58.348 152.872 58.7881 152.731 59.2199 152.572C60.3035 152.168 61.3184 151.623 62.2701 150.968C63.4418 150.16 64.6107 149.346 65.5733 148.276C65.9419 147.869 66.4232 147.734 66.9485 147.891C67.4051 148.028 67.6829 148.358 67.7901 148.826L67.7874 148.82Z" fill="black"/>
<path d="M52.6826 162.773C53.4059 163.331 54.099 163.862 54.8251 164.423C51.2936 167.074 47.6768 169.577 43.6502 171.69C43.5485 170.617 43.4605 169.668 43.3669 168.681C46.5987 166.912 49.7534 165.028 52.6826 162.773Z" fill="#F96969"/>
<path d="M43.8921 49.8827C43.7904 51.1176 43.7409 52.3663 44.1617 53.6012C43.9114 53.681 43.7134 53.7442 43.5181 53.8047C37.5305 55.6393 31.5923 57.6058 25.888 60.2214C21.4158 62.2705 17.1637 64.6826 13.2747 67.708C11.3164 69.2317 9.50935 70.9095 7.88661 72.788C7.7931 72.898 7.70784 73.0163 7.52356 73.0686C7.56757 72.9173 7.60332 72.7605 7.65833 72.612C10.9781 63.6017 15.5657 55.2955 21.4874 47.7291C23.9682 44.5606 26.8396 41.7882 30.0466 39.3596C30.2584 39.2001 30.4867 39.0626 30.8305 38.8315C30.7672 40.3773 30.9542 41.7167 31.3723 43.0259C31.7381 44.1756 32.2882 45.229 33.0005 46.1971C33.9769 47.5228 35.2724 48.4084 36.8401 48.8953C38.6911 49.4674 40.5917 49.7671 42.5197 49.8772C42.9543 49.9019 43.3916 49.8827 43.8894 49.8827H43.8921Z" fill="#B4BD57"/>
<path d="M32.1727 172.347C32.4257 173.406 32.6898 174.492 32.9593 175.617C31.177 175.79 29.4415 175.843 27.706 175.735C24.9859 175.568 22.428 174.798 20.0599 173.464C16.9355 171.703 14.6444 169.129 13.0574 165.941C11.9132 163.642 11.1184 161.211 10.8241 158.647C10.549 156.252 10.6453 153.875 11.5117 151.584C11.6519 151.216 11.8307 150.853 12.0425 150.522C12.257 150.187 12.5073 150.113 12.8539 150.308C13.2334 150.522 13.6295 150.762 13.9073 151.084C14.6141 151.909 15.3182 152.748 15.9206 153.647C17.9696 156.719 19.7216 159.962 21.2728 163.312C22.4253 165.801 23.5584 168.298 24.8841 170.705C25.1674 171.219 25.4122 171.736 25.8303 172.16C26.3308 172.669 26.8259 172.768 27.4805 172.498C27.7005 172.407 27.9591 172.361 28.1956 172.366C29.0757 172.388 29.9531 172.462 30.8332 172.476C31.243 172.484 31.6584 172.402 32.1699 172.35L32.1727 172.347Z" fill="#F96969"/>
</svg>
