<svg width="60" height="60" viewBox="0 0 60 60" fill="none" xmlns="http://www.w3.org/2000/svg">
<path d="M55.0311 34.5712C55.2644 34.62 55.3739 34.7625 55.3469 34.9995C55.3304 35.1465 55.3004 35.2927 55.2756 35.439C55.0041 37.026 54.7326 38.613 54.4604 40.2C54.3351 40.9312 54.2084 41.6625 54.0854 42.3945C54.0546 42.5775 53.9586 42.7065 53.8056 42.804C53.1516 43.2232 52.4999 43.6447 51.8466 44.0662C51.5444 44.2612 51.2414 44.4555 50.9399 44.6512C50.8986 44.6782 50.8611 44.712 50.8206 44.7427C50.8334 44.7667 50.8386 44.784 50.8491 44.796C51.3104 45.324 51.5504 45.9517 51.6861 46.6282C51.8024 47.2072 51.7844 47.7885 51.7109 48.3682C51.5999 49.2412 51.3606 50.079 50.9684 50.8687C50.8596 51.0877 50.7299 51.2977 50.5986 51.5047C50.4201 51.7852 50.1711 51.9937 49.8794 52.1505C49.8591 52.161 49.8344 52.167 49.8194 52.1827C49.6671 52.3432 49.4654 52.3485 49.2651 52.3642C48.2286 52.4452 47.1906 52.5097 46.1571 52.6147C44.8844 52.7437 43.6206 52.9425 42.3674 53.202C41.9264 53.2935 41.4816 53.3715 41.0384 53.4532C40.9191 53.475 40.7999 53.4817 40.6866 53.4217C40.6619 53.409 40.6334 53.4007 40.6049 53.3977C40.0236 53.331 39.5744 53.016 39.1671 52.6282C38.9339 52.4062 38.7516 52.1422 38.5889 51.8655C38.5596 51.8167 38.5304 51.7687 38.4944 51.7087C38.4359 51.7395 38.3819 51.7687 38.3279 51.7972C37.0086 52.4797 35.7419 53.256 34.4541 53.9947C33.1191 54.7605 31.8561 55.6335 30.6074 56.5297C30.5376 56.58 30.4611 56.6205 30.3974 56.6775C30.1694 56.8815 29.9039 56.8732 29.6406 56.7952C29.4119 56.7277 29.1869 56.6377 28.9731 56.532C28.1901 56.1457 27.4116 55.7497 26.6316 55.3552C25.2966 54.6802 23.9571 54.0142 22.6289 53.3272C20.8229 52.3927 18.9854 51.5257 17.1554 50.6415C16.7084 50.4255 16.2719 50.1877 15.8301 49.9597C15.7694 49.929 15.7071 49.8997 15.6321 49.8622C15.6066 49.9072 15.5819 49.9492 15.5594 49.9927C15.2954 50.5057 14.9699 50.9685 14.5019 51.3217C14.0159 51.6877 13.4639 51.8925 12.8751 52.008C12.1259 52.155 11.3849 52.1265 10.6664 51.8505C9.93962 51.5715 9.33287 51.1327 8.88362 50.487C8.53637 49.9875 8.38637 49.4265 8.35262 48.8287C8.31212 48.1162 8.43887 47.43 8.69987 46.767C8.70587 46.752 8.70962 46.7355 8.71787 46.7085C8.68112 46.686 8.64512 46.6605 8.60612 46.6402C8.11262 46.389 7.62137 46.1332 7.12412 45.8895C6.92462 45.7912 6.82337 45.6502 6.79937 45.4275C6.70487 44.5417 6.60887 43.656 6.49562 42.7717C6.39737 42.0075 6.27812 41.2455 6.15962 40.4842C6.13412 40.3185 6.15287 40.1655 6.20912 40.014C6.26237 39.87 6.37337 39.7875 6.52037 39.7447C7.42637 39.4815 8.29637 39.1192 9.17462 38.7802C9.44012 38.6775 9.69662 38.5515 9.96137 38.4337C9.96137 38.3415 9.96362 38.262 9.96137 38.1825C9.90437 36.504 9.85412 34.8247 9.78587 33.1462C9.73637 31.9192 9.66287 30.693 9.59912 29.466C9.54962 28.5247 9.50462 27.5827 9.44537 26.6422C9.40637 26.0152 9.34937 25.389 9.29687 24.7627C9.26537 24.387 9.22412 24.012 9.19187 23.6362C9.18437 23.5492 9.15212 23.4937 9.08087 23.4405C8.25437 22.8217 7.83737 21.9855 7.78637 20.9617C7.76537 20.5395 7.84337 20.1315 7.99712 19.7377C8.01962 19.6792 8.04287 19.6215 8.07287 19.5442C7.97912 19.5247 7.89287 19.5 7.80512 19.4902C7.24862 19.4287 6.69287 19.3687 6.13562 19.3102C5.99912 19.296 5.86262 19.284 5.72612 19.2757C5.57612 19.2667 5.45312 19.2075 5.34362 19.1055C5.24987 19.0185 5.20412 18.9165 5.19662 18.7897C5.10362 17.2252 4.90862 15.6742 4.59737 14.1382C4.57412 14.025 4.56212 13.9147 4.60037 13.8C4.61462 13.7557 4.60262 13.701 4.59362 13.6522C4.55237 13.4122 4.73087 13.1955 4.96637 13.2442C5.37437 13.3297 5.76512 13.2457 6.15137 13.1557C7.16537 12.9187 8.15462 12.6037 9.07712 12.1087C9.37337 11.9497 9.65012 11.7562 9.93737 11.5822C10.0311 11.5252 10.0596 11.4472 10.0611 11.3407C10.0709 10.7325 10.1504 10.1332 10.3101 9.54671C10.4751 8.94071 10.7226 8.37296 11.0969 7.86521C11.3579 7.50971 11.6856 7.22846 12.0704 7.01471C12.6591 6.68696 13.2599 6.70346 13.8696 6.94946C13.9064 6.96446 13.9424 6.98171 13.9791 6.99821C14.0099 7.01171 14.0406 7.02596 14.0841 7.04546C14.1164 6.99521 14.1486 6.95021 14.1764 6.90221C14.7599 5.89346 15.3074 4.86521 15.8249 3.82121C15.9111 3.64721 15.9884 3.47021 16.1369 3.33446C16.3041 3.18296 16.4894 3.17921 16.6551 3.32921C16.7031 3.37271 16.7646 3.40871 16.8269 3.42821C17.3894 3.60521 17.9691 3.70496 18.5474 3.81146C19.7954 4.04021 21.0539 4.19246 22.3176 4.29746C23.2911 4.37846 24.2654 4.45046 25.2404 4.50371C26.5124 4.57346 27.7851 4.63046 29.0579 4.67471C30.4454 4.72271 31.8329 4.74971 33.2211 4.78271C35.2544 4.83071 37.2884 4.86746 39.3224 4.83071C40.0986 4.81721 40.8741 4.76996 41.6504 4.73396C41.8041 4.72646 41.9571 4.70471 42.1101 4.68596C42.2204 4.67321 42.3261 4.67921 42.4281 4.72871C42.4634 4.74596 42.5031 4.75871 42.5421 4.76396C42.6509 4.77896 42.7356 4.83446 42.7986 4.91996C43.3664 5.69246 44.0886 6.30446 44.8341 6.89471C45.9224 7.75571 47.1014 8.46971 48.3314 9.10946C49.7616 9.85346 51.2279 10.5127 52.7294 11.0985C53.1756 11.2725 53.6174 11.4585 54.0629 11.6332C54.2309 11.6992 54.3216 11.8125 54.3359 11.9902C54.3666 12.372 54.3996 12.753 54.4304 13.1347C54.4956 13.9492 54.5601 14.763 54.6246 15.5775C54.6846 16.335 54.7454 17.0925 54.8054 17.8492C54.8069 17.8665 54.8076 17.883 54.8084 17.9002C54.8181 18.165 54.7356 18.2985 54.4829 18.3735C54.1056 18.4852 53.7246 18.5842 53.3444 18.6877C53.2289 18.7192 53.0871 18.7155 53.0039 18.7845C52.9146 18.858 52.8771 18.996 52.8216 19.1085C52.4639 19.8337 52.2014 20.5935 52.0094 21.378C51.9786 21.5032 51.9861 21.6375 51.9704 21.7672C51.9081 22.2832 51.8414 22.7985 51.7821 23.3145C51.7019 24.0127 51.6149 24.7095 51.5549 25.4092C51.4769 26.3137 51.4116 27.2205 51.3591 28.1265C51.3164 28.8622 51.2946 29.5995 51.2729 30.336C51.2459 31.2495 51.2294 32.1637 51.2084 33.078C51.2069 33.1402 51.2084 33.2032 51.2084 33.2835C51.2954 33.3157 51.3689 33.3465 51.4446 33.3712C52.3064 33.6547 53.1696 33.9352 54.0306 34.2202C54.3119 34.3132 54.5894 34.419 54.8699 34.518C54.9231 34.5367 54.9786 34.5525 55.0341 34.5645L55.0311 34.5712ZM54.4776 35.9272C54.4836 35.8905 54.4836 35.853 54.4874 35.7907C54.3891 35.8447 54.3096 35.8882 54.2301 35.9317C53.2319 36.474 52.2419 37.0327 51.2331 37.5547C49.3979 38.5057 47.5836 39.4957 45.7761 40.4977C43.9041 41.5365 42.0119 42.5377 40.1181 43.5367C38.9061 44.1757 37.6844 44.7967 36.4806 45.4507C35.3819 46.047 34.2974 46.6695 33.2129 47.2927C32.2026 47.8732 31.2021 48.4687 30.1986 49.0597C30.0419 49.152 29.8911 49.2547 29.7314 49.3567C29.8754 51.558 30.0186 53.751 30.1641 55.9837C30.2489 55.9245 30.3036 55.8862 30.3584 55.8465C31.5419 54.9975 32.7426 54.174 34.0056 53.445C35.2964 52.7002 36.5684 51.9232 37.8914 51.2355C37.9964 51.1807 38.0969 51.1177 38.2011 51.0585C38.1816 50.9932 38.1666 50.9445 38.1516 50.8965C38.0114 50.448 37.9094 49.9912 37.8719 49.5232C37.7939 48.5385 37.9146 47.5747 38.1966 46.629C38.2649 46.401 38.3654 46.1947 38.5131 46.0087C38.9909 45.4057 39.6089 45.042 40.3731 44.973C41.2544 44.8927 42.1394 44.85 43.0221 44.7907C43.6094 44.7517 44.1959 44.7157 44.7831 44.6745C45.6779 44.6122 46.5719 44.5507 47.4659 44.4817C48.0974 44.433 48.7289 44.37 49.3604 44.319C49.6079 44.2995 49.8576 44.2867 50.1059 44.2905C50.1936 44.292 50.2559 44.2755 50.3241 44.2275C50.5064 44.0992 50.6886 43.9717 50.8761 43.8517C51.6734 43.3387 52.4714 42.8272 53.2709 42.3187C53.3601 42.2617 53.4104 42.1965 53.4254 42.0907C53.4546 41.8815 53.4944 41.6737 53.5304 41.466C53.8461 39.6202 54.1611 37.7745 54.4761 35.928L54.4776 35.9272ZM54.1634 35.1675C54.2054 35.145 54.2429 35.1142 54.2909 35.0812C53.9976 34.9387 51.3306 34.0687 51.1731 34.0672C51.1731 34.1347 51.1746 34.203 51.1731 34.2705C51.1619 34.6875 51.1469 35.1045 51.1401 35.5207C51.1356 35.8012 50.9969 35.9962 50.7659 36.1312C50.6579 36.1942 50.5416 36.2452 50.4246 36.2902C49.9514 36.4717 49.4609 36.5677 48.9531 36.5782C48.4439 36.5887 47.9504 36.5137 47.4846 36.3022C47.3669 36.249 47.2581 36.1695 47.1569 36.0885C47.0361 35.9917 47.0031 35.8582 47.0241 35.703C47.1269 34.9507 47.2259 34.1977 47.3241 33.4447C47.3444 33.2887 47.3549 33.132 47.3676 32.9977C46.7751 32.7802 46.2096 32.5732 45.6164 32.3557C45.6164 32.4547 45.6156 32.5117 45.6164 32.568C45.6239 32.9625 45.6261 33.3562 45.6411 33.7507C45.6839 34.8922 45.7311 36.0337 45.7761 37.176C45.7911 37.5585 45.8106 37.9402 45.8166 38.3235C45.8181 38.4217 45.7986 38.5357 45.7469 38.616C45.6651 38.7442 45.5616 38.865 45.4446 38.961C45.2916 39.0877 45.1244 39.201 44.9504 39.2977C43.5509 40.074 42.1619 39.9877 40.7909 39.2242C40.6499 39.1455 40.5321 39.0187 40.4181 38.901C40.3139 38.7937 40.2786 38.6565 40.3071 38.5042C40.3491 38.28 40.3859 38.0542 40.4249 37.8292C40.5989 36.822 40.7931 35.8185 40.9401 34.8075C41.0931 33.7507 41.2011 32.688 41.3271 31.6275C41.3384 31.533 41.3421 31.4377 41.3489 31.3567C40.4984 31.008 39.6689 30.6675 38.8236 30.3217C38.8154 30.435 38.8049 30.531 38.8034 30.6277C38.7831 31.8442 38.7464 33.0607 38.7509 34.278C38.7569 35.6662 38.7974 37.0537 38.8926 38.4397C38.9564 39.3637 39.0501 40.2832 39.1979 41.1975C39.2361 41.4345 39.2849 41.67 39.3081 41.9077C39.3381 42.213 39.2721 42.4867 38.9856 42.663C38.8934 42.72 38.8086 42.7897 38.7149 42.8437C37.2861 43.6612 35.8161 43.7287 34.3109 43.0732C34.0521 42.9607 33.8241 42.798 33.6201 42.603C33.4559 42.4462 33.3651 42.2677 33.4559 42.0352C33.4724 41.9932 33.4746 41.946 33.4806 41.901C33.5766 41.1765 33.6779 40.4527 33.7664 39.7267C33.8699 38.8822 33.9711 38.037 34.0574 37.1902C34.1639 36.1387 34.2584 35.0865 34.3476 34.0335C34.4339 33.015 34.5066 31.995 34.5854 30.975C34.5884 30.9315 34.5854 30.8872 34.5854 30.8295C34.2831 30.9517 33.9944 31.0687 33.6951 31.1895C33.6921 31.2292 33.6884 31.2795 33.6854 31.3297C33.6344 32.2545 33.6456 33.18 33.6719 34.1055C33.6764 34.2772 33.6629 34.4377 33.5076 34.5495C33.4904 34.5615 33.4791 34.5855 33.4701 34.6057C33.4206 34.716 33.3306 34.785 33.2286 34.8412C33.1184 34.902 33.0096 34.9665 32.8941 35.0145C32.4756 35.187 32.0489 35.328 31.5756 35.2635C31.5711 35.316 31.5651 35.3602 31.5644 35.4052C31.5381 38.1592 31.5321 40.9125 31.7316 43.662C31.7819 44.3572 31.8554 45.0502 31.9724 45.7372C31.9821 45.7912 32.0024 45.8467 32.0309 45.894C32.1486 46.0882 32.1404 46.2457 31.9799 46.4025C31.8906 46.4895 31.7901 46.5682 31.6851 46.6365C30.7896 47.223 29.8041 47.4772 28.7391 47.4C28.3986 47.3752 28.0604 47.3115 27.7236 47.2507C27.2729 47.1697 26.8341 47.0452 26.4171 46.851C26.2289 46.7632 26.0571 46.6545 25.9139 46.5015C25.8246 46.4055 25.7684 46.2982 25.7736 46.1632C25.7811 45.9637 25.7856 45.7642 25.7969 45.5647C25.8696 44.316 25.9431 43.0665 26.0189 41.8185C26.0879 40.6725 26.1614 39.5265 26.2319 38.3805C26.2349 38.337 26.2319 38.2935 26.2319 38.244C26.1659 38.244 26.1156 38.2395 26.0661 38.244C25.7159 38.2785 25.3709 38.2395 25.0281 38.169C24.4386 38.0482 23.9159 37.797 23.4764 37.3807C23.3159 37.2292 23.2536 37.05 23.2581 36.8287C23.2724 36.1777 23.2731 35.5267 23.2784 34.8757C23.2784 34.8367 23.2701 34.7977 23.2656 34.755C22.5674 35.0385 21.8774 35.319 21.1784 35.6025C21.1851 35.6985 21.1934 35.7892 21.1979 35.88C21.2009 35.9482 21.2159 36.0217 21.1956 36.084C21.1611 36.192 21.1889 36.2842 21.2256 36.3817C21.6486 37.5157 22.0731 38.649 22.4924 39.7845C22.6799 40.293 22.8569 40.806 23.0384 41.3167C23.1006 41.493 23.0916 41.6542 22.9341 41.7817C22.9124 41.799 22.8884 41.8207 22.8794 41.8455C22.8141 42.0225 22.6694 42.1282 22.5284 42.2347C22.0731 42.576 21.5789 42.8505 21.0456 43.0455C19.8539 43.4805 18.6374 43.5367 17.4059 43.2367C17.0114 43.1407 16.6311 43.002 16.2749 42.801C15.9314 42.6067 15.8001 42.2235 15.9051 41.8477C16.1796 40.875 16.4324 39.897 16.6919 38.9205C16.7091 38.8552 16.7226 38.7847 16.7181 38.7187C16.6836 38.2342 16.6439 37.7505 16.6041 37.2667C16.6011 37.2307 16.5839 37.1962 16.5741 37.1632C16.0671 37.3365 15.5729 37.5052 15.0794 37.674C15.1184 37.926 15.1506 38.1637 15.1919 38.3992C15.2759 38.877 15.3666 39.354 15.4514 39.8317C15.5046 40.1362 15.4634 40.4122 15.1874 40.6065C15.1454 40.6357 15.1079 40.6725 15.0666 40.7025C14.7456 40.9372 14.3976 41.1217 14.0136 41.2252C13.0836 41.4772 12.1521 41.487 11.2236 41.2147C10.8929 41.118 10.5794 40.9815 10.3049 40.7685C10.1069 40.6155 10.0011 40.4205 10.0041 40.1647C10.0071 39.9135 9.99737 39.6622 9.99287 39.4102C9.99137 39.3495 9.98687 39.2887 9.98387 39.222C9.10787 39.5602 8.24987 39.8917 7.37162 40.2307C7.42337 40.263 7.45787 40.29 7.49612 40.308C7.95062 40.5217 8.39687 40.755 8.86262 40.9417C10.2869 41.5147 11.7156 42.0765 13.1474 42.63C15.0741 43.374 17.0084 44.1015 18.9359 44.8455C22.2846 46.1385 25.6004 47.5155 28.9716 48.7515C29.1456 48.8152 29.2881 48.8017 29.4389 48.711C30.2751 48.207 31.1054 47.6925 31.9506 47.2042C33.2459 46.4557 34.5411 45.7057 35.8559 44.9925C37.5771 44.0595 39.3239 43.1722 41.0496 42.2482C43.0979 41.1517 45.1356 40.0342 47.1801 38.9302C48.3659 38.2897 49.5576 37.662 50.7441 37.023C51.8849 36.4087 53.0226 35.7877 54.1619 35.169L54.1634 35.1675ZM54.0899 17.7757C53.9541 16.0687 53.8199 14.3797 53.6841 12.6637C53.6166 12.69 53.5739 12.705 53.5319 12.7222C52.4759 13.1565 51.4221 13.5945 50.3646 14.0242C48.0329 14.9715 45.7094 15.942 43.3626 16.8517C41.0699 17.7405 38.7576 18.582 36.4424 19.4137C34.7834 20.01 33.1064 20.556 31.4369 21.1245C31.3191 21.1642 31.1999 21.2002 31.0656 21.2422C31.1039 22.8082 31.1414 24.3637 31.1796 25.941C31.2456 25.9117 31.2861 25.8945 31.3251 25.875C32.9129 25.1062 34.4901 24.3165 36.0906 23.574C38.1681 22.6102 40.3034 21.786 42.4679 21.0367C44.5716 20.3085 46.6851 19.6087 48.8444 19.062C50.3766 18.6742 51.9171 18.3172 53.4539 17.9445C53.6631 17.8942 53.8709 17.8342 54.0899 17.7757ZM53.2544 12.0675C53.2341 12.0517 53.2259 12.042 53.2154 12.0382C52.9911 11.9535 52.7661 11.871 52.5426 11.7847C51.0239 11.199 49.5404 10.5337 48.0936 9.78521C46.7751 9.10421 45.5129 8.34071 44.3504 7.41671C43.6064 6.82571 42.8916 6.20471 42.3051 5.45021C42.2796 5.41721 42.2189 5.39621 42.1754 5.39696C42.0614 5.39921 41.9481 5.42171 41.8349 5.42771C41.1389 5.46296 40.4429 5.52221 39.7469 5.52521C37.9476 5.53421 36.1476 5.53046 34.3484 5.50946C32.7779 5.49071 31.2066 5.44196 29.6369 5.40371C29.0826 5.39021 28.5284 5.37596 27.9749 5.35196C27.1079 5.31446 26.2401 5.27096 25.3731 5.22521C24.7634 5.19296 24.1521 5.16446 23.5431 5.11196C22.5306 5.02421 21.5189 4.92371 20.5079 4.81721C19.5306 4.71446 18.5631 4.54496 17.6001 4.35146C17.4006 4.31096 17.2019 4.26596 16.9724 4.21646C16.9971 4.29521 17.0084 4.33946 17.0241 4.38146C17.4081 5.40971 17.8424 6.41546 18.3689 7.37921C18.4124 7.45796 18.4641 7.47896 18.5436 7.48646C19.3019 7.55546 19.9454 7.87121 20.4861 8.40221C20.7569 8.66771 20.9879 8.96471 21.1754 9.29471C21.8436 10.473 22.1849 11.7487 22.3049 13.0905C22.3184 13.2435 22.3461 13.3837 22.4226 13.527C22.6851 14.0197 23.0061 14.469 23.3691 14.889C24.8046 16.548 26.4314 17.9955 28.2359 19.242C28.9896 19.7625 29.7839 20.2117 30.6306 20.565C30.6944 20.5912 30.7484 20.6137 30.8241 20.5882C31.1324 20.4847 31.4459 20.3977 31.7541 20.2935C33.6524 19.6537 35.5514 19.0155 37.4271 18.312C39.1634 17.6602 40.9154 17.0482 42.6464 16.3822C46.1624 15.03 49.6311 13.5585 53.1186 12.135C53.1629 12.117 53.2041 12.093 53.2529 12.069L53.2544 12.0675ZM51.8736 19.512C51.9411 19.3432 52.0124 19.176 52.0949 18.9772C50.7104 19.3057 49.3641 19.6335 48.0216 20.0085C48.3314 20.6437 48.5474 21.285 48.6824 21.9532C48.7236 22.1565 48.8369 22.275 49.0349 22.317C49.1579 22.3432 49.2801 22.371 49.4046 22.3867C49.9499 22.4565 50.4726 22.3777 50.9729 22.1467C51.1019 22.0867 51.1701 22.0035 51.1949 21.8565C51.3284 21.0487 51.5691 20.271 51.8744 19.512H51.8736ZM50.2866 50.6647C50.8094 49.6207 51.0854 48.5152 51.0621 47.346C51.0509 46.7625 50.9031 46.206 50.6234 45.6885C50.4794 45.4237 50.2934 45.1957 50.0451 45.021C49.9836 44.9775 49.9259 44.9475 49.8419 44.9572C49.3206 45.0172 48.7986 45.0817 48.2751 45.123C47.1704 45.2107 46.0656 45.288 44.9601 45.3645C44.0144 45.4297 43.0679 45.4882 42.1221 45.5505C41.9466 45.5617 41.7711 45.5767 41.5716 45.591C41.5926 45.627 41.5986 45.6435 41.6099 45.6555C42.0719 46.1317 42.3801 46.7025 42.5991 47.322C42.9771 48.3915 43.0664 49.4955 42.9344 50.6167C42.8601 51.2505 42.6989 51.8617 42.3726 52.419C42.3629 52.4355 42.3636 52.4572 42.3576 52.4872C42.4056 52.4797 42.4386 52.4752 42.4716 52.4692C43.1751 52.3492 43.8756 52.2112 44.5814 52.1137C45.4184 51.9975 46.2584 51.9045 47.0991 51.8227C47.7861 51.756 48.4769 51.7222 49.1661 51.672C49.2396 51.6667 49.3251 51.672 49.3836 51.636C49.6124 51.498 49.8539 51.3712 50.0031 51.1342C50.0999 50.9797 50.2049 50.8282 50.2859 50.6655L50.2866 50.6647ZM51.0224 23.7045C51.0524 23.4277 51.0906 23.1517 51.1274 22.86C51.0809 22.8712 51.0486 22.8765 51.0186 22.8877C50.3586 23.1345 49.6851 23.1825 48.9974 23.0287C48.9509 23.0182 48.9014 23.0197 48.8451 23.0152C48.7754 25.1392 48.6434 27.243 48.4506 29.3422C48.2579 31.446 48.0411 33.5475 47.7449 35.658C47.8424 35.6955 47.9204 35.7315 48.0021 35.7547C48.8001 35.985 49.5719 35.8897 50.3286 35.5747C50.4351 35.5305 50.4479 35.4555 50.4501 35.358C50.4839 33.816 50.5161 32.2732 50.5559 30.7312C50.5761 29.943 50.5986 29.1547 50.6414 28.3672C50.6916 27.4372 50.7569 26.5087 50.8311 25.5802C50.8806 24.954 50.9556 24.33 51.0224 23.7052V23.7045ZM48.1499 22.7475C48.1529 22.6702 48.1326 22.5907 48.1139 22.5142C48.0719 22.3432 48.0209 22.1745 47.9804 22.0027C47.8514 21.4567 47.6834 20.9242 47.4374 20.418C47.4029 20.3475 47.3624 20.28 47.3241 20.2095C47.2619 20.2252 47.2124 20.2365 47.1636 20.2507C47.1096 20.2665 47.0556 20.2852 46.9979 20.3047C46.9836 20.355 46.9716 20.4052 46.9536 20.4525C46.9356 20.5005 46.9131 20.547 46.8914 20.5935C46.4376 21.5542 46.2201 22.5667 46.2284 23.6295C46.2299 23.8335 46.2081 24.0397 46.1811 24.2422C46.0859 24.9495 45.9689 25.6545 45.8871 26.3632C45.8196 26.9475 45.7926 27.5355 45.7439 28.122C45.6531 29.2387 45.6179 30.357 45.6179 31.4775C45.6179 31.5225 45.6224 31.5675 45.6246 31.6147C46.2284 31.8352 46.8269 32.0542 47.4494 32.2815C47.4584 32.211 47.4651 32.1607 47.4704 32.1105C47.5199 31.6275 47.5724 31.1452 47.6181 30.6622C47.6954 29.8552 47.7771 29.0482 47.8409 28.2397C47.9144 27.3112 47.9789 26.3827 48.0314 25.4527C48.0824 24.552 48.1139 23.6497 48.1506 22.7482L48.1499 22.7475ZM45.7206 21.864C45.8279 21.4387 45.9629 21.0217 46.0934 20.5732C44.6001 21.0285 43.1316 21.5542 41.6519 22.0672C41.6699 22.11 41.6804 22.1415 41.6961 22.1715C41.9939 22.734 42.2136 23.328 42.3584 23.946C42.4041 24.1402 42.5031 24.2407 42.6779 24.2947C42.7214 24.3082 42.7641 24.3255 42.8069 24.3397C43.2104 24.4695 43.6251 24.4912 44.0429 24.4522C44.5094 24.4087 44.9451 24.2677 45.3426 24.0112C45.4731 23.9265 45.5354 23.829 45.5301 23.6632C45.5114 23.0557 45.5721 22.4535 45.7206 21.864ZM45.2939 25.4895C45.3299 25.2712 45.3546 25.0507 45.3884 24.8017C44.9211 24.999 44.4659 25.1325 43.9829 25.164C43.4984 25.1962 43.0274 25.1355 42.5414 24.9952C42.5376 25.0642 42.5346 25.1092 42.5331 25.1542C42.5016 25.8217 42.4784 26.49 42.4364 27.1567C42.4004 27.7267 42.3456 28.2952 42.2946 28.8645C42.2249 29.6437 42.1581 30.4237 42.0749 31.2015C41.9744 32.1442 41.8566 33.0847 41.7501 34.0267C41.5881 35.4637 41.3271 36.8842 41.0481 38.3017C41.0039 38.5267 40.9611 38.5095 41.2131 38.664C41.2326 38.676 41.2529 38.6865 41.2731 38.697C41.9631 39.039 42.6816 39.2272 43.4579 39.0967C44.0256 39.0015 44.5416 38.7877 44.9961 38.43C45.0839 38.361 45.1251 38.283 45.1184 38.1675C45.0974 37.8307 45.0854 37.4947 45.0704 37.158C45.0314 36.2392 44.9916 35.3205 44.9556 34.4017C44.8971 32.8995 44.8979 31.3972 44.9421 29.895C44.9631 29.1697 45.0216 28.4467 45.0681 27.7222C45.1161 26.976 45.1724 26.2297 45.2931 25.4902L45.2939 25.4895ZM42.2916 49.7242C42.2864 49.236 42.2474 48.7815 42.1544 48.3322C42.0126 47.6475 41.7674 47.0077 41.3579 46.4355C41.1666 46.1685 40.9244 45.9667 40.6229 45.8392C40.4399 45.762 40.2539 45.7395 40.0536 45.7747C39.6816 45.84 39.4154 46.065 39.1664 46.3222C39.0419 46.4512 38.9511 46.6012 38.8956 46.7737C38.5664 47.796 38.4584 48.8385 38.6309 49.9012C38.7269 50.4915 38.9099 51.054 39.2241 51.5692C39.4881 52.0027 39.8279 52.356 40.2869 52.5847C40.4316 52.6567 40.5831 52.7025 40.7466 52.7055C41.1666 52.7137 41.4561 52.488 41.6916 52.1737C41.8431 51.9705 41.9406 51.738 42.0216 51.4995C42.2204 50.9137 42.2864 50.3092 42.2916 49.725V49.7242ZM41.8176 24.564C41.8176 24.5025 41.8049 24.4395 41.7861 24.381C41.7524 24.273 41.7029 24.1695 41.6721 24.06C41.5176 23.5147 41.3391 22.98 41.0631 22.482C41.0339 22.4287 41.0001 22.377 40.9664 22.3207C40.8711 22.3545 40.7916 22.3875 40.7106 22.41C40.5719 22.4497 40.4616 22.5097 40.4459 22.6747C40.4414 22.7235 40.4114 22.7707 40.3904 22.818C39.8721 24.0112 39.4866 25.2457 39.2436 26.5245C39.2301 26.5957 39.2061 26.6692 39.1694 26.7315C39.1356 26.7892 39.1169 26.8402 39.1304 26.9077C39.1394 26.9512 39.1341 26.9992 39.1296 27.0442C39.0554 27.7485 38.9789 28.452 38.9054 29.1562C38.8919 29.286 38.8866 29.4165 38.8769 29.5575C39.7124 29.9385 40.5494 30.2947 41.4246 30.618C41.4441 30.4117 41.4606 30.231 41.4779 30.051C41.6084 28.698 41.7501 27.345 41.8019 25.986C41.8199 25.5127 41.8154 25.038 41.8176 24.564ZM39.5309 23.0475C39.5526 22.9912 39.5744 22.935 39.6089 22.8457C37.9379 23.4975 36.3314 24.1972 34.7451 24.9877C34.7579 25.0237 34.7639 25.0455 34.7736 25.065C35.0264 25.5585 35.2274 26.0737 35.4036 26.5987C35.4291 26.6745 35.4734 26.7285 35.5431 26.7615C35.6204 26.7975 35.6961 26.838 35.7771 26.8627C36.0621 26.949 36.3524 27.0067 36.6516 27.009C37.3019 27.015 37.9034 26.8507 38.4531 26.5005C38.5214 26.457 38.5581 26.4052 38.5701 26.325C38.5896 26.1952 38.6144 26.0662 38.6429 25.9387C38.8649 24.9517 39.1619 23.988 39.5301 23.046L39.5309 23.0475ZM38.5116 42.1417C38.5979 42.0817 38.6279 42.021 38.6061 41.9145C38.5589 41.6797 38.5266 41.4412 38.4869 41.205C38.3009 40.0762 38.2004 38.9377 38.1516 37.7962C38.0984 36.5467 38.0549 35.2957 38.0459 34.0447C38.0376 32.9085 38.0639 31.7715 38.1111 30.6352C38.1471 29.757 38.2379 28.881 38.3061 28.0042C38.3226 27.7957 38.3474 27.5887 38.3714 27.3532C37.4211 27.7545 36.4754 27.837 35.4876 27.5077C35.4831 27.5977 35.4809 27.654 35.4779 27.711C35.4261 28.6635 35.3826 29.616 35.3211 30.5685C35.2679 31.395 35.1966 32.22 35.1299 33.0457C35.0594 33.9225 34.9919 34.7992 34.9094 35.6752C34.8179 36.6532 34.7166 37.6305 34.6094 38.607C34.5321 39.3105 34.4414 40.0132 34.3514 40.7152C34.2966 41.1457 34.2344 41.5755 34.1699 42.0045C34.1541 42.108 34.1766 42.1822 34.2674 42.234C34.4009 42.3105 34.5276 42.4035 34.6679 42.4627C35.4441 42.7905 36.2466 42.909 37.0799 42.7312C37.5921 42.6217 38.0781 42.447 38.5116 42.1425V42.1417ZM34.7789 27.4552C34.7804 27.246 34.7924 27.0247 34.7346 26.8282C34.5959 26.358 34.4106 25.9027 34.1871 25.4647C34.1721 25.4355 34.1459 25.4115 34.1144 25.3725C33.9254 26.6047 33.6801 29.8342 33.7319 30.4267C34.0379 30.2932 34.3386 30.162 34.6499 30.0262C34.6559 29.9737 34.6664 29.9122 34.6701 29.85C34.6971 29.4172 34.7264 28.9845 34.7466 28.551C34.7639 28.1865 34.7774 27.8212 34.7796 27.456L34.7789 27.4552ZM33.0299 29.919C33.0771 28.5007 33.2091 27.0892 33.3621 25.6507C33.1079 25.7752 32.8844 25.8847 32.6909 25.9792C32.6399 26.1277 32.6039 26.2477 32.5589 26.3632C32.4921 26.5327 32.4104 26.6977 32.3496 26.8695C32.1554 27.4177 31.9679 27.9675 31.7796 28.5172C31.7691 28.5487 31.7691 28.5847 31.7669 28.6185C31.7339 29.1427 31.6859 29.6662 31.6724 30.1912C31.6356 31.5667 31.6139 32.943 31.5869 34.3185C31.5824 34.5345 31.6244 34.575 31.8396 34.5772C31.8734 34.5772 31.9086 34.5787 31.9424 34.5727C32.3046 34.5067 32.6496 34.3957 32.9781 34.1715C32.9099 32.7495 32.9841 31.335 33.0314 29.9205L33.0299 29.919ZM31.6994 26.5965C31.7121 26.5575 31.7204 26.5177 31.7384 26.4502C31.5741 26.5387 31.4399 26.6145 31.3034 26.6835C31.1894 26.7405 31.0686 26.7817 30.9411 26.7352C30.7649 26.6715 30.5871 26.6092 30.4169 26.5327C28.9634 25.884 27.4949 25.272 26.0174 24.6817C25.9709 24.6637 25.9236 24.6487 25.8411 24.6195C25.8966 24.7507 25.9371 24.8445 25.9769 24.939C26.3669 25.8555 26.6474 26.8072 26.8836 27.7717C26.9534 28.056 27.1011 28.2232 27.3629 28.314C27.4116 28.3305 27.4589 28.3507 27.5076 28.368C28.3874 28.6732 29.2821 28.7122 30.1904 28.5225C30.5106 28.4557 30.8181 28.3552 31.0949 28.1737C31.1586 28.1317 31.2029 28.0867 31.2284 28.008C31.3814 27.5362 31.5426 27.0675 31.7009 26.5972L31.6994 26.5965ZM31.3011 46.0485C31.3041 46.02 31.3079 46.0087 31.3056 45.9982C31.1309 45.0352 31.0341 44.0625 30.9899 43.0875C30.9269 41.6835 30.8661 40.2787 30.8579 38.8732C30.8384 35.634 30.8751 32.394 31.0176 29.157C31.0199 29.1142 31.0139 29.0715 31.0109 29.016C30.3719 29.2417 29.7269 29.3407 29.0646 29.337C28.3986 29.3332 27.7544 29.211 27.1131 28.9785C27.1131 29.0692 27.1131 29.1322 27.1131 29.1945C27.1161 29.8515 27.1296 30.5085 27.1206 31.1655C27.0996 32.6625 27.0741 34.1587 27.0359 35.6557C27.0096 36.6892 26.9684 37.7227 26.9159 38.7555C26.8611 39.822 26.7839 40.8877 26.7179 41.9542C26.6354 43.2885 26.5551 44.6227 26.4704 45.957C26.4644 46.047 26.4944 46.0987 26.5649 46.1377C26.6204 46.1677 26.6751 46.1985 26.7321 46.2247C27.0299 46.359 27.3404 46.4535 27.6591 46.524C28.3086 46.668 28.9589 46.7745 29.6286 46.6785C30.2324 46.5915 30.7889 46.3897 31.3004 46.0507L31.3011 46.0485ZM30.4754 25.7902C30.4379 24.2452 30.4004 22.7287 30.3636 21.2175C30.2939 21.186 30.2421 21.162 30.1904 21.1387C29.5671 20.8642 28.9664 20.5477 28.3926 20.1817C27.0111 19.299 25.7391 18.2775 24.5556 17.1442C23.8041 16.425 23.0766 15.6817 22.4406 14.8545C22.4294 14.8402 22.4084 14.8335 22.3761 14.814C22.3761 14.9017 22.3761 14.97 22.3761 15.0382C22.3761 15.1065 22.3806 15.1762 22.3724 15.2437C22.3626 15.3285 22.3544 15.4162 22.3244 15.4942C22.2704 15.6345 22.1271 15.711 21.9801 15.696C21.8309 15.6817 21.7154 15.5805 21.6824 15.4297C21.6711 15.375 21.6681 15.3165 21.6696 15.2595C21.6921 14.3962 21.6651 13.5345 21.5541 12.6772C21.4356 11.7585 21.1806 10.8787 20.7809 10.0425C20.5521 9.56471 20.2679 9.12371 19.8591 8.77721C19.2621 8.27171 18.5714 8.06321 17.8011 8.21321C17.0774 8.35421 16.5036 8.73221 16.1474 9.39971C16.0304 9.61796 15.9479 9.84596 15.8961 10.089C15.8511 10.299 15.6884 10.4047 15.4941 10.3732C15.3096 10.3432 15.1919 10.176 15.2136 9.96671C15.2219 9.88721 15.2376 9.80771 15.2609 9.73196C15.2864 9.65021 15.2819 9.57746 15.2391 9.50246C15.0591 9.19121 14.8934 8.87171 14.7006 8.56796C14.4576 8.18621 14.1321 7.88096 13.7294 7.66946C13.2171 7.40096 12.7139 7.39871 12.2279 7.74446C11.9729 7.92521 11.7539 8.13896 11.5806 8.39846C11.1441 9.05471 10.9259 9.78896 10.8209 10.5615C10.7091 11.3835 10.7391 12.2025 10.8809 13.0185C10.9056 13.1587 10.9236 13.302 10.9191 13.4437C10.9139 13.6342 10.7691 13.767 10.5899 13.773C10.4061 13.779 10.2659 13.6597 10.2366 13.4685C10.1916 13.1692 10.1496 12.8692 10.1076 12.57C10.0986 12.5047 10.0919 12.4395 10.0821 12.3517C9.33887 12.8062 8.57762 13.1617 7.77212 13.4287C6.96437 13.6965 6.14987 13.929 5.28512 14.0047C5.59787 15.5295 5.76662 17.0542 5.90162 18.588C6.75362 18.6817 7.60337 18.7335 8.44262 18.897C8.56562 18.7807 8.67362 18.6712 8.78987 18.57C8.87387 18.4972 8.97512 18.4545 9.08987 18.4717C9.22487 18.492 9.32537 18.5655 9.36812 18.696C9.41762 18.846 9.38012 18.9832 9.25862 19.083C9.05537 19.2495 8.92037 19.4647 8.79212 19.6897C8.20487 20.7165 8.44337 22.2202 9.64337 22.9875C10.6596 23.637 11.7651 23.9767 12.9764 23.988C14.0294 23.9985 15.0606 23.8507 16.0821 23.6182C17.8656 23.2125 19.5681 22.5735 21.2196 21.795C21.3231 21.7462 21.4199 21.684 21.5234 21.6367C21.6891 21.561 21.8691 21.6127 21.9629 21.7552C22.0574 21.8992 22.0334 22.0815 21.8991 22.206C21.8579 22.2442 21.8061 22.272 21.7596 22.305C21.7266 22.329 21.6944 22.353 21.6479 22.3875C24.6711 23.3287 27.5736 24.5175 30.4739 25.7902H30.4754ZM29.4554 55.9852C29.4554 55.9282 29.4569 55.9005 29.4554 55.8735C29.4126 55.2007 29.3691 54.5287 29.3256 53.856C29.2356 52.4707 29.1426 51.0862 29.0571 49.701C29.0489 49.569 29.0076 49.5037 28.8786 49.4565C27.9359 49.1107 26.9924 48.7665 26.0564 48.4012C23.1434 47.265 20.2356 46.1137 17.3219 44.9797C15.0989 44.1142 12.8699 43.266 10.6439 42.4095C9.41912 41.9377 8.18912 41.4772 7.02962 40.8547C7.00862 40.8435 6.98162 40.8427 6.94787 40.8345C6.95162 40.8787 6.95237 40.9065 6.95612 40.935C7.09112 42.0052 7.22837 43.0755 7.36112 44.1465C7.40312 44.481 7.43462 44.8162 7.47287 45.1507C7.48112 45.2227 7.48487 45.2925 7.56962 45.3345C8.06462 45.5812 8.55737 45.8332 9.06962 46.0935C9.13112 46.0057 9.18212 45.9307 9.23462 45.8572C9.37937 45.6525 9.52037 45.4492 9.74687 45.3165C10.3679 44.9512 11.0324 44.7247 11.7531 44.6865C12.7529 44.6332 13.6619 44.922 14.4869 45.471C14.9136 45.7552 15.2624 46.1287 15.5061 46.587C15.8661 47.262 15.9899 47.9842 15.9081 48.7425C15.8924 48.8887 15.8714 49.0342 15.8526 49.182C15.8864 49.2015 15.9104 49.2165 15.9351 49.2292C16.4016 49.4707 16.8636 49.722 17.3354 49.9515C19.2501 50.8822 21.1769 51.7875 23.0676 52.7677C24.4004 53.4592 25.7451 54.1267 27.0846 54.804C27.7926 55.1617 28.5014 55.5187 29.2101 55.875C29.2844 55.9125 29.3616 55.944 29.4561 55.9875L29.4554 55.9852ZM26.3571 34.9687C26.4179 32.8672 26.4269 30.765 26.4171 28.6627C26.4171 28.623 26.4246 28.5727 26.4044 28.5465C26.3144 28.4332 26.3039 28.2967 26.2686 28.1647C26.1381 27.6735 26.0024 27.1845 25.8576 26.6977C25.6364 25.9522 25.3769 25.221 25.0049 24.5355C24.9756 24.4815 24.9494 24.4192 24.9441 24.3592C24.9366 24.2745 24.8894 24.2437 24.8196 24.2182C24.3899 24.0645 23.9609 23.9085 23.5311 23.7547C23.4974 23.7427 23.4591 23.7435 23.4111 23.736C23.4149 23.8072 23.4171 23.8635 23.4209 23.9197C23.4726 24.735 23.5281 25.5495 23.5761 26.3655C23.6204 27.1237 23.6564 27.8827 23.6961 28.641C23.7374 29.4337 23.7794 30.2265 23.8184 31.02C23.8566 31.8015 23.8881 32.5837 23.9301 33.3652C23.9901 34.4782 24.0066 35.592 23.9714 36.7057C23.9669 36.8452 24.0096 36.9262 24.1116 37.0065C24.4859 37.3027 24.9186 37.449 25.3821 37.5217C25.6716 37.5675 25.9604 37.5795 26.2649 37.4985C26.2701 37.428 26.2769 37.3717 26.2784 37.3155C26.3054 36.5332 26.3339 35.7517 26.3571 34.9687ZM23.2476 33.9757C23.2589 33.3277 22.7586 23.9842 22.6806 23.4457C22.0289 23.2462 21.3756 23.0445 20.7194 22.8495C20.5739 22.806 20.5214 22.8555 20.5274 23.0145C20.5619 24.0075 20.5926 25.0012 20.6369 25.9935C20.6834 27.0375 20.7434 28.0807 20.7981 29.1247C20.8349 29.826 20.8694 30.5272 20.9121 31.2285C20.9751 32.283 21.0434 33.3375 21.1101 34.392C21.1199 34.539 21.1326 34.686 21.1446 34.8495C21.8654 34.5757 22.5674 34.2982 23.2476 33.9757ZM22.0356 41.727C22.1459 41.6497 22.2441 41.5552 22.3514 41.4652C21.2601 38.4742 20.1749 35.4997 19.0821 32.5057C19.0401 32.673 19.0034 32.8275 18.9629 32.9812C18.6081 34.3275 18.2489 35.673 17.9001 37.0215C17.5911 38.2147 17.2971 39.4117 16.9889 40.6057C16.8689 41.07 16.7301 41.529 16.5996 41.9902C16.5554 42.1477 16.5554 42.1522 16.7009 42.231C16.7864 42.2767 16.8741 42.318 16.9641 42.3532C17.9481 42.7365 18.9584 42.8122 19.9934 42.6135C20.7404 42.4695 21.4154 42.1627 22.0349 41.727H22.0356ZM20.3054 33.8107C20.3196 33.8527 20.3391 33.8925 20.3556 33.933C20.1576 30.351 19.9454 26.7772 19.8254 23.1697C18.6246 23.6475 17.4119 24.036 16.1586 24.3247C16.1676 24.4305 16.1721 24.5205 16.1819 24.6105C16.2104 24.8715 16.2434 25.1325 16.2689 25.3935C16.3551 26.286 16.4429 27.1785 16.5231 28.071C16.6026 28.9582 16.6746 29.8462 16.7489 30.7342C16.8224 31.6162 16.8929 32.499 16.9694 33.381C17.0564 34.377 17.1486 35.3722 17.2386 36.3675C17.2446 36.4305 17.2544 36.4935 17.2626 36.5565C17.3069 36.501 17.3219 36.447 17.3361 36.3922C17.5026 35.751 17.6669 35.1097 17.8364 34.47C18.0974 33.4822 18.3936 32.5035 18.5811 31.4977C18.6186 31.296 18.7094 31.1572 18.8961 31.0627C19.1451 30.936 19.3664 31.014 19.4511 31.2795C19.4894 31.3995 19.5186 31.521 19.5591 31.6402C19.8066 32.364 20.0556 33.087 20.3046 33.8107H20.3054ZM16.5404 7.96796C16.8809 7.76096 17.2484 7.61396 17.6264 7.52021C17.3894 7.00796 17.1516 6.51521 16.9319 6.01421C16.7106 5.50946 16.5081 4.99646 16.2966 4.48496C15.7566 5.48321 15.2189 6.47771 14.6759 7.48046C15.1019 7.84571 15.3951 8.31296 15.6704 8.81396C15.9246 8.47196 16.1946 8.17871 16.5396 7.96796H16.5404ZM16.5381 36.4245C16.5359 36.3652 16.5351 36.3367 16.5329 36.309C16.4669 35.5867 16.3994 34.8645 16.3356 34.1422C16.2846 33.5677 16.2389 32.9925 16.1901 32.418C16.1151 31.542 16.0394 30.666 15.9651 29.7892C15.9029 29.0497 15.8481 28.3087 15.7791 27.57C15.6966 26.6887 15.6029 25.809 15.5136 24.9285C15.4986 24.7777 15.4769 24.627 15.4596 24.483C14.8364 24.558 14.2326 24.6307 13.6289 24.7035C13.5621 25.611 14.7704 36.4432 15.0044 36.9637C15.5129 36.786 16.0229 36.6067 16.5396 36.426L16.5381 36.4245ZM15.2264 48.4837C15.2354 48.039 15.1836 47.6962 15.0914 47.3947C14.9069 46.7947 14.5409 46.323 14.0174 45.999C12.9576 45.3427 11.8311 45.165 10.6484 45.6472C10.3019 45.789 9.94337 45.93 9.77387 46.311C9.31412 46.9185 9.09662 47.6137 9.05087 48.3637C9.01187 49.0102 9.11162 49.629 9.51437 50.1652C9.95312 50.7502 10.5404 51.123 11.2416 51.297C12.1266 51.5175 12.9764 51.3712 13.7804 50.9572C14.0774 50.805 14.3286 50.5852 14.5326 50.319C14.9766 49.74 15.2339 49.0935 15.2271 48.4822L15.2264 48.4837ZM14.5491 40.209C14.7831 40.0537 14.7764 40.0552 14.7284 39.7852C14.6159 39.15 14.5019 38.5147 14.4044 37.878C14.2431 36.828 14.0886 35.7772 13.9431 34.7257C13.8449 34.0192 13.7624 33.3097 13.6799 32.601C13.5929 31.8525 13.5096 31.1032 13.4316 30.3532C13.3394 29.4615 13.2524 28.569 13.1669 27.6765C13.1009 26.9827 13.0394 26.289 12.9771 25.5952C12.9509 25.3005 12.9291 25.005 12.9066 24.7245C12.3906 24.6502 11.8866 24.5955 11.3894 24.501C10.8846 24.4057 10.4174 24.186 9.93362 23.9655C9.95912 24.2797 9.98537 24.5692 10.0049 24.8595C10.0941 26.187 10.1886 27.5145 10.2681 28.8427C10.3274 29.835 10.3701 30.828 10.4151 31.821C10.4691 33.0135 10.5246 34.206 10.5666 35.3992C10.6206 36.9577 10.6626 38.517 10.7061 40.0755C10.7084 40.1662 10.7346 40.2315 10.8156 40.269C11.0121 40.359 11.2034 40.4655 11.4074 40.533C12.0381 40.7407 12.6854 40.752 13.3386 40.6582C13.7744 40.5952 14.1801 40.4542 14.5484 40.2105L14.5491 40.209Z" fill="#2E2521"/>
<path d="M54.4881 35.7908C54.4836 35.853 54.4844 35.8905 54.4784 35.9273C54.1634 37.773 53.8484 39.6188 53.5326 41.4653C53.4974 41.673 53.4569 41.8808 53.4276 42.09C53.4126 42.1958 53.3624 42.261 53.2731 42.318C52.4736 42.8265 51.6756 43.338 50.8784 43.851C50.6909 43.9718 50.5079 44.0985 50.3264 44.2268C50.2589 44.2748 50.1959 44.2913 50.1081 44.2898C49.8599 44.2853 49.6101 44.298 49.3626 44.3183C48.7311 44.3693 48.0996 44.4323 47.4681 44.481C46.5741 44.55 45.6801 44.6115 44.7854 44.6738C44.1981 44.715 43.6116 44.751 43.0244 44.79C42.1409 44.8485 41.2566 44.892 40.3754 44.9723C39.6111 45.0413 38.9931 45.4058 38.5154 46.008C38.3676 46.194 38.2671 46.401 38.1989 46.6283C37.9169 47.574 37.7961 48.5378 37.8741 49.5225C37.9116 49.9913 38.0144 50.4473 38.1539 50.8958C38.1689 50.9438 38.1839 50.9933 38.2034 51.0578C38.0991 51.117 37.9986 51.18 37.8936 51.2348C36.5706 51.9225 35.2986 52.6995 34.0079 53.4443C32.7441 54.1733 31.5441 54.996 30.3606 55.8458C30.3059 55.8848 30.2511 55.923 30.1664 55.983C30.0209 53.7503 29.8769 51.5573 29.7336 49.356C29.8934 49.254 30.0441 49.1513 30.2009 49.059C31.2044 48.468 32.2056 47.8725 33.2151 47.292C34.2989 46.6688 35.3841 46.0463 36.4829 45.45C37.6866 44.7968 38.9084 44.1758 40.1204 43.536C42.0141 42.5378 43.9056 41.5358 45.7784 40.497C47.5859 39.495 49.4001 38.505 51.2354 37.554C52.2441 37.032 53.2341 36.4733 54.2324 35.931C54.3119 35.8875 54.3906 35.844 54.4896 35.79L54.4881 35.7908Z" fill="#7A8125"/>
<path d="M54.2908 35.0823C54.2428 35.1145 54.2053 35.1453 54.1633 35.1685C53.0248 35.7873 51.887 36.4083 50.7455 37.0225C49.559 37.6615 48.3673 38.29 47.1815 38.9298C45.137 40.0338 43.0993 41.1513 41.051 42.2478C39.3245 43.1718 37.5785 44.0598 35.8573 44.992C34.5425 45.7045 33.2473 46.4553 31.952 47.2038C31.1068 47.692 30.2765 48.2065 29.4403 48.7105C29.2895 48.8013 29.147 48.8148 28.973 48.751C25.6018 47.515 22.286 46.138 18.9373 44.845C17.0098 44.101 15.0763 43.3743 13.1488 42.6295C11.717 42.076 10.2883 41.5143 8.86405 40.9413C8.39905 40.7545 7.95205 40.5213 7.49755 40.3075C7.4593 40.2895 7.4248 40.2625 7.37305 40.2303C8.25055 39.8913 9.10855 39.5598 9.9853 39.2215C9.98905 39.289 9.99355 39.349 9.9943 39.4098C9.9988 39.661 10.0078 39.9123 10.0055 40.1643C10.0025 40.42 10.109 40.615 10.3063 40.768C10.5815 40.981 10.895 41.1175 11.225 41.2143C12.1535 41.4865 13.085 41.4768 14.015 41.2248C14.399 41.1205 14.747 40.9368 15.068 40.702C15.1093 40.672 15.1468 40.6353 15.1888 40.606C15.4648 40.4118 15.506 40.1358 15.4528 39.8313C15.3688 39.3535 15.278 38.8765 15.1933 38.3988C15.152 38.1625 15.119 37.9248 15.0808 37.6735C15.5743 37.5048 16.0685 37.336 16.5755 37.1628C16.5853 37.1958 16.6033 37.2303 16.6055 37.2663C16.6453 37.75 16.685 38.2345 16.7195 38.7183C16.724 38.7843 16.7105 38.8548 16.6933 38.92C16.4338 39.8965 16.181 40.8745 15.9065 41.8473C15.8008 42.2223 15.9328 42.6063 16.2763 42.8005C16.6325 43.0023 17.0128 43.1403 17.4073 43.2363C18.638 43.5363 19.8545 43.48 21.047 43.045C21.581 42.85 22.0753 42.5755 22.5298 42.2343C22.6708 42.1285 22.8155 42.0228 22.8808 41.845C22.8898 41.8203 22.9138 41.7993 22.9355 41.7813C23.0923 41.653 23.102 41.4925 23.0398 41.3163C22.8583 40.8048 22.6813 40.2925 22.4938 39.784C22.0745 38.6485 21.6508 37.5153 21.227 36.3813C21.191 36.2838 21.1625 36.1915 21.197 36.0835C21.2165 36.0213 21.2023 35.9478 21.1993 35.8795C21.1948 35.7888 21.1873 35.698 21.1798 35.602C21.8788 35.3185 22.5688 35.038 23.267 34.7545C23.2723 34.798 23.2805 34.837 23.2798 34.8753C23.2745 35.5263 23.2738 36.178 23.2595 36.8283C23.255 37.0503 23.3173 37.2288 23.4778 37.3803C23.9173 37.7965 24.44 38.0478 25.0295 38.1685C25.3723 38.239 25.7173 38.2773 26.0675 38.2435C26.117 38.2383 26.168 38.2435 26.2333 38.2435C26.2333 38.293 26.2355 38.3365 26.2333 38.38C26.1628 39.526 26.09 40.672 26.0203 41.818C25.9445 43.0668 25.871 44.3155 25.7983 45.5643C25.787 45.7638 25.7825 45.9633 25.775 46.1628C25.7698 46.297 25.826 46.405 25.9153 46.501C26.0578 46.654 26.2303 46.7628 26.4185 46.8505C26.8355 47.0448 27.2743 47.1693 27.725 47.2503C28.0618 47.311 28.4 47.3748 28.7405 47.3995C29.8055 47.476 30.791 47.2225 31.6865 46.636C31.7915 46.5678 31.8913 46.489 31.9813 46.402C32.1418 46.2445 32.15 46.087 32.0323 45.8935C32.0038 45.8463 31.9828 45.7908 31.9738 45.7368C31.8568 45.0498 31.7833 44.3568 31.733 43.6615C31.5335 40.912 31.5395 38.1588 31.5658 35.4048C31.5658 35.3605 31.5725 35.3163 31.577 35.263C32.0503 35.3275 32.4763 35.1873 32.8955 35.014C33.011 34.966 33.1198 34.9015 33.23 34.8408C33.3313 34.7853 33.4213 34.7155 33.4715 34.6053C33.4813 34.585 33.4918 34.5618 33.509 34.549C33.665 34.438 33.6778 34.2775 33.6733 34.105C33.647 33.1795 33.6358 32.254 33.6868 31.3293C33.6898 31.279 33.6935 31.2288 33.6965 31.189C33.9965 31.0675 34.2845 30.9513 34.5868 30.829C34.5868 30.8875 34.5898 30.9318 34.5868 30.9745C34.5088 31.9938 34.4353 33.0138 34.349 34.033C34.2598 35.086 34.1653 36.1383 34.0588 37.1898C33.9733 38.0365 33.8713 38.8818 33.7678 39.7263C33.6793 40.4515 33.578 41.1753 33.482 41.9005C33.476 41.9455 33.4738 41.9928 33.4573 42.0348C33.3665 42.2673 33.4573 42.4458 33.6215 42.6025C33.8255 42.7975 34.0543 42.9603 34.3123 43.0728C35.8175 43.7283 37.2868 43.6608 38.7163 42.8433C38.81 42.7893 38.8948 42.7195 38.987 42.6625C39.2735 42.4863 39.3403 42.2125 39.3095 41.9073C39.2863 41.6688 39.2375 41.4333 39.1993 41.197C39.0508 40.2828 38.9578 39.3633 38.894 38.4393C38.798 37.0533 38.7575 35.6658 38.7523 34.2775C38.747 33.061 38.7845 31.8445 38.8048 30.6273C38.8063 30.5313 38.8175 30.4345 38.825 30.3213C39.6703 30.6678 40.4998 31.0075 41.3503 31.3563C41.3443 31.4373 41.3405 31.5325 41.3285 31.627C41.2025 32.6875 41.0945 33.7503 40.9415 34.807C40.7945 35.818 40.6003 36.8215 40.4263 37.8288C40.3873 38.0538 40.3505 38.2795 40.3085 38.5038C40.28 38.656 40.3153 38.7933 40.4195 38.9005C40.5343 39.0183 40.6513 39.145 40.7923 39.2238C42.164 39.9873 43.5523 40.0735 44.9518 39.2973C45.1258 39.2005 45.293 39.0873 45.446 38.9605C45.563 38.8638 45.6673 38.743 45.7483 38.6155C45.7993 38.5353 45.8195 38.4213 45.818 38.323C45.812 37.9405 45.7933 37.558 45.7775 37.1755C45.7325 36.034 45.6845 34.8925 45.6425 33.7503C45.6275 33.3565 45.6253 32.962 45.6178 32.5675C45.617 32.5113 45.6178 32.4543 45.6178 32.3553C46.2103 32.5728 46.7765 32.7805 47.369 32.9973C47.3563 33.1315 47.3458 33.2883 47.3255 33.4443C47.2273 34.1973 47.1283 34.9503 47.0255 35.7025C47.0045 35.857 47.0375 35.9913 47.1583 36.088C47.2595 36.169 47.3683 36.2485 47.486 36.3018C47.9518 36.5133 48.4453 36.5883 48.9545 36.5778C49.4623 36.5673 49.9528 36.4713 50.426 36.2898C50.543 36.2448 50.6593 36.1945 50.7673 36.1308C50.9983 35.995 51.137 35.8 51.1415 35.5203C51.1483 35.1033 51.1633 34.6863 51.1745 34.27C51.176 34.2025 51.1745 34.1343 51.1745 34.0668C51.332 34.0683 53.999 34.9383 54.2923 35.0808L54.2908 35.0823Z" fill="#7A8125"/>
<path d="M53.6842 12.6641C53.8199 14.3793 53.9542 16.0691 54.0899 17.7761C53.8709 17.8346 53.6632 17.8946 53.4539 17.9448C51.9172 18.3176 50.3774 18.6738 48.8444 19.0623C46.6852 19.6091 44.5724 20.3081 42.4679 21.0371C40.3034 21.7871 38.1682 22.6106 36.0907 23.5743C34.4909 24.3168 32.9129 25.1066 31.3252 25.8753C31.2854 25.8941 31.2449 25.9113 31.1797 25.9413C31.1414 24.3641 31.1032 22.8086 31.0657 21.2426C31.1992 21.2006 31.3192 21.1646 31.4369 21.1248C33.1064 20.5563 34.7834 20.0103 36.4424 19.4141C38.7569 18.5823 41.0692 17.7416 43.3627 16.8521C45.7094 15.9423 48.0322 14.9718 50.3647 14.0246C51.4222 13.5948 52.4767 13.1568 53.5319 12.7226C53.5739 12.7053 53.6167 12.6903 53.6842 12.6641Z" fill="#7A8125"/>
<path d="M53.2154 12.0391C53.2251 12.0428 53.2334 12.0518 53.2544 12.0683C53.2064 12.0923 53.1644 12.1163 53.1201 12.1343C49.6326 13.5578 46.1639 15.0293 42.6479 16.3816C40.9169 17.0476 39.1649 17.6596 37.4286 18.3113C35.5529 19.0156 33.6539 19.6531 31.7556 20.2928C31.4474 20.3971 31.1339 20.4841 30.8256 20.5876C30.7499 20.6131 30.6951 20.5913 30.6321 20.5643C29.7854 20.2111 28.9911 19.7618 28.2374 19.2413C26.4321 17.9948 24.8061 16.5481 23.3706 14.8883C23.0069 14.4683 22.6866 14.0183 22.4241 13.5263C22.3476 13.3831 22.3199 13.2428 22.3064 13.0898C22.1864 11.7481 21.8451 10.4723 21.1769 9.29407C20.9901 8.96407 20.7584 8.66707 20.4876 8.40157C19.9469 7.86982 19.3034 7.55482 18.5451 7.48582C18.4656 7.47832 18.4139 7.45732 18.3704 7.37857C17.8431 6.41407 17.4096 5.40907 17.0256 4.38082C17.0099 4.33882 16.9986 4.29457 16.9739 4.21582C17.2034 4.26532 17.4021 4.31032 17.6016 4.35082C18.5646 4.54432 19.5314 4.71457 20.5094 4.81657C21.5204 4.92307 22.5314 5.02282 23.5446 5.11132C24.1536 5.16382 24.7641 5.19232 25.3746 5.22457C26.2416 5.27032 27.1086 5.31382 27.9764 5.35132C28.5299 5.37532 29.0841 5.38957 29.6384 5.40307C31.2089 5.44132 32.7794 5.49007 34.3499 5.50882C36.1491 5.53057 37.9491 5.53432 39.7484 5.52457C40.4444 5.52082 41.1404 5.46232 41.8364 5.42707C41.9504 5.42107 42.0636 5.39857 42.1769 5.39632C42.2204 5.39632 42.2811 5.41732 42.3066 5.44957C42.8931 6.20407 43.6079 6.82507 44.3519 7.41607C45.5144 8.34082 46.7774 9.10432 48.0951 9.78457C49.5426 10.5323 51.0254 11.1976 52.5441 11.7841C52.7676 11.8703 52.9926 11.9528 53.2169 12.0376L53.2154 12.0391Z" fill="#B4BD57"/>
<path d="M52.095 18.9775C52.0125 19.177 51.9412 19.3435 51.8737 19.5123C51.5692 20.2713 51.3277 21.049 51.1942 21.8568C51.1695 22.0038 51.102 22.0878 50.9722 22.147C50.472 22.378 49.9492 22.4568 49.404 22.387C49.2795 22.3713 49.1572 22.3428 49.0342 22.3173C48.8355 22.2753 48.723 22.1568 48.6817 21.9535C48.546 21.286 48.33 20.644 48.021 20.0088C49.3642 19.6338 50.7105 19.306 52.0942 18.9775H52.095Z" fill="#B4BD57"/>
<path d="M51.062 47.3464C51.0853 48.5164 50.8093 49.6219 50.2865 50.6652C50.2048 50.8279 50.1005 50.9794 50.0038 51.1339C49.8553 51.3709 49.613 51.4977 49.3843 51.6357C49.3258 51.6709 49.2403 51.6657 49.1668 51.6717C48.4775 51.7219 47.7868 51.7557 47.0998 51.8224C46.259 51.9042 45.419 51.9979 44.582 52.1134C43.8763 52.2117 43.175 52.3489 42.4723 52.4689C42.4393 52.4749 42.4063 52.4794 42.3583 52.4869C42.365 52.4569 42.3643 52.4352 42.3733 52.4187C42.7003 51.8614 42.8608 51.2502 42.935 50.6164C43.0663 49.4952 42.9778 48.3919 42.5998 47.3217C42.3808 46.7029 42.0733 46.1322 41.6105 45.6552C41.5993 45.6439 41.5933 45.6267 41.5723 45.5907C41.7718 45.5757 41.9473 45.5614 42.1228 45.5502C43.0685 45.4879 44.015 45.4294 44.9608 45.3642C46.0655 45.2877 47.171 45.2104 48.2758 45.1227C48.7993 45.0814 49.3205 45.0169 49.8425 44.9569C49.9273 44.9472 49.985 44.9772 50.0458 45.0207C50.294 45.1954 50.48 45.4234 50.624 45.6882C50.9038 46.2049 51.0515 46.7622 51.0628 47.3457L51.062 47.3464Z" fill="#2E2521"/>
<path d="M51.1274 22.8601C51.0906 23.1519 51.0524 23.4279 51.0224 23.7046C50.9556 24.3294 50.8806 24.9534 50.8311 25.5796C50.7569 26.5081 50.6916 27.4366 50.6414 28.3666C50.5986 29.1541 50.5761 29.9424 50.5559 30.7306C50.5161 32.2726 50.4839 33.8154 50.4501 35.3574C50.4479 35.4556 50.4351 35.5299 50.3286 35.5741C49.5719 35.8891 48.8001 35.9844 48.0021 35.7541C47.9204 35.7309 47.8424 35.6949 47.7449 35.6574C48.0419 33.5469 48.2579 31.4454 48.4506 29.3416C48.6426 27.2424 48.7754 25.1386 48.8451 23.0146C48.9021 23.0199 48.9509 23.0184 48.9974 23.0281C49.6851 23.1819 50.3586 23.1339 51.0186 22.8871C51.0479 22.8759 51.0809 22.8714 51.1274 22.8594V22.8601Z" fill="#B4BD57"/>
<path d="M46.0934 20.5732C45.9629 21.0217 45.8279 21.4395 45.7206 21.864C45.5721 22.4535 45.5121 23.0557 45.5301 23.6632C45.5354 23.829 45.4731 23.9265 45.3426 24.0112C44.9459 24.2677 44.5094 24.4087 44.0429 24.4522C43.6251 24.4912 43.2104 24.4687 42.8069 24.3397C42.7634 24.3255 42.7214 24.3082 42.6779 24.2947C42.5031 24.2407 42.4041 24.141 42.3584 23.946C42.2136 23.328 41.9946 22.734 41.6961 22.1715C41.6804 22.1422 41.6699 22.11 41.6519 22.0672C43.1316 21.555 44.6001 21.0292 46.0934 20.5732Z" fill="#2E2521"/>
<path d="M45.3883 24.8006C45.3546 25.0503 45.3298 25.2701 45.2938 25.4883C45.1723 26.2278 45.1168 26.9741 45.0688 27.7203C45.0216 28.4441 44.9638 29.1678 44.9428 29.8931C44.8986 31.3946 44.8978 32.8976 44.9563 34.3998C44.9923 35.3186 45.0321 36.2373 45.0711 37.1561C45.0853 37.4928 45.0981 37.8296 45.1191 38.1656C45.1266 38.2811 45.0846 38.3591 44.9968 38.4281C44.5423 38.7858 44.0256 38.9996 43.4586 39.0948C42.6823 39.2246 41.9638 39.0371 41.2738 38.6951C41.2536 38.6853 41.2333 38.6741 41.2138 38.6621C40.9618 38.5083 41.0046 38.5248 41.0488 38.2998C41.3278 36.8823 41.5888 35.4618 41.7508 34.0248C41.8573 33.0828 41.9751 32.1423 42.0756 31.1996C42.1588 30.4218 42.2248 29.6418 42.2953 28.8626C42.3463 28.2933 42.4011 27.7248 42.4371 27.1548C42.4791 26.4881 42.5023 25.8198 42.5338 25.1523C42.5361 25.1073 42.5383 25.0623 42.5421 24.9933C43.0281 25.1336 43.4991 25.1943 43.9836 25.1621C44.4666 25.1298 44.9218 24.9963 45.3891 24.7998L45.3883 24.8006Z" fill="#B4BD57"/>
<path d="M42.1543 48.3323C42.2473 48.7815 42.2871 49.236 42.2916 49.7243C42.2863 50.3085 42.2203 50.913 42.0216 51.4988C41.9406 51.738 41.8431 51.9705 41.6916 52.173C41.4561 52.4873 41.1666 52.7138 40.7466 52.7048C40.5831 52.7018 40.4323 52.656 40.2868 52.584C39.8271 52.3553 39.4881 52.002 39.2241 51.5685C38.9098 51.0533 38.7261 50.4908 38.6308 49.9005C38.4583 48.8378 38.5656 47.7953 38.8956 46.773C38.9511 46.6005 39.0418 46.4505 39.1663 46.3215C39.4153 46.0643 39.6816 45.8393 40.0536 45.774C40.2538 45.7388 40.4398 45.7613 40.6228 45.8385C40.9243 45.9668 41.1673 46.1678 41.3578 46.4348C41.7673 47.007 42.0118 47.6475 42.1543 48.3315V48.3323Z" fill="#2E2521"/>
<path d="M39.6088 22.8457C39.5743 22.9342 39.5526 22.9905 39.5308 23.0475C39.1626 23.9895 38.8656 24.9532 38.6436 25.9402C38.6151 26.0677 38.5903 26.1975 38.5708 26.3265C38.5588 26.4067 38.5221 26.4585 38.4538 26.502C37.9041 26.8522 37.3026 27.0157 36.6524 27.0105C36.3531 27.0075 36.0629 26.9505 35.7779 26.8642C35.6969 26.8395 35.6211 26.799 35.5439 26.763C35.4741 26.73 35.4298 26.676 35.4043 26.6002C35.2281 26.0752 35.0271 25.56 34.7743 25.0665C34.7646 25.047 34.7586 25.0252 34.7458 24.9892C36.3321 24.1987 37.9393 23.4997 39.6096 22.8472L39.6088 22.8457Z" fill="#B4BD57"/>
<path d="M38.6062 41.9145C38.6279 42.021 38.5972 42.0818 38.5117 42.1418C38.0782 42.4455 37.5922 42.621 37.0799 42.7305C36.2467 42.909 35.4442 42.7905 34.6679 42.462C34.5277 42.4028 34.4009 42.3098 34.2674 42.2333C34.1767 42.1808 34.1542 42.1073 34.1699 42.0038C34.2344 41.5748 34.2959 41.145 34.3514 40.7145C34.4414 40.0125 34.5322 39.3098 34.6094 38.6063C34.7167 37.6298 34.8179 36.6525 34.9094 35.6745C34.9919 34.7985 35.0587 33.9218 35.1299 33.045C35.1967 32.2193 35.2679 31.3943 35.3212 30.5678C35.3827 29.616 35.4269 28.6628 35.4779 27.7103C35.4809 27.654 35.4832 27.597 35.4877 27.507C36.4754 27.8363 37.4219 27.7538 38.3714 27.3525C38.3474 27.588 38.3227 27.7958 38.3062 28.0035C38.2379 28.8803 38.1472 29.7563 38.1112 30.6345C38.0639 31.77 38.0384 32.907 38.0459 34.044C38.0549 35.295 38.0984 36.546 38.1517 37.7955C38.2004 38.937 38.3002 40.0748 38.4869 41.2043C38.5259 41.4405 38.5582 41.6783 38.6062 41.9138V41.9145Z" fill="#B4BD57"/>
<path d="M33.362 25.6499C33.209 27.0884 33.077 28.5007 33.0298 29.9182C32.9825 31.3334 32.9083 32.7479 32.9765 34.1692C32.6488 34.3934 32.303 34.5044 31.9408 34.5704C31.9078 34.5764 31.8725 34.5757 31.838 34.5749C31.6228 34.5734 31.5808 34.5322 31.5853 34.3162C31.6123 32.9407 31.634 31.5644 31.6708 30.1889C31.6843 29.6639 31.7323 29.1404 31.7653 28.6162C31.7675 28.5824 31.7675 28.5464 31.778 28.5149C31.9663 27.9652 32.1545 27.4154 32.348 26.8672C32.4088 26.6954 32.4905 26.5312 32.5573 26.3609C32.603 26.2454 32.6383 26.1262 32.6893 25.9769C32.8828 25.8824 33.1063 25.7729 33.3605 25.6484L33.362 25.6499Z" fill="#7A8125"/>
<path d="M31.7383 26.4506C31.7203 26.5181 31.7121 26.5586 31.6994 26.5969C31.5411 27.0671 31.3798 27.5359 31.2268 28.0076C31.2013 28.0871 31.1563 28.1321 31.0933 28.1734C30.8166 28.3549 30.5098 28.4554 30.1888 28.5221C29.2806 28.7119 28.3858 28.6721 27.5061 28.3676C27.4573 28.3504 27.4101 28.3301 27.3614 28.3136C27.0996 28.2229 26.9518 28.0556 26.8821 27.7714C26.6458 26.8069 26.3653 25.8544 25.9753 24.9386C25.9348 24.8441 25.8951 24.7504 25.8396 24.6191C25.9221 24.6484 25.9694 24.6634 26.0159 24.6814C27.4941 25.2709 28.9626 25.8836 30.4154 26.5324C30.5864 26.6089 30.7633 26.6711 30.9396 26.7349C31.0678 26.7814 31.1878 26.7401 31.3018 26.6831C31.4391 26.6141 31.5726 26.5384 31.7369 26.4499L31.7383 26.4506Z" fill="#2E2521"/>
<path d="M31.3057 45.9986C31.308 46.0091 31.3042 46.0211 31.3012 46.0488C30.7897 46.3878 30.2332 46.5903 29.6295 46.6766C28.9597 46.7726 28.3095 46.6661 27.66 46.5221C27.3412 46.4516 27.0307 46.3578 26.733 46.2228C26.676 46.1966 26.6212 46.1666 26.5657 46.1358C26.4945 46.0968 26.4652 46.0458 26.4712 45.9551C26.5567 44.6208 26.6362 43.2866 26.7187 41.9523C26.7847 40.8858 26.8627 39.8201 26.9167 38.7536C26.9692 37.7208 27.0097 36.6873 27.0367 35.6538C27.075 34.1576 27.0997 32.6606 27.1215 31.1636C27.1305 30.5066 27.117 29.8496 27.114 29.1926C27.114 29.1303 27.114 29.0673 27.114 28.9766C27.756 29.2091 28.3995 29.3313 29.0655 29.3351C29.7277 29.3388 30.372 29.2398 31.0117 29.0141C31.0147 29.0696 31.02 29.1131 31.0185 29.1551C30.876 32.3928 30.8392 35.6321 30.8587 38.8713C30.867 40.2761 30.9277 41.6816 30.9907 43.0856C31.035 44.0613 31.1317 45.0341 31.3065 45.9963L31.3057 45.9986Z" fill="#B4BD57"/>
<path d="M30.3629 21.218C30.3996 22.7292 30.4371 24.2457 30.4746 25.7907C27.5744 24.518 24.6719 23.3292 21.6486 22.388C21.6951 22.3542 21.7274 22.3295 21.7604 22.3055C21.8069 22.2725 21.8579 22.2447 21.8999 22.2065C22.0349 22.082 22.0581 21.8997 21.9636 21.7557C21.8699 21.6132 21.6899 21.5615 21.5241 21.6372C21.4206 21.6845 21.3239 21.7467 21.2204 21.7955C19.5689 22.574 17.8664 23.213 16.0829 23.6187C15.0614 23.8512 14.0301 23.9982 12.9771 23.9885C11.7659 23.9765 10.6604 23.6375 9.64414 22.988C8.44339 22.2207 8.20564 20.717 8.79289 19.6902C8.92114 19.4652 9.05614 19.25 9.25939 19.0835C9.38164 18.9837 9.41914 18.8465 9.36889 18.6965C9.32539 18.566 9.22489 18.4925 9.09064 18.4722C8.97589 18.455 8.87389 18.4977 8.79064 18.5705C8.67439 18.671 8.56639 18.7805 8.44339 18.8975C7.60414 18.7332 6.75439 18.6822 5.90239 18.5885C5.76739 17.0547 5.59864 15.53 5.28589 14.0052C6.15064 13.9302 6.96514 13.6977 7.77289 13.4292C8.57764 13.1622 9.33964 12.8075 10.0829 12.3522C10.0926 12.4392 10.0994 12.5052 10.1084 12.5705C10.1511 12.8705 10.1931 13.1697 10.2374 13.469C10.2659 13.6602 10.4069 13.7795 10.5906 13.7735C10.7699 13.7675 10.9146 13.6347 10.9199 13.4442C10.9244 13.3032 10.9056 13.1592 10.8816 13.019C10.7391 12.2022 10.7091 11.384 10.8216 10.562C10.9266 9.78945 11.1441 9.0552 11.5814 8.39895C11.7546 8.13945 11.9736 7.9257 12.2286 7.74495C12.7154 7.39995 13.2186 7.40145 13.7301 7.66995C14.1329 7.88145 14.4584 8.1867 14.7014 8.56845C14.8941 8.87145 15.0606 9.1917 15.2399 9.50295C15.2834 9.57795 15.2871 9.6507 15.2616 9.73245C15.2384 9.8082 15.2226 9.8877 15.2144 9.9672C15.1926 10.1765 15.3104 10.3445 15.4949 10.3737C15.6891 10.4052 15.8519 10.2995 15.8969 10.0895C15.9486 9.8472 16.0311 9.61845 16.1481 9.4002C16.5051 8.7327 17.0789 8.3547 17.8019 8.2137C18.5714 8.0637 19.2621 8.2722 19.8599 8.7777C20.2686 9.1242 20.5529 9.5652 20.7816 10.043C21.1814 10.8792 21.4356 11.759 21.5549 12.6777C21.6659 13.5357 21.6929 14.3967 21.6704 15.26C21.6689 15.317 21.6719 15.3747 21.6831 15.4302C21.7154 15.581 21.8309 15.6815 21.9809 15.6965C22.1279 15.7107 22.2711 15.6342 22.3251 15.4947C22.3551 15.4167 22.3634 15.329 22.3731 15.2442C22.3806 15.1767 22.3761 15.107 22.3769 15.0387C22.3769 14.9705 22.3769 14.9022 22.3769 14.8145C22.4091 14.834 22.4301 14.8407 22.4414 14.855C23.0774 15.6822 23.8041 16.4247 24.5564 17.1447C25.7399 18.2772 27.0119 19.2995 28.3934 20.1822C28.9671 20.549 29.5679 20.8647 30.1911 21.1392C30.2429 21.1625 30.2946 21.1865 30.3644 21.218H30.3629ZM23.9459 20.1117C24.0441 19.9767 24.0329 19.8005 23.9129 19.6715C23.8701 19.6257 23.8191 19.5882 23.7681 19.5515C23.6331 19.4555 23.4966 19.3625 23.3601 19.268C22.6986 18.8112 21.9711 18.5045 21.1851 18.341C21.0134 18.305 20.8341 18.2915 20.6579 18.287C20.4996 18.2825 20.3774 18.38 20.3331 18.5202C20.2874 18.6657 20.3264 18.7902 20.4396 18.8915C20.4636 18.9132 20.4906 18.9297 20.5461 18.971C20.3361 18.9815 20.1621 18.9957 19.9881 18.9995C19.1594 19.0175 18.3321 18.995 17.5041 18.9485C16.1864 18.8742 14.8731 18.758 13.5719 18.5285C12.4349 18.3275 11.3151 18.059 10.2254 17.6705C9.64789 17.465 9.09364 17.2122 8.59189 16.8537C8.34139 16.6745 8.13889 16.454 7.97539 16.1952C7.88464 16.0512 7.83589 15.896 7.84039 15.725C7.84264 15.6252 7.86964 15.5352 7.95814 15.4625C8.03464 15.4872 8.10889 15.5142 8.18464 15.5352C8.39689 15.5945 8.58664 15.5075 8.64889 15.3245C8.70964 15.146 8.62114 14.969 8.42689 14.8812C8.38039 14.8602 8.33239 14.84 8.28289 14.8272C8.11189 14.7837 7.94089 14.7342 7.76764 14.7027C7.36864 14.6307 6.97114 14.6502 6.57964 14.7567C6.49264 14.7807 6.40564 14.816 6.32989 14.8647C6.19639 14.951 6.14914 15.1107 6.19714 15.2577C6.24364 15.4002 6.38089 15.4947 6.54289 15.4835C6.61039 15.479 6.67639 15.4557 6.74239 15.4392C6.88489 15.4032 7.02589 15.359 7.17814 15.3852C7.17664 15.41 7.17814 15.4265 7.17514 15.4422C7.09564 15.8225 7.15414 16.1795 7.35214 16.5147C7.54939 16.8477 7.78939 17.1462 8.11039 17.3652C8.39314 17.5572 8.67889 17.753 8.98564 17.9007C9.39589 18.098 9.82789 18.251 10.2509 18.422C10.3011 18.4422 10.3521 18.4617 10.4099 18.485C10.1316 18.9665 10.0109 19.4802 9.94564 20.0105C9.83314 20.9255 10.2321 21.635 11.0729 22.016C11.1089 22.0325 11.1464 22.0475 11.1831 22.0625C11.7119 22.283 12.2654 22.3955 12.8354 22.3947C13.2914 22.3947 13.7496 22.3767 14.2026 22.3272C14.7869 22.2635 15.3719 22.1877 15.9471 22.0707C17.2491 21.806 18.4994 21.3702 19.7211 20.8535C20.4111 20.5617 21.0741 20.2145 21.6891 19.7825C21.8534 19.667 22.0109 19.5492 22.2246 19.553C22.2411 19.553 22.2599 19.5485 22.2734 19.5395C22.3604 19.481 22.4369 19.5177 22.5111 19.5665C22.7886 19.7472 23.0661 19.928 23.3436 20.108C23.4059 20.1485 23.4666 20.1935 23.5341 20.222C23.6864 20.2872 23.8559 20.2377 23.9481 20.111L23.9459 20.1117ZM20.8049 13.0302C20.8079 12.716 20.7066 12.302 20.5536 11.8992C20.1689 10.8897 19.1151 10.112 18.1761 10.0422C17.3436 9.97995 16.5179 10.4127 16.1361 11.1567C15.9044 11.6097 15.8346 12.0987 15.7919 12.5945C15.7679 12.8697 15.8264 13.1405 15.8931 13.4067C16.1069 14.2557 16.5441 14.9592 17.2559 15.4805C18.1281 16.1187 19.4511 16.0445 20.1876 15.023C20.5896 14.4657 20.8004 13.8425 20.8034 13.031L20.8049 13.0302ZM15.8946 17.543C16.2876 17.1327 16.4331 16.652 16.2899 16.094C16.2179 15.8135 16.0941 15.5585 15.9239 15.3252C15.6119 14.8992 15.2219 14.5617 14.7606 14.3052C14.7014 14.2722 14.6444 14.2362 14.5754 14.1957C14.7359 13.958 14.8401 13.7075 14.9016 13.4382C14.9894 13.0587 15.0411 12.6747 15.0546 12.2855C15.0846 11.444 14.9219 10.6512 14.4584 9.9327C14.2544 9.6162 14.0046 9.3462 13.6904 9.1377C13.2381 8.8377 12.4154 8.71395 11.8154 9.3192C11.5911 9.5457 11.4156 9.8022 11.3001 10.1C11.1779 10.4165 11.1014 10.7442 11.0789 11.0825C11.0211 11.9765 11.1449 12.8367 11.5566 13.6437C11.5769 13.6827 11.5934 13.724 11.6166 13.7742C11.5461 13.796 11.4854 13.808 11.4299 13.8327C11.2214 13.9242 10.9971 13.9932 10.8104 14.1177C10.2419 14.5002 10.0011 15.047 10.0926 15.7265C10.1429 16.1037 10.3086 16.4202 10.5786 16.703C10.7856 16.9205 11.0046 17.1155 11.2521 17.2782C11.9069 17.7087 12.6306 17.9585 13.4009 18.0815C13.8314 18.1505 14.2626 18.1842 14.6969 18.1175C15.1544 18.047 15.5676 17.8835 15.8939 17.543H15.8946Z" fill="#B4BD57"/>
<path d="M29.4553 55.8733C29.4575 55.901 29.4553 55.928 29.4553 55.985C29.36 55.9423 29.2835 55.91 29.2093 55.8725C28.5005 55.5163 27.7918 55.16 27.0838 54.8015C25.7443 54.1243 24.3995 53.4568 23.0668 52.7653C21.1768 51.785 19.2493 50.8798 17.3345 49.949C16.862 49.7195 16.4008 49.4683 15.9343 49.2268C15.9095 49.214 15.8855 49.199 15.8518 49.1795C15.8705 49.0318 15.8915 48.8855 15.9073 48.74C15.989 47.981 15.8653 47.2595 15.5053 46.5845C15.2615 46.127 14.9128 45.7535 14.486 45.4685C13.6618 44.9188 12.7528 44.63 11.7523 44.684C11.0315 44.7223 10.3678 44.9488 9.74602 45.314C9.52027 45.4468 9.37852 45.65 9.23377 45.8548C9.18202 45.929 9.13027 46.0033 9.06877 46.091C8.55652 45.8308 8.06377 45.5788 7.56877 45.332C7.48402 45.29 7.48027 45.2203 7.47202 45.1483C7.43377 44.8138 7.40227 44.4778 7.36027 44.144C7.22677 43.073 7.09027 42.0028 6.95527 40.9325C6.95152 40.9048 6.95077 40.8763 6.94702 40.832C6.98152 40.8403 7.00777 40.841 7.02877 40.8523C8.18902 41.4748 9.41827 41.936 10.643 42.407C12.869 43.2643 15.0988 44.1125 17.321 44.9773C20.2348 46.112 23.1425 47.2625 26.0555 48.3988C26.9915 48.764 27.935 49.1083 28.8778 49.454C29.0068 49.5013 29.048 49.5665 29.0563 49.6985C29.1425 51.0838 29.2348 52.469 29.3248 53.8535C29.3683 54.5263 29.4118 55.1983 29.4545 55.871L29.4553 55.8733Z" fill="#B4BD57"/>
<path d="M26.4171 28.6631C26.4269 30.7653 26.4171 32.8676 26.3571 34.9691C26.3346 35.7513 26.3054 36.5336 26.2784 37.3158C26.2769 37.3721 26.2701 37.4283 26.2649 37.4988C25.9596 37.5798 25.6716 37.5678 25.3821 37.5221C24.9186 37.4486 24.4859 37.3023 24.1116 37.0068C24.0096 36.9258 23.9669 36.8448 23.9714 36.7061C24.0059 35.5923 23.9894 34.4786 23.9301 33.3656C23.8881 32.5841 23.8574 31.8026 23.8184 31.0203C23.7794 30.2276 23.7374 29.4348 23.6961 28.6413C23.6571 27.8831 23.6211 27.1241 23.5761 26.3658C23.5281 25.5506 23.4726 24.7353 23.4209 23.9201C23.4171 23.8638 23.4149 23.8076 23.4111 23.7363C23.4591 23.7438 23.4974 23.7431 23.5311 23.7551C23.9609 23.9088 24.3899 24.0648 24.8196 24.2186C24.8894 24.2433 24.9359 24.2748 24.9441 24.3596C24.9494 24.4196 24.9756 24.4818 25.0049 24.5358C25.3776 25.2221 25.6364 25.9533 25.8576 26.6981C26.0024 27.1848 26.1381 27.6746 26.2686 28.1651C26.3039 28.2971 26.3144 28.4336 26.4044 28.5468C26.4246 28.5731 26.4171 28.6241 26.4171 28.6631Z" fill="#2E2521"/>
<path d="M23.9129 19.6709C24.0329 19.7992 24.0442 19.9754 23.9459 20.1112C23.8544 20.2372 23.6842 20.2867 23.5319 20.2222C23.4644 20.1937 23.4037 20.1479 23.3414 20.1082C23.0639 19.9282 22.7864 19.7474 22.5089 19.5667C22.4347 19.5187 22.3589 19.4812 22.2712 19.5397C22.2577 19.5487 22.2389 19.5539 22.2224 19.5532C22.0094 19.5494 21.8519 19.6672 21.6869 19.7827C21.0727 20.2147 20.4089 20.5612 19.7189 20.8537C18.4972 21.3704 17.2469 21.8062 15.9449 22.0709C15.3697 22.1879 14.7847 22.2637 14.2004 22.3274C13.7474 22.3762 13.2892 22.3942 12.8332 22.3949C12.2632 22.3949 11.7097 22.2832 11.1809 22.0627C11.1442 22.0477 11.1067 22.0327 11.0707 22.0162C10.2307 21.6352 9.83094 20.9249 9.94344 20.0107C10.0087 19.4804 10.1302 18.9667 10.4077 18.4852C10.3499 18.4627 10.2997 18.4432 10.2487 18.4222C9.82569 18.2504 9.39369 18.0982 8.98344 17.9009C8.67669 17.7532 8.39169 17.5582 8.10819 17.3654C7.78719 17.1464 7.54644 16.8487 7.34994 16.5149C7.15194 16.1804 7.09344 15.8234 7.17294 15.4424C7.17594 15.4267 7.17444 15.4094 7.17594 15.3854C7.02369 15.3584 6.88194 15.4034 6.74019 15.4394C6.67419 15.4559 6.60819 15.4792 6.54069 15.4837C6.37869 15.4942 6.24144 15.3997 6.19494 15.2579C6.14694 15.1117 6.19494 14.9512 6.32769 14.8649C6.40269 14.8162 6.49044 14.7802 6.57744 14.7569C6.96894 14.6504 7.36644 14.6309 7.76544 14.7029C7.93944 14.7344 8.10969 14.7832 8.28069 14.8274C8.33019 14.8402 8.37819 14.8604 8.42469 14.8814C8.61894 14.9692 8.70744 15.1469 8.64669 15.3247C8.58519 15.5077 8.39469 15.5947 8.18244 15.5354C8.10669 15.5144 8.03244 15.4874 7.95594 15.4627C7.86744 15.5354 7.84044 15.6254 7.83819 15.7252C7.83369 15.8962 7.88244 16.0514 7.97319 16.1954C8.13669 16.4549 8.33844 16.6754 8.58969 16.8539C9.09219 17.2117 9.64569 17.4644 10.2232 17.6707C11.3122 18.0592 12.4327 18.3277 13.5697 18.5287C14.8709 18.7589 16.1842 18.8744 17.5019 18.9487C18.3292 18.9959 19.1572 19.0184 19.9859 18.9997C20.1599 18.9959 20.3339 18.9824 20.5439 18.9712C20.4884 18.9299 20.4607 18.9134 20.4374 18.8917C20.3249 18.7904 20.2852 18.6659 20.3309 18.5204C20.3752 18.3809 20.4974 18.2827 20.6557 18.2872C20.8319 18.2917 21.0104 18.3052 21.1829 18.3412C21.9689 18.5047 22.6964 18.8114 23.3579 19.2682C23.4944 19.3627 23.6309 19.4557 23.7659 19.5517C23.8169 19.5877 23.8687 19.6259 23.9107 19.6717L23.9129 19.6709ZM20.4307 19.7264C20.4269 19.7159 20.4239 19.7047 20.4209 19.6942C20.3992 19.6919 20.3767 19.6882 20.3549 19.6889C19.3267 19.7189 18.2999 19.7024 17.2732 19.6409C17.1382 19.6327 16.9964 19.6357 16.8652 19.6657C16.1617 19.8262 15.5384 20.1457 15.0022 20.6324C14.9557 20.6744 14.9114 20.7202 14.8597 20.7547C14.7112 20.8544 14.5394 20.8387 14.4202 20.7217C14.2972 20.6009 14.2822 20.4187 14.3879 20.2679C14.4239 20.2169 14.4667 20.1682 14.5147 20.1299C14.7487 19.9477 14.9857 19.7699 15.2212 19.5907C15.2602 19.5614 15.3022 19.5352 15.3667 19.4902C15.1784 19.4662 15.0202 19.4527 14.8642 19.4234C14.6684 19.3867 14.4982 19.4069 14.3167 19.5149C14.0242 19.6889 13.7504 19.8809 13.5187 20.1277C13.2899 20.3722 13.1152 20.6527 13.0379 20.9834C12.9974 21.1559 13.0499 21.2677 13.2074 21.3517C13.2772 21.3892 13.3537 21.4169 13.4294 21.4387C13.6447 21.5009 13.8659 21.5212 14.0902 21.5212C14.1749 21.5212 14.2657 21.5219 14.3422 21.5519C14.4329 21.5872 14.5184 21.5879 14.6099 21.5782C15.1829 21.5137 15.7499 21.4139 16.3094 21.2692C17.6489 20.9219 18.9509 20.4704 20.1922 19.8532C20.2724 19.8134 20.3504 19.7684 20.4292 19.7257L20.4307 19.7264Z" fill="#2E2521"/>
<path d="M22.3521 41.4654C22.2448 41.5546 22.1466 41.6491 22.0363 41.7271C21.4176 42.1629 20.7426 42.4704 19.9948 42.6136C18.9598 42.8131 17.9496 42.7366 16.9656 42.3534C16.8756 42.3181 16.7871 42.2769 16.7023 42.2311C16.5568 42.1524 16.5568 42.1479 16.6011 41.9904C16.7308 41.5291 16.8703 41.0701 16.9903 40.6059C17.2978 39.4119 17.5926 38.2149 17.9016 37.0216C18.2503 35.6739 18.6103 34.3284 18.9643 32.9814C19.0048 32.8276 19.0416 32.6731 19.0836 32.5059C20.1756 35.4999 21.2608 38.4744 22.3528 41.4654H22.3521Z" fill="#F96969"/>
<path d="M20.5536 11.8988C20.7074 12.3016 20.8086 12.7156 20.8049 13.0298C20.8019 13.8406 20.5911 14.4638 20.1891 15.0218C19.4526 16.0433 18.1296 16.1176 17.2574 15.4793C16.5456 14.9588 16.1084 14.2546 15.8946 13.4056C15.8271 13.1393 15.7694 12.8686 15.7934 12.5933C15.8361 12.0983 15.9059 11.6086 16.1376 11.1556C16.5186 10.4116 17.3451 9.97882 18.1776 10.0411C19.1166 10.1108 20.1704 10.8886 20.5551 11.8981L20.5536 11.8988ZM19.6551 14.5636C20.0114 14.0318 20.1756 13.4498 20.0774 12.8078C19.9544 12.0031 19.5591 11.3798 18.8451 10.9703C18.5819 10.8196 18.2984 10.7438 17.9804 10.7408C17.5574 10.7131 17.0009 10.9898 16.7556 11.4856C16.5344 11.9348 16.5021 12.4171 16.5141 12.9023C16.5186 13.0703 16.5711 13.2406 16.6206 13.4033C16.8134 14.0341 17.1606 14.5576 17.7089 14.9386C18.2586 15.3203 19.1526 15.3128 19.6544 14.5636H19.6551Z" fill="black"/>
<path d="M20.421 19.6947C20.4247 19.7052 20.4277 19.7157 20.4307 19.727C20.352 19.7697 20.274 19.814 20.1937 19.8545C18.9525 20.4717 17.6505 20.9232 16.311 21.2705C15.7522 21.4152 15.1852 21.515 14.6115 21.5795C14.52 21.5892 14.4345 21.5885 14.3437 21.5532C14.2672 21.5232 14.1757 21.5225 14.0917 21.5225C13.8675 21.5225 13.647 21.503 13.431 21.44C13.3545 21.4182 13.2787 21.3905 13.209 21.353C13.0515 21.269 12.999 21.1572 13.0395 20.9847C13.1167 20.654 13.2915 20.3735 13.5202 20.129C13.752 19.8822 14.0257 19.6902 14.3182 19.5162C14.4997 19.4082 14.67 19.3887 14.8657 19.4247C15.0217 19.454 15.18 19.4675 15.3682 19.4915C15.303 19.5365 15.2617 19.562 15.2227 19.592C14.9865 19.7712 14.7495 19.949 14.5162 20.1312C14.4675 20.1695 14.4247 20.2182 14.3895 20.2692C14.2837 20.4192 14.2987 20.6022 14.4217 20.723C14.541 20.84 14.7127 20.8557 14.8612 20.756C14.913 20.7215 14.9572 20.6757 15.0037 20.6337C15.5392 20.1462 16.1632 19.8275 16.8667 19.667C16.998 19.637 17.139 19.634 17.2747 19.6422C18.3015 19.7045 19.3282 19.721 20.3565 19.6902C20.3782 19.6902 20.4007 19.694 20.4225 19.6955L20.421 19.6947Z" fill="#F96969"/>
<path d="M20.3557 33.9332C20.3384 33.8927 20.3197 33.8529 20.3054 33.8109C20.0564 33.0879 19.8074 32.3649 19.5599 31.6404C19.5194 31.5219 19.4894 31.3997 19.4519 31.2797C19.3672 31.0134 19.1459 30.9362 18.8969 31.0629C18.7109 31.1574 18.6194 31.2962 18.5819 31.4979C18.3944 32.5037 18.0974 33.4824 17.8372 34.4702C17.6684 35.1107 17.5034 35.7519 17.3369 36.3924C17.3227 36.4464 17.3077 36.5012 17.2634 36.5567C17.2552 36.4937 17.2447 36.4307 17.2394 36.3677C17.1487 35.3724 17.0564 34.3772 16.9702 33.3812C16.8937 32.4992 16.8232 31.6164 16.7497 30.7344C16.6754 29.8464 16.6034 28.9584 16.5239 28.0712C16.4437 27.1779 16.3559 26.2862 16.2697 25.3937C16.2442 25.1319 16.2112 24.8717 16.1827 24.6107C16.1729 24.5207 16.1677 24.4307 16.1594 24.3249C17.4127 24.0369 18.6254 23.6477 19.8262 23.1699C19.9469 26.7774 20.1584 30.3512 20.3564 33.9332H20.3557Z" fill="#7A8125"/>
<path d="M20.0774 12.8082C20.1756 13.4502 20.0114 14.0322 19.6551 14.5639C19.1534 15.3124 18.2586 15.3207 17.7096 14.9389C17.1614 14.5587 16.8141 14.0344 16.6214 13.4037C16.5719 13.2409 16.5186 13.0707 16.5149 12.9027C16.5029 12.4167 16.5344 11.9344 16.7564 11.4859C17.0009 10.9902 17.5574 10.7134 17.9811 10.7412C18.2999 10.7442 18.5826 10.8199 18.8459 10.9707C19.5599 11.3802 19.9559 12.0034 20.0781 12.8082H20.0774ZM19.3221 12.7932C19.3026 12.6724 19.2876 12.5067 19.2486 12.3469C19.1579 11.9742 19.0019 11.6344 18.7064 11.3757C18.3209 11.0382 17.6841 10.8874 17.2056 11.4604C17.1299 11.5504 17.0676 11.6584 17.0234 11.7679C16.8456 12.2104 16.8164 12.6672 16.9394 13.1284C17.0601 13.5799 17.3031 13.9527 17.7059 14.2039C18.0876 14.4417 18.4956 14.3899 18.8166 14.0764C19.1646 13.7367 19.2921 13.3084 19.3221 12.7939V12.7932Z" fill="#F5DEBB"/>
<path d="M19.2478 12.3467C19.2868 12.5065 19.3018 12.6722 19.3213 12.793C19.2913 13.3075 19.1638 13.7357 18.8158 14.0755C18.4948 14.389 18.0868 14.4407 17.705 14.203C17.3023 13.9525 17.0593 13.579 16.9385 13.1275C16.8155 12.667 16.8448 12.2095 17.0225 11.767C17.0668 11.6575 17.129 11.5502 17.2048 11.4595C17.6833 10.8865 18.3193 11.0372 18.7055 11.3747C19.001 11.6335 19.157 11.9732 19.2478 12.346V12.3467Z" fill="black"/>
<path d="M17.6263 7.5206C17.2483 7.61435 16.8808 7.76135 16.5403 7.96835C16.1945 8.1791 15.9253 8.4716 15.671 8.81435C15.3958 8.31335 15.1025 7.8461 14.6765 7.48085C15.2188 6.4781 15.7573 5.4836 16.2973 4.48535C16.5088 4.99685 16.7113 5.50985 16.9325 6.0146C17.1523 6.5156 17.39 7.00835 17.627 7.5206H17.6263Z" fill="#B4BD57"/>
<path d="M16.2891 16.0934C16.4331 16.6514 16.2869 17.1322 15.8939 17.5424C15.5676 17.8829 15.1544 18.0464 14.6969 18.1169C14.2626 18.1837 13.8314 18.1499 13.4009 18.0809C12.6306 17.9579 11.9069 17.7082 11.2521 17.2777C11.0046 17.1149 10.7856 16.9199 10.5786 16.7024C10.3086 16.4197 10.1436 16.1024 10.0926 15.7259C10.0019 15.0457 10.2426 14.4989 10.8104 14.1172C10.9964 13.9919 11.2214 13.9229 11.4299 13.8322C11.4854 13.8074 11.5461 13.7954 11.6166 13.7737C11.5934 13.7234 11.5769 13.6822 11.5566 13.6432C11.1441 12.8369 11.0211 11.9759 11.0789 11.0819C11.1006 10.7437 11.1771 10.4159 11.3001 10.0994C11.4156 9.80168 11.5911 9.54518 11.8154 9.31868C12.4154 8.71418 13.2381 8.83793 13.6904 9.13718C14.0054 9.34568 14.2544 9.61493 14.4584 9.93218C14.9219 10.6507 15.0846 11.4434 15.0546 12.2849C15.0411 12.6742 14.9894 13.0582 14.9016 13.4377C14.8394 13.7069 14.7351 13.9574 14.5754 14.1952C14.6444 14.2364 14.7014 14.2724 14.7606 14.3047C15.2219 14.5612 15.6119 14.8987 15.9239 15.3247C16.0941 15.5572 16.2179 15.8129 16.2899 16.0934H16.2891ZM15.4911 16.9342C15.6141 16.7662 15.6666 16.5802 15.6299 16.3694C15.5954 16.1744 15.5234 15.9974 15.4184 15.8317C15.2256 15.5279 14.9721 15.2819 14.6781 15.0794C14.1021 14.6827 13.4624 14.4532 12.7679 14.3864C12.2894 14.3407 11.8229 14.4074 11.3774 14.5964C10.7324 14.8694 10.5284 15.6524 11.1104 16.2734C11.3871 16.5689 11.7374 16.7834 12.1079 16.9582C12.7311 17.2514 13.3866 17.4074 14.0714 17.4494C14.3714 17.4674 14.6639 17.4299 14.9481 17.3339C15.1709 17.2589 15.3524 17.1232 15.4911 16.9342ZM14.2064 13.3117C14.3391 12.8114 14.3774 12.2992 14.3459 11.7832C14.3106 11.2117 14.1306 10.6882 13.8044 10.2164C13.6634 10.0124 13.4924 9.83693 13.2779 9.70943C12.9426 9.51143 12.5654 9.56243 12.2901 9.83618C12.0861 10.0394 11.9646 10.2869 11.8829 10.5592C11.7464 11.0114 11.7479 11.4734 11.7899 11.9354C11.8334 12.4102 11.9466 12.8692 12.1679 13.2967C12.2271 13.4114 12.2789 13.5307 12.3419 13.6627C12.3509 13.6634 12.3779 13.6694 12.4056 13.6694C12.8534 13.6717 13.2929 13.7332 13.7226 13.8614C13.8704 13.9057 13.9296 13.8967 14.0091 13.7632C14.0924 13.6222 14.1651 13.4692 14.2071 13.3124L14.2064 13.3117Z" fill="black"/>
<path d="M15.6299 16.3698C15.6666 16.5813 15.6141 16.7666 15.4911 16.9346C15.3524 17.1236 15.1716 17.2593 14.9481 17.3343C14.6639 17.4303 14.3706 17.4678 14.0714 17.4498C13.3859 17.4078 12.7304 17.2518 12.1079 16.9586C11.7374 16.7838 11.3871 16.5686 11.1104 16.2738C10.5284 15.6528 10.7324 14.8698 11.3774 14.5968C11.8229 14.4086 12.2894 14.3411 12.7679 14.3868C13.4624 14.4536 14.1021 14.6831 14.6781 15.0798C14.9721 15.2823 15.2256 15.5283 15.4184 15.8321C15.5234 15.9971 15.5961 16.1748 15.6299 16.3698Z" fill="#F96969"/>
<path d="M15.0913 47.3952C15.1836 47.6967 15.2361 48.0395 15.2263 48.4842C15.2338 49.0955 14.9758 49.742 14.5318 50.321C14.3278 50.5872 14.0766 50.8062 13.7796 50.9592C12.9756 51.3732 12.1258 51.5187 11.2408 51.2989C10.5396 51.1242 9.95307 50.7522 9.51357 50.1672C9.11082 49.631 9.01182 49.0122 9.05007 48.3657C9.09507 47.6157 9.31257 46.9197 9.77307 46.313C9.94257 45.932 10.3018 45.7902 10.6476 45.6492C11.8303 45.1662 12.9568 45.3447 14.0166 46.0009C14.5401 46.3249 14.9068 46.7967 15.0906 47.3967L15.0913 47.3952Z" fill="#F96969"/>
<path d="M14.7283 39.7851C14.7763 40.0551 14.7831 40.0529 14.5491 40.2089C14.1808 40.4526 13.7751 40.5944 13.3393 40.6566C12.6868 40.7504 12.0396 40.7399 11.4081 40.5314C11.2041 40.4639 11.0128 40.3574 10.8163 40.2674C10.7346 40.2299 10.7091 40.1646 10.7068 40.0739C10.6626 38.5154 10.6213 36.9561 10.5673 35.3976C10.5253 34.2044 10.4698 33.0119 10.4158 31.8194C10.3708 30.8264 10.3281 29.8334 10.2688 28.8411C10.1893 27.5129 10.0956 26.1854 10.0056 24.8579C9.98608 24.5676 9.95983 24.2789 9.93433 23.9639C10.4181 24.1851 10.8853 24.4041 11.3901 24.4994C11.8873 24.5931 12.3913 24.6486 12.9073 24.7229C12.9298 25.0034 12.9516 25.2989 12.9778 25.5936C13.0401 26.2874 13.1016 26.9819 13.1676 27.6749C13.2531 28.5674 13.3401 29.4599 13.4323 30.3516C13.5103 31.1016 13.5928 31.8509 13.6806 32.5994C13.7631 33.3081 13.8456 34.0176 13.9438 34.7241C14.0893 35.7756 14.2438 36.8264 14.4051 37.8764C14.5026 38.5139 14.6166 39.1491 14.7291 39.7836L14.7283 39.7851Z" fill="#7A8125"/>
<path d="M14.346 11.7834C14.3775 12.2994 14.3392 12.8116 14.2065 13.3119C14.1645 13.4694 14.0917 13.6224 14.0085 13.7626C13.9297 13.8969 13.8697 13.9051 13.722 13.8609C13.2922 13.7326 12.8527 13.6711 12.405 13.6689C12.3772 13.6689 12.3502 13.6636 12.3412 13.6621C12.279 13.5301 12.2272 13.4109 12.1672 13.2961C11.9452 12.8686 11.832 12.4104 11.7892 11.9349C11.7472 11.4729 11.7457 11.0109 11.8822 10.5586C11.9647 10.2864 12.0855 10.0381 12.2895 9.83563C12.5647 9.56113 12.942 9.51088 13.2772 9.70888C13.4925 9.83563 13.6627 10.0111 13.8037 10.2159C14.13 10.6876 14.31 11.2111 14.3452 11.7826L14.346 11.7834ZM13.8367 12.4441C13.9792 12.0669 13.9905 11.6754 13.9245 11.2801C13.878 11.0011 13.7932 10.7371 13.632 10.5016C13.5232 10.3426 13.386 10.2159 13.2105 10.1356C12.9405 10.0126 12.6892 10.0359 12.4657 10.2436C12.4365 10.2706 12.408 10.2999 12.3735 10.3186C12.2392 10.3921 12.168 10.5129 12.12 10.6509C12.0412 10.8736 12.012 11.1054 12.0105 11.3619C12.018 11.7954 12.1042 12.2259 12.378 12.6024C12.4837 12.7471 12.6082 12.8716 12.768 12.9556C13.0717 13.1154 13.398 13.0681 13.6245 12.8101C13.716 12.7059 13.7887 12.5754 13.8375 12.4449L13.8367 12.4441Z" fill="#F5DEBB"/>
<path d="M13.9243 11.2804C13.9903 11.6757 13.979 12.0672 13.8365 12.4444C13.7878 12.5749 13.715 12.7054 13.6235 12.8097C13.3978 13.0677 13.0715 13.1149 12.767 12.9552C12.6073 12.8712 12.4828 12.7467 12.377 12.6019C12.1033 12.2254 12.017 11.7949 12.0095 11.3614C12.011 11.1049 12.0403 10.8739 12.119 10.6504C12.167 10.5124 12.2383 10.3917 12.3725 10.3182C12.407 10.2994 12.4355 10.2702 12.4648 10.2432C12.6883 10.0354 12.9395 10.0129 13.2095 10.1352C13.385 10.2154 13.5223 10.3422 13.631 10.5012C13.7923 10.7367 13.877 11.0007 13.9235 11.2797L13.9243 11.2804Z" fill="black"/>
</svg>
