<svg width="244" height="48" viewBox="0 0 244 48" fill="none" xmlns="http://www.w3.org/2000/svg">
<path d="M144.41 46.6793C138.528 46.6793 138.889 40.0361 140.831 34.2495C142.373 29.7572 144.238 24.77 145.685 20.43C148.026 13.4061 148.388 10.9696 146.142 10.9696C141.155 10.9696 132.018 22.9807 127.526 37.3141C126.821 39.4651 126.536 40.6643 126.136 42.2251C125.489 44.6616 124.461 46.0893 121.967 46.4509L121.434 46.5271C118.008 47.022 116.314 45.3279 117.247 42.3013C120.026 33.1835 122.253 25.5124 124.594 16.6611C125.203 14.3388 123.414 13.5393 122.158 15.4809C119.816 19.1166 115.286 16.2804 117.513 12.7208C122.272 5.08778 125.812 3.05103 129.277 3.05103C132.189 3.05103 134.131 4.57383 134.721 6.85803C135.044 8.07628 135.101 8.97093 135.006 10.113C134.873 11.6358 136.129 12.1117 137.157 10.9315C141.611 5.83014 145.932 3.05103 149.625 3.05103C156.897 3.05103 158.191 9.84653 154.955 19.2689C153.394 23.7231 151.909 27.5682 150.234 32.2698C149.435 34.4969 151.129 35.4867 152.652 33.6594C154.86 31.0135 158.933 33.5642 156.954 36.8573C152.1 44.7187 147.379 46.6793 144.41 46.6793Z" fill="#FFFCF6"/>
<path d="M80.6576 46.6781C74.338 46.6781 71.8634 38.5882 74.6235 28.8994C79.782 11.0636 99.1787 0.727522 111.19 3.67795C113.398 4.24901 114.102 5.79084 113.436 7.82759C110.067 19.4961 108.03 26.8436 106.355 32.6683C105.765 34.7432 107.231 35.9804 109.286 33.4868C111.304 31.0504 115.378 33.6391 113.55 36.7609C109.077 44.3939 105.27 46.6781 101.463 46.6781C98.6077 46.6781 96.2093 44.7937 95.8857 41.3102C95.8476 40.8724 95.8666 40.3966 95.9047 39.6352C96.0189 37.922 94.6293 37.7317 93.6776 38.8357C89.7944 43.3851 85.4354 46.6781 80.6576 46.6781ZM84.8073 26.4248C82.5802 34.0769 82.2566 38.7024 84.9976 38.7215C88.462 38.7405 94.9339 31.4311 99.8449 21.4377C101.063 19.0202 102.167 15.8985 102.776 13.7856C103.823 10.4925 103.214 9.69303 100.606 9.69303C94.7816 9.69303 88.2716 14.5279 84.8073 26.4248Z" fill="#FFFCF6"/>
<path d="M218.136 47.2404C205.344 47.2404 201.958 34.4883 205.486 22.243C209.216 9.36922 219.454 0.773193 230.017 0.773193C242.769 0.773193 246.276 13.282 242.667 25.5882C238.775 38.9079 228.435 47.2404 218.136 47.2404ZM215.683 22.9323C212.318 34.4477 213.737 41.7868 219.474 41.7868C224.725 41.7868 229.408 35.502 232.551 24.4934C235.795 12.8563 234.254 6.22681 228.658 6.22681C223.407 6.22681 218.805 12.2075 215.683 22.9323Z" fill="#FFFCF6"/>
<path d="M28.8258 46.3123C25.495 46.2981 24.883 41.9994 27.9575 40.5475C31.4164 39.2807 32.0996 38.5405 33.6227 33.0889C35.4019 26.6693 37.0673 20.5913 38.8323 13.9725C40.0849 9.17561 39.8999 8.74859 37.2239 7.18284C35.0603 5.31818 36.6688 1.84506 39.8572 1.83083C43.1453 1.8593 48.2553 1.8593 53.9632 1.83083C69.4498 1.78813 76.88 11.3819 72.8802 25.6729C69.336 38.3697 58.5038 46.4546 44.042 46.2554C37.6509 46.1842 32.6548 46.2411 28.8258 46.3123ZM42.5759 33.5159C41.1952 38.8536 42.7752 40.2913 47.6432 40.0493C55.4862 39.5654 61.0517 32.6191 63.4573 23.6944C66.4464 12.663 61.9627 8.02265 53.9916 7.78067C50.0773 7.6668 49.3371 8.3358 48.5542 11.1826C45.5366 22.2994 44.2698 27.1959 42.5759 33.5159Z" fill="#FFFCF6"/>
<path d="M177.834 47.068C164.852 47.068 157.92 36.4067 161.65 22.5C164.354 12.4508 173.165 1.00659 188.338 1.00659C191.812 1.00659 195.911 1.60442 199.583 2.95666C202.089 3.86764 202.928 5.50456 202.601 7.79624C202.288 10.1449 201.989 12.2373 201.69 14.5147C201.078 18.4149 195.285 18.97 195.171 14.5859C195.043 9.60397 191.84 7.18418 187.086 7.18418C179.442 7.18418 174.247 13.6892 171.528 23.2402C168.254 34.8125 171.628 41.0043 179.328 41.0043C181.463 41.0043 183.043 40.6058 184.453 39.8371C185.762 39.097 186.36 38.4707 186.659 37.2608C186.858 36.6345 187.043 36.0936 187.655 33.7165C188.239 31.254 188.096 30.77 185.15 29.5174C182.588 27.909 183.456 23.9661 186.986 23.8665C191.214 23.838 195.014 23.838 199.085 23.8665C202.402 23.9661 203.298 28.2221 200.494 29.6882C197.918 30.7416 197.363 31.6668 196.452 34.7983L195.085 39.5098C194.488 41.5595 193.263 42.6982 191.612 43.5665C187.769 45.6019 182.759 47.068 177.834 47.068Z" fill="#FFFCF6"/>
<path d="M11.7138 34.3485C9.08527 34.2182 6.4365 33.0171 4.47947 31.1423C3.45143 32.1863 2.67234 33.5013 2.26609 35.0174C1.01484 39.6872 3.77948 44.4873 8.44373 45.7371C13.108 46.9869 17.9004 44.2117 19.1516 39.5419C19.7958 37.1377 19.3755 34.698 18.1786 32.7255C16.2971 33.931 13.9814 34.5102 11.7138 34.3485Z" fill="#DD375B"/>
<path d="M15.2218 21.2567C12.5325 21.1225 9.82133 19.8695 7.85211 17.9172C6.94319 18.9167 6.25159 20.1436 5.87735 21.5403C5.15365 24.2412 5.77311 26.9841 7.32573 29.0602C7.35209 29.1003 7.38141 29.137 7.41073 29.1738C7.41265 29.1743 7.41406 29.1767 7.41598 29.1773C7.41598 29.1773 7.41406 29.1767 7.41354 29.1787C7.4202 29.1846 7.42442 29.1919 7.42916 29.1973C7.54592 29.3463 7.66807 29.4905 7.7951 29.6319C7.86335 29.708 7.93404 29.7827 8.00422 29.8593C9.08027 30.9674 10.4549 31.792 12.0384 32.1833C13.8395 32.6783 15.8212 32.5527 17.5859 31.8755C18.1578 31.657 18.7079 31.3811 19.2199 31.0476C19.2399 31.0343 19.2594 31.0231 19.2776 31.0093C20.9309 29.8707 22.2023 28.1569 22.7629 26.0648C23.3823 23.753 23.0169 21.4086 21.9221 19.4779C20.0021 20.7887 17.5845 21.4252 15.2218 21.2567Z" fill="#F2E2B8"/>
<path d="M9.38697 8.45613C8.76599 10.7737 9.13426 13.1229 10.2323 15.0566C10.2755 15.1342 10.3196 15.208 10.3643 15.2798C10.3943 15.3292 10.4249 15.3766 10.4555 15.424C10.4931 15.4837 10.5312 15.5414 10.5713 15.5996C10.5982 15.6378 10.6231 15.6754 10.65 15.7136C10.6745 15.7532 10.7013 15.7914 10.7282 15.8296C10.7282 15.8296 10.729 15.8291 10.7306 15.8281C11.8802 17.4081 13.5477 18.5941 15.5506 19.0894C17.4531 19.6137 19.5598 19.4451 21.3988 18.6598C21.9651 18.4234 22.5075 18.1227 23.0068 17.7672C23.8507 17.1488 24.5857 16.3753 25.1668 15.4759C25.6522 14.7264 26.0289 13.8899 26.2725 12.9806C27.5238 8.31085 24.7586 3.51264 20.0963 2.26338C15.4339 1.01411 10.6382 3.78638 9.38697 8.45613Z" fill="#AFB244"/>
</svg>
