<svg width="719" height="960" viewBox="0 0 719 960" fill="none" xmlns="http://www.w3.org/2000/svg">
<rect width="720" height="960" transform="translate(-1)" fill="#FDF8F1"/>
<path fill-rule="evenodd" clip-rule="evenodd" d="M719 0H-1V960H719V0ZM338.655 850.073C323.565 862.236 304.375 869.517 283.485 869.517C262.595 869.517 243.406 862.237 228.316 850.075C217.339 841.227 198.604 841.227 187.627 850.076C172.537 862.24 153.346 869.521 132.455 869.521C83.8664 869.521 44.4775 830.132 44.4775 781.544C44.4775 760.729 51.7061 741.602 63.7898 726.538C72.4962 715.683 72.4964 697.404 63.7901 686.55C53.4692 673.683 46.6901 657.853 44.9318 640.539C44.6314 637.581 44.4775 634.581 44.4775 631.544C44.4775 610.653 51.7587 591.464 63.9217 576.374C72.7698 565.396 72.7698 546.661 63.9217 535.684C51.7587 520.594 44.4775 501.404 44.4775 480.514C44.4775 459.623 51.7589 440.433 63.9221 425.343C72.7708 414.365 72.7708 395.629 63.9221 384.651C51.7589 369.561 44.4775 350.371 44.4775 329.48C44.4775 308.59 51.7587 289.4 63.9217 274.31C72.7698 263.332 72.7698 244.598 63.9217 233.62C51.7587 218.53 44.4775 199.341 44.4775 178.45C44.4775 129.861 83.8664 90.4727 132.455 90.4727C153.345 90.4727 172.535 97.7538 187.625 109.917C198.603 118.765 217.337 118.765 228.315 109.917C243.404 97.7538 262.594 90.4727 283.485 90.4727C304.375 90.4727 323.565 97.7538 338.655 109.917C349.632 118.765 368.367 118.765 379.345 109.917C394.434 97.7538 413.624 90.4727 434.515 90.4727C455.405 90.4727 474.595 97.7538 489.685 109.917C500.662 118.765 519.397 118.765 530.374 109.917C545.464 97.7538 564.654 90.4727 585.545 90.4727C634.133 90.4727 673.522 129.861 673.522 178.45C673.522 199.341 666.241 218.53 654.078 233.62C645.23 244.598 645.23 263.332 654.078 274.31C666.241 289.4 673.522 308.59 673.522 329.48C673.522 350.371 666.241 369.561 654.077 384.651C645.229 395.629 645.229 414.365 654.077 425.343C666.241 440.433 673.522 459.623 673.522 480.514C673.522 501.404 666.241 520.594 654.078 535.684C645.23 546.661 645.23 565.396 654.078 576.374C666.241 591.464 673.522 610.653 673.522 631.544C673.522 652.359 666.293 671.485 654.21 686.55C645.503 697.404 645.503 715.683 654.21 726.538C666.293 741.602 673.522 760.729 673.522 781.544C673.522 830.132 634.133 869.521 585.545 869.521C564.653 869.521 545.463 862.24 530.373 850.076C519.396 841.227 500.661 841.227 489.683 850.075C474.594 862.237 455.404 869.517 434.515 869.517C413.624 869.517 394.434 862.236 379.345 850.073C368.367 841.225 349.632 841.225 338.655 850.073Z" fill="url(#paint0_linear_557_50756)"/>
<defs>
<linearGradient id="paint0_linear_557_50756" x1="-129.412" y1="-154.558" x2="450.004" y2="671.948" gradientUnits="userSpaceOnUse">
<stop stop-color="#FFF2E2"/>
<stop offset="1" stop-color="#C4B7BA"/>
</linearGradient>
</defs>
</svg>
