<svg width="1440" height="936" viewBox="0 0 1440 936" fill="none" xmlns="http://www.w3.org/2000/svg">
<path d="M4.35698 935.619C14.4998 935.619 23.8476 932.215 31.3199 926.486C37.1085 922.049 46.6054 922.049 52.3941 926.486C59.8664 932.215 69.2141 935.619 79.357 935.619C89.4998 935.619 98.8476 932.215 106.32 926.486C112.109 922.049 121.605 922.049 127.394 926.486C134.866 932.215 144.214 935.619 154.357 935.619C164.516 935.619 173.877 932.204 181.355 926.459C187.172 921.991 196.767 921.991 202.583 926.459C210.062 932.204 219.423 935.619 229.582 935.619C239.736 935.619 249.094 932.207 256.571 926.466C262.38 922.006 271.949 922.006 277.758 926.466C285.235 932.207 294.593 935.619 304.748 935.619C315.021 935.619 324.479 932.126 331.999 926.264C338.223 921.41 349.324 921.41 355.549 926.264C363.068 932.126 372.526 935.619 382.8 935.619C392.703 935.619 401.849 932.374 409.231 926.888C414.718 922.81 423.22 922.81 428.707 926.888C436.089 932.374 445.235 935.619 455.138 935.619C465.297 935.619 474.658 932.204 482.136 926.459C487.953 921.991 497.548 921.991 503.365 926.459C510.843 932.204 520.204 935.619 530.363 935.619C540.518 935.619 549.875 932.207 557.352 926.466C563.161 922.006 572.73 922.006 578.54 926.466C586.016 932.207 595.374 935.619 605.529 935.619C615.803 935.619 625.26 932.126 632.78 926.264C639.005 921.41 650.105 921.41 656.33 926.264C663.849 932.126 673.307 935.619 683.581 935.619C693.485 935.619 702.63 932.373 710.012 926.888C715.5 922.81 724.001 922.81 729.488 926.888C736.87 932.373 746.016 935.619 755.919 935.619C766.078 935.619 775.44 932.204 782.918 926.459C788.734 921.991 798.329 921.991 804.146 926.459C811.624 932.204 820.985 935.619 831.144 935.619C841.299 935.619 850.657 932.207 858.133 926.466C863.943 922.006 873.511 922.006 879.321 926.466C886.797 932.207 896.155 935.619 906.31 935.619C916.584 935.619 926.042 932.126 933.561 926.264C939.786 921.41 950.887 921.41 957.111 926.264C964.631 932.126 974.089 935.619 984.362 935.619C994.266 935.619 1003.41 932.374 1010.79 926.888C1016.28 922.81 1024.78 922.81 1030.27 926.888C1037.65 932.374 1046.8 935.619 1056.7 935.619C1066.86 935.619 1076.22 932.204 1083.7 926.459C1089.52 921.991 1099.11 921.991 1104.93 926.459C1112.41 932.204 1121.77 935.619 1131.93 935.619C1142.08 935.619 1151.44 932.207 1158.91 926.466C1164.72 922.006 1174.29 922.006 1180.1 926.466C1187.58 932.207 1196.94 935.619 1207.09 935.619C1217.36 935.619 1226.82 932.126 1234.34 926.264C1240.57 921.41 1251.67 921.41 1257.89 926.264C1265.41 932.126 1274.87 935.619 1285.14 935.619C1295.3 935.619 1304.66 932.205 1312.14 926.461C1317.96 921.994 1327.54 921.994 1333.36 926.461C1340.84 932.205 1350.2 935.619 1360.36 935.619C1370.63 935.619 1380.09 932.127 1387.61 926.264C1393.82 921.418 1404.89 921.418 1411.11 926.264C1418.63 932.127 1428.08 935.619 1438.36 935.619C1462.85 935.619 1482.71 915.76 1482.71 891.262C1490.19 -373.141 1470.33 -393 1445.83 -393C1435.56 -393 1426.1 -389.507 1418.58 -383.645C1412.36 -378.798 1401.3 -378.798 1395.08 -383.645C1387.56 -389.507 1378.1 -393 1367.83 -393C1357.67 -393 1348.31 -389.585 1340.83 -383.841C1335.02 -379.374 1325.43 -379.374 1319.61 -383.841C1312.13 -389.585 1302.77 -393 1292.62 -393C1282.34 -393 1272.88 -389.507 1265.36 -383.644C1259.14 -378.791 1248.04 -378.791 1241.81 -383.644C1234.29 -389.507 1224.84 -393 1214.56 -393C1204.41 -393 1195.05 -389.588 1187.57 -383.847C1181.76 -379.387 1172.2 -379.387 1166.39 -383.847C1158.91 -389.588 1149.55 -393 1139.4 -393C1129.24 -393 1119.88 -389.585 1112.4 -383.84C1106.58 -379.372 1096.99 -379.372 1091.17 -383.84C1083.69 -389.585 1074.33 -393 1064.17 -393C1054.27 -393 1045.12 -389.754 1037.74 -384.269C1032.25 -380.191 1023.75 -380.191 1018.27 -384.269C1010.88 -389.754 1001.74 -393 991.835 -393C981.561 -393 972.103 -389.507 964.583 -383.644C958.359 -378.791 947.258 -378.791 941.034 -383.644C933.514 -389.507 924.056 -393 913.782 -393C903.628 -393 894.27 -389.588 886.793 -383.847C880.984 -379.387 871.415 -379.387 865.606 -383.847C858.129 -389.588 848.771 -393 838.617 -393C828.458 -393 819.096 -389.585 811.618 -383.84C805.801 -379.372 796.207 -379.372 790.39 -383.84C782.912 -389.585 773.551 -393 763.392 -393C753.488 -393 744.342 -389.754 736.961 -384.269C731.473 -380.191 722.972 -380.191 717.484 -384.269C710.103 -389.754 700.957 -393 691.053 -393C680.78 -393 671.322 -389.507 663.802 -383.644C657.578 -378.791 646.477 -378.791 640.252 -383.644C632.733 -389.507 623.275 -393 613.001 -393C602.846 -393 593.489 -389.588 586.012 -383.847C580.203 -379.387 570.634 -379.387 564.824 -383.847C557.348 -389.588 547.99 -393 537.835 -393C527.676 -393 518.315 -389.585 510.837 -383.84C505.02 -379.372 495.426 -379.372 489.609 -383.84C482.131 -389.585 472.769 -393 462.61 -393C452.707 -393 443.561 -389.754 436.179 -384.269C430.692 -380.191 422.191 -380.191 416.703 -384.269C409.321 -389.754 400.176 -393 390.272 -393C379.998 -393 370.54 -389.507 363.021 -383.644C356.796 -378.791 345.696 -378.791 339.471 -383.644C331.952 -389.507 322.494 -393 312.22 -393C302.065 -393 292.707 -389.588 285.231 -383.847C279.421 -379.387 269.853 -379.387 264.043 -383.847C256.566 -389.588 247.209 -393 237.054 -393C226.895 -393 217.534 -389.585 210.056 -383.84C204.239 -379.372 194.644 -379.372 188.828 -383.84C181.349 -389.585 171.988 -393 161.829 -393C151.686 -393 142.339 -389.596 134.866 -383.867C129.078 -379.43 119.581 -379.43 113.792 -383.867C106.32 -389.596 96.9721 -393 86.8293 -393C76.6864 -393 67.3387 -389.596 59.8664 -383.867C54.0777 -379.43 44.5808 -379.43 38.7922 -383.867C31.3199 -389.596 21.9721 -393 11.8293 -393C-12.6684 -393 -32.5277 -373.141 -40 891.262C-40 915.76 -20.1407 935.619 4.35698 935.619Z" fill="url(#paint0_linear_1168_35701)"/>
<defs>
<linearGradient id="paint0_linear_1168_35701" x1="110" y1="891.261" x2="1174.91" y2="1110.02" gradientUnits="userSpaceOnUse">
<stop stop-color="#FFF2E2"/>
<stop offset="1" stop-color="#C4B7BA"/>
</linearGradient>
</defs>
</svg>
