<?xml version="1.0" encoding="UTF-8" standalone="no"?>
<!DOCTYPE svg PUBLIC "-//W3C//DTD SVG 1.1//EN"
 "http://www.w3.org/Graphics/SVG/1.1/DTD/svg11.dtd">
<!-- Generated by graphviz version 11.0.0 (20240428.1522)
 -->
<!-- Pages: 1 -->
<svg width="425pt" height="260pt"
 viewBox="0.00 0.00 424.62 260.00" xmlns="http://www.w3.org/2000/svg" xmlns:xlink="http://www.w3.org/1999/xlink">
<g id="graph0" class="graph" transform="scale(1 1) rotate(0) translate(4 256)">
<polygon fill="white" stroke="none" points="-4,4 -4,-256 420.62,-256 420.62,4 -4,4"/>
<!-- storage -->
<g id="node1" class="node">
<title>storage</title>
<ellipse fill="none" stroke="black" cx="108.04" cy="-90" rx="37.53" ry="18"/>
<text text-anchor="middle" x="108.04" y="-84.95" font-family="Times,serif" font-size="14.00">storage</text>
</g>
<!-- types -->
<g id="node2" class="node">
<title>types</title>
<ellipse fill="none" stroke="black" cx="193.04" cy="-18" rx="30.37" ry="18"/>
<text text-anchor="middle" x="193.04" y="-12.95" font-family="Times,serif" font-size="14.00">types</text>
</g>
<!-- storage&#45;&gt;types -->
<g id="edge1" class="edge">
<title>storage&#45;&gt;types</title>
<path fill="none" stroke="black" d="M126.07,-74.15C138.03,-64.31 153.91,-51.23 167.2,-40.28"/>
<polygon fill="black" stroke="black" points="169.25,-43.13 174.75,-34.07 164.8,-37.73 169.25,-43.13"/>
</g>
<!-- wasm -->
<g id="node3" class="node">
<title>wasm</title>
<ellipse fill="none" stroke="black" cx="339.04" cy="-90" rx="32.93" ry="18"/>
<text text-anchor="middle" x="339.04" y="-84.95" font-family="Times,serif" font-size="14.00">wasm</text>
</g>
<!-- wasm&#45;&gt;types -->
<g id="edge2" class="edge">
<title>wasm&#45;&gt;types</title>
<path fill="none" stroke="black" d="M314.94,-77.44C290.77,-65.85 253.37,-47.92 226.37,-34.98"/>
<polygon fill="black" stroke="black" points="228.12,-31.94 217.59,-30.77 225.09,-38.25 228.12,-31.94"/>
</g>
<!-- merkle -->
<g id="node4" class="node">
<title>merkle</title>
<ellipse fill="none" stroke="black" cx="80.04" cy="-162" rx="37.02" ry="18"/>
<text text-anchor="middle" x="80.04" y="-156.95" font-family="Times,serif" font-size="14.00">merkle</text>
</g>
<!-- merkle&#45;&gt;storage -->
<g id="edge4" class="edge">
<title>merkle&#45;&gt;storage</title>
<path fill="none" stroke="black" d="M86.82,-144.05C89.92,-136.32 93.66,-126.96 97.14,-118.27"/>
<polygon fill="black" stroke="black" points="100.3,-119.78 100.77,-109.19 93.8,-117.18 100.3,-119.78"/>
</g>
<!-- merkle&#45;&gt;types -->
<g id="edge3" class="edge">
<title>merkle&#45;&gt;types</title>
<path fill="none" stroke="black" d="M69.58,-144.48C59.01,-125.45 46.18,-93.99 61.04,-72 81.16,-42.25 121.02,-29.2 151.69,-23.47"/>
<polygon fill="black" stroke="black" points="152.15,-26.94 161.45,-21.86 151.01,-20.04 152.15,-26.94"/>
</g>
<!-- app -->
<g id="node5" class="node">
<title>app</title>
<ellipse fill="none" stroke="black" cx="203.04" cy="-162" rx="27" ry="18"/>
<text text-anchor="middle" x="203.04" y="-156.95" font-family="Times,serif" font-size="14.00">app</text>
</g>
<!-- app&#45;&gt;storage -->
<g id="edge6" class="edge">
<title>app&#45;&gt;storage</title>
<path fill="none" stroke="black" d="M185.62,-148.16C172.01,-138.13 152.8,-123.98 136.9,-112.26"/>
<polygon fill="black" stroke="black" points="139.33,-109.71 129.21,-106.59 135.18,-115.34 139.33,-109.71"/>
</g>
<!-- app&#45;&gt;types -->
<g id="edge5" class="edge">
<title>app&#45;&gt;types</title>
<path fill="none" stroke="black" d="M201.82,-143.59C200.13,-119.61 197.07,-76.14 195.05,-47.42"/>
<polygon fill="black" stroke="black" points="198.55,-47.35 194.36,-37.62 191.57,-47.84 198.55,-47.35"/>
</g>
<!-- db/disk -->
<g id="node6" class="node">
<title>db/disk</title>
<ellipse fill="none" stroke="black" cx="38.04" cy="-234" rx="38.04" ry="18"/>
<text text-anchor="middle" x="38.04" y="-228.95" font-family="Times,serif" font-size="14.00">db/disk</text>
</g>
<!-- db/disk&#45;&gt;types -->
<g id="edge7" class="edge">
<title>db/disk&#45;&gt;types</title>
<path fill="none" stroke="black" d="M33.46,-215.67C25.98,-183.12 15.34,-112.49 51.04,-72 76.7,-42.91 119.89,-29.75 151.91,-23.82"/>
<polygon fill="black" stroke="black" points="152.37,-27.29 161.66,-22.19 151.22,-20.38 152.37,-27.29"/>
</g>
<!-- db/disk&#45;&gt;merkle -->
<g id="edge8" class="edge">
<title>db/disk&#45;&gt;merkle</title>
<path fill="none" stroke="black" d="M48,-216.41C52.86,-208.3 58.83,-198.35 64.3,-189.25"/>
<polygon fill="black" stroke="black" points="67.24,-191.14 69.38,-180.77 61.24,-187.54 67.24,-191.14"/>
</g>
<!-- db/disk&#45;&gt;app -->
<g id="edge9" class="edge">
<title>db/disk&#45;&gt;app</title>
<path fill="none" stroke="black" d="M65.66,-221.28C94.42,-209.08 139.47,-189.97 170.08,-176.99"/>
<polygon fill="black" stroke="black" points="171.41,-180.22 179.25,-173.1 168.68,-173.78 171.41,-180.22"/>
</g>
<!-- db/memory -->
<g id="node7" class="node">
<title>db/memory</title>
<ellipse fill="none" stroke="black" cx="148.04" cy="-234" rx="54.42" ry="18"/>
<text text-anchor="middle" x="148.04" y="-228.95" font-family="Times,serif" font-size="14.00">db/memory</text>
</g>
<!-- db/memory&#45;&gt;types -->
<g id="edge10" class="edge">
<title>db/memory&#45;&gt;types</title>
<path fill="none" stroke="black" d="M151.65,-215.85C159.39,-179.07 177.63,-92.29 187.11,-47.24"/>
<polygon fill="black" stroke="black" points="190.48,-48.22 189.11,-37.71 183.63,-46.78 190.48,-48.22"/>
</g>
<!-- db/memory&#45;&gt;merkle -->
<g id="edge11" class="edge">
<title>db/memory&#45;&gt;merkle</title>
<path fill="none" stroke="black" d="M131.93,-216.41C123.3,-207.53 112.53,-196.44 103.04,-186.67"/>
<polygon fill="black" stroke="black" points="105.65,-184.33 96.17,-179.6 100.62,-189.21 105.65,-184.33"/>
</g>
<!-- db/memory&#45;&gt;app -->
<g id="edge12" class="edge">
<title>db/memory&#45;&gt;app</title>
<path fill="none" stroke="black" d="M161.36,-216.05C168.13,-207.44 176.48,-196.81 183.93,-187.33"/>
<polygon fill="black" stroke="black" points="186.62,-189.57 190.04,-179.55 181.11,-185.25 186.62,-189.57"/>
</g>
<!-- vm/wasm -->
<g id="node8" class="node">
<title>vm/wasm</title>
<ellipse fill="none" stroke="black" cx="268.04" cy="-234" rx="47.77" ry="18"/>
<text text-anchor="middle" x="268.04" y="-228.95" font-family="Times,serif" font-size="14.00">vm/wasm</text>
</g>
<!-- vm/wasm&#45;&gt;types -->
<g id="edge13" class="edge">
<title>vm/wasm&#45;&gt;types</title>
<path fill="none" stroke="black" d="M262.67,-215.87C256.99,-197.91 247.67,-168.87 239.04,-144 227.35,-110.28 213.03,-71.77 203.51,-46.52"/>
<polygon fill="black" stroke="black" points="206.84,-45.44 200.03,-37.33 200.3,-47.92 206.84,-45.44"/>
</g>
<!-- vm/wasm&#45;&gt;app -->
<g id="edge15" class="edge">
<title>vm/wasm&#45;&gt;app</title>
<path fill="none" stroke="black" d="M252.97,-216.76C244.5,-207.64 233.79,-196.11 224.46,-186.06"/>
<polygon fill="black" stroke="black" points="227.11,-183.77 217.74,-178.83 221.98,-188.54 227.11,-183.77"/>
</g>
<!-- crypto -->
<g id="node9" class="node">
<title>crypto</title>
<ellipse fill="none" stroke="black" cx="320.04" cy="-162" rx="34.46" ry="18"/>
<text text-anchor="middle" x="320.04" y="-156.95" font-family="Times,serif" font-size="14.00">crypto</text>
</g>
<!-- vm/wasm&#45;&gt;crypto -->
<g id="edge14" class="edge">
<title>vm/wasm&#45;&gt;crypto</title>
<path fill="none" stroke="black" d="M280.37,-216.41C286.67,-207.92 294.48,-197.41 301.5,-187.96"/>
<polygon fill="black" stroke="black" points="304.11,-190.32 307.26,-180.2 298.49,-186.14 304.11,-190.32"/>
</g>
<!-- vm/rust -->
<g id="node10" class="node">
<title>vm/rust</title>
<ellipse fill="none" stroke="black" cx="377.04" cy="-234" rx="39.58" ry="18"/>
<text text-anchor="middle" x="377.04" y="-228.95" font-family="Times,serif" font-size="14.00">vm/rust</text>
</g>
<!-- vm/rust&#45;&gt;types -->
<g id="edge16" class="edge">
<title>vm/rust&#45;&gt;types</title>
<path fill="none" stroke="black" d="M383.74,-215.87C395,-183.96 413.45,-114.8 381.04,-72 363.33,-48.6 283.6,-32.61 233.83,-24.71"/>
<polygon fill="black" stroke="black" points="234.4,-21.26 223.98,-23.2 233.33,-28.17 234.4,-21.26"/>
</g>
<!-- vm/rust&#45;&gt;wasm -->
<g id="edge19" class="edge">
<title>vm/rust&#45;&gt;wasm</title>
<path fill="none" stroke="black" d="M375.7,-215.63C373.98,-197.47 370.31,-168.28 363.04,-144 360.43,-135.25 356.67,-126.07 352.9,-117.86"/>
<polygon fill="black" stroke="black" points="356.17,-116.6 348.68,-109.1 349.86,-119.63 356.17,-116.6"/>
</g>
<!-- vm/rust&#45;&gt;app -->
<g id="edge18" class="edge">
<title>vm/rust&#45;&gt;app</title>
<path fill="none" stroke="black" d="M348.31,-221.44C317.44,-209.02 268.45,-189.31 236.02,-176.27"/>
<polygon fill="black" stroke="black" points="237.7,-173.17 227.12,-172.68 235.09,-179.66 237.7,-173.17"/>
</g>
<!-- vm/rust&#45;&gt;crypto -->
<g id="edge17" class="edge">
<title>vm/rust&#45;&gt;crypto</title>
<path fill="none" stroke="black" d="M363.82,-216.76C356.75,-208.07 347.88,-197.19 339.99,-187.49"/>
<polygon fill="black" stroke="black" points="342.78,-185.38 333.76,-179.84 337.36,-189.8 342.78,-185.38"/>
</g>
</g>
</svg>
