<?xml version="1.0" encoding="UTF-8" standalone="no"?>
<!DOCTYPE svg PUBLIC "-//W3C//DTD SVG 1.1//EN"
 "http://www.w3.org/Graphics/SVG/1.1/DTD/svg11.dtd">
<!-- Generated by graphviz version 11.0.0 (20240428.1522)
 -->
<!-- Pages: 1 -->
<svg width="456pt" height="260pt"
 viewBox="0.00 0.00 455.73 260.00" xmlns="http://www.w3.org/2000/svg" xmlns:xlink="http://www.w3.org/1999/xlink">
<g id="graph0" class="graph" transform="scale(1 1) rotate(0) translate(4 256)">
<polygon fill="white" stroke="none" points="-4,4 -4,-256 451.73,-256 451.73,4 -4,4"/>
<!-- storage -->
<g id="node1" class="node">
<title>storage</title>
<ellipse fill="none" stroke="black" cx="219.64" cy="-90" rx="37.53" ry="18"/>
<text text-anchor="middle" x="219.64" y="-84.95" font-family="Times,serif" font-size="14.00">storage</text>
</g>
<!-- types -->
<g id="node2" class="node">
<title>types</title>
<ellipse fill="none" stroke="black" cx="186.64" cy="-18" rx="30.37" ry="18"/>
<text text-anchor="middle" x="186.64" y="-12.95" font-family="Times,serif" font-size="14.00">types</text>
</g>
<!-- storage&#45;&gt;types -->
<g id="edge1" class="edge">
<title>storage&#45;&gt;types</title>
<path fill="none" stroke="black" d="M211.65,-72.05C207.96,-64.23 203.49,-54.75 199.35,-45.98"/>
<polygon fill="black" stroke="black" points="202.63,-44.71 195.2,-37.16 196.29,-47.7 202.63,-44.71"/>
</g>
<!-- wasm -->
<g id="node3" class="node">
<title>wasm</title>
<ellipse fill="none" stroke="black" cx="54.64" cy="-90" rx="32.93" ry="18"/>
<text text-anchor="middle" x="54.64" y="-84.95" font-family="Times,serif" font-size="14.00">wasm</text>
</g>
<!-- wasm&#45;&gt;types -->
<g id="edge2" class="edge">
<title>wasm&#45;&gt;types</title>
<path fill="none" stroke="black" d="M77.63,-76.81C98.99,-65.48 131,-48.5 154.81,-35.88"/>
<polygon fill="black" stroke="black" points="156.25,-39.07 163.45,-31.3 152.97,-32.89 156.25,-39.07"/>
</g>
<!-- merkle -->
<g id="node4" class="node">
<title>merkle</title>
<ellipse fill="none" stroke="black" cx="88.64" cy="-162" rx="37.02" ry="18"/>
<text text-anchor="middle" x="88.64" y="-156.95" font-family="Times,serif" font-size="14.00">merkle</text>
</g>
<!-- merkle&#45;&gt;storage -->
<g id="edge4" class="edge">
<title>merkle&#45;&gt;storage</title>
<path fill="none" stroke="black" d="M112.97,-148C133.37,-137.09 162.74,-121.4 185.5,-109.24"/>
<polygon fill="black" stroke="black" points="186.93,-112.45 194.1,-104.65 183.63,-106.27 186.93,-112.45"/>
</g>
<!-- merkle&#45;&gt;types -->
<g id="edge3" class="edge">
<title>merkle&#45;&gt;types</title>
<path fill="none" stroke="black" d="M96.89,-144.3C106.26,-125.94 122.49,-95.87 139.64,-72 146.95,-61.81 155.9,-51.33 164.02,-42.4"/>
<polygon fill="black" stroke="black" points="166.49,-44.88 170.74,-35.17 161.37,-40.12 166.49,-44.88"/>
</g>
<!-- app -->
<g id="node5" class="node">
<title>app</title>
<ellipse fill="none" stroke="black" cx="243.64" cy="-162" rx="27" ry="18"/>
<text text-anchor="middle" x="243.64" y="-156.95" font-family="Times,serif" font-size="14.00">app</text>
</g>
<!-- app&#45;&gt;storage -->
<g id="edge6" class="edge">
<title>app&#45;&gt;storage</title>
<path fill="none" stroke="black" d="M237.83,-144.05C235.2,-136.4 232.03,-127.16 229.08,-118.56"/>
<polygon fill="black" stroke="black" points="232.44,-117.55 225.88,-109.22 225.81,-119.82 232.44,-117.55"/>
</g>
<!-- app&#45;&gt;types -->
<g id="edge5" class="edge">
<title>app&#45;&gt;types</title>
<path fill="none" stroke="black" d="M254.42,-145.05C265.45,-126.57 279.32,-95.62 266.64,-72 257.17,-54.38 238.98,-41.62 222.34,-33.05"/>
<polygon fill="black" stroke="black" points="224.17,-30.05 213.63,-28.9 221.15,-36.36 224.17,-30.05"/>
</g>
<!-- db&#45;disk -->
<g id="node6" class="node">
<title>db&#45;disk</title>
<ellipse fill="none" stroke="black" cx="55.64" cy="-234" rx="38.56" ry="18"/>
<text text-anchor="middle" x="55.64" y="-228.95" font-family="Times,serif" font-size="14.00">db&#45;disk</text>
</g>
<!-- db&#45;disk&#45;&gt;types -->
<g id="edge7" class="edge">
<title>db&#45;disk&#45;&gt;types</title>
<path fill="none" stroke="black" d="M43.07,-216.7C20.72,-185.59 -20.6,-116.87 12.64,-72 42.81,-31.27 103.56,-20.78 144.68,-18.62"/>
<polygon fill="black" stroke="black" points="144.59,-22.13 154.46,-18.26 144.34,-15.13 144.59,-22.13"/>
</g>
<!-- db&#45;disk&#45;&gt;merkle -->
<g id="edge8" class="edge">
<title>db&#45;disk&#45;&gt;merkle</title>
<path fill="none" stroke="black" d="M63.62,-216.05C67.31,-208.23 71.78,-198.75 75.92,-189.98"/>
<polygon fill="black" stroke="black" points="78.98,-191.7 80.08,-181.16 72.64,-188.71 78.98,-191.7"/>
</g>
<!-- db&#45;disk&#45;&gt;app -->
<g id="edge9" class="edge">
<title>db&#45;disk&#45;&gt;app</title>
<path fill="none" stroke="black" d="M85.01,-222.06C118.89,-209.45 174.48,-188.75 210.04,-175.51"/>
<polygon fill="black" stroke="black" points="210.83,-178.95 218.98,-172.18 208.38,-172.39 210.83,-178.95"/>
</g>
<!-- db&#45;memory -->
<g id="node7" class="node">
<title>db&#45;memory</title>
<ellipse fill="none" stroke="black" cx="166.64" cy="-234" rx="54.93" ry="18"/>
<text text-anchor="middle" x="166.64" y="-228.95" font-family="Times,serif" font-size="14.00">db&#45;memory</text>
</g>
<!-- db&#45;memory&#45;&gt;types -->
<g id="edge10" class="edge">
<title>db&#45;memory&#45;&gt;types</title>
<path fill="none" stroke="black" d="M166.04,-215.97C165.29,-186.46 164.89,-124.01 172.64,-72 173.86,-63.78 175.88,-55 178.01,-47"/>
<polygon fill="black" stroke="black" points="181.35,-48.02 180.71,-37.44 174.62,-46.11 181.35,-48.02"/>
</g>
<!-- db&#45;memory&#45;&gt;merkle -->
<g id="edge11" class="edge">
<title>db&#45;memory&#45;&gt;merkle</title>
<path fill="none" stroke="black" d="M148.54,-216.76C138.39,-207.65 125.55,-196.13 114.36,-186.09"/>
<polygon fill="black" stroke="black" points="116.73,-183.51 106.95,-179.44 112.06,-188.72 116.73,-183.51"/>
</g>
<!-- db&#45;memory&#45;&gt;app -->
<g id="edge12" class="edge">
<title>db&#45;memory&#45;&gt;app</title>
<path fill="none" stroke="black" d="M184.49,-216.76C195.04,-207.17 208.53,-194.91 219.96,-184.52"/>
<polygon fill="black" stroke="black" points="222.05,-187.35 227.1,-178.04 217.34,-182.17 222.05,-187.35"/>
</g>
<!-- vm&#45;wasm -->
<g id="node8" class="node">
<title>vm&#45;wasm</title>
<ellipse fill="none" stroke="black" cx="301.64" cy="-234" rx="48.28" ry="18"/>
<text text-anchor="middle" x="301.64" y="-228.95" font-family="Times,serif" font-size="14.00">vm&#45;wasm</text>
</g>
<!-- vm&#45;wasm&#45;&gt;types -->
<g id="edge13" class="edge">
<title>vm&#45;wasm&#45;&gt;types</title>
<path fill="none" stroke="black" d="M304.38,-215.76C308.44,-184.28 312.63,-116.61 282.64,-72 269.04,-51.78 245.04,-38.53 224.44,-30.33"/>
<polygon fill="black" stroke="black" points="225.76,-27.09 215.16,-26.92 223.34,-33.66 225.76,-27.09"/>
</g>
<!-- vm&#45;wasm&#45;&gt;app -->
<g id="edge15" class="edge">
<title>vm&#45;wasm&#45;&gt;app</title>
<path fill="none" stroke="black" d="M287.89,-216.41C280.58,-207.59 271.46,-196.58 263.4,-186.86"/>
<polygon fill="black" stroke="black" points="266.14,-184.67 257.06,-179.2 260.75,-189.14 266.14,-184.67"/>
</g>
<!-- crypto -->
<g id="node9" class="node">
<title>crypto</title>
<ellipse fill="none" stroke="black" cx="385.64" cy="-162" rx="34.46" ry="18"/>
<text text-anchor="middle" x="385.64" y="-156.95" font-family="Times,serif" font-size="14.00">crypto</text>
</g>
<!-- vm&#45;wasm&#45;&gt;crypto -->
<g id="edge14" class="edge">
<title>vm&#45;wasm&#45;&gt;crypto</title>
<path fill="none" stroke="black" d="M320.7,-217.12C332.07,-207.64 346.68,-195.46 359.16,-185.06"/>
<polygon fill="black" stroke="black" points="361.19,-187.92 366.64,-178.83 356.71,-182.55 361.19,-187.92"/>
</g>
<!-- vm&#45;rust -->
<g id="node10" class="node">
<title>vm&#45;rust</title>
<ellipse fill="none" stroke="black" cx="407.64" cy="-234" rx="40.09" ry="18"/>
<text text-anchor="middle" x="407.64" y="-228.95" font-family="Times,serif" font-size="14.00">vm&#45;rust</text>
</g>
<!-- vm&#45;rust&#45;&gt;types -->
<g id="edge16" class="edge">
<title>vm&#45;rust&#45;&gt;types</title>
<path fill="none" stroke="black" d="M418.49,-216.19C429.08,-197.46 441.82,-166.82 428.64,-144 386.13,-70.46 284.13,-38.58 227.05,-26.1"/>
<polygon fill="black" stroke="black" points="227.91,-22.71 217.41,-24.1 226.49,-29.56 227.91,-22.71"/>
</g>
<!-- vm&#45;rust&#45;&gt;app -->
<g id="edge18" class="edge">
<title>vm&#45;rust&#45;&gt;app</title>
<path fill="none" stroke="black" d="M379.44,-220.97C350.81,-208.75 306.52,-189.84 276.36,-176.97"/>
<polygon fill="black" stroke="black" points="277.9,-173.82 267.33,-173.11 275.16,-180.26 277.9,-173.82"/>
</g>
<!-- vm&#45;rust&#45;&gt;crypto -->
<g id="edge17" class="edge">
<title>vm&#45;rust&#45;&gt;crypto</title>
<path fill="none" stroke="black" d="M402.2,-215.7C399.85,-208.24 397.05,-199.32 394.42,-190.97"/>
<polygon fill="black" stroke="black" points="397.8,-190.04 391.46,-181.55 391.12,-192.14 397.8,-190.04"/>
</g>
</g>
</svg>
