<svg preserveAspectRatio="none" width="100%" height="100%" overflow="visible" style="display: block;" viewBox="0 0 43.3606 72" fill="none" xmlns="http://www.w3.org/2000/svg">
<g id="Group 1171274600">
<path id="Vector" d="M1.67644 67.5895C1.91744 67.5293 2.23376 67.5895 2.41452 67.2883V7.03648C2.14338 6.9461 1.94757 7.08167 1.75175 7.11179C1.90238 6.46408 2.41452 6.10258 3.09235 6.11764C3.77018 6.1327 4.44801 6.58459 4.44801 7.32268V70.1352C4.44801 70.8883 3.77018 71.3553 3.1526 71.4004C2.35427 71.4456 1.78188 70.9636 1.63125 70.1803V67.6046L1.67644 67.5895Z" fill="var(--fill-0, #F69A38)"/>
<path id="Vector_2" d="M1.67544 67.5868L1.64531 7.48563C1.64531 7.27475 1.6905 7.19943 1.75076 7.10906C1.94657 7.07893 2.14239 6.94336 2.41352 7.03374V67.2855C2.23276 67.5868 1.91645 67.5265 1.67544 67.5868Z" fill="var(--fill-0, #FEC881)"/>
<path id="Vector_3" d="M5.5319 3.05995C5.5319 4.41561 4.43231 5.51521 3.07665 5.51521C1.72098 5.51521 0.621387 4.41561 0.621387 3.05995C0.621387 1.70428 1.72098 0.604688 3.07665 0.604688C4.43231 0.604688 5.5319 1.70428 5.5319 3.05995ZM2.45907 1.71934C2.54945 1.6139 2.54945 1.41809 2.45907 1.34277C2.36869 1.26746 2.21806 1.22227 2.08249 1.28252C1.32935 1.59884 0.892518 2.66831 1.26909 2.87919C1.64567 3.09007 1.72098 2.57793 2.45907 1.71934Z" fill="var(--fill-0, #F69A38)"/>
<path id="Vector_4" d="M2.45908 1.7176C1.721 2.57618 1.69087 3.11845 1.26911 2.87745C0.847343 2.63644 1.34442 1.59709 2.08251 1.28077C2.82059 0.96445 2.39883 1.26571 2.45908 1.34102C2.51933 1.41634 2.5344 1.61216 2.45908 1.7176Z" fill="var(--fill-0, #FDFDFD)"/>
<path id="Vector_5" d="M41.6071 11.9616C42.0439 10.3348 42.4356 8.73812 42.6615 7.03601C42.6916 6.85526 42.7971 6.68957 42.7368 6.38831C35.4464 8.37662 28.3065 6.1473 20.9106 5.62009C16.2712 5.28871 10.7883 5.66528 6.40498 7.2017C5.9079 7.3674 5.45602 7.53309 5.04932 7.83435V25.1417C5.41083 25.0061 5.6669 24.8856 5.95309 24.7049C7.64014 24.1325 9.34226 23.6806 11.1498 23.4245C15.985 22.7467 19.7959 23.0479 24.5709 23.9517C27.463 24.494 30.2647 24.9609 33.202 25.2321C35.3409 25.4429 37.3895 25.4429 39.4983 25.1718C40.5828 25.0212 41.592 24.9007 42.6766 24.5241C41.8933 22.9124 41.336 21.3308 40.8841 19.6437L40.2514 17.2487C40.1611 16.8872 40.2062 16.5859 40.3267 16.2545C40.854 14.8386 41.2305 13.4378 41.6222 11.9767L41.6071 11.9616ZM35.2656 7.69878C35.0999 7.69878 34.9342 7.69878 34.7685 7.68372C34.9342 7.68372 35.0999 7.68372 35.2656 7.69878Z" fill="var(--fill-0, #B3BA4E)"/>
<g id="Group">
<path id="Vector_6" d="M12.341 19.4741C11.3167 19.685 10.3526 19.4741 9.53925 18.8565L9.85557 17.1544C10.428 17.7118 11.0606 18.013 11.7836 17.9076C12.5066 17.8021 12.4163 17.6063 12.4916 17.3503C12.9284 15.8741 9.82544 16.0247 9.61456 13.7803C9.40368 11.536 9.82544 12.0029 10.5786 11.5209C11.6631 10.8129 13.1092 10.9184 14.1485 11.7167C13.8774 12.1535 13.6665 12.5753 13.546 13.1326C13.064 12.7711 12.6121 12.5602 12.0849 12.6506C11.5577 12.741 11.4974 12.9368 11.4372 13.1929C11.3468 13.5695 11.4974 13.9008 11.8288 14.0816L13.064 14.7444C13.8774 15.1812 14.2841 15.9645 14.3142 16.8833C14.3443 17.8021 13.5912 19.203 12.341 19.4591V19.4741Z" fill="var(--fill-0, #FDFDFD)"/>
<path id="Vector_7" d="M35.9594 19.3678H34.197L34.1669 12.9359C33.6246 12.9058 33.1728 12.9058 32.6606 12.9359V11.2488C32.6456 11.2488 37.4657 11.279 37.4657 11.279V12.9359C37.4808 12.9359 35.9745 12.9359 35.9745 12.9359V19.3527L35.9594 19.3678Z" fill="var(--fill-0, #FDFDFD)"/>
<path id="Vector_8" d="M18.08 19.3085H16.3026V12.8465H14.7812L14.7511 11.2348H19.5713C19.6014 11.7921 19.6014 12.3042 19.5713 12.8766C19.0742 12.8465 18.5922 12.8164 18.0499 12.8314V19.2934L18.08 19.3085Z" fill="var(--fill-0, #FDFDFD)"/>
<path id="Vector_9" d="M32.3296 19.3095C31.6518 19.3698 31.0342 19.3396 30.4016 19.3095L29.0158 16.4174C28.9706 16.327 28.9405 16.2367 28.8953 16.2065C28.8049 16.1614 28.579 16.1312 28.579 16.2819V19.3246C28.5639 19.3246 26.8317 19.3246 26.8317 19.3246V11.2207L29.6635 11.2358C31.1999 11.3563 32.1489 12.5613 31.9983 14.0525C31.8476 15.5438 31.5313 15.6643 30.6577 15.9957L32.3598 19.3095H32.3296ZM29.8593 14.7454C30.4468 14.2182 30.2811 13.1789 29.6183 12.8324C28.9556 12.486 28.8802 12.7119 28.5338 12.7722V14.9864C28.9857 14.9864 29.4828 15.0768 29.8443 14.7454H29.8593Z" fill="var(--fill-0, #FDFDFD)"/>
<path id="Vector_10" d="M23.7431 17.744C23.0201 17.6385 22.2971 17.7138 21.544 17.6988L21.0921 19.3256L19.2845 19.2954L20.6251 14.7916L21.7548 11.2066H23.6076L25.9725 19.2954H24.1348C24.1348 19.3105 23.7281 17.744 23.7281 17.744H23.7431ZM23.3816 16.1322L22.6586 13.4058L21.9205 16.1774C22.4628 16.1925 22.9147 16.2527 23.3666 16.1322H23.3816Z" fill="var(--fill-0, #FDFDFD)"/>
</g>
<path id="Vector_11" d="M43.3549 6.50631C43.385 6.25024 43.2946 6.0243 43.1289 5.88873C42.9632 5.75317 42.7524 5.72304 42.4963 5.79835C39.1674 6.74732 34.7539 6.672 31.9824 6.31049L27.2676 5.70798C26.8007 5.64772 26.3337 5.58747 25.8668 5.52722C23.3663 5.19583 21.0015 4.87951 18.501 4.84939C14.7955 4.8042 9.4783 5.15064 5.12511 7.03351C4.98954 6.5515 4.74854 6.20505 4.31172 5.87367C5.27575 5.42178 5.93851 4.57826 6.1042 3.61423C6.31508 2.46944 5.93851 1.39997 5.07992 0.692016C4.16108 -0.0611317 2.8958 -0.211762 1.75102 0.300378C0.621295 0.797455 -0.0565432 1.94224 0.00370855 3.23765C0.0639603 4.42763 0.771924 5.40672 1.90165 5.87367C1.34432 6.25024 1.05811 6.74732 1.05811 7.39503V70.328C1.07318 70.7347 1.25393 71.1113 1.58532 71.4126C1.97695 71.7741 2.56441 72 3.07655 72C3.58869 72 3.15187 72 3.19706 72C4.1159 71.9398 5.07992 71.2167 5.07992 70.1473V25.7568C6.25483 25.1392 7.36949 24.8229 8.31846 24.5818C12.7319 23.4973 17.2508 23.3316 21.7697 24.0697L26.6953 24.8982C27.0718 24.9584 27.4183 25.0187 27.7647 25.0789C30.8225 25.5911 32.6602 25.9074 36.1397 25.9225C38.0828 25.9225 40.8394 25.7869 42.9331 25.0187C43.0687 24.9735 43.1892 24.853 43.2494 24.7174C43.3097 24.5819 43.3097 24.4312 43.2494 24.3107C43.1139 23.9944 42.9783 23.6931 42.8427 23.3919C42.436 22.473 42.0143 21.5391 41.7431 20.4998C41.6377 20.1082 41.5323 19.7015 41.4118 19.3249C41.1707 18.4814 40.9147 17.6077 40.8243 16.7792L42.0143 12.7122C42.6921 10.3775 43.1139 8.40424 43.3398 6.49125L43.3549 6.50631ZM41.5021 12.17C41.1256 13.5708 40.7641 14.8813 40.267 16.2219C40.1163 16.6135 40.1013 16.9148 40.1917 17.2462L40.8243 19.6412C41.3063 21.4488 41.8636 22.9852 42.6017 24.4915C41.5624 24.8379 40.5682 24.9735 39.5289 25.1091H39.4837C37.5104 25.3802 35.4468 25.3952 33.2024 25.1844C30.6267 24.9283 27.9605 24.5367 24.5864 23.904C21.7847 23.3768 19.1487 23.0153 16.2717 23.0153C13.3947 23.0153 12.988 23.1207 11.1503 23.3768C9.46324 23.6178 7.82138 24.0245 5.95357 24.6572C5.6975 24.8229 5.44143 24.9434 5.12511 25.0639V7.84692C5.50168 7.57578 5.92345 7.42515 6.37534 7.25946L6.45066 7.22933C10.367 5.85861 15.6541 5.27115 20.9412 5.64772C23.0952 5.79835 25.2643 6.09961 27.358 6.40087C32.615 7.13896 37.5858 7.83185 42.7373 6.43099C42.7674 6.59669 42.7373 6.73226 42.6921 6.85276C42.677 6.91301 42.662 6.9582 42.6469 7.01845C42.4059 8.82601 41.9992 10.4528 41.5925 11.944L41.5323 12.17H41.5021ZM1.70583 7.4854C1.70583 7.28958 1.75101 7.21427 1.81126 7.13896C1.96189 6.52137 2.41378 6.15986 3.09161 6.15986C3.76945 6.15986 3.10668 6.15986 3.12174 6.15986C3.66401 6.15986 4.44728 6.58163 4.44728 7.31971V70.1322C4.44728 70.8552 3.81464 71.3222 3.19706 71.3523C2.42884 71.3975 1.87152 70.9456 1.72089 70.1774V67.6016C1.73595 67.6016 1.72089 7.50047 1.72089 7.50047L1.70583 7.4854ZM0.666482 3.0569C0.666482 1.73136 1.75101 0.646824 3.07655 0.646824C4.40209 0.646824 5.48663 1.73136 5.48663 3.0569C5.48663 4.38244 4.40209 5.46697 3.07655 5.46697C1.75101 5.46697 0.666482 4.38244 0.666482 3.0569Z" fill="var(--fill-0, black)"/>
</g>
</svg>
