<svg width="281" height="242" viewBox="0 0 281 242" fill="none" xmlns="http://www.w3.org/2000/svg">
<style>
  @media (prefers-color-scheme: dark) {
    .dynamic-stroke { stroke: white; }
  }
  @media (prefers-color-scheme: light) {
    .dynamic-stroke { stroke: black; }
  }
</style>
<path
  d="M4.19141 237.415C4.97168 237.317 7.01962 234.04 7.60639 233.42C12.3132 228.452 17.0717 223.852 22.1811 219.303C28.0337 214.093 33.422 209.606 40.994 207.015C48.4064 204.479 57.0119 202.289 64.8683 202.289C68.679 202.289 72.4273 202.838 76.089 202.838"
  class="dynamic-stroke"
  stroke-width="7.75344"
  stroke-linecap="round"
/>
<path d="M66.2109 202.838C67.4417 200.201 70.3178 198.099 72.1262 195.825C73.6213 193.945 74.9583 191.941 76.6388 190.215C78.8123 187.983 79.9572 185.409 81.8223 182.958C85.8536 177.66 89.9323 172.152 93.7137 166.676C96.0656 163.27 97.7681 160.089 99.1411 156.187C100.729 151.673 102.647 147.785 103.41 143.015C103.714 141.111 103.91 138.317 103.41 136.429C102.666 133.62 98.3732 133.167 96.336 131.703C94.3397 130.268 91.2539 128.826 90.0853 126.489C88.1608 122.64 87.8889 117.956 87.3716 113.744C86.4913 106.575 84.7691 98.17 89.2316 92.034C91.0519 89.5311 92.4396 89.7777 95.3603 89.7777C99.7169 89.7777 104.391 89.1402 108.41 91.1498C108.773 91.3311 110.915 93.1608 111.185 92.217C111.555 90.9234 109.461 90.6592 109.02 89.7777"
  class="dynamic-stroke"
  stroke-width="7.75344"
  stroke-linecap="round"
/>
<path d="M109.02 89.7786C110.145 84.374 115.096 78.7699 117.923 74.1672C121.973 67.5734 125.923 60.5184 128.747 53.281C131.666 45.8019 133.765 37.7766 137.132 30.5042C140.747 22.6956 146.865 13.3357 155.457 10.4717C161.202 8.55669 167.494 8.55078 173.477 8.55078C177.423 8.55078 180.649 8.6323 183.692 11.295C186.691 13.9189 189.725 16.9197 193.845 17.759C197.77 18.5585 201.701 18.8753 205.615 19.5275"
  class="dynamic-stroke"
  stroke-width="7.75344"
  stroke-linecap="round"
/>
<path d="M182.564 6.3555C190.826 6.3555 198.664 6.27155 206.774 5.25783C213.074 4.47042 219.059 4.16016 225.435 4.16016C230.236 4.16016 232.027 4.97506 235.588 8.30692C243.113 15.3458 248.312 23.9926 250.62 34.0413C251.524 37.9766 251.169 42.1712 251.169 46.1767C251.169 51.9904 251.358 57.838 251.139 63.648C250.944 68.7987 249.231 73.4962 248.547 78.558C248.117 81.7394 246.704 87.3075 248.303 90.3275C249.206 92.0327 252.501 89.9038 253.608 89.5347C257.572 88.2136 266.067 87.2245 269.525 90.0531C272.964 92.867 274.635 94.3434 276.141 98.5601C277.119 101.298 276.964 103.836 276.964 106.732C276.964 114.365 276.871 123.323 273.366 130.332C271.108 134.849 265.359 138.422 261.292 141.095C256.211 144.434 250.389 146.535 245.437 149.968C237.139 155.72 228.693 161.277 220.831 167.622C214.533 172.704 209.404 177.79 201.896 181.008C200.123 181.767 198.235 182.834 196.285 183.05C195.48 183.14 194.281 183.065 193.663 183.752C192.964 184.529 195.639 186.894 196.011 187.472C200.04 193.739 203.35 200.095 211.653 200.095C216.147 200.095 220.57 201.193 225.099 201.193C227.688 201.193 229.985 202.29 232.509 202.29C233.561 202.29 235.314 201.967 235.314 202.626C235.314 204.999 237.828 207.474 239.095 209.303C241.352 212.564 243.516 215.797 246.351 218.633C247.483 219.765 249.147 220.069 250.071 221.225C252.584 224.366 252.896 227.732 253.913 231.927"
  class="dynamic-stroke"
  stroke-width="7.75344"
  stroke-linecap="round"
/>
<path d="M112.878 113.9C112.878 112.507 112.447 117.062 111.231 117.742C107.977 119.56 109.029 112.654 109.92 111.247C112.966 106.438 114.757 112.412 112.878 113.351"
  class="dynamic-stroke"
  stroke-width="7.75344"
  stroke-linecap="round"
/>
<path d="M257.77 113.9C257.77 112.507 257.34 117.062 256.124 117.742C252.87 119.56 253.922 112.654 254.812 111.247C257.858 106.438 259.649 112.412 257.77 113.351"
  class="dynamic-stroke"
  stroke-width="7.75344"
  stroke-linecap="round"
/>
<path d="M173.922 143.601C176.457 143.601 178.249 144 180.685 144.741C186.399 146.48 193.867 146.553 199.73 145.83C202.834 145.446 206.433 144.448 209.473 143.601C211.471 143.044 213.209 142.505 214.992 141.502C216.303 140.765 218.493 139.811 219.164 138.471"
  class="dynamic-stroke"
  stroke-width="7.75344"
  stroke-linecap="round"
/>
</svg>
